<svg xmlns="http://www.w3.org/2000/svg" viewBox="430 315 430 760" width="430" height="760" style="shape-rendering:geometricPrecision; text-rendering:geometricPrecision; image-rendering:optimizeQuality; fill-rule:evenodd; clip-rule:evenodd">
<g><path style="opacity:1" fill="#cbb8a5" d="M 658.5,359.5 C 652.308,362.551 649.808,367.551 651,374.5C 652.587,373.273 653.921,373.606 655,375.5C 656.087,379.917 654.587,381.25 650.5,379.5C 614.844,346.441 574.51,339.275 529.5,358C 502.383,371.613 484.049,392.78 474.5,421.5C 473.596,420.791 473.263,419.791 473.5,418.5C 471.213,418.724 469.047,419.391 467,420.5C 463.985,417.818 461.319,414.818 459,411.5C 458.085,412.328 457.419,413.328 457,414.5C 456.517,413.552 456.351,412.552 456.5,411.5C 474.66,363.858 508.993,335.691 559.5,327C 597.39,323.797 630.39,334.631 658.5,359.5 Z"/></g>
<g><path style="opacity:1" fill="#f8f8f7" d="M 650.5,379.5 C 672.144,403.716 680.977,432.049 677,464.5C 674.617,480.21 669.117,494.71 660.5,508C 659.552,508.483 658.552,508.649 657.5,508.5C 656.833,508.5 656.167,508.5 655.5,508.5C 650.684,507.674 645.684,507.174 640.5,507C 649.099,496.97 654.932,485.47 658,472.5C 661.797,460.136 662.297,447.803 659.5,435.5C 658.881,428.319 656.881,421.653 653.5,415.5C 643.299,392.047 625.966,376.38 601.5,368.5C 599.106,367.985 596.772,367.319 594.5,366.5C 593.737,365.732 592.737,365.232 591.5,365C 587.848,364.501 584.182,364.335 580.5,364.5C 560.153,363.399 541.82,368.732 525.5,380.5C 504.814,394.528 492.147,413.862 487.5,438.5C 483.39,471.244 494.057,498.077 519.5,519C 533.729,528.446 549.396,533.279 566.5,533.5C 568.232,537.697 569.565,542.031 570.5,546.5C 570.5,547.833 570.5,549.167 570.5,550.5C 531.841,549.68 502.841,532.68 483.5,499.5C 469.843,474.801 466.843,448.801 474.5,421.5C 484.049,392.78 502.383,371.613 529.5,358C 574.51,339.275 614.844,346.441 650.5,379.5 Z"/></g>
<g><path style="opacity:1" fill="#d9cec3" d="M 580.5,364.5 C 584.182,364.335 587.848,364.501 591.5,365C 592.737,365.232 593.737,365.732 594.5,366.5C 589.662,366.089 584.995,365.422 580.5,364.5 Z"/></g>
<g><path style="opacity:1" fill="#9e7f5e" d="M 580.5,364.5 C 584.995,365.422 589.662,366.089 594.5,366.5C 596.772,367.319 599.106,367.985 601.5,368.5C 600.294,369.88 600.627,371.047 602.5,372C 600.565,375.117 598.398,375.284 596,372.5C 594.687,374.617 592.853,376.117 590.5,377C 591.167,377.333 591.833,377.667 592.5,378C 589.621,378.874 586.955,378.54 584.5,377C 585.672,376.581 586.672,375.915 587.5,375C 585.649,374.163 583.816,373.329 582,372.5C 581.217,374.433 581.717,375.933 583.5,377C 578.981,377.175 574.647,377.675 570.5,378.5C 558.299,379.066 546.965,382.566 536.5,389C 532.805,391.51 529.138,394.01 525.5,396.5C 523.466,395.452 522.133,393.786 521.5,391.5C 522.709,389.585 524.042,387.752 525.5,386C 524.988,383.917 524.988,382.083 525.5,380.5C 541.82,368.732 560.153,363.399 580.5,364.5 Z"/></g>
<g><path style="opacity:1" fill="#a58665" d="M 601.5,368.5 C 625.966,376.38 643.299,392.047 653.5,415.5C 651.924,420.312 648.591,423.312 643.5,424.5C 629.792,392.789 605.458,377.456 570.5,378.5C 574.647,377.675 578.981,377.175 583.5,377C 581.717,375.933 581.217,374.433 582,372.5C 583.816,373.329 585.649,374.163 587.5,375C 586.672,375.915 585.672,376.581 584.5,377C 586.955,378.54 589.621,378.874 592.5,378C 591.833,377.667 591.167,377.333 590.5,377C 592.853,376.117 594.687,374.617 596,372.5C 598.398,375.284 600.565,375.117 602.5,372C 600.627,371.047 600.294,369.88 601.5,368.5 Z"/></g>
<g><path style="opacity:1" fill="#f8f8f8" d="M 570.5,378.5 C 605.458,377.456 629.792,392.789 643.5,424.5C 644.879,429.397 645.879,434.397 646.5,439.5C 649.192,463.924 642.192,485.091 625.5,503C 624.552,503.483 623.552,503.649 622.5,503.5C 615.702,481.606 608.202,459.939 600,438.5C 587.648,423.742 572.814,420.575 555.5,429C 544.27,436.968 539.77,447.802 542,461.5C 548.461,480.084 554.628,498.751 560.5,517.5C 560.631,518.376 560.298,519.043 559.5,519.5C 519.671,511.655 500.005,487.321 500.5,446.5C 502.451,426.598 510.784,409.931 525.5,396.5C 529.138,394.01 532.805,391.51 536.5,389C 546.965,382.566 558.299,379.066 570.5,378.5 Z"/></g>
<g><path style="opacity:1" fill="#a28363" d="M 525.5,380.5 C 524.988,382.083 524.988,383.917 525.5,386C 524.042,387.752 522.709,389.585 521.5,391.5C 522.133,393.786 523.466,395.452 525.5,396.5C 510.784,409.931 502.451,426.598 500.5,446.5C 499.677,449.977 499.177,453.644 499,457.5C 498.667,453.5 498.333,449.5 498,445.5C 497.667,450.167 497.333,454.833 497,459.5C 495.167,457.167 493.333,454.833 491.5,452.5C 490.686,454.766 490.186,457.1 490,459.5C 489.586,459.957 489.086,460.291 488.5,460.5C 487.503,453.197 487.169,445.863 487.5,438.5C 492.147,413.862 504.814,394.528 525.5,380.5 Z"/></g>
<g><path style="opacity:1" fill="#b69d82" d="M 653.5,415.5 C 656.881,421.653 658.881,428.319 659.5,435.5C 659.607,437.379 659.107,437.712 658,436.5C 654.567,438.467 651.4,440.801 648.5,443.5C 647.828,442.051 647.161,440.718 646.5,439.5C 645.879,434.397 644.879,429.397 643.5,424.5C 648.591,423.312 651.924,420.312 653.5,415.5 Z"/></g>
<g><path style="opacity:1" fill="#f9f8f8" d="M 752.5,543.5 C 761.204,566.924 769.371,590.591 777,614.5C 779.029,635.211 778.529,655.878 775.5,676.5C 775.607,679.567 776.107,682.567 777,685.5C 780.494,691.456 782.494,697.79 783,704.5C 782.167,706 781,707.167 779.5,708C 747.826,718.539 716.826,730.039 686.5,742.5C 682.373,743.37 678.373,744.204 674.5,745C 671.615,740.063 669.115,734.896 667,729.5C 665.167,727 663.333,724.5 661.5,722C 642.608,713.889 624.608,704.222 607.5,693C 604,689.5 600.5,686 597,682.5C 590.667,671.833 584.333,661.167 578,650.5C 570.667,641.833 562.667,633.833 554,626.5C 549.942,619.282 549.609,611.949 553,604.5C 560.564,597.124 568.73,596.624 577.5,603C 580.965,605.463 584.131,608.296 587,611.5C 593.142,620.285 598.642,629.451 603.5,639C 609.285,640.252 612.951,638.085 614.5,632.5C 595.104,575.146 575.604,517.813 556,460.5C 553.637,447.534 558.97,440.201 572,438.5C 579.394,438.362 585.061,441.362 589,447.5C 603.01,488.535 617.177,529.369 631.5,570C 639.836,571.327 643.003,567.827 641,559.5C 636.983,549.472 634.65,539.139 634,528.5C 643.163,518.171 652.83,517.838 663,527.5C 667.581,540.248 671.581,553.248 675,566.5C 678.829,572.703 683.162,573.036 688,567.5C 688.167,566.333 688.333,565.167 688.5,564C 685.91,554.471 683.243,544.971 680.5,535.5C 681.148,531.346 683.482,528.512 687.5,527C 695.917,525.308 702.75,527.808 708,534.5C 710.676,542.514 713.343,550.514 716,558.5C 717.312,561.441 718.812,564.274 720.5,567C 726.523,568.809 730.189,566.643 731.5,560.5C 729.949,555.066 728.116,549.733 726,544.5C 724.538,538.949 726.705,535.782 732.5,535C 740.414,534.712 747.081,537.546 752.5,543.5 Z"/></g>
<g><path style="opacity:1" fill="#d1c0b0" d="M 456.5,411.5 C 456.351,412.552 456.517,413.552 457,414.5C 457.419,413.328 458.085,412.328 459,411.5C 461.319,414.818 463.985,417.818 467,420.5C 469.047,419.391 471.213,418.724 473.5,418.5C 473.263,419.791 473.596,420.791 474.5,421.5C 466.843,448.801 469.843,474.801 483.5,499.5C 483.607,501.379 483.107,501.712 482,500.5C 479.468,501.006 477.302,502.173 475.5,504C 475.833,504.333 476.167,504.667 476.5,505C 474.263,507.03 472.763,509.53 472,512.5C 471.798,510.744 471.298,509.078 470.5,507.5C 469.346,509.856 468.013,510.023 466.5,508C 468.493,506.408 470.493,504.908 472.5,503.5C 472,503.167 471.5,502.833 471,502.5C 468.284,503.113 465.784,504.113 463.5,505.5C 451.905,482.543 447.739,458.21 451,432.5C 452.079,425.18 453.912,418.18 456.5,411.5 Z"/></g>
<g><path style="opacity:1" fill="#d1c2b2" d="M 658.5,359.5 C 696.881,397.374 707.381,442.041 690,493.5C 687.509,500.649 684.342,507.482 680.5,514C 680.728,514.399 681.062,514.565 681.5,514.5C 678.894,516.074 676.227,517.741 673.5,519.5C 669.146,514.33 663.813,510.663 657.5,508.5C 658.552,508.649 659.552,508.483 660.5,508C 669.117,494.71 674.617,480.21 677,464.5C 680.977,432.049 672.144,403.716 650.5,379.5C 654.587,381.25 656.087,379.917 655,375.5C 653.921,373.606 652.587,373.273 651,374.5C 649.808,367.551 652.308,362.551 658.5,359.5 Z"/></g>
<g><path style="opacity:1" fill="#c9b7a5" d="M 659.5,435.5 C 662.297,447.803 661.797,460.136 658,472.5C 654.932,485.47 649.099,496.97 640.5,507C 645.684,507.174 650.684,507.674 655.5,508.5C 649.158,508.334 642.825,508.5 636.5,509C 633.147,510.677 630.147,512.843 627.5,515.5C 625.835,511.517 624.168,507.517 622.5,503.5C 623.552,503.649 624.552,503.483 625.5,503C 642.192,485.091 649.192,463.924 646.5,439.5C 647.161,440.718 647.828,442.051 648.5,443.5C 651.4,440.801 654.567,438.467 658,436.5C 659.107,437.712 659.607,437.379 659.5,435.5 Z"/></g>
<g><path style="opacity:1" fill="#715333" d="M 622.5,503.5 C 624.168,507.517 625.835,511.517 627.5,515.5C 630.147,512.843 633.147,510.677 636.5,509C 642.825,508.5 649.158,508.334 655.5,508.5C 656.167,508.5 656.833,508.5 657.5,508.5C 663.813,510.663 669.146,514.33 673.5,519.5C 676.227,517.741 678.894,516.074 681.5,514.5C 696.549,511.093 709.216,515.093 719.5,526.5C 722.183,524.415 725.183,523.082 728.5,522.5C 734.536,522.36 740.536,522.693 746.5,523.5C 752.353,525.934 757.353,529.601 761.5,534.5C 759.983,534.489 758.816,533.823 758,532.5C 754.876,534.459 752.376,536.959 750.5,540C 751.823,540.816 752.489,541.983 752.5,543.5C 747.081,537.546 740.414,534.712 732.5,535C 726.705,535.782 724.538,538.949 726,544.5C 728.116,549.733 729.949,555.066 731.5,560.5C 730.189,566.643 726.523,568.809 720.5,567C 718.812,564.274 717.312,561.441 716,558.5C 713.343,550.514 710.676,542.514 708,534.5C 702.75,527.808 695.917,525.308 687.5,527C 683.482,528.512 681.148,531.346 680.5,535.5C 683.243,544.971 685.91,554.471 688.5,564C 688.333,565.167 688.167,566.333 688,567.5C 683.162,573.036 678.829,572.703 675,566.5C 671.581,553.248 667.581,540.248 663,527.5C 652.83,517.838 643.163,518.171 634,528.5C 634.65,539.139 636.983,549.472 641,559.5C 643.003,567.827 639.836,571.327 631.5,570C 617.177,529.369 603.01,488.535 589,447.5C 585.061,441.362 579.394,438.362 572,438.5C 558.97,440.201 553.637,447.534 556,460.5C 575.604,517.813 595.104,575.146 614.5,632.5C 612.951,638.085 609.285,640.252 603.5,639C 598.642,629.451 593.142,620.285 587,611.5C 584.131,608.296 580.965,605.463 577.5,603C 568.73,596.624 560.564,597.124 553,604.5C 549.609,611.949 549.942,619.282 554,626.5C 562.667,633.833 570.667,641.833 578,650.5C 584.333,661.167 590.667,671.833 597,682.5C 600.5,686 604,689.5 607.5,693C 624.608,704.222 642.608,713.889 661.5,722C 663.333,724.5 665.167,727 667,729.5C 669.115,734.896 671.615,740.063 674.5,745C 678.373,744.204 682.373,743.37 686.5,742.5C 686.253,743.876 684.919,744.71 682.5,745C 683.099,748.529 685.099,750.862 688.5,752C 687.733,753.47 687.067,754.97 686.5,756.5C 676.254,761.972 667.754,759.972 661,750.5C 658.826,743.988 655.993,737.822 652.5,732C 633.29,724.398 615.29,714.731 598.5,703C 593.633,698.468 589.133,693.634 585,688.5C 579.17,677.503 572.837,666.836 566,656.5C 558.667,649.167 551.333,641.833 544,634.5C 541.255,630.343 539.088,626.01 537.5,621.5C 537.36,615.464 537.693,609.464 538.5,603.5C 544.65,588.906 555.65,583.073 571.5,586C 576.558,587.363 581.224,589.529 585.5,592.5C 584.388,585.468 582.388,578.468 579.5,571.5C 577.068,562.863 574.068,554.53 570.5,546.5C 569.565,542.031 568.232,537.697 566.5,533.5C 564.671,528.003 562.671,522.67 560.5,517.5C 554.628,498.751 548.461,480.084 542,461.5C 539.77,447.802 544.27,436.968 555.5,429C 572.814,420.575 587.648,423.742 600,438.5C 608.202,459.939 615.702,481.606 622.5,503.5 Z"/></g>
<g><path style="opacity:1" fill="#b79d82" d="M 487.5,438.5 C 487.169,445.863 487.503,453.197 488.5,460.5C 489.086,460.291 489.586,459.957 490,459.5C 490.186,457.1 490.686,454.766 491.5,452.5C 493.333,454.833 495.167,457.167 497,459.5C 497.333,454.833 497.667,450.167 498,445.5C 498.333,449.5 498.667,453.5 499,457.5C 499.177,453.644 499.677,449.977 500.5,446.5C 500.005,487.321 519.671,511.655 559.5,519.5C 560.298,519.043 560.631,518.376 560.5,517.5C 562.671,522.67 564.671,528.003 566.5,533.5C 549.396,533.279 533.729,528.446 519.5,519C 494.057,498.077 483.39,471.244 487.5,438.5 Z"/></g>
<g><path style="opacity:1" fill="#c9beb3" d="M 728.5,522.5 C 730.81,521.836 733.31,521.503 736,521.5C 739.805,521.304 743.305,521.97 746.5,523.5C 740.536,522.693 734.536,522.36 728.5,522.5 Z"/></g>
<g><path style="opacity:1" fill="#d5c8bb" d="M 483.5,499.5 C 502.841,532.68 531.841,549.68 570.5,550.5C 570.5,549.167 570.5,547.833 570.5,546.5C 574.068,554.53 577.068,562.863 579.5,571.5C 527.748,572.296 489.081,550.296 463.5,505.5C 465.784,504.113 468.284,503.113 471,502.5C 471.5,502.833 472,503.167 472.5,503.5C 470.493,504.908 468.493,506.408 466.5,508C 468.013,510.023 469.346,509.856 470.5,507.5C 471.298,509.078 471.798,510.744 472,512.5C 472.763,509.53 474.263,507.03 476.5,505C 476.167,504.667 475.833,504.333 475.5,504C 477.302,502.173 479.468,501.006 482,500.5C 483.107,501.712 483.607,501.379 483.5,499.5 Z"/></g>
<g><path style="opacity:1" fill="#afa08f" d="M 538.5,603.5 C 537.693,609.464 537.36,615.464 537.5,621.5C 536.836,619.19 536.503,616.69 536.5,614C 536.304,610.195 536.97,606.695 538.5,603.5 Z"/></g>
<g><path style="opacity:1" fill="#735636" d="M 761.5,534.5 C 764.144,537.773 766.311,541.44 768,545.5C 775.737,568.043 783.07,590.709 790,613.5C 792.208,635.063 791.708,656.563 788.5,678C 790.798,683.432 792.964,688.932 795,694.5C 796.31,701.871 795.31,708.871 792,715.5C 789.766,717.7 787.266,719.533 784.5,721C 751.633,732.541 718.966,744.374 686.5,756.5C 687.067,754.97 687.733,753.47 688.5,752C 685.099,750.862 683.099,748.529 682.5,745C 684.919,744.71 686.253,743.876 686.5,742.5C 716.826,730.039 747.826,718.539 779.5,708C 781,707.167 782.167,706 783,704.5C 782.494,697.79 780.494,691.456 777,685.5C 776.107,682.567 775.607,679.567 775.5,676.5C 778.529,655.878 779.029,635.211 777,614.5C 769.371,590.591 761.204,566.924 752.5,543.5C 752.489,541.983 751.823,540.816 750.5,540C 752.376,536.959 754.876,534.459 758,532.5C 758.816,533.823 759.983,534.489 761.5,534.5 Z"/></g>
<g><path style="opacity:1" fill="#6d5436" d="M 624.5,825.5 C 622.833,825.5 621.167,825.5 619.5,825.5C 618.883,825.389 618.383,825.056 618,824.5C 618.202,819.41 617.035,814.743 614.5,810.5C 620.153,809.463 624.987,811.13 629,815.5C 629.667,816.5 629.667,817.5 629,818.5C 627.951,821.187 626.451,823.52 624.5,825.5 Z"/></g>
<g><path style="opacity:1" fill="#a29181" d="M 809.5,821.5 C 807.901,821.232 806.568,821.566 805.5,822.5C 804.957,822.44 804.624,822.107 804.5,821.5C 806.299,820.212 807.965,820.212 809.5,821.5 Z"/></g>
<g><path style="opacity:1" fill="#6f5436" d="M 484.5,825.5 C 483.511,830.975 483.178,836.642 483.5,842.5C 484.791,842.737 485.791,842.404 486.5,841.5C 496.851,833.482 505.851,824.148 513.5,813.5C 517.366,816.532 520.699,820.032 523.5,824C 510.859,831.323 497.859,838.156 484.5,844.5C 483.549,845.919 483.216,847.585 483.5,849.5C 482.961,846.915 481.628,844.748 479.5,843C 480.236,839.801 479.403,839.635 477,842.5C 476.828,835.654 476.328,828.987 475.5,822.5C 475.142,818.401 475.142,814.401 475.5,810.5C 479.392,812.073 483.225,813.74 487,815.5C 485.011,818.331 484.178,821.664 484.5,825.5 Z"/></g>
<g><path style="opacity:1" fill="#aa9d8c" d="M 691.5,833.5 C 687.833,834.167 684.167,834.833 680.5,835.5C 679.957,835.44 679.624,835.107 679.5,834.5C 683.445,833.509 687.445,833.176 691.5,833.5 Z"/></g>
<g><path style="opacity:1" fill="#95836f" d="M 578.5,834.5 C 573.167,835.167 567.833,835.833 562.5,836.5C 561.957,836.44 561.624,836.107 561.5,835.5C 567.128,834.505 572.794,834.171 578.5,834.5 Z"/></g>
<g><path style="opacity:1" fill="#674d30" d="M 805.5,822.5 C 806.568,821.566 807.901,821.232 809.5,821.5C 814.653,821.574 819.153,823.24 823,826.5C 825.168,832.979 823.001,835.812 816.5,835C 813.712,830.047 810.046,825.88 805.5,822.5 Z"/></g>
<g><path style="opacity:1" fill="#6f5436" d="M 755.5,860.5 C 754.469,861.355 753.303,862.022 752,862.5C 739.414,857.413 730.247,848.746 724.5,836.5C 724.44,835.957 724.107,835.624 723.5,835.5C 722.503,842.468 722.17,849.468 722.5,856.5C 719.993,857.892 717.327,858.892 714.5,859.5C 714.827,854.456 714.494,849.456 713.5,844.5C 712.893,844.624 712.56,844.957 712.5,845.5C 706.153,850.998 699.486,855.998 692.5,860.5C 687.735,862.382 683.068,864.548 678.5,867C 676.553,867.991 674.553,868.325 672.5,868C 686.532,860.463 698.199,850.296 707.5,837.5C 708.043,837.44 708.376,837.107 708.5,836.5C 705.691,835.2 703.024,835.2 700.5,836.5C 694.413,836.511 688.413,837.178 682.5,838.5C 681.575,837.643 680.908,836.643 680.5,835.5C 684.167,834.833 687.833,834.167 691.5,833.5C 699.17,833.222 706.836,832.889 714.5,832.5C 714.5,829.167 714.5,825.833 714.5,822.5C 707.756,822.386 701.089,823.053 694.5,824.5C 693.167,824.167 691.833,823.833 690.5,823.5C 704.709,819.892 718.376,814.892 731.5,808.5C 735.977,810.637 738.977,813.97 740.5,818.5C 733.719,818.754 727.052,819.754 720.5,821.5C 721.242,822.287 722.075,822.953 723,823.5C 723.497,826.146 723.664,828.813 723.5,831.5C 729.861,831.397 736.194,830.897 742.5,830C 744.046,827.743 745.712,825.576 747.5,823.5C 751.977,825.637 754.977,828.97 756.5,833.5C 748.493,833.334 740.493,833.5 732.5,834C 730.1,834.186 727.766,834.686 725.5,835.5C 729.508,840.33 734.508,843.83 740.5,846C 748.193,849.231 756.193,851.231 764.5,852C 764.957,852.414 765.291,852.914 765.5,853.5C 761.578,855.104 758.244,857.438 755.5,860.5 Z"/></g>
<g><path style="opacity:1" fill="#beb0a1" d="M 700.5,836.5 C 703.024,835.2 705.691,835.2 708.5,836.5C 708.376,837.107 708.043,837.44 707.5,837.5C 705.393,836.532 703.059,836.198 700.5,836.5 Z"/></g>
<g><path style="opacity:1" fill="#d4c9c0" d="M 711.5,836.5 C 712.386,835.224 713.386,835.224 714.5,836.5C 713.575,837.562 712.575,837.562 711.5,836.5 Z"/></g>
<g><path style="opacity:1" fill="#6f5435" d="M 607.5,826.5 C 613.167,827.833 618.833,827.833 624.5,826.5C 629.179,826.666 633.845,826.499 638.5,826C 639.305,824.028 640.639,822.528 642.5,821.5C 647.756,824.073 651.089,828.073 652.5,833.5C 650.143,833.337 647.81,833.503 645.5,834C 642.032,835.97 638.699,838.136 635.5,840.5C 635.167,840 634.833,839.5 634.5,839C 635.803,836.256 636.803,833.423 637.5,830.5C 638.043,830.44 638.376,830.107 638.5,829.5C 631.678,828.182 625.011,828.182 618.5,829.5C 617.167,829.5 615.833,829.5 614.5,829.5C 612.167,829.5 609.833,829.5 607.5,829.5C 607.5,831.5 607.5,833.5 607.5,835.5C 607.306,839.362 605.306,841.695 601.5,842.5C 598.206,841.864 596.873,839.864 597.5,836.5C 594.167,836.5 590.833,836.5 587.5,836.5C 587.334,840.514 587.501,844.514 588,848.5C 589.739,846.259 591.906,844.592 594.5,843.5C 594.833,844 595.167,844.5 595.5,845C 593.385,848.118 590.885,850.952 588,853.5C 587.667,865.5 587.333,877.5 587,889.5C 585.264,894.607 581.764,897.107 576.5,897C 576.016,892.335 573.682,888.835 569.5,886.5C 572.642,885.833 575.642,885.166 578.5,884.5C 579.655,877.345 579.822,870.012 579,862.5C 578.283,863.044 577.783,863.711 577.5,864.5C 573.823,868.011 569.989,871.344 566,874.5C 563.34,872.329 561.173,869.663 559.5,866.5C 566.002,862.75 572.335,858.75 578.5,854.5C 579.495,848.872 579.829,843.206 579.5,837.5C 574.961,837.322 570.461,837.655 566,838.5C 564.301,838.613 563.134,837.947 562.5,836.5C 567.833,835.833 573.167,835.167 578.5,834.5C 579.031,826.67 579.198,818.67 579,810.5C 582.333,811.833 585.667,813.167 589,814.5C 588.016,818.111 587.516,821.944 587.5,826C 587.833,828.5 588.167,831 588.5,833.5C 589.604,831.611 590.937,829.945 592.5,828.5C 594.937,829.803 597.104,831.47 599,833.5C 601.948,829.938 604.115,825.938 605.5,821.5C 606.95,822.85 607.617,824.516 607.5,826.5 Z"/></g>
<g><path style="opacity:1" fill="#a7978a" d="M 614.5,829.5 C 612.735,830.461 610.735,830.795 608.5,830.5C 608.784,832.415 608.451,834.081 607.5,835.5C 607.5,833.5 607.5,831.5 607.5,829.5C 609.833,829.5 612.167,829.5 614.5,829.5 Z"/></g>
<g><path style="opacity:1" fill="#9e8c79" d="M 618.5,829.5 C 625.011,828.182 631.678,828.182 638.5,829.5C 638.376,830.107 638.043,830.44 637.5,830.5C 631.355,829.51 625.022,829.177 618.5,829.5 Z"/></g>
<g><path style="opacity:1" fill="#99866e" d="M 619.5,825.5 C 621.167,825.5 622.833,825.5 624.5,825.5C 624.5,825.833 624.5,826.167 624.5,826.5C 618.833,827.833 613.167,827.833 607.5,826.5C 611.702,826.817 615.702,826.483 619.5,825.5 Z"/></g>
<g><path style="opacity:1" fill="#988a74" d="M 484.5,825.5 C 483.887,831.271 484.554,836.604 486.5,841.5C 485.791,842.404 484.791,842.737 483.5,842.5C 483.178,836.642 483.511,830.975 484.5,825.5 Z"/></g>
<g><path style="opacity:1" fill="#725638" d="M 798.5,837.5 C 804.458,837.906 810.125,839.406 815.5,842C 819.909,847.109 819.242,851.275 813.5,854.5C 812.062,854.281 810.729,853.781 809.5,853C 807.915,847.074 804.415,842.574 799,839.5C 798.536,838.906 798.369,838.239 798.5,837.5 Z"/></g>
<g><path style="opacity:1" fill="#c3bbae" d="M 712.5,845.5 C 712.56,844.957 712.893,844.624 713.5,844.5C 714.494,849.456 714.827,854.456 714.5,859.5C 713.833,854.833 713.167,850.167 712.5,845.5 Z"/></g>
<g><path style="opacity:1" fill="#a3937e" d="M 484.5,844.5 C 484.5,845.833 484.5,847.167 484.5,848.5C 489.833,848.5 495.167,848.5 500.5,848.5C 495.025,849.489 489.358,849.822 483.5,849.5C 483.216,847.585 483.549,845.919 484.5,844.5 Z"/></g>
<g><path style="opacity:1" fill="#664d30" d="M 471.5,853.5 C 465.31,853.823 459.31,853.49 453.5,852.5C 456.598,851.179 460.098,850.512 464,850.5C 467.5,850.667 471,850.833 474.5,851C 473.429,851.852 472.429,852.685 471.5,853.5 Z"/></g>
<g><path style="opacity:1" fill="#f0eeec" d="M 724.5,836.5 C 730.247,848.746 739.414,857.413 752,862.5C 753.303,862.022 754.469,861.355 755.5,860.5C 755.586,861.496 755.252,862.329 754.5,863C 751.699,864.621 749.199,864.455 747,862.5C 745.647,863.685 744.48,865.019 743.5,866.5C 742.833,872.988 742.167,879.321 741.5,885.5C 740.946,878.847 740.612,872.18 740.5,865.5C 743.275,865.166 743.941,863.833 742.5,861.5C 739.733,859.701 736.899,858.034 734,856.5C 732.18,857.604 730.68,859.104 729.5,861C 718.593,862.27 707.926,861.437 697.5,858.5C 697.5,859.833 697.5,861.167 697.5,862.5C 696.849,863.091 696.182,863.757 695.5,864.5C 694.141,863.376 693.141,862.042 692.5,860.5C 699.486,855.998 706.153,850.998 712.5,845.5C 713.167,850.167 713.833,854.833 714.5,859.5C 717.327,858.892 719.993,857.892 722.5,856.5C 723.167,849.833 723.833,843.167 724.5,836.5 Z"/></g>
<g><path style="opacity:1" fill="#948068" d="M 607.5,853.5 C 602.906,853.865 598.573,854.865 594.5,856.5C 593.596,855.791 593.263,854.791 593.5,853.5C 598.167,853.5 602.833,853.5 607.5,853.5 Z"/></g>
<g><path style="opacity:1" fill="#a0907e" d="M 724.5,836.5 C 723.833,843.167 723.167,849.833 722.5,856.5C 722.17,849.468 722.503,842.468 723.5,835.5C 724.107,835.624 724.44,835.957 724.5,836.5 Z"/></g>
<g><path style="opacity:1" fill="#705538" d="M 788.5,862.5 C 791.833,861.833 795.167,861.167 798.5,860.5C 808.172,860.291 817.839,859.958 827.5,859.5C 828.266,854.501 829.1,849.501 830,844.5C 830.378,833.089 830.545,821.755 830.5,810.5C 834.578,811.359 838.578,812.526 842.5,814C 845.084,816.134 844.75,817.968 841.5,819.5C 840.981,832.6 839.648,845.6 837.5,858.5C 843.502,858.091 849.502,857.591 855.5,857C 857.34,854.331 859.34,851.831 861.5,849.5C 866.307,851.967 869.64,855.633 871.5,860.5C 859.824,860.561 848.157,860.894 836.5,861.5C 832.212,876.625 822.546,886.791 807.5,892C 801.385,894.612 795.052,896.445 788.5,897.5C 787.167,896.833 787.167,896.167 788.5,895.5C 800.71,891.481 811.21,884.814 820,875.5C 822.421,871.66 824.588,867.66 826.5,863.5C 815.129,862.835 803.796,863.502 792.5,865.5C 790.412,865.38 789.078,864.38 788.5,862.5 Z"/></g>
<g><path style="opacity:1" fill="#cdc4bc" d="M 652.5,854.5 C 647.167,855.167 641.833,855.833 636.5,856.5C 635.957,856.44 635.624,856.107 635.5,855.5C 641.128,854.505 646.794,854.171 652.5,854.5 Z"/></g>
<g><path style="opacity:1" fill="#b3a79a" d="M 798.5,860.5 C 795.167,861.167 791.833,861.833 788.5,862.5C 787.957,862.44 787.624,862.107 787.5,861.5C 791.107,860.511 794.774,860.177 798.5,860.5 Z"/></g>
<g><path style="opacity:1" fill="#6c5134" d="M 740.5,865.5 C 738.208,865.244 736.041,865.577 734,866.5C 733.667,865.833 733.333,865.167 733,864.5C 732.5,871.826 732.334,879.159 732.5,886.5C 731.508,879.018 731.175,871.352 731.5,863.5C 725.642,863.178 719.975,863.511 714.5,864.5C 711.833,864.5 709.167,864.5 706.5,864.5C 701.364,862.094 699.031,863.76 699.5,869.5C 699.667,871.167 699.833,872.833 700,874.5C 700.654,873.304 701.154,873.304 701.5,874.5C 699.6,880.366 699.1,886.366 700,892.5C 703.992,887.236 705.825,888.236 705.5,895.5C 703.882,897.316 701.882,898.649 699.5,899.5C 697.631,897.365 696.964,894.698 697.5,891.5C 697.5,881.833 697.5,872.167 697.5,862.5C 697.5,861.167 697.5,859.833 697.5,858.5C 707.926,861.437 718.593,862.27 729.5,861C 730.68,859.104 732.18,857.604 734,856.5C 736.899,858.034 739.733,859.701 742.5,861.5C 743.941,863.833 743.275,865.166 740.5,865.5 Z"/></g>
<g><path style="opacity:1" fill="#f4f3f2" d="M 706.5,864.5 C 709.167,864.5 711.833,864.5 714.5,864.5C 719.833,864.5 725.167,864.5 730.5,864.5C 730.5,871.833 730.5,879.167 730.5,886.5C 725.305,886.179 720.305,886.513 715.5,887.5C 712.5,887.5 709.5,887.5 706.5,887.5C 706.5,883.833 706.5,880.167 706.5,876.5C 713.2,876.83 719.866,876.497 726.5,875.5C 725.5,873.833 724.167,872.5 722.5,871.5C 717.295,873.088 711.961,873.754 706.5,873.5C 706.5,870.5 706.5,867.5 706.5,864.5 Z"/></g>
<g><path style="opacity:1" fill="#c7beb3" d="M 578.5,884.5 C 578.824,877.646 578.491,870.979 577.5,864.5C 577.783,863.711 578.283,863.044 579,862.5C 579.822,870.012 579.655,877.345 578.5,884.5 Z"/></g>
<g><path style="opacity:1" fill="#6f5335" d="M 652.5,854.5 C 646.794,854.171 641.128,854.505 635.5,855.5C 635.624,856.107 635.957,856.44 636.5,856.5C 639.018,857.759 638.852,859.093 636,860.5C 634.32,865.706 632.153,870.706 629.5,875.5C 634.015,878.013 638.515,880.679 643,883.5C 646.038,887.609 646.205,891.776 643.5,896C 641.833,896.667 640.167,896.667 638.5,896C 634.646,890.645 629.979,886.145 624.5,882.5C 614.918,891.63 603.585,896.297 590.5,896.5C 601.049,892.98 610.216,887.313 618,879.5C 618.167,879.167 618.333,878.833 618.5,878.5C 613.871,875.866 608.871,874.866 603.5,875.5C 605.249,869.325 607.583,863.325 610.5,857.5C 604.982,856.697 599.649,856.364 594.5,856.5C 598.573,854.865 602.906,853.865 607.5,853.5C 608.833,853.5 610.167,853.5 611.5,853.5C 613.31,847.259 614.644,840.926 615.5,834.5C 619.719,835.276 623.386,837.11 626.5,840C 622.9,843.251 620.9,847.418 620.5,852.5C 626.176,852.666 631.843,852.499 637.5,852C 639.211,849.411 641.045,846.911 643,844.5C 647.113,847.108 650.279,850.441 652.5,854.5 Z"/></g>
<g><path style="opacity:1" fill="#f1f0ee" d="M 618.5,855.5 C 621.5,855.5 624.5,855.5 627.5,855.5C 626.173,861.314 624.34,866.981 622,872.5C 618.929,873.138 615.763,873.138 612.5,872.5C 614.217,866.733 616.217,861.066 618.5,855.5 Z"/></g>
<g><path style="opacity:1" fill="#a99b8d" d="M 483.5,852.5 C 483.833,852.5 484.167,852.5 484.5,852.5C 484.173,862.348 484.506,872.014 485.5,881.5C 485.44,882.043 485.107,882.376 484.5,882.5C 483.501,872.522 483.168,862.522 483.5,852.5 Z"/></g>
<g><path style="opacity:1" fill="#745a3c" d="M 706.5,864.5 C 706.5,867.5 706.5,870.5 706.5,873.5C 711.961,873.754 717.295,873.088 722.5,871.5C 724.167,872.5 725.5,873.833 726.5,875.5C 719.866,876.497 713.2,876.83 706.5,876.5C 706.5,880.167 706.5,883.833 706.5,887.5C 709.5,887.5 712.5,887.5 715.5,887.5C 712.695,888.319 709.695,888.819 706.5,889C 708.473,889.495 710.473,889.662 712.5,889.5C 710.735,890.461 708.735,890.795 706.5,890.5C 706.784,892.415 706.451,894.081 705.5,895.5C 705.825,888.236 703.992,887.236 700,892.5C 699.1,886.366 699.6,880.366 701.5,874.5C 701.154,873.304 700.654,873.304 700,874.5C 699.833,872.833 699.667,871.167 699.5,869.5C 699.031,863.76 701.364,862.094 706.5,864.5 Z"/></g>
<g><path style="opacity:1" fill="#6f5335" d="M 492.5,852.5 C 490.031,851.683 487.365,851.183 484.5,851C 483.944,850.617 483.611,850.117 483.5,849.5C 489.358,849.822 495.025,849.489 500.5,848.5C 506.868,848.83 513.202,848.496 519.5,847.5C 521.225,844.684 523.392,842.35 526,840.5C 529.899,842.393 533.232,845.059 536,848.5C 536.617,849.449 536.451,850.282 535.5,851C 521.837,851.5 508.171,851.667 494.5,851.5C 504.907,869.207 520.24,880.54 540.5,885.5C 540.291,886.086 539.957,886.586 539.5,887C 532.984,888.937 526.984,891.603 521.5,895C 507.515,883.889 497.848,869.723 492.5,852.5 Z"/></g>
<g><path style="opacity:1" fill="#7b6040" d="M 475.5,822.5 C 476.328,828.987 476.828,835.654 477,842.5C 479.403,839.635 480.236,839.801 479.5,843C 481.628,844.748 482.961,846.915 483.5,849.5C 483.611,850.117 483.944,850.617 484.5,851C 487.365,851.183 490.031,851.683 492.5,852.5C 489.833,852.5 487.167,852.5 484.5,852.5C 484.167,852.5 483.833,852.5 483.5,852.5C 482.686,854.631 482.186,856.964 482,859.5C 480.732,859.384 479.398,859.051 478,858.5C 477.667,856.833 477.333,855.167 477,853.5C 476.333,859.5 476.333,865.5 477,871.5C 477.333,871.167 477.667,870.833 478,870.5C 478.368,871.91 479.201,872.91 480.5,873.5C 481.298,871.922 481.798,870.256 482,868.5C 482.667,873.167 482.667,877.833 482,882.5C 479.402,878.619 476.902,878.619 474.5,882.5C 475.36,872.861 475.693,863.194 475.5,853.5C 474.167,853.5 472.833,853.5 471.5,853.5C 472.429,852.685 473.429,851.852 474.5,851C 471,850.833 467.5,850.667 464,850.5C 460.098,850.512 456.598,851.179 453.5,852.5C 452.596,851.791 452.263,850.791 452.5,849.5C 460.167,849.5 467.833,849.5 475.5,849.5C 475.5,840.5 475.5,831.5 475.5,822.5 Z"/></g>
<g><path style="opacity:1" fill="#6e5334" d="M 483.5,852.5 C 483.168,862.522 483.501,872.522 484.5,882.5C 485.107,882.376 485.44,882.043 485.5,881.5C 489.37,879.983 493.204,878.316 497,876.5C 498.257,876.85 498.591,877.517 498,878.5C 490.95,885.22 483.617,891.554 476,897.5C 472.573,895.338 470.073,892.338 468.5,888.5C 470.533,886.493 472.533,884.493 474.5,882.5C 476.902,878.619 479.402,878.619 482,882.5C 482.667,877.833 482.667,873.167 482,868.5C 481.798,870.256 481.298,871.922 480.5,873.5C 479.201,872.91 478.368,871.91 478,870.5C 477.667,870.833 477.333,871.167 477,871.5C 476.333,865.5 476.333,859.5 477,853.5C 477.333,855.167 477.667,856.833 478,858.5C 479.398,859.051 480.732,859.384 482,859.5C 482.186,856.964 482.686,854.631 483.5,852.5 Z"/></g>
<g><path style="opacity:1" fill="#6f5233" d="M 836.5,873.5 C 844.922,872.488 852.922,874.321 860.5,879C 865.398,883.19 866.731,888.356 864.5,894.5C 862.133,896.395 859.466,896.895 856.5,896C 852.242,886.288 845.575,878.788 836.5,873.5 Z"/></g>
<g><path style="opacity:1" fill="#948068" d="M 714.5,864.5 C 719.975,863.511 725.642,863.178 731.5,863.5C 731.175,871.352 731.508,879.018 732.5,886.5C 731.57,890.4 731.237,894.4 731.5,898.5C 730.523,895.713 730.19,892.713 730.5,889.5C 727.5,889.5 724.5,889.5 721.5,889.5C 724.305,888.681 727.305,888.181 730.5,888C 725.511,887.501 720.511,887.334 715.5,887.5C 720.305,886.513 725.305,886.179 730.5,886.5C 730.5,879.167 730.5,871.833 730.5,864.5C 725.167,864.5 719.833,864.5 714.5,864.5 Z"/></g>
<g><path style="opacity:1" fill="#775b3a" d="M 740.5,865.5 C 740.612,872.18 740.946,878.847 741.5,885.5C 742.609,893.379 739.276,897.712 731.5,898.5C 731.237,894.4 731.57,890.4 732.5,886.5C 732.334,879.159 732.5,871.826 733,864.5C 733.333,865.167 733.667,865.833 734,866.5C 736.041,865.577 738.208,865.244 740.5,865.5 Z"/></g>
<g><path style="opacity:1" fill="#593e20" d="M 715.5,887.5 C 720.511,887.334 725.511,887.501 730.5,888C 727.305,888.181 724.305,888.681 721.5,889.5C 718.5,889.5 715.5,889.5 712.5,889.5C 710.473,889.662 708.473,889.495 706.5,889C 709.695,888.819 712.695,888.319 715.5,887.5 Z"/></g>
<g><path style="opacity:1" fill="#b3a799" d="M 697.5,891.5 C 696.964,894.698 697.631,897.365 699.5,899.5C 698.791,900.404 697.791,900.737 696.5,900.5C 696.19,897.287 696.523,894.287 697.5,891.5 Z"/></g>
</svg>
