<?xml version="1.0" encoding="UTF-8"?>
<!DOCTYPE svg PUBLIC "-//W3C//DTD SVG 1.1//EN" "http://www.w3.org/Graphics/SVG/1.1/DTD/svg11.dtd">
<svg xmlns="http://www.w3.org/2000/svg" version="1.1" width="2508px" height="627px" style="shape-rendering:geometricPrecision; text-rendering:geometricPrecision; image-rendering:optimizeQuality; fill-rule:evenodd; clip-rule:evenodd" xmlns:xlink="http://www.w3.org/1999/xlink">
<g><path style="opacity:1" fill="#453926" d="M 759.5,254.5 C 749.915,255.012 740.582,256.345 731.5,258.5C 722.355,259.116 713.355,260.616 704.5,263C 699.352,264.109 694.685,263.109 690.5,260C 688.333,257.833 686.167,255.667 684,253.5C 683.175,251.299 683.675,249.466 685.5,248C 714.304,246.578 742.637,242.245 770.5,235C 773.433,233.729 776.099,232.062 778.5,230C 780.833,229.333 783.167,229.333 785.5,230C 788.706,233.067 792.373,235.401 796.5,237C 800.908,239.647 802.741,243.481 802,248.5C 800.786,250.049 799.286,251.215 797.5,252C 784.63,252.108 771.963,252.941 759.5,254.5 Z"/></g>
<g><path style="opacity:1" fill="#756d5d" d="M 977.5,243.5 C 977.5,250.167 977.5,256.833 977.5,263.5C 980.5,263.5 983.5,263.5 986.5,263.5C 983.375,264.479 980.042,264.813 976.5,264.5C 976.175,257.313 976.509,250.313 977.5,243.5 Z"/></g>
<g><path style="opacity:1" fill="#453925" d="M 1665.5,242.5 C 1673.15,243.105 1679.98,245.772 1686,250.5C 1687.92,253.17 1689.09,256.17 1689.5,259.5C 1688.63,262.533 1686.63,264.366 1683.5,265C 1655.22,265.631 1627.38,269.464 1600,276.5C 1593.41,274.365 1587.74,270.698 1583,265.5C 1581.97,262.783 1582.8,260.949 1585.5,260C 1609.8,259.175 1633.46,255.175 1656.5,248C 1659.9,246.643 1662.9,244.81 1665.5,242.5 Z"/></g>
<g><path style="opacity:1" fill="#453927" d="M 2101.5,283.5 C 2099.47,283.662 2097.47,283.495 2095.5,283C 2094.17,281.333 2092.83,279.667 2091.5,278C 2083.73,277.131 2076.07,277.631 2068.5,279.5C 2071.54,280.375 2074.54,281.375 2077.5,282.5C 2079.6,284.583 2079.94,286.917 2078.5,289.5C 2079.83,289.833 2081.17,290.167 2082.5,290.5C 2088.8,289.254 2095.14,288.254 2101.5,287.5C 2113.81,287 2125.48,284.166 2136.5,279C 2146.24,279.787 2154.4,283.953 2161,291.5C 2161.78,294.429 2161.61,297.263 2160.5,300C 2156.78,301.093 2152.95,301.593 2149,301.5C 2130.51,300.471 2112.01,300.305 2093.5,301C 2085.34,301.2 2077.34,302.366 2069.5,304.5C 2062.48,304.729 2055.48,305.229 2048.5,306C 2036.24,307.485 2024.24,309.652 2012.5,312.5C 2008.68,312.605 2005.01,313.438 2001.5,315C 1998.83,315.667 1996.17,315.667 1993.5,315C 1988.79,312.017 1985.12,308.183 1982.5,303.5C 1983.01,301.912 1984.01,300.745 1985.5,300C 2001.62,299.933 2017.62,298.766 2033.5,296.5C 2039.08,296.745 2044.42,296.078 2049.5,294.5C 2053.35,293.834 2057.35,293.167 2061.5,292.5C 2059.67,288.667 2058.33,284.667 2057.5,280.5C 2055.17,280.5 2052.83,280.5 2050.5,280.5C 2049.67,286.399 2046.34,289.232 2040.5,289C 2037.57,286.736 2035.4,283.902 2034,280.5C 2033.53,268.667 2031.86,257 2029,245.5C 2028.11,242.048 2026.44,239.048 2024,236.5C 2022.87,231.8 2024.7,229.134 2029.5,228.5C 2035.38,230.071 2041.21,231.738 2047,233.5C 2062.56,231.378 2078.06,228.878 2093.5,226C 2096.89,220.429 2101.56,219.096 2107.5,222C 2113.57,225.399 2119.07,229.565 2124,234.5C 2124.17,235.5 2124.33,236.5 2124.5,237.5C 2122.58,241.58 2120.08,245.247 2117,248.5C 2114.83,254.506 2112.67,260.506 2110.5,266.5C 2116.15,274.976 2113.81,279.809 2103.5,281C 2102.62,281.708 2101.95,282.542 2101.5,283.5 Z"/></g>
<g><path style="opacity:1" fill="#efefee" d="M 2089.5,237.5 C 2091.53,237.338 2093.53,237.505 2095.5,238C 2095.87,247.156 2094.54,256.156 2091.5,265C 2078.79,266.508 2066.12,268.341 2053.5,270.5C 2052.01,270.291 2050.84,269.624 2050,268.5C 2049.63,266.302 2049.13,264.135 2048.5,262C 2048.83,261.5 2049.17,261 2049.5,260.5C 2050.61,261.022 2051.77,261.355 2053,261.5C 2065.71,260.52 2078.21,258.52 2090.5,255.5C 2091.83,253.5 2091.83,251.5 2090.5,249.5C 2088.51,247.501 2086.17,246.001 2083.5,245C 2071.31,247.588 2058.98,249.754 2046.5,251.5C 2046.5,248.833 2046.5,246.167 2046.5,243.5C 2061.02,241.927 2075.35,239.927 2089.5,237.5 Z"/></g>
<g><path style="opacity:1" fill="#b9b5ac" d="M 1806.5,240.5 C 1806.5,244.027 1806.84,247.527 1807.5,251C 1807.5,253.484 1806.84,255.651 1805.5,257.5C 1805.18,251.642 1805.51,245.975 1806.5,240.5 Z"/></g>
<g><path style="opacity:1" fill="#453926" d="M 238.5,234.5 C 247.214,234.839 255.548,236.672 263.5,240C 270.005,245.182 271.839,251.682 269,259.5C 264.189,265.038 258.689,265.872 252.5,262C 248.181,253.673 242.348,246.507 235,240.5C 234.651,237.669 235.817,235.669 238.5,234.5 Z"/></g>
<g><path style="opacity:1" fill="#473c29" d="M 1448.5,236.5 C 1455.54,236.413 1462.54,236.913 1469.5,238C 1480.55,241.69 1483.71,248.857 1479,259.5C 1475.16,263.847 1471,264.347 1466.5,261C 1459.36,254.204 1452.7,247.204 1446.5,240C 1446.86,238.566 1447.53,237.399 1448.5,236.5 Z"/></g>
<g><path style="opacity:1" fill="#493d2a" d="M 341.5,243.5 C 335.729,246.712 329.563,247.712 323,246.5C 322.517,247.448 322.351,248.448 322.5,249.5C 323.873,249.343 325.207,249.51 326.5,250C 324.432,250.687 322.432,250.52 320.5,249.5C 319.328,249.919 318.328,250.585 317.5,251.5C 320.919,253.541 324.586,255.041 328.5,256C 324.937,256.84 321.603,258.174 318.5,260C 319.416,260.278 320.082,260.778 320.5,261.5C 313.144,262.227 305.977,263.894 299,266.5C 295.691,265.221 292.524,263.721 289.5,262C 284.874,259.236 284.541,256.236 288.5,253C 298.972,252.29 309.305,250.79 319.5,248.5C 319.637,241.786 319.137,235.12 318,228.5C 311.003,219.662 313.169,215.495 324.5,216C 330.808,217.904 336.641,220.738 342,224.5C 342.667,226.833 342.667,229.167 342,231.5C 340.651,233.812 339.818,236.312 339.5,239C 339.569,240.986 340.235,242.486 341.5,243.5 Z"/></g>
<g><path style="opacity:1" fill="#cbc7c1" d="M 759.5,254.5 C 750.388,256.468 741.054,257.802 731.5,258.5C 740.582,256.345 749.915,255.012 759.5,254.5 Z"/></g>
<g><path style="opacity:1" fill="#463a26" d="M 1211.5,259.5 C 1212.32,263.279 1210.99,265.612 1207.5,266.5C 1191,267.262 1174.83,269.929 1159,274.5C 1154.03,272.509 1149.7,269.509 1146,265.5C 1145.18,263.299 1145.68,261.466 1147.5,260C 1165.39,259.055 1183.06,256.555 1200.5,252.5C 1205.33,253.077 1209,255.411 1211.5,259.5 Z"/></g>
<g><path style="opacity:1" fill="#463a26" d="M 977.5,243.5 C 976.509,250.313 976.175,257.313 976.5,264.5C 980.042,264.813 983.375,264.479 986.5,263.5C 993.811,262.602 1001.14,261.769 1008.5,261C 1010.79,259.71 1012.79,258.043 1014.5,256C 1016.83,255.333 1019.17,255.333 1021.5,256C 1028.57,260.732 1035.91,265.065 1043.5,269C 1045.39,271.917 1045.89,275.084 1045,278.5C 1042.61,281.377 1039.95,284.044 1037,286.5C 1033.76,293.961 1030.59,301.461 1027.5,309C 1028.94,311.449 1030.78,313.615 1033,315.5C 1034.12,318.956 1033.29,321.79 1030.5,324C 1018.17,324.333 1005.83,324.667 993.5,325C 987.769,325.433 982.102,326.266 976.5,327.5C 977.13,330.947 977.463,334.447 977.5,338C 977.05,358.531 976.217,379.031 975,399.5C 973.567,406.596 969.567,411.596 963,414.5C 961.018,414.01 959.351,413.01 958,411.5C 957.025,406.557 955.525,401.89 953.5,397.5C 954.26,374.842 954.593,352.175 954.5,329.5C 948.288,329.523 942.288,330.19 936.5,331.5C 933.421,331.74 930.421,331.407 927.5,330.5C 926.478,334.072 924.978,337.405 923,340.5C 916.37,344.029 911.37,342.362 908,335.5C 907.138,333.913 906.471,332.246 906,330.5C 905.761,317.808 905.094,305.141 904,292.5C 902.457,285.87 900.123,279.537 897,273.5C 895.244,268.594 896.911,265.927 902,265.5C 909.613,266.735 916.946,268.735 924,271.5C 934.182,270.199 944.349,268.865 954.5,267.5C 954.666,257.828 954.5,248.161 954,238.5C 953.303,234.072 951.637,230.072 949,226.5C 947.959,223.364 948.793,220.864 951.5,219C 954.833,218.333 958.167,218.333 961.5,219C 967.579,221.137 973.579,223.471 979.5,226C 980.848,227.574 981.514,229.407 981.5,231.5C 979.946,235.495 978.613,239.495 977.5,243.5 Z"/></g>
<g><path style="opacity:1" fill="#bfbcb5" d="M 1211.5,259.5 C 1212.17,260.833 1212.83,262.167 1213.5,263.5C 1213.04,266.33 1212.37,268.997 1211.5,271.5C 1211.5,269.833 1211.5,268.167 1211.5,266.5C 1210.17,266.5 1208.83,266.5 1207.5,266.5C 1210.99,265.612 1212.32,263.279 1211.5,259.5 Z"/></g>
<g><path style="opacity:1" fill="#c8c4bf" d="M 593.5,270.5 C 582.004,271.467 570.338,272.134 558.5,272.5C 560.292,271.691 562.292,271.191 564.5,271C 574.161,270.5 583.828,270.334 593.5,270.5 Z"/></g>
<g><path style="opacity:1" fill="#463a27" d="M 2258.5,292.5 C 2257.18,299.344 2257.18,306.344 2258.5,313.5C 2259.11,313.376 2259.44,313.043 2259.5,312.5C 2262.22,310.719 2265.06,309.052 2268,307.5C 2282.1,285.791 2291.94,262.291 2297.5,237C 2296.67,233.516 2296.5,230.016 2297,226.5C 2299.84,224.496 2303.01,223.996 2306.5,225C 2312.22,227.275 2317.39,230.442 2322,234.5C 2322.92,236.034 2323.42,237.701 2323.5,239.5C 2316.16,252.344 2309.16,265.511 2302.5,279C 2315.62,278.067 2328.62,276.067 2341.5,273C 2343.67,269.64 2346.67,267.806 2350.5,267.5C 2359.14,268.99 2365.97,273.324 2371,280.5C 2371.67,282.5 2371.67,284.5 2371,286.5C 2367.69,289.792 2366.02,293.792 2366,298.5C 2364.41,313.138 2363.25,327.805 2362.5,342.5C 2361.11,347.269 2360.44,352.269 2360.5,357.5C 2359.4,369.64 2355.56,380.974 2349,391.5C 2344.06,398.312 2337.56,400.646 2329.5,398.5C 2326.81,394.938 2324.97,390.938 2324,386.5C 2320,382.5 2316,378.5 2312,374.5C 2310.86,371.099 2312.03,369.099 2315.5,368.5C 2320.74,370.138 2326.07,370.638 2331.5,370C 2334.98,366.582 2337.15,362.415 2338,357.5C 2342.18,334.008 2344.18,310.341 2344,286.5C 2339.93,285.034 2336.1,285.534 2332.5,288C 2335.42,290.045 2338.26,292.212 2341,294.5C 2336.66,311.886 2329.99,328.553 2321,344.5C 2308.78,364.897 2291.61,379.23 2269.5,387.5C 2267.83,387.5 2266.17,387.5 2264.5,387.5C 2264.34,386.127 2264.51,384.793 2265,383.5C 2291.73,362.067 2309.73,334.733 2319,301.5C 2319.45,297.812 2319.28,294.146 2318.5,290.5C 2314.32,290.189 2310.32,290.855 2306.5,292.5C 2309.76,294.592 2312.09,297.426 2313.5,301C 2307.3,315.068 2298.63,327.401 2287.5,338C 2280.35,343.658 2272.52,348.158 2264,351.5C 2261.68,350.591 2261.01,348.925 2262,346.5C 2277.45,331.934 2288.62,314.601 2295.5,294.5C 2295.17,293.5 2294.83,292.5 2294.5,291.5C 2288.97,298.197 2282.64,304.03 2275.5,309C 2274.55,309.483 2273.55,309.649 2272.5,309.5C 2272.64,311.262 2272.31,312.929 2271.5,314.5C 2266.91,318.383 2262.41,322.383 2258,326.5C 2257.34,345.51 2257.51,364.51 2258.5,383.5C 2257.99,391.047 2255.32,397.713 2250.5,403.5C 2245.89,405.547 2242.73,404.214 2241,399.5C 2238.44,393.883 2236.61,388.049 2235.5,382C 2236.74,377.543 2237.91,373.043 2239,368.5C 2239.58,358.486 2239.91,348.486 2240,338.5C 2230.58,345.25 2221.75,352.75 2213.5,361C 2210.7,361.755 2208.03,361.422 2205.5,360C 2201.71,354.544 2197.55,349.377 2193,344.5C 2191.97,341.783 2192.8,339.949 2195.5,339C 2199.17,338.667 2202.83,338.333 2206.5,338C 2217.77,332.531 2229.1,327.364 2240.5,322.5C 2241.82,313.658 2241.82,304.658 2240.5,295.5C 2239.89,295.624 2239.56,295.957 2239.5,296.5C 2236.81,296.572 2234.14,296.905 2231.5,297.5C 2229.32,297.303 2227.32,296.636 2225.5,295.5C 2220.08,302.097 2214.41,308.597 2208.5,315C 2206.48,317.289 2204.15,317.789 2201.5,316.5C 2201.17,315.667 2200.83,314.833 2200.5,314C 2208.28,298.095 2212.12,281.262 2212,263.5C 2209.53,257.288 2211.7,254.455 2218.5,255C 2224.32,257.16 2229.82,259.993 2235,263.5C 2236.42,266.03 2236.75,268.697 2236,271.5C 2232.87,275.754 2230.87,280.421 2230,285.5C 2233.59,283.583 2237.42,282.583 2241.5,282.5C 2241.8,268.135 2241.3,253.802 2240,239.5C 2239.48,236.977 2238.15,234.977 2236,233.5C 2234.68,227.974 2236.85,224.641 2242.5,223.5C 2248.7,225.391 2254.7,227.891 2260.5,231C 2261.85,232.574 2262.51,234.407 2262.5,236.5C 2259.66,249.691 2258.83,263.024 2260,276.5C 2266.52,271.117 2272.52,271.784 2278,278.5C 2280.33,282.155 2279.83,285.321 2276.5,288C 2270.44,289.442 2264.44,290.942 2258.5,292.5 Z"/></g>
<g><path style="opacity:1" fill="#f7f6f6" d="M 985.5,312.5 C 982.5,312.5 979.5,312.5 976.5,312.5C 976.5,309.5 976.5,306.5 976.5,303.5C 976.5,303.167 976.5,302.833 976.5,302.5C 977.493,294.35 977.826,286.017 977.5,277.5C 982.01,277.116 986.343,276.449 990.5,275.5C 997.057,274.373 1003.56,274.373 1010,275.5C 1008.59,286.855 1006.76,298.189 1004.5,309.5C 998.033,309.701 991.7,310.701 985.5,312.5 Z"/></g>
<g><path style="opacity:1" fill="#473a27" d="M 1413.5,221.5 C 1424.04,221.957 1433.54,225.291 1442,231.5C 1440.12,238.367 1439.29,245.533 1439.5,253C 1439.95,261.498 1440.29,269.998 1440.5,278.5C 1448.97,276.594 1456.64,273.094 1463.5,268C 1469.34,267.28 1474.67,268.613 1479.5,272C 1485.46,276.108 1485.8,280.441 1480.5,285C 1467.66,287.212 1454.99,290.045 1442.5,293.5C 1443.21,303.127 1445.21,312.46 1448.5,321.5C 1452.58,316.915 1456.08,311.915 1459,306.5C 1459.29,304.217 1458.79,302.05 1457.5,300C 1457.76,298.739 1458.43,297.739 1459.5,297C 1469.41,297.039 1477.24,301.205 1483,309.5C 1483.75,312.303 1483.42,314.97 1482,317.5C 1473.03,324.64 1464.53,332.307 1456.5,340.5C 1462.96,353.597 1472.29,364.097 1484.5,372C 1485.5,372.667 1486.5,372.667 1487.5,372C 1491.55,365.405 1495.21,358.572 1498.5,351.5C 1500.05,350.548 1501.71,350.215 1503.5,350.5C 1502.8,365.596 1505.13,380.096 1510.5,394C 1510.58,398.092 1508.92,401.092 1505.5,403C 1501.17,403.667 1496.83,403.667 1492.5,403C 1479.13,397.974 1467.63,390.14 1458,379.5C 1451.33,370.81 1445.16,361.81 1439.5,352.5C 1426.34,362.218 1411.68,368.218 1395.5,370.5C 1393.77,370.41 1392.11,370.077 1390.5,369.5C 1389.17,368.167 1389.17,366.833 1390.5,365.5C 1406.17,357.983 1420.34,348.316 1433,336.5C 1429.47,324.402 1426.64,312.068 1424.5,299.5C 1418.67,301.162 1412.67,301.995 1406.5,302C 1403.83,300.667 1401.17,299.333 1398.5,298C 1395.83,295.667 1395.83,293.333 1398.5,291C 1406.23,289.318 1413.9,287.484 1421.5,285.5C 1420.76,268.637 1418.6,251.97 1415,235.5C 1413.33,232.999 1411.49,230.666 1409.5,228.5C 1410.07,225.687 1411.4,223.354 1413.5,221.5 Z"/></g>
<g><path style="opacity:1" fill="#edecea" d="M 2101.5,283.5 C 2101.5,284.833 2101.5,286.167 2101.5,287.5C 2095.14,288.254 2088.8,289.254 2082.5,290.5C 2081.17,290.167 2079.83,289.833 2078.5,289.5C 2079.94,286.917 2079.6,284.583 2077.5,282.5C 2074.54,281.375 2071.54,280.375 2068.5,279.5C 2076.07,277.631 2083.73,277.131 2091.5,278C 2092.83,279.667 2094.17,281.333 2095.5,283C 2097.47,283.495 2099.47,283.662 2101.5,283.5 Z"/></g>
<g><path style="opacity:1" fill="#443826" d="M 338.5,278.5 C 337.518,281.962 337.185,285.629 337.5,289.5C 342.086,288.856 346.586,288.856 351,289.5C 351.985,288.186 353.152,287.186 354.5,286.5C 362.108,285.888 369.108,283.388 375.5,279C 384.444,279.051 391.944,282.551 398,289.5C 400.364,293.165 399.864,296.165 396.5,298.5C 381.83,298.333 367.163,298.5 352.5,299C 349.305,299.181 346.305,299.681 343.5,300.5C 333.19,301.94 322.857,303.273 312.5,304.5C 309.572,304.565 306.905,305.232 304.5,306.5C 297.417,307.013 290.75,308.846 284.5,312C 278.227,312.116 273.06,309.616 269,304.5C 268.28,302.888 268.446,301.388 269.5,300C 286.54,297.715 303.54,295.215 320.5,292.5C 320.5,289.167 320.5,285.833 320.5,282.5C 314.885,282.195 309.718,283.529 305,286.5C 301.736,285.224 298.569,283.724 295.5,282C 292.833,279.667 292.833,277.333 295.5,275C 303.46,273.451 311.46,272.118 319.5,271C 320.451,267.943 320.784,264.777 320.5,261.5C 320.082,260.778 319.416,260.278 318.5,260C 321.603,258.174 324.937,256.84 328.5,256C 324.586,255.041 320.919,253.541 317.5,251.5C 318.328,250.585 319.328,249.919 320.5,249.5C 322.432,250.52 324.432,250.687 326.5,250C 325.207,249.51 323.873,249.343 322.5,249.5C 322.351,248.448 322.517,247.448 323,246.5C 329.563,247.712 335.729,246.712 341.5,243.5C 345.12,242.163 348.787,240.663 352.5,239C 357.802,238.101 362.302,239.601 366,243.5C 368.445,247.331 367.945,250.497 364.5,253C 355.836,254.233 347.169,255.4 338.5,256.5C 338.5,259.5 338.5,262.5 338.5,265.5C 343.448,265.185 348.114,263.851 352.5,261.5C 358.33,262.557 362.33,265.723 364.5,271C 364.561,272.711 363.894,274.044 362.5,275C 354.495,276.204 346.495,277.371 338.5,278.5 Z"/></g>
<g><path style="opacity:1" fill="#8b8479" d="M 947.5,280.5 C 949.948,279.527 952.615,279.194 955.5,279.5C 955.826,288.349 955.493,297.016 954.5,305.5C 954.5,297.167 954.5,288.833 954.5,280.5C 952.167,280.5 949.833,280.5 947.5,280.5 Z"/></g>
<g><path style="opacity:1" fill="#f5f5f4" d="M 947.5,280.5 C 949.833,280.5 952.167,280.5 954.5,280.5C 954.5,288.833 954.5,297.167 954.5,305.5C 953.521,308.625 953.187,311.958 953.5,315.5C 951.265,315.205 949.265,315.539 947.5,316.5C 940.52,317.944 933.52,318.278 926.5,317.5C 924.709,306.254 923.709,294.921 923.5,283.5C 931.444,282.127 939.444,281.127 947.5,280.5 Z"/></g>
<g><path style="opacity:1" fill="#6d6658" d="M 338.5,278.5 C 338.5,281.833 338.5,285.167 338.5,288.5C 343.833,287.833 349.167,287.167 354.5,286.5C 353.152,287.186 351.985,288.186 351,289.5C 346.586,288.856 342.086,288.856 337.5,289.5C 337.185,285.629 337.518,281.962 338.5,278.5 Z"/></g>
<g><path style="opacity:1" fill="#d3d1cf" d="M 990.5,275.5 C 986.343,276.449 982.01,277.116 977.5,277.5C 977.826,286.017 977.493,294.35 976.5,302.5C 976.5,293.833 976.5,285.167 976.5,276.5C 981.13,275.771 985.797,275.437 990.5,275.5 Z"/></g>
<g><path style="opacity:1" fill="#453926" d="M 1937.5,379.5 C 1941.96,380.644 1946.63,381.31 1951.5,381.5C 1953.44,383.243 1953.77,385.243 1952.5,387.5C 1949.5,389 1946.5,390.5 1943.5,392C 1931.81,395.033 1920.48,399.033 1909.5,404C 1902.27,404.777 1895.27,403.777 1888.5,401C 1865.44,389.113 1845.11,373.613 1827.5,354.5C 1812.93,374.567 1793.93,388.734 1770.5,397C 1767.18,397.498 1763.85,397.665 1760.5,397.5C 1760.39,395.097 1761.39,393.264 1763.5,392C 1783.94,378.894 1800.27,361.894 1812.5,341C 1806.88,333.597 1801.88,325.764 1797.5,317.5C 1792.32,323.517 1786.65,329.017 1780.5,334C 1777.43,336 1774.1,337.166 1770.5,337.5C 1770.37,335.345 1770.87,333.345 1772,331.5C 1786.94,308.509 1798.11,283.842 1805.5,257.5C 1806.84,255.651 1807.5,253.484 1807.5,251C 1806.84,247.527 1806.5,244.027 1806.5,240.5C 1808.39,236.832 1811.39,235.665 1815.5,237C 1822.38,239.842 1828.21,244.009 1833,249.5C 1833.67,251.167 1833.67,252.833 1833,254.5C 1827.93,262.136 1823.76,270.302 1820.5,279C 1820.83,279.5 1821.17,280 1821.5,280.5C 1827.58,279.963 1832.24,277.129 1835.5,272C 1838.93,271.299 1842.26,271.632 1845.5,273C 1850.42,275.707 1855.25,278.541 1860,281.5C 1862.34,285.948 1861.84,289.948 1858.5,293.5C 1855.57,294.591 1853.41,296.591 1852,299.5C 1847.94,312.955 1842.77,325.955 1836.5,338.5C 1849.09,350.954 1863.76,359.787 1880.5,365C 1878.11,363.048 1876.61,360.548 1876,357.5C 1874.61,353.099 1873.77,348.599 1873.5,344C 1875.69,324.722 1876.02,305.556 1874.5,286.5C 1875.57,273.188 1875.74,259.855 1875,246.5C 1874.3,242.072 1872.64,238.072 1870,234.5C 1868.97,227.24 1872.13,224.407 1879.5,226C 1886.61,227.472 1892.78,230.639 1898,235.5C 1898.87,236.873 1899.37,238.373 1899.5,240C 1897.95,243.317 1896.78,246.817 1896,250.5C 1895.17,260.517 1895.33,270.517 1896.5,280.5C 1903.72,282.777 1911.05,284.611 1918.5,286C 1925.63,287.472 1931.79,290.639 1937,295.5C 1938.92,303.523 1938.92,311.523 1937,319.5C 1934.01,322.265 1930.51,323.098 1926.5,322C 1916.4,312.738 1906.4,303.238 1896.5,293.5C 1895.87,312.826 1895.71,332.159 1896,351.5C 1894.59,357.486 1891.76,362.652 1887.5,367C 1888.17,367.667 1888.83,368.333 1889.5,369C 1905.17,374.083 1921.17,377.583 1937.5,379.5 Z"/></g>
<g><path style="opacity:1" fill="#696153" d="M 2049.5,294.5 C 2044.42,296.078 2039.08,296.745 2033.5,296.5C 2038.62,295.194 2043.95,294.527 2049.5,294.5 Z"/></g>
<g><path style="opacity:1" fill="#cac8c2" d="M 396.5,298.5 C 378.998,299.36 361.331,300.027 343.5,300.5C 346.305,299.681 349.305,299.181 352.5,299C 367.163,298.5 381.83,298.333 396.5,298.5 Z"/></g>
<g><path style="opacity:1" fill="#979185" d="M 1359.5,292.5 C 1360.21,291.596 1361.21,291.263 1362.5,291.5C 1362.83,300.682 1362.49,309.682 1361.5,318.5C 1362.14,309.435 1361.47,300.769 1359.5,292.5 Z"/></g>
<g><path style="opacity:1" fill="#a09a8e" d="M 1381.5,288.5 C 1381.18,295.687 1381.51,302.687 1382.5,309.5C 1382.44,310.043 1382.11,310.376 1381.5,310.5C 1380.18,303.01 1380.18,295.677 1381.5,288.5 Z"/></g>
<g><path style="opacity:1" fill="#463a27" d="M 1632.5,307.5 C 1635.83,307.785 1638.83,307.118 1641.5,305.5C 1646.82,304.085 1651.82,301.919 1656.5,299C 1666.98,297.799 1675.15,301.632 1681,310.5C 1681.85,313.407 1681.02,315.74 1678.5,317.5C 1664.87,319.117 1651.21,320.284 1637.5,321C 1628.93,321.817 1620.59,323.484 1612.5,326C 1608.83,326.667 1605.17,326.667 1601.5,326C 1598.02,323.354 1594.69,320.521 1591.5,317.5C 1590.22,315.298 1590.22,313.132 1591.5,311C 1605.24,310.429 1618.9,309.262 1632.5,307.5 Z"/></g>
<g><path style="opacity:1" fill="#a29b91" d="M 312.5,304.5 C 310.162,306.04 307.495,306.706 304.5,306.5C 306.905,305.232 309.572,304.565 312.5,304.5 Z"/></g>
<g><path style="opacity:1" fill="#efeeed" d="M 2069.5,304.5 C 2075.52,304.573 2081.69,304.906 2088,305.5C 2088.5,305.833 2089,306.167 2089.5,306.5C 2086.52,307.625 2084.18,308.625 2082.5,309.5C 2070.75,311.59 2058.92,313.924 2047,316.5C 2044.2,316.457 2041.7,315.623 2039.5,314C 2035.74,313.245 2032.08,313.411 2028.5,314.5C 2026.22,312.737 2023.55,311.737 2020.5,311.5C 2017.86,312.095 2015.19,312.428 2012.5,312.5C 2024.24,309.652 2036.24,307.485 2048.5,306C 2055.48,305.229 2062.48,304.729 2069.5,304.5 Z"/></g>
<g><path style="opacity:1" fill="#867e73" d="M 1641.5,305.5 C 1638.83,307.118 1635.83,307.785 1632.5,307.5C 1635.27,306.343 1638.27,305.676 1641.5,305.5 Z"/></g>
<g><path style="opacity:1" fill="#f1f1f0" d="M 1813.5,291.5 C 1819.46,292.344 1825.46,292.344 1831.5,291.5C 1830.72,304.109 1827.05,315.775 1820.5,326.5C 1814.5,321.5 1808.5,316.5 1802.5,311.5C 1806.18,304.806 1809.85,298.14 1813.5,291.5 Z"/></g>
<g><path style="opacity:1" fill="#b3afa5" d="M 2239.5,296.5 C 2239.56,295.957 2239.89,295.624 2240.5,295.5C 2241.82,304.658 2241.82,313.658 2240.5,322.5C 2240.83,313.651 2240.49,304.984 2239.5,296.5 Z"/></g>
<g><path style="opacity:1" fill="#a39e93" d="M 2258.5,292.5 C 2258.18,299.354 2258.51,306.021 2259.5,312.5C 2259.44,313.043 2259.11,313.376 2258.5,313.5C 2257.18,306.344 2257.18,299.344 2258.5,292.5 Z"/></g>
<g><path style="opacity:1" fill="#716756" d="M 976.5,303.5 C 976.5,306.5 976.5,309.5 976.5,312.5C 979.5,312.5 982.5,312.5 985.5,312.5C 982.375,313.479 979.042,313.813 975.5,313.5C 975.187,309.958 975.521,306.625 976.5,303.5 Z"/></g>
<g><path style="opacity:1" fill="#473a27" d="M 1248.5,324.5 C 1240.02,323.507 1231.35,323.174 1222.5,323.5C 1222.17,336.344 1222.5,349.011 1223.5,361.5C 1229.04,379.404 1224.7,394.571 1210.5,407C 1206.14,408.923 1201.81,408.923 1197.5,407C 1195.73,402.629 1193.56,398.462 1191,394.5C 1185.58,389.914 1179.75,385.914 1173.5,382.5C 1172.25,380.994 1172.25,379.494 1173.5,378C 1176.48,377.502 1179.48,377.335 1182.5,377.5C 1186.6,379.059 1190.93,379.559 1195.5,379C 1198.29,376.477 1199.62,373.31 1199.5,369.5C 1200.5,355.343 1200.83,341.01 1200.5,326.5C 1196.96,326.187 1193.62,326.521 1190.5,327.5C 1170.88,328.643 1151.55,330.976 1132.5,334.5C 1127.56,334.795 1122.9,335.962 1118.5,338C 1116.5,338.667 1114.5,338.667 1112.5,338C 1108.05,335.217 1103.88,332.05 1100,328.5C 1099.18,326.299 1099.68,324.466 1101.5,323C 1119.51,321.909 1137.51,320.743 1155.5,319.5C 1160.39,319.468 1165.06,318.801 1169.5,317.5C 1177.44,316.181 1185.44,315.514 1193.5,315.5C 1195.5,315.5 1197.5,315.5 1199.5,315.5C 1199.81,312.615 1199.47,309.948 1198.5,307.5C 1195.42,304.149 1195.08,300.649 1197.5,297C 1198.45,296.517 1199.45,296.351 1200.5,296.5C 1204.23,296.823 1207.89,296.489 1211.5,295.5C 1211.38,294.893 1211.04,294.56 1210.5,294.5C 1208.78,293.2 1206.61,292.533 1204,292.5C 1186.31,293.601 1169.14,296.934 1152.5,302.5C 1146.07,301.071 1141.41,297.405 1138.5,291.5C 1138.88,289.617 1139.88,288.117 1141.5,287C 1164.63,285.068 1187.63,282.234 1210.5,278.5C 1210.45,276.097 1210.78,273.764 1211.5,271.5C 1212.37,268.997 1213.04,266.33 1213.5,263.5C 1214.82,255.883 1215.82,248.217 1216.5,240.5C 1200.44,241.674 1184.44,243.508 1168.5,246C 1163.21,247.097 1158.04,248.597 1153,250.5C 1147.39,249.579 1142.73,246.913 1139,242.5C 1138.1,239.975 1138.6,237.808 1140.5,236C 1143.34,235.63 1146.17,235.797 1149,236.5C 1170.14,233.448 1191.3,230.614 1212.5,228C 1214.95,224.372 1218.28,222.205 1222.5,221.5C 1231.62,223.977 1239.45,228.644 1246,235.5C 1248.77,240.625 1247.44,244.292 1242,246.5C 1237.84,256.655 1234.67,267.155 1232.5,278C 1234.21,281.619 1234.71,285.453 1234,289.5C 1228.33,291.588 1223.16,294.588 1218.5,298.5C 1220.19,300.027 1222.03,301.36 1224,302.5C 1224.72,305.377 1224.22,308.043 1222.5,310.5C 1223.17,310.833 1223.83,311.167 1224.5,311.5C 1230.15,310.585 1235.82,309.752 1241.5,309C 1247.04,306.729 1252.37,304.229 1257.5,301.5C 1266.16,304.25 1273.66,308.917 1280,315.5C 1282.92,320.91 1281.42,324.41 1275.5,326C 1266.47,326.163 1257.47,325.663 1248.5,324.5 Z"/></g>
<g><path style="opacity:1" fill="#a8a196" d="M 1210.5,294.5 C 1211.04,294.56 1211.38,294.893 1211.5,295.5C 1207.89,296.489 1204.23,296.823 1200.5,296.5C 1203.83,295.833 1207.17,295.167 1210.5,294.5 Z"/></g>
<g><path style="opacity:1" fill="#b5b2a9" d="M 954.5,305.5 C 954.5,309.167 954.5,312.833 954.5,316.5C 952.167,316.5 949.833,316.5 947.5,316.5C 949.265,315.539 951.265,315.205 953.5,315.5C 953.187,311.958 953.521,308.625 954.5,305.5 Z"/></g>
<g><path style="opacity:1" fill="#736957" d="M 560.5,307.5 C 559.911,311.971 560.577,315.971 562.5,319.5C 561.791,320.404 560.791,320.737 559.5,320.5C 559.182,315.968 559.515,311.634 560.5,307.5 Z"/></g>
<g><path style="opacity:1" fill="#a79e93" d="M 1198.5,307.5 C 1199.47,309.948 1199.81,312.615 1199.5,315.5C 1197.5,315.5 1195.5,315.5 1193.5,315.5C 1194.92,314.549 1196.59,314.216 1198.5,314.5C 1198.5,312.167 1198.5,309.833 1198.5,307.5 Z"/></g>
<g><path style="opacity:1" fill="#f4f4f3" d="M 1874.5,286.5 C 1876.02,305.556 1875.69,324.722 1873.5,344C 1873.77,348.599 1874.61,353.099 1876,357.5C 1876.61,360.548 1878.11,363.048 1880.5,365C 1863.76,359.787 1849.09,350.954 1836.5,338.5C 1842.77,325.955 1847.94,312.955 1852,299.5C 1853.41,296.591 1855.57,294.591 1858.5,293.5C 1861.22,293.348 1864.22,293.682 1867.5,294.5C 1870.44,294.059 1872.27,292.393 1873,289.5C 1873.33,290.5 1873.67,291.5 1874,292.5C 1874.5,290.527 1874.66,288.527 1874.5,286.5 Z"/></g>
<g><path style="opacity:1" fill="#8f897e" d="M 1169.5,317.5 C 1165.06,318.801 1160.39,319.468 1155.5,319.5C 1159.88,317.789 1164.55,317.123 1169.5,317.5 Z"/></g>
<g><path style="opacity:1" fill="#453926" d="M 1381.5,288.5 C 1380.18,295.677 1380.18,303.01 1381.5,310.5C 1382.11,310.376 1382.44,310.043 1382.5,309.5C 1387.33,307.213 1392.33,305.713 1397.5,305C 1400.35,308.6 1399.69,311.6 1395.5,314C 1390.67,317.5 1385.83,321 1381,324.5C 1380.33,340.866 1380.83,357.199 1382.5,373.5C 1382.5,378.556 1382,383.556 1381,388.5C 1377.64,392.356 1374.48,396.356 1371.5,400.5C 1366.96,403.49 1362.79,403.156 1359,399.5C 1357.92,396.352 1356.59,393.352 1355,390.5C 1349.32,385.264 1343.82,379.931 1338.5,374.5C 1338.71,372.112 1340.05,371.112 1342.5,371.5C 1347.65,373.621 1352.98,374.455 1358.5,374C 1360.45,372.266 1361.45,370.099 1361.5,367.5C 1362.82,357.326 1362.82,346.993 1361.5,336.5C 1360.89,336.624 1360.56,336.957 1360.5,337.5C 1351.14,343.014 1342.48,349.514 1334.5,357C 1331.37,357.79 1328.37,357.457 1325.5,356C 1323.46,353.626 1321.13,351.626 1318.5,350C 1316.18,347.192 1314.51,344.025 1313.5,340.5C 1313.88,338.617 1314.88,337.117 1316.5,336C 1320.58,335.769 1324.58,335.102 1328.5,334C 1339.74,329.382 1350.74,324.215 1361.5,318.5C 1362.49,309.682 1362.83,300.682 1362.5,291.5C 1361.21,291.263 1360.21,291.596 1359.5,292.5C 1354.67,292.941 1350.01,294.107 1345.5,296C 1337.07,295.755 1330.74,291.921 1326.5,284.5C 1326.53,282.971 1327.2,281.804 1328.5,281C 1334.17,280.667 1339.83,280.333 1345.5,280C 1350.76,278.538 1356.09,277.372 1361.5,276.5C 1361.67,264.495 1361.5,252.495 1361,240.5C 1359.71,238.208 1358.04,236.208 1356,234.5C 1355.31,227.987 1358.31,224.987 1365,225.5C 1370.77,225.977 1376.27,227.477 1381.5,230C 1386.96,233.289 1387.79,237.456 1384,242.5C 1382.74,251.837 1382.58,261.17 1383.5,270.5C 1390.19,266.031 1396.02,267.031 1401,273.5C 1403.16,276.865 1402.99,280.032 1400.5,283C 1394,284.703 1387.67,286.536 1381.5,288.5 Z"/></g>
<g><path style="opacity:1" fill="#f2f2f1" d="M 2269.5,387.5 C 2268.74,388.268 2267.74,388.768 2266.5,389C 2266.83,389.333 2267.17,389.667 2267.5,390C 2262.26,390.73 2259.26,388.563 2258.5,383.5C 2257.51,364.51 2257.34,345.51 2258,326.5C 2262.41,322.383 2266.91,318.383 2271.5,314.5C 2272.31,312.929 2272.64,311.262 2272.5,309.5C 2273.55,309.649 2274.55,309.483 2275.5,309C 2282.64,304.03 2288.97,298.197 2294.5,291.5C 2294.83,292.5 2295.17,293.5 2295.5,294.5C 2288.62,314.601 2277.45,331.934 2262,346.5C 2261.01,348.925 2261.68,350.591 2264,351.5C 2272.52,348.158 2280.35,343.658 2287.5,338C 2298.63,327.401 2307.3,315.068 2313.5,301C 2312.09,297.426 2309.76,294.592 2306.5,292.5C 2310.32,290.855 2314.32,290.189 2318.5,290.5C 2319.28,294.146 2319.45,297.812 2319,301.5C 2309.73,334.733 2291.73,362.067 2265,383.5C 2264.51,384.793 2264.34,386.127 2264.5,387.5C 2266.17,387.5 2267.83,387.5 2269.5,387.5 Z"/></g>
<g><path style="opacity:1" fill="#f3f2f2" d="M 1190.5,327.5 C 1193.5,327.5 1196.5,327.5 1199.5,327.5C 1199.5,341.5 1199.5,355.5 1199.5,369.5C 1199.62,373.31 1198.29,376.477 1195.5,379C 1190.93,379.559 1186.6,379.059 1182.5,377.5C 1185.94,377.699 1189.27,377.199 1192.5,376C 1192.34,370.634 1192.17,365.134 1192,359.5C 1189.28,358.556 1186.45,358.223 1183.5,358.5C 1183.05,363.478 1180.88,364.478 1177,361.5C 1176.67,361.833 1176.33,362.167 1176,362.5C 1175.79,360.942 1175.29,359.609 1174.5,358.5C 1175.59,352.348 1173.93,347.182 1169.5,343C 1162.2,339.679 1154.7,337.179 1147,335.5C 1144.62,335.685 1142.79,336.685 1141.5,338.5C 1141.43,336.589 1140.43,335.422 1138.5,335C 1136.53,334.505 1134.53,334.338 1132.5,334.5C 1151.55,330.976 1170.88,328.643 1190.5,327.5 Z"/></g>
<g><path style="opacity:1" fill="#463a27" d="M 788.5,292.5 C 786.096,303.324 783.93,314.324 782,325.5C 781.463,330.637 781.796,335.637 783,340.5C 779.167,344.333 775.333,348.167 771.5,352C 765.849,354.509 762.183,352.675 760.5,346.5C 758.667,346.167 756.833,345.833 755,345.5C 742.075,346.149 729.242,347.482 716.5,349.5C 715.107,355.4 711.44,357.9 705.5,357C 703.291,355.127 701.458,352.96 700,350.5C 700.021,335.138 698.855,319.804 696.5,304.5C 696.617,296.274 694.284,288.941 689.5,282.5C 690.804,278.424 693.637,276.424 698,276.5C 701.319,276.788 704.485,277.621 707.5,279C 710.167,279.667 712.833,279.667 715.5,279C 731.178,276.531 746.845,273.864 762.5,271C 765.188,268.306 768.355,266.473 772,265.5C 780.352,267.833 787.352,272.167 793,278.5C 793.667,280.5 793.667,282.5 793,284.5C 790.696,286.78 789.196,289.446 788.5,292.5 Z"/></g>
<g><path style="opacity:1" fill="#a5a096" d="M 747.5,296.5 C 747.5,298.5 747.5,300.5 747.5,302.5C 748.5,302.5 749.5,302.5 750.5,302.5C 749.432,303.434 748.099,303.768 746.5,303.5C 746.198,300.941 746.532,298.607 747.5,296.5 Z"/></g>
<g><path style="opacity:1" fill="#f3f2f1" d="M 713.5,296.5 C 712.99,293.612 713.656,291.279 715.5,289.5C 720.181,289.331 724.848,288.998 729.5,288.5C 729.5,294.5 729.5,300.5 729.5,306.5C 724.567,307.587 719.567,308.253 714.5,308.5C 714.817,304.298 714.483,300.298 713.5,296.5 Z"/></g>
<g><path style="opacity:1" fill="#857e72" d="M 715.5,289.5 C 713.656,291.279 712.99,293.612 713.5,296.5C 712.527,294.052 712.194,291.385 712.5,288.5C 713.791,288.263 714.791,288.596 715.5,289.5 Z"/></g>
<g><path style="opacity:1" fill="#f0efef" d="M 750.5,302.5 C 749.5,302.5 748.5,302.5 747.5,302.5C 747.5,300.5 747.5,298.5 747.5,296.5C 747.5,292.833 747.5,289.167 747.5,285.5C 752.516,285.022 757.516,284.355 762.5,283.5C 763.772,283.57 764.938,283.903 766,284.5C 766.95,291.629 766.45,298.629 764.5,305.5C 760.594,300.408 755.928,299.408 750.5,302.5 Z"/></g>
<g><path style="opacity:1" fill="#efeeed" d="M 953.5,397.5 C 952.672,391.681 952.172,385.681 952,379.5C 951.667,385.833 951.333,392.167 951,398.5C 950.598,399.872 950.098,401.205 949.5,402.5C 948.726,403.711 947.893,403.711 947,402.5C 946.9,379.313 946.734,356.313 946.5,333.5C 944.473,333.662 942.473,333.495 940.5,333C 941.833,332.667 943.167,332.333 944.5,332C 941.854,331.503 939.187,331.336 936.5,331.5C 942.288,330.19 948.288,329.523 954.5,329.5C 954.593,352.175 954.26,374.842 953.5,397.5 Z"/></g>
<g><path style="opacity:1" fill="#a6a098" d="M 1248.5,324.5 C 1240.17,324.5 1231.83,324.5 1223.5,324.5C 1223.5,336.833 1223.5,349.167 1223.5,361.5C 1222.5,349.011 1222.17,336.344 1222.5,323.5C 1231.35,323.174 1240.02,323.507 1248.5,324.5 Z"/></g>
<g><path style="opacity:1" fill="#463a27" d="M 2042.5,389.5 C 2041.25,387.661 2041.25,385.828 2042.5,384C 2046.84,383.583 2051.17,383.749 2055.5,384.5C 2058.25,384.537 2060.41,383.537 2062,381.5C 2063.86,372.148 2063.69,362.815 2061.5,353.5C 2061.5,352.5 2061.5,351.5 2061.5,350.5C 2057.96,350.187 2054.62,350.521 2051.5,351.5C 2050.18,354.819 2047.85,357.153 2044.5,358.5C 2040.89,356.872 2037.89,354.539 2035.5,351.5C 2035.04,339.624 2032.04,328.457 2026.5,318C 2026.39,316.301 2027.05,315.134 2028.5,314.5C 2032.08,313.411 2035.74,313.245 2039.5,314C 2041.7,315.623 2044.2,316.457 2047,316.5C 2058.92,313.924 2070.75,311.59 2082.5,309.5C 2084.86,309.663 2087.19,309.497 2089.5,309C 2093.43,302.88 2098.43,301.88 2104.5,306C 2109.92,308.79 2115.08,311.957 2120,315.5C 2120.75,318.303 2120.42,320.97 2119,323.5C 2113.96,325.542 2110.63,329.208 2109,334.5C 2109.92,338.054 2110.59,341.721 2111,345.5C 2110.17,346.333 2109.33,347.167 2108.5,348C 2098.5,348.333 2088.5,348.667 2078.5,349C 2079.58,349.956 2080.75,350.789 2082,351.5C 2083.03,364.169 2083.7,376.835 2084,389.5C 2082.32,397.847 2078.15,404.68 2071.5,410C 2068.63,411.457 2065.63,411.79 2062.5,411C 2059.95,407.41 2057.79,403.577 2056,399.5C 2051.34,396.335 2046.84,393.002 2042.5,389.5 Z"/></g>
<g><path style="opacity:1" fill="#f2f2f1" d="M 2084.5,320.5 C 2086.5,320.5 2088.5,320.5 2090.5,320.5C 2090.2,325.829 2089.2,330.996 2087.5,336C 2075.64,338.671 2063.64,340.171 2051.5,340.5C 2050.82,335.769 2049.82,331.102 2048.5,326.5C 2060.64,324.566 2072.64,322.566 2084.5,320.5 Z"/></g>
<g><path style="opacity:1" fill="#bdb7b1" d="M 257.5,330.5 C 257.179,336.026 257.512,341.36 258.5,346.5C 258.44,347.043 258.107,347.376 257.5,347.5C 256.184,341.68 256.184,336.013 257.5,330.5 Z"/></g>
<g><path style="opacity:1" fill="#f2f1f1" d="M 797.5,296.5 C 791.371,300.363 790.871,305.029 796,310.5C 797.779,327.935 796.946,345.268 793.5,362.5C 791.242,359.954 788.408,358.621 785,358.5C 756.405,361.342 727.905,364.676 699.5,368.5C 695.833,368.5 692.167,368.5 688.5,368.5C 688.821,363.305 688.487,358.305 687.5,353.5C 687.54,342.144 687.707,330.81 688,319.5C 685.449,316.319 682.282,314.319 678.5,313.5C 679.873,313.657 681.207,313.49 682.5,313C 679.756,312.197 677.089,311.197 674.5,310C 678.774,310.184 683.107,309.684 687.5,308.5C 689.509,309.948 691.676,311.281 694,312.5C 694.186,308.484 694.186,304.484 694,300.5C 694.122,302.437 694.955,303.77 696.5,304.5C 698.855,319.804 700.021,335.138 700,350.5C 701.458,352.96 703.291,355.127 705.5,357C 711.44,357.9 715.107,355.4 716.5,349.5C 729.242,347.482 742.075,346.149 755,345.5C 756.833,345.833 758.667,346.167 760.5,346.5C 762.183,352.675 765.849,354.509 771.5,352C 775.333,348.167 779.167,344.333 783,340.5C 781.796,335.637 781.463,330.637 782,325.5C 783.93,314.324 786.096,303.324 788.5,292.5C 788.369,293.239 788.536,293.906 789,294.5C 789.333,293.5 789.667,292.5 790,291.5C 792.406,293.288 794.906,294.954 797.5,296.5 Z"/></g>
<g><path style="opacity:1" fill="#9b958a" d="M 1360.5,337.5 C 1360.56,336.957 1360.89,336.624 1361.5,336.5C 1362.82,346.993 1362.82,357.326 1361.5,367.5C 1361.83,357.319 1361.49,347.319 1360.5,337.5 Z"/></g>
<g><path style="opacity:1" fill="#453926" d="M 257.5,330.5 C 256.184,336.013 256.184,341.68 257.5,347.5C 258.107,347.376 258.44,347.043 258.5,346.5C 264.804,342.01 271.137,337.51 277.5,333C 279.134,332.506 280.801,332.34 282.5,332.5C 282.657,333.873 282.49,335.207 282,336.5C 272,349.833 262,363.167 252,376.5C 249.452,380.263 247.452,384.263 246,388.5C 243.032,390.991 239.865,391.157 236.5,389C 230.581,382.552 227.414,375.052 227,366.5C 229,365.167 231,363.833 233,362.5C 234.618,358.932 235.951,355.265 237,351.5C 239.117,334.907 240.284,318.24 240.5,301.5C 233.489,303.757 226.656,306.424 220,309.5C 214.567,307.742 209.901,304.742 206,300.5C 205.104,297.975 205.604,295.808 207.5,294C 218.309,293.339 228.643,290.839 238.5,286.5C 242.945,279.023 248.945,277.523 256.5,282C 258.657,283.912 260.991,285.579 263.5,287C 265.677,288.497 267.01,290.497 267.5,293C 265.028,296.815 262.528,300.648 260,304.5C 258.672,313.125 257.838,321.792 257.5,330.5 Z"/></g>
<g><path style="opacity:1" fill="#463a26" d="M 1174.5,358.5 C 1170.95,371.317 1164.45,373.317 1155,364.5C 1153.19,360.047 1151.19,355.714 1149,351.5C 1147,348.167 1144.33,345.5 1141,343.5C 1140.36,341.735 1140.53,340.068 1141.5,338.5C 1142.79,336.685 1144.62,335.685 1147,335.5C 1154.7,337.179 1162.2,339.679 1169.5,343C 1173.93,347.182 1175.59,352.348 1174.5,358.5 Z"/></g>
<g><path style="opacity:1" fill="#969288" d="M 2051.5,351.5 C 2054.62,350.521 2057.96,350.187 2061.5,350.5C 2061.5,351.5 2061.5,352.5 2061.5,353.5C 2058.51,351.727 2055.18,351.06 2051.5,351.5 Z"/></g>
<g><path style="opacity:1" fill="#f1f0f0" d="M 2035.5,351.5 C 2037.89,354.539 2040.89,356.872 2044.5,358.5C 2047.85,357.153 2050.18,354.819 2051.5,351.5C 2055.18,351.06 2058.51,351.727 2061.5,353.5C 2063.69,362.815 2063.86,372.148 2062,381.5C 2060.41,383.537 2058.25,384.537 2055.5,384.5C 2051.17,383.749 2046.84,383.583 2042.5,384C 2041.25,385.828 2041.25,387.661 2042.5,389.5C 2038.52,390.829 2034.52,390.829 2030.5,389.5C 2028.13,390.363 2028.13,391.529 2030.5,393C 2027.44,394.015 2024.44,395.181 2021.5,396.5C 2020.58,395.873 2019.58,395.539 2018.5,395.5C 2026.79,391.265 2032.95,384.932 2037,376.5C 2038.3,370.078 2037.3,364.078 2034,358.5C 2032.74,356.393 2030.9,355.393 2028.5,355.5C 2031.16,354.603 2033.5,353.27 2035.5,351.5 Z"/></g>
<g><path style="opacity:1" fill="#c7c2bc" d="M 2362.5,342.5 C 2362.7,347.75 2362.03,352.75 2360.5,357.5C 2360.44,352.269 2361.11,347.269 2362.5,342.5 Z"/></g>
<g><path style="opacity:1" fill="#a5a197" d="M 1190.5,327.5 C 1193.62,326.521 1196.96,326.187 1200.5,326.5C 1200.83,341.01 1200.5,355.343 1199.5,369.5C 1199.5,355.5 1199.5,341.5 1199.5,327.5C 1196.5,327.5 1193.5,327.5 1190.5,327.5 Z"/></g>
<g><path style="opacity:1" fill="#463926" d="M 593.5,270.5 C 583.828,270.334 574.161,270.5 564.5,271C 562.292,271.191 560.292,271.691 558.5,272.5C 544.764,273.34 531.097,274.84 517.5,277C 511.256,289.646 504.09,301.812 496,313.5C 496.361,315.933 496.861,318.433 497.5,321C 497.332,323.665 496.665,326.165 495.5,328.5C 494.173,344.672 494.173,361.005 495.5,377.5C 496.107,377.376 496.44,377.043 496.5,376.5C 510.5,374.833 524.5,373.167 538.5,371.5C 538.5,368.833 538.5,366.167 538.5,363.5C 539.493,355.016 539.826,346.349 539.5,337.5C 536.941,337.198 534.607,337.532 532.5,338.5C 526.55,339.771 520.55,340.271 514.5,340C 511.073,338.204 507.906,336.037 505,333.5C 504.202,331.741 504.369,330.074 505.5,328.5C 516.487,327.174 527.487,325.841 538.5,324.5C 538.832,315.475 538.498,306.475 537.5,297.5C 530.055,286.897 532.722,282.064 545.5,283C 551.316,284.378 556.65,286.711 561.5,290C 562.98,291.299 563.646,292.966 563.5,295C 562.266,299.102 561.266,303.268 560.5,307.5C 559.515,311.634 559.182,315.968 559.5,320.5C 560.791,320.737 561.791,320.404 562.5,319.5C 566.922,318.303 571.256,316.803 575.5,315C 581.813,313.663 587.48,314.996 592.5,319C 598.172,323.931 597.839,328.265 591.5,332C 581.129,332.461 570.796,333.294 560.5,334.5C 560.307,345.838 559.973,357.172 559.5,368.5C 567.517,367.903 575.517,367.069 583.5,366C 587.071,364.881 590.404,363.215 593.5,361C 604.09,361.38 612.59,365.88 619,374.5C 620.846,381.652 618.013,384.652 610.5,383.5C 575.252,380.176 540.419,382.509 506,390.5C 502.152,389.162 498.652,387.162 495.5,384.5C 495.526,393.262 492.526,400.762 486.5,407C 482.726,408.183 479.559,407.349 477,404.5C 473.232,397.976 471.566,390.976 472,383.5C 473.575,378.455 474.741,373.455 475.5,368.5C 477.505,358.362 477.838,348.029 476.5,337.5C 475.893,337.624 475.56,337.957 475.5,338.5C 462.108,351.622 446.608,361.622 429,368.5C 426.812,367.941 426.146,366.607 427,364.5C 444.109,349.727 459.443,333.394 473,315.5C 472.623,311.76 471.957,308.093 471,304.5C 471.5,304 472,303.5 472.5,303C 475.437,303.011 478.27,302.845 481,302.5C 485.086,295.997 488.919,289.33 492.5,282.5C 484.67,281.398 477.337,282.898 470.5,287C 461.756,286.381 454.256,282.881 448,276.5C 447.289,274.633 447.789,273.133 449.5,272C 466.403,271.71 483.07,269.71 499.5,266C 502.326,258.861 505.159,251.695 508,244.5C 508.208,238.106 507.875,231.773 507,225.5C 508.393,222.634 510.726,221.301 514,221.5C 523.419,223.71 531.753,228.043 539,234.5C 539.667,236.5 539.667,238.5 539,240.5C 532.618,246.707 528.118,254.041 525.5,262.5C 536.494,260.715 547.494,258.881 558.5,257C 564.977,254.926 570.977,252.092 576.5,248.5C 584.291,250.375 591.124,254.042 597,259.5C 599.643,264.497 598.476,268.163 593.5,270.5 Z"/></g>
<g><path style="opacity:1" fill="#625947" d="M 475.5,338.5 C 475.56,337.957 475.893,337.624 476.5,337.5C 477.838,348.029 477.505,358.362 475.5,368.5C 476.465,358.336 476.465,348.336 475.5,338.5 Z"/></g>
<g><path style="opacity:1" fill="#c4c2bb" d="M 495.5,328.5 C 495.17,344.675 495.504,360.675 496.5,376.5C 496.44,377.043 496.107,377.376 495.5,377.5C 494.173,361.005 494.173,344.672 495.5,328.5 Z"/></g>
<g><path style="opacity:1" fill="#675e4d" d="M 532.5,338.5 C 534.607,337.532 536.941,337.198 539.5,337.5C 539.826,346.349 539.493,355.016 538.5,363.5C 538.5,355.167 538.5,346.833 538.5,338.5C 536.5,338.5 534.5,338.5 532.5,338.5 Z"/></g>
<g><path style="opacity:1" fill="#473a28" d="M 1696.5,346.5 C 1698.53,346.338 1700.53,346.505 1702.5,347C 1710.28,352.634 1718.11,358.134 1726,363.5C 1728.48,368.149 1727.98,372.315 1724.5,376C 1719.57,377.418 1714.57,377.751 1709.5,377C 1704.26,375.57 1698.92,374.57 1693.5,374C 1661.39,373.342 1629.39,375.009 1597.5,379C 1585.59,380.429 1573.92,382.929 1562.5,386.5C 1559.77,386.705 1557.44,385.872 1555.5,384C 1552.63,380.796 1549.46,377.963 1546,375.5C 1541.92,370.55 1542.92,367.55 1549,366.5C 1552.28,367.906 1555.78,368.573 1559.5,368.5C 1601.57,364.994 1643.57,360.827 1685.5,356C 1689.61,353.288 1693.28,350.122 1696.5,346.5 Z"/></g>
<g><path style="opacity:1" fill="#463a27" d="M 797.5,296.5 C 807.567,297.135 816.4,300.802 824,307.5C 824.167,308.5 824.333,309.5 824.5,310.5C 823.081,313.687 821.914,317.02 821,320.5C 819.865,336.476 819.199,352.476 819,368.5C 819.165,378.427 816.498,387.427 811,395.5C 806.281,400.366 801.281,400.699 796,396.5C 793.739,391.145 791.906,385.645 790.5,380C 790.773,377.849 791.439,375.849 792.5,374C 773.057,373.564 753.724,374.898 734.5,378C 720.204,380.478 705.87,382.811 691.5,385C 689.044,387.946 686.377,390.613 683.5,393C 677.227,393.116 672.06,390.616 668,385.5C 666.667,383.5 665.333,381.5 664,379.5C 663.333,377.5 663.333,375.5 664,373.5C 666.148,372.023 667.482,370.023 668,367.5C 670.077,354.451 669.744,341.451 667,328.5C 657.736,313.713 661.57,308.713 678.5,313.5C 682.282,314.319 685.449,316.319 688,319.5C 687.707,330.81 687.54,342.144 687.5,353.5C 687.5,358.833 687.5,364.167 687.5,369.5C 691.702,369.817 695.702,369.483 699.5,368.5C 727.905,364.676 756.405,361.342 785,358.5C 788.408,358.621 791.242,359.954 793.5,362.5C 796.946,345.268 797.779,327.935 796,310.5C 790.871,305.029 791.371,300.363 797.5,296.5 Z"/></g>
<g><path style="opacity:1" fill="#c4c2bb" d="M 687.5,353.5 C 688.487,358.305 688.821,363.305 688.5,368.5C 692.167,368.5 695.833,368.5 699.5,368.5C 695.702,369.483 691.702,369.817 687.5,369.5C 687.5,364.167 687.5,358.833 687.5,353.5 Z"/></g>
<g><path style="opacity:1" fill="#8a8377" d="M 716.5,334.5 C 717.404,335.209 717.737,336.209 717.5,337.5C 719.167,337.5 720.833,337.5 722.5,337.5C 720.735,338.461 718.735,338.795 716.5,338.5C 716.5,337.167 716.5,335.833 716.5,334.5 Z"/></g>
<g><path style="opacity:1" fill="#aea8a0" d="M 717.5,317.5 C 716.517,321.298 716.183,325.298 716.5,329.5C 715.189,325.317 715.189,320.984 716.5,316.5C 717.107,316.624 717.44,316.957 717.5,317.5 Z"/></g>
<g><path style="opacity:1" fill="#f1f0ef" d="M 717.5,317.5 C 721.413,318.201 725.413,318.201 729.5,317.5C 729.5,323.833 729.5,330.167 729.5,336.5C 727.05,336.298 724.717,336.631 722.5,337.5C 720.833,337.5 719.167,337.5 717.5,337.5C 717.737,336.209 717.404,335.209 716.5,334.5C 716.5,332.833 716.5,331.167 716.5,329.5C 716.183,325.298 716.517,321.298 717.5,317.5 Z"/></g>
<g><path style="opacity:1" fill="#f0f0ef" d="M 762.5,312.5 C 763.649,312.791 764.316,313.624 764.5,315C 763.708,320.505 762.874,326.005 762,331.5C 756.9,332.374 751.734,333.041 746.5,333.5C 746.5,327.5 746.5,321.5 746.5,315.5C 752.12,315.306 757.453,314.306 762.5,312.5 Z"/></g>
<g><path style="opacity:1" fill="#483b28" d="M 2095.5,357.5 C 2108.61,358.016 2120.61,361.85 2131.5,369C 2137.22,376.499 2137.72,384.332 2133,392.5C 2129.24,395.875 2125.07,396.375 2120.5,394C 2112.74,382.571 2103.9,372.071 2094,362.5C 2093.39,360.505 2093.89,358.838 2095.5,357.5 Z"/></g>
<g><path style="opacity:1" fill="#473a28" d="M 343.5,382.5 C 344.117,382.389 344.617,382.056 345,381.5C 345.49,361.49 345.157,341.49 344,321.5C 341.925,320.866 339.759,320.532 337.5,320.5C 328.633,322.632 319.633,323.632 310.5,323.5C 310.5,326.833 310.5,330.167 310.5,333.5C 317.651,332.946 324.484,331.279 331,328.5C 333.54,329.185 336.04,330.019 338.5,331C 342.885,335.128 342.218,338.128 336.5,340C 327.849,341.365 319.183,342.531 310.5,343.5C 310.5,346.833 310.5,350.167 310.5,353.5C 318.132,352.05 325.632,350.05 333,347.5C 335.517,348.507 338.017,349.674 340.5,351C 343.167,354 343.167,357 340.5,360C 330.792,361.345 321.125,362.845 311.5,364.5C 310.671,372.323 310.171,380.323 310,388.5C 309.119,392.376 307.786,396.042 306,399.5C 299.045,405.641 294.045,404.308 291,395.5C 287.676,387.396 288.009,379.396 292,371.5C 293.323,354.85 293.656,338.184 293,321.5C 289.594,318.182 289.76,315.015 293.5,312C 295.833,311.333 298.167,311.333 300.5,312C 303.362,313.299 306.362,314.132 309.5,314.5C 319.137,312.508 328.803,310.674 338.5,309C 342.721,303.405 348.054,302.071 354.5,305C 359.761,307.545 364.594,310.712 369,314.5C 371.295,318.692 370.628,322.359 367,325.5C 366.488,346.866 366.821,368.2 368,389.5C 366.667,392.833 365.333,396.167 364,399.5C 360.833,402.667 357.667,405.833 354.5,409C 350.098,412.774 346.265,412.274 343,407.5C 340.358,398.854 334.858,392.688 326.5,389C 324.816,386.214 325.483,384.38 328.5,383.5C 333.133,384.553 337.799,384.719 342.5,384C 343.056,383.617 343.389,383.117 343.5,382.5 Z"/></g>
<g><path style="opacity:1" fill="#edeceb" d="M 343.5,382.5 C 343.318,377.206 342.818,377.206 342,382.5C 339.957,381.421 338.624,379.754 338,377.5C 338.586,372.976 338.419,368.643 337.5,364.5C 331.089,364.01 324.755,364.843 318.5,367C 318.833,367.333 319.167,367.667 319.5,368C 317.604,371.781 316.938,375.614 317.5,379.5C 317.667,380.5 317.833,381.5 318,382.5C 320.212,383.12 322.046,384.287 323.5,386C 322.168,388.971 319.834,390.804 316.5,391.5C 315.648,388.422 313.982,385.922 311.5,384C 313.39,382.922 314.39,381.255 314.5,379C 313.751,376.499 312.751,374.165 311.5,372C 311.68,369.759 312.513,369.259 314,370.5C 314.483,369.552 314.649,368.552 314.5,367.5C 313.5,367.5 312.5,367.5 311.5,367.5C 311.5,366.5 311.5,365.5 311.5,364.5C 321.125,362.845 330.792,361.345 340.5,360C 343.167,357 343.167,354 340.5,351C 338.017,349.674 335.517,348.507 333,347.5C 325.632,350.05 318.132,352.05 310.5,353.5C 310.5,350.167 310.5,346.833 310.5,343.5C 319.183,342.531 327.849,341.365 336.5,340C 342.218,338.128 342.885,335.128 338.5,331C 336.04,330.019 333.54,329.185 331,328.5C 324.484,331.279 317.651,332.946 310.5,333.5C 310.5,330.167 310.5,326.833 310.5,323.5C 319.633,323.632 328.633,322.632 337.5,320.5C 339.759,320.532 341.925,320.866 344,321.5C 345.157,341.49 345.49,361.49 345,381.5C 344.617,382.056 344.117,382.389 343.5,382.5 Z"/></g>
<g><path style="opacity:1" fill="#c7c5bf" d="M 1937.5,379.5 C 1941.18,379.335 1944.85,379.501 1948.5,380C 1949.74,380.232 1950.74,380.732 1951.5,381.5C 1946.63,381.31 1941.96,380.644 1937.5,379.5 Z"/></g>
<g><path style="opacity:1" fill="#463a27" d="M 2028.5,355.5 C 2030.9,355.393 2032.74,356.393 2034,358.5C 2037.3,364.078 2038.3,370.078 2037,376.5C 2032.95,384.932 2026.79,391.265 2018.5,395.5C 2008.92,396.414 2005.09,392.081 2007,382.5C 2011.67,377.833 2016.33,373.167 2021,368.5C 2022.91,365.785 2024.24,362.785 2025,359.5C 2025.95,357.907 2027.12,356.574 2028.5,355.5 Z"/></g>
</svg>
