<?xml version="1.0" encoding="UTF-8"?>
<svg xmlns="http://www.w3.org/2000/svg" width="1320" height="170" viewBox="170 385 1320 170" preserveAspectRatio="xMidYMid meet" style="shape-rendering:geometricPrecision; text-rendering:geometricPrecision; image-rendering:optimizeQuality; fill-rule:evenodd; clip-rule:evenodd">

<g><path style="opacity:1" fill="#785334" d="M 865.5,424.5 C 866.167,424.833 866.833,425.167 867.5,425.5C 870.167,427.833 872.833,430.167 875.5,432.5C 872.216,433.26 869.549,435.093 867.5,438C 868.738,437.923 869.738,438.089 870.5,438.5C 869.398,439.176 868.398,439.842 867.5,440.5C 862.47,437.316 857.804,433.649 853.5,429.5C 853.56,428.957 853.893,428.624 854.5,428.5C 855.5,429.167 856.5,429.833 857.5,430.5C 860.197,427.699 862.864,425.699 865.5,424.5 Z"/></g>
<g><path style="opacity:1" fill="#865d39" d="M 875.5,432.5 C 875.833,432.5 876.167,432.5 876.5,432.5C 879.833,435.5 883.167,438.5 886.5,441.5C 885.685,442.429 884.852,443.429 884,444.5C 881.388,443.946 878.888,444.613 876.5,446.5C 875.583,445.873 874.583,445.539 873.5,445.5C 870.891,444.557 868.891,442.89 867.5,440.5C 868.398,439.842 869.398,439.176 870.5,438.5C 869.738,438.089 868.738,437.923 867.5,438C 869.549,435.093 872.216,433.26 875.5,432.5 Z"/></g>
<g><path style="opacity:1" fill="#9d836d" d="M 620.5,447.5 C 643.833,447.5 667.167,447.5 690.5,447.5C 690.5,450.833 690.5,454.167 690.5,457.5C 688.393,458.468 686.059,458.802 683.5,458.5C 680.167,458.5 676.833,458.5 673.5,458.5C 668.5,458.5 663.5,458.5 658.5,458.5C 652.167,458.5 645.833,458.5 639.5,458.5C 655.992,457.503 672.658,457.17 689.5,457.5C 689.5,454.5 689.5,451.5 689.5,448.5C 666.327,448.831 643.327,448.498 620.5,447.5 Z"/></g>
<g><path style="opacity:1" fill="#745032" d="M 401.5,446.5 C 409.167,446.5 416.833,446.5 424.5,446.5C 423.081,447.451 421.415,447.784 419.5,447.5C 419.762,448.978 419.429,450.311 418.5,451.5C 415.55,452.488 412.55,453.321 409.5,454C 410.5,454.333 411.5,454.667 412.5,455C 410.498,456.019 408.498,456.852 406.5,457.5C 404.585,457.216 402.919,457.549 401.5,458.5C 393.445,458.77 385.445,458.437 377.5,457.5C 379.218,456.776 381.052,456.109 383,455.5C 385.401,456.602 387.901,456.769 390.5,456C 389.5,455.667 388.5,455.333 387.5,455C 389.974,454.887 391.974,453.887 393.5,452C 397.855,450.896 402.188,449.729 406.5,448.5C 404.709,447.83 403.042,447.163 401.5,446.5 Z"/></g>
<g><path style="opacity:1" fill="#7f5838" d="M 424.5,446.5 C 457.167,446.5 489.833,446.5 522.5,446.5C 529.167,446.5 535.833,446.5 542.5,446.5C 547.833,446.5 553.167,446.5 558.5,446.5C 559.833,446.5 561.167,446.5 562.5,446.5C 562.5,446.833 562.5,447.167 562.5,447.5C 541.489,447.167 520.489,447.5 499.5,448.5C 498.91,449.799 497.91,450.632 496.5,451C 498.618,451.26 500.284,452.26 501.5,454C 497.75,454.26 494.084,454.927 490.5,456C 494.169,455.299 497.836,455.632 501.5,457C 469.835,457.5 438.168,457.667 406.5,457.5C 408.498,456.852 410.498,456.019 412.5,455C 411.5,454.667 410.5,454.333 409.5,454C 412.55,453.321 415.55,452.488 418.5,451.5C 419.429,450.311 419.762,448.978 419.5,447.5C 421.415,447.784 423.081,447.451 424.5,446.5 Z"/></g>
<g><path style="opacity:1" fill="#754d2d" d="M 266.5,447.5 C 270.833,447.5 275.167,447.5 279.5,447.5C 287.174,447.334 294.841,447.5 302.5,448C 298.755,447.965 298.088,448.965 300.5,451C 297.901,451.769 295.401,451.602 293,450.5C 292.25,451.126 291.416,451.626 290.5,452C 292.592,452.953 292.925,454.286 291.5,456C 309.842,456.833 328.176,456.666 346.5,455.5C 347.09,454.201 348.09,453.368 349.5,453C 352.289,452.759 354.956,452.092 357.5,451C 357.833,450 358.167,449 358.5,448C 364.157,447.501 369.824,447.334 375.5,447.5C 375.36,449.124 376.027,450.29 377.5,451C 376.354,451.645 375.354,452.478 374.5,453.5C 373.707,453.069 372.873,452.735 372,452.5C 369.054,453.706 366.554,454.873 364.5,456C 367.695,456.181 370.695,456.681 373.5,457.5C 319.161,457.641 264.828,457.141 210.5,456C 230.5,455.667 250.5,455.333 270.5,455C 272.833,453.757 273.5,452.091 272.5,450C 273.5,449.667 274.5,449.333 275.5,449C 272.305,448.819 269.305,448.319 266.5,447.5 Z"/></g>
<g><path style="opacity:1" fill="#795232" d="M 562.5,447.5 C 581.833,447.5 601.167,447.5 620.5,447.5C 643.327,448.498 666.327,448.831 689.5,448.5C 689.5,451.5 689.5,454.5 689.5,457.5C 672.658,457.17 655.992,457.503 639.5,458.5C 624.167,458.5 608.833,458.5 593.5,458.5C 578.833,458.5 564.167,458.5 549.5,458.5C 500.167,458.5 450.833,458.5 401.5,458.5C 402.919,457.549 404.585,457.216 406.5,457.5C 438.168,457.667 469.835,457.5 501.5,457C 497.836,455.632 494.169,455.299 490.5,456C 494.084,454.927 497.75,454.26 501.5,454C 500.284,452.26 498.618,451.26 496.5,451C 497.91,450.632 498.91,449.799 499.5,448.5C 520.489,447.5 541.489,447.167 562.5,447.5 Z"/></g>
<g><path style="opacity:1" fill="#7f5938" d="M 839.5,404.5 C 841.062,404.733 842.395,405.4 843.5,406.5C 848.476,410.47 853.476,414.47 858.5,418.5C 860.833,420.5 863.167,422.5 865.5,424.5C 862.864,425.699 860.197,427.699 857.5,430.5C 856.5,429.833 855.5,429.167 854.5,428.5C 853.893,428.624 853.56,428.957 853.5,429.5C 849.185,426.191 844.852,422.857 840.5,419.5C 825.518,431.152 810.851,443.152 796.5,455.5C 810.874,468.038 825.708,480.038 841,491.5C 846.751,485.908 852.918,480.908 859.5,476.5C 862.389,478.036 865.056,480.036 867.5,482.5C 866.471,482.296 865.471,482.796 864.5,484C 865.056,484.383 865.389,484.883 865.5,485.5C 864.027,487.395 862.36,489.061 860.5,490.5C 858.611,491.604 856.945,492.937 855.5,494.5C 850.809,498.197 846.142,501.864 841.5,505.5C 822.301,491.981 803.634,477.648 785.5,462.5C 775.837,469.506 766.503,476.84 757.5,484.5C 756.29,484.932 755.29,485.599 754.5,486.5C 752.217,486.392 750.217,485.559 748.5,484C 743.559,479.213 738.225,475.046 732.5,471.5C 731.109,469.11 729.109,467.443 726.5,466.5C 722.896,463.398 719.396,460.065 716,456.5C 715.421,455.072 715.588,453.738 716.5,452.5C 721.765,449.565 726.432,445.899 730.5,441.5C 733.473,439.853 736.14,437.853 738.5,435.5C 740.23,434.974 741.564,433.974 742.5,432.5C 745.621,430.552 748.621,428.385 751.5,426C 752.5,425.333 753.5,425.333 754.5,426C 764.474,434.319 774.808,442.152 785.5,449.5C 787.882,446.452 790.548,443.785 793.5,441.5C 795.909,440.299 797.909,438.633 799.5,436.5C 804.052,433.397 808.386,430.064 812.5,426.5C 813.5,425.833 814.5,425.167 815.5,424.5C 823.817,418.18 831.817,411.514 839.5,404.5 Z"/></g>
<g><path style="opacity:1" fill="#7c5534" d="M 1081.5,447.5 C 1082.17,447.5 1082.83,447.5 1083.5,447.5C 1096.83,447.5 1110.17,447.5 1123.5,447.5C 1161.83,447.333 1200.17,447.5 1238.5,448C 1238.83,448.333 1239.17,448.667 1239.5,449C 1233.12,450.044 1226.95,450.877 1221,451.5C 1219.81,450.57 1218.47,449.903 1217,449.5C 1214.08,451.224 1211.41,453.224 1209,455.5C 1207.49,453.043 1206.15,453.043 1205,455.5C 1204.03,453.122 1203.36,453.456 1203,456.5C 1202.67,456.167 1202.33,455.833 1202,455.5C 1200.3,456.733 1198.3,457.4 1196,457.5C 1193.05,457.117 1190.22,456.451 1187.5,455.5C 1187.5,456.5 1187.5,457.5 1187.5,458.5C 1219.5,458.333 1251.5,458.5 1283.5,459C 1238.83,459.5 1194.17,459.667 1149.5,459.5C 1124.83,459.5 1100.17,459.5 1075.5,459.5C 1072.5,459.5 1069.5,459.5 1066.5,459.5C 1063.17,459.5 1059.83,459.5 1056.5,459.5C 1055.5,459.5 1054.5,459.5 1053.5,459.5C 1040.01,458.504 1026.34,458.171 1012.5,458.5C 1004.68,457.508 996.684,457.174 988.5,457.5C 988.5,454.5 988.5,451.5 988.5,448.5C 1019.67,448.831 1050.67,448.498 1081.5,447.5 Z"/></g>
<g><path style="opacity:1" fill="#835f40" d="M 1123.5,447.5 C 1130.65,446.508 1137.98,446.175 1145.5,446.5C 1161.5,446.5 1177.5,446.5 1193.5,446.5C 1205.5,446.5 1217.5,446.5 1229.5,446.5C 1233.5,446.5 1237.5,446.5 1241.5,446.5C 1250.17,446.5 1258.83,446.5 1267.5,446.5C 1280.83,446.5 1294.17,446.5 1307.5,446.5C 1335.17,447.167 1362.83,447.833 1390.5,448.5C 1382.83,448.334 1375.16,448.5 1367.5,449C 1369.41,449.408 1370.41,450.575 1370.5,452.5C 1369.95,454.135 1369.62,455.801 1369.5,457.5C 1344.59,457.828 1319.76,457.494 1295,456.5C 1294.5,457 1294,457.5 1293.5,458C 1300.83,458.5 1308.16,458.666 1315.5,458.5C 1305.17,459.167 1294.83,459.833 1284.5,460.5C 1270.5,460.5 1256.5,460.5 1242.5,460.5C 1233.17,460.5 1223.83,460.5 1214.5,460.5C 1200.17,460.5 1185.83,460.5 1171.5,460.5C 1163.98,460.825 1156.65,460.492 1149.5,459.5C 1194.17,459.667 1238.83,459.5 1283.5,459C 1251.5,458.5 1219.5,458.333 1187.5,458.5C 1187.5,457.5 1187.5,456.5 1187.5,455.5C 1190.22,456.451 1193.05,457.117 1196,457.5C 1198.3,457.4 1200.3,456.733 1202,455.5C 1202.33,455.833 1202.67,456.167 1203,456.5C 1203.36,453.456 1204.03,453.122 1205,455.5C 1206.15,453.043 1207.49,453.043 1209,455.5C 1211.41,453.224 1214.08,451.224 1217,449.5C 1218.47,449.903 1219.81,450.57 1221,451.5C 1226.95,450.877 1233.12,450.044 1239.5,449C 1239.17,448.667 1238.83,448.333 1238.5,448C 1200.17,447.5 1161.83,447.333 1123.5,447.5 Z"/></g>
<g><path style="opacity:1" fill="#815b3c" d="M 1403.5,448.5 C 1414.83,448.5 1426.17,448.5 1437.5,448.5C 1444.83,448.5 1452.17,448.5 1459.5,448.5C 1471.99,449.495 1484.66,449.829 1497.5,449.5C 1506.83,449.5 1516.17,449.5 1525.5,449.5C 1542.34,450.533 1559.34,451.533 1576.5,452.5C 1575.5,453.167 1574.5,453.833 1573.5,454.5C 1556.01,455.064 1538.68,455.731 1521.5,456.5C 1519.5,456.5 1517.5,456.5 1515.5,456.5C 1514.5,456.5 1513.5,456.5 1512.5,456.5C 1498.63,455.817 1484.63,455.151 1470.5,454.5C 1469.5,455 1468.5,455.5 1467.5,456C 1455.17,456.667 1442.83,456.667 1430.5,456C 1432.86,455.411 1433.86,453.911 1433.5,451.5C 1435.75,450.442 1441.42,449.942 1450.5,450C 1440.84,449.5 1431.17,449.334 1421.5,449.5C 1421.5,451.167 1421.5,452.833 1421.5,454.5C 1416.53,454.866 1416.87,455.366 1422.5,456C 1419.17,456.667 1415.83,456.667 1412.5,456C 1413.83,455.667 1415.17,455.333 1416.5,455C 1411.34,453.854 1406.34,453.854 1401.5,455C 1402.17,455.333 1402.83,455.667 1403.5,456C 1397.07,457.871 1390.73,457.871 1384.5,456C 1387.55,455.821 1390.55,455.321 1393.5,454.5C 1391.55,452.461 1389.39,452.461 1387,454.5C 1386.44,453.978 1385.77,453.645 1385,453.5C 1382.9,455.828 1380.73,455.994 1378.5,454C 1379.83,453 1381.17,452 1382.5,451C 1386.11,450.87 1389.61,450.703 1393,450.5C 1394,453.167 1395,453.167 1396,450.5C 1396.56,451.022 1397.23,451.355 1398,451.5C 1399.86,450.394 1401.69,449.394 1403.5,448.5 Z"/></g>
<g><path style="opacity:1" fill="#886447" d="M 266.5,447.5 C 269.305,448.319 272.305,448.819 275.5,449C 274.5,449.333 273.5,449.667 272.5,450C 273.5,452.091 272.833,453.757 270.5,455C 250.5,455.333 230.5,455.667 210.5,456C 264.828,457.141 319.161,457.641 373.5,457.5C 374.833,457.5 376.167,457.5 377.5,457.5C 385.445,458.437 393.445,458.77 401.5,458.5C 450.833,458.5 500.167,458.5 549.5,458.5C 503.003,459.499 456.336,459.832 409.5,459.5C 406.833,459.5 404.167,459.5 401.5,459.5C 367.506,458.694 333.506,458.361 299.5,458.5C 288.5,458.5 277.5,458.5 266.5,458.5C 230.339,457.291 194.006,456.625 157.5,456.5C 133.499,455.586 109.499,454.586 85.5,453.5C 85.1667,452.833 84.8333,452.167 84.5,451.5C 84.8333,451.5 85.1667,451.5 85.5,451.5C 104.684,451.063 123.684,450.063 142.5,448.5C 183.83,447.854 225.164,447.521 266.5,447.5 Z"/></g>
<g><path style="opacity:1" fill="#815a39" d="M 279.5,447.5 C 279.5,447.167 279.5,446.833 279.5,446.5C 296.5,446.5 313.5,446.5 330.5,446.5C 354.167,446.5 377.833,446.5 401.5,446.5C 403.042,447.163 404.709,447.83 406.5,448.5C 402.188,449.729 397.855,450.896 393.5,452C 391.974,453.887 389.974,454.887 387.5,455C 388.5,455.333 389.5,455.667 390.5,456C 387.901,456.769 385.401,456.602 383,455.5C 381.052,456.109 379.218,456.776 377.5,457.5C 376.167,457.5 374.833,457.5 373.5,457.5C 370.695,456.681 367.695,456.181 364.5,456C 366.554,454.873 369.054,453.706 372,452.5C 372.873,452.735 373.707,453.069 374.5,453.5C 375.354,452.478 376.354,451.645 377.5,451C 376.027,450.29 375.36,449.124 375.5,447.5C 369.824,447.334 364.157,447.501 358.5,448C 358.167,449 357.833,450 357.5,451C 354.956,452.092 352.289,452.759 349.5,453C 348.09,453.368 347.09,454.201 346.5,455.5C 328.176,456.666 309.842,456.833 291.5,456C 292.925,454.286 292.592,452.953 290.5,452C 291.416,451.626 292.25,451.126 293,450.5C 295.401,451.602 297.901,451.769 300.5,451C 298.088,448.965 298.755,447.965 302.5,448C 294.841,447.5 287.174,447.334 279.5,447.5 Z"/></g>
<g><path style="opacity:1" fill="#c2aa9a" d="M 84.5,451.5 C 84.8333,452.167 85.1667,452.833 85.5,453.5C 83.712,453.785 82.0453,453.452 80.5,452.5C 81.6888,451.571 83.0222,451.238 84.5,451.5 Z"/></g>
<g><path style="opacity:1" fill="#957a64" d="M 1576.5,452.5 C 1580.83,452.5 1585.17,452.5 1589.5,452.5C 1585.83,453.167 1582.17,453.833 1578.5,454.5C 1576.83,454.5 1575.17,454.5 1573.5,454.5C 1574.5,453.833 1575.5,453.167 1576.5,452.5 Z"/></g>
<g><path style="opacity:1" fill="#805b3e" d="M 752.5,442.5 C 758.754,446.418 764.421,451.085 769.5,456.5C 764.144,461.024 758.644,465.357 753,469.5C 747.224,465.359 741.724,460.859 736.5,456C 741.731,451.26 747.064,446.76 752.5,442.5 Z"/></g>
<g><path style="opacity:1" fill="#cabdb2" d="M 1589.5,452.5 C 1590.98,452.238 1592.31,452.571 1593.5,453.5C 1588.54,454.494 1583.54,454.827 1578.5,454.5C 1582.17,453.833 1585.83,453.167 1589.5,452.5 Z"/></g>
<g><path style="opacity:1" fill="#754f2f" d="M 1390.5,448.5 C 1394.83,448.5 1399.17,448.5 1403.5,448.5C 1401.69,449.394 1399.86,450.394 1398,451.5C 1397.23,451.355 1396.56,451.022 1396,450.5C 1395,453.167 1394,453.167 1393,450.5C 1389.61,450.703 1386.11,450.87 1382.5,451C 1381.17,452 1379.83,453 1378.5,454C 1380.73,455.994 1382.9,455.828 1385,453.5C 1385.77,453.645 1386.44,453.978 1387,454.5C 1389.39,452.461 1391.55,452.461 1393.5,454.5C 1390.55,455.321 1387.55,455.821 1384.5,456C 1390.73,457.871 1397.07,457.871 1403.5,456C 1402.83,455.667 1402.17,455.333 1401.5,455C 1406.34,453.854 1411.34,453.854 1416.5,455C 1415.17,455.333 1413.83,455.667 1412.5,456C 1415.83,456.667 1419.17,456.667 1422.5,456C 1416.87,455.366 1416.53,454.866 1421.5,454.5C 1421.5,452.833 1421.5,451.167 1421.5,449.5C 1431.17,449.334 1440.84,449.5 1450.5,450C 1441.42,449.942 1435.75,450.442 1433.5,451.5C 1433.86,453.911 1432.86,455.411 1430.5,456C 1442.83,456.667 1455.17,456.667 1467.5,456C 1468.5,455.5 1469.5,455 1470.5,454.5C 1484.63,455.151 1498.63,455.817 1512.5,456.5C 1487.99,456.452 1463.65,457.119 1439.5,458.5C 1432.5,458.5 1425.5,458.5 1418.5,458.5C 1384.17,458.5 1349.83,458.5 1315.5,458.5C 1308.16,458.666 1300.83,458.5 1293.5,458C 1294,457.5 1294.5,457 1295,456.5C 1319.76,457.494 1344.59,457.828 1369.5,457.5C 1369.62,455.801 1369.95,454.135 1370.5,452.5C 1370.41,450.575 1369.41,449.408 1367.5,449C 1375.16,448.5 1382.83,448.334 1390.5,448.5 Z"/></g>
<g><path style="opacity:1" fill="#987d67" d="M 988.5,447.5 C 1010.83,447.5 1033.17,447.5 1055.5,447.5C 1058.5,447.5 1061.5,447.5 1064.5,447.5C 1070.17,447.5 1075.83,447.5 1081.5,447.5C 1050.67,448.498 1019.67,448.831 988.5,448.5C 988.5,451.5 988.5,454.5 988.5,457.5C 996.684,457.174 1004.68,457.508 1012.5,458.5C 1004.17,458.5 995.833,458.5 987.5,458.5C 987.185,454.629 987.518,450.962 988.5,447.5 Z"/></g>
<g><path style="opacity:1" fill="#7d593d" d="M 851.5,459.5 C 855.052,461.204 858.219,463.538 861,466.5C 860.503,468.198 860.67,469.865 861.5,471.5C 859.912,474.257 857.579,475.09 854.5,474C 851.203,471.705 848.203,469.038 845.5,466C 847.706,463.963 849.706,461.797 851.5,459.5 Z"/></g>
<g><path style="opacity:1" fill="#805938" d="M 826.5,459.5 C 830.313,460.63 833.313,462.963 835.5,466.5C 832.826,469.006 829.992,471.339 827,473.5C 824.154,471.648 821.654,469.482 819.5,467C 821.348,463.987 823.682,461.487 826.5,459.5 Z"/></g>
<g><path style="opacity:1" fill="#835e3f" d="M 812.5,447.5 C 816.513,449.322 820.18,451.822 823.5,455C 820.352,458.071 817.019,460.904 813.5,463.5C 810.474,460.805 807.474,458.138 804.5,455.5C 807.494,453.173 810.161,450.506 812.5,447.5 Z"/></g>
<g><path style="opacity:1" fill="#886343" d="M 839.5,447.5 C 842.899,449.388 845.899,451.888 848.5,455C 845.984,457.683 843.317,460.183 840.5,462.5C 837.808,460.138 835.141,457.804 832.5,455.5C 834.856,452.814 837.189,450.147 839.5,447.5 Z"/></g>
<g><path style="opacity:1" fill="#835c3d" d="M 865.5,447.5 C 870.243,448.561 873.909,451.227 876.5,455.5C 873.526,458.138 870.526,460.805 867.5,463.5C 863.878,461.213 860.545,458.547 857.5,455.5C 860.494,453.173 863.161,450.506 865.5,447.5 Z"/></g>
<g><path style="opacity:1" fill="#7e5937" d="M 825.5,437.5 C 836.41,440.523 837.076,444.856 827.5,450.5C 824.418,448.628 821.751,446.295 819.5,443.5C 821.827,441.839 823.827,439.839 825.5,437.5 Z"/></g>
<g><path style="opacity:1" fill="#835c3d" d="M 852.5,437.5 C 855.806,438.291 858.473,440.124 860.5,443C 856.226,452.272 851.226,452.772 845.5,444.5C 848.161,442.506 850.494,440.173 852.5,437.5 Z"/></g>
<g><path style="opacity:1" fill="#835d3b" d="M 839.5,426.5 C 843.021,428.102 846.021,430.435 848.5,433.5C 846.466,436.369 843.966,438.702 841,440.5C 837.685,438.758 834.851,436.425 832.5,433.5C 835.161,431.506 837.494,429.173 839.5,426.5 Z"/></g>
<g><path style="opacity:1" fill="#805a3b" d="M 937.5,432.5 C 938.585,434.587 940.251,435.92 942.5,436.5C 949.77,442.596 956.937,448.93 964,455.5C 964.667,456.167 964.667,456.833 964,457.5C 963.005,458.066 962.172,458.733 961.5,459.5C 960.5,459.833 959.833,460.5 959.5,461.5C 948.549,469.943 937.716,478.61 927,487.5C 916.225,479.729 905.725,471.563 895.5,463C 893.188,463.447 891.188,464.613 889.5,466.5C 885.544,468.788 882.211,471.788 879.5,475.5C 874.573,478.42 869.906,481.754 865.5,485.5C 865.389,484.883 865.056,484.383 864.5,484C 865.471,482.796 866.471,482.296 867.5,482.5C 865.056,480.036 862.389,478.036 859.5,476.5C 867.617,469.27 875.95,462.27 884.5,455.5C 880.787,452.116 877.121,448.783 873.5,445.5C 874.583,445.539 875.583,445.873 876.5,446.5C 878.888,444.613 881.388,443.946 884,444.5C 884.852,443.429 885.685,442.429 886.5,441.5C 886.833,441.5 887.167,441.5 887.5,441.5C 889.237,443.55 891.237,445.383 893.5,447C 894.5,447.667 895.5,447.667 896.5,447C 906.421,439.459 916.587,432.292 927,425.5C 930.626,427.724 934.126,430.057 937.5,432.5 Z"/></g>
<g><path style="opacity:1" fill="#7d593b" d="M 925.5,442.5 C 931.977,446.252 937.977,450.752 943.5,456C 938.198,460.981 932.531,465.481 926.5,469.5C 921.02,465.188 915.687,460.688 910.5,456C 915.741,451.584 920.741,447.084 925.5,442.5 Z"/></g>
<g><path style="opacity:1" fill="#845e3f" d="M 839.5,469.5 C 842.773,471.434 845.773,473.768 848.5,476.5C 846.424,479.581 843.757,481.914 840.5,483.5C 837.552,481.887 834.885,479.887 832.5,477.5C 834.907,474.769 837.241,472.102 839.5,469.5 Z"/></g>

</svg>
