<?xml version="1.0" encoding="utf-8" ?><svg xmlns="http://www.w3.org/2000/svg" xmlns:xlink="http://www.w3.org/1999/xlink" width="1055" height="1491" viewBox="0 0 1055 1491"><path fill="#020202" d="M281.828 708.911C284.455 704.901 290.38 692.235 293.246 690.671C295.368 691.005 295.76 691.844 297.308 693.554C296.511 696.828 294.226 695.543 294.249 698.206C303.994 701.168 302.605 692.145 309.707 698.792C309.377 701.513 302.619 704.824 302.191 708.171C309.707 710.329 308.939 702.179 314.686 707.777C314.826 710.15 313.939 710.492 313.909 712.301C313.856 715.477 313.983 718.914 314.09 722.096C311.83 723.068 293.676 722.679 288.491 723.046C288.451 726.472 288.09 732.023 289.223 735.011C292.617 738.039 313.715 737.493 316.785 734.224C317.749 731.825 318.704 729.163 319.994 726.951C320.156 727.734 320.915 733.318 320.637 732.922C322.501 735.581 324.149 735.015 323.126 738.178C318.653 742.154 312.273 741.291 306.829 741.896C277.695 745.135 284.718 731.044 284.505 709.856C282.009 712.055 279.56 714.649 276.521 715.729C276.733 713.976 280.4 710.464 281.828 708.911Z"/><path fill="#FAF9FA" d="M301.233 699.997L301.699 700.34C301.676 702.274 298.798 706.51 297.637 708.454L287.814 709.033L287.083 708.129C287.459 706.09 290.824 702.267 292.256 700.443L301.233 699.997Z"/><path fill="#FAF9FA" d="M301.255 709.859C304.436 709.659 305.823 709.179 308.238 710.659C309.519 713.248 308.878 717.32 308.69 720.429C305.276 720.64 303.706 721.151 301.18 719.405C300.069 716.97 300.93 712.775 301.255 709.859Z"/><path fill="#FAF9FA" d="M295.607 710.322C296.156 710.789 296.113 710.619 296.216 711.542C297.105 719.481 296.983 720.768 289.287 721.441C288.303 720.212 288.355 719.686 288.149 718.137C287.2 710.973 289.835 710.647 295.607 710.322Z"/><path fill="#020202" d="M441.445 588.743C440.934 585.811 440.145 582.006 440.055 579.134C442.045 577.387 443.516 578.237 445.494 579.725C446.193 583.817 444.577 584.386 446.263 587.65C449.172 588.229 455.391 586.748 458.803 586.462C461.19 584.049 461.589 582.611 465.385 583.796L465.99 585.162C460.526 588.26 452.772 588.666 446.465 589.416L448.075 595.972C455.074 595.223 457.623 595.964 462.867 591.469C465.142 592.093 465.188 592.316 466.76 594.226L466.433 595.246C464.487 595.51 462.835 595.693 460.876 595.835L460.349 597.027L461.449 599.414C460.128 601.621 456.056 602.769 453.497 603.748C470.819 610.962 461.203 600.33 467.007 601.047C466.636 604.729 467.056 605.895 468.113 609.366C467.397 611.633 468.059 610.72 465.874 612.052C464.221 611.933 462.87 611.753 461.219 611.978L463.558 614.083C461.978 618.133 461.221 619.447 461.823 623.692L462.566 624.73C468.586 622.961 468.565 622.369 472.892 626.884C460.249 627.235 444.391 627.209 432.248 628.536C429.882 628.909 426.387 629.795 424.658 627.877C426.676 626.588 428.693 626.919 431.191 626.921C431.128 622.402 430.906 617.525 431.499 613.076L432.521 612.399C436.769 614.561 454.382 613.955 457.901 611.656L457.947 610.558C454.966 608.817 452.424 607.187 449.544 605.278C442.193 607.661 435.636 609.761 427.927 610.922L427.623 610.457C434.507 606.74 441.654 606.387 446.786 603.2C447.121 601.475 446.875 601.873 445.544 599.837C440.205 596.484 435.709 600.811 429.398 600.05L429.081 599.35C433.655 594.576 436.829 599.374 442.172 596.708C443.388 593.996 442.715 593.599 442.059 590.251L441.445 588.743Z"/><path fill="#FAF9FA" d="M452.428 614.155C454.284 614.264 454.565 614.327 456.382 614.775C458.596 617.818 457.592 622.494 457.301 626.459C455.52 626.329 454.824 626.406 453.216 625.569C451.227 622.531 452.16 618.01 452.428 614.155Z"/><path fill="#FAF9FA" d="M435.53 614.668C438.108 615.147 437.838 614.691 439.465 616.192C440.747 619.211 440.021 624.019 439.775 627.457C437.848 627.134 437.263 627.216 435.897 625.816C434.585 622.813 435.294 618.098 435.53 614.668Z"/><path fill="#FAF9FA" d="M444.013 614.792C445.796 614.883 445.877 614.799 447.582 615.525C449.129 618.433 448.435 622.789 448.324 626.389C446.493 626.338 446.58 626.344 444.859 625.71C443.201 622.767 443.902 618.459 444.013 614.792Z"/><path fill="#020202" d="M475.365 945.95C474.902 943.172 473.778 938.276 474.415 935.771C477.32 935.147 476.463 934.867 478.456 936.069C479.481 939.55 478.955 942.47 480.63 944.631C487.192 947.301 495.47 937.85 500.552 941.713L500.639 943.109C496.662 945.072 490.056 944.993 485.563 945.879C481.606 946.658 479.56 945.898 480.66 950.708C484.227 954.168 488.343 952.271 493.136 952.122C495.5 949.771 496.512 947.789 500.248 949.331L501.003 950.757L500.524 952.035L495.014 952.765C494.114 956.541 498.115 955.532 490.847 959.072C489.781 959.604 488.711 960.129 487.638 960.647C492.639 962.676 497.856 965.348 500.665 958.728L500.818 959.301C501.659 962.347 501.89 962.503 503.863 964.978C503.417 967.25 503.875 966.414 501.859 968.016C498.593 968.623 497.19 968.289 493.976 967.854L496.508 969.938C497.663 971.997 496.47 978.273 496.701 982.029L497.645 982.333C498.966 981.124 499.827 980.397 501.258 979.318C503.432 980.167 503.469 980.252 504.868 982.205L504.613 983.466C502.87 984.319 464.543 985.241 458.539 985.713L458.091 984.958C460.7 983.044 463.427 983.432 466.661 983.472C466.62 979.802 466.309 973.051 467.039 969.704C474.767 968.283 486.341 974.86 493.525 967.425C489.681 965.801 487.564 964.49 483.977 962.316C480.833 963.393 464.323 968.428 462.102 967.653L461.864 966.417C464.238 965.242 477.827 961.76 481.785 960.575C480.068 958.472 479.442 957.277 478.117 954.962L477.316 953.523C476.79 951.363 476.368 949.609 475.657 947.49C471.453 948.142 467.257 949.043 463.064 948.426L462.935 947.847C466.852 946.237 471.123 946.227 475.365 945.95Z"/><path fill="#FAF9FA" d="M487.332 971.418C489.033 971.612 489.571 971.555 491.064 972.456C492.571 975.45 491.861 979.466 491.777 983.194C489.883 983.067 489.777 983.015 488.053 982.506C486.008 979.662 487.017 975.135 487.332 971.418Z"/><path fill="#FAF9FA" d="M472.581 971.638C473.838 972.072 473.685 972.111 474.812 972.89C475.607 976.079 476.105 981.651 473.847 984.276C468.785 982.491 470.05 974.949 472.581 971.638Z"/><path fill="#FAF9FA" d="M479.375 971.386C481.072 971.661 481.059 971.72 482.622 972.485C484.055 975.708 483.356 979.761 483.194 983.525C480.684 983.145 481.392 983.579 479.539 982.149C478.286 979.224 479.065 974.7 479.375 971.386Z"/><path fill="#020202" d="M616.844 938.608L619.348 936.542C621.316 936.79 621.6 937.233 623.102 938.498C622.595 944.504 623.151 958.418 622.404 961.893C618.537 964.971 615.676 960.007 611.026 960.442C608.195 963.22 609.321 966.103 609.88 969.827L610.992 970.953L610.087 971.91C609.068 974.977 609.364 978.291 609.41 981.555L607.383 983.048L604.396 982.818C599.488 983.44 587.248 985.301 583.476 983.151L584 982.484C588.513 981.486 599.555 981.8 604.774 981.751C604.409 978.087 604.957 975.656 603.948 971.867L603.809 970.842C604.786 967.761 605.243 963.46 603.459 960.681C599.203 959.91 596.73 963.645 592.24 965.614C591.627 962.428 591.907 941.685 591.824 936.69L597.161 939.68C603.693 939.224 610.179 939.109 616.844 938.608Z"/><path fill="#FAF9FA" d="M608.648 949.114C609.442 946.266 608.819 945.224 610.056 941.683C612.657 940.124 614.183 940.636 617.582 940.528C617.466 946.667 617.399 952.806 617.381 958.945C614.68 959.153 612.148 959.759 610.038 958.374C608.832 956.143 609.235 953.011 609.276 950.319L608.648 949.114Z"/><path fill="#191919" d="M608.648 949.114C611.262 948.702 612.915 948.131 615.298 949.143C613.902 950.433 611.506 950.213 609.276 950.319L608.648 949.114Z"/><path fill="#FAF9FA" d="M596.802 941.385C600.174 941.346 601.431 940.757 603.978 942.262C604.793 944.731 604.745 946.297 604.894 948.866C602.147 949.001 599.062 949.594 596.986 948.162C595.882 945.979 596.488 943.932 596.802 941.385Z"/><path fill="#191919" d="M597.161 939.68C603.693 939.224 610.179 939.109 616.844 938.608L617.582 940.528C614.183 940.636 612.657 940.124 610.056 941.683C608.819 945.224 609.442 946.266 608.648 949.114C608.59 946.037 609.129 942.097 607.658 940.126L605.081 940.383C605.307 943.675 605.45 945.587 604.894 948.866C604.745 946.297 604.793 944.731 603.978 942.262C601.431 940.757 600.174 941.346 596.802 941.385L597.161 939.68Z"/><path fill="#FAF9FA" d="M596.568 950.902C599.205 950.708 601.216 950.246 603.539 951.34C605.498 954.171 604.801 955.619 604.238 959.473C601.084 959.682 599.678 960.309 597.083 959.124C595.888 956.883 596.432 953.62 596.568 950.902Z"/><path fill="#020202" d="M771.562 588.153C771.322 584.041 770.489 581.369 772.549 578.279L774.161 577.866C777.268 580.513 774.499 583.876 775.954 588.129L776.6 588.674C778.736 587.854 777.915 588.529 779.12 586.548C779.047 584.253 778.512 579.674 779.449 578.169C781.772 578.176 781.873 578.142 783.752 579.378C784.006 580.48 783.25 584.659 783.364 586.797L784.118 587.44C786.312 587.21 786.391 587.076 788.26 585.78C790.988 586.277 790.043 585.983 792.332 588.192C792.252 591.2 791.373 589.58 791.282 591.088C791.067 594.633 792.274 595.25 790.584 598.331C787.734 599.86 787.468 599.412 784.561 597.696L783.129 598.513C782.491 600.927 782.764 602.252 782.958 604.701L783.928 606.229C788.938 606.551 789.742 601.763 793.775 605.746L794.261 607.579C790.003 612.559 795.245 617.018 788.592 621.026C785.988 620.768 786.115 619.938 783.955 617.399C780.347 621.929 786.028 625.538 780.167 630.123L778.584 630.235C775.987 626.394 781.221 612.503 777.867 608.047L776.196 607.894C774.119 609.859 774.772 610.753 773.695 613.946C770.869 622.333 764.96 625.9 757.83 629.974C761.646 626.174 774.023 613.579 769.778 608.507C767.649 609.529 765.449 611.424 763.871 611.647C762.067 610.283 762.651 607.809 763.667 606.017C765.187 603.337 765.053 599.434 765.561 596.311C767.276 595.948 768.255 596.266 769.966 596.573C772.791 594.82 771.73 592.736 771.225 589.697L771.562 588.153Z"/><path fill="#FAF9FA" d="M782.943 607.099C784.879 607.146 785.548 607 787.228 607.997C788.62 610.275 787.853 613.337 787.562 616.217C785.528 615.959 785.328 615.999 783.564 615.044C782.16 612.829 782.768 609.914 782.943 607.099Z"/><path fill="#FAF9FA" d="M768.768 597.852C770.271 598.251 770.178 598.305 771.356 599.358C772.171 602.347 771.484 604.19 770.83 607.238C769.739 606.898 769.288 606.663 768.248 606.193C767.241 603.574 768.199 600.761 768.768 597.852Z"/><path fill="#020202" d="M540.717 1047.85C549.862 1050.49 545.682 1055.11 545.696 1064.73C550.907 1062.34 550.93 1061.75 555.46 1058.44C557.815 1058.13 557.051 1058.22 559.64 1060.2C558.453 1068.64 561.038 1084.67 552.007 1086.81C550.602 1085.26 548.864 1082.8 547.56 1081.08L547.652 1080.53C549.917 1080.54 550.607 1080.67 552.709 1079.97C553.844 1077.57 553.899 1066.22 554.031 1062.7L545.57 1066.68C545.616 1073.11 546.308 1084.06 543.356 1089.5L542.425 1089.19C540.557 1083.16 541.267 1075.08 541.466 1068.65C539.097 1069.75 536.335 1071.26 533.971 1072.47C533.873 1077.73 533.155 1088.24 535.576 1092.52C539.561 1093.6 545.004 1093.61 549.176 1093.79C562.211 1094.36 563.823 1089.17 565.531 1078.55C566.07 1082.58 565.901 1085.59 566.671 1089.76C568.101 1091.21 568.333 1091.38 569.302 1093.13L568.792 1094.54C562.979 1099.85 538.323 1099.97 531.723 1096.23C528.016 1091.74 529.286 1080.49 529.429 1074.29C526.616 1075.87 524.501 1077.51 521.398 1077.38L521.143 1076.49C523.157 1074.24 526.475 1073.51 529.412 1072.54C529.456 1067.1 527.687 1061 530.387 1057.59C532.909 1057.57 531.75 1057.24 533.925 1058.79C535.196 1061.66 534.271 1066.89 534.047 1070.43L541.498 1066.52C541.57 1060.22 541.838 1054.05 540.717 1047.85Z"/><path fill="#020202" d="M242.447 700.764C241.906 697.294 241.349 695.346 242.385 691.992L243.58 690.592C245.995 690.841 245.483 691.031 247.746 692.938C247.817 696.262 246.07 697.079 247.066 699.566C250.259 700.662 250.726 699.716 253.231 697.529C256.12 697.858 257.059 699.29 259.162 701.672L246.798 701.871C246.763 707.099 246.048 721.187 248.34 725.07C253.598 726.502 254.499 717.495 262.311 726.493L248.369 726.629C241.607 727.58 234.835 727.085 228.734 727.986L225.651 728.159L225.049 726.691C225.698 719.549 225.544 710.304 225.519 703.124C223.292 703.356 217.481 704.376 216.066 702.544C218.918 701.209 222.254 701.568 225.517 701.567C225.378 698.556 224.642 694.768 225.822 692.559C228.237 691.94 229.604 692.289 231.163 694.228C230.127 697.111 230.043 698.046 230.162 701.11C234.452 700.815 238.125 700.483 242.447 700.764Z"/><path fill="#FAF9FA" d="M230.162 701.11C234.452 700.815 238.125 700.483 242.447 700.764L241.849 702.323L241.748 725.911C237.408 725.634 234.571 725.793 230.203 726.051C230.059 722.673 230.01 721.74 230.569 718.346L230.069 716.9C229.982 714.367 230.182 712.913 230.488 710.432L229.899 708.976C229.977 706.719 230.207 704.74 230.45 702.506L230.162 701.11Z"/><path fill="#191919" d="M230.162 701.11C234.452 700.815 238.125 700.483 242.447 700.764L241.849 702.323C238.123 702.585 234.198 702.511 230.45 702.506L230.162 701.11Z"/><path fill="#191919" d="M230.069 716.9C233.68 716.728 236.174 716.158 239.379 717.597C237.212 718.978 233.162 718.544 230.569 718.346L230.069 716.9Z"/><path fill="#191919" d="M229.899 708.976C233.017 708.837 236.526 708.227 239.072 709.655C237.153 711.015 232.897 710.584 230.488 710.432L229.899 708.976Z"/><path fill="#020202" d="M489.261 700.32C489.178 697.561 488.938 694.073 489.281 691.398L490.713 690.954C493.208 691.503 493.304 691.51 495.245 693.093C494.532 695.671 494.084 696.92 494.061 699.659L495.04 700.499L497.183 700.134C498.48 698.688 499.193 697.511 501.033 697.073C503.586 698.052 502.859 697.362 504.13 699.482L503.609 700.921C501.039 702.497 497.265 701.928 494.023 701.846C494.256 709.589 493.963 717.635 493.782 725.405L494.268 726.642L493.427 726.735C487.633 727.449 482.647 727.475 476.831 727.585L476.256 727.426C472.514 728.457 462.53 729.696 459.339 727.501L460.712 726.825L460.641 728.279L461.458 726.716C465.659 726.433 468.322 726.603 472.552 726.872C472.47 719.022 472.591 710.952 472.613 703.082C469.297 703.418 466.685 703.875 463.411 703.209L462.963 702.446C465.796 701.162 469.404 701.503 472.579 701.534C472.421 698.771 471.77 693.892 472.92 691.716C481.676 691.103 475.845 696.124 477.312 700.552C480.224 701.426 485.951 700.606 489.261 700.32Z"/><path fill="#FAF9FA" d="M477.877 709.163C476.69 707.508 476.885 706.928 476.919 704.892C478.624 702.604 481.512 701.371 484.325 701.808C489.573 702.623 489.106 703.22 489.448 707.494C488.825 713.421 488.94 719.867 488.896 725.859L493.427 726.735C487.633 727.449 482.647 727.475 476.831 727.585L476.804 725.772L477.469 718.505L476.928 716.95C476.941 714.483 477.143 713.062 477.497 710.612L477.877 709.163Z"/><path fill="#191919" d="M476.804 725.772C479.116 725.807 487.394 725.623 488.896 725.859L493.427 726.735C487.633 727.449 482.647 727.475 476.831 727.585L476.804 725.772Z"/><path fill="#191919" d="M477.877 709.163C481.07 708.429 484.376 708.436 487.658 708.305L487.159 709.806C484.54 710.906 480.514 710.609 477.497 710.612L477.877 709.163Z"/><path fill="#191919" d="M476.928 716.95L481.785 716.796C483.954 716.714 484.149 716.629 486.033 717.602C484.533 718.971 479.687 718.585 477.469 718.505L476.928 716.95Z"/><path fill="#020202" d="M312.981 577.639C323.787 579.964 315.835 582.999 319.126 588.261C322.047 589.691 325.392 589.078 328.79 588.887C330.202 587.042 330.54 586.232 332.591 585.386C334.97 585.955 336.232 588.24 337.857 590.322C331.296 590.352 324.736 590.562 318.186 590.953C317.905 594.325 317.706 595.842 318.102 599.221L319.282 600.05C324.046 600.083 328.062 595.657 331.975 597.833C332.569 599.6 332.606 598.775 332.126 600.377C328.643 601.465 321.845 601.304 317.953 601.383C325.044 611.058 331.103 615.113 342.002 619.615C339.029 620.505 333.433 623.778 332.305 623.386C326.866 621.497 320.443 607.93 317.667 602.846C317.94 606.864 317.973 611.307 318.089 615.365C318.375 620.14 320.104 629.159 313.66 630.226C311.684 627.388 313.309 612.694 313.388 607.324C306.565 616.311 299.327 621.356 289.142 625.82C298.958 617.888 303.822 612.374 310.953 601.971C308.091 602.093 301.855 602.84 299.871 601.385L299.436 601.985L298.771 601.485C303.56 600.092 308.398 600.196 313.381 600.048L313.258 591.163C308.39 591.431 300.953 592.061 296.428 590.821C302.841 589.757 306.733 589.704 313.177 589.558L312.981 577.639Z"/><path fill="#020202" d="M727.509 1047.47C731.031 1048.69 731.888 1048.31 733.889 1050.87C734.124 1054.69 733.154 1056.63 733.435 1061.51L733.563 1062.64C733.41 1066.17 733.05 1071.86 733.77 1075.3L734.114 1076.72C731.982 1080.35 735.348 1093.3 731.25 1100.44C729.295 1101.68 730.301 1101.51 728.178 1101.19C726.829 1099.61 728.166 1081.54 728.197 1077.4C717.145 1077.52 720.706 1079.29 712.059 1081.7C711.111 1080.33 711.242 1061.62 711.152 1058.49L717.651 1061.94C720.727 1061.74 724.884 1061.59 727.854 1061.25C728.297 1056.19 728.1 1052.54 727.509 1047.47Z"/><path fill="#FAF9FA" d="M717.651 1061.94C720.727 1061.74 724.884 1061.59 727.854 1061.25L727.169 1062.73C728.87 1065.02 728.247 1072.58 728.187 1075.78L716.549 1076.13C716.515 1072.69 716.211 1066.85 716.994 1063.72L717.651 1061.94Z"/><path fill="#191919" d="M717.651 1061.94C720.727 1061.74 724.884 1061.59 727.854 1061.25L727.169 1062.73C723.626 1063.81 720.688 1063.66 716.994 1063.72L717.651 1061.94Z"/><path fill="#020202" d="M378.554 461.44C380.908 462.072 382.456 462.223 384.179 463.905C385.061 467.784 383.895 466.472 383.416 470.776L384.453 471.812C391.926 474.286 390.322 471.05 397.111 469.233C400.228 469.911 400.145 470.567 402.784 472.908C400.105 472.966 387.002 472.929 384.398 474.355C383.209 475.007 383.556 478.963 383.958 480.769C387.632 483.103 389.44 480.232 394.52 479.792C396.734 480.674 396.795 480.712 398.211 482.691C393.906 488.658 399.27 494.469 393.506 497.819C390.617 497.455 391.67 498.005 389.628 495.605C386.443 494.984 383.197 495.47 379.946 495.75C374.979 495.31 373.195 496.788 368.769 499.327C368.32 498.707 367.683 482.482 367.468 479.947C368.226 480.211 368.988 480.467 369.751 480.717C372.939 481.754 374.513 482.476 377.502 480.953C380.358 477.479 378.714 467.135 378.554 461.44Z"/><path fill="#FAF9FA" d="M372.823 483.522C378.687 483.416 385.105 482.989 391.008 482.698C391.019 485.593 391.464 491.411 390.081 493.526L389.628 495.605C386.443 494.984 383.197 495.47 379.946 495.75L379.927 494.271L372.797 494.125L372.823 483.522Z"/><path fill="#191919" d="M379.927 494.271C383.217 493.66 386.724 493.65 390.081 493.526L389.628 495.605C386.443 494.984 383.197 495.47 379.946 495.75L379.927 494.271Z"/><path fill="#020202" d="M804.167 692.616L808.97 696.616C804.759 699.441 796.305 707.546 790.916 711.667C798.133 711.221 804.496 712.77 809.47 708.321L811.068 708.555C815.598 713.618 810.148 744.478 801.387 742.307C800.115 738.638 799.811 738.49 797.476 735.524C799.69 735.784 800.347 735.812 802.566 735.63C807.14 732.811 808.237 717.294 805.866 712.799C803.097 713.001 802.099 718.99 801.364 721.439C798.929 729.546 794.748 733.857 787.938 738.581C785.386 740.112 783.936 740.827 781.28 742.037L780.527 741.592C782.187 740.025 783.934 739.382 785.448 738.034C790.491 733.54 800.77 719.906 797.973 713.09C794.713 712.223 794.237 717.373 792.908 720.022C790.075 725.673 784.574 730.88 779.016 733.703L778.302 734.059C782.187 730.085 787.221 724.71 788.993 719.214C790.722 713.853 786.535 713.731 785.468 711.655C792.068 705.604 795.303 703.683 801.081 696.777C797.177 696.975 786.616 699.619 785.227 696.467C790.935 693.755 798.094 698.026 804.167 692.616Z"/><path fill="#020202" d="M862.568 1073.1C862.776 1069.96 863.325 1069.66 861.91 1067.27C859.98 1066.4 858.951 1065.94 856.935 1065.32C856.532 1061.68 861.35 1054.66 862.35 1048.78C864.059 1047.72 863.267 1047.93 865.705 1048.47L866.893 1049.86C866.732 1051.78 866.477 1052.02 865.525 1053.63L866.19 1054.45C869.06 1054.55 874.02 1053.59 875.691 1054.23C874.993 1058.46 868.64 1059.39 869.109 1064.54C872.853 1064.38 871.45 1061.28 875.142 1062.4L877.331 1064.8C876.351 1067.02 874.82 1068.17 875.574 1070.82C879.226 1071.58 879.08 1069.27 882.374 1070.65L882.912 1072.75C879.882 1075.25 876.06 1071.53 875.669 1077.73C875.497 1080.46 876.299 1081.88 874.771 1084.11C873.495 1084.71 872.867 1085.2 871.522 1084.87L870.226 1083.05C867.89 1082.7 868.914 1082.47 867.009 1083.53C864.152 1090.5 871.515 1096.2 861.473 1100.58C859.207 1098.3 860.575 1097.7 856.559 1094.53C858.609 1094.39 859.753 1094.29 861.767 1093.91C862.749 1091.26 862.447 1087.78 862.431 1084.85L861.586 1083.57L856.351 1083.05C862.419 1082 862.896 1079.78 862.772 1074.56L862.568 1073.1Z"/><path fill="#FAF9FA" d="M863.383 1056.47C866.142 1056.57 865.915 1056.13 867.826 1057.44C868.079 1059.62 865.817 1062.64 864.576 1064.73C862.413 1064.75 861.894 1064.81 859.822 1064.32L859.259 1063.14C860.318 1060.63 861.826 1058.7 863.383 1056.47Z"/><path fill="#FAF9FA" d="M868.283 1073.32C872.566 1075.32 872.104 1078.23 869.978 1082.1C865.497 1080.49 865.266 1076.51 868.283 1073.32Z"/><path fill="#FAF9FA" d="M866.94 1065.36L870.428 1065.97C872.115 1068.38 871.434 1069.38 871.325 1072.92C869.723 1072.72 869.08 1072.54 867.546 1072.14C866.17 1069.84 866.796 1068.48 866.94 1065.36Z"/><path fill="#020202" d="M705.605 461.71L711.282 463.869C710.585 468.897 710.061 473.948 709.71 479.012C712.991 478.995 717.285 478.619 720.64 478.42C723.281 476.44 724.399 475.716 727.501 478.012C728.533 480.26 725.825 515.411 715.878 513.929C713.862 509.676 715.039 510.209 710.837 507.246L710.956 506.972C713.933 506.798 715.798 506.983 718.341 505.472C720.682 502.66 721.802 485.568 721.459 481.912C721.394 481.161 721.12 480.444 720.667 479.842C716.157 480.399 713.997 480.523 709.464 480.45C708.186 482.997 707.809 485.35 707.174 488.124C712.344 489.809 716.205 490.792 716.027 497.247L715.081 498.958C710.31 499.593 711.31 492.108 707.782 489.864C705.488 491.481 705.146 494.345 703.436 497.244C697.837 506.734 689.29 511.508 679.511 515.428C692.537 505.872 701.037 498.219 704.115 481.184L704.447 479.721C705.141 473.109 705.485 468.353 705.605 461.71Z"/><path fill="#FAF9FA" d="M718.134 701.373L718.025 698.511C717.859 694.89 717.25 693.441 720.762 691.749C723.304 692.75 722.323 691.956 723.845 694.168C722.759 697.162 722.518 697.897 723.086 701.036L734.551 700.333L733.966 702.081C735.295 707.095 734.26 719.448 734.719 725.425L735.277 726.896C730.9 727.59 726.416 727.422 721.978 727.401C718.117 727.953 708.986 729.521 705.795 727.54C706.828 727.85 706.864 727.847 707.944 727.895L707.758 726.848C710.097 726.313 715.357 726.501 717.975 726.512L718.273 703.02C715.049 703.41 712.388 703.957 709.228 703.206L708.871 702.459C711.848 701.047 714.761 701.384 718.134 701.373Z"/><path fill="#020202" d="M718.134 701.373L718.025 698.511C717.859 694.89 717.25 693.441 720.762 691.749C723.304 692.75 722.323 691.956 723.845 694.168C722.759 697.162 722.518 697.897 723.086 701.036L723.167 702.361C722.318 705.009 722.406 706.223 722.299 708.959L723.015 710.553C722.652 713.273 722.111 715.117 723.391 717.587L723.767 718.534L722.517 719.411C721.709 722.273 721.916 724.464 721.978 727.401C718.117 727.953 708.986 729.521 705.795 727.54C706.828 727.85 706.864 727.847 707.944 727.895L707.758 726.848C710.097 726.313 715.357 726.501 717.975 726.512L718.273 703.02C715.049 703.41 712.388 703.957 709.228 703.206L708.871 702.459C711.848 701.047 714.761 701.384 718.134 701.373Z"/><path fill="#191919" d="M721.978 727.401C721.916 724.464 721.709 722.273 722.517 719.411C722.754 722.797 722.211 722.985 724.071 725.375C726.818 726.581 731.515 725.731 734.719 725.425L735.277 726.896C730.9 727.59 726.416 727.422 721.978 727.401Z"/><path fill="#191919" d="M734.551 700.333L733.966 702.081C729.673 702.551 727.513 702.518 723.167 702.361L723.086 701.036L734.551 700.333Z"/><path fill="#191919" d="M722.299 708.959C725.65 708.924 729.153 708.383 731.971 709.617C730.226 711.002 725.369 710.628 723.015 710.553L722.299 708.959Z"/><path fill="#191919" d="M723.391 717.587C727.367 716.379 728.271 716.437 732.444 716.414L731.86 718.098C728.765 718.883 726.901 718.659 723.767 718.534L723.391 717.587Z"/><path fill="#020202" d="M640.807 509.182C640.92 498.174 641.026 477.093 640.948 465.085C641.355 464.685 641.762 464.285 642.168 463.885C645.008 464.131 643.896 463.803 646.497 465.592C648.648 470.568 642.257 479.015 647.628 484.544C653.827 485.82 653.807 476.056 662.375 485.336C656.893 485.415 651.411 485.534 645.93 485.693C645.877 493.233 645.662 501.455 645.873 508.938C649.914 508.108 652.813 508.087 656.893 508.139C659.421 505.563 658.567 505.632 661.462 505.161C664.18 506.155 663.728 505.546 665.248 507.515L664.871 509.056C662.87 510.149 661.087 509.802 658.736 509.722C652.788 509.706 620.748 511.796 618.145 511.249L617.505 510.255C619.942 509.068 624.141 509.359 626.84 509.622L627.542 509.696C627.586 498.35 627.862 488.028 626.735 476.71C629.19 477.517 631.527 477.921 633.058 479.842C632.229 490.302 632.335 498.947 632.545 509.466C636.323 508.832 636.963 508.788 640.807 509.182Z"/><path fill="#020202" d="M553.459 719.838L554.276 718.3C556.588 718.651 555.922 718.595 558.008 720.251C557.667 726.841 559.445 736.494 556.712 740.542C554.417 741.734 555.128 741.801 553.019 741.466C552.661 740.447 552.323 739.593 552.081 738.537C547.483 738.785 543.502 739.093 538.885 738.713C537.167 741.301 536.431 743.078 533.293 743.216C532.394 742.014 532.804 722.677 533.213 719.742C535.183 719.546 535.014 719.876 537.131 720.868C542.208 720.843 548.572 720.838 553.459 719.838Z"/><path fill="#FAF9FA" d="M537.742 722.572L552.608 722.162C552.658 726.228 553.012 733.73 552.19 737.43L552.081 738.537C547.483 738.785 543.502 739.093 538.885 738.713L538.478 737.516C536.934 735.807 536.727 733.235 537.898 731.28C541.908 729.479 545.623 730.817 550.535 729.601L550.618 728.33C546.905 726.864 543.793 730.355 538.535 727.938C537.108 725.664 537.61 725.595 537.742 722.572Z"/><path fill="#191919" d="M538.478 737.516L552.19 737.43L552.081 738.537C547.483 738.785 543.502 739.093 538.885 738.713L538.478 737.516Z"/><path fill="#020202" d="M419.32 1047.36L425.267 1049.49C425.071 1052.94 424.592 1056.26 425.694 1059.5L426.852 1060.65C434.318 1059.36 434.901 1053.85 441.283 1061.31L424.983 1061.49C424.79 1063.91 423.955 1071.5 424.4 1073.4L425.184 1074.63C431.481 1086.13 436.883 1089.54 448.963 1094.29C443.608 1095.57 442.476 1095.88 438.241 1099.04C428.89 1091.38 426.982 1084.3 424.191 1073C421.987 1082.47 419.923 1090.09 410.631 1095.17C408.387 1096.4 400.835 1100.29 398.592 1099.69C404.569 1095.99 421.614 1083.14 417.919 1074.66C415.078 1075.24 403.009 1076.31 400.458 1075.44L400.377 1074.33C403.035 1073.66 414.842 1073.23 418.502 1073.01C420.223 1070.85 419.787 1064.85 419.66 1062.09C415.516 1062.33 410.994 1062.96 407.073 1061.92L407.895 1061.27L407.987 1062.04L408.601 1061.11C411.809 1060.48 416.459 1060.67 419.854 1060.69C419.754 1056.24 419.717 1051.78 419.32 1047.36Z"/><path fill="#020202" d="M636.831 577.516C646.646 580.47 641.018 580.196 641.464 587.283C641.635 590.004 644.549 596.415 645.716 599.253C649.054 595.364 651.272 589.781 654.451 588.438C657.126 589.232 657.294 590.093 659.41 592.286C654.047 595.334 651.139 596.986 646.204 600.801C652.778 609.862 656.214 612.161 665.818 617.494C661.151 618.481 659.973 618.826 655.847 621.153C654.113 619.228 652.318 616.971 650.643 614.961C645.866 605.97 644.358 601.281 641.492 591.763C641.335 601.161 644.621 624.6 636.618 629.729L635.492 629.416C633.37 622.891 631.442 624.639 630.272 621.764C633.458 621.613 634.43 622.318 636.3 620.645C637.665 609.315 636.283 589.834 636.831 577.516Z"/><path fill="#020202" d="M701.29 577.395C705.014 578.55 705.371 577.998 707.481 580.52C707.761 582.896 707.287 583.556 706.406 585.886C707.97 594.213 716.699 586.663 720.417 586.516C722.611 587.807 722.901 588.344 724.604 590.321C718.613 590.532 712.965 590.739 706.984 591.231C706.866 594.263 706.145 599.408 707.795 601.539C711.795 600.732 716.55 600.198 720.574 600.995C722.395 598.56 722.407 597.67 724.92 596.817C727.179 597.82 728.115 599.472 729.673 601.461C726.122 602.248 711.849 602.685 707.886 602.484C706.274 604.614 706.47 618.492 706.299 622.458L716.458 621.692C716.475 617.009 716.397 611.973 716.593 607.323C718.386 606.638 719.282 607.442 721.508 608.232C724.006 611.095 721.928 624.517 718.785 627.907L717.316 628.419C715.502 626.82 716.741 624.497 716.205 624.12C714.247 622.742 699.908 624.095 698.011 624.209L701.363 622.46C701.456 615.916 701.621 609.374 701.859 602.833L698.14 602.39L699.813 601.796L701.345 600.945C702.48 597.631 702.027 594.595 701.355 591.184L701.117 589.806C702.134 586.411 701.618 581.019 701.29 577.395Z"/><path fill="#020202" d="M365.421 1063.58C365.543 1060.49 365.394 1050.03 366.251 1048.44C368.847 1048.54 368.95 1048.52 371.17 1049.77C373.27 1054.39 368.151 1059.38 371.137 1063.02C375.269 1062.73 376.809 1060.67 380.345 1061.38C381.908 1062.75 382.878 1063.69 382.697 1066.29C382.137 1074.31 380.175 1086.83 378.053 1094.36C375.541 1096.48 374.569 1098.01 371.693 1098.6C369.682 1096.62 369.891 1094.42 366.274 1091.01C368.247 1090 372.695 1093.7 374.181 1088.05C376.102 1080.76 376.737 1072.95 376.918 1065.51C374.823 1063.8 373.212 1063.99 370.761 1065.05C369.773 1066.94 368.913 1072.77 368.339 1075.2C365.071 1089 357.823 1095.16 345.292 1100.41C358.794 1089.54 363.644 1083.91 365.641 1065.96L365.734 1065.07L365.421 1063.58Z"/><path fill="#020202" d="M247.636 486.222C247.473 482.671 246.292 476.67 250.538 475.628C253.726 479.124 252.52 481.67 251.941 486.245L252.374 487.671C258.128 496.022 266.914 500.45 275.909 504.316C271.62 505.977 270.71 506.323 267.292 509.274C259.746 503.881 256.581 497.197 252.22 489.249C252.457 494.575 255.095 513.435 248.183 514.753C245.819 512.007 247.517 498.376 247.598 492.866C239.64 502.001 233.443 507.542 222.452 512.874C232.148 504.414 237.491 499.604 243.987 488.129C240.64 488.333 237.291 488.512 233.942 488.667L234.446 488.588L233.185 487.638C232.425 487.803 231.945 487.835 231.279 488.265L231.44 487.759C236.93 486.17 241.952 486.34 247.636 486.222Z"/><path fill="#020202" d="M424.382 705.359C429.452 704.226 426.86 702.352 430.173 702.83C432.027 704.365 432.314 704.061 432.771 705.913C432.034 706.062 428.801 706.492 428.654 707.106C427.887 710.314 427.378 722.044 428.68 724.381C430.015 723.787 430.734 723.372 431.986 722.654C434.195 723.588 433.277 722.87 434.642 725.101L433.893 726.183C431.587 726.355 429.77 726.058 428.284 727.309C428.046 730.786 428.056 734.97 426.566 738.017L425.099 739.064L423.814 738.821C422.943 735.809 423.62 730.073 423.84 726.678L416.407 727.888C413.61 728.491 411.052 729.201 408.201 729.182L407.269 727.871L407.81 726.697C409.478 726.619 410.515 726.794 411.73 725.707C412.521 722.13 412.482 712.092 411.891 708.177C411.764 707.339 410.209 707.102 409.111 706.715L409.207 705.963C414.295 705.321 419.262 705.396 424.382 705.359Z"/><path fill="#FAF9FA" d="M415.406 725.699C416.013 721.562 415.635 720.531 420.429 719.445C422.831 720.22 422.13 719.651 423.665 721.436C423.689 722.838 423.771 724.007 423.532 725.397L423.84 726.678L416.407 727.888L415.406 725.699Z"/><path fill="#191919" d="M415.406 725.699C418.22 725.663 420.711 725.635 423.532 725.397L423.84 726.678L416.407 727.888L415.406 725.699Z"/><path fill="#FAF9FA" d="M409.207 705.963C414.295 705.321 419.262 705.396 424.382 705.359L424.03 706.744C423.567 710.558 423.785 711.298 419.538 712.273C417.57 711.81 417.059 711.862 415.751 710.307L415.304 706.971C414.601 706.366 410.71 706.19 409.207 705.963Z"/><path fill="#191919" d="M409.207 705.963C414.295 705.321 419.262 705.396 424.382 705.359L424.03 706.744C421.46 706.825 417.78 707.044 415.304 706.971C414.601 706.366 410.71 706.19 409.207 705.963Z"/><path fill="#FAF9FA" d="M415.692 713.557C418.405 713.332 419.904 713.078 422.625 713.52C424.303 715.507 423.743 715.13 423.841 718.454C421.169 718.596 419.866 718.732 417.166 718.384C415.358 716.531 415.948 716.913 415.692 713.557Z"/><path fill="#020202" d="M312.505 463.392C314.947 464.251 319.173 465.337 320.447 467.342C316.145 475.514 321.469 488.524 326.669 495.391C331.26 501.454 335.695 504.406 342.347 507.851C337.808 509.35 336.736 509.646 333.149 512.641C323.191 502.891 319.973 493.798 318.034 480.567L317.713 480.53C316.686 482.939 315.976 485.741 315.373 488.311C312.125 502.145 300.156 510.012 288.158 515.65C308.841 497.347 312.787 492.177 312.505 463.392Z"/><path fill="#020202" d="M374.333 578.987C374.673 579.11 375.01 579.239 375.344 579.375C388.701 584.807 381.796 611.239 409.219 622.655C402.877 623.356 402.178 623.637 396.84 626.912C386.314 615.939 386.557 609.193 383.3 595.391L382.295 594.773C378.835 612.651 370.192 620.29 354.988 628.981C357.497 625.377 363.583 621.628 367.893 614.895C370.992 610.052 380.724 592.332 379.761 586.771C377.214 584.057 376.399 585.432 372.562 583.079C372.306 580.892 372.573 581.403 374.333 578.987Z"/><path fill="#020202" d="M246.99 1048.1C248.694 1049.79 250.3 1052.07 251.771 1054.01C248.005 1054.28 240.722 1053.86 238.838 1056.84C239.13 1060.35 238.921 1061.97 238.584 1065.46L239.19 1067.09C239.089 1069.7 238.483 1074.85 239.853 1076.83L240.001 1078.13C237.048 1085.91 244.05 1096.16 233.007 1100.13C230.436 1099.73 231.332 1097.98 229.75 1095.68C229.75 1095.68 226.234 1093.34 225.958 1093.15C228.204 1091.7 230.085 1093.8 233.273 1091.94C234.367 1089.09 234.232 1081.82 234.322 1078.4C227.776 1078.77 220.969 1079.19 214.391 1080.06C213.151 1080.22 212.663 1079.39 211.999 1078.67L212.631 1077.8L234.134 1076.68L234.007 1067.32C230.165 1067.39 222.909 1068.55 219.41 1067.36L219.666 1066.84L218.885 1067.15L220.452 1067.42L220.75 1066.61C224.53 1065.78 229.988 1065.8 233.979 1065.67L233.65 1056.48C228.058 1057.4 223.874 1058.22 218.152 1058.15C218.901 1057.2 223.172 1056.33 224.543 1056.02C233.532 1053.98 238.772 1052.7 246.99 1048.1Z"/><path fill="#020202" d="M169.281 1047.37L177.28 1050.61C175.513 1052.64 173.605 1054.33 173.092 1056.86C174.383 1058.03 173.654 1057.7 175.314 1057.95L173.22 1059.32C170.615 1060.58 169.153 1064.57 167.338 1067.62L168.124 1069.19C168.188 1072.39 167.644 1072.61 169.34 1074.8C174.78 1076.88 177.466 1073.18 180.362 1075.09L180.098 1076.24C176.186 1077.24 170.302 1076.74 168.304 1078.09C167.5 1080.48 167.826 1079.93 168.49 1082.81C169.913 1084.38 169.043 1083.9 171.254 1084.17C174.29 1083.39 176.669 1082.49 179.412 1084C177.602 1085.65 175.725 1085.41 173.19 1085.3C172.538 1085.27 171.886 1085.23 171.234 1085.19L169.015 1085.77C166.241 1089.81 171.187 1098.89 163.841 1100.99C163.027 1100.06 162.58 1099.06 162.76 1097.76C163.953 1089.16 163.847 1080.79 163.862 1072.11C160.317 1076.62 154.199 1082.42 149.093 1084.97C157.841 1076.06 160.905 1070.74 166.291 1059.83C161.631 1060.01 156.29 1060.61 151.837 1059.6L152.871 1058.95L152.741 1059.75L153.159 1059.8L153.745 1058.75C157.274 1058.07 163.19 1058.13 166.954 1058.04C168.506 1054.52 168.754 1051.18 169.281 1047.37Z"/><path fill="#020202" d="M553.771 690.326C555.395 691.633 557.702 694.221 559.211 695.81C555.163 695.96 548.557 695.229 547.062 699.333C547.498 701.787 547.458 702.326 548.702 704.408L548.983 705.708C553.812 711.537 565.121 715.01 572.311 716.417C568.551 717.945 563.378 721.605 561.236 720.446C556.125 717.679 550.688 710.396 547.634 705.734C547.724 710.614 548.4 715.554 545.169 719.357C542.102 717.717 543.073 711.709 543.211 708.614C534.589 717.559 530.088 720.2 518.984 725.883C526.587 719.732 533.536 714.259 539.485 706.351L540.671 704.653L542.165 704.363C543.692 702.443 543.533 700.455 542.589 698.383C540.285 697.66 534.654 699.071 531.666 699.475L530.878 698.824C530.557 699.13 551.087 691.693 553.771 690.326Z"/><path fill="#020202" d="M574.527 485.421C568.538 491.396 560.206 498.526 552.57 502.4C563.885 492.206 566.402 489.496 573.65 475.976C575.482 475.012 576.512 474.367 576.691 472.187C572.975 469.523 561.454 471.54 555.064 470.415C556.962 469.029 574.214 468.674 577.529 468.526C580.493 469.349 579.998 468.724 581.538 470.708L582.31 472.19C582.175 474.852 579.279 477.996 577.627 481.124L579.711 483.168C579.336 487.831 579.186 510.078 578.045 512.135C575.931 513.614 576.37 513.813 574.257 513.832C573.074 512.064 574.471 489.736 574.527 485.421Z"/><path fill="#020202" d="M854.509 705.887C857.444 706.698 858.216 706.403 860.114 708.399C860.613 710.503 859.317 717.851 859.108 721.222C862.752 717.313 864.732 714.81 867.9 710.489C869.523 711.352 871.796 713.102 873.353 714.224C868.283 718.08 864.453 720.869 859.069 724.307C858.832 729.786 857.709 733.578 862.954 736.724C866.825 737.591 871.57 735.848 873.326 732.144C873.999 730.282 874.13 730.037 875.141 728.324C876.263 729.916 875.894 732.802 876.139 733.098C877.189 734.366 878.493 735.007 879.268 737.182C874.22 741.93 859.279 744.348 855.703 737.025C854.246 734.042 854.659 730.278 854.718 727.032C851.015 729.016 846.976 730.785 843.143 732.544C846.797 729.386 850.665 727.26 854.795 724.8C854.789 718.495 854.694 712.19 854.509 705.887Z"/><path fill="#020202" d="M294.28 1048.42L299.195 1050.14C301.903 1053.77 300.089 1062.4 300.213 1068.78C308.602 1068.91 305.618 1068.1 312.809 1065.65C315.763 1066.4 316.066 1067.56 318.486 1070.06L300.362 1070.32C299.96 1076.67 299.817 1088.37 300.75 1094.59L300.829 1095.73C292.928 1095.65 284.566 1096.9 276.293 1096.95L275.721 1096.25C278.628 1093.96 290.251 1094.35 294.651 1094.21C293.687 1080.68 295.342 1064.1 294.28 1048.42Z"/><path fill="#020202" d="M166.043 738.953C184.553 723.364 176.106 706.25 179.98 701.488C182.468 702.007 182.776 702.096 184.763 703.668C184.841 705.434 184.822 704.488 184.249 705.7C183.129 708.07 182.783 714.862 183.064 717.315C184.33 717.964 185.181 718.327 186.286 719.258C185.419 724.344 183.403 731.57 186.064 735.74C194.533 740.264 195.347 730.426 197.133 725.234C196.992 727.799 196.445 732.433 197.289 734.57L199.566 736.751C199.607 743.103 184.7 742.38 181.91 739.572C179.926 737.575 181.192 727.173 181.474 723.848C177.927 731.824 175.204 735.166 167.763 739.945L166.043 738.953Z"/><path fill="#020202" d="M848.999 1071.25C850.518 1072.14 850.759 1072.12 851.718 1073.62C851.775 1078.88 853.414 1097.28 846.589 1097.88C842.905 1093.21 844.656 1094.28 847.152 1089.07L846.67 1087.75C844.417 1086.39 842.387 1086.89 839.646 1087.07C839.751 1091.51 840.616 1096.83 837.802 1100.03L836.645 1099.9C834.364 1095.12 835.705 1078.04 836.54 1072.48C841.325 1073.06 844.892 1074.21 848.999 1071.25Z"/><path fill="#FAF9FA" d="M840.287 1074.92C842.118 1074.76 843.169 1074.76 845.011 1074.8C848.736 1077.52 848.695 1082.77 844.701 1085.43C841.997 1085.69 841.51 1085.47 838.892 1084.65C840.535 1079.17 841.939 1082.43 846.06 1080.06C844.745 1079.01 842.573 1079.28 840.559 1079.18L839.705 1078.03L840.287 1074.92Z"/><path fill="#020202" d="M602.661 1047.46C605.348 1048.32 606.905 1048.53 608.806 1050.58C608.838 1053.46 606.266 1053.13 606.083 1057.28L606.407 1058.01L605.931 1059C603.69 1060.55 602.042 1064.53 600.683 1067.17L601.142 1069.3C600.834 1072.35 600.323 1072.42 601.613 1074.82C606.34 1077.05 610.368 1073.42 613.018 1074.67L613.32 1076.1C610.043 1078.79 605.121 1073.97 600.834 1078.93C600.621 1081.34 600.63 1081.47 601.179 1083.8L601.367 1084.95C599.198 1091.38 603.393 1094.66 598.394 1100.22L597.216 1100.24C595.112 1096.9 596.666 1077.57 596.782 1072.24C590.604 1078.97 586.662 1082.5 578.495 1086.43C585.313 1080.57 598.008 1068.56 599.028 1059.3L599.098 1057.87C601.449 1055.61 602.032 1050.83 602.661 1047.46Z"/><path fill="#020202" d="M188.058 694.676L189.092 692.844C191.47 692.649 190.551 692.541 192.837 693.812C193.59 695.089 194.093 695.202 193.725 696.614C191.634 704.63 194.008 712.965 192.583 720.967C192.426 721.847 189.236 723.153 188.427 723.433L187.439 722.874C188.05 716.952 188.405 702.387 187.629 696.451L175.385 696.981C175.408 697.411 175.423 697.843 175.43 698.274C175.574 705.413 177.124 721.057 172.811 725.484L171.622 725.446C170.169 722.915 170.834 697.203 171.334 693.83C172.883 693.194 174.292 694.271 176.272 695.097C180.868 695.249 183.456 695.095 188.058 694.676Z"/><path fill="#020202" d="M585.898 580.01C588.463 580.9 590.73 581.305 592.271 583.385C591.862 591.322 589.85 605.7 585.979 612.734C590.185 614.821 597.678 617.722 597.706 623.22C596.748 625.397 596.724 625.471 594.684 626.776C589.83 626.108 591.77 617.69 586.489 614.702C584.029 614.937 584.721 615.026 582.519 617.639C579.396 620.868 567.235 628.889 563.326 627.746C566.639 625.646 574.029 621.123 576.547 618.598C586.331 608.789 585.805 592.735 585.898 580.01Z"/><path fill="#020202" d="M754.395 591.148C754.262 588.124 753.18 579.609 755.577 578.119C757.439 578.649 758.646 578.729 759.759 580.261C758.584 585.06 758.558 586.042 758.772 591.016L759.062 591.968C758.586 594.791 758.409 595.582 758.653 598.411C760.189 599.935 759.895 599.477 762.367 600.056L762.569 600.642L758.688 603.778C758.816 609.388 760.953 627.933 753.555 628.637C751.764 624.635 750.004 626.159 748.608 622.604C750.468 622.367 751.891 622.117 753.727 621.732C754.931 619.598 754.426 610.363 754.4 607.291C752.585 608.971 751.239 610.468 749.014 611.525C746.773 610.526 746.855 609.587 745.463 607.047L754.313 603.186C754.405 599.531 754.531 596.909 754.093 593.267C751.81 591.869 750.324 594.228 746.723 593.076L746.526 591.932C748.458 590.845 752.009 591.155 754.395 591.148Z"/><path fill="#020202" d="M658.147 1062.38C658.81 1062.57 662.099 1063.46 662.513 1063.99C668.429 1071.57 654.243 1092.37 670.862 1091.18C673.409 1090.99 676.751 1090.22 679.014 1089.8C679.607 1085.81 679.92 1080.32 680.277 1076.2C681.105 1079.76 681.813 1083.75 682.538 1087.37C683.669 1088.28 684.582 1089.23 685.607 1090.25C686.137 1098.69 662.653 1097.01 660.295 1094.24C656.948 1090.33 658.281 1067.69 658.147 1062.38Z"/><path fill="#020202" d="M843.687 699.254L843.733 698.591C843.913 695.719 843.849 694.788 843.558 691.954L844.223 691.042C846.61 691.759 847.432 691.782 849.127 693.467C848.685 695.186 848.149 697.227 849.105 698.851L849.132 700.29C848.673 703.151 848.596 703.973 847.419 706.593L847.719 707.85L848.582 707.714L848.948 709.68C848.167 710.74 844.412 715.719 844.274 716.597C843.338 722.56 847.701 741.675 840.291 743.085C838.136 740.889 840.481 725.866 840.505 721.419C835.849 725.416 831.309 729.517 826.219 732.938C833.493 724.86 845.41 712.628 843.859 700.669C840.242 701.122 836.852 701.825 833.327 700.99L833.05 700.253C836 698.939 840.334 699.256 843.687 699.254Z"/><path fill="#FAF9FA" d="M743.73 1060.92C746.66 1057.96 745.403 1058.43 748.718 1057.93C754.027 1060.41 751.005 1075.81 748.323 1078.31C745.847 1078.96 746.758 1079.11 744.816 1078.05L744.225 1076.64L734.114 1076.72L733.77 1075.3C733.05 1071.86 733.41 1066.17 733.563 1062.64L733.435 1061.51C737.779 1060.91 739.351 1060.8 743.73 1060.92Z"/><path fill="#020202" d="M743.73 1060.92C746.66 1057.96 745.403 1058.43 748.718 1057.93C754.027 1060.41 751.005 1075.81 748.323 1078.31C745.847 1078.96 746.758 1079.11 744.816 1078.05L744.225 1076.64L744.495 1074.59C745.019 1071.63 745.018 1065.34 744.315 1062.38L743.73 1060.92Z"/><path fill="#191919" d="M744.495 1074.59L744.225 1076.64L734.114 1076.72L733.77 1075.3C737.249 1075.26 741.002 1074.88 744.495 1074.59Z"/><path fill="#191919" d="M733.435 1061.51C737.779 1060.91 739.351 1060.8 743.73 1060.92L744.315 1062.38C740.85 1062.47 736.991 1062.65 733.563 1062.64L733.435 1061.51Z"/><path fill="#020202" d="M438.337 692.473C440.17 693.787 440.552 694.13 442.033 695.831C440.42 706.594 444.074 738.802 436.075 742.891L434.764 742.378C433.466 739.419 432.084 738.595 431.208 736.763C433.021 736.413 433.714 736.212 435.48 735.637L436.163 733.993L436.142 696.638C431.637 696.959 420.298 699.028 417.613 696.931C419.241 692.69 430.905 699.275 438.337 692.473Z"/><path fill="#020202" d="M777.215 479.216L781.246 480.777C786.299 486.089 777.398 496.6 798.865 509.072C795.209 510.266 792.228 512.611 789.312 512.319C784.455 508.353 782.682 497.727 781.604 491.647L781.049 491.025C780.231 492.782 780.117 495.57 779.326 497.629C775.746 506.947 768.332 511.62 759.905 515.723C761.825 514.07 763.725 512.394 765.605 510.696C776.238 501.036 776.558 492.651 777.215 479.216Z"/><path fill="#020202" d="M161.12 699.457C164.051 697.362 163.278 697.237 166.33 697.251C169.909 700.442 164.964 711.971 163.834 716.61C167.119 720.359 169.473 723.203 167.033 728.321L165.621 728.883C162.717 727.088 162.777 725.809 161.872 722.115C157.077 730.932 154.234 734.371 146.173 740.406C147.79 737.125 149.444 735.436 151.526 732.475C154.985 727.557 156.973 723.128 159.167 717.596C156.243 712.91 153.164 708.124 150.427 703.342C154.263 706.58 157.096 708.935 160.559 712.632C161.31 708.737 162.196 704.559 162.789 700.666L161.12 699.457Z"/><path fill="#020202" d="M557.072 581.631C557.964 581.921 563.15 583.402 563.069 584.612C562.414 594.349 562.282 604.097 562.137 613.849C566.944 609.387 572.756 603.62 578.095 600.134C575.08 604.203 572.116 607.445 568.751 611.192C564.048 616.402 560.7 619.956 556.815 625.808C555.425 623.439 553.768 620.976 552.27 618.653C554.019 617.879 556.016 616.751 557.729 615.843C557.7 605.207 558.087 591.993 557.072 581.631Z"/><path fill="#020202" d="M734.551 700.333L734.545 691.958C736.767 690.126 738.211 691.173 740.479 692.564C741.595 695.662 737.225 697.584 740.529 700.087C747.419 700.415 744.252 693.039 751.968 701.653L739.61 701.827C739.572 706.357 739.099 721.455 740.128 724.924L741.362 726.083C745.556 725.552 746.301 721.77 749.755 721.92C751.352 723.439 752.962 724.94 754.498 726.519C748.727 726.563 740.843 726.43 735.277 726.896L734.719 725.425C734.26 719.448 735.295 707.095 733.966 702.081L734.551 700.333Z"/><path fill="#020202" d="M438.301 471.014C437.977 467.952 437.106 465.633 438.449 463.534C440.754 463.127 442.187 463.385 443.723 465.386C442.633 468.215 442.175 467.939 442.884 470.172C445.042 470.656 449.689 470.309 452.133 470.218C455.03 467.047 450.567 462.911 456.079 462.166C459.402 464.411 458.181 466.267 458.044 469.818C460.604 470.682 464.076 467.659 466.2 466.129C467.475 467.262 469.43 468.681 469.866 470.186C466.846 471.951 462.267 470.565 458.954 471.055C456.987 471.346 456.788 475.92 454.058 477.671L452.805 477.128L452.248 475.388L451.68 473.427L450.573 476.638C448.376 475.076 448.28 474.497 445.809 474.244L444.171 475.906L442.753 474.793C441.701 477.396 442.406 476.513 440.073 478.116L438.593 477.857C438.303 476.1 438.206 475.093 438.105 473.316C436.54 472.284 430.119 472.68 426.172 471.731C431.205 470.845 433.129 470.898 438.301 471.014Z"/><path fill="#FAF9FA" d="M442.753 474.793L443.24 472.921C446.309 471.347 448.446 470.975 451.732 472.033L452.68 473.172L452.248 475.388L451.68 473.427L450.573 476.638C448.376 475.076 448.28 474.497 445.809 474.244L444.171 475.906L442.753 474.793Z"/><path fill="#020202" d="M664.66 701.209C664.546 698.141 663.826 692.467 665.72 690.373C667.665 690.945 668.301 690.969 669.751 692.42C668.923 696.291 668.961 697.35 669.02 701.32C676.333 697.614 673.466 691.127 679.388 692.481L681.153 694.272C679.278 696.812 675.213 698.668 672.408 700.52C675.304 700.483 679.735 700.287 682.501 700.438C685.425 698.67 684.392 698.683 686.997 699.249C688.709 700.842 689.947 702.119 691.525 703.846C688.198 704.906 686.264 705.529 683.068 706.997L681.694 706.557C682.052 704.614 682.337 704.065 683.116 702.224C677.931 701.854 674.16 701.941 668.992 702.375C662.383 702.556 658.615 702.68 652.052 703.719C651.105 706.96 649.334 713.236 644.776 712.197C644.093 708.833 648.165 702.356 649.943 699.073L650.52 699.208C652.239 702.845 660.643 701.269 664.66 701.209Z"/><path fill="#020202" d="M248.117 588.626C251.815 590.713 250.437 590.002 252.588 592.78C259.076 601.16 265.492 602.15 274.727 604.261L274.142 606.199C271.225 607.199 270.717 607.737 268.624 609.841L268.04 610.435C259.676 604.977 257.116 602.978 252.014 594.724L250.764 594.55C242.682 603.913 234.754 610.713 222.651 614.105C234.336 607.106 241.25 600.239 248.117 588.626Z"/><path fill="#020202" d="M542.4 945.605C546.096 947.678 545.833 948.012 548.117 951.359C552.947 958.436 561.604 958.909 569.114 961.742C566.172 963.742 564.931 964.76 562.3 967.134C553.311 961.109 551.998 959.907 545.103 951.326C535.927 961.298 529.813 966.773 517.067 971.612C528.617 963.436 535.232 957.967 542.4 945.605Z"/><path fill="#020202" d="M347.457 1058.57C356.437 1057.8 353.687 1052.67 359.256 1057.1L358.165 1055.84L357.629 1058.72L358.614 1058.27C355.984 1059.73 354.027 1059.39 350.98 1059.34L350.93 1080.46C352.985 1079.71 356.469 1078.06 358.35 1078.58C355.61 1081.27 344.149 1087.01 339.373 1090.84L335.073 1084.65C338.826 1083.75 342.71 1082.88 346.433 1081.91C346.333 1074.63 346.098 1067.33 346.593 1060.06L347.457 1058.57Z"/><path fill="#020202" d="M549.73 934.52C552.272 935.211 553.828 935.417 555.928 937.018C555.604 938.379 554.803 939.969 554.22 941.275L554.694 942.319C557.052 942.251 557.723 942.294 559.783 941.203L562.745 939.62C565.012 939.877 566.321 941.713 568.064 943.436C564.819 943.419 561.816 943.363 558.57 943.714C553.176 944.297 553.218 949.007 550.03 950.184L548.989 949.669L548.933 945.154C547.016 943.436 544.906 942.757 542.425 943.954C538.688 945.756 538.966 946.999 537.927 950.65L536.094 950.594C534.307 948.894 534.884 949.328 534.581 946.103C532.263 943.508 527.03 946.772 521.81 945.104L521.763 944.176C524.871 943.212 531.067 943.404 534.561 943.366C534.414 941.09 534.139 938.238 534.269 936.013L535.817 935.532C538.124 936.139 538.358 936.096 540.011 937.695C539.775 938.29 539.549 938.888 539.333 939.489C538.447 942.033 538.36 941.127 539.277 943.083C542.118 944.151 542.753 941.277 543.873 941.441C545.421 941.667 545.974 943.279 548.949 942.641C550.042 941.124 549.715 936.675 549.73 934.52Z"/><path fill="#020202" d="M444.171 475.906L445.809 474.244C448.28 474.497 448.376 475.076 450.573 476.638L450.074 478.294C454.751 485.877 470.396 486.443 473.095 488.623C471.91 491.3 469.704 490.587 466.26 494.444C457.243 488.944 455.445 486.984 448.537 479.247C442.668 485.616 437.515 491.065 429.698 495.257L428.395 493.959C433.84 489.394 441.197 482.31 444.171 475.906Z"/><path fill="#020202" d="M400.974 698.154C403.716 698.989 404.175 699.001 406.408 700.677C406.38 705.018 405.851 710.677 405.748 715.369C405.583 722.82 406.151 734.24 405.121 741.245C403.491 742.233 403.428 742.452 401.489 742.477C399.04 739.81 401.229 705.07 400.974 698.154Z"/><path fill="#020202" d="M797.131 1055.7C797.057 1053.17 796.961 1050.63 796.974 1048.09C799.457 1047.31 798.815 1047.1 800.912 1047.73C804.484 1052.72 799.591 1054.53 804.594 1055.44C808.661 1054.35 809.586 1052.4 812.346 1052.69C813.405 1053.74 814.187 1054.25 814.415 1055.71C808.933 1057.49 804.63 1054.84 801.542 1058.8L801.801 1060.71L802.996 1061.39C806.261 1060.29 808.032 1058.98 810.644 1059.99L811.787 1061.37L811.251 1062.46C807.344 1062.87 805.479 1061.95 802.235 1063.64C801.102 1065.13 801.223 1066.14 801.066 1068.01C799.979 1068.96 799.989 1069.13 798.624 1069.47C792.95 1069.93 790.487 1070.32 784.832 1069.15C787.932 1067.82 793.644 1069.32 796.941 1067.08C797.683 1064.78 797.782 1065.6 797.064 1063.63C794.22 1062.13 791.998 1064.64 788.692 1063.49L788.373 1062.56C791.263 1062.18 795.183 1061.95 797.17 1060.06L797.057 1056.83C793.847 1057.22 790.996 1057.79 787.842 1057.09L787.417 1056.37C790.527 1055.06 793.665 1055.56 797.131 1055.7Z"/><path fill="#020202" d="M841.658 1047.18C844.428 1047.98 845.892 1047.94 847.1 1050.1L845.801 1052.64C845.914 1054.91 845.529 1053.91 847.147 1055.68L848.365 1055.6C849.542 1054.36 850.268 1053.32 851.863 1052.79C853.654 1054.02 853.777 1054.05 854.647 1055.97C852.582 1057.45 850.32 1055.94 846.527 1057.29L845.899 1059.9C847.719 1062.08 850.809 1057.13 853.891 1061.68C850.804 1064.18 849.634 1061.3 846.251 1063.7C846.018 1066.08 845.724 1065.41 846.836 1067L848.946 1067.28C851.256 1065.48 852.228 1064.26 855.13 1065.09L856.007 1066.97L855.325 1068.22C850.037 1068.67 836.315 1069.94 831.367 1069.48C834.566 1068.56 839.922 1067.43 841.745 1064.77L841.399 1063.35C839.446 1063.55 837.882 1063.63 835.919 1063.68L835.192 1062.98L836.003 1061.79C837.845 1061.71 839.397 1061.6 841.231 1061.41L842.527 1059.72C841.653 1056.4 835.765 1059.07 833.504 1057.12C834.876 1055.91 838.982 1055.97 841.557 1055.48C842.141 1053.9 841.734 1049.13 841.658 1047.18Z"/><path fill="#020202" d="M744.593 493.465C747.312 489.24 748.834 486.682 751.085 482.28C752.921 478.691 756.317 464.851 757.839 463.582C760.325 464.045 760.6 464.159 762.478 465.847L762.681 467.155C760.671 469.48 760.552 470.51 759.949 473.42L760.289 474.573C763.394 474.058 766.262 472.603 768.698 473.192L771.322 476.182C769.809 477.625 764.152 483.388 762.886 484.107L761.55 483.861L760.969 482.738C758.678 481.427 759.174 481.881 756.028 482.061L754.483 481.768C750.882 486.627 749.021 489.178 744.593 493.465Z"/><path fill="#FAF9FA" d="M754.483 481.768C756.525 478.335 758.972 474.429 763.412 477.067C764.49 480.118 763.756 480.497 762.886 484.107L761.55 483.861L760.969 482.738C758.678 481.427 759.174 481.881 756.028 482.061L754.483 481.768Z"/><path fill="#020202" d="M672.943 705.624L673.954 703.623C676.303 703.568 675.266 703.219 677.119 704.846C678.885 709.623 678.82 711.608 674.759 714.603C672.997 714.674 672.851 714.629 671.32 713.992C668.358 712.758 660.946 715.085 657.344 715.946C656.067 712.146 654.881 709.4 656.122 705.468L657.29 704.492C659.301 705.157 659.265 705.138 660.996 706.359C664.981 706.159 668.963 705.914 672.943 705.624Z"/><path fill="#FAF9FA" d="M660.996 706.359C664.981 706.159 668.963 705.914 672.943 705.624L672.542 707.344C672.598 710.196 673.042 709.684 671.671 711.477C667.048 713.235 666.214 713.521 661.355 711.956C659.967 710.064 660.367 710.803 660.768 707.72L660.996 706.359Z"/><path fill="#191919" d="M660.996 706.359C664.981 706.159 668.963 705.914 672.943 705.624L672.542 707.344C668.913 707.619 664.466 707.62 660.768 707.72L660.996 706.359Z"/><path fill="#020202" d="M181.106 1066.97C184.391 1064.35 182.911 1064.85 186.68 1064.65C189.049 1066 188.249 1065.3 189.6 1067.94C189.142 1069.76 189.317 1069.26 188.602 1070.84C185.504 1077.68 191.324 1093.09 185.436 1099.97C182.223 1100.39 180.065 1096.98 178.112 1094.56C179.497 1094.41 181.746 1094.51 182.095 1093.64C184.066 1088.69 183.091 1073.42 183.001 1068.24L181.106 1066.97Z"/><path fill="#020202" d="M239.468 586.086C239.395 583.481 239.346 581.226 239.444 578.601C242.107 577.761 241.133 577.655 243.455 578.492C245.491 582.227 243.667 584.51 245.349 586.15C247.203 585.318 247.343 585.178 248.998 583.946L249.844 584.348C252.194 585.453 252.302 585.701 254.465 585.138C256.084 581.426 253.875 580.143 255.563 577.927C258.632 577.56 257.746 577.206 259.932 578.545C260.771 581.139 260.587 581.579 260.343 584.38C263.87 585.693 264.108 584.838 267.288 582.551C270.541 582.431 271.34 583.886 273.514 586.199C253.817 585.884 262.129 590.748 255.522 593.259L254.41 592.821C254.612 590.254 255.127 589.328 254.05 587.335C251.54 586.427 248.076 587.058 245.272 587.302C243.118 589.885 246.335 592.529 241.269 593.284C239.59 591.367 240.368 590.235 239.79 587.41L239.468 586.086Z"/><path fill="#020202" d="M614.522 1066.91C617.441 1064.22 616.135 1064.68 619.425 1064.62C623.778 1066.97 621.408 1072.79 621.137 1077.45C620.819 1082.9 622.375 1099.21 615.878 1100.81C614.608 1098.97 612.734 1096.22 611.198 1094.66C614.49 1093.7 614.024 1094.38 615.846 1092.18C616.217 1089.26 616.13 1071.59 615.824 1068.4L614.522 1066.91Z"/><path fill="#020202" d="M247.497 609.736C247.5 607.046 246.968 603.07 248.349 601.415C250.713 601.183 250.867 601.382 253.091 602.473L253.638 603.285C252.495 605.258 252.255 605.667 252.346 607.944L253.039 609.199C256.686 609.688 256.77 609.507 259.244 606.784L261.278 606.767L262.501 608.875C259.693 611.144 256.021 610.755 252.282 610.886C252.444 616.313 253.27 623.876 250.428 628.432C246.772 630.202 244.563 626.848 241.705 624.301C244.15 622.238 247.22 625.933 247.485 620.544C247.632 617.549 247.527 614.342 247.664 611.483L247.497 609.736Z"/><path fill="#020202" d="M445.721 494.827C445.474 491.932 445.111 489.637 445.594 486.765C446.241 486.101 446.56 485.616 447.324 485.218L449.149 485.518C450.723 488.149 450.661 491.04 450.704 494.146C455.889 493.914 457.257 489.511 461.136 492.157L461.608 494.375C459.213 495.553 453.085 495.652 450.088 495.852C450.18 501.453 450.75 508.545 447.845 513.393C444.411 515.591 442.839 511.451 439.658 509.25C441.061 508.921 444.342 508.431 444.78 507.444C445.884 504.961 445.382 498.854 445.261 496.208L445.721 494.827Z"/><path fill="#020202" d="M541.041 967.007C541.613 964.409 541.664 963.232 541.513 960.574C542.867 958.354 541.944 958.999 544.149 958.286C545.549 958.718 546.329 958.776 547.181 959.947C546.373 962.684 545.711 963.351 546.284 965.902C548.069 966.696 548.983 966.242 550.911 965.794C551.98 964.67 552.473 963.985 553.889 963.304C555.768 964.489 556.122 964.537 556.954 966.471C554.854 968.48 549.524 967.681 546.092 968.115C546.216 974.004 546.889 981.161 543.882 986.267C541.743 987.739 542.904 987.457 540.261 987.043L539.027 984.761C538.339 983.491 537.334 982.407 536.387 981.317C537.491 980.389 538.994 980.536 540.53 980.437C542.099 978.292 541.894 970.668 541.243 968.148L541.041 967.007Z"/><path fill="#020202" d="M756.028 482.061C759.174 481.881 758.678 481.427 760.969 482.738L761.55 483.861C760.255 486.813 760.756 499.206 760.797 503.049C764.318 500.44 767.52 498.52 771.243 496.258C767.821 500.361 760.833 509.405 756.48 511.788L755.252 511.388C754.34 507.498 756.395 499.988 756.534 495.487C756.684 490.637 756.478 486.896 756.028 482.061Z"/><path fill="#020202" d="M631.174 591.456C632.457 592.174 634.22 593.892 635.386 594.923C634.537 597.029 633.668 599.127 632.778 601.217C629.499 608.879 622.185 621.253 614.185 624.47C614.092 623.164 615.789 621.703 616.873 620.41C623.806 611.511 625.943 606.667 629.092 596.043C624.371 596.571 621.369 597.28 616.949 595.436C623.131 594.232 626.697 596.634 631.174 591.456Z"/><path fill="#020202" d="M793.152 1087.81C793.406 1089.48 793.565 1091.17 793.63 1092.87C793.749 1095.63 793.726 1100.34 789.97 1100.46C787.542 1097.14 789.281 1078.17 789.435 1072.79L790.698 1072.42L792.776 1073.66L793.32 1075.38L793.623 1079.73C796.781 1079.49 799.646 1078.94 802.523 1080.04C800.778 1081.68 796.586 1081.32 794.074 1081.26C793.709 1083.3 793.487 1084.26 793.5 1086.32C796.566 1086.15 799.683 1085.65 802.457 1086.71C800.795 1088.43 795.563 1087.89 793.152 1087.81Z"/><path fill="#020202" d="M902.483 1085.94C906.042 1084.55 910.06 1086.24 911.559 1089.75C913.059 1093.26 911.499 1097.33 908.035 1098.94C905.694 1100.03 902.946 1099.76 900.865 1098.23C898.784 1096.7 897.699 1094.16 898.036 1091.61C898.373 1089.05 900.077 1086.87 902.483 1085.94Z"/><path fill="#FAF9FA" d="M902.875 1088.77C904.303 1088 906.035 1088.07 907.402 1088.94C908.769 1089.81 909.556 1091.36 909.459 1092.97C909.361 1094.59 908.395 1096.03 906.933 1096.73C904.744 1097.79 902.117 1096.9 901.015 1094.73C899.913 1092.57 900.739 1089.92 902.875 1088.77Z"/><path fill="#020202" d="M900.923 728.364C904.466 727.236 908.277 729.046 909.642 732.505C911.006 735.964 909.456 739.889 906.096 741.482C903.712 742.613 900.896 742.322 898.794 740.727C896.692 739.132 895.654 736.499 896.102 733.899C896.549 731.298 898.408 729.164 900.923 728.364Z"/><path fill="#FAF9FA" d="M901.79 730.694C904.152 730.027 906.62 731.342 907.383 733.676C908.146 736.009 906.931 738.528 904.631 739.385C903.057 739.971 901.289 739.648 900.024 738.544C898.759 737.44 898.2 735.731 898.569 734.093C898.937 732.455 900.174 731.15 901.79 730.694Z"/><path fill="#020202" d="M819.074 500.395C821.478 499.306 824.289 499.655 826.353 501.301C828.416 502.946 829.383 505.609 828.855 508.194C828.328 510.78 826.396 512.851 823.853 513.557C820.319 514.538 816.625 512.634 815.373 509.187C814.122 505.74 815.734 501.91 819.074 500.395Z"/><path fill="#FAF9FA" d="M820.072 502.754C821.569 502.036 823.337 502.187 824.691 503.147C826.045 504.107 826.772 505.726 826.59 507.375C826.407 509.025 825.345 510.446 823.814 511.088C821.527 512.046 818.894 511.006 817.879 508.745C816.864 506.484 817.837 503.825 820.072 502.754Z"/><path fill="#020202" d="M805.11 1073.18L807.061 1071.42C809.239 1071.7 809.139 1071.63 810.761 1073.09C810.435 1080.15 812.97 1098.92 805.571 1100.41C802.721 1099.11 801.549 1097.79 801.263 1094.66C803.044 1092.94 806.761 1096.76 805.825 1085.95C805.554 1082.83 806.468 1077.21 805.157 1074.35L805.11 1073.18Z"/><path fill="#020202" d="M783.774 703.784C784.676 706.935 777.328 725.261 776.965 729.965C776.527 735.627 779.598 736.985 775.366 741.212C772.849 741.418 773.631 741.345 771.007 739.769C771.165 739.142 771.315 738.513 771.458 737.883C772.381 733.696 772.343 733.396 769.894 729.654L769.599 729.21C770.51 728.803 773.396 727.54 773.803 726.742C776.678 721.103 780.031 708.465 783.774 703.784Z"/><path fill="#020202" d="M783.848 1061.22C784.575 1063.92 783.078 1068.21 782.498 1070.96C781.326 1074.79 780.948 1079.19 779.939 1082.97C778.689 1087.64 780.148 1094.49 777.144 1097.76C774.61 1098.13 775.266 1097.93 772.511 1096.72C774.828 1089.81 773.7 1091.87 771.583 1086.57C774.833 1084.89 774.989 1085.2 776.184 1081.84C778.631 1074.94 781.038 1067.98 783.848 1061.22Z"/><path fill="#020202" d="M247.235 471.956C247.432 468.36 247.116 467.11 246.208 463.691C247.625 462.405 248.118 462.503 250.006 462.273C253.785 464.187 253.242 467.069 253.577 471.013C259.209 471.456 266.025 469.092 272.07 470.808L272.352 473.341C269.28 475.591 266.45 477.362 263.315 479.484C262.928 476.008 264.783 474.729 263.573 472.879C258.332 472.277 252.77 473.236 247.446 473.249L247.235 471.956Z"/><path fill="#744514" d="M488.215 844.612C497.484 844.522 515.797 844.922 524.304 844.19L522.806 846.365C513.154 847.645 477.073 846.278 466.672 845.978C462.066 846.102 457.515 845.984 452.912 845.898C455.728 843.849 482.33 844.531 488.215 844.612Z"/><path fill="#A17E61" d="M466.672 845.978C462.066 846.102 457.515 845.984 452.912 845.898C455.728 843.849 482.33 844.531 488.215 844.612C480.689 846.152 473.619 844.678 466.672 845.978Z"/><path fill="#744514" d="M524.304 844.19C526.359 842.299 525.5 842.53 527.811 842.403C529.246 843.282 530.197 843.87 531.529 844.893C537.323 843.907 557.662 844.48 564.68 844.6L570.502 845.684L564.161 846.626C557.516 846.715 550.869 846.708 544.224 846.604C537.438 846.447 532.555 847.263 525.92 848.345C525.92 848.345 523.112 846.559 522.806 846.365L524.304 844.19Z"/><path fill="#86592B" d="M524.304 844.19C526.359 842.299 525.5 842.53 527.811 842.403C529.246 843.282 530.197 843.87 531.529 844.893C532.795 846.114 541.23 846.038 544.224 846.604C537.438 846.447 532.555 847.263 525.92 848.345C525.92 848.345 523.112 846.559 522.806 846.365L524.304 844.19Z"/><path fill="#020202" d="M438.081 954.866C440.882 956.086 443.439 958.922 445.688 961.098C432.131 960.984 415.188 960.98 401.832 962.488L399.09 962.759C396.971 961.731 397.513 962.503 396.886 960.794C400.364 959.493 423.969 960.128 429.516 959.231C434.644 958.401 434.465 959.374 438.081 954.866Z"/><path fill="#020202" d="M664.497 721.779C666.151 722.172 669.273 722.813 669.534 724.588C670.973 734.35 658.254 740.492 651.512 742.87C649.343 743.476 648.862 743.547 646.61 743.619L646.523 743.017C658.438 738.396 663.405 735.292 664.497 721.779Z"/><path fill="#020202" d="M858.245 698.798C858.343 695.392 857.869 692.999 859.847 690.562C862.42 690.599 861.518 690.486 863.958 692.123C863.935 694.085 863.481 694.888 862.783 696.692L863.242 697.844C866.224 698.341 867.633 697.933 870.109 696.115C870.513 695.816 870.911 695.508 871.302 695.191C874.083 695.634 874.913 697.044 877.004 699.382C873.486 699.424 866.249 699.261 863.147 700.064C862.14 702.421 861.455 704.906 859.462 706.289C857.206 705.178 857.951 702.369 858.131 700.116L858.245 698.798Z"/><path fill="#020202" d="M692.949 624.614C691.027 626.737 690.322 628.1 687.483 628.011C686.594 625.609 687.557 612.333 687.817 609.141L688.913 608.684C691.382 609.167 691.687 609.112 693.667 610.537C691.431 613.454 692.315 619.272 692.812 622.798L692.949 624.614Z"/><path fill="#020202" d="M776.101 462.431C778.157 463.187 779.416 463.417 780.909 464.927C781.348 468.348 779.207 471.886 777.731 475.414L777.578 476.987C773.604 482.83 771.538 485.786 766.201 490.469C773.358 479.624 774.625 475.285 776.101 462.431Z"/><path fill="#020202" d="M345.055 729.263C357.035 729.861 351.7 740.977 343.833 745.522C342.383 743.873 346.602 741.751 347.793 738.929C345.013 735.854 344.766 738.416 342.718 734.483C342.889 731.805 343.356 731.528 345.055 729.263Z"/><path fill="#020202" d="M590.947 729.087C602.691 730.992 597.35 741.281 589.553 745.589L589.339 744.454C590.602 742.973 591.763 741.699 593.104 740.288C593.528 736.201 591.179 739.548 588.57 734.488C588.746 731.714 589.205 731.44 590.947 729.087Z"/><path fill="#020202" d="M584.96 484.926C593.93 487.105 599.598 489.331 598.555 499.422C597.315 499.799 596.665 499.704 595.367 499.701C593.011 498.013 590.06 490.119 584.96 484.926Z"/><path fill="#020202" d="M229.017 728.459L234.845 733.673C229.086 735.674 223.916 740.107 216.414 742.799C215.928 743.004 214.383 743.4 213.788 743.57C213.824 743.459 226.755 731.473 229.017 728.459Z"/><path fill="#020202" d="M653.622 715.704C655.121 716.309 657.476 717.742 658.948 718.576L658.098 720.118C658.072 724.581 659.233 734.111 654.302 735.344L653.414 734.529C652.711 730.725 653.545 720.66 653.622 715.704Z"/><path fill="#020202" d="M653.609 973.174C663.582 975.751 658.994 987.332 650.152 989.398C652.134 986.235 654.493 985.781 655.076 982.701C652.22 981.207 650.701 980.82 650.055 977.67C650.943 975.125 651.427 974.974 653.609 973.174Z"/><path fill="#020202" d="M674.29 717.533C676.603 715.557 675.526 715.941 678.301 715.868C682.238 718.976 680.513 727.899 678.323 731.817L676.811 732.886L675.482 732.487C674.218 728.222 675.73 723.607 674.537 719.281L674.29 717.533Z"/><path fill="#020202" d="M721.204 728.462C722.725 729.636 725.006 732.053 726.443 733.484C719.067 737.324 715.918 739.969 707.872 742.921L706.052 743.565L705.972 742.945C712.642 737.501 715.807 735.268 721.204 728.462Z"/><path fill="#020202" d="M816.968 616.315C820.031 616.234 821.161 616.182 823.332 618.522C825.946 624.766 821.033 629.436 815.965 632.163C815.944 628.446 819.013 629.488 820.092 625.407C817.735 624.151 816.361 623.761 815.17 621.428C815.029 618.931 815.54 618.558 816.968 616.315Z"/><path fill="#020202" d="M680.059 1065.18C687.423 1067.08 695.443 1071.14 691.309 1080.08L689.504 1080.23C687.975 1079.34 681.381 1067.54 680.059 1065.18Z"/><path fill="#020202" d="M494.923 500.543C497.7 500.752 498.454 500.635 500.428 502.513C503.766 508.172 499.467 513.324 494.761 516.327C494.417 516.079 494.129 515.572 493.854 515.185C495.116 513.788 496.327 512.348 497.487 510.866C497.226 507.328 495.545 510.33 492.779 505.929C492.866 503.198 493.3 502.917 494.923 500.543Z"/><path fill="#020202" d="M475.627 728.658C477.855 730.42 478.653 730.459 479.523 732.855C477.075 737.832 467.785 740.797 462.512 742.951L460.782 743.572L460.505 743.069C467.098 737.682 470.277 735.378 475.627 728.658Z"/><path fill="#020202" d="M496.42 615.641C499.604 616.747 501.204 618.155 501.366 621.759C501.511 624.426 500.518 627.03 498.633 628.923C496.857 630.684 495.234 631.42 492.827 631.397C494.031 630.052 495.254 628.725 496.494 627.414C497.482 621.901 493.128 624.06 491.962 620.27C493.518 617.841 494.137 617.454 496.42 615.641Z"/><path fill="#020202" d="M467.829 1086.73C479.21 1087.96 474.509 1098.79 466.688 1102.57C466.613 1100.74 468.876 1098.87 470.441 1096.82C469.913 1093.27 468.271 1096.14 465.725 1091.96C465.838 1089.26 466.2 1089.05 467.829 1086.73Z"/><path fill="#020202" d="M486.803 730.268C494.789 731.659 502.316 731.957 501.036 741.908C499.839 742.224 499.289 742.211 498.072 742.313C495.865 740.944 491.64 734.372 487.585 730.924L486.803 730.268Z"/><path fill="#020202" d="M732.567 730.419C740.491 731.728 748.532 732.869 745.537 742.58C742.56 742.76 734.463 733.001 732.567 730.419Z"/><path fill="#020202" d="M240.266 730.299C247.704 731.914 255.462 732.166 254.178 741.805L251.581 742.309C250.343 741.701 243.119 732.876 240.266 730.299Z"/><path fill="#020202" d="M650.848 1069.08C653.703 1074.47 651.828 1085.36 644.741 1087.36C641.25 1081 648.459 1080.52 650.848 1069.08Z"/><path fill="#020202" d="M235.818 474.034C235.002 478.594 234.411 481.299 229.613 482.824L228.72 482.143C228.07 478.195 230.683 470.567 234.652 469.955L236.092 472.73L235.818 474.034Z"/><path fill="#020202" d="M662.585 1050.66C669.87 1052.45 675.944 1054.13 672.321 1062.66L670.434 1062.59C667.989 1061.07 665.713 1054.82 662.585 1050.66Z"/><path fill="#020202" d="M238.185 613.361C240.429 614.583 240.814 615.011 241.512 617.007C240.22 621.115 233.244 624.613 229.402 627L227.843 627.16C228.028 625.827 235.744 617.982 238.185 613.361Z"/><path fill="#020202" d="M550.066 971.872C557.468 971.904 563.126 973.995 561.834 982.419L559.17 982.684C556.97 981.557 554.773 976.039 550.066 971.872Z"/><path fill="#020202" d="M393.227 501.296C400.548 502.36 405.259 504.293 404.289 512.524L401.53 513.068C397.81 510.786 398.612 506.551 393.227 501.296Z"/><path fill="#020202" d="M668.974 732.462C672.746 733.265 680.778 734.467 683.234 737.22C684.788 738.962 684.135 740.482 683.868 742.58C679.33 743.942 676.475 737.038 672.523 735.296C671.55 734.867 669.788 733.242 668.974 732.462Z"/><path fill="#020202" d="M365.797 501.389C367.592 507.755 367.335 513.38 360.034 515.255C355.818 509.176 363.106 507.787 365.797 501.389Z"/><path fill="#020202" d="M453.109 499.345C459.979 500.433 466.59 500.798 465.507 509.604L463.04 510.205C459.762 508.749 459.302 503.682 453.109 499.345Z"/><path fill="#020202" d="M436.094 498.251C438.275 499.213 438.921 499.851 439.647 501.963C438.095 506.006 432.379 508.768 428.529 511.106L426.826 511.641C426.799 510.679 434.121 502.411 436.094 498.251Z"/><path fill="#020202" d="M256.2 615.059C263.907 615.906 268.064 616.336 267.585 625.03L264.655 625.503C261.399 623.763 261.834 619.524 256.2 615.059Z"/><path fill="#191919" d="M621.805 981.197C624.206 978.335 623.449 978.341 626.51 977.545C628.516 978.466 629.928 979.992 630.506 982.213C624.363 983.207 614.191 982.731 607.383 983.048L609.41 981.555C612.779 981.382 618.645 980.907 621.805 981.197Z"/><path fill="#020202" d="M621.805 981.197C624.206 978.335 623.449 978.341 626.51 977.545C628.516 978.466 629.928 979.992 630.506 982.213C627.08 981.825 625.378 982.335 621.805 981.197Z"/><path fill="#020202" d="M313.247 1094.07L317.751 1088.91C319.441 1090.5 321.928 1092.32 322.255 1094.44L321.101 1095.04C314.384 1095.46 307.564 1095.56 300.829 1095.73L300.75 1094.59C304.312 1093.71 309.61 1093.46 313.247 1094.07Z"/><path fill="#191919" d="M300.75 1094.59C304.312 1093.71 309.61 1093.46 313.247 1094.07L313.027 1094.55C315.722 1094.65 318.414 1094.82 321.101 1095.04C314.384 1095.46 307.564 1095.56 300.829 1095.73L300.75 1094.59Z"/><path fill="#191919" d="M188.054 1057.06C190.153 1054.53 189.731 1054.19 192.524 1053.47C194.421 1054.05 196.202 1056.12 197.078 1057.86C192.895 1058.87 178.295 1059.13 173.22 1059.32L175.314 1057.95C179.503 1057.01 183.761 1057.12 188.054 1057.06Z"/><path fill="#020202" d="M188.054 1057.06C190.153 1054.53 189.731 1054.19 192.524 1053.47C194.421 1054.05 196.202 1056.12 197.078 1057.86C193.794 1057.59 190.872 1058.4 188.054 1057.06Z"/><path fill="#191919" d="M620.51 1057.39C622.635 1055.11 622.77 1054.21 625.456 1053.51C627.708 1054.57 628.741 1056.07 630.411 1057.94C626.917 1058.59 609.681 1059.27 605.931 1059L606.407 1058.01C610.504 1057.3 616.42 1056.83 620.51 1057.39Z"/><path fill="#020202" d="M620.51 1057.39C622.635 1055.11 622.77 1054.21 625.456 1053.51C627.708 1054.57 628.741 1056.07 630.411 1057.94L620.51 1057.39Z"/><path fill="#020202" d="M533.095 970.114C541.009 976.153 529.325 980.439 523.954 983.592L523.525 983.816L522.709 983.547C527.217 978.261 529.814 976.423 533.095 970.114Z"/><path fill="#020202" d="M567.802 581.462C574.772 583.338 577.98 585.084 576.229 592.888C570.847 593.86 571.037 586.859 568.253 582.206L567.802 581.462Z"/><path fill="#191919" d="M590.866 468.492C593.111 466.025 592.938 465.376 595.786 464.741C598.058 465.859 598.904 467.2 600.538 469.137C595.076 470.06 585.649 469.101 581.538 470.708C579.998 468.724 580.493 469.349 577.529 468.526C581.644 468.314 586.904 467.825 590.866 468.492Z"/><path fill="#020202" d="M590.866 468.492C593.111 466.025 592.938 465.376 595.786 464.741C598.058 465.859 598.904 467.2 600.538 469.137C596.933 469.075 594.435 469.088 590.866 468.492Z"/><path fill="#020202" d="M691.939 465.511C698.788 467.335 700.853 469.612 700.176 476.515C698.564 476.774 698.377 476.589 696.831 476.142C695.353 474.454 693.191 468.251 691.939 465.511Z"/><path fill="#A17E61" d="M564.68 844.6C575.607 844.475 588.963 844.233 599.758 845.48C590.392 846.344 573.573 846.855 564.161 846.626L570.502 845.684L564.68 844.6Z"/><path fill="#191919" d="M436.916 1072.24L440.75 1067.91L446.471 1073.5C440.164 1073.76 431.237 1073.89 425.184 1074.63L424.4 1073.4C429.229 1072.51 431.963 1072.42 436.916 1072.24Z"/><path fill="#020202" d="M787.221 474.949C789.885 472.675 788.839 472.867 791.604 472.96C793.87 474.596 794.729 475.57 796.636 477.542C793.014 478.989 791.619 479.555 788.303 481.589L786.935 481.404C787.203 479.075 787.402 478.793 788.357 476.604L787.221 474.949Z"/><path fill="#020202" d="M372.947 501.745C378.646 504.133 379.392 505.747 378.912 511.729C376.24 512.514 376.713 512.824 374.488 512.152C373.252 510.22 373.558 505.307 372.947 501.745Z"/><path fill="#020202" d="M382.44 500.566C389.807 503.151 391.427 504.475 389.822 512.042C388.441 512.144 388.469 512.076 387.08 511.896C384.919 509.649 386.116 505.77 382.44 500.566Z"/><path fill="#020202" d="M772.53 692.305C778.722 693.479 782.15 694.6 781.758 701.527C780.408 701.822 780.129 701.766 778.727 701.829C776.559 700.32 774.002 694.934 772.53 692.305Z"/><path fill="#020202" d="M769.973 1062.39C772.996 1063.25 775.059 1063.4 777.22 1065.64C778.241 1068.89 778.019 1067.61 777.242 1071.5L775.024 1071.64C771.547 1069.91 771.289 1066.28 769.973 1062.39Z"/><path fill="#020202" d="M406.376 690.584C409.388 691.53 411.888 692.17 413.783 694.664C414.791 697.305 414.474 697.824 413.936 700.746C409.08 701.52 408.496 694.749 406.376 690.584Z"/><path fill="#191919" d="M801.066 1068.01C802.665 1067.9 806.045 1067.69 807.44 1067.27C814.171 1065.24 813.787 1062.23 819.229 1068.67C813.007 1068.86 804.525 1069.53 798.624 1069.47C799.989 1069.13 799.979 1068.96 801.066 1068.01Z"/><path fill="#191919" d="M251.941 486.245C257.764 485.367 261.129 486.314 266.048 482.492C268.34 483.43 269.428 485.012 271.122 486.875C265.661 487.001 257.551 486.957 252.374 487.671L251.941 486.245Z"/><path fill="#020202" d="M768.272 705.103C771.349 705.664 773.412 705.998 775.661 708.114C777.023 710.499 776.885 710.993 776.58 713.763C774.766 714.295 774.763 714.197 772.974 713.92C771.235 712.44 769.826 707.998 768.272 705.103Z"/><path fill="#020202" d="M773.557 1050.36C780.077 1050.62 783.409 1052.09 782.935 1058.99L780.555 1059.26C778.611 1057.92 776.598 1053.77 774.105 1050.97L773.557 1050.36Z"/><path fill="#191919" d="M238.584 1065.46C244.599 1065.18 246.124 1066.48 249.902 1061.58C252.112 1061.84 252.216 1062.6 254.097 1064.44L254.388 1065.51C251.6 1066.98 242.904 1066.93 239.19 1067.09L238.584 1065.46Z"/><path fill="#191919" d="M493.782 725.405C498.217 725.626 498.967 724.968 502.651 722.526C505.859 722.485 506.644 724.115 508.809 726.525L494.268 726.642L493.782 725.405Z"/><path fill="#191919" d="M701.859 602.833C697.439 603.416 685.143 604.113 680.978 603.773L680.922 603.008C684.692 601.04 695.573 601.213 699.813 601.796L698.14 602.39L701.859 602.833Z"/><path fill="#020202" d="M251.947 1076.27C253.814 1073.92 253.7 1073.3 256.255 1072.35C258.734 1073.11 260.426 1075.46 262.284 1077.47L252.57 1077.49L251.947 1076.27Z"/><path fill="#020202" d="M482.448 936.063C485.369 936.281 486.861 936.181 489.52 937.448C491.612 939.968 490.995 938.778 491.57 942.352L488.494 942.761C486.06 941.6 485.438 939.283 482.926 936.572L482.448 936.063Z"/><path fill="#020202" d="M449.034 579.106C454.857 579.552 456.746 579.193 457.983 585.416C452.343 586.013 452.095 583.493 449.034 579.106Z"/><path fill="#191919" d="M771.562 588.153L771.225 589.697C766.52 590.857 763.744 592.336 759.062 591.968L758.772 591.016C762.177 587.919 766.663 588.464 771.562 588.153Z"/><path fill="#191919" d="M539.485 706.351C535.015 706.123 524.812 707.595 523.076 706.206L523.336 705.523C525.596 704.142 537.212 704.639 540.671 704.653L539.485 706.351Z"/><path fill="#191919" d="M704.115 481.184C698.192 481.102 691.835 482.425 687.113 482.021L686.524 481.261C689.671 479.484 700.137 479.831 704.447 479.721L704.115 481.184Z"/><path fill="#191919" d="M478.117 954.962C473.289 955.776 468.605 956.92 463.793 956.118L464.773 955.368L464.994 956.172L465.343 956.169L465.677 955.098C468.709 954.222 473.985 953.859 477.316 953.523L478.117 954.962Z"/><path fill="#191919" d="M599.028 1059.3C594.48 1059.75 589.977 1060.43 585.464 1059.75L584.729 1059.13C585.3 1059.66 584.97 1059.49 585.714 1059.65L586.656 1058.49C589.691 1057.82 595.959 1057.88 599.098 1057.87L599.028 1059.3Z"/><path fill="#191919" d="M658.948 718.576C663.975 718.403 669.255 717.915 674.29 717.533L674.537 719.281C669.208 719.646 663.4 720.177 658.098 720.118L658.948 718.576Z"/><path fill="#191919" d="M701.355 591.184C696.953 591.503 691.498 592.305 687.392 590.97L688.145 590.368L687.44 590.872L688.005 591.09C690.842 589.042 697.196 589.763 701.117 589.806L701.355 591.184Z"/><path fill="#020202" d="M558.527 703.527C561.258 700.697 561.333 699.518 565.402 701.57L566.04 702.866C564.715 705.609 561.975 704.906 559.119 704.861L558.527 703.527Z"/><path fill="#191919" d="M225.651 728.159C221.844 728.488 217.497 729.323 214.057 728.097L214.265 727.292C217.562 726.068 221.459 726.541 225.049 726.691L225.651 728.159Z"/><path fill="#191919" d="M441.445 588.743L442.059 590.251C438.129 590.755 432.465 591.818 428.755 590.686C426.53 590.387 441.105 588.767 441.445 588.743Z"/><path fill="#191919" d="M239.79 587.41C235.631 587.89 232.609 588.496 228.528 587.622L228.111 586.956C231.278 585.67 235.924 586.046 239.468 586.086L239.79 587.41Z"/><path fill="#020202" d="M617.096 969.978C619.664 967.173 619.728 966.284 623.446 968.232L624.001 969.704L623.266 970.926C621.068 971.42 620.509 971.414 618.232 971.457L617.096 969.978Z"/><path fill="#191919" d="M601.142 1069.3L600.683 1067.17C605.733 1067.27 609.487 1067.23 614.522 1066.91L615.824 1068.4C610.959 1068.7 605.994 1068.94 601.142 1069.3Z"/><path fill="#191919" d="M167.338 1067.62C171.872 1067.19 176.545 1067.11 181.106 1066.97L183.001 1068.24L168.124 1069.19L167.338 1067.62Z"/><path fill="#191919" d="M603.948 971.867C600.619 972.34 595.841 973.099 592.707 972.129L592.649 971.324C596.108 970.008 600.174 970.421 603.809 970.842L603.948 971.867Z"/><path fill="#191919" d="M601.179 1083.8C604.386 1083.43 608.122 1082.67 611.126 1083.63L611.489 1084.44C608.406 1086.02 604.729 1085.43 601.367 1084.95L601.179 1083.8Z"/><path fill="#191919" d="M247.664 611.483C245.106 611.676 238.662 612.51 236.846 610.953C240.037 609.726 244.003 609.853 247.497 609.736L247.664 611.483Z"/><path fill="#191919" d="M239.853 1076.83C243.93 1076.39 247.873 1075.78 251.947 1076.27L252.57 1077.49C248.925 1077.75 243.504 1078.31 240.001 1078.13L239.853 1076.83Z"/><path fill="#191919" d="M445.721 494.827L445.261 496.208C441.485 496.663 439.067 497.135 435.295 496.54L434.871 495.871C438.073 494.549 442.175 494.836 445.721 494.827Z"/><path fill="#191919" d="M541.243 968.148C537.955 968.631 535.046 969.342 531.864 968.443L531.45 967.63C534.212 966.319 537.899 966.851 541.041 967.007L541.243 968.148Z"/><path fill="#191919" d="M247.235 471.956L247.446 473.249C243.951 473.511 239.216 474.001 235.818 474.034L236.092 472.73C240.658 472.087 242.677 471.798 247.235 471.956Z"/><path fill="#191919" d="M162.789 700.666C159.378 700.988 155.328 701.711 152.213 700.614L152.303 699.866C155.403 699.04 157.922 699.326 161.12 699.457L162.789 700.666Z"/><path fill="#191919" d="M792.776 1073.66C796.382 1073.86 801.386 1073.41 805.11 1073.18L805.157 1074.35C800.38 1075.29 798.246 1075.31 793.32 1075.38L792.776 1073.66Z"/><path fill="#191919" d="M548.702 704.408C553.054 703.558 554.144 703.32 558.527 703.527L559.119 704.861L548.983 705.708L548.702 704.408Z"/><path fill="#191919" d="M777.578 476.987L777.731 475.414L787.221 474.949L788.357 476.604C785.242 476.726 780.568 477.057 777.578 476.987Z"/><path fill="#191919" d="M346.593 1060.06C344.287 1059.97 340.433 1061.12 338.788 1059.35C341.632 1058.12 344.298 1058.5 347.457 1058.57L346.593 1060.06Z"/><path fill="#191919" d="M862.568 1073.1L862.772 1074.56C860.531 1074.83 856.53 1075.67 854.937 1074.04C857.402 1072.71 859.689 1073.06 862.568 1073.1Z"/><path fill="#191919" d="M365.421 1063.58L365.734 1065.07C363.44 1065.34 360.007 1066.11 358.24 1064.57C360.449 1063.22 362.727 1063.57 365.421 1063.58Z"/><path fill="#4F504F" d="M609.88 969.827C611.922 969.862 615.167 969.81 617.096 969.978L618.232 971.457C615.59 971.644 612.716 971.921 610.087 971.91L610.992 970.953L609.88 969.827Z"/><path fill="#191919" d="M692.812 622.798C695.492 622.66 698.727 622.404 701.363 622.46L698.011 624.209C696.432 624.343 694.505 624.561 692.949 624.614L692.812 622.798Z"/><path fill="#191919" d="M849.105 698.851L858.245 698.798L858.131 700.116C855.265 700.314 852.031 700.263 849.132 700.29L849.105 698.851Z"/><path fill="#191919" d="M166.043 738.953L167.763 739.945C165.351 741.415 163.397 742.948 160.656 743.241C161.405 741.475 164.266 740.067 166.043 738.953Z"/><path fill="#191919" d="M428.395 493.959L429.698 495.257C426.706 497.155 422.936 498.609 419.633 500.009C422.342 497.958 425.554 495.882 428.395 493.959Z"/></svg>