<?xml version="1.0" encoding="UTF-8"?>
<!DOCTYPE svg PUBLIC "-//W3C//DTD SVG 1.1//EN" "http://www.w3.org/Graphics/SVG/1.1/DTD/svg11.dtd">
<svg xmlns="http://www.w3.org/2000/svg" version="1.1" width="1254px" height="1254px" style="shape-rendering:geometricPrecision; text-rendering:geometricPrecision; image-rendering:optimizeQuality; fill-rule:evenodd; clip-rule:evenodd" xmlns:xlink="http://www.w3.org/1999/xlink">
<g><path style="opacity:1" fill="#9c7c51" d="M 811.5,324.5 C 816.405,332.637 821.071,340.97 825.5,349.5C 824.345,349.578 823.012,349.912 821.5,350.5C 821.099,352.434 820.099,353.934 818.5,355C 819.167,355.333 819.833,355.667 820.5,356C 818.126,355.598 815.793,355.764 813.5,356.5C 813.64,355.431 813.64,354.264 813.5,353C 807.816,350.48 802.316,348.313 797,346.5C 796.5,346.667 796,346.833 795.5,347C 797.208,348.51 798.874,350.01 800.5,351.5C 797.59,352.973 794.59,353.806 791.5,354C 790.185,352.605 790.519,351.605 792.5,351C 790.839,350.005 789.505,348.672 788.5,347C 788.905,346.055 789.572,345.388 790.5,345C 789.833,344.667 789.167,344.333 788.5,344C 790.129,343.415 791.629,342.581 793,341.5C 794.578,342.547 796.078,342.547 797.5,341.5C 797.02,339.051 796.02,336.885 794.5,335C 795.793,334.51 797.127,334.343 798.5,334.5C 798.703,332.61 798.037,331.11 796.5,330C 798.218,329.654 799.885,329.154 801.5,328.5C 802.242,326.892 802.409,325.225 802,323.5C 804.494,325.901 806.827,325.901 809,323.5C 809.671,324.252 810.504,324.586 811.5,324.5 Z"/></g>
<g><path style="opacity:1" fill="#9c7b55" d="M 811.5,324.5 C 810.504,324.586 809.671,324.252 809,323.5C 806.827,325.901 804.494,325.901 802,323.5C 802.409,325.225 802.242,326.892 801.5,328.5C 799.885,329.154 798.218,329.654 796.5,330C 798.037,331.11 798.703,332.61 798.5,334.5C 797.127,334.343 795.793,334.51 794.5,335C 796.02,336.885 797.02,339.051 797.5,341.5C 796.078,342.547 794.578,342.547 793,341.5C 791.629,342.581 790.129,343.415 788.5,344C 789.167,344.333 789.833,344.667 790.5,345C 789.572,345.388 788.905,346.055 788.5,347C 789.505,348.672 790.839,350.005 792.5,351C 790.519,351.605 790.185,352.605 791.5,354C 794.59,353.806 797.59,352.973 800.5,351.5C 798.874,350.01 797.208,348.51 795.5,347C 796,346.833 796.5,346.667 797,346.5C 802.316,348.313 807.816,350.48 813.5,353C 813.64,354.264 813.64,355.431 813.5,356.5C 815.793,355.764 818.126,355.598 820.5,356C 819.833,355.667 819.167,355.333 818.5,355C 820.099,353.934 821.099,352.434 821.5,350.5C 823.012,349.912 824.345,349.578 825.5,349.5C 829.415,354.663 832.248,360.33 834,366.5C 826.344,363.004 818.511,360.004 810.5,357.5C 810.44,356.957 810.107,356.624 809.5,356.5C 808.501,366.812 808.168,377.145 808.5,387.5C 806.718,389.687 804.552,390.02 802,388.5C 801.5,377.839 801.333,367.172 801.5,356.5C 793.336,359.11 785.336,362.11 777.5,365.5C 777.167,365.167 776.833,364.833 776.5,364.5C 785.23,347.373 794.23,330.373 803.5,313.5C 804.274,312.289 805.107,312.289 806,313.5C 808.372,316.91 810.205,320.577 811.5,324.5 Z"/></g>
<g><path style="opacity:1" fill="#d7cec3" d="M 810.5,357.5 C 809.833,367.5 809.167,377.5 808.5,387.5C 808.168,377.145 808.501,366.812 809.5,356.5C 810.107,356.624 810.44,356.957 810.5,357.5 Z"/></g>
<g><path style="opacity:1" fill="#9e7f59" d="M 801.5,406.5 C 802.93,406.421 804.264,406.754 805.5,407.5C 806.657,410.784 806.824,414.118 806,417.5C 804.462,424.855 802.796,432.188 801,439.5C 796.567,441.662 794.4,440.329 794.5,435.5C 796.079,425.521 798.412,415.855 801.5,406.5 Z"/></g>
<g><path style="opacity:1" fill="#9b7d57" d="M 787.5,456.5 C 793.521,456.938 795.021,459.938 792,465.5C 788.755,472.324 785.255,478.991 781.5,485.5C 776.242,488.987 774.075,487.653 775,481.5C 780.234,473.698 784.401,465.364 787.5,456.5 Z"/></g>
<g><path style="opacity:1" fill="#9a7b56" d="M 760.5,498.5 C 765,498.164 766.833,500.164 766,504.5C 759.764,511.407 752.931,517.573 745.5,523C 741,523.833 739.167,522 740,517.5C 747.631,512.036 754.465,505.702 760.5,498.5 Z"/></g>
<g><path style="opacity:1" fill="#9a7b54" d="M 720.5,529.5 C 726.235,529.541 727.568,531.874 724.5,536.5C 717.112,540.861 709.446,544.694 701.5,548C 694.838,548.404 693.838,546.071 698.5,541C 706.336,537.917 713.67,534.084 720.5,529.5 Z"/></g>
<g><path style="opacity:1" fill="#9b7c57" d="M 673.5,550.5 C 679.488,550.664 680.821,553.164 677.5,558C 669.392,560.36 661.392,563.027 653.5,566C 648.02,567.188 646.02,565.188 647.5,560C 656.519,557.426 665.186,554.259 673.5,550.5 Z"/></g>
<g><path style="opacity:1" fill="#997953" d="M 907.5,603.5 C 906.662,607.657 906.328,611.657 906.5,615.5C 899.63,604.261 892.63,593.094 885.5,582C 886.589,577.306 885.422,573.14 882,569.5C 881.648,571.247 881.148,572.914 880.5,574.5C 879.833,572.5 879.167,570.5 878.5,568.5C 876.458,557.984 870.458,554.484 860.5,558C 853.841,564.81 854.174,571.477 861.5,578C 863.81,578.497 866.143,578.663 868.5,578.5C 867.826,583.151 865.159,584.651 860.5,583C 856.913,580.24 854.246,576.74 852.5,572.5C 852.217,571.711 851.717,571.044 851,570.5C 850.195,573.696 850.362,576.696 851.5,579.5C 852.252,582.747 852.752,586.081 853,589.5C 854.441,590.87 856.108,591.87 858,592.5C 860.435,597.038 862.602,601.704 864.5,606.5C 863.833,610.167 863.167,613.833 862.5,617.5C 860.256,609.433 855.59,603.266 848.5,599C 833.386,583.538 830.886,566.371 841,547.5C 854.585,533.747 869.752,531.913 886.5,542C 899.026,554.051 902.692,568.551 897.5,585.5C 900.845,591.527 904.179,597.527 907.5,603.5 Z"/></g>
<g><path style="opacity:1" fill="#efece8" d="M 889.5,564.5 C 889.802,567.059 889.468,569.393 888.5,571.5C 886.36,564.181 882.36,558.014 876.5,553C 864.555,547.69 855.721,550.856 850,562.5C 849.185,570.655 849.518,578.655 851,586.5C 841.643,573.29 842.476,560.79 853.5,549C 866.849,542.332 878.016,544.832 887,556.5C 888.144,559.08 888.978,561.747 889.5,564.5 Z"/></g>
<g><path style="opacity:1" fill="#d3c4af" d="M 889.5,564.5 C 890.638,567.304 890.805,570.304 890,573.5C 889.283,572.956 888.783,572.289 888.5,571.5C 889.468,569.393 889.802,567.059 889.5,564.5 Z"/></g>
<g><path style="opacity:1" fill="#9b7a54" d="M 619.5,566.5 C 624.993,565.178 627.493,567.178 627,572.5C 616.257,575.768 605.257,578.435 594,580.5C 589.388,579.658 588.554,577.491 591.5,574C 601.054,571.781 610.387,569.281 619.5,566.5 Z"/></g>
<g><path style="opacity:1" fill="#cabcae" d="M 852.5,572.5 C 851.532,574.607 851.198,576.941 851.5,579.5C 850.362,576.696 850.195,573.696 851,570.5C 851.717,571.044 852.217,571.711 852.5,572.5 Z"/></g>
<g><path style="opacity:1" fill="#a99478" d="M 878.5,568.5 C 879.167,570.5 879.833,572.5 880.5,574.5C 879.57,578.409 878.237,578.909 876.5,576C 877.86,573.73 878.527,571.23 878.5,568.5 Z"/></g>
<g><path style="opacity:1" fill="#9a7a54" d="M 556.5,579.5 C 559.85,579.335 563.183,579.502 566.5,580C 569.167,582 569.167,584 566.5,586C 555.339,587.957 544.172,589.79 533,591.5C 531.893,591.415 530.893,591.081 530,590.5C 529.257,588.559 529.424,586.726 530.5,585C 539.364,583.473 548.03,581.64 556.5,579.5 Z"/></g>
<g><path style="opacity:1" fill="#9d7e58" d="M 495.5,589.5 C 498.85,589.335 502.183,589.502 505.5,590C 506.833,592 506.833,594 505.5,596C 494.983,597.867 484.483,599.7 474,601.5C 469.255,601.437 467.755,599.27 469.5,595C 478.28,593.079 486.946,591.246 495.5,589.5 Z"/></g>
<g><path style="opacity:1" fill="#9d7d57" d="M 439.5,599.5 C 442.119,599.232 444.619,599.565 447,600.5C 447.896,603.025 447.396,605.192 445.5,607C 435.801,608.675 426.134,610.508 416.5,612.5C 412.165,610.993 411.498,608.493 414.5,605C 423.059,603.58 431.392,601.747 439.5,599.5 Z"/></g>
<g><path style="opacity:1" fill="#aa9376" d="M 864.5,606.5 C 866.653,608.794 868.32,611.46 869.5,614.5C 868.299,616.909 866.633,618.909 864.5,620.5C 863.599,619.71 862.932,618.71 862.5,617.5C 863.167,613.833 863.833,610.167 864.5,606.5 Z"/></g>
<g><path style="opacity:1" fill="#9b7c57" d="M 386.5,611.5 C 390.145,610.68 392.478,612.013 393.5,615.5C 392.687,616.814 391.687,617.981 390.5,619C 381.014,620.996 371.681,623.496 362.5,626.5C 358.165,624.993 357.498,622.493 360.5,619C 369.284,616.475 377.951,613.975 386.5,611.5 Z"/></g>
<g><path style="opacity:1" fill="#b29c7f" d="M 907.5,603.5 C 909.823,607.423 912.156,611.423 914.5,615.5C 913.518,618.962 913.185,622.629 913.5,626.5C 910.931,623.039 908.597,619.372 906.5,615.5C 906.328,611.657 906.662,607.657 907.5,603.5 Z"/></g>
<g><path style="opacity:1" fill="#9a7c57" d="M 869.5,614.5 C 874.945,623.055 879.612,632.055 883.5,641.5C 882.33,646.831 882.33,651.831 883.5,656.5C 876.644,644.789 870.311,632.789 864.5,620.5C 866.633,618.909 868.299,616.909 869.5,614.5 Z"/></g>
<g><path style="opacity:1" fill="#9a7b55" d="M 331.5,627.5 C 334.119,627.232 336.619,627.565 339,628.5C 339.825,630.701 339.325,632.534 337.5,634C 327.653,637.004 317.987,640.504 308.5,644.5C 304.361,642.762 303.695,640.262 306.5,637C 315.049,634.099 323.383,630.933 331.5,627.5 Z"/></g>
<g><path style="opacity:1" fill="#997954" d="M 914.5,615.5 C 919.657,623.138 924.823,630.805 930,638.5C 939.387,628.241 950.553,625.741 963.5,631C 967.258,632.923 970.591,635.423 973.5,638.5C 985.445,629.014 998.112,628.014 1011.5,635.5C 1010.17,637.5 1008.5,639.167 1006.5,640.5C 999.359,637.286 992.025,636.786 984.5,639C 981.192,639.673 979.358,641.506 979,644.5C 983.967,650.469 989.301,656.135 995,661.5C 994.945,665.076 993.112,666.576 989.5,666C 983.591,660.596 978.258,654.763 973.5,648.5C 975.893,646.238 976.06,643.572 974,640.5C 972.103,638.984 969.936,638.317 967.5,638.5C 967.629,640.216 967.962,641.883 968.5,643.5C 964.829,641.331 961.162,639.165 957.5,637C 948.869,634.792 941.702,636.959 936,643.5C 935.333,644.833 935.333,646.167 936,647.5C 942.415,656.662 948.582,665.995 954.5,675.5C 953.857,678.975 951.857,680.141 948.5,679C 944.215,674.26 940.048,669.427 936,664.5C 928.754,651.673 921.254,639.006 913.5,626.5C 913.185,622.629 913.518,618.962 914.5,615.5 Z"/></g>
<g><path style="opacity:1" fill="#987852" d="M 1063.5,648.5 C 1061.67,650.063 1060,651.73 1058.5,653.5C 1053.49,649.497 1047.83,646.83 1041.5,645.5C 1035.98,644.349 1030.32,644.349 1024.5,645.5C 1022.99,644.164 1021.32,642.997 1019.5,642C 1020.06,641.617 1020.39,641.117 1020.5,640.5C 1033.22,635.781 1045.55,636.615 1057.5,643C 1060,644.331 1062,646.164 1063.5,648.5 Z"/></g>
<g><path style="opacity:1" fill="#bca991" d="M 973.5,648.5 C 971.5,647.167 969.833,645.5 968.5,643.5C 967.962,641.883 967.629,640.216 967.5,638.5C 969.936,638.317 972.103,638.984 974,640.5C 976.06,643.572 975.893,646.238 973.5,648.5 Z"/></g>
<g><path style="opacity:1" fill="#a48a68" d="M 1011.5,635.5 C 1014.01,636.921 1016.34,638.588 1018.5,640.5C 1017.64,642.919 1016.3,644.919 1014.5,646.5C 1012.09,644.084 1009.43,642.084 1006.5,640.5C 1008.5,639.167 1010.17,637.5 1011.5,635.5 Z"/></g>
<g><path style="opacity:1" fill="#b9a48b" d="M 1018.5,640.5 C 1019.17,640.5 1019.83,640.5 1020.5,640.5C 1020.39,641.117 1020.06,641.617 1019.5,642C 1021.32,642.997 1022.99,644.164 1024.5,645.5C 1024.5,645.833 1024.5,646.167 1024.5,646.5C 1024.5,646.833 1024.5,647.167 1024.5,647.5C 1023.85,647.196 1023.18,646.863 1022.5,646.5C 1020.86,647.696 1019.19,648.696 1017.5,649.5C 1016.17,648.833 1015.17,647.833 1014.5,646.5C 1016.3,644.919 1017.64,642.919 1018.5,640.5 Z"/></g>
<g><path style="opacity:1" fill="#dcd3ca" d="M 1041.5,645.5 C 1035.8,645.447 1030.14,645.78 1024.5,646.5C 1024.5,646.167 1024.5,645.833 1024.5,645.5C 1030.32,644.349 1035.98,644.349 1041.5,645.5 Z"/></g>
<g><path style="opacity:1" fill="#9d805c" d="M 1024.5,647.5 C 1027.78,650.043 1030.61,653.043 1033,656.5C 1034.17,660.667 1032.67,662.167 1028.5,661C 1024.63,657.298 1020.96,653.464 1017.5,649.5C 1019.19,648.696 1020.86,647.696 1022.5,646.5C 1023.18,646.863 1023.85,647.196 1024.5,647.5 Z"/></g>
<g><path style="opacity:1" fill="#9a7b55" d="M 280.5,647.5 C 285.668,648.339 286.668,650.839 283.5,655C 275.076,658.711 266.742,662.711 258.5,667C 251.82,668.67 250.154,666.67 253.5,661C 262.623,656.439 271.623,651.939 280.5,647.5 Z"/></g>
<g><path style="opacity:1" fill="#b9a68f" d="M 1063.5,648.5 C 1066.2,650.234 1068.2,652.568 1069.5,655.5C 1068.71,656.609 1068.21,657.942 1068,659.5C 1067,660.833 1066,660.833 1065,659.5C 1064.54,660.094 1064.37,660.761 1064.5,661.5C 1062.92,658.574 1060.92,655.908 1058.5,653.5C 1060,651.73 1061.67,650.063 1063.5,648.5 Z"/></g>
<g><path style="opacity:1" fill="#b7a48b" d="M 883.5,641.5 C 887.049,648.766 890.715,656.099 894.5,663.5C 892.825,666.507 892.159,669.84 892.5,673.5C 889.276,668.058 886.276,662.391 883.5,656.5C 882.33,651.831 882.33,646.831 883.5,641.5 Z"/></g>
<g><path style="opacity:1" fill="#977954" d="M 1069.5,655.5 C 1077.27,671.142 1084.27,687.142 1090.5,703.5C 1088.48,705.19 1086.48,706.856 1084.5,708.5C 1077.45,693.036 1070.79,677.369 1064.5,661.5C 1064.37,660.761 1064.54,660.094 1065,659.5C 1066,660.833 1067,660.833 1068,659.5C 1068.21,657.942 1068.71,656.609 1069.5,655.5 Z"/></g>
<g><path style="opacity:1" fill="#9c7d57" d="M 228.5,674.5 C 234.488,674.664 235.821,677.164 232.5,682C 224.156,686.837 216.156,692.17 208.5,698C 203.667,699.167 201.834,697.333 203,692.5C 211.479,686.355 219.979,680.355 228.5,674.5 Z"/></g>
<g><path style="opacity:1" fill="#d1c3b2" d="M 898.5,694.5 C 900.072,697.215 901.072,700.215 901.5,703.5C 899.528,700.916 898.528,697.916 898.5,694.5 Z"/></g>
<g><path style="opacity:1" fill="#a18460" d="M 1090.5,703.5 C 1095.86,713.912 1099.86,724.912 1102.5,736.5C 1101.04,738.352 1100.04,740.518 1099.5,743C 1100.46,745.12 1100.63,747.287 1100,749.5C 1099.53,747.754 1098.86,746.087 1098,744.5C 1097.52,745.448 1097.35,746.448 1097.5,747.5C 1095.07,739.698 1092.91,731.698 1091,723.5C 1089.31,718.265 1087.15,713.265 1084.5,708.5C 1086.48,706.856 1088.48,705.19 1090.5,703.5 Z"/></g>
<g><path style="opacity:1" fill="#f0ede9" d="M 913.5,713.5 C 914.594,716.682 915.928,719.682 917.5,722.5C 920.991,731.969 923.658,741.635 925.5,751.5C 925.565,751.938 925.399,752.272 925,752.5C 924.051,750.907 922.885,749.574 921.5,748.5C 915.166,731.974 909.499,715.14 904.5,698C 904.611,696.278 905.111,696.112 906,697.5C 908.206,703.032 910.706,708.366 913.5,713.5 Z"/></g>
<g><path style="opacity:1" fill="#b39f89" d="M 917.5,708.5 C 918.488,709.795 919.488,711.128 920.5,712.5C 918.587,715.335 917.587,718.668 917.5,722.5C 915.928,719.682 914.594,716.682 913.5,713.5C 914.833,713.5 916.167,713.5 917.5,713.5C 917.5,711.833 917.5,710.167 917.5,708.5 Z"/></g>
<g><path style="opacity:1" fill="#9c7e57" d="M 181.5,708.5 C 186.675,707.507 188.509,709.507 187,714.5C 179.361,720.416 172.194,726.916 165.5,734C 161,734.833 159.167,733 160,728.5C 166.765,721.236 173.931,714.57 181.5,708.5 Z"/></g>
<g><path style="opacity:1" fill="#997a55" d="M 894.5,663.5 C 902.961,678.089 910.628,693.089 917.5,708.5C 917.5,710.167 917.5,711.833 917.5,713.5C 916.167,713.5 914.833,713.5 913.5,713.5C 910.706,708.366 908.206,703.032 906,697.5C 905.111,696.112 904.611,696.278 904.5,698C 909.499,715.14 915.166,731.974 921.5,748.5C 920.598,750.341 919.264,751.674 917.5,752.5C 909.592,743.091 900.592,734.924 890.5,728C 888.414,727.685 886.414,727.185 884.5,726.5C 884.082,725.778 883.416,725.278 882.5,725C 877.167,724.333 871.833,724.333 866.5,725C 865.944,725.383 865.611,725.883 865.5,726.5C 859.785,728.928 858.285,732.928 861,738.5C 866.907,734.105 872.24,734.772 877,740.5C 879.705,746.53 881.038,752.864 881,759.5C 885.082,763.076 888.582,767.076 891.5,771.5C 894.303,777.814 898.137,783.481 903,788.5C 903.346,790.218 903.846,791.885 904.5,793.5C 904.376,794.107 904.043,794.44 903.5,794.5C 893.662,781.83 882.662,770.33 870.5,760C 865,754.5 859.5,749 854,743.5C 848.919,730.886 852.753,722.053 865.5,717C 883.031,715.178 897.531,721.012 909,734.5C 906.66,724.139 904.16,713.806 901.5,703.5C 901.072,700.215 900.072,697.215 898.5,694.5C 897.78,687.087 895.78,680.087 892.5,673.5C 892.159,669.84 892.825,666.507 894.5,663.5 Z"/></g>
<g><path style="opacity:1" fill="#e0d9cf" d="M 884.5,726.5 C 878.456,725.343 872.122,725.343 865.5,726.5C 865.611,725.883 865.944,725.383 866.5,725C 871.833,724.333 877.167,724.333 882.5,725C 883.416,725.278 884.082,725.778 884.5,726.5 Z"/></g>
<g><path style="opacity:1" fill="#f0eeeb" d="M 866.5,738.5 C 868.903,738.393 870.736,739.393 872,741.5C 873.791,744.991 874.458,748.658 874,752.5C 869.833,749.667 866.333,746.167 863.5,742C 864.71,740.961 865.71,739.794 866.5,738.5 Z"/></g>
<g><path style="opacity:1" fill="#997b55" d="M 1102.5,736.5 C 1105.78,747.237 1107.78,758.237 1108.5,769.5C 1108.65,773.387 1109.31,777.054 1110.5,780.5C 1110.46,783.425 1111.29,786.091 1113,788.5C 1115.96,790.722 1118.79,793.055 1121.5,795.5C 1119.49,797.065 1117.16,798.065 1114.5,798.5C 1109.21,795.93 1105.38,791.93 1103,786.5C 1101.16,773.49 1099.33,760.49 1097.5,747.5C 1097.35,746.448 1097.52,745.448 1098,744.5C 1098.86,746.087 1099.53,747.754 1100,749.5C 1100.63,747.287 1100.46,745.12 1099.5,743C 1100.04,740.518 1101.04,738.352 1102.5,736.5 Z"/></g>
<g><path style="opacity:1" fill="#997a55" d="M 920.5,712.5 C 926.049,724.36 930.216,736.694 933,749.5C 933.998,756.154 934.832,762.821 935.5,769.5C 930.717,770.385 928.384,768.385 928.5,763.5C 927.992,759.264 926.992,755.264 925.5,751.5C 923.658,741.635 920.991,731.969 917.5,722.5C 917.587,718.668 918.587,715.335 920.5,712.5 Z"/></g>
<g><path style="opacity:1" fill="#b8a48d" d="M 921.5,748.5 C 922.885,749.574 924.051,750.907 925,752.5C 925.399,752.272 925.565,751.938 925.5,751.5C 926.992,755.264 927.992,759.264 928.5,763.5C 924.5,760.167 920.833,756.5 917.5,752.5C 919.264,751.674 920.598,750.341 921.5,748.5 Z"/></g>
<g><path style="opacity:1" fill="#9b7b54" d="M 138.5,765.5 C 136.147,764.66 134.147,763.326 132.5,761.5C 136.002,757.159 139.335,752.659 142.5,748C 147,747.167 148.833,749 148,753.5C 144.619,757.375 141.453,761.375 138.5,765.5 Z"/></g>
<g><path style="opacity:1" fill="#d0c4b5" d="M 132.5,761.5 C 134.147,763.326 136.147,764.66 138.5,765.5C 135.256,769.604 132.59,769.104 130.5,764C 130.639,762.699 131.305,761.866 132.5,761.5 Z"/></g>
<g><path style="opacity:1" fill="#d6cbbe" d="M 1108.5,769.5 C 1110.08,772.876 1110.75,776.542 1110.5,780.5C 1109.31,777.054 1108.65,773.387 1108.5,769.5 Z"/></g>
<g><path style="opacity:1" fill="#b8a38b" d="M 891.5,771.5 C 898.508,778.508 905.174,785.842 911.5,793.5C 910.957,793.56 910.624,793.893 910.5,794.5C 912.185,798.661 912.852,802.994 912.5,807.5C 909.759,803.03 906.759,798.696 903.5,794.5C 904.043,794.44 904.376,794.107 904.5,793.5C 903.846,791.885 903.346,790.218 903,788.5C 898.137,783.481 894.303,777.814 891.5,771.5 Z"/></g>
<g><path style="opacity:1" fill="#b29d84" d="M 1121.5,795.5 C 1123.5,796.833 1125.17,798.5 1126.5,800.5C 1125.54,802.461 1124.21,804.127 1122.5,805.5C 1119.42,803.628 1116.75,801.295 1114.5,798.5C 1117.16,798.065 1119.49,797.065 1121.5,795.5 Z"/></g>
<g><path style="opacity:1" fill="#9b7a54" d="M 911.5,793.5 C 925.715,817.861 946.381,834.361 973.5,843C 987.524,846.672 1001.52,850.339 1015.5,854C 1018,855.331 1020,857.164 1021.5,859.5C 1020.22,861.452 1018.55,863.118 1016.5,864.5C 1012.92,861.876 1008.92,860.043 1004.5,859C 976.434,855.096 951.1,844.763 928.5,828C 921.424,822.436 916.091,815.603 912.5,807.5C 912.852,802.994 912.185,798.661 910.5,794.5C 910.624,793.893 910.957,793.56 911.5,793.5 Z"/></g>
<g><path style="opacity:1" fill="#9d7e59" d="M 1126.5,800.5 C 1145.09,816.926 1164.43,832.426 1184.5,847C 1186.7,852.281 1185.04,854.614 1179.5,854C 1158.94,839.713 1139.94,823.546 1122.5,805.5C 1124.21,804.127 1125.54,802.461 1126.5,800.5 Z"/></g>
<g><path style="opacity:1" fill="#b59e84" d="M 1021.5,859.5 C 1022.8,861.142 1024.14,862.809 1025.5,864.5C 1023.89,866.088 1021.89,867.088 1019.5,867.5C 1018.17,866.833 1017.17,865.833 1016.5,864.5C 1018.55,863.118 1020.22,861.452 1021.5,859.5 Z"/></g>
<g><path style="opacity:1" fill="#d0c3b5" d="M 1025.5,864.5 C 1029.17,867.5 1032.5,870.833 1035.5,874.5C 1034.32,876.913 1032.32,877.913 1029.5,877.5C 1025.83,874.5 1022.5,871.167 1019.5,867.5C 1021.89,867.088 1023.89,866.088 1025.5,864.5 Z"/></g>
<g><path style="opacity:1" fill="#eeeae5" d="M 1035.5,874.5 C 1038.17,877.637 1041.17,880.471 1044.5,883C 1044.02,884.46 1042.85,885.96 1041,887.5C 1037.01,885.783 1033.18,882.449 1029.5,877.5C 1032.32,877.913 1034.32,876.913 1035.5,874.5 Z"/></g>
</svg>

