<?xml version="1.0" encoding="UTF-8"?>
<!DOCTYPE svg PUBLIC "-//W3C//DTD SVG 1.1//EN" "http://www.w3.org/Graphics/SVG/1.1/DTD/svg11.dtd">
<svg xmlns="http://www.w3.org/2000/svg" version="1.1" width="1070px" height="270px" viewBox="214 408 1070 270" preserveAspectRatio="xMidYMid meet" style="shape-rendering:geometricPrecision; text-rendering:geometricPrecision; image-rendering:optimizeQuality; fill-rule:evenodd; clip-rule:evenodd" xmlns:xlink="http://www.w3.org/1999/xlink">
<g><path style="opacity:1" fill="#f9f9f9" d="M -0.5,-0.5 C 482.167,-0.5 964.833,-0.5 1447.5,-0.5C 1447.5,361.5 1447.5,723.5 1447.5,1085.5C 964.833,1085.5 482.167,1085.5 -0.5,1085.5C -0.5,723.5 -0.5,361.5 -0.5,-0.5 Z"/></g>
<g><path style="opacity:1" fill="#362b1b" d="M 818.5,422.5 C 817.596,423.209 817.263,424.209 817.5,425.5C 816.778,425.082 816.278,424.416 816,423.5C 815.667,424.167 815.333,424.833 815,425.5C 814.333,424.167 813.333,423.167 812,422.5C 811.667,421.167 811.333,419.833 811,418.5C 810.768,419.737 810.268,420.737 809.5,421.5C 810.08,417.19 810.414,412.857 810.5,408.5C 815.427,409.082 819.76,410.915 823.5,414C 822.924,415.714 821.757,416.881 820,417.5C 819.392,419.154 818.892,420.821 818.5,422.5 Z"/></g>
<g><path style="opacity:1" fill="#99948a" d="M 409.5,416.5 C 409.5,420.167 409.5,423.833 409.5,427.5C 412.167,427.5 414.833,427.5 417.5,427.5C 414.713,428.477 411.713,428.81 408.5,428.5C 408.183,424.298 408.517,420.298 409.5,416.5 Z"/></g>
<g><path style="opacity:1" fill="#655e55" d="M 552.5,423.5 C 548.131,423.467 543.798,423.8 539.5,424.5C 541.848,423.048 544.514,422.382 547.5,422.5C 549.369,422.507 551.036,422.84 552.5,423.5 Z"/></g>
<g><path style="opacity:1" fill="#2d2314" d="M 1137.5,413.5 C 1144.81,414.132 1149.15,417.965 1150.5,425C 1150.27,431.627 1147.43,433.46 1142,430.5C 1141.69,424.431 1140.19,418.764 1137.5,413.5 Z"/></g>
<g><path style="opacity:1" fill="#2c2215" d="M 793.5,426.5 C 795.304,427.162 797.304,427.495 799.5,427.5C 802.814,427.657 805.814,426.991 808.5,425.5C 809.434,424.432 809.768,423.099 809.5,421.5C 810.268,420.737 810.768,419.737 811,418.5C 811.333,419.833 811.667,421.167 812,422.5C 813.333,423.167 814.333,424.167 815,425.5C 815.333,424.833 815.667,424.167 816,423.5C 816.278,424.416 816.778,425.082 817.5,425.5C 820.385,425.806 823.052,425.473 825.5,424.5C 827.218,421.716 829.384,419.383 832,417.5C 834.989,419.819 837.989,422.153 841,424.5C 841.483,425.448 841.649,426.448 841.5,427.5C 832.605,427.139 823.939,427.806 815.5,429.5C 814.119,432.074 812.452,434.574 810.5,437C 809.207,437.49 807.873,437.657 806.5,437.5C 806.5,436.167 806.5,434.833 806.5,433.5C 807.434,432.432 807.768,431.099 807.5,429.5C 802.833,429.5 798.167,429.5 793.5,429.5C 793.747,432.939 793.414,436.272 792.5,439.5C 791.609,440.11 790.609,440.443 789.5,440.5C 788.5,440.5 787.5,440.5 786.5,440.5C 786.5,437.167 786.5,433.833 786.5,430.5C 783.941,430.198 781.607,430.532 779.5,431.5C 774.074,431.513 768.74,432.18 763.5,433.5C 762.026,432.564 761.026,431.23 760.5,429.5C 768.472,428.502 776.472,428.169 784.5,428.5C 783.66,422.807 782.66,417.14 781.5,411.5C 786.284,412.484 790.784,414.151 795,416.5C 793.823,419.563 793.323,422.896 793.5,426.5 Z"/></g>
<g><path style="opacity:1" fill="#97928a" d="M 818.5,422.5 C 820.279,424.344 822.612,425.01 825.5,424.5C 823.052,425.473 820.385,425.806 817.5,425.5C 817.263,424.209 817.596,423.209 818.5,422.5 Z"/></g>
<g><path style="opacity:1" fill="#928d82" d="M 1183.5,424.5 C 1179.56,424.875 1175.89,425.875 1172.5,427.5C 1171.6,426.791 1171.26,425.791 1171.5,424.5C 1175.5,424.5 1179.5,424.5 1183.5,424.5 Z"/></g>
<g><path style="opacity:1" fill="#b7b2ac" d="M 1219.5,424.5 C 1214.1,426.205 1208.43,426.872 1202.5,426.5C 1207.94,425.116 1213.61,424.45 1219.5,424.5 Z"/></g>
<g><path style="opacity:1" fill="#61594c" d="M 808.5,425.5 C 805.814,426.991 802.814,427.657 799.5,427.5C 797.304,427.495 795.304,427.162 793.5,426.5C 798.537,426.587 803.537,426.254 808.5,425.5 Z"/></g>
<g><path style="opacity:1" fill="#a3a19c" d="M 841.5,427.5 C 833.025,428.725 824.358,429.392 815.5,429.5C 823.939,427.806 832.605,427.139 841.5,427.5 Z"/></g>
<g><path style="opacity:1" fill="#332718" d="M 1219.5,424.5 C 1213.61,424.45 1207.94,425.116 1202.5,426.5C 1196.71,426.208 1191.04,426.875 1185.5,428.5C 1187.94,429.44 1189.94,430.94 1191.5,433C 1189.55,436.889 1188.55,441.056 1188.5,445.5C 1191.94,445.699 1195.27,445.199 1198.5,444C 1199.68,442.104 1201.18,440.604 1203,439.5C 1206.6,441.272 1209.77,443.605 1212.5,446.5C 1211.83,447.833 1210.83,448.833 1209.5,449.5C 1208.83,454.317 1208.17,458.983 1207.5,463.5C 1207.8,461.396 1207.47,459.396 1206.5,457.5C 1204.9,457.61 1203.24,457.943 1201.5,458.5C 1200.82,457.398 1200.16,456.398 1199.5,455.5C 1199.8,452.941 1199.47,450.607 1198.5,448.5C 1194.4,448.237 1190.4,448.57 1186.5,449.5C 1186.03,446.481 1184.53,445.481 1182,446.5C 1181.82,443.305 1181.32,440.305 1180.5,437.5C 1180.5,434.5 1180.5,431.5 1180.5,428.5C 1178.17,428.5 1175.83,428.5 1173.5,428.5C 1172.83,428.5 1172.5,428.167 1172.5,427.5C 1175.89,425.875 1179.56,424.875 1183.5,424.5C 1190.21,424.274 1196.87,423.608 1203.5,422.5C 1205.23,419.684 1207.39,417.35 1210,415.5C 1214.33,417.336 1217.5,420.336 1219.5,424.5 Z"/></g>
<g><path style="opacity:1" fill="#aaa5a0" d="M 806.5,433.5 C 806.5,432.5 806.5,431.5 806.5,430.5C 802.5,430.5 798.5,430.5 794.5,430.5C 795.055,434.012 794.388,437.012 792.5,439.5C 793.414,436.272 793.747,432.939 793.5,429.5C 798.167,429.5 802.833,429.5 807.5,429.5C 807.768,431.099 807.434,432.432 806.5,433.5 Z"/></g>
<g><path style="opacity:1" fill="#949087" d="M 1173.5,428.5 C 1175.83,428.5 1178.17,428.5 1180.5,428.5C 1180.5,431.5 1180.5,434.5 1180.5,437.5C 1180.61,443.726 1179.95,449.726 1178.5,455.5C 1179.15,446.848 1179.48,438.182 1179.5,429.5C 1177.26,429.795 1175.26,429.461 1173.5,428.5 Z"/></g>
<g><path style="opacity:1" fill="#b4b1aa" d="M 950.5,418.5 C 951.491,424.979 951.824,431.646 951.5,438.5C 947.5,438.5 943.5,438.5 939.5,438.5C 942.962,437.518 946.629,437.185 950.5,437.5C 950.5,431.167 950.5,424.833 950.5,418.5 Z"/></g>
<g><path style="opacity:1" fill="#2f2415" d="M 409.5,416.5 C 408.517,420.298 408.183,424.298 408.5,428.5C 411.713,428.81 414.713,428.477 417.5,427.5C 418.894,425.408 420.728,423.742 423,422.5C 425.853,424.259 428.52,426.259 431,428.5C 431.722,430.661 431.055,432.328 429,433.5C 428.667,441.833 428.333,450.167 428,458.5C 426.082,459.542 424.249,460.708 422.5,462C 426.074,463.618 429.074,465.951 431.5,469C 425.409,471.735 420.409,476.069 416.5,482C 418.714,487.048 422.381,490.548 427.5,492.5C 430.584,490.293 432.584,487.293 433.5,483.5C 435.074,481.898 435.741,479.898 435.5,477.5C 436.167,482.167 436.833,486.833 437.5,491.5C 438.179,494.989 439.512,498.156 441.5,501C 441.516,503.305 440.516,504.972 438.5,506C 429.277,507.153 421.777,503.986 416,496.5C 413.308,493.308 410.808,489.975 408.5,486.5C 397.663,494.103 385.996,499.103 373.5,501.5C 384.696,495.644 395.196,488.644 405,480.5C 404.019,473.986 403.186,467.32 402.5,460.5C 398.833,460.5 395.167,460.5 391.5,460.5C 391.688,465.981 389.021,468.981 383.5,469.5C 383.5,459.167 383.5,448.833 383.5,438.5C 378.9,438.28 374.567,438.946 370.5,440.5C 369.512,445.64 369.179,450.974 369.5,456.5C 370.791,456.737 371.791,456.404 372.5,455.5C 375.139,453.844 377.805,452.178 380.5,450.5C 380.833,450.833 381.167,451.167 381.5,451.5C 377.84,454.991 374.006,458.324 370,461.5C 369.728,473.175 369.728,484.842 370,496.5C 368.449,502.556 364.615,505.89 358.5,506.5C 358.325,500.318 355.658,495.485 350.5,492C 354.332,492.038 357.832,491.205 361,489.5C 361.831,482.808 361.664,476.142 360.5,469.5C 356.755,473.417 352.588,476.75 348,479.5C 345.22,476.78 343.053,473.614 341.5,470C 347.398,466.384 353.731,463.218 360.5,460.5C 361.496,454.202 361.83,447.868 361.5,441.5C 356.523,441.392 351.69,442.059 347,443.5C 345.978,442.646 345.145,441.646 344.5,440.5C 350.141,439.558 355.807,438.891 361.5,438.5C 361.721,429.134 361.387,419.801 360.5,410.5C 365.427,411.082 369.76,412.915 373.5,416C 372.991,417.169 372.158,418.002 371,418.5C 370.333,424.5 370.333,430.5 371,436.5C 372.667,434.5 374.333,432.5 376,430.5C 378.292,431.79 380.292,433.457 382,435.5C 382.252,432.333 382.418,429.333 382.5,426.5C 388.251,428.942 394.251,429.942 400.5,429.5C 399.993,422.458 399.993,415.458 400.5,408.5C 403.93,409.381 407.263,410.548 410.5,412C 411.916,413.915 411.582,415.415 409.5,416.5 Z"/></g>
<g><path style="opacity:1" fill="#f2f1f0" d="M 418.5,440.5 C 416.435,440.517 414.435,440.85 412.5,441.5C 411.5,441.5 410.5,441.5 409.5,441.5C 409.5,438.167 409.5,434.833 409.5,431.5C 412.5,431.5 415.5,431.5 418.5,431.5C 418.5,434.5 418.5,437.5 418.5,440.5 Z"/></g>
<g><path style="opacity:1" fill="#807d75" d="M 694.5,417.5 C 694.5,422.167 694.5,426.833 694.5,431.5C 697.5,431.5 700.5,431.5 703.5,431.5C 700.375,432.479 697.042,432.813 693.5,432.5C 693.179,427.305 693.513,422.305 694.5,417.5 Z"/></g>
<g><path style="opacity:1" fill="#b4afaa" d="M 299.5,431.5 C 294.056,432.884 288.389,433.55 282.5,433.5C 287.929,431.988 293.596,431.321 299.5,431.5 Z"/></g>
<g><path style="opacity:1" fill="#6a6459" d="M 779.5,431.5 C 781.607,430.532 783.941,430.198 786.5,430.5C 786.5,433.833 786.5,437.167 786.5,440.5C 787.5,440.5 788.5,440.5 789.5,440.5C 788.833,441.167 788.167,441.833 787.5,442.5C 786.292,441.766 784.959,441.433 783.5,441.5C 785.273,438.512 785.94,435.179 785.5,431.5C 783.5,431.5 781.5,431.5 779.5,431.5 Z"/></g>
<g><path style="opacity:1" fill="#d4d2ce" d="M 282.5,433.5 C 282.804,434.15 283.137,434.817 283.5,435.5C 282.051,436.172 280.718,436.839 279.5,437.5C 277.5,437.167 275.5,436.833 273.5,436.5C 274.13,444.243 273.463,451.576 271.5,458.5C 272.466,450.92 272.799,443.253 272.5,435.5C 270.5,435.5 268.5,435.5 266.5,435.5C 271.598,434.043 276.931,433.376 282.5,433.5 Z"/></g>
<g><path style="opacity:1" fill="#8b877e" d="M 418.5,440.5 C 418.5,437.5 418.5,434.5 418.5,431.5C 415.5,431.5 412.5,431.5 409.5,431.5C 409.5,434.833 409.5,438.167 409.5,441.5C 410.5,441.5 411.5,441.5 412.5,441.5C 411.432,442.434 410.099,442.768 408.5,442.5C 408.5,438.5 408.5,434.5 408.5,430.5C 412.167,430.5 415.833,430.5 419.5,430.5C 419.813,434.042 419.479,437.375 418.5,440.5 Z"/></g>
<g><path style="opacity:1" fill="#6c655a" d="M 391.5,433.5 C 394.625,432.521 397.958,432.187 401.5,432.5C 401.813,436.042 401.479,439.375 400.5,442.5C 400.5,439.5 400.5,436.5 400.5,433.5C 397.5,433.5 394.5,433.5 391.5,433.5 Z"/></g>
<g><path style="opacity:1" fill="#f2f2f1" d="M 391.5,433.5 C 394.5,433.5 397.5,433.5 400.5,433.5C 400.5,436.5 400.5,439.5 400.5,442.5C 397.5,442.5 394.5,442.5 391.5,442.5C 391.5,439.5 391.5,436.5 391.5,433.5 Z"/></g>
<g><path style="opacity:1" fill="#868076" d="M 911.5,429.5 C 911.5,431.833 911.5,434.167 911.5,436.5C 912.5,436.5 913.5,436.5 914.5,436.5C 913.432,437.434 912.099,437.768 910.5,437.5C 910.194,434.615 910.527,431.948 911.5,429.5 Z"/></g>
<g><path style="opacity:1" fill="#7c786c" d="M 1143.5,437.5 C 1139.83,438.167 1136.17,438.833 1132.5,439.5C 1131.96,439.44 1131.62,439.107 1131.5,438.5C 1135.45,437.509 1139.45,437.176 1143.5,437.5 Z"/></g>
<g><path style="opacity:1" fill="#817a6e" d="M 391.5,433.5 C 391.5,436.5 391.5,439.5 391.5,442.5C 394.5,442.5 397.5,442.5 400.5,442.5C 401.479,439.375 401.813,436.042 401.5,432.5C 397.958,432.187 394.625,432.521 391.5,433.5 Z"/></g>
<g><path style="opacity:1" fill="#7a736b" d="M 1149.5,440.5 C 1151.95,439.527 1154.61,439.194 1157.5,439.5C 1157.5,444.5 1157.5,449.5 1157.5,454.5C 1157.77,456.099 1157.43,457.432 1156.5,458.5C 1156.5,452.5 1156.5,446.5 1156.5,440.5C 1154.17,440.5 1151.83,440.5 1149.5,440.5 Z"/></g>
<g><path style="opacity:1" fill="#aba8a3" d="M 946.5,443.5 C 940.473,443.222 934.473,443.222 928.5,443.5C 934.767,441.657 941.101,441.324 947.5,442.5C 947.376,443.107 947.043,443.44 946.5,443.5 Z"/></g>
<g><path style="opacity:1" fill="#f0efee" d="M 1149.5,440.5 C 1151.83,440.5 1154.17,440.5 1156.5,440.5C 1156.5,446.5 1156.5,452.5 1156.5,458.5C 1154.5,458.5 1152.5,458.5 1150.5,458.5C 1150.5,454.833 1150.5,451.167 1150.5,447.5C 1151.23,446.292 1151.57,444.959 1151.5,443.5C 1148.98,443.245 1146.65,442.411 1144.5,441C 1146.13,440.506 1147.8,440.34 1149.5,440.5 Z"/></g>
<g><path style="opacity:1" fill="#656055" d="M 228.5,442.5 C 230.607,441.532 232.941,441.198 235.5,441.5C 235.823,448.022 235.49,454.355 234.5,460.5C 234.5,454.5 234.5,448.5 234.5,442.5C 232.5,442.5 230.5,442.5 228.5,442.5 Z"/></g>
<g><path style="opacity:1" fill="#2f2415" d="M 662.5,440.5 C 659.5,440.5 656.5,440.5 653.5,440.5C 653.187,444.042 653.521,447.375 654.5,450.5C 658.953,451.65 662.786,453.984 666,457.5C 666.494,459.134 666.66,460.801 666.5,462.5C 665.872,465.955 663.872,467.122 660.5,466C 659.052,462.645 657.385,459.479 655.5,456.5C 655.539,455.244 655.039,454.244 654,453.5C 653.173,466.007 653.34,478.34 654.5,490.5C 655.58,499.088 651.913,504.422 643.5,506.5C 644.054,499.847 644.388,493.18 644.5,486.5C 645.821,478.324 645.821,469.991 644.5,461.5C 643.893,461.624 643.56,461.957 643.5,462.5C 638.536,469.905 632.536,476.405 625.5,482C 624.241,482.982 622.908,483.315 621.5,483C 631.348,470.799 638.682,457.299 643.5,442.5C 639.812,442.55 636.145,442.884 632.5,443.5C 630.119,443.512 628.452,442.512 627.5,440.5C 633.41,439.042 639.41,438.376 645.5,438.5C 644.996,429.135 644.996,419.801 645.5,410.5C 649.526,411.711 653.192,413.545 656.5,416C 656.07,417.434 655.236,418.601 654,419.5C 653.17,425.528 653.336,431.528 654.5,437.5C 656.5,435.5 658.5,433.5 660.5,431.5C 664.037,433.687 666.37,436.687 667.5,440.5C 665.833,440.5 664.167,440.5 662.5,440.5 Z"/></g>
<g><path style="opacity:1" fill="#302617" d="M 299.5,431.5 C 293.596,431.321 287.929,431.988 282.5,433.5C 276.931,433.376 271.598,434.043 266.5,435.5C 262.521,441.479 257.521,446.479 251.5,450.5C 251.167,450.333 250.833,450.167 250.5,450C 253.093,447.234 255.093,444.067 256.5,440.5C 252.226,439.912 247.892,439.912 243.5,440.5C 243.173,445.544 243.506,450.544 244.5,455.5C 247.003,453.505 249.836,452.171 253,451.5C 253.5,451.833 254,452.167 254.5,452.5C 250.858,454.975 247.358,457.642 244,460.5C 243.667,472.833 243.333,485.167 243,497.5C 241.201,502.65 237.701,505.483 232.5,506C 231.736,503.931 231.236,501.764 231,499.5C 228.5,497 226,494.5 223.5,492C 227.089,491.793 230.589,491.293 234,490.5C 234.831,483.476 234.664,476.476 233.5,469.5C 229.13,473.04 224.63,476.374 220,479.5C 216.09,476.431 214.257,472.431 214.5,467.5C 221.38,465.724 228.046,463.391 234.5,460.5C 235.49,454.355 235.823,448.022 235.5,441.5C 232.941,441.198 230.607,441.532 228.5,442.5C 225.934,442.344 223.434,442.678 221,443.5C 219.699,442.902 218.865,441.902 218.5,440.5C 223.752,439.177 229.085,438.51 234.5,438.5C 234.401,429.156 234.068,419.823 233.5,410.5C 234.791,410.263 235.791,410.596 236.5,411.5C 235.252,412.334 234.585,413.667 234.5,415.5C 234.667,416.833 234.833,418.167 235,419.5C 235.414,419.043 235.914,418.709 236.5,418.5C 237.823,420.682 239.49,421.349 241.5,420.5C 242.489,424.107 242.823,427.774 242.5,431.5C 240.533,431.261 238.699,431.594 237,432.5C 236.667,431.833 236.333,431.167 236,430.5C 235.333,433.167 235.333,435.833 236,438.5C 237.873,439.089 239.54,438.422 241,436.5C 241.333,436.833 241.667,437.167 242,437.5C 242.198,435.618 242.698,433.952 243.5,432.5C 243.215,434.288 243.548,435.955 244.5,437.5C 246.144,435.355 247.977,433.355 250,431.5C 253.186,432.764 255.852,434.764 258,437.5C 263.002,428.432 265.836,418.765 266.5,408.5C 270.556,410.025 274.556,411.859 278.5,414C 279.022,414.561 279.355,415.228 279.5,416C 275.08,419.927 272.08,424.76 270.5,430.5C 277.52,430.099 284.52,429.432 291.5,428.5C 292.8,425.568 294.8,423.234 297.5,421.5C 300.526,424.195 303.526,426.862 306.5,429.5C 306.291,430.086 305.957,430.586 305.5,431C 303.527,431.495 301.527,431.662 299.5,431.5 Z"/></g>
<g><path style="opacity:1" fill="#271d11" d="M 236.5,411.5 C 239.707,412.402 242.873,413.402 246,414.5C 246.722,416.661 246.055,418.328 244,419.5C 243.501,423.821 243.334,428.154 243.5,432.5C 242.698,433.952 242.198,435.618 242,437.5C 241.667,437.167 241.333,436.833 241,436.5C 239.54,438.422 237.873,439.089 236,438.5C 235.333,435.833 235.333,433.167 236,430.5C 236.333,431.167 236.667,431.833 237,432.5C 238.699,431.594 240.533,431.261 242.5,431.5C 242.823,427.774 242.489,424.107 241.5,420.5C 239.49,421.349 237.823,420.682 236.5,418.5C 235.914,418.709 235.414,419.043 235,419.5C 234.833,418.167 234.667,416.833 234.5,415.5C 234.585,413.667 235.252,412.334 236.5,411.5 Z"/></g>
<g><path style="opacity:1" fill="#9b9791" d="M 370.5,440.5 C 369.892,445.944 370.558,450.944 372.5,455.5C 371.791,456.404 370.791,456.737 369.5,456.5C 369.179,450.974 369.512,445.64 370.5,440.5 Z"/></g>
<g><path style="opacity:1" fill="#eeedec" d="M 410.5,444.5 C 413.167,444.5 415.833,444.5 418.5,444.5C 418.5,447.833 418.5,451.167 418.5,454.5C 415.609,455.403 412.609,455.736 409.5,455.5C 409.185,451.629 409.518,447.962 410.5,444.5 Z"/></g>
<g><path style="opacity:1" fill="#b9b5af" d="M 662.5,440.5 C 660.052,441.473 657.385,441.806 654.5,441.5C 654.5,444.5 654.5,447.5 654.5,450.5C 653.521,447.375 653.187,444.042 653.5,440.5C 656.5,440.5 659.5,440.5 662.5,440.5 Z"/></g>
<g><path style="opacity:1" fill="#eae9e7" d="M 395.5,445.5 C 397.5,445.5 399.5,445.5 401.5,445.5C 401.5,449.5 401.5,453.5 401.5,457.5C 398.167,457.5 394.833,457.5 391.5,457.5C 391.5,453.833 391.5,450.167 391.5,446.5C 393.099,446.768 394.432,446.434 395.5,445.5 Z"/></g>
<g><path style="opacity:1" fill="#dbd9d6" d="M 668.5,436.5 C 673.723,436.823 679.056,436.823 684.5,436.5C 684.5,442.5 684.5,448.5 684.5,454.5C 679.125,454.172 673.792,454.505 668.5,455.5C 670.418,458.106 673.084,459.106 676.5,458.5C 676.5,460.833 676.5,463.167 676.5,465.5C 676.649,466.552 676.483,467.552 676,468.5C 675.166,465.828 674.332,463.161 673.5,460.5C 672.311,459.571 670.978,459.238 669.5,459.5C 669.657,460.873 669.49,462.207 669,463.5C 668.667,461.5 668.333,459.5 668,457.5C 667.802,459.382 667.302,461.048 666.5,462.5C 666.66,460.801 666.494,459.134 666,457.5C 662.786,453.984 658.953,451.65 654.5,450.5C 656.144,450.286 657.644,450.62 659,451.5C 659.308,450.692 659.808,450.025 660.5,449.5C 662.517,450.174 664.183,451.341 665.5,453C 671.491,453.499 677.491,453.666 683.5,453.5C 683.5,448.167 683.5,442.833 683.5,437.5C 679.637,437.462 675.804,437.795 672,438.5C 670.319,438.392 669.152,437.725 668.5,436.5 Z"/></g>
<g><path style="opacity:1" fill="#2e2315" d="M 694.5,417.5 C 693.513,422.305 693.179,427.305 693.5,432.5C 697.042,432.813 700.375,432.479 703.5,431.5C 705.218,428.716 707.384,426.383 710,424.5C 714.767,426.431 717.934,429.764 719.5,434.5C 710.845,435.083 702.178,435.416 693.5,435.5C 693.785,440.897 693.451,446.23 692.5,451.5C 693.723,452.614 695.056,452.781 696.5,452C 698.35,449.982 700.35,448.149 702.5,446.5C 704.359,448.192 706.359,449.692 708.5,451C 712.748,454.852 712.248,458.019 707,460.5C 704.197,468.11 700.364,475.11 695.5,481.5C 698.663,483.916 701.996,486.082 705.5,488C 712.262,491.38 719.262,494.213 726.5,496.5C 720.362,498.734 714.695,501.734 709.5,505.5C 701.701,501.598 695.035,496.265 689.5,489.5C 679.744,497.545 668.744,503.212 656.5,506.5C 655.167,505.833 655.167,505.167 656.5,504.5C 667.667,499.573 677,492.24 684.5,482.5C 681.507,476.853 678.84,471.186 676.5,465.5C 676.5,463.167 676.5,460.833 676.5,458.5C 673.084,459.106 670.418,458.106 668.5,455.5C 673.792,454.505 679.125,454.172 684.5,454.5C 684.5,448.5 684.5,442.5 684.5,436.5C 679.056,436.823 673.723,436.823 668.5,436.5C 668.196,435.85 667.863,435.183 667.5,434.5C 673.128,433.505 678.794,433.171 684.5,433.5C 684.8,425.777 684.467,418.11 683.5,410.5C 684.167,410.167 684.833,409.833 685.5,409.5C 689.837,410.335 693.504,412.168 696.5,415C 696.361,416.301 695.695,417.134 694.5,417.5 Z"/></g>
<g><path style="opacity:1" fill="#e6e5e4" d="M 1198.5,448.5 C 1198.82,453.695 1198.49,458.695 1197.5,463.5C 1194.63,460.649 1191.13,458.982 1187,458.5C 1186.5,455.518 1186.34,452.518 1186.5,449.5C 1190.4,448.57 1194.4,448.237 1198.5,448.5 Z"/></g>
<g><path style="opacity:1" fill="#87837a" d="M 410.5,444.5 C 413.287,443.523 416.287,443.19 419.5,443.5C 419.815,447.371 419.482,451.038 418.5,454.5C 418.5,451.167 418.5,447.833 418.5,444.5C 415.833,444.5 413.167,444.5 410.5,444.5 Z"/></g>
<g><path style="opacity:1" fill="#a4a19e" d="M 1149.5,447.5 C 1149.83,447.5 1150.17,447.5 1150.5,447.5C 1150.5,451.167 1150.5,454.833 1150.5,458.5C 1152.5,458.5 1154.5,458.5 1156.5,458.5C 1154.39,459.468 1152.06,459.802 1149.5,459.5C 1149.5,455.5 1149.5,451.5 1149.5,447.5 Z"/></g>
<g><path style="opacity:1" fill="#a19c94" d="M 687.5,456.5 C 690.687,455.194 694.02,455.194 697.5,456.5C 697.376,457.107 697.043,457.44 696.5,457.5C 693.713,456.523 690.713,456.19 687.5,456.5 Z"/></g>
<g><path style="opacity:1" fill="#efefee" d="M 687.5,456.5 C 690.713,456.19 693.713,456.523 696.5,457.5C 696.657,458.873 696.49,460.207 696,461.5C 693.964,466.467 691.464,471.134 688.5,475.5C 683.603,470.373 680.269,464.373 678.5,457.5C 681.482,457.037 684.482,456.704 687.5,456.5 Z"/></g>
<g><path style="opacity:1" fill="#a9a6a1" d="M 979.5,439.5 C 973.669,440.415 967.669,441.082 961.5,441.5C 961.5,451.833 961.5,462.167 961.5,472.5C 960.505,461.679 960.172,450.679 960.5,439.5C 966.833,439.5 973.167,439.5 979.5,439.5 Z"/></g>
<g><path style="opacity:1" fill="#251b0e" d="M 1149.5,447.5 C 1149.5,451.5 1149.5,455.5 1149.5,459.5C 1152.06,459.802 1154.39,459.468 1156.5,458.5C 1157.43,457.432 1157.77,456.099 1157.5,454.5C 1159.58,454.624 1161.08,455.624 1162,457.5C 1162.67,456.748 1163.5,456.414 1164.5,456.5C 1164.52,458.028 1165.18,458.528 1166.5,458C 1169.81,451.101 1173.14,451.268 1176.5,458.5C 1176.5,459.167 1176.5,459.833 1176.5,460.5C 1176.17,460.5 1175.83,460.5 1175.5,460.5C 1171.83,460.5 1168.17,460.5 1164.5,460.5C 1164.5,473.833 1164.5,487.167 1164.5,500.5C 1163.83,503.167 1162.17,504.833 1159.5,505.5C 1158.5,505.5 1157.5,505.5 1156.5,505.5C 1157.19,490.843 1157.52,476.177 1157.5,461.5C 1154.83,461.5 1152.17,461.5 1149.5,461.5C 1147.19,461.007 1144.86,460.674 1142.5,460.5C 1142.33,454.158 1142.5,447.825 1143,441.5C 1143.33,444.833 1143.67,448.167 1144,451.5C 1144.92,453.632 1146.25,454.299 1148,453.5C 1148.19,451.292 1148.69,449.292 1149.5,447.5 Z"/></g>
<g><path style="opacity:1" fill="#2c2113" d="M 979.5,439.5 C 973.167,439.5 966.833,439.5 960.5,439.5C 960.172,450.679 960.505,461.679 961.5,472.5C 961.666,481.173 961.5,489.84 961,498.5C 958.247,504.126 953.747,507.126 947.5,507.5C 947.524,500.879 944.524,496.212 938.5,493.5C 942.5,492.833 946.5,492.167 950.5,491.5C 950.5,490.833 950.5,490.167 950.5,489.5C 951.659,479.008 951.825,468.341 951,457.5C 950.283,458.044 949.783,458.711 949.5,459.5C 941.004,471.439 930.337,481.106 917.5,488.5C 917.167,488.167 916.833,487.833 916.5,487.5C 930.007,475.129 940.007,460.463 946.5,443.5C 947.043,443.44 947.376,443.107 947.5,442.5C 941.101,441.324 934.767,441.657 928.5,443.5C 928.461,442.417 928.127,441.417 927.5,440.5C 931.501,439.701 935.501,439.035 939.5,438.5C 943.5,438.5 947.5,438.5 951.5,438.5C 951.824,431.646 951.491,424.979 950.5,418.5C 950.54,415.119 950.207,411.786 949.5,408.5C 955.248,408.678 959.915,410.845 963.5,415C 962.991,416.169 962.158,417.002 961,417.5C 960.5,423.825 960.334,430.158 960.5,436.5C 962.288,436.785 963.955,436.452 965.5,435.5C 966.701,433.091 968.367,431.091 970.5,429.5C 974.977,431.637 977.977,434.97 979.5,439.5 Z"/></g>
<g><path style="opacity:1" fill="#7f7a6f" d="M 1141.5,459.5 C 1137.17,460.167 1132.83,460.833 1128.5,461.5C 1127.96,461.44 1127.62,461.107 1127.5,460.5C 1132.12,459.507 1136.79,459.173 1141.5,459.5 Z"/></g>
<g><path style="opacity:1" fill="#eeedec" d="M 410.5,458.5 C 413.167,458.5 415.833,458.5 418.5,458.5C 418.851,460.869 419.018,463.203 419,465.5C 417.237,468.02 415.237,470.353 413,472.5C 411.026,468.049 410.193,463.382 410.5,458.5 Z"/></g>
<g><path style="opacity:1" fill="#2f2516" d="M 1164.5,456.5 C 1163.5,456.414 1162.67,456.748 1162,457.5C 1161.08,455.624 1159.58,454.624 1157.5,454.5C 1157.5,449.5 1157.5,444.5 1157.5,439.5C 1154.61,439.194 1151.95,439.527 1149.5,440.5C 1147.8,440.34 1146.13,440.506 1144.5,441C 1146.65,442.411 1148.98,443.245 1151.5,443.5C 1151.57,444.959 1151.23,446.292 1150.5,447.5C 1150.17,447.5 1149.83,447.5 1149.5,447.5C 1148.69,449.292 1148.19,451.292 1148,453.5C 1146.25,454.299 1144.92,453.632 1144,451.5C 1143.67,448.167 1143.33,444.833 1143,441.5C 1142.5,447.825 1142.33,454.158 1142.5,460.5C 1144.86,460.674 1147.19,461.007 1149.5,461.5C 1149.5,461.833 1149.5,462.167 1149.5,462.5C 1149.11,480.23 1141.44,493.897 1126.5,503.5C 1125.48,502.998 1125.31,502.332 1126,501.5C 1135.83,490.824 1141,478.158 1141.5,463.5C 1137.49,463.666 1133.49,463.499 1129.5,463C 1128.94,462.617 1128.61,462.117 1128.5,461.5C 1132.83,460.833 1137.17,460.167 1141.5,459.5C 1141.5,453.167 1141.5,446.833 1141.5,440.5C 1139.66,440.723 1137.82,441.057 1136,441.5C 1134.3,441.613 1133.13,440.947 1132.5,439.5C 1136.17,438.833 1139.83,438.167 1143.5,437.5C 1147.61,438.15 1151.11,437.15 1154,434.5C 1157.84,426.964 1159.68,418.964 1159.5,410.5C 1164.8,411.48 1169.14,413.98 1172.5,418C 1166.62,423.557 1160.95,429.557 1155.5,436C 1160.34,437.716 1163.51,436.216 1165,431.5C 1165.72,430.941 1166.56,430.608 1167.5,430.5C 1171.22,432.225 1173.89,434.891 1175.5,438.5C 1170.79,438.173 1166.12,438.507 1161.5,439.5C 1162.67,441.217 1164.34,441.884 1166.5,441.5C 1164.76,446.26 1164.09,451.26 1164.5,456.5 Z"/></g>
<g><path style="opacity:1" fill="#918c83" d="M 1176.5,458.5 C 1177.17,458.833 1177.83,459.167 1178.5,459.5C 1178.8,462.059 1178.47,464.393 1177.5,466.5C 1177.79,464.265 1177.46,462.265 1176.5,460.5C 1176.5,459.833 1176.5,459.167 1176.5,458.5 Z"/></g>
<g><path style="opacity:1" fill="#afaba4" d="M 1198.5,448.5 C 1199.47,450.607 1199.8,452.941 1199.5,455.5C 1199.82,458.898 1199.49,462.232 1198.5,465.5C 1197.7,465.043 1197.37,464.376 1197.5,463.5C 1198.49,458.695 1198.82,453.695 1198.5,448.5 Z"/></g>
<g><path style="opacity:1" fill="#2e2314" d="M 1040.5,415.5 C 1042.53,415.338 1044.53,415.505 1046.5,416C 1048,417.5 1049.5,419 1051,420.5C 1054.98,453.818 1072.15,477.485 1102.5,491.5C 1102.33,491.833 1102.17,492.167 1102,492.5C 1094.67,492.747 1088.5,495.581 1083.5,501C 1082.17,501.667 1080.83,501.667 1079.5,501C 1067.13,486.768 1057.96,470.601 1052,452.5C 1041.96,475.872 1025.3,492.538 1002,502.5C 1001.5,502.167 1001,501.833 1000.5,501.5C 1024.8,483.861 1040.3,460.527 1047,431.5C 1045.58,424.584 1041.41,421.918 1034.5,423.5C 1034.35,422.448 1034.52,421.448 1035,420.5C 1037.33,419.336 1039.16,417.67 1040.5,415.5 Z"/></g>
<g><path style="opacity:1" fill="#706960" d="M 1149.5,462.5 C 1149.5,462.167 1149.5,461.833 1149.5,461.5C 1152.17,461.5 1154.83,461.5 1157.5,461.5C 1157.52,476.177 1157.19,490.843 1156.5,505.5C 1157.5,505.5 1158.5,505.5 1159.5,505.5C 1158.43,506.434 1157.1,506.768 1155.5,506.5C 1155.94,491.836 1156.28,477.17 1156.5,462.5C 1154.17,462.5 1151.83,462.5 1149.5,462.5 Z"/></g>
<g><path style="opacity:1" fill="#93918a" d="M 1175.5,460.5 C 1172.38,461.479 1169.04,461.813 1165.5,461.5C 1165.83,474.677 1165.5,487.677 1164.5,500.5C 1164.5,487.167 1164.5,473.833 1164.5,460.5C 1168.17,460.5 1171.83,460.5 1175.5,460.5 Z"/></g>
<g><path style="opacity:1" fill="#2e2415" d="M 552.5,423.5 C 563.785,426.158 566.952,432.824 562,443.5C 558.62,447.103 554.787,450.103 550.5,452.5C 569.653,456.809 574.82,467.809 566,485.5C 560.744,491.378 554.244,495.045 546.5,496.5C 541.13,496.608 535.797,496.275 530.5,495.5C 523.448,492.87 521.781,488.37 525.5,482C 531.955,480.945 535.289,483.778 535.5,490.5C 545.474,494.783 552.308,491.783 556,481.5C 559.76,465.436 553.593,457.936 537.5,459C 535.336,459.914 533.336,461.081 531.5,462.5C 530.28,462.113 529.613,461.28 529.5,460C 530.34,458.233 531.673,456.899 533.5,456C 538.326,453.754 542.992,451.254 547.5,448.5C 552.181,444.142 553.681,438.809 552,432.5C 548.34,428.633 543.84,427.466 538.5,429C 534.66,431.674 531.327,434.841 528.5,438.5C 528.211,431.084 531.878,426.417 539.5,424.5C 543.798,423.8 548.131,423.467 552.5,423.5 Z"/></g>
<g><path style="opacity:1" fill="#2d2213" d="M 911.5,429.5 C 910.527,431.948 910.194,434.615 910.5,437.5C 912.099,437.768 913.432,437.434 914.5,436.5C 915.816,434.683 917.316,433.017 919,431.5C 923.107,432.77 925.607,435.436 926.5,439.5C 921.13,439.392 915.797,439.725 910.5,440.5C 910.183,443.572 910.516,446.572 911.5,449.5C 915.384,450.441 919.051,451.941 922.5,454C 926.5,457.667 926.5,461.333 922.5,465C 921.167,465.667 919.833,465.667 918.5,465C 916.811,462.443 915.644,459.609 915,456.5C 914.059,454.939 912.892,453.605 911.5,452.5C 910.451,468.179 910.284,483.845 911,499.5C 908.634,502.2 905.968,504.534 903,506.5C 902.228,506.355 901.561,506.022 901,505.5C 900.833,503.5 900.667,501.5 900.5,499.5C 901.865,486.523 902.365,473.523 902,460.5C 895.967,470.87 888.133,479.704 878.5,487C 877.668,487.688 877.002,487.521 876.5,486.5C 886.973,473.389 894.973,458.889 900.5,443C 895.799,442.281 891.133,442.447 886.5,443.5C 884.853,442.722 883.52,441.556 882.5,440C 889.164,439.389 895.83,438.889 902.5,438.5C 902.721,429.134 902.387,419.801 901.5,410.5C 906.258,410.729 910.425,412.396 914,415.5C 911.951,419.688 911.117,424.355 911.5,429.5 Z"/></g>
<g><path style="opacity:1" fill="#2e2415" d="M 279.5,437.5 C 281.319,438.584 282.985,439.918 284.5,441.5C 281.439,445.012 280.772,449.012 282.5,453.5C 284.541,452.764 286.541,451.931 288.5,451C 290.24,448.965 292.074,447.131 294,445.5C 297.75,447.249 300.917,449.749 303.5,453C 302.685,454.643 301.685,456.143 300.5,457.5C 299.795,463.045 298.961,468.712 298,474.5C 296.147,479.527 292.647,482.527 287.5,483.5C 288.039,479.584 286.706,476.584 283.5,474.5C 285.156,472.94 287.156,471.94 289.5,471.5C 290.489,466.025 290.822,460.358 290.5,454.5C 289.209,454.263 288.209,454.596 287.5,455.5C 285.597,455.796 283.93,456.463 282.5,457.5C 281.507,465.65 281.174,473.983 281.5,482.5C 280.284,484.451 278.618,485.951 276.5,487C 275.563,487.692 274.897,487.525 274.5,486.5C 274.831,477.808 274.498,469.141 273.5,460.5C 272.893,460.624 272.56,460.957 272.5,461.5C 270.559,461.869 268.725,462.536 267,463.5C 266.333,472.167 266.333,480.833 267,489.5C 268.214,491.049 269.714,492.215 271.5,493C 281.774,494.238 291.774,493.238 301.5,490C 305.114,484.054 307.114,477.554 307.5,470.5C 308.5,470.5 309.5,470.5 310.5,470.5C 310.178,476.358 310.511,482.025 311.5,487.5C 316.752,491.34 316.752,495.173 311.5,499C 305.791,501.594 299.791,502.927 293.5,503C 283.679,504.115 274.012,503.448 264.5,501C 261.044,498.246 259.044,494.746 258.5,490.5C 258.831,482.804 258.497,475.138 257.5,467.5C 256.893,467.624 256.56,467.957 256.5,468.5C 254.516,468.383 252.85,469.05 251.5,470.5C 249.02,469.585 248.353,468.085 249.5,466C 252.432,464.855 255.432,464.022 258.5,463.5C 258.172,458.125 258.505,452.792 259.5,447.5C 262.442,448.819 265.442,449.985 268.5,451C 269.022,451.561 269.355,452.228 269.5,453C 267.621,454.997 267.288,457.164 268.5,459.5C 269.417,458.873 270.417,458.539 271.5,458.5C 273.463,451.576 274.13,444.243 273.5,436.5C 275.5,436.833 277.5,437.167 279.5,437.5 Z"/></g>
<g><path style="opacity:1" fill="#6c655b" d="M 272.5,461.5 C 272.56,460.957 272.893,460.624 273.5,460.5C 274.498,469.141 274.831,477.808 274.5,486.5C 273.833,478.167 273.167,469.833 272.5,461.5 Z"/></g>
<g><path style="opacity:1" fill="#b2b0a8" d="M 287.5,455.5 C 288.209,454.596 289.209,454.263 290.5,454.5C 290.822,460.358 290.489,466.025 289.5,471.5C 290.113,465.729 289.446,460.396 287.5,455.5 Z"/></g>
<g><path style="opacity:1" fill="#f0f0ef" d="M 287.5,455.5 C 289.446,460.396 290.113,465.729 289.5,471.5C 287.167,471.5 284.833,471.5 282.5,471.5C 282.5,466.833 282.5,462.167 282.5,457.5C 283.93,456.463 285.597,455.796 287.5,455.5 Z"/></g>
<g><path style="opacity:1" fill="#cbcac6" d="M 655.5,456.5 C 654.505,467.654 654.172,478.988 654.5,490.5C 653.34,478.34 653.173,466.007 654,453.5C 655.039,454.244 655.539,455.244 655.5,456.5 Z"/></g>
<g><path style="opacity:1" fill="#b3b2ab" d="M 950.5,489.5 C 950.827,479.319 950.494,469.319 949.5,459.5C 949.783,458.711 950.283,458.044 951,457.5C 951.825,468.341 951.659,479.008 950.5,489.5 Z"/></g>
<g><path style="opacity:1" fill="#aba69f" d="M 282.5,457.5 C 282.5,462.167 282.5,466.833 282.5,471.5C 284.833,471.5 287.167,471.5 289.5,471.5C 287.156,471.94 285.156,472.94 283.5,474.5C 282.833,477.167 282.167,479.833 281.5,482.5C 281.174,473.983 281.507,465.65 282.5,457.5 Z"/></g>
<g><path style="opacity:1" fill="#848077" d="M 643.5,462.5 C 643.56,461.957 643.893,461.624 644.5,461.5C 645.821,469.991 645.821,478.324 644.5,486.5C 644.826,478.316 644.492,470.316 643.5,462.5 Z"/></g>
<g><path style="opacity:1" fill="#eaeae8" d="M 300.5,457.5 C 300.336,460.187 300.503,462.854 301,465.5C 301.333,463.833 301.667,462.167 302,460.5C 302.192,462.577 302.692,464.577 303.5,466.5C 308.234,466.17 312.567,467.67 316.5,471C 316.784,472.956 316.784,475.123 316.5,477.5C 315.178,477.33 314.011,477.663 313,478.5C 311.711,481.351 311.211,484.351 311.5,487.5C 310.511,482.025 310.178,476.358 310.5,470.5C 309.5,470.5 308.5,470.5 307.5,470.5C 307.114,477.554 305.114,484.054 301.5,490C 291.774,493.238 281.774,494.238 271.5,493C 269.714,492.215 268.214,491.049 267,489.5C 266.333,480.833 266.333,472.167 267,463.5C 268.725,462.536 270.559,461.869 272.5,461.5C 273.167,469.833 273.833,478.167 274.5,486.5C 274.897,487.525 275.563,487.692 276.5,487C 278.618,485.951 280.284,484.451 281.5,482.5C 282.167,479.833 282.833,477.167 283.5,474.5C 286.706,476.584 288.039,479.584 287.5,483.5C 292.647,482.527 296.147,479.527 298,474.5C 298.961,468.712 299.795,463.045 300.5,457.5 Z"/></g>
<g><path style="opacity:1" fill="#b4b3ac" d="M 256.5,468.5 C 256.56,467.957 256.893,467.624 257.5,467.5C 258.497,475.138 258.831,482.804 258.5,490.5C 257.833,483.167 257.167,475.833 256.5,468.5 Z"/></g>
<g><path style="opacity:1" fill="#b8b4ae" d="M 803.5,493.5 C 802.673,488.349 802.173,483.016 802,477.5C 800.644,478.38 799.144,478.714 797.5,478.5C 799.214,477.262 801.214,476.595 803.5,476.5C 803.5,482.167 803.5,487.833 803.5,493.5 Z"/></g>
<g><path style="opacity:1" fill="#89857d" d="M 435.5,477.5 C 435.56,476.957 435.893,476.624 436.5,476.5C 437.494,481.456 437.827,486.456 437.5,491.5C 436.833,486.833 436.167,482.167 435.5,477.5 Z"/></g>
<g><path style="opacity:1" fill="#676257" d="M 435.5,477.5 C 435.741,479.898 435.074,481.898 433.5,483.5C 433.259,481.102 433.926,479.102 435.5,477.5 Z"/></g>
<g><path style="opacity:1" fill="#98958d" d="M 950.5,491.5 C 946.5,492.167 942.5,492.833 938.5,493.5C 937.957,493.44 937.624,493.107 937.5,492.5C 941.783,491.508 946.116,491.174 950.5,491.5 Z"/></g>
<g><path style="opacity:1" fill="#302514" d="M 1270.5,481.5 C 1275.59,480.428 1279.42,482.095 1282,486.5C 1284.31,498.896 1279.64,507.23 1268,511.5C 1267.5,511.167 1267,510.833 1266.5,510.5C 1270.98,507.348 1273.31,503.015 1273.5,497.5C 1268.79,497.289 1266.12,494.789 1265.5,490C 1266.14,486.537 1267.8,483.704 1270.5,481.5 Z"/></g>
<g><path style="opacity:1" fill="#2d2315" d="M 812.5,450.5 C 811.189,454.683 811.189,459.016 812.5,463.5C 813.107,463.376 813.44,463.043 813.5,462.5C 818.651,456.857 823.318,450.857 827.5,444.5C 831.783,446.957 835.116,450.29 837.5,454.5C 830.263,461.323 821.93,466.99 812.5,471.5C 806.799,488.289 812.465,494.789 829.5,491C 836.263,491.236 840.43,488.069 842,481.5C 843.156,477.56 843.99,473.56 844.5,469.5C 845.5,469.5 846.5,469.5 847.5,469.5C 847.334,474.844 847.501,480.177 848,485.5C 849.376,488.053 850.543,490.72 851.5,493.5C 851.124,495.383 850.124,496.883 848.5,498C 844.768,500.133 840.768,501.466 836.5,502C 828.833,502.667 821.167,502.667 813.5,502C 808.142,501.471 804.809,498.638 803.5,493.5C 803.5,487.833 803.5,482.167 803.5,476.5C 801.214,476.595 799.214,477.262 797.5,478.5C 794.91,478.918 792.577,479.918 790.5,481.5C 790.167,481.167 789.833,480.833 789.5,480.5C 793.535,477.143 797.868,474.143 802.5,471.5C 803.809,461.136 803.809,450.802 802.5,440.5C 802.833,440.167 803.167,439.833 803.5,439.5C 806.796,440.765 810.129,441.932 813.5,443C 814.357,443.689 815.023,444.522 815.5,445.5C 813.703,446.695 812.703,448.362 812.5,450.5 Z"/></g>
<g><path style="opacity:1" fill="#7b766a" d="M 812.5,450.5 C 812.183,454.702 812.517,458.702 813.5,462.5C 813.44,463.043 813.107,463.376 812.5,463.5C 811.189,459.016 811.189,454.683 812.5,450.5 Z"/></g>
<g><path style="opacity:1" fill="#2d2214" d="M 1180.5,437.5 C 1181.32,440.305 1181.82,443.305 1182,446.5C 1184.53,445.481 1186.03,446.481 1186.5,449.5C 1186.34,452.518 1186.5,455.518 1187,458.5C 1191.13,458.982 1194.63,460.649 1197.5,463.5C 1197.37,464.376 1197.7,465.043 1198.5,465.5C 1199.49,462.232 1199.82,458.898 1199.5,455.5C 1200.16,456.398 1200.82,457.398 1201.5,458.5C 1203.24,457.943 1204.9,457.61 1206.5,457.5C 1207.47,459.396 1207.8,461.396 1207.5,463.5C 1207.33,471.84 1207.5,480.173 1208,488.5C 1209.97,492.186 1212.8,493.186 1216.5,491.5C 1218.5,485.479 1220.5,479.479 1222.5,473.5C 1222.89,481.856 1224.56,489.856 1227.5,497.5C 1227.62,500.377 1226.29,502.044 1223.5,502.5C 1218.13,502.608 1212.8,502.275 1207.5,501.5C 1202.42,498.293 1199.75,493.626 1199.5,487.5C 1199.67,481.158 1199.5,474.825 1199,468.5C 1198.28,469.044 1197.78,469.711 1197.5,470.5C 1196.34,472.377 1194.67,472.877 1192.5,472C 1190.97,469.034 1189.8,465.867 1189,462.5C 1188.31,461.643 1187.48,460.977 1186.5,460.5C 1185.08,469.165 1184.75,477.832 1185.5,486.5C 1189.09,484.868 1192.76,483.534 1196.5,482.5C 1197.34,482.842 1197.67,483.508 1197.5,484.5C 1190.42,489.41 1183.75,494.91 1177.5,501C 1176.5,501.667 1175.5,501.667 1174.5,501C 1172.58,498.485 1170.91,495.818 1169.5,493C 1169.64,492.228 1169.98,491.561 1170.5,491C 1172.1,490.727 1173.6,490.227 1175,489.5C 1175.45,481.761 1176.28,474.094 1177.5,466.5C 1178.47,464.393 1178.8,462.059 1178.5,459.5C 1178.5,458.167 1178.5,456.833 1178.5,455.5C 1179.95,449.726 1180.61,443.726 1180.5,437.5 Z"/></g>
<g><path style="opacity:1" fill="#a6a39d" d="M 1199.5,487.5 C 1198.83,486.5 1198.17,485.5 1197.5,484.5C 1197.67,483.508 1197.34,482.842 1196.5,482.5C 1197.68,480.616 1198.34,478.449 1198.5,476C 1198.49,473.967 1198.16,472.134 1197.5,470.5C 1197.78,469.711 1198.28,469.044 1199,468.5C 1199.5,474.825 1199.67,481.158 1199.5,487.5 Z"/></g>
<g><path style="opacity:1" fill="#eeedec" d="M 1197.5,470.5 C 1198.16,472.134 1198.49,473.967 1198.5,476C 1198.34,478.449 1197.68,480.616 1196.5,482.5C 1192.76,483.534 1189.09,484.868 1185.5,486.5C 1184.75,477.832 1185.08,469.165 1186.5,460.5C 1187.48,460.977 1188.31,461.643 1189,462.5C 1189.8,465.867 1190.97,469.034 1192.5,472C 1194.67,472.877 1196.34,472.377 1197.5,470.5 Z"/></g>
<g><path style="opacity:1" fill="#2b2215" d="M 783.5,441.5 C 784.959,441.433 786.292,441.766 787.5,442.5C 790.242,444.208 792.575,446.375 794.5,449C 789.581,453.085 785.581,457.918 782.5,463.5C 784.167,464.5 785.5,465.833 786.5,467.5C 786.192,468.308 785.692,468.975 785,469.5C 784.283,478.517 784.45,487.517 785.5,496.5C 785.529,503.98 782.029,507.313 775,506.5C 775.206,497.674 775.706,488.84 776.5,480C 776.167,476.833 775.833,473.667 775.5,470.5C 768.678,477.324 761.011,482.991 752.5,487.5C 752.167,487.167 751.833,486.833 751.5,486.5C 762.302,476.864 771.469,465.864 779,453.5C 781.003,449.654 782.503,445.654 783.5,441.5 Z"/></g>
<g><path style="opacity:1" fill="#6e6864" d="M 530.5,495.5 C 535.797,496.275 541.13,496.608 546.5,496.5C 544.527,497.163 542.361,497.496 540,497.5C 536.523,497.672 533.356,497.006 530.5,495.5 Z"/></g>
<g><path style="opacity:1" fill="#5d554c" d="M 1207.5,501.5 C 1212.8,502.275 1218.13,502.608 1223.5,502.5C 1221.53,503.163 1219.36,503.496 1217,503.5C 1213.52,503.672 1210.36,503.006 1207.5,501.5 Z"/></g>
<g><path style="opacity:1" fill="#9d9891" d="M 666.5,580.5 C 664.917,582.508 663.917,584.841 663.5,587.5C 663.5,584.833 663.5,582.167 663.5,579.5C 664.791,579.263 665.791,579.596 666.5,580.5 Z"/></g>
<g><path style="opacity:1" fill="#2e2415" d="M 454.5,579.5 C 459.52,578.873 464.187,579.706 468.5,582C 470.991,584.968 471.157,588.135 469,591.5C 466.936,592.591 464.769,592.758 462.5,592C 460.963,589.72 459.797,587.22 459,584.5C 457.242,582.917 455.742,581.25 454.5,579.5 Z"/></g>
<g><path style="opacity:1" fill="#635d51" d="M 825.5,591.5 C 828.5,591.5 831.5,591.5 834.5,591.5C 825.552,592.974 816.552,593.974 807.5,594.5C 806.957,594.44 806.624,594.107 806.5,593.5C 812.988,592.833 819.321,592.167 825.5,591.5 Z"/></g>
<g><path style="opacity:1" fill="#b0aca5" d="M 309.5,583.5 C 310.483,587.298 310.817,591.298 310.5,595.5C 307.833,595.5 305.167,595.5 302.5,595.5C 304.607,594.532 306.941,594.198 309.5,594.5C 309.5,590.833 309.5,587.167 309.5,583.5 Z"/></g>
<g><path style="opacity:1" fill="#2e2416" d="M 340.5,598.5 C 341.043,598.44 341.376,598.107 341.5,597.5C 336.014,596.185 330.68,596.185 325.5,597.5C 315.981,597.677 306.648,598.344 297.5,599.5C 294.833,599.5 292.167,599.5 289.5,599.5C 290.057,605.394 288.557,610.727 285,615.5C 276.347,621.89 273.014,619.557 275,608.5C 280.345,603.797 284.178,598.13 286.5,591.5C 288.217,592.668 288.884,594.335 288.5,596.5C 293.23,596.717 297.897,596.383 302.5,595.5C 305.167,595.5 307.833,595.5 310.5,595.5C 310.817,591.298 310.483,587.298 309.5,583.5C 308.477,581.154 307.477,578.821 306.5,576.5C 312.682,576.228 318.182,577.895 323,581.5C 323.722,583.661 323.055,585.328 321,586.5C 320.503,589.146 320.336,591.813 320.5,594.5C 327.515,594.271 334.515,593.771 341.5,593C 342.906,590.551 344.906,589.551 347.5,590C 350.369,593.204 353.535,596.037 357,598.5C 358.187,600.044 358.52,601.711 358,603.5C 353.586,604.303 349.086,604.803 344.5,605C 342.336,605.914 340.336,607.081 338.5,608.5C 338.167,608 337.833,607.5 337.5,607C 338.803,604.256 339.803,601.423 340.5,598.5 Z"/></g>
<g><path style="opacity:1" fill="#817972" d="M 325.5,597.5 C 330.68,596.185 336.014,596.185 341.5,597.5C 341.376,598.107 341.043,598.44 340.5,598.5C 335.695,597.513 330.695,597.179 325.5,597.5 Z"/></g>
<g><path style="opacity:1" fill="#281f14" d="M 772.5,582.5 C 776.646,583.791 780.479,585.791 784,588.5C 786.402,593.114 785.902,597.281 782.5,601C 780.097,601.63 778.263,600.797 777,598.5C 776.667,595.5 776.333,592.5 776,589.5C 774.733,587.186 773.566,584.852 772.5,582.5 Z"/></g>
<g><path style="opacity:1" fill="#2a2013" d="M 1197.5,610.5 C 1195.74,609.448 1195.08,607.781 1195.5,605.5C 1191.63,605.185 1187.96,605.518 1184.5,606.5C 1183.17,606.5 1181.83,606.5 1180.5,606.5C 1174.64,606.178 1168.98,606.511 1163.5,607.5C 1163.71,609.144 1163.38,610.644 1162.5,612C 1160.42,613.64 1158.09,614.806 1155.5,615.5C 1154.89,615.376 1154.56,615.043 1154.5,614.5C 1155.55,608.007 1155.55,601.674 1154.5,595.5C 1153.56,590.195 1153.39,584.861 1154,579.5C 1156.9,580.703 1159.74,582.036 1162.5,583.5C 1170.54,584.764 1178.54,584.431 1186.5,582.5C 1189.25,582.813 1191.91,582.48 1194.5,581.5C 1195.54,579.625 1197.04,578.292 1199,577.5C 1202.26,579.093 1205.26,581.093 1208,583.5C 1208.72,585.661 1208.05,587.328 1206,588.5C 1205.83,594.528 1205.33,600.528 1204.5,606.5C 1201.98,607.592 1199.64,608.926 1197.5,610.5 Z"/></g>
<g><path style="opacity:1" fill="#efeeed" d="M 1174.5,586.5 C 1181.17,586.5 1187.83,586.5 1194.5,586.5C 1194.5,591.833 1194.5,597.167 1194.5,602.5C 1193.83,602.5 1193.17,602.5 1192.5,602.5C 1182.84,602.878 1173.17,603.211 1163.5,603.5C 1163.5,601.167 1163.5,598.833 1163.5,596.5C 1168.5,596.5 1173.5,596.5 1178.5,596.5C 1182.5,596.5 1186.5,596.5 1190.5,596.5C 1190.74,595.209 1190.4,594.209 1189.5,593.5C 1181,592.633 1172.33,592.633 1163.5,593.5C 1163.5,591.5 1163.5,589.5 1163.5,587.5C 1167.12,586.756 1170.79,586.423 1174.5,586.5 Z"/></g>
<g><path style="opacity:1" fill="#837d72" d="M 1189.5,593.5 C 1190.4,594.209 1190.74,595.209 1190.5,596.5C 1186.5,596.5 1182.5,596.5 1178.5,596.5C 1182.44,596.125 1186.11,595.125 1189.5,593.5 Z"/></g>
<g><path style="opacity:1" fill="#908d85" d="M 1174.5,586.5 C 1181.31,585.509 1188.31,585.175 1195.5,585.5C 1195.82,591.358 1195.49,597.025 1194.5,602.5C 1194.5,597.167 1194.5,591.833 1194.5,586.5C 1187.83,586.5 1181.17,586.5 1174.5,586.5 Z"/></g>
<g><path style="opacity:1" fill="#5f5a4f" d="M 1186.5,582.5 C 1178.54,584.431 1170.54,584.764 1162.5,583.5C 1170.51,583.269 1178.51,582.935 1186.5,582.5 Z"/></g>
<g><path style="opacity:1" fill="#bbb8b4" d="M 325.5,597.5 C 316.393,599.225 307.06,599.892 297.5,599.5C 306.648,598.344 315.981,597.677 325.5,597.5 Z"/></g>
<g><path style="opacity:1" fill="#9f9e99" d="M 811.5,597.5 C 813.265,596.539 815.265,596.205 817.5,596.5C 817.815,600.371 817.482,604.038 816.5,607.5C 816.5,604.167 816.5,600.833 816.5,597.5C 814.833,597.5 813.167,597.5 811.5,597.5 Z"/></g>
<g><path style="opacity:1" fill="#a19e96" d="M 938.5,588.5 C 938.5,592.167 938.5,595.833 938.5,599.5C 942.833,599.5 947.167,599.5 951.5,599.5C 947.03,600.486 942.363,600.819 937.5,600.5C 937.183,596.298 937.517,592.298 938.5,588.5 Z"/></g>
<g><path style="opacity:1" fill="#645e53" d="M 1154.5,595.5 C 1155.55,601.674 1155.55,608.007 1154.5,614.5C 1154.08,608.355 1154.08,602.022 1154.5,595.5 Z"/></g>
<g><path style="opacity:1" fill="#2f2414" d="M 552.5,594.5 C 549.564,597.521 547.231,601.021 545.5,605C 545.24,622.271 545.574,639.438 546.5,656.5C 548.009,665.637 544.342,671.304 535.5,673.5C 536.39,654.173 536.557,634.84 536,615.5C 529.918,620.748 523.418,625.415 516.5,629.5C 516.167,629.167 515.833,628.833 515.5,628.5C 529.925,614.4 540.259,597.733 546.5,578.5C 550.896,581.025 554.896,584.025 558.5,587.5C 555.764,589.234 553.764,591.567 552.5,594.5 Z"/></g>
<g><path style="opacity:1" fill="#2b2013" d="M 805.5,606.5 C 801.154,606.666 796.821,606.499 792.5,606C 794.708,605.809 796.708,605.309 798.5,604.5C 799.692,602.122 801.359,600.122 803.5,598.5C 805.576,600.288 807.743,601.954 810,603.5C 810.483,604.448 810.649,605.448 810.5,606.5C 808.833,606.5 807.167,606.5 805.5,606.5 Z"/></g>
<g><path style="opacity:1" fill="#98968b" d="M 1192.5,602.5 C 1182.86,604.29 1173.2,604.624 1163.5,603.5C 1173.17,603.211 1182.84,602.878 1192.5,602.5 Z"/></g>
<g><path style="opacity:1" fill="#b1aea9" d="M 475.5,605.5 C 467.736,607.215 459.736,607.882 451.5,607.5C 459.299,606.183 467.299,605.517 475.5,605.5 Z"/></g>
<g><path style="opacity:1" fill="#ecebea" d="M 807.5,588.5 C 807.082,589.222 806.416,589.722 805.5,590C 806.899,590.595 808.232,590.428 809.5,589.5C 810.696,589.846 810.696,590.346 809.5,591C 814.823,591.499 820.156,591.666 825.5,591.5C 819.321,592.167 812.988,592.833 806.5,593.5C 806.624,594.107 806.957,594.44 807.5,594.5C 808.262,596.262 809.596,597.262 811.5,597.5C 813.167,597.5 814.833,597.5 816.5,597.5C 816.5,600.833 816.5,604.167 816.5,607.5C 815.275,612.29 814.608,617.29 814.5,622.5C 814.5,623.167 814.5,623.833 814.5,624.5C 813.5,629.833 812.5,635.167 811.5,640.5C 811.631,639.761 811.464,639.094 811,638.5C 810.667,640.167 810.333,641.833 810,643.5C 809.517,642.552 809.351,641.552 809.5,640.5C 807.833,640.5 806.167,640.5 804.5,640.5C 804.33,641.822 804.663,642.989 805.5,644C 804.107,645.171 803.273,646.671 803,648.5C 802.333,644.833 802.333,641.167 803,637.5C 803.308,638.308 803.808,638.975 804.5,639.5C 805.719,638.737 806.719,637.737 807.5,636.5C 808.086,636.709 808.586,637.043 809,637.5C 810.137,633.63 808.637,631.797 804.5,632C 804.833,631.667 805.167,631.333 805.5,631C 804.207,630.51 802.873,630.343 801.5,630.5C 801.829,643.344 801.495,656.011 800.5,668.5C 800.5,655.5 800.5,642.5 800.5,629.5C 813.439,631.798 815.272,628.798 806,620.5C 804.624,621.705 803.458,623.038 802.5,624.5C 801.883,624.611 801.383,624.944 801,625.5C 800.501,621.848 800.335,618.182 800.5,614.5C 801.806,613.533 802.473,612.199 802.5,610.5C 800.5,610.167 798.5,609.833 796.5,609.5C 799.203,607.89 802.203,606.89 805.5,606.5C 807.167,606.5 808.833,606.5 810.5,606.5C 810.649,605.448 810.483,604.448 810,603.5C 807.743,601.954 805.576,600.288 803.5,598.5C 801.359,600.122 799.692,602.122 798.5,604.5C 796.396,604.799 794.396,604.466 792.5,603.5C 796.619,598.759 800.619,593.926 804.5,589C 805.448,588.517 806.448,588.351 807.5,588.5 Z"/></g>
<g><path style="opacity:1" fill="#7a7369" d="M 1163.5,607.5 C 1168.98,606.511 1174.64,606.178 1180.5,606.5C 1178.5,607.167 1176.5,607.833 1174.5,608.5C 1173.66,608.842 1173.33,609.508 1173.5,610.5C 1172.6,609.791 1172.26,608.791 1172.5,607.5C 1169.5,607.5 1166.5,607.5 1163.5,607.5 Z"/></g>
<g><path style="opacity:1" fill="#241b0f" d="M 338.5,613.5 C 329.494,613.666 320.494,613.5 311.5,613C 315.688,612.824 319.688,612.324 323.5,611.5C 324.766,608.398 326.933,606.065 330,604.5C 332.656,606.486 335.323,608.486 338,610.5C 338.483,611.448 338.649,612.448 338.5,613.5 Z"/></g>
<g><path style="opacity:1" fill="#6b655c" d="M 1184.5,606.5 C 1187.96,605.518 1191.63,605.185 1195.5,605.5C 1195.08,607.781 1195.74,609.448 1197.5,610.5C 1196.79,611.404 1195.79,611.737 1194.5,611.5C 1194.5,609.833 1194.5,608.167 1194.5,606.5C 1191.17,606.5 1187.83,606.5 1184.5,606.5 Z"/></g>
<g><path style="opacity:1" fill="#2d2315" d="M 596.5,619.5 C 596.046,617.741 596.046,615.741 596.5,613.5C 597.008,611.135 597.675,608.801 598.5,606.5C 588.482,605.243 578.482,605.41 568.5,607C 564.642,613.188 559.808,618.355 554,622.5C 553.5,622.167 553,621.833 552.5,621.5C 557.209,615.417 560.875,608.75 563.5,601.5C 567.063,593.913 569.063,585.913 569.5,577.5C 574.787,579.142 579.454,581.809 583.5,585.5C 578.312,590.166 574.312,595.833 571.5,602.5C 572.833,602.833 574.167,603.167 575.5,603.5C 583.152,602.808 590.819,602.308 598.5,602C 599.641,599.692 601.308,597.859 603.5,596.5C 607.777,599.273 611.61,602.607 615,606.5C 615.684,607.784 615.517,608.951 614.5,610C 612.167,610.333 609.833,610.667 607.5,611C 603.957,614.049 600.291,616.882 596.5,619.5 Z"/></g>
<g><path style="opacity:1" fill="#564d42" d="M 323.5,611.5 C 319.688,612.324 315.688,612.824 311.5,613C 320.494,613.5 329.494,613.666 338.5,613.5C 326.006,614.508 313.34,615.175 300.5,615.5C 303.305,614.681 306.305,614.181 309.5,614C 303.984,613.183 298.65,613.349 293.5,614.5C 292.957,614.44 292.624,614.107 292.5,613.5C 302.804,612.354 313.137,611.687 323.5,611.5 Z"/></g>
<g><path style="opacity:1" fill="#908b82" d="M 816.5,607.5 C 816.698,612.75 816.031,617.75 814.5,622.5C 814.608,617.29 815.275,612.29 816.5,607.5 Z"/></g>
<g><path style="opacity:1" fill="#231a0e" d="M 300.5,615.5 C 298.533,615.261 296.699,615.594 295,616.5C 294.283,615.956 293.783,615.289 293.5,614.5C 298.65,613.349 303.984,613.183 309.5,614C 306.305,614.181 303.305,614.681 300.5,615.5 Z"/></g>
<g><path style="opacity:1" fill="#312616" d="M 574.5,672.5 C 573.796,668.114 571.463,664.78 567.5,662.5C 566.614,661.675 566.281,660.675 566.5,659.5C 570.167,659.5 573.833,659.5 577.5,659.5C 577.5,642.833 577.5,626.167 577.5,609.5C 582.038,609.792 586.038,611.292 589.5,614C 588.991,615.169 588.158,616.002 587,616.5C 586.397,629.507 586.563,642.507 587.5,655.5C 588.652,663.081 586.652,669.581 581.5,675C 577.877,677.405 575.543,676.572 574.5,672.5 Z"/></g>
<g><path style="opacity:1" fill="#a19f97" d="M 1174.5,612.5 C 1175.46,614.265 1175.79,616.265 1175.5,618.5C 1171.83,618.5 1168.17,618.5 1164.5,618.5C 1167.62,617.521 1170.96,617.187 1174.5,617.5C 1174.5,615.833 1174.5,614.167 1174.5,612.5 Z"/></g>
<g><path style="opacity:1" fill="#271e12" d="M 1174.5,608.5 C 1178.49,608.764 1182.16,609.764 1185.5,611.5C 1185.5,613.5 1185.5,615.5 1185.5,617.5C 1194.37,617.581 1203.04,616.915 1211.5,615.5C 1212.82,612.474 1214.82,610.141 1217.5,608.5C 1222.55,610.216 1225.88,613.549 1227.5,618.5C 1214.3,618.356 1201.3,619.023 1188.5,620.5C 1186.17,620.5 1183.83,620.5 1181.5,620.5C 1165.49,621.344 1149.49,622.344 1133.5,623.5C 1132.61,622.739 1131.94,621.739 1131.5,620.5C 1142.45,618.994 1153.45,618.327 1164.5,618.5C 1168.17,618.5 1171.83,618.5 1175.5,618.5C 1175.79,616.265 1175.46,614.265 1174.5,612.5C 1174.17,611.833 1173.83,611.167 1173.5,610.5C 1173.33,609.508 1173.66,608.842 1174.5,608.5 Z"/></g>
<g><path style="opacity:1" fill="#6c655a" d="M 1185.5,611.5 C 1186.45,612.919 1186.78,614.585 1186.5,616.5C 1194.83,616.024 1203.16,615.691 1211.5,615.5C 1203.04,616.915 1194.37,617.581 1185.5,617.5C 1185.5,615.5 1185.5,613.5 1185.5,611.5 Z"/></g>
<g><path style="opacity:1" fill="#2f2516" d="M 475.5,605.5 C 467.299,605.517 459.299,606.183 451.5,607.5C 452.237,616.194 454.237,624.528 457.5,632.5C 460.808,627.469 463.141,621.969 464.5,616C 468.718,617.2 472.551,619.366 476,622.5C 476.667,623.5 476.667,624.5 476,625.5C 470.5,630.018 466,635.518 462.5,642C 465.431,648.183 469.765,653.183 475.5,657C 477.044,658.187 478.711,658.52 480.5,658C 483.989,652.181 487.322,646.347 490.5,640.5C 490.833,641.667 491.167,642.833 491.5,644C 490.76,649.658 490.094,655.324 489.5,661C 489.56,664.046 490.727,666.546 493,668.5C 493.92,671.308 493.087,673.475 490.5,675C 486.705,675.837 483.039,675.504 479.5,674C 469.598,667.265 461.598,658.765 455.5,648.5C 447.471,654.362 439.305,660.028 431,665.5C 430.536,664.906 430.369,664.239 430.5,663.5C 438.884,657.45 445.884,650.117 451.5,641.5C 449.475,635.42 447.142,629.42 444.5,623.5C 443.444,619.556 442.777,615.556 442.5,611.5C 442.5,610.5 442.5,609.5 442.5,608.5C 434.475,608.885 426.475,609.551 418.5,610.5C 418.177,616.69 418.51,622.69 419.5,628.5C 422.572,628.817 425.572,628.484 428.5,627.5C 429.54,625.625 431.04,624.292 433,623.5C 436.985,624.987 439.819,627.653 441.5,631.5C 440.722,633.147 439.556,634.48 438,635.5C 437.162,645.204 434.328,654.204 429.5,662.5C 427.376,664.174 425.042,665.007 422.5,665C 422.035,658.899 419.368,654.066 414.5,650.5C 418.095,650.552 421.761,650.218 425.5,649.5C 427.243,643.631 428.243,637.631 428.5,631.5C 424.833,631.5 421.167,631.5 417.5,631.5C 414.496,649.331 405.163,662.831 389.5,672C 388.365,672.749 387.365,672.583 386.5,671.5C 400.286,660.599 407.786,646.266 409,628.5C 409.332,619.756 409.499,611.09 409.5,602.5C 413.291,604.731 417.291,606.398 421.5,607.5C 427.818,606.635 434.151,605.968 440.5,605.5C 440.98,596.051 440.314,586.718 438.5,577.5C 442.574,576.674 446.574,577.174 450.5,579C 451.849,580.635 451.682,582.135 450,583.5C 449.5,590.158 449.334,596.825 449.5,603.5C 453.555,603.824 457.555,603.491 461.5,602.5C 462.86,599.772 464.693,597.439 467,595.5C 470.344,597.345 473.344,599.678 476,602.5C 476.74,603.749 476.573,604.749 475.5,605.5 Z"/></g>
<g><path style="opacity:1" fill="#a5a09a" d="M 442.5,611.5 C 441.121,610.391 439.455,609.724 437.5,609.5C 431.524,610.449 425.524,611.116 419.5,611.5C 419.5,617.167 419.5,622.833 419.5,628.5C 418.51,622.69 418.177,616.69 418.5,610.5C 426.475,609.551 434.475,608.885 442.5,608.5C 442.5,609.5 442.5,610.5 442.5,611.5 Z"/></g>
<g><path style="opacity:1" fill="#6b665e" d="M 596.5,613.5 C 596.046,615.741 596.046,617.741 596.5,619.5C 596.5,619.833 596.5,620.167 596.5,620.5C 595.414,620.38 594.747,619.713 594.5,618.5C 594.801,616.578 595.467,614.912 596.5,613.5 Z"/></g>
<g><path style="opacity:1" fill="#2e2315" d="M 835.5,658.5 C 835.829,644.323 835.496,630.323 834.5,616.5C 831.15,616.335 827.817,616.502 824.5,617C 823.789,619.796 823.122,622.63 822.5,625.5C 825.308,627.143 828.308,628.643 831.5,630C 832.252,630.671 832.586,631.504 832.5,632.5C 832.5,634.5 832.5,636.5 832.5,638.5C 832.209,639.649 831.376,640.316 830,640.5C 829.167,640.333 828.333,640.167 827.5,640C 826.117,636.805 824.784,633.638 823.5,630.5C 823.44,629.957 823.107,629.624 822.5,629.5C 819.749,638.01 819.083,646.677 820.5,655.5C 821.107,655.376 821.44,655.043 821.5,654.5C 824.94,653.489 828.274,652.489 831.5,651.5C 832.492,651.328 833.158,651.662 833.5,652.5C 826.237,658.481 818.904,664.481 811.5,670.5C 809.133,667.606 807.133,664.44 805.5,661C 806.385,658.843 808.052,658.01 810.5,658.5C 810.194,655.615 810.527,652.948 811.5,650.5C 813.139,642.046 814.139,633.379 814.5,624.5C 814.5,623.833 814.5,623.167 814.5,622.5C 816.031,617.75 816.698,612.75 816.5,607.5C 817.482,604.038 817.815,600.371 817.5,596.5C 815.265,596.205 813.265,596.539 811.5,597.5C 809.596,597.262 808.262,596.262 807.5,594.5C 816.552,593.974 825.552,592.974 834.5,591.5C 836.604,591.799 838.604,591.466 840.5,590.5C 841.86,587.772 843.693,585.439 846,583.5C 850.767,585.431 853.934,588.764 855.5,593.5C 844.091,593.836 832.757,594.836 821.5,596.5C 824.047,597.934 826.381,599.6 828.5,601.5C 824.922,604.623 823.589,608.623 824.5,613.5C 827.518,613.665 830.518,613.498 833.5,613C 834.785,610.577 836.618,608.744 839,607.5C 841.818,608.91 844.485,610.577 847,612.5C 847.874,615.003 847.207,617.003 845,618.5C 843.591,630.471 843.258,642.471 844,654.5C 844.483,660.149 847.317,661.816 852.5,659.5C 854.506,653.813 856.506,648.146 858.5,642.5C 859.388,648.825 860.222,655.158 861,661.5C 864.67,665.644 864.17,669.144 859.5,672C 846.729,675.394 838.729,670.894 835.5,658.5 Z"/></g>
<g><path style="opacity:1" fill="#eeeeec" d="M 834.5,616.5 C 834.666,622.509 834.499,628.509 834,634.5C 833.722,633.584 833.222,632.918 832.5,632.5C 832.586,631.504 832.252,630.671 831.5,630C 828.308,628.643 825.308,627.143 822.5,625.5C 823.122,622.63 823.789,619.796 824.5,617C 827.817,616.502 831.15,616.335 834.5,616.5 Z"/></g>
<g><path style="opacity:1" fill="#a5a19d" d="M 1227.5,618.5 C 1214.69,619.857 1201.69,620.524 1188.5,620.5C 1201.3,619.023 1214.3,618.356 1227.5,618.5 Z"/></g>
<g><path style="opacity:1" fill="#898379" d="M 785.5,616.5 C 785.5,619.833 785.5,623.167 785.5,626.5C 787.5,626.5 789.5,626.5 791.5,626.5C 791.158,627.338 790.492,627.672 789.5,627.5C 787.833,627.5 786.167,627.5 784.5,627.5C 784.185,623.629 784.518,619.962 785.5,616.5 Z"/></g>
<g><path style="opacity:1" fill="#332717" d="M 694.5,618.5 C 700.644,619.822 705.811,622.822 710,627.5C 712.446,632.324 711.613,636.491 707.5,640C 704.975,640.896 702.808,640.396 701,638.5C 699.749,631.484 697.583,624.817 694.5,618.5 Z"/></g>
<g><path style="opacity:1" fill="#2e2416" d="M 796.5,609.5 C 798.5,609.833 800.5,610.167 802.5,610.5C 802.473,612.199 801.806,613.533 800.5,614.5C 799.517,618.298 799.183,622.298 799.5,626.5C 801.179,626.715 802.179,626.048 802.5,624.5C 803.458,623.038 804.624,621.705 806,620.5C 815.272,628.798 813.439,631.798 800.5,629.5C 800.5,642.5 800.5,655.5 800.5,668.5C 798.734,670.771 796.734,672.937 794.5,675C 793.5,675.667 792.5,675.667 791.5,675C 790.26,670.866 790.26,666.699 791.5,662.5C 792.495,651.679 792.828,640.679 792.5,629.5C 790.473,629.662 788.473,629.495 786.5,629C 787.737,628.768 788.737,628.268 789.5,627.5C 790.492,627.672 791.158,627.338 791.5,626.5C 792.49,620.355 792.823,614.022 792.5,607.5C 794.199,607.527 795.533,608.194 796.5,609.5 Z"/></g>
<g><path style="opacity:1" fill="#302616" d="M 938.5,588.5 C 937.517,592.298 937.183,596.298 937.5,600.5C 942.363,600.819 947.03,600.486 951.5,599.5C 953.604,599.799 955.604,599.466 957.5,598.5C 958.833,596.5 960.5,594.833 962.5,593.5C 966.258,595.461 969.758,597.795 973,600.5C 974.075,603.531 973.075,605.531 970,606.5C 968.241,611.717 967.574,617.051 968,622.5C 969.154,623.743 970.488,624.743 972,625.5C 972.49,626.793 972.657,628.127 972.5,629.5C 966.833,629.5 961.167,629.5 955.5,629.5C 949.5,629.5 943.5,629.5 937.5,629.5C 937.175,637.352 937.508,645.018 938.5,652.5C 938.666,658.176 938.499,663.843 938,669.5C 935.708,674.534 932.041,676.867 927,676.5C 927.83,661.2 928.33,645.867 928.5,630.5C 922.824,630.334 917.157,630.501 911.5,631C 910.311,637.688 906.311,641.521 899.5,642.5C 899.817,627.452 899.484,612.452 898.5,597.5C 898.833,597.167 899.167,596.833 899.5,596.5C 902.5,598 905.5,599.5 908.5,601C 915.158,601.5 921.825,601.666 928.5,601.5C 928.705,593.133 928.371,584.8 927.5,576.5C 932.495,576.917 936.995,578.584 941,581.5C 941.667,582.5 941.667,583.5 941,584.5C 939.519,585.471 938.685,586.804 938.5,588.5 Z"/></g>
<g><path style="opacity:1" fill="#88857b" d="M 938.5,603.5 C 938.5,611.167 938.5,618.833 938.5,626.5C 941.833,626.5 945.167,626.5 948.5,626.5C 945.038,627.482 941.371,627.815 937.5,627.5C 937.174,619.316 937.508,611.316 938.5,603.5 Z"/></g>
<g><path style="opacity:1" fill="#f4f4f3" d="M 909.5,604.5 C 915.833,604.5 922.167,604.5 928.5,604.5C 928.5,612.167 928.5,619.833 928.5,627.5C 922.167,627.5 915.833,627.5 909.5,627.5C 909.5,619.833 909.5,612.167 909.5,604.5 Z"/></g>
<g><path style="opacity:1" fill="#f0f0f0" d="M 938.5,603.5 C 939.833,603.5 941.167,603.5 942.5,603.5C 947.5,603.5 952.5,603.5 957.5,603.5C 957.5,605.167 957.5,606.833 957.5,608.5C 957.034,614.491 956.701,620.491 956.5,626.5C 953.833,626.5 951.167,626.5 948.5,626.5C 945.167,626.5 941.833,626.5 938.5,626.5C 938.5,618.833 938.5,611.167 938.5,603.5 Z"/></g>
<g><path style="opacity:1" fill="#766e65" d="M 942.5,603.5 C 947.64,602.512 952.974,602.179 958.5,602.5C 958.795,604.735 958.461,606.735 957.5,608.5C 957.5,606.833 957.5,605.167 957.5,603.5C 952.5,603.5 947.5,603.5 942.5,603.5 Z"/></g>
<g><path style="opacity:1" fill="#c2c1bc" d="M 1181.5,620.5 C 1174.35,621.782 1167.02,622.782 1159.5,623.5C 1160.13,624.417 1160.46,625.417 1160.5,626.5C 1158.5,625.833 1156.5,625.167 1154.5,624.5C 1147.49,623.913 1140.49,623.58 1133.5,623.5C 1149.49,622.344 1165.49,621.344 1181.5,620.5 Z"/></g>
<g><path style="opacity:1" fill="#756f64" d="M 800.5,614.5 C 800.335,618.182 800.501,621.848 801,625.5C 801.383,624.944 801.883,624.611 802.5,624.5C 802.179,626.048 801.179,626.715 799.5,626.5C 799.183,622.298 799.517,618.298 800.5,614.5 Z"/></g>
<g><path style="opacity:1" fill="#2e2314" d="M 1071.5,608.5 C 1086.44,610.773 1096.1,619.106 1100.5,633.5C 1099.85,641.01 1096.02,644.01 1089,642.5C 1087.06,636.024 1084.73,629.691 1082,623.5C 1078.48,618.442 1074.98,613.442 1071.5,608.5 Z"/></g>
<g><path style="opacity:1" fill="#352a1c" d="M 807.5,588.5 C 806.448,588.351 805.448,588.517 804.5,589C 800.619,593.926 796.619,598.759 792.5,603.5C 794.396,604.466 796.396,604.799 798.5,604.5C 796.708,605.309 794.708,605.809 792.5,606C 796.821,606.499 801.154,606.666 805.5,606.5C 802.203,606.89 799.203,607.89 796.5,609.5C 795.533,608.194 794.199,607.527 792.5,607.5C 792.823,614.022 792.49,620.355 791.5,626.5C 791.5,620.5 791.5,614.5 791.5,608.5C 787.774,608.177 784.107,608.511 780.5,609.5C 782.179,610.782 784.013,611.782 786,612.5C 786.579,613.928 786.412,615.262 785.5,616.5C 784.518,619.962 784.185,623.629 784.5,627.5C 786.167,627.5 787.833,627.5 789.5,627.5C 788.737,628.268 787.737,628.768 786.5,629C 788.473,629.495 790.473,629.662 792.5,629.5C 792.828,640.679 792.495,651.679 791.5,662.5C 791.5,651.833 791.5,641.167 791.5,630.5C 789.5,630.5 787.5,630.5 785.5,630.5C 784.479,634.98 783.813,639.647 783.5,644.5C 779.747,656.094 772.747,665.26 762.5,672C 761.668,672.688 761.002,672.521 760.5,671.5C 771.02,660.29 776.353,646.957 776.5,631.5C 772.76,631.241 769.094,631.574 765.5,632.5C 764.575,631.643 763.908,630.643 763.5,629.5C 767.833,628.833 772.167,628.167 776.5,627.5C 776.5,621.5 776.5,615.5 776.5,609.5C 773.753,609.813 771.086,609.48 768.5,608.5C 768.167,607.833 767.833,607.167 767.5,606.5C 774.476,605.669 781.476,605.169 788.5,605C 792.775,596.677 795.108,587.843 795.5,578.5C 800.755,580.128 805.422,582.794 809.5,586.5C 809.145,587.522 808.478,588.189 807.5,588.5 Z"/></g>
<g><path style="opacity:1" fill="#ecebea" d="M 791.5,626.5 C 789.5,626.5 787.5,626.5 785.5,626.5C 785.5,623.167 785.5,619.833 785.5,616.5C 786.412,615.262 786.579,613.928 786,612.5C 784.013,611.782 782.179,610.782 780.5,609.5C 784.107,608.511 787.774,608.177 791.5,608.5C 791.5,614.5 791.5,620.5 791.5,626.5 Z"/></g>
<g><path style="opacity:1" fill="#f0efef" d="M 552.5,594.5 C 554.784,600.522 557.618,601.189 561,596.5C 561.667,597.833 562.333,597.833 563,596.5C 562.904,598.381 563.071,600.047 563.5,601.5C 560.875,608.75 557.209,615.417 552.5,621.5C 553,621.833 553.5,622.167 554,622.5C 559.808,618.355 564.642,613.188 568.5,607C 578.482,605.41 588.482,605.243 598.5,606.5C 597.675,608.801 597.008,611.135 596.5,613.5C 595.467,614.912 594.801,616.578 594.5,618.5C 594.747,619.713 595.414,620.38 596.5,620.5C 599.301,625.585 603.634,628.752 609.5,630C 611.322,632.821 613.489,635.321 616,637.5C 615.862,639.238 615.362,640.905 614.5,642.5C 612.495,637.651 609.161,633.818 604.5,631C 592.63,623.844 590.797,625.677 599,636.5C 600.401,641.535 601.901,646.535 603.5,651.5C 606.534,654.155 609.534,654.155 612.5,651.5C 612.414,652.496 612.748,653.329 613.5,654C 610.24,654.784 607.073,654.617 604,653.5C 603.072,655.335 601.906,655.668 600.5,654.5C 599.949,652.587 599.782,650.587 600,648.5C 598.833,647 597.667,645.5 596.5,644C 597.38,642.644 597.714,641.144 597.5,639.5C 595.669,640.052 594.003,640.052 592.5,639.5C 591.749,640.376 591.249,641.376 591,642.5C 590.887,646.546 591.387,650.546 592.5,654.5C 590.231,658.437 589.898,662.604 591.5,667C 588.302,672.53 583.802,676.696 578,679.5C 575.666,678.33 573.832,676.663 572.5,674.5C 572.737,671.937 573.237,671.937 574,674.5C 574.464,673.906 574.631,673.239 574.5,672.5C 575.543,676.572 577.877,677.405 581.5,675C 586.652,669.581 588.652,663.081 587.5,655.5C 586.563,642.507 586.397,629.507 587,616.5C 588.158,616.002 588.991,615.169 589.5,614C 586.038,611.292 582.038,609.792 577.5,609.5C 577.5,626.167 577.5,642.833 577.5,659.5C 573.833,659.5 570.167,659.5 566.5,659.5C 567.952,658.698 569.618,658.198 571.5,658C 569.833,657.667 568.167,657.333 566.5,657C 569.224,656.73 571.891,656.23 574.5,655.5C 575.489,651.893 575.823,648.226 575.5,644.5C 573.173,644.247 571.173,644.914 569.5,646.5C 568.808,645.975 568.308,645.308 568,644.5C 567.8,646.32 566.966,647.653 565.5,648.5C 568.041,641.714 568.875,634.714 568,627.5C 566.736,625.393 564.903,624.393 562.5,624.5C 562.503,632.312 559.669,638.979 554,644.5C 553.013,648.475 553.513,652.141 555.5,655.5C 554.883,655.611 554.383,655.944 554,656.5C 551.704,654.646 549.371,653.646 547,653.5C 546.517,654.448 546.351,655.448 546.5,656.5C 545.574,639.438 545.24,622.271 545.5,605C 547.231,601.021 549.564,597.521 552.5,594.5 Z"/></g>
<g><path style="opacity:1" fill="#7c7870" d="M 776.5,627.5 C 772.167,628.167 767.833,628.833 763.5,629.5C 762.957,629.44 762.624,629.107 762.5,628.5C 767.12,627.507 771.786,627.173 776.5,627.5 Z"/></g>
<g><path style="opacity:1" fill="#adaba4" d="M 301.5,628.5 C 301.5,628.833 301.5,629.167 301.5,629.5C 292.983,629.174 284.65,629.507 276.5,630.5C 275.957,630.44 275.624,630.107 275.5,629.5C 284.141,628.502 292.808,628.169 301.5,628.5 Z"/></g>
<g><path style="opacity:1" fill="#4c4438" d="M 322.5,627.5 C 315.711,628.875 308.711,629.542 301.5,629.5C 301.5,629.167 301.5,628.833 301.5,628.5C 308.496,628.106 315.496,627.773 322.5,627.5 Z"/></g>
<g><path style="opacity:1" fill="#b7b5b1" d="M 352.5,628.5 C 343.538,629.884 334.538,630.884 325.5,631.5C 324.957,631.44 324.624,631.107 324.5,630.5C 333.793,629.258 343.126,628.592 352.5,628.5 Z"/></g>
<g><path style="opacity:1" fill="#302616" d="M 565.5,648.5 C 563.211,652.475 559.878,654.808 555.5,655.5C 553.513,652.141 553.013,648.475 554,644.5C 559.669,638.979 562.503,632.312 562.5,624.5C 564.903,624.393 566.736,625.393 568,627.5C 568.875,634.714 568.041,641.714 565.5,648.5 Z"/></g>
<g><path style="opacity:1" fill="#f0f0ef" d="M 823.5,630.5 C 824.784,633.638 826.117,636.805 827.5,640C 828.333,640.167 829.167,640.333 830,640.5C 831.376,640.316 832.209,639.649 832.5,638.5C 833.117,638.389 833.617,638.056 834,637.5C 834.499,641.821 834.666,646.154 834.5,650.5C 833.209,650.263 832.209,650.596 831.5,651.5C 828.274,652.489 824.94,653.489 821.5,654.5C 820.557,646.417 821.223,638.417 823.5,630.5 Z"/></g>
<g><path style="opacity:1" fill="#706b60" d="M 814.5,624.5 C 814.139,633.379 813.139,642.046 811.5,650.5C 811.5,647.167 811.5,643.833 811.5,640.5C 812.5,635.167 813.5,629.833 814.5,624.5 Z"/></g>
<g><path style="opacity:1" fill="#766e63" d="M 834.5,616.5 C 835.496,630.323 835.829,644.323 835.5,658.5C 834.833,656.5 834.167,654.5 833.5,652.5C 833.158,651.662 832.492,651.328 831.5,651.5C 832.209,650.596 833.209,650.263 834.5,650.5C 834.666,646.154 834.499,641.821 834,637.5C 833.617,638.056 833.117,638.389 832.5,638.5C 832.5,636.5 832.5,634.5 832.5,632.5C 833.222,632.918 833.722,633.584 834,634.5C 834.499,628.509 834.666,622.509 834.5,616.5 Z"/></g>
<g><path style="opacity:1" fill="#2f2415" d="M 1027.5,607.5 C 1029.75,607.916 1031.25,609.249 1032,611.5C 1033.15,624.374 1029.31,635.541 1020.5,645C 1017.69,645.92 1015.53,645.087 1014,642.5C 1013.33,639.167 1013.33,635.833 1014,632.5C 1020.61,625.283 1025.11,616.949 1027.5,607.5 Z"/></g>
<g><path style="opacity:1" fill="#2d2316" d="M 1203.5,644.5 C 1199.8,644.552 1196.14,644.886 1192.5,645.5C 1188.77,645.177 1185.11,645.511 1181.5,646.5C 1182.63,647.262 1183.79,647.929 1185,648.5C 1185.67,655.5 1185.67,662.5 1185,669.5C 1183.27,674.064 1180.1,677.064 1175.5,678.5C 1174.56,678.392 1173.72,678.059 1173,677.5C 1172.71,675.048 1172.04,672.715 1171,670.5C 1168.59,668.709 1166.09,667.043 1163.5,665.5C 1167.17,664.833 1170.83,664.167 1174.5,663.5C 1175.45,657.896 1175.79,652.229 1175.5,646.5C 1171.83,646.5 1168.17,646.5 1164.5,646.5C 1163.39,650.925 1160.39,653.258 1155.5,653.5C 1155.73,643.801 1155.39,634.134 1154.5,624.5C 1156.5,625.167 1158.5,625.833 1160.5,626.5C 1163.77,628.026 1167.27,628.692 1171,628.5C 1178.17,628.024 1185.33,627.524 1192.5,627C 1193.74,625.846 1194.74,624.512 1195.5,623C 1196.5,622.333 1197.5,622.333 1198.5,623C 1201.64,624.886 1204.31,627.22 1206.5,630C 1205.92,631.714 1204.76,632.881 1203,633.5C 1202.21,636.752 1202.71,639.752 1204.5,642.5C 1204.46,643.416 1204.12,644.083 1203.5,644.5 Z"/></g>
<g><path style="opacity:1" fill="#c5c4c0" d="M 1175.5,631.5 C 1181.31,630.51 1187.31,630.177 1193.5,630.5C 1193.81,634.371 1193.48,638.038 1192.5,641.5C 1192.67,638.15 1192.5,634.817 1192,631.5C 1191.67,632.833 1191.33,634.167 1191,635.5C 1189.38,634.464 1189.22,633.297 1190.5,632C 1185.51,631.501 1180.51,631.334 1175.5,631.5 Z"/></g>
<g><path style="opacity:1" fill="#f4f4f3" d="M 1175.5,631.5 C 1180.51,631.334 1185.51,631.501 1190.5,632C 1189.22,633.297 1189.38,634.464 1191,635.5C 1191.33,634.167 1191.67,632.833 1192,631.5C 1192.5,634.817 1192.67,638.15 1192.5,641.5C 1186.27,641.388 1180.27,642.054 1174.5,643.5C 1171.17,643.5 1167.83,643.5 1164.5,643.5C 1164.5,639.5 1164.5,635.5 1164.5,631.5C 1168.17,631.5 1171.83,631.5 1175.5,631.5 Z"/></g>
<g><path style="opacity:1" fill="#ededec" d="M 442.5,611.5 C 442.777,615.556 443.444,619.556 444.5,623.5C 447.142,629.42 449.475,635.42 451.5,641.5C 445.884,650.117 438.884,657.45 430.5,663.5C 430.5,662.833 430.167,662.5 429.5,662.5C 434.328,654.204 437.162,645.204 438,635.5C 439.556,634.48 440.722,633.147 441.5,631.5C 439.819,627.653 436.985,624.987 433,623.5C 431.04,624.292 429.54,625.625 428.5,627.5C 425.572,628.484 422.572,628.817 419.5,628.5C 419.5,622.833 419.5,617.167 419.5,611.5C 425.524,611.116 431.524,610.449 437.5,609.5C 439.455,609.724 441.121,610.391 442.5,611.5 Z"/></g>
<g><path style="opacity:1" fill="#302617" d="M 614.5,642.5 C 614.595,645.692 613.929,648.692 612.5,651.5C 609.534,654.155 606.534,654.155 603.5,651.5C 601.901,646.535 600.401,641.535 599,636.5C 590.797,625.677 592.63,623.844 604.5,631C 609.161,633.818 612.495,637.651 614.5,642.5 Z"/></g>
<g><path style="opacity:1" fill="#b6b3ad" d="M 785.5,630.5 C 785.877,635.453 785.211,640.119 783.5,644.5C 783.813,639.647 784.479,634.98 785.5,630.5 Z"/></g>
<g><path style="opacity:1" fill="#8b8881" d="M 955.5,629.5 C 950.025,630.489 944.358,630.822 938.5,630.5C 938.5,637.833 938.5,645.167 938.5,652.5C 937.508,645.018 937.175,637.352 937.5,629.5C 943.5,629.5 949.5,629.5 955.5,629.5 Z"/></g>
<g><path style="opacity:1" fill="#2d2315" d="M 666.5,580.5 C 670.407,581.943 673.741,584.11 676.5,587C 671.965,590.81 667.965,595.31 664.5,600.5C 667.106,601.652 669.773,601.818 672.5,601C 674.017,599.315 675.684,597.815 677.5,596.5C 680.532,599.008 683.532,601.508 686.5,604C 686.07,605.434 685.236,606.601 684,607.5C 683.667,622.833 683.333,638.167 683,653.5C 680.517,656.489 677.35,657.822 673.5,657.5C 673.5,654.5 673.5,651.5 673.5,648.5C 668.5,648.5 663.5,648.5 658.5,648.5C 658.665,651.85 658.498,655.183 658,658.5C 656.945,661.056 655.112,662.723 652.5,663.5C 651.5,663.5 650.5,663.5 649.5,663.5C 649.5,659.833 649.5,656.167 649.5,652.5C 649.5,634.5 649.5,616.5 649.5,598.5C 652.947,600.09 656.613,601.09 660.5,601.5C 662.113,597.039 663.113,592.372 663.5,587.5C 663.917,584.841 664.917,582.508 666.5,580.5 Z"/></g>
<g><path style="opacity:1" fill="#858076" d="M 673.5,604.5 C 674.833,617.833 674.833,631.167 673.5,644.5C 673.824,637.646 673.491,630.979 672.5,624.5C 672.5,623.5 672.5,622.5 672.5,621.5C 673.489,616.025 673.822,610.358 673.5,604.5 Z"/></g>
<g><path style="opacity:1" fill="#f5f5f5" d="M 672.5,624.5 C 673.491,630.979 673.824,637.646 673.5,644.5C 668.482,644.613 663.482,644.947 658.5,645.5C 658.5,638.833 658.5,632.167 658.5,625.5C 663.103,624.617 667.77,624.283 672.5,624.5 Z"/></g>
<g><path style="opacity:1" fill="#706b62" d="M 658.5,625.5 C 658.5,632.167 658.5,638.833 658.5,645.5C 663.482,644.947 668.482,644.613 673.5,644.5C 668.384,645.806 663.051,646.473 657.5,646.5C 657.175,639.313 657.509,632.313 658.5,625.5 Z"/></g>
<g><path style="opacity:1" fill="#6c675e" d="M 658.5,605.5 C 658.5,610.833 658.5,616.167 658.5,621.5C 659.833,621.5 661.167,621.5 662.5,621.5C 661.081,622.451 659.415,622.784 657.5,622.5C 657.178,616.642 657.511,610.975 658.5,605.5 Z"/></g>
<g><path style="opacity:1" fill="#f4f4f3" d="M 673.5,604.5 C 673.822,610.358 673.489,616.025 672.5,621.5C 669.235,620.54 665.902,620.54 662.5,621.5C 661.167,621.5 659.833,621.5 658.5,621.5C 658.5,616.167 658.5,610.833 658.5,605.5C 663.305,604.513 668.305,604.179 673.5,604.5 Z"/></g>
<g><path style="opacity:1" fill="#2a1e0e" d="M 1061.5,588.5 C 1061.5,587.5 1061.5,586.5 1061.5,585.5C 1060.32,585.281 1059.32,585.614 1058.5,586.5C 1057.5,588.5 1056.5,590.5 1055.5,592.5C 1054.73,593.711 1053.89,593.711 1053,592.5C 1052.67,593.167 1052.33,593.833 1052,594.5C 1051.33,604.833 1051.33,615.167 1052,625.5C 1054.18,622.598 1056.18,619.598 1058,616.5C 1058.67,612.167 1058.67,607.833 1058,603.5C 1052.79,612.89 1051.12,611.89 1053,600.5C 1054,599.833 1055,599.167 1056,598.5C 1057.75,595.79 1058.75,592.79 1059,589.5C 1059.67,613.167 1059.67,636.833 1059,660.5C 1057.24,659.056 1055.24,658.056 1053,657.5C 1051.6,660.167 1049.6,662.167 1047,663.5C 1046.25,662.874 1045.42,662.374 1044.5,662C 1046.12,661.385 1047.45,660.385 1048.5,659C 1047.83,658.667 1047.17,658.333 1046.5,658C 1047.42,657.722 1048.08,657.222 1048.5,656.5C 1049.22,656.082 1049.72,655.416 1050,654.5C 1050.76,630.152 1050.6,605.819 1049.5,581.5C 1054.01,581.813 1058.35,582.979 1062.5,585C 1063.8,586.579 1063.47,587.745 1061.5,588.5 Z"/></g>
<g><path style="opacity:1" fill="#858177" d="M 1192.5,641.5 C 1186.71,642.81 1180.71,643.477 1174.5,643.5C 1180.27,642.054 1186.27,641.388 1192.5,641.5 Z"/></g>
<g><path style="opacity:1" fill="#93908b" d="M 1203.5,644.5 C 1200.86,645.421 1198.03,646.088 1195,646.5C 1193.93,646.472 1193.1,646.139 1192.5,645.5C 1196.14,644.886 1199.8,644.552 1203.5,644.5 Z"/></g>
<g><path style="opacity:1" fill="#9d9890" d="M 823.5,630.5 C 821.223,638.417 820.557,646.417 821.5,654.5C 821.44,655.043 821.107,655.376 820.5,655.5C 819.083,646.677 819.749,638.01 822.5,629.5C 823.107,629.624 823.44,629.957 823.5,630.5 Z"/></g>
<g><path style="opacity:1" fill="#8a857a" d="M 1201.5,652.5 C 1198.29,652.19 1195.29,652.523 1192.5,653.5C 1191.96,653.44 1191.62,653.107 1191.5,652.5C 1194.98,651.194 1198.31,651.194 1201.5,652.5 Z"/></g>
<g><path style="opacity:1" fill="#312617" d="M 1192.5,653.5 C 1195.29,652.523 1198.29,652.19 1201.5,652.5C 1207.45,652.232 1212.28,654.565 1216,659.5C 1218.83,667.031 1216.33,670.864 1208.5,671C 1204.72,663.72 1199.39,657.887 1192.5,653.5 Z"/></g>
<g><path style="opacity:1" fill="#2e2415" d="M 352.5,628.5 C 343.126,628.592 333.793,629.258 324.5,630.5C 324.624,631.107 324.957,631.44 325.5,631.5C 328.96,633.061 329.293,635.061 326.5,637.5C 325.199,645.195 325.199,652.861 326.5,660.5C 334.641,662.051 342.641,661.551 350.5,659C 353.645,652.255 355.478,645.088 356,637.5C 356.414,637.043 356.914,636.709 357.5,636.5C 358.368,646.856 360.201,656.856 363,666.5C 359.168,669.834 354.668,671.501 349.5,671.5C 339.801,671.725 330.134,671.392 320.5,670.5C 318.172,669.264 317.006,667.264 317,664.5C 316.5,653.505 316.333,642.505 316.5,631.5C 312.445,631.176 308.445,631.509 304.5,632.5C 307.318,633.829 309.651,635.662 311.5,638C 308.93,642.066 307.097,646.566 306,651.5C 301.776,660.058 295.276,666.224 286.5,670C 280.146,672.709 273.646,674.876 267,676.5C 266.312,675.668 266.479,675.002 267.5,674.5C 282.583,668.251 293.083,657.585 299,642.5C 299.498,639.183 299.665,635.85 299.5,632.5C 293.813,632.446 288.146,632.779 282.5,633.5C 280.833,633.167 279.167,632.833 277.5,632.5C 277.137,631.817 276.804,631.15 276.5,630.5C 284.65,629.507 292.983,629.174 301.5,629.5C 308.711,629.542 315.711,628.875 322.5,627.5C 327.418,626.719 332.418,626.219 337.5,626C 338.629,622.559 340.796,620.059 344,618.5C 346.989,620.819 349.989,623.153 353,625.5C 353.74,626.749 353.573,627.749 352.5,628.5 Z"/></g>
<g><path style="opacity:1" fill="#2e2314" d="M 720.5,618.5 C 721.487,613.695 721.821,608.695 721.5,603.5C 717.958,603.187 714.625,603.521 711.5,604.5C 707.486,604.334 703.486,604.501 699.5,605C 684.587,627.751 682.42,626.917 693,602.5C 695.336,594.319 696.836,585.986 697.5,577.5C 699.667,578.792 702,579.625 704.5,580C 706.968,581.216 708.968,582.883 710.5,585C 706.418,589.666 703.752,595.166 702.5,601.5C 708.537,601.829 714.537,601.496 720.5,600.5C 721.54,598.625 723.04,597.292 725,596.5C 729.064,597.939 732.231,600.439 734.5,604C 733.924,605.714 732.757,606.881 731,607.5C 730.666,619.52 729.999,631.52 729,643.5C 729.129,655.803 724.629,665.969 715.5,674C 713.246,675.15 710.913,675.484 708.5,675C 707.745,672.825 706.912,670.659 706,668.5C 702.414,665.616 699.748,662.283 698,658.5C 702.678,660.242 707.512,660.742 712.5,660C 716.212,655.542 718.379,650.376 719,644.5C 720.145,635.87 720.645,627.203 720.5,618.5 Z"/></g>
<g><path style="opacity:1" fill="#89847b" d="M 711.5,604.5 C 714.625,603.521 717.958,603.187 721.5,603.5C 721.821,608.695 721.487,613.695 720.5,618.5C 720.5,613.833 720.5,609.167 720.5,604.5C 717.5,604.5 714.5,604.5 711.5,604.5 Z"/></g>
<g><path style="opacity:1" fill="#5b5347" d="M 649.5,652.5 C 649.5,656.167 649.5,659.833 649.5,663.5C 650.5,663.5 651.5,663.5 652.5,663.5C 651.432,664.434 650.099,664.768 648.5,664.5C 648.183,660.298 648.517,656.298 649.5,652.5 Z"/></g>
<g><path style="opacity:1" fill="#352a1a" d="M 1061.5,588.5 C 1060.68,613.428 1060.18,638.428 1060,663.5C 1058.27,669.569 1054.44,673.069 1048.5,674C 1046.84,671.493 1046.01,668.659 1046,665.5C 1042.98,662.651 1040.15,659.651 1037.5,656.5C 1041.07,656.091 1044.74,656.091 1048.5,656.5C 1048.08,657.222 1047.42,657.722 1046.5,658C 1047.17,658.333 1047.83,658.667 1048.5,659C 1047.45,660.385 1046.12,661.385 1044.5,662C 1045.42,662.374 1046.25,662.874 1047,663.5C 1049.6,662.167 1051.6,660.167 1053,657.5C 1055.24,658.056 1057.24,659.056 1059,660.5C 1059.67,636.833 1059.67,613.167 1059,589.5C 1058.75,592.79 1057.75,595.79 1056,598.5C 1055,599.167 1054,599.833 1053,600.5C 1051.12,611.89 1052.79,612.89 1058,603.5C 1058.67,607.833 1058.67,612.167 1058,616.5C 1056.18,619.598 1054.18,622.598 1052,625.5C 1051.33,615.167 1051.33,604.833 1052,594.5C 1052.33,593.833 1052.67,593.167 1053,592.5C 1053.89,593.711 1054.73,593.711 1055.5,592.5C 1056.5,590.5 1057.5,588.5 1058.5,586.5C 1059.32,585.614 1060.32,585.281 1061.5,585.5C 1061.5,586.5 1061.5,587.5 1061.5,588.5 Z"/></g>
<g><path style="opacity:1" fill="#2e2416" d="M 1159.5,653.5 C 1162.42,657.962 1161.75,662.128 1157.5,666C 1154.34,667.413 1151.34,669.08 1148.5,671C 1145.27,672.199 1141.94,672.699 1138.5,672.5C 1139.09,669.386 1140.76,666.886 1143.5,665C 1149.08,661.39 1154.41,657.557 1159.5,653.5 Z"/></g>
<g><path style="opacity:1" fill="#696358" d="M 320.5,670.5 C 330.134,671.392 339.801,671.725 349.5,671.5C 341.01,672.657 332.343,672.824 323.5,672C 322.263,671.768 321.263,671.268 320.5,670.5 Z"/></g>
</svg>
