<?xml version="1.0" encoding="UTF-8"?>
<!DOCTYPE svg PUBLIC "-//W3C//DTD SVG 1.1//EN" "http://www.w3.org/Graphics/SVG/1.1/DTD/svg11.dtd">
<svg xmlns="http://www.w3.org/2000/svg" version="1.1" width="950px" height="70px" style="shape-rendering:geometricPrecision; text-rendering:geometricPrecision; image-rendering:optimizeQuality; fill-rule:evenodd; clip-rule:evenodd" xmlns:xlink="http://www.w3.org/1999/xlink">
<g><path style="opacity:1" fill="#f2f3f2" d="M 411.5,-0.5 C 412.167,-0.5 412.833,-0.5 413.5,-0.5C 412.833,0.833333 412.167,0.833333 411.5,-0.5 Z"/></g>
<g><path style="opacity:1" fill="#f2f3f2" d="M 723.5,0.5 C 723.5,0.166667 723.5,-0.166667 723.5,-0.5C 724.5,-0.5 725.5,-0.5 726.5,-0.5C 725.791,0.403972 724.791,0.737305 723.5,0.5 Z"/></g>
<g><path style="opacity:1" fill="#dcd3d1" d="M 235.5,-0.5 C 235.833,-0.5 236.167,-0.5 236.5,-0.5C 237.11,0.391047 237.443,1.39105 237.5,2.5C 236.094,2.02694 235.427,1.02694 235.5,-0.5 Z"/></g>
<g><path style="opacity:1" fill="#ececea" d="M 405.5,-0.5 C 406.5,-0.5 407.5,-0.5 408.5,-0.5C 408.5,-0.166667 408.5,0.166667 408.5,0.5C 406.998,3.66999 405.664,7.00332 404.5,10.5C 403.746,7.90902 402.079,6.07568 399.5,5C 401.396,2.93204 403.396,1.0987 405.5,-0.5 Z"/></g>
<g><path style="opacity:1" fill="#f1f1f0" d="M 719.5,0.5 C 719.5,1.83333 719.5,3.16667 719.5,4.5C 719.167,4.5 718.833,4.5 718.5,4.5C 717.659,3.99065 717.159,4.65732 717,6.5C 714.59,2.46927 715.423,0.469274 719.5,0.5 Z"/></g>
<g><path style="opacity:1" fill="#6a4e39" d="M 236.5,-0.5 C 238.5,-0.5 240.5,-0.5 242.5,-0.5C 243.848,0.60064 245.348,1.60064 247,2.5C 247.585,3.99762 247.085,4.99762 245.5,5.5C 244.596,6.20895 244.263,7.20895 244.5,8.5C 242.5,8.5 240.5,8.5 238.5,8.5C 238.167,6.5 237.833,4.5 237.5,2.5C 237.443,1.39105 237.11,0.391047 236.5,-0.5 Z"/></g>
<g><path style="opacity:1" fill="#b8aca2" d="M 385.5,-0.5 C 385.833,-0.5 386.167,-0.5 386.5,-0.5C 387.167,0.166667 387.833,0.833333 388.5,1.5C 387.5,1.5 386.5,1.5 385.5,1.5C 385.768,3.09903 385.434,4.43236 384.5,5.5C 384.325,3.3792 384.659,1.3792 385.5,-0.5 Z"/></g>
<g><path style="opacity:1" fill="#f2f3f9" d="M 394.5,3.5 C 395.833,4.16667 395.833,4.16667 394.5,3.5 Z"/></g>
<g><path style="opacity:1" fill="#f0f0f0" d="M 542.5,2.5 C 542.5,3.83333 542.5,5.16667 542.5,6.5C 541.778,6.08247 541.278,5.4158 541,4.5C 539.059,8.55367 538.225,8.22033 538.5,3.5C 539.959,3.56745 541.292,3.23411 542.5,2.5 Z"/></g>
<g><path style="opacity:1" fill="#f2f3f2" d="M 550.5,4.5 C 551.251,3.42654 552.251,3.25988 553.5,4C 552.552,4.48278 551.552,4.64945 550.5,4.5 Z"/></g>
<g><path style="opacity:1" fill="#f5f1f1" d="M 572.5,3.5 C 572.5,4.16667 572.167,4.5 571.5,4.5C 569.712,4.78522 568.045,4.45189 566.5,3.5C 568.46,2.48083 570.46,2.48083 572.5,3.5 Z"/></g>
<g><path style="opacity:1" fill="#412816" d="M 618.5,4.5 C 619.601,3.40168 620.934,3.23502 622.5,4C 621.833,4.33333 621.167,4.66667 620.5,5C 621.594,6.78025 622.594,8.61358 623.5,10.5C 624.057,8.6684 625.057,7.33507 626.5,6.5C 626.5,7.83333 626.5,9.16667 626.5,10.5C 626.5,11.1667 626.167,11.5 625.5,11.5C 623.708,11.634 622.042,11.3007 620.5,10.5C 620.741,8.10163 620.074,6.10163 618.5,4.5 Z"/></g>
<g><path style="opacity:1" fill="#c0b6ad" d="M 315.5,-0.5 C 316.167,-0.5 316.833,-0.5 317.5,-0.5C 317.5,-0.166667 317.5,0.166667 317.5,0.5C 316.449,5.64598 315.782,10.9793 315.5,16.5C 315.5,17.1667 315.167,17.5 314.5,17.5C 314.726,14.7508 314.393,12.0841 313.5,9.5C 313.846,8.30441 314.346,8.30441 315,9.5C 315.498,6.18323 315.665,2.8499 315.5,-0.5 Z"/></g>
<g><path style="opacity:1" fill="#cac3c1" d="M 392.5,2.5 C 393.885,3.9473 393.552,4.9473 391.5,5.5C 392.11,4.60895 392.443,3.60895 392.5,2.5 Z"/></g>
<g><path style="opacity:1" fill="#d0c8c8" d="M 414.5,2.5 C 415.885,3.9473 415.552,4.9473 413.5,5.5C 414.11,4.60895 414.443,3.60895 414.5,2.5 Z"/></g>
<g><path style="opacity:1" fill="#e9e7e5" d="M 625.5,4.5 C 629.896,5.35502 634.229,5.52168 638.5,5C 638.833,5.33333 639.167,5.66667 639.5,6C 636.305,6.18052 633.305,6.68052 630.5,7.5C 629.833,7.5 629.5,7.83333 629.5,8.5C 633.97,9.48612 638.637,9.81946 643.5,9.5C 643.784,11.4147 643.451,13.0813 642.5,14.5C 642.5,13.1667 642.5,11.8333 642.5,10.5C 640.455,12.0296 637.455,12.6963 633.5,12.5C 630.887,12.3566 628.553,11.6899 626.5,10.5C 626.5,9.16667 626.5,7.83333 626.5,6.5C 626.167,5.83333 625.833,5.16667 625.5,4.5 Z"/></g>
<g><path style="opacity:1" fill="#ebeae8" d="M 618.5,4.5 C 620.074,6.10163 620.741,8.10163 620.5,10.5C 619.167,10.5 617.833,10.5 616.5,10.5C 616.253,8.14166 616.919,6.14166 618.5,4.5 Z"/></g>
<g><path style="opacity:1" fill="#705740" d="M 625.5,4.5 C 625.833,5.16667 626.167,5.83333 626.5,6.5C 625.057,7.33507 624.057,8.6684 623.5,10.5C 622.594,8.61358 621.594,6.78025 620.5,5C 621.167,4.66667 621.833,4.33333 622.5,4C 620.934,3.23502 619.601,3.40168 618.5,4.5C 616.065,3.87021 615.398,2.53688 616.5,0.5C 619.769,1.46853 622.769,2.80187 625.5,4.5 Z"/></g>
<g><path style="opacity:1" fill="#563d2e" d="M 644.5,0.5 C 644.5,7.5 644.5,14.5 644.5,21.5C 644.5,22.1667 644.5,22.8333 644.5,23.5C 638.642,23.8222 632.975,23.4889 627.5,22.5C 632.833,22.5 638.167,22.5 643.5,22.5C 643.795,20.2646 643.461,18.2646 642.5,16.5C 638.126,18.2529 634.126,17.7529 630.5,15C 634.486,14.5012 638.486,14.3345 642.5,14.5C 643.451,13.0813 643.784,11.4147 643.5,9.5C 638.637,9.81946 633.97,9.48612 629.5,8.5C 634.167,8.5 638.833,8.5 643.5,8.5C 643.768,5.8806 643.435,3.3806 642.5,1C 643.094,0.535656 643.761,0.368989 644.5,0.5 Z"/></g>
<g><path style="opacity:1" fill="#eeeeec" d="M 220.5,9.5 C 220.573,11.0269 219.906,12.0269 218.5,12.5C 215.731,10.3373 215.898,8.33726 219,6.5C 219.232,7.73747 219.732,8.73747 220.5,9.5 Z"/></g>
<g><path style="opacity:1" fill="#f2f0f0" d="M 228.5,9.5 C 227.167,9.5 225.833,9.5 224.5,9.5C 224.5,8.5 224.5,7.5 224.5,6.5C 227.469,7.32869 230.469,7.49535 233.5,7C 234.701,6.09748 235.535,4.93081 236,3.5C 236.402,4.8721 236.902,6.20543 237.5,7.5C 234.358,8.16738 231.358,8.83404 228.5,9.5 Z"/></g>
<g><path style="opacity:1" fill="#e3e0dc" d="M 391.5,5.5 C 392.263,6.26791 393.263,6.76791 394.5,7C 395.833,7.66667 395.833,8.33333 394.5,9C 395.942,9.37675 396.942,10.2101 397.5,11.5C 396.833,11.5 396.167,11.5 395.5,11.5C 394.257,10.2625 393.257,10.5959 392.5,12.5C 390.257,13.4742 387.924,13.8076 385.5,13.5C 387.016,10.4669 389.016,7.80028 391.5,5.5 Z"/></g>
<g><path style="opacity:1" fill="#d2cdc5" d="M 709.5,7.5 C 708.391,7.55688 707.391,7.89022 706.5,8.5C 707.053,6.44818 708.053,6.11484 709.5,7.5 Z"/></g>
<g><path style="opacity:1" fill="#eeebea" d="M 726.5,5.5 C 727.091,6.15149 727.757,6.81815 728.5,7.5C 727.139,7.78764 725.806,8.12097 724.5,8.5C 724.427,6.97306 725.094,5.97306 726.5,5.5 Z"/></g>
<g><path style="opacity:1" fill="#ac9f95" d="M 222.5,6.5 C 221.833,7.5 221.167,8.5 220.5,9.5C 220.238,8.02218 220.571,6.68884 221.5,5.5C 222.107,5.62358 222.44,5.95691 222.5,6.5 Z"/></g>
<g><path style="opacity:1" fill="#f2f3f2" d="M 582.5,8.5 C 582.897,7.47498 583.563,7.30831 584.5,8C 583.906,8.46434 583.239,8.63101 582.5,8.5 Z"/></g>
<g><path style="opacity:1" fill="#a8988b" d="M 641.5,-0.5 C 642.5,-0.5 643.5,-0.5 644.5,-0.5C 644.5,-0.166667 644.5,0.166667 644.5,0.5C 643.761,0.368989 643.094,0.535656 642.5,1C 643.435,3.3806 643.768,5.8806 643.5,8.5C 638.833,8.5 634.167,8.5 629.5,8.5C 629.5,7.83333 629.833,7.5 630.5,7.5C 634.5,7.5 638.5,7.5 642.5,7.5C 642.167,4.83333 641.833,2.16667 641.5,-0.5 Z"/></g>
<g><path style="opacity:1" fill="#f2f3f2" d="M 705.5,8.5 C 701.154,8.66568 696.821,8.49902 692.5,8C 697.02,7.18636 701.354,7.35303 705.5,8.5 Z"/></g>
<g><path style="opacity:1" fill="#f2f3f2" d="M 712.5,8.5 C 712.897,7.47498 713.563,7.30831 714.5,8C 713.906,8.46434 713.239,8.63101 712.5,8.5 Z"/></g>
<g><path style="opacity:1" fill="#5c3f2d" d="M 648.5,1.5 C 649.675,1.28099 650.675,1.61432 651.5,2.5C 651.376,3.10667 651.043,3.44001 650.5,3.5C 648.824,4.18342 648.157,5.51676 648.5,7.5C 651.713,7.81 654.713,7.47667 657.5,6.5C 657.415,5.00475 658.081,4.00475 659.5,3.5C 666.514,8.42494 665.514,10.4249 656.5,9.5C 653.833,9.5 651.167,9.5 648.5,9.5C 647.167,13.5 647.167,17.5 648.5,21.5C 653.503,22.2295 658.003,21.2295 662,18.5C 664.475,18.9842 666.308,20.3175 667.5,22.5C 663.217,23.4922 658.884,23.8256 654.5,23.5C 651.167,23.5 647.833,23.5 644.5,23.5C 644.5,22.8333 644.5,22.1667 644.5,21.5C 645.818,18.7425 646.485,15.5758 646.5,12C 646.481,8.58188 646.147,5.24855 645.5,2C 646.448,1.51722 647.448,1.35055 648.5,1.5 Z"/></g>
<g><path style="opacity:1" fill="#efedec" d="M 650.5,3.5 C 649.697,4.42317 649.53,5.42317 650,6.5C 652.467,3.97264 654.967,3.97264 657.5,6.5C 654.713,7.47667 651.713,7.81 648.5,7.5C 648.157,5.51676 648.824,4.18342 650.5,3.5 Z"/></g>
<g><path style="opacity:1" fill="#b39f91" d="M 245.5,5.5 C 245.5,6.83333 245.5,8.16667 245.5,9.5C 238.167,10.8333 230.833,10.8333 223.5,9.5C 223.833,9.5 224.167,9.5 224.5,9.5C 225.833,9.5 227.167,9.5 228.5,9.5C 232.042,9.81277 235.375,9.47944 238.5,8.5C 240.5,8.5 242.5,8.5 244.5,8.5C 244.263,7.20895 244.596,6.20895 245.5,5.5 Z"/></g>
<g><path style="opacity:1" fill="#f2f3f2" d="M 379.5,9.5 C 380.833,10.1667 380.833,10.1667 379.5,9.5 Z"/></g>
<g><path style="opacity:1" fill="#f2f3f2" d="M 427.5,9.5 C 428.833,10.1667 428.833,10.1667 427.5,9.5 Z"/></g>
<g><path style="opacity:1" fill="#e9e0de" d="M 691.5,10.5 C 690.833,10.5 690.5,10.8333 690.5,11.5C 689.957,11.44 689.624,11.1067 689.5,10.5C 690.257,9.22671 690.923,9.22671 691.5,10.5 Z"/></g>
<g><path style="opacity:1" fill="#e1dedc" d="M 399.5,15.5 C 399.443,14.391 399.11,13.391 398.5,12.5C 399.151,11.9094 399.818,11.2427 400.5,10.5C 401.247,12.2894 400.914,13.9561 399.5,15.5 Z"/></g>
<g><path style="opacity:1" fill="#f2f3f2" d="M 580.5,10.5 C 581.525,10.8966 581.692,11.5632 581,12.5C 580.536,11.9056 580.369,11.2389 580.5,10.5 Z"/></g>
<g><path style="opacity:1" fill="#92837a" d="M 718.5,4.5 C 718.833,4.5 719.167,4.5 719.5,4.5C 719.59,7.15216 718.924,9.48549 717.5,11.5C 717.674,9.13895 718.007,6.80562 718.5,4.5 Z"/></g>
<g><path style="opacity:1" fill="#f0edee" d="M 737.5,12.5 C 735.052,13.4731 732.385,13.8064 729.5,13.5C 730.263,12.7321 731.263,12.2321 732.5,12C 730.096,11.4921 729.429,10.3255 730.5,8.5C 732.861,9.85455 735.194,11.1879 737.5,12.5 Z"/></g>
<g><path style="opacity:1" fill="#f2f3f2" d="M 270.5,11.5 C 273.001,11.5109 273.168,12.1776 271,13.5C 270.536,12.9056 270.369,12.2389 270.5,11.5 Z"/></g>
<g><path style="opacity:1" fill="#dfdbda" d="M 620.5,10.5 C 622.042,11.3007 623.708,11.634 625.5,11.5C 624.402,12.397 624.402,13.2303 625.5,14C 623.866,14.4935 622.199,14.6602 620.5,14.5C 620.5,13.1667 620.5,11.8333 620.5,10.5 Z"/></g>
<g><path style="opacity:1" fill="#75583c" d="M 644.5,0.5 C 646.099,0.232191 647.432,0.565525 648.5,1.5C 647.448,1.35055 646.448,1.51722 645.5,2C 646.147,5.24855 646.481,8.58188 646.5,12C 646.485,15.5758 645.818,18.7425 644.5,21.5C 644.5,14.5 644.5,7.5 644.5,0.5 Z"/></g>
<g><path style="opacity:1" fill="#f1f0ee" d="M 648.5,10.5 C 648.5,10.1667 648.5,9.83333 648.5,9.5C 651.167,9.5 653.833,9.5 656.5,9.5C 655.199,10.64 654.032,11.9733 653,13.5C 650.491,12.8931 648.991,11.8931 648.5,10.5 Z"/></g>
<g><path style="opacity:1" fill="#f3f0f0" d="M 661.5,12.5 C 661.897,11.475 662.563,11.3083 663.5,12C 662.906,12.4643 662.239,12.631 661.5,12.5 Z"/></g>
<g><path style="opacity:1" fill="#958278" d="M 690.5,11.5 C 695.695,11.1795 700.695,11.5128 705.5,12.5C 700.901,12.2 696.401,12.5333 692,13.5C 691.283,12.9558 690.783,12.2891 690.5,11.5 Z"/></g>
<g><path style="opacity:1" fill="#ece9e7" d="M 724.5,8.5 C 724.119,10.9418 724.786,11.6085 726.5,10.5C 727.425,11.3569 728.092,12.3569 728.5,13.5C 722.829,14.2963 721.496,12.6296 724.5,8.5 Z"/></g>
<g><path style="opacity:1" fill="#f3f1f0" d="M 259.5,18.5 C 259.061,20.3347 257.728,21.8347 255.5,23C 253.311,23.2086 251.311,22.8753 249.5,22C 250.833,22.6667 250.833,23.3333 249.5,24C 252.482,24.498 255.482,24.6646 258.5,24.5C 254.03,25.4861 249.363,25.8195 244.5,25.5C 244.249,22.091 244.583,18.7577 245.5,15.5C 245.043,14.7025 244.376,14.3691 243.5,14.5C 241.958,13.6993 240.292,13.366 238.5,13.5C 239.089,17.9707 238.423,21.9707 236.5,25.5C 229.978,25.1765 223.645,25.5098 217.5,26.5C 217.5,25.1667 217.5,23.8333 217.5,22.5C 222.101,20.4368 224.101,16.7701 223.5,11.5C 235.5,11.5 247.5,11.5 259.5,11.5C 258.897,14.0409 258.897,16.3743 259.5,18.5 Z"/></g>
<g><path style="opacity:1" fill="#c8c0b8" d="M 410.5,11.5 C 413.625,12.4794 416.958,12.8128 420.5,12.5C 416.833,13.8333 413.167,13.8333 409.5,12.5C 409.5,11.8333 409.833,11.5 410.5,11.5 Z"/></g>
<g><path style="opacity:1" fill="#f6f5f4" d="M 549.5,8.5 C 556.833,8.5 564.167,8.5 571.5,8.5C 571.823,14.69 571.49,20.69 570.5,26.5C 565.167,26.5 559.833,26.5 554.5,26.5C 552.833,26.5 551.167,26.5 549.5,26.5C 549.5,20.5 549.5,14.5 549.5,8.5 Z"/></g>
<g><path style="opacity:1" fill="#f2f3f2" d="M 213.5,14.5 C 213.897,13.475 214.563,13.3083 215.5,14C 214.906,14.4643 214.239,14.631 213.5,14.5 Z"/></g>
<g><path style="opacity:1" fill="#cec5c3" d="M 268.5,11.5 C 269.404,12.209 269.737,13.209 269.5,14.5C 268.167,14.5 266.833,14.5 265.5,14.5C 266.9,13.8999 267.9,12.8999 268.5,11.5 Z"/></g>
<g><path style="opacity:1" fill="#f0eeec" d="M 705.5,13.5 C 705.5,14.1667 705.5,14.8333 705.5,15.5C 704.859,18.8905 703.692,22.2239 702,25.5C 700.482,24.8366 699.315,23.8366 698.5,22.5C 703.512,16.9731 702.178,14.1398 694.5,14C 698.152,13.5014 701.818,13.3347 705.5,13.5 Z"/></g>
<g><path style="opacity:1" fill="#452b17" d="M 690.5,11.5 C 690.5,10.8333 690.833,10.5 691.5,10.5C 692.833,10.5 694.167,10.5 695.5,10.5C 699.182,10.3347 702.848,10.5014 706.5,11C 707.797,13.5446 707.631,16.0446 706,18.5C 705.517,17.552 705.351,16.552 705.5,15.5C 705.5,14.8333 705.5,14.1667 705.5,13.5C 705.5,13.1667 705.5,12.8333 705.5,12.5C 700.695,11.5128 695.695,11.1795 690.5,11.5 Z"/></g>
<g><path style="opacity:1" fill="#422b1a" d="M 712.5,10.5 C 712.833,10.5 713.167,10.5 713.5,10.5C 711.052,14.8404 709.386,19.5071 708.5,24.5C 707.903,24.2648 707.57,23.7648 707.5,23C 708.411,19.8549 709.245,16.6883 710,13.5C 710.236,11.8807 711.069,10.8807 712.5,10.5 Z"/></g>
<g><path style="opacity:1" fill="#634730" d="M 222.5,6.5 C 223.404,7.20895 223.737,8.20895 223.5,9.5C 230.833,10.8333 238.167,10.8333 245.5,9.5C 250.179,9.66582 254.845,9.49915 259.5,9C 259.998,7.84185 260.831,7.00852 262,6.5C 264.669,7.57665 266.836,9.24332 268.5,11.5C 267.9,12.8999 266.9,13.8999 265.5,14.5C 263.223,15.4486 261.223,16.7819 259.5,18.5C 258.897,16.3743 258.897,14.0409 259.5,11.5C 247.5,11.5 235.5,11.5 223.5,11.5C 224.101,16.7701 222.101,20.4368 217.5,22.5C 215.278,22.4413 214.278,21.2747 214.5,19C 215.205,16.4582 216.539,14.2916 218.5,12.5C 219.906,12.0269 220.573,11.0269 220.5,9.5C 221.167,8.5 221.833,7.5 222.5,6.5 Z"/></g>
<g><path style="opacity:1" fill="#f2f1f1" d="M 246.5,6.5 C 249.721,7.57321 252.888,7.57321 256,6.5C 256.75,7.12576 257.584,7.62576 258.5,8C 256.5,8.16667 254.5,8.33333 252.5,8.5C 250.048,8.46093 248.048,7.79426 246.5,6.5 Z"/></g>
<g><path style="opacity:1" fill="#e9e8e6" d="M 265.5,14.5 C 265.918,15.2216 266.584,15.7216 267.5,16C 264.943,16.6853 263.109,18.1853 262,20.5C 261.292,19.6195 260.458,18.9528 259.5,18.5C 261.223,16.7819 263.223,15.4486 265.5,14.5 Z"/></g>
<g><path style="opacity:1" fill="#4a2f1a" d="M 317.5,0.5 C 317.666,6.17645 317.499,11.8431 317,17.5C 316.617,16.944 316.117,16.6107 315.5,16.5C 315.782,10.9793 316.449,5.64598 317.5,0.5 Z"/></g>
<g><path style="opacity:1" fill="#71543d" d="M 408.5,0.5 C 410.579,0.970655 412.579,1.63732 414.5,2.5C 414.443,3.60895 414.11,4.60895 413.5,5.5C 413.008,7.81853 412.008,9.81853 410.5,11.5C 409.833,11.5 409.5,11.8333 409.5,12.5C 407.576,12.7107 407.243,13.3774 408.5,14.5C 408.5,14.8333 408.5,15.1667 408.5,15.5C 407.921,18.3311 406.588,20.6644 404.5,22.5C 404.539,21.2438 404.039,20.2438 403,19.5C 402.8,21.3197 401.966,22.653 400.5,23.5C 402.121,19.2579 403.454,14.9245 404.5,10.5C 405.664,7.00332 406.998,3.66999 408.5,0.5 Z"/></g>
<g><path style="opacity:1" fill="#968776" d="M 542.5,6.5 C 543.167,6.5 543.5,6.83333 543.5,7.5C 543.804,23.8808 543.471,40.2141 542.5,56.5C 542.448,40.0556 542.448,23.3889 542.5,6.5 Z"/></g>
<g><path style="opacity:1" fill="#47230a" d="M 543.5,7.5 C 543.863,23.8971 544.863,40.2304 546.5,56.5C 545.167,56.5 543.833,56.5 542.5,56.5C 543.471,40.2141 543.804,23.8808 543.5,7.5 Z"/></g>
<g><path style="opacity:1" fill="#735b4d" d="M 648.5,9.5 C 648.5,9.83333 648.5,10.1667 648.5,10.5C 648.5,11.8333 648.5,13.1667 648.5,14.5C 652.005,15.1245 654.838,14.1245 657,11.5C 660.121,11.7924 661.621,13.4591 661.5,16.5C 657.167,16.5 652.833,16.5 648.5,16.5C 648.5,18.1667 648.5,19.8333 648.5,21.5C 647.167,17.5 647.167,13.5 648.5,9.5 Z"/></g>
<g><path style="opacity:1" fill="#f2f3f2" d="M 328.5,16.5 C 329.782,17.7082 329.782,19.0416 328.5,20.5C 327.374,19.1916 327.374,17.8583 328.5,16.5 Z"/></g>
<g><path style="opacity:1" fill="#f1efee" d="M 382.5,14.5 C 385.833,14.5 389.167,14.5 392.5,14.5C 392.5,19.1667 392.5,23.8333 392.5,28.5C 389.167,28.5 385.833,28.5 382.5,28.5C 382.5,23.8333 382.5,19.1667 382.5,14.5 Z"/></g>
<g><path style="opacity:1" fill="#f2f3f2" d="M 540.5,16.5 C 541.613,17.9464 541.78,19.6131 541,21.5C 540.506,19.8659 540.34,18.1992 540.5,16.5 Z"/></g>
<g><path style="opacity:1" fill="#f2f3f2" d="M 146.5,18.5 C 147.251,17.4265 148.251,17.2599 149.5,18C 148.552,18.4828 147.552,18.6495 146.5,18.5 Z"/></g>
<g><path style="opacity:1" fill="#f2f3f2" d="M 210.5,17.5 C 213.957,17.6672 214.29,18.6672 211.5,20.5C 210.614,19.675 210.281,18.675 210.5,17.5 Z"/></g>
<g><path style="opacity:1" fill="#a3978b" d="M 382.5,14.5 C 382.5,19.1667 382.5,23.8333 382.5,28.5C 385.833,28.5 389.167,28.5 392.5,28.5C 392.5,28.8333 392.5,29.1667 392.5,29.5C 388.833,29.5 385.167,29.5 381.5,29.5C 381.179,24.3054 381.513,19.3054 382.5,14.5 Z"/></g>
<g><path style="opacity:1" fill="#f2f3f2" d="M 409.5,17.5 C 410.525,17.8966 410.692,18.5632 410,19.5C 409.536,18.9056 409.369,18.2389 409.5,17.5 Z"/></g>
<g><path style="opacity:1" fill="#e8e6e4" d="M 616.5,16.5 C 614.801,16.3398 613.134,16.5065 611.5,17C 612.71,18.0391 613.71,19.2058 614.5,20.5C 610.187,22.1874 608.854,20.8541 610.5,16.5C 610.833,15.8333 611.167,15.1667 611.5,14.5C 613.426,15.0606 615.426,15.2273 617.5,15C 616.944,15.3826 616.611,15.8826 616.5,16.5 Z"/></g>
<g><path style="opacity:1" fill="#f2f3f2" d="M 622.5,18.5 C 622.897,17.475 623.563,17.3083 624.5,18C 623.906,18.4643 623.239,18.631 622.5,18.5 Z"/></g>
<g><path style="opacity:1" fill="#f2f3f2" d="M 657.5,17.5 C 658.833,18.1667 658.833,18.1667 657.5,17.5 Z"/></g>
<g><path style="opacity:1" fill="#f2f3f2" d="M 807.5,18.5 C 808.251,17.4265 809.251,17.2599 810.5,18C 809.552,18.4828 808.552,18.6495 807.5,18.5 Z"/></g>
<g><path style="opacity:1" fill="#f2f3f2" d="M 373.5,18.5 C 374.622,20.2884 374.789,22.2884 374,24.5C 373.505,22.5273 373.338,20.5273 373.5,18.5 Z"/></g>
<g><path style="opacity:1" fill="#f2f3f2" d="M 427.5,24.5 C 427.5,23.8333 427.5,23.1667 427.5,22.5C 428.29,21.3915 428.79,20.0581 429,18.5C 429.667,21.8333 429.667,25.1667 429,28.5C 428.79,26.9419 428.29,25.6085 427.5,24.5 Z"/></g>
<g><path style="opacity:1" fill="#f3f2f2" d="M 640.5,21.5 C 637.833,21.5 635.167,21.5 632.5,21.5C 632.389,20.8826 632.056,20.3826 631.5,20C 633.891,19.7132 636.224,19.2132 638.5,18.5C 640.871,18.8916 641.538,19.8916 640.5,21.5 Z"/></g>
<g><path style="opacity:1" fill="#f2f2f1" d="M 657.5,18.5 C 656.848,19.7251 655.681,20.3917 654,20.5C 652.833,20.3333 651.667,20.1667 650.5,20C 652.859,18.4632 655.192,17.9632 657.5,18.5 Z"/></g>
<g><path style="opacity:1" fill="#e7e4e4" d="M 745.5,17.5 C 744.402,18.397 744.402,19.2303 745.5,20C 743.722,22.0253 742.389,21.8586 741.5,19.5C 742.287,17.8958 743.62,17.2291 745.5,17.5 Z"/></g>
<g><path style="opacity:1" fill="#f2f2f1" d="M 420.5,20.5 C 420.5,23.5 420.5,26.5 420.5,29.5C 420.5,31.1667 420.5,32.8333 420.5,34.5C 420.167,34.5 419.833,34.5 419.5,34.5C 418.778,29.5107 418.612,24.5107 419,19.5C 419.383,20.056 419.883,20.3893 420.5,20.5 Z"/></g>
<g><path style="opacity:1" fill="#d3cdc9" d="M 694.5,18.5 C 692.302,18.4088 691.969,19.0755 693.5,20.5C 692.883,20.6107 692.383,20.944 692,21.5C 690.881,20.4479 690.381,19.2812 690.5,18C 691.881,16.4658 693.214,16.6325 694.5,18.5 Z"/></g>
<g><path style="opacity:1" fill="#f9f3f9" d="M 412.5,20.5 C 413.525,20.8966 413.692,21.5632 413,22.5C 412.536,21.9056 412.369,21.2389 412.5,20.5 Z"/></g>
<g><path style="opacity:1" fill="#ac9f94" d="M 408.5,15.5 C 408.5,15.1667 408.5,14.8333 408.5,14.5C 412.833,14.5 417.167,14.5 421.5,14.5C 421.5,18.8333 421.5,23.1667 421.5,27.5C 421.672,28.4916 421.338,29.1583 420.5,29.5C 420.5,26.5 420.5,23.5 420.5,20.5C 420.5,18.8333 420.5,17.1667 420.5,15.5C 416.5,15.5 412.5,15.5 408.5,15.5 Z"/></g>
<g><path style="opacity:1" fill="#765c46" d="M 578.5,54.5 C 578.667,39.4963 578.5,24.4963 578,9.5C 577.5,24.1629 577.333,38.8295 577.5,53.5C 576.167,53.5 574.833,53.5 573.5,53.5C 573.666,45.16 573.5,36.8267 573,28.5C 572.828,35.346 572.328,42.0126 571.5,48.5C 571.824,41.6457 571.491,34.979 570.5,28.5C 570.5,27.8333 570.5,27.1667 570.5,26.5C 571.49,20.69 571.823,14.69 571.5,8.5C 564.167,8.5 556.833,8.5 549.5,8.5C 557.382,7.90549 564.049,7.23882 569.5,6.5C 570.167,5.83333 570.833,5.16667 571.5,4.5C 572.167,4.5 572.5,4.16667 572.5,3.5C 573.251,2.42654 574.251,2.25988 575.5,3C 577.812,4.31395 579.812,5.98062 581.5,8C 579.878,23.5407 578.878,39.0407 578.5,54.5 Z"/></g>
<g><path style="opacity:1" fill="#6a523f" d="M 616.5,16.5 C 622.622,19.0206 623.622,22.6873 619.5,27.5C 615.929,26.6492 614.263,24.3158 614.5,20.5C 613.71,19.2058 612.71,18.0391 611.5,17C 613.134,16.5065 614.801,16.3398 616.5,16.5 Z"/></g>
<g><path style="opacity:1" fill="#634734" d="M 719.5,-0.5 C 720.167,-0.5 720.833,-0.5 721.5,-0.5C 721.842,0.338246 722.508,0.67158 723.5,0.5C 725.189,1.30374 726.855,2.30374 728.5,3.5C 728.145,4.5223 727.478,5.18897 726.5,5.5C 725.094,5.97306 724.427,6.97306 724.5,8.5C 721.496,12.6296 722.829,14.2963 728.5,13.5C 728.833,13.5 729.167,13.5 729.5,13.5C 732.385,13.8064 735.052,13.4731 737.5,12.5C 738.002,10.9153 739.002,10.4153 740.5,11C 742.609,12.1411 744.442,13.6411 746,15.5C 746.692,16.4368 746.525,17.1034 745.5,17.5C 743.62,17.2291 742.287,17.8958 741.5,19.5C 739.098,21.9092 736.431,23.9092 733.5,25.5C 735.292,22.4541 736.292,19.1207 736.5,15.5C 731.125,15.1718 725.792,15.5052 720.5,16.5C 717.529,21.3035 714.362,25.9702 711,30.5C 712.703,25.2276 714.536,19.8943 716.5,14.5C 716.263,13.209 716.596,12.209 717.5,11.5C 718.924,9.48549 719.59,7.15216 719.5,4.5C 719.5,3.16667 719.5,1.83333 719.5,0.5C 719.5,0.166667 719.5,-0.166667 719.5,-0.5 Z"/></g>
<g><path style="opacity:1" fill="#f2f3f2" d="M 264.5,22.5 C 264.897,21.475 265.563,21.3083 266.5,22C 265.906,22.4643 265.239,22.631 264.5,22.5 Z"/></g>
<g><path style="opacity:1" fill="#473428" d="M 404.5,22.5 C 402.937,23.9448 401.604,25.6115 400.5,27.5C 399.833,27.5 399.5,27.1667 399.5,26.5C 399.263,25.209 399.596,24.209 400.5,23.5C 401.966,22.653 402.8,21.3197 403,19.5C 404.039,20.2438 404.539,21.2438 404.5,22.5 Z"/></g>
<g><path style="opacity:1" fill="#8d7a72" d="M 642.5,16.5 C 643.461,18.2646 643.795,20.2646 643.5,22.5C 638.167,22.5 632.833,22.5 627.5,22.5C 627.5,22.1667 627.5,21.8333 627.5,21.5C 629.167,21.5 630.833,21.5 632.5,21.5C 635.167,21.5 637.833,21.5 640.5,21.5C 642.256,20.4479 642.923,18.7812 642.5,16.5 Z"/></g>
<g><path style="opacity:1" fill="#341c0c" d="M 409.5,12.5 C 413.167,13.8333 416.833,13.8333 420.5,12.5C 421.809,14.5706 422.475,17.0706 422.5,20C 422.497,22.6903 422.164,25.1903 421.5,27.5C 421.5,23.1667 421.5,18.8333 421.5,14.5C 417.167,14.5 412.833,14.5 408.5,14.5C 407.243,13.3774 407.576,12.7107 409.5,12.5 Z"/></g>
<g><path style="opacity:1" fill="#7a655a" d="M 627.5,20.5 C 626.251,23.0873 625.251,25.754 624.5,28.5C 623.391,28.5569 622.391,28.8902 621.5,29.5C 623.228,24.4852 625.061,19.4852 627,14.5C 627.893,13.2888 628.726,13.2888 629.5,14.5C 628.828,16.5295 628.162,18.5295 627.5,20.5 Z"/></g>
<g><path style="opacity:1" fill="#f2f3f2" d="M 157.5,23.5 C 158.833,24.1667 158.833,24.1667 157.5,23.5 Z"/></g>
<g><path style="opacity:1" fill="#e8e5e2" d="M 313.5,27.5 C 313.737,28.791 313.404,29.791 312.5,30.5C 311.74,29.1067 311.074,27.6067 310.5,26C 310.667,25.1667 310.833,24.3333 311,23.5C 311.934,24.8584 312.768,26.1917 313.5,27.5 Z"/></g>
<g><path style="opacity:1" fill="#4b2e15" d="M 377.5,10.5 C 378.913,25.3499 378.579,40.3499 376.5,55.5C 376.171,40.324 376.504,25.324 377.5,10.5 Z"/></g>
<g><path style="opacity:1" fill="#edebeb" d="M 404.5,22.5 C 405.167,23.1667 405.833,23.8333 406.5,24.5C 405.761,24.369 405.094,24.5357 404.5,25C 406.607,26.2635 407.607,28.0968 407.5,30.5C 406.778,30.9175 406.278,31.5842 406,32.5C 405.405,28.9178 404.071,28.5845 402,31.5C 402.338,35.8212 401.671,40.1546 400,44.5C 399.802,42.6183 399.302,40.9516 398.5,39.5C 398.016,35.1726 398.682,31.1726 400.5,27.5C 401.604,25.6115 402.937,23.9448 404.5,22.5 Z"/></g>
<g><path style="opacity:1" fill="#d6cfc9" d="M 504.5,21.5 C 503.167,22.1667 502.167,23.1667 501.5,24.5C 500.244,24.4614 499.244,24.9614 498.5,26C 488.506,26.4998 478.506,26.6665 468.5,26.5C 477.658,25.6701 486.991,25.1701 496.5,25C 487.5,24.6667 478.5,24.3333 469.5,24C 478.701,23.7938 487.868,23.2938 497,22.5C 500.007,23.8703 502.007,22.8703 503,19.5C 503.717,20.0442 504.217,20.7109 504.5,21.5 Z"/></g>
<g><path style="opacity:1" fill="#f2f3f2" d="M 691.5,23.5 C 692.833,24.1667 692.833,24.1667 691.5,23.5 Z"/></g>
<g><path style="opacity:1" fill="#715439" d="M 817.5,27.5 C 817.5,27.8333 817.5,28.1667 817.5,28.5C 817.5,29.1667 817.167,29.5 816.5,29.5C 815.833,29.1667 815.167,28.8333 814.5,28.5C 811.373,22.2504 807.54,21.917 803,27.5C 802.36,29.265 802.527,30.9317 803.5,32.5C 802.596,33.209 802.263,34.209 802.5,35.5C 801.109,33.4286 799.276,31.7619 797,30.5C 796.472,29.184 796.972,28.5173 798.5,28.5C 799.5,28.1667 800.167,27.5 800.5,26.5C 803.077,20.4753 807.41,18.642 813.5,21C 815.734,22.6379 817.067,24.8045 817.5,27.5 Z"/></g>
<g><path style="opacity:1" fill="#f2f3f2" d="M 817.5,24.5 C 817.897,23.475 818.563,23.3083 819.5,24C 818.906,24.4643 818.239,24.631 817.5,24.5 Z"/></g>
<g><path style="opacity:1" fill="#f3f1ef" d="M 142.5,28.5 C 143.11,27.609 143.443,26.609 143.5,25.5C 147.789,22.3257 151.122,23.159 153.5,28C 149.848,28.4986 146.182,28.6653 142.5,28.5 Z"/></g>
<g><path style="opacity:1" fill="#755942" d="M 542.5,2.5 C 545.485,3.32567 548.151,4.659 550.5,6.5C 549.25,6.57735 548.417,7.24402 548,8.5C 547.833,16.1667 547.667,23.8333 547.5,31.5C 547.502,39.5303 548.169,47.197 549.5,54.5C 549.027,55.9063 548.027,56.573 546.5,56.5C 544.863,40.2304 543.863,23.8971 543.5,7.5C 543.5,6.83333 543.167,6.5 542.5,6.5C 542.5,5.16667 542.5,3.83333 542.5,2.5 Z"/></g>
<g><path style="opacity:1" fill="#edeae6" d="M 814.5,28.5 C 813.022,28.238 811.689,28.5713 810.5,29.5C 815.381,30.8328 815.714,32.9995 811.5,36C 807.754,37.2223 805.087,36.0557 803.5,32.5C 802.527,30.9317 802.36,29.265 803,27.5C 807.54,21.917 811.373,22.2504 814.5,28.5 Z"/></g>
<g><path style="opacity:1" fill="#f4f3f3" d="M 104.5,27.5 C 101.167,27.5 97.8333,27.5 94.5,27.5C 88.0126,26.6717 81.346,26.1717 74.5,26C 89.5,25.3333 104.5,25.3333 119.5,26C 114.316,26.1739 109.316,26.6739 104.5,27.5 Z"/></g>
<g><path style="opacity:1" fill="#f2f3f2" d="M 330.5,28.5 C 330.329,25.2027 330.995,24.8694 332.5,27.5C 332.043,28.2975 331.376,28.6309 330.5,28.5 Z"/></g>
<g><path style="opacity:1" fill="#f2f3f2" d="M 661.5,26.5 C 662.251,25.4265 663.251,25.2599 664.5,26C 663.648,27.7284 662.648,27.895 661.5,26.5 Z"/></g>
<g><path style="opacity:1" fill="#eceae9" d="M 713.5,10.5 C 714.5,11.8333 715.5,13.1667 716.5,14.5C 714.536,19.8943 712.703,25.2276 711,30.5C 714.362,25.9702 717.529,21.3035 720.5,16.5C 725.792,15.5052 731.125,15.1718 736.5,15.5C 736.292,19.1207 735.292,22.4541 733.5,25.5C 733.5,25.8333 733.5,26.1667 733.5,26.5C 731.455,27.9228 730.455,29.9228 730.5,32.5C 729.715,30.6264 729.048,28.6264 728.5,26.5C 728.141,24.2341 728.808,22.4007 730.5,21C 728.059,19.5544 725.392,18.7211 722.5,18.5C 723.7,30.7234 720.367,41.3901 712.5,50.5C 712.167,50.5 711.833,50.5 711.5,50.5C 709.469,49.4613 708.136,47.7946 707.5,45.5C 711.24,46.2585 712.907,44.7585 712.5,41C 711.57,36.8111 709.57,33.1444 706.5,30C 707.32,28.1997 707.986,26.3664 708.5,24.5C 709.386,19.5071 711.052,14.8404 713.5,10.5 Z"/></g>
<g><path style="opacity:1" fill="#e6e3e0" d="M 800.5,26.5 C 800.167,27.5 799.5,28.1667 798.5,28.5C 795.871,25.5594 796.538,24.8927 800.5,26.5 Z"/></g>
<g><path style="opacity:1" fill="#edebe8" d="M 885.5,28.5 C 862.833,28.5 840.167,28.5 817.5,28.5C 817.5,28.1667 817.5,27.8333 817.5,27.5C 835.039,25.4194 852.706,24.9194 870.5,26C 861.833,26.3333 853.167,26.6667 844.5,27C 858.339,27.1689 872.006,27.6689 885.5,28.5 Z"/></g>
<g><path style="opacity:1" fill="#f9f3f2" d="M 871.5,26.5 C 875.981,25.3516 880.648,25.1849 885.5,26C 880.845,26.4992 876.179,26.6658 871.5,26.5 Z"/></g>
<g><path style="opacity:1" fill="#e0dcd5" d="M 140.5,25.5 C 140.196,26.1499 139.863,26.8165 139.5,27.5C 122.847,28.4995 106.18,28.8328 89.5,28.5C 84.5,28.5 79.5,28.5 74.5,28.5C 80.979,27.5093 87.6457,27.176 94.5,27.5C 97.8333,27.5 101.167,27.5 104.5,27.5C 114.172,27.6665 123.839,27.4998 133.5,27C 129.167,26.6667 124.833,26.3333 120.5,26C 125.863,25.7361 131.197,25.2361 136.5,24.5C 137.849,24.8457 139.183,25.179 140.5,25.5 Z"/></g>
<g><path style="opacity:1" fill="#7a5b41" d="M 158.5,28.5 C 158.443,29.609 158.11,30.609 157.5,31.5C 155.738,32.2623 154.738,33.5956 154.5,35.5C 152.763,37.8802 150.43,39.5469 147.5,40.5C 146.261,40.0576 145.261,39.3909 144.5,38.5C 150.811,38.8531 151.145,37.8531 145.5,35.5C 149.746,36.2394 152.413,34.5727 153.5,30.5C 149.833,29.8333 146.167,29.1667 142.5,28.5C 146.182,28.6653 149.848,28.4986 153.5,28C 151.122,23.159 147.789,22.3257 143.5,25.5C 142.652,24.375 141.652,24.375 140.5,25.5C 142.853,19.8291 146.853,18.3291 152.5,21C 154.364,23.6877 156.364,26.1877 158.5,28.5 Z"/></g>
<g><path style="opacity:1" fill="#533829" d="M 236.5,25.5 C 236.611,26.1174 236.944,26.6174 237.5,27C 234.963,29.9063 232.796,33.073 231,36.5C 230.536,35.9056 230.369,35.2389 230.5,34.5C 230.328,33.5084 230.662,32.8417 231.5,32.5C 236.22,28.0504 235.22,26.3837 228.5,27.5C 225.421,27.2601 222.421,27.5934 219.5,28.5C 218.478,28.1445 217.811,27.4778 217.5,26.5C 223.645,25.5098 229.978,25.1765 236.5,25.5 Z"/></g>
<g><path style="opacity:1" fill="#735a4e" d="M 264.5,22.5 C 265.476,23.8149 266.476,25.1482 267.5,26.5C 261.537,27.4959 255.537,27.8293 249.5,27.5C 248.5,27.5 247.5,27.5 246.5,27.5C 251.985,26.6728 257.652,26.1728 263.5,26C 261.939,25.6824 260.772,24.8491 260,23.5C 259.617,24.056 259.117,24.3893 258.5,24.5C 258.414,23.5041 258.748,22.6708 259.5,22C 261.197,21.6155 262.863,21.7822 264.5,22.5 Z"/></g>
<g><path style="opacity:1" fill="#6d5341" d="M 504.5,21.5 C 506.546,23.2789 508.713,24.9456 511,26.5C 511.667,27.1667 511.667,27.8333 511,28.5C 506.934,29.4637 502.767,29.797 498.5,29.5C 494.366,28.5151 490.032,28.1818 485.5,28.5C 481.833,28.5 478.167,28.5 474.5,28.5C 482.657,27.6706 490.99,27.1706 499.5,27C 500.381,26.2917 501.047,25.4584 501.5,24.5C 502.167,23.1667 503.167,22.1667 504.5,21.5 Z"/></g>
<g><path style="opacity:1" fill="#664a35" d="M 709.5,7.5 C 710.694,8.27187 711.694,9.27187 712.5,10.5C 711.069,10.8807 710.236,11.8807 710,13.5C 709.245,16.6883 708.411,19.8549 707.5,23C 707.57,23.7648 707.903,24.2648 708.5,24.5C 707.986,26.3664 707.32,28.1997 706.5,30C 709.57,33.1444 711.57,36.8111 712.5,41C 712.907,44.7585 711.24,46.2585 707.5,45.5C 707.5,45.1667 707.5,44.8333 707.5,44.5C 707.329,41.2027 707.995,40.8694 709.5,43.5C 710.983,40.1146 710.149,37.4479 707,35.5C 706.405,36.8989 706.572,38.2322 707.5,39.5C 707.03,40.463 706.363,40.463 705.5,39.5C 705.217,38.7109 704.717,38.0442 704,37.5C 701.636,40.6902 699.136,43.6902 696.5,46.5C 694.809,47.8637 693.142,49.197 691.5,50.5C 691.5,51.1667 691.167,51.5 690.5,51.5C 689.833,51.5 689.5,51.1667 689.5,50.5C 689.833,49.8333 690.167,49.1667 690.5,48.5C 692.587,47.4154 693.92,45.7488 694.5,43.5C 696.119,39.931 697.452,36.2644 698.5,32.5C 699.573,31.7494 699.74,30.7494 699,29.5C 697.144,26.4443 695.311,23.4443 693.5,20.5C 691.969,19.0755 692.302,18.4088 694.5,18.5C 696.167,19.5 697.5,20.8333 698.5,22.5C 699.315,23.8366 700.482,24.8366 702,25.5C 703.692,22.2239 704.859,18.8905 705.5,15.5C 705.351,16.552 705.517,17.552 706,18.5C 707.631,16.0446 707.797,13.5446 706.5,11C 702.848,10.5014 699.182,10.3347 695.5,10.5C 698.833,9.83333 702.167,9.16667 705.5,8.5C 705.833,8.5 706.167,8.5 706.5,8.5C 707.391,7.89022 708.391,7.55688 709.5,7.5 Z"/></g>
<g><path style="opacity:1" fill="#f2f3f2" d="M 733.5,26.5 C 734.239,26.369 734.906,26.5357 735.5,27C 734.563,27.6917 733.897,27.525 733.5,26.5 Z"/></g>
<g><path style="opacity:1" fill="#402512" d="M 243.5,14.5 C 244.376,14.3691 245.043,14.7025 245.5,15.5C 244.583,18.7577 244.249,22.091 244.5,25.5C 249.363,25.8195 254.03,25.4861 258.5,24.5C 259.117,24.3893 259.617,24.056 260,23.5C 260.772,24.8491 261.939,25.6824 263.5,26C 257.652,26.1728 251.985,26.6728 246.5,27.5C 247.167,28.8333 247.833,30.1667 248.5,31.5C 248.591,33.6977 247.925,34.0311 246.5,32.5C 246.5,32.1667 246.5,31.8333 246.5,31.5C 246.291,30.0783 245.791,28.745 245,27.5C 244.5,36.8274 244.334,46.1607 244.5,55.5C 243.504,42.0102 243.171,28.3435 243.5,14.5 Z"/></g>
<g><path style="opacity:1" fill="#71543a" d="M 388.5,1.5 C 389.959,1.43255 391.292,1.76589 392.5,2.5C 392.443,3.60895 392.11,4.60895 391.5,5.5C 389.016,7.80028 387.016,10.4669 385.5,13.5C 383.833,13.5 382.167,13.5 380.5,13.5C 380.823,26.7461 380.489,39.9128 379.5,53C 380.094,53.4643 380.761,53.631 381.5,53.5C 380.177,55.6824 378.51,56.3491 376.5,55.5C 378.579,40.3499 378.913,25.3499 377.5,10.5C 378.167,10.5 378.833,10.5 379.5,10.5C 380.261,11.3909 381.261,12.0576 382.5,12.5C 383.421,10.2235 384.087,7.89012 384.5,5.5C 385.434,4.43236 385.768,3.09903 385.5,1.5C 386.5,1.5 387.5,1.5 388.5,1.5 Z"/></g>
<g><path style="opacity:1" fill="#6a503e" d="M 406.5,24.5 C 408.969,25.5686 411.302,26.9019 413.5,28.5C 417.968,33.2274 417.301,36.894 411.5,39.5C 410.478,39.1445 409.811,38.4778 409.5,37.5C 409.829,34.7718 409.163,32.4385 407.5,30.5C 407.607,28.0968 406.607,26.2635 404.5,25C 405.094,24.5357 405.761,24.369 406.5,24.5 Z"/></g>
<g><path style="opacity:1" fill="#f2f3f2" d="M 413.5,27.5 C 414.833,28.1667 414.833,28.1667 413.5,27.5 Z"/></g>
<g><path style="opacity:1" fill="#9d8778" d="M 468.5,26.5 C 465.359,27.3213 462.025,27.8213 458.5,28C 463.823,28.4994 469.156,28.666 474.5,28.5C 478.167,28.5 481.833,28.5 485.5,28.5C 475.675,29.7098 465.675,30.2098 455.5,30C 453.963,28.8904 453.297,27.3904 453.5,25.5C 458.383,25.2936 463.383,25.6269 468.5,26.5 Z"/></g>
<g><path style="opacity:1" fill="#351504" d="M 501.5,24.5 C 501.047,25.4584 500.381,26.2917 499.5,27C 490.99,27.1706 482.657,27.6706 474.5,28.5C 469.156,28.666 463.823,28.4994 458.5,28C 462.025,27.8213 465.359,27.3213 468.5,26.5C 478.506,26.6665 488.506,26.4998 498.5,26C 499.244,24.9614 500.244,24.4614 501.5,24.5 Z"/></g>
<g><path style="opacity:1" fill="#f2f3f2" d="M 619.5,27.5 C 620.833,28.1667 620.833,28.1667 619.5,27.5 Z"/></g>
<g><path style="opacity:1" fill="#ece9e8" d="M 627.5,20.5 C 627.5,20.8333 627.5,21.1667 627.5,21.5C 627.5,21.8333 627.5,22.1667 627.5,22.5C 632.975,23.4889 638.642,23.8222 644.5,23.5C 647.833,23.5 651.167,23.5 654.5,23.5C 653.737,24.2679 652.737,24.7679 651.5,25C 651.833,25.3333 652.167,25.6667 652.5,26C 651.584,26.2784 650.918,26.7784 650.5,27.5C 646.167,27.5 641.833,27.5 637.5,27.5C 636.391,27.4431 635.391,27.1098 634.5,26.5C 632.525,36.4459 631.858,46.7792 632.5,57.5C 633.5,57.5 634.5,57.5 635.5,57.5C 633.001,60.2478 631.501,59.5811 631,55.5C 630.586,55.9574 630.086,56.2907 629.5,56.5C 628.107,55.1369 626.441,54.3036 624.5,54C 627.712,49.812 628.545,45.312 627,40.5C 626.333,41.8333 625.667,41.8333 625,40.5C 624.667,41.1667 624.333,41.8333 624,42.5C 623.722,41.5842 623.222,40.9175 622.5,40.5C 622.5,39.8333 622.5,39.1667 622.5,38.5C 623.787,35.302 624.453,31.9686 624.5,28.5C 625.251,25.754 626.251,23.0873 627.5,20.5 Z"/></g>
<g><path style="opacity:1" fill="#b7a99f" d="M 654.5,26.5 C 649.265,28.45 643.598,29.1167 637.5,28.5C 637.5,28.1667 637.5,27.8333 637.5,27.5C 641.833,27.5 646.167,27.5 650.5,27.5C 651.959,27.5674 653.292,27.2341 654.5,26.5 Z"/></g>
<g><path style="opacity:1" fill="#f2f3f2" d="M 694.5,27.5 C 695.833,28.1667 695.833,28.1667 694.5,27.5 Z"/></g>
<g><path style="opacity:1" fill="#f2f3f9" d="M 736.5,27.5 C 737.833,28.1667 737.833,28.1667 736.5,27.5 Z"/></g>
<g><path style="opacity:1" fill="#bba48d" d="M 55.5,28.5 C 40.6723,29.3313 25.6723,29.8313 10.5,30C 30.0043,30.1682 49.3377,30.6682 68.5,31.5C 48.8305,31.6666 29.1638,31.5 9.5,31C 8.16667,30.3333 8.16667,29.6667 9.5,29C 24.8297,28.5001 40.163,28.3334 55.5,28.5 Z"/></g>
<g><path style="opacity:1" fill="#ebe7e4" d="M 246.5,27.5 C 247.5,27.5 248.5,27.5 249.5,27.5C 250.429,28.3149 251.429,29.1482 252.5,30C 251.619,30.7083 250.953,31.5416 250.5,32.5C 249.833,32.1667 249.167,31.8333 248.5,31.5C 247.833,30.1667 247.167,28.8333 246.5,27.5 Z"/></g>
<g><path style="opacity:1" fill="#c0a68b" d="M 899.5,28.5 C 915.514,28.1672 931.514,28.5006 947.5,29.5C 947.376,30.1067 947.043,30.44 946.5,30.5C 930.833,29.8333 915.167,29.1667 899.5,28.5 Z"/></g>
<g><path style="opacity:1" fill="#734f2c" d="M 74.5,28.5 C 79.5,28.5 84.5,28.5 89.5,28.5C 100.659,29.3306 111.993,29.8306 123.5,30C 114.5,30.3333 105.5,30.6667 96.5,31C 100.821,31.499 105.154,31.6657 109.5,31.5C 96.0117,31.8589 82.345,31.8589 68.5,31.5C 49.3377,30.6682 30.0043,30.1682 10.5,30C 25.6723,29.8313 40.6723,29.3313 55.5,28.5C 61.6919,27.8717 68.0252,27.8717 74.5,28.5 Z"/></g>
<g><path style="opacity:1" fill="#5d3c1f" d="M 143.5,25.5 C 143.443,26.609 143.11,27.609 142.5,28.5C 146.167,29.1667 149.833,29.8333 153.5,30.5C 149.774,30.1774 146.107,30.5108 142.5,31.5C 143.035,33.261 144.035,34.5943 145.5,35.5C 151.145,37.8531 150.811,38.8531 144.5,38.5C 142.086,37.0892 140.419,35.0892 139.5,32.5C 132.352,31.5084 125.019,31.175 117.5,31.5C 114.833,31.5 112.167,31.5 109.5,31.5C 105.154,31.6657 100.821,31.499 96.5,31C 105.5,30.6667 114.5,30.3333 123.5,30C 111.993,29.8306 100.659,29.3306 89.5,28.5C 106.18,28.8328 122.847,28.4995 139.5,27.5C 139.863,26.8165 140.196,26.1499 140.5,25.5C 141.652,24.375 142.652,24.375 143.5,25.5 Z"/></g>
<g><path style="opacity:1" fill="#f2f3f2" d="M 220.5,30.5 C 220.897,29.475 221.563,29.3083 222.5,30C 221.906,30.4643 221.239,30.631 220.5,30.5 Z"/></g>
<g><path style="opacity:1" fill="#eeecea" d="M 228.5,27.5 C 235.22,26.3837 236.22,28.0504 231.5,32.5C 229.981,31.5902 228.315,30.7568 226.5,30C 227.756,29.5831 228.423,28.7498 228.5,27.5 Z"/></g>
<g><path style="opacity:1" fill="#f2f3f2" d="M 311.5,30.5 C 310.833,29.1667 310.833,29.1667 311.5,30.5 Z"/></g>
<g><path style="opacity:1" fill="#f2f3f2" d="M 498.5,29.5 C 494.689,30.6453 490.689,30.8119 486.5,30C 490.486,29.5012 494.486,29.3345 498.5,29.5 Z"/></g>
<g><path style="opacity:1" fill="#f2f3f2" d="M 663.5,29.5 C 664.833,30.1667 664.833,30.1667 663.5,29.5 Z"/></g>
<g><path style="opacity:1" fill="#f2f3f2" d="M 793.5,30.5 C 793.897,29.475 794.563,29.3083 795.5,30C 794.906,30.4643 794.239,30.631 793.5,30.5 Z"/></g>
<g><path style="opacity:1" fill="#7d5a3a" d="M 899.5,28.5 C 915.167,29.1667 930.833,29.8333 946.5,30.5C 920.005,31.4979 893.339,31.8312 866.5,31.5C 849.833,30.8333 833.167,30.1667 816.5,29.5C 817.167,29.5 817.5,29.1667 817.5,28.5C 840.167,28.5 862.833,28.5 885.5,28.5C 890.23,27.4843 894.896,27.4843 899.5,28.5 Z"/></g>
<g><path style="opacity:1" fill="#c5b4ac" d="M 158.5,28.5 C 159.885,29.9473 159.552,30.9473 157.5,31.5C 158.11,30.609 158.443,29.609 158.5,28.5 Z"/></g>
<g><path style="opacity:1" fill="#72573c" d="M 395.5,11.5 C 396.167,11.5 396.833,11.5 397.5,11.5C 398.167,11.5 398.5,11.8333 398.5,12.5C 396.52,24.7892 395.853,37.4559 396.5,50.5C 395.883,50.6107 395.383,50.944 395,51.5C 394.399,49.8632 393.899,48.1966 393.5,46.5C 394.456,35.5323 394.789,24.5323 394.5,13.5C 394.328,12.5084 394.662,11.8417 395.5,11.5 Z"/></g>
<g><path style="opacity:1" fill="#f2f3f2" d="M 467.5,31.5 C 468.251,30.4265 469.251,30.2599 470.5,31C 469.552,31.4828 468.552,31.6495 467.5,31.5 Z"/></g>
<g><path style="opacity:1" fill="#6f4f36" d="M 814.5,28.5 C 815.167,28.8333 815.833,29.1667 816.5,29.5C 833.167,30.1667 849.833,30.8333 866.5,31.5C 856.144,32.5766 845.811,32.5766 835.5,31.5C 829.463,31.1707 823.463,31.5041 817.5,32.5C 816.37,33.6223 815.703,34.9557 815.5,36.5C 815.027,37.9063 814.027,38.573 812.5,38.5C 810.167,38.5 807.833,38.5 805.5,38.5C 804.167,37.8333 803.167,36.8333 802.5,35.5C 802.263,34.209 802.596,33.209 803.5,32.5C 805.087,36.0557 807.754,37.2223 811.5,36C 815.714,32.9995 815.381,30.8328 810.5,29.5C 811.689,28.5713 813.022,28.238 814.5,28.5 Z"/></g>
<g><path style="opacity:1" fill="#e8e3dd" d="M 153.5,30.5 C 152.413,34.5727 149.746,36.2394 145.5,35.5C 144.035,34.5943 143.035,33.261 142.5,31.5C 146.107,30.5108 149.774,30.1774 153.5,30.5 Z"/></g>
<g><path style="opacity:1" fill="#f2f3f2" d="M 456.5,32.5 C 458.288,31.3775 460.288,31.2109 462.5,32C 460.527,32.4955 458.527,32.6621 456.5,32.5 Z"/></g>
<g><path style="opacity:1" fill="#f3f3f3" d="M 661.5,30.5 C 662.621,36.418 662.788,42.418 662,48.5C 661.617,49.056 661.117,49.3893 660.5,49.5C 660.177,42.9779 660.51,36.6446 661.5,30.5 Z"/></g>
<g><path style="opacity:1" fill="#f2f3f2" d="M 698.5,32.5 C 697.833,31.1667 697.833,31.1667 698.5,32.5 Z"/></g>
<g><path style="opacity:1" fill="#f3f0ef" d="M 117.5,31.5 C 125.019,31.175 132.352,31.5084 139.5,32.5C 138.783,33.4606 137.617,34.4606 136,35.5C 133.973,34.7883 132.973,33.7883 133,32.5C 132.127,32.7355 131.293,33.0688 130.5,33.5C 126.033,32.8864 121.7,32.2197 117.5,31.5 Z"/></g>
<g><path style="opacity:1" fill="#e9e6e5" d="M 157.5,31.5 C 158.954,34.3999 157.954,35.7332 154.5,35.5C 154.738,33.5956 155.738,32.2623 157.5,31.5 Z"/></g>
<g><path style="opacity:1" fill="#ebe8e6" d="M 392.5,30.5 C 392.5,35.8333 392.5,41.1667 392.5,46.5C 388.833,46.5 385.167,46.5 381.5,46.5C 381.5,41.1667 381.5,35.8333 381.5,30.5C 385.167,30.5 388.833,30.5 392.5,30.5 Z"/></g>
<g><path style="opacity:1" fill="#eae9e6" d="M 620.5,32.5 C 619.721,35.5447 618.387,38.2114 616.5,40.5C 615.737,39.7321 614.737,39.2321 613.5,39C 614.416,38.6258 615.25,38.1258 616,37.5C 616.202,35.7444 616.702,34.0777 617.5,32.5C 618.527,33.7914 619.527,33.7914 620.5,32.5 Z"/></g>
<g><path style="opacity:1" fill="#eeedec" d="M 835.5,31.5 C 831.353,32.3247 827.019,32.8247 822.5,33C 826.5,33.3333 830.5,33.6667 834.5,34C 829.167,34.3333 823.833,34.6667 818.5,35C 818.833,35.3333 819.167,35.6667 819.5,36C 818.207,36.49 816.873,36.6567 815.5,36.5C 815.703,34.9557 816.37,33.6223 817.5,32.5C 823.463,31.5041 829.463,31.1707 835.5,31.5 Z"/></g>
<g><path style="opacity:1" fill="#f2f3f2" d="M 96.5,34.5 C 96.8966,33.475 97.5632,33.3083 98.5,34C 97.9056,34.4643 97.2389,34.631 96.5,34.5 Z"/></g>
<g><path style="opacity:1" fill="#9b897a" d="M 398.5,15.5 C 398.185,19.3714 398.518,23.0381 399.5,26.5C 399.5,27.1667 399.833,27.5 400.5,27.5C 398.682,31.1726 398.016,35.1726 398.5,39.5C 399.097,44.294 398.43,48.6273 396.5,52.5C 396.5,52.1667 396.5,51.8333 396.5,51.5C 397.167,39.5 397.833,27.5 398.5,15.5 Z"/></g>
<g><path style="opacity:1" fill="#f2f3f2" d="M 407.5,33.5 C 406.833,34.1667 406.833,34.1667 407.5,33.5 Z"/></g>
<g><path style="opacity:1" fill="#9a9088" d="M 407.5,30.5 C 409.163,32.4385 409.829,34.7718 409.5,37.5C 408.833,36.1667 408.167,34.8333 407.5,33.5C 407.5,32.5 407.5,31.5 407.5,30.5 Z"/></g>
<g><path style="opacity:1" fill="#6c4e36" d="M 657.5,26.5 C 658.922,26.7086 660.255,27.2086 661.5,28C 662.774,28.9772 662.774,29.8106 661.5,30.5C 660.51,36.6446 660.177,42.9779 660.5,49.5C 661.223,53.3896 659.89,56.0563 656.5,57.5C 657.552,55.3449 656.886,55.0116 654.5,56.5C 653.713,55.7579 653.047,54.9246 652.5,54C 653.381,53.2917 654.047,52.4584 654.5,51.5C 654.896,43.0819 655.896,34.7485 657.5,26.5 Z"/></g>
<g><path style="opacity:1" fill="#f2f3f2" d="M 845.5,34.5 C 847.288,33.3775 849.288,33.2109 851.5,34C 849.527,34.4955 847.527,34.6621 845.5,34.5 Z"/></g>
<g><path style="opacity:1" fill="#f2f3f2" d="M 853.5,34.5 C 853.897,33.475 854.563,33.3083 855.5,34C 854.906,34.4643 854.239,34.631 853.5,34.5 Z"/></g>
<g><path style="opacity:1" fill="#ece9e7" d="M 229.5,35.5 C 229.573,37.0269 228.906,38.0269 227.5,38.5C 224.896,35.4331 225.562,34.4331 229.5,35.5 Z"/></g>
<g><path style="opacity:1" fill="#684d35" d="M 243.5,14.5 C 243.171,28.3435 243.504,42.0102 244.5,55.5C 244.5,55.8333 244.5,56.1667 244.5,56.5C 242.684,58.4414 240.684,59.1081 238.5,58.5C 238.666,50.4931 238.5,42.4931 238,34.5C 237.283,35.0442 236.783,35.7109 236.5,36.5C 236.068,37.7095 235.401,38.7095 234.5,39.5C 232.833,40.5 231.5,41.8333 230.5,43.5C 227.417,46.9082 223.751,49.5749 219.5,51.5C 217.973,51.427 216.973,52.0937 216.5,53.5C 211.505,54.4808 211.172,53.4808 215.5,50.5C 220.395,47.3602 224.395,43.3602 227.5,38.5C 228.906,38.0269 229.573,37.0269 229.5,35.5C 229.5,34.8333 229.833,34.5 230.5,34.5C 230.369,35.2389 230.536,35.9056 231,36.5C 232.796,33.073 234.963,29.9063 237.5,27C 236.944,26.6174 236.611,26.1174 236.5,25.5C 238.423,21.9707 239.089,17.9707 238.5,13.5C 240.292,13.366 241.958,13.6993 243.5,14.5 Z"/></g>
<g><path style="opacity:1" fill="#f2f3f2" d="M 307.5,34.5 C 308.525,34.8966 308.692,35.5632 308,36.5C 307.536,35.9056 307.369,35.2389 307.5,34.5 Z"/></g>
<g><path style="opacity:1" fill="#34180a" d="M 398.5,12.5 C 399.11,13.391 399.443,14.391 399.5,15.5C 399.167,15.5 398.833,15.5 398.5,15.5C 397.833,27.5 397.167,39.5 396.5,51.5C 396.5,51.1667 396.5,50.8333 396.5,50.5C 395.853,37.4559 396.52,24.7892 398.5,12.5 Z"/></g>
<g><path style="opacity:1" fill="#f2f3f2" d="M 694.5,34.5 C 696.337,34.6395 696.67,35.3061 695.5,36.5C 694.702,36.0431 694.369,35.3764 694.5,34.5 Z"/></g>
<g><path style="opacity:1" fill="#ecebe9" d="M 732.5,37.5 C 731.662,37.1583 731.328,36.4916 731.5,35.5C 736.358,34.1132 736.691,34.7799 732.5,37.5 Z"/></g>
<g><path style="opacity:1" fill="#f2f3f2" d="M 255.5,36.5 C 255.897,35.475 256.563,35.3083 257.5,36C 256.906,36.4643 256.239,36.631 255.5,36.5 Z"/></g>
<g><path style="opacity:1" fill="#ccc6bf" d="M 377.5,10.5 C 376.504,25.324 376.171,40.324 376.5,55.5C 373.923,54.3101 373.09,52.3101 374,49.5C 374.333,50.5 374.667,51.5 375,52.5C 375.167,38.1551 375.667,23.8217 376.5,9.5C 377.107,9.62358 377.44,9.95691 377.5,10.5 Z"/></g>
<g><path style="opacity:1" fill="#bbb3ab" d="M 419.5,34.5 C 419.833,34.5 420.167,34.5 420.5,34.5C 420.665,38.1817 420.499,41.8484 420,45.5C 419.768,46.7375 419.268,47.7375 418.5,48.5C 418.5,47.1667 418.5,45.8333 418.5,44.5C 419.479,41.3752 419.813,38.0419 419.5,34.5 Z"/></g>
<g><path style="opacity:1" fill="#3f2819" d="M 624.5,28.5 C 624.453,31.9686 623.787,35.302 622.5,38.5C 621.778,38.0825 621.278,37.4158 621,36.5C 619.729,39.4326 618.062,42.0993 616,44.5C 615.617,43.944 615.117,43.6107 614.5,43.5C 614.389,42.8826 614.056,42.3826 613.5,42C 614.737,41.7679 615.737,41.2679 616.5,40.5C 618.387,38.2114 619.721,35.5447 620.5,32.5C 620.557,31.391 620.89,30.391 621.5,29.5C 622.391,28.8902 623.391,28.5569 624.5,28.5 Z"/></g>
<g><path style="opacity:1" fill="#e5e0de" d="M 337.5,40.5 C 336.167,39.8333 335.167,38.8333 334.5,37.5C 337.5,36.5 338.5,37.5 337.5,40.5 Z"/></g>
<g><path style="opacity:1" fill="#553721" d="M 394.5,13.5 C 394.789,24.5323 394.456,35.5323 393.5,46.5C 393.899,48.1966 394.399,49.8632 395,51.5C 395.383,50.944 395.883,50.6107 396.5,50.5C 396.5,50.8333 396.5,51.1667 396.5,51.5C 396.5,51.8333 396.5,52.1667 396.5,52.5C 396.5,52.8333 396.5,53.1667 396.5,53.5C 394.965,54.3543 393.632,54.3543 392.5,53.5C 392.5,51.5 392.5,49.5 392.5,47.5C 392.5,47.1667 392.5,46.8333 392.5,46.5C 392.5,41.1667 392.5,35.8333 392.5,30.5C 392.5,30.1667 392.5,29.8333 392.5,29.5C 392.5,29.1667 392.5,28.8333 392.5,28.5C 392.5,23.8333 392.5,19.1667 392.5,14.5C 393.167,14.1667 393.833,13.8333 394.5,13.5 Z"/></g>
<g><path style="opacity:1" fill="#c0b2aa" d="M 427.5,16.5 C 427.5,18.5 427.5,20.5 427.5,22.5C 427.5,23.1667 427.5,23.8333 427.5,24.5C 427.877,33.7274 427.211,42.7274 425.5,51.5C 425.904,39.6647 426.571,27.998 427.5,16.5 Z"/></g>
<g><path style="opacity:1" fill="#78593e" d="M 707.5,44.5 C 706.833,43.5 706.167,42.5 705.5,41.5C 705.5,40.8333 705.5,40.1667 705.5,39.5C 706.363,40.463 707.03,40.463 707.5,39.5C 706.572,38.2322 706.405,36.8989 707,35.5C 710.149,37.4479 710.983,40.1146 709.5,43.5C 707.995,40.8694 707.329,41.2027 707.5,44.5 Z"/></g>
<g><path style="opacity:1" fill="#6b503a" d="M 317.5,0.5 C 320.112,1.3705 322.779,2.03717 325.5,2.5C 323.687,11.8998 325.353,20.5665 330.5,28.5C 331.553,31.6071 332.886,34.6071 334.5,37.5C 335.167,38.8333 336.167,39.8333 337.5,40.5C 339.167,41.8333 340.833,43.1667 342.5,44.5C 343.29,45.4013 344.29,46.0679 345.5,46.5C 345.973,47.9063 346.973,48.573 348.5,48.5C 349.765,49.4793 351.099,50.4793 352.5,51.5C 350.133,52.831 347.8,54.1643 345.5,55.5C 344.833,55.8333 344.167,56.1667 343.5,56.5C 342.609,55.8902 341.609,55.5569 340.5,55.5C 338.167,53.5 335.833,51.5 333.5,49.5C 331.308,46.4502 329.642,43.1168 328.5,39.5C 328.737,38.209 328.404,37.209 327.5,36.5C 326.388,34.4006 325.721,32.0673 325.5,29.5C 324.419,24.5274 323.419,19.5274 322.5,14.5C 321.761,19.9037 320.761,25.237 319.5,30.5C 318.578,34.262 317.245,37.9287 315.5,41.5C 314.512,42.795 313.512,44.1283 312.5,45.5C 311.167,46.5 309.833,47.5 308.5,48.5C 307.167,49.1667 306.167,50.1667 305.5,51.5C 304.101,52.8897 302.434,53.8897 300.5,54.5C 298.77,55.0256 297.436,56.0256 296.5,57.5C 292.688,57.9311 292.688,56.9311 296.5,54.5C 299.427,53.2427 301.761,51.2427 303.5,48.5C 303.833,47.8333 304.167,47.1667 304.5,46.5C 304.932,45.2905 305.599,44.2905 306.5,43.5C 307.338,43.1583 307.672,42.4916 307.5,41.5C 309.229,37.9795 310.562,34.3128 311.5,30.5C 311.833,30.5 312.167,30.5 312.5,30.5C 313.404,29.791 313.737,28.791 313.5,27.5C 313.833,24.1667 314.167,20.8333 314.5,17.5C 315.167,17.5 315.5,17.1667 315.5,16.5C 316.117,16.6107 316.617,16.944 317,17.5C 317.499,11.8431 317.666,6.17645 317.5,0.5 Z"/></g>
<g><path style="opacity:1" fill="#f2f3f2" d="M 318.5,38.5 C 318.897,37.475 319.563,37.3083 320.5,38C 319.906,38.4643 319.239,38.631 318.5,38.5 Z"/></g>
<g><path style="opacity:1" fill="#ece9e7" d="M 325.5,29.5 C 324.696,31.1887 323.696,32.8554 322.5,34.5C 321.479,33.0986 320.479,31.7653 319.5,30.5C 320.761,25.237 321.761,19.9037 322.5,14.5C 323.419,19.5274 324.419,24.5274 325.5,29.5 Z"/></g>
<g><path style="opacity:1" fill="#371e0b" d="M 395.5,11.5 C 394.662,11.8417 394.328,12.5084 394.5,13.5C 393.833,13.8333 393.167,14.1667 392.5,14.5C 389.167,14.5 385.833,14.5 382.5,14.5C 381.513,19.3054 381.179,24.3054 381.5,29.5C 385.167,29.5 388.833,29.5 392.5,29.5C 392.5,29.8333 392.5,30.1667 392.5,30.5C 388.833,30.5 385.167,30.5 381.5,30.5C 381.5,35.8333 381.5,41.1667 381.5,46.5C 385.167,46.5 388.833,46.5 392.5,46.5C 392.5,46.8333 392.5,47.1667 392.5,47.5C 388.833,47.5 385.167,47.5 381.5,47.5C 381.5,49.5 381.5,51.5 381.5,53.5C 380.761,53.631 380.094,53.4643 379.5,53C 380.489,39.9128 380.823,26.7461 380.5,13.5C 382.167,13.5 383.833,13.5 385.5,13.5C 387.924,13.8076 390.257,13.4742 392.5,12.5C 393.257,10.5959 394.257,10.2625 395.5,11.5 Z"/></g>
<g><path style="opacity:1" fill="#e0dedc" d="M 327.5,36.5 C 328.404,37.209 328.737,38.209 328.5,39.5C 327.719,41.6281 326.719,41.7947 325.5,40C 326.823,39.1841 327.489,38.0174 327.5,36.5 Z"/></g>
<g><path style="opacity:1" fill="#61442b" d="M 427.5,16.5 C 426.571,27.998 425.904,39.6647 425.5,51.5C 423.667,56.7502 420.001,58.9169 414.5,58C 413.947,56.1222 412.947,54.6222 411.5,53.5C 410.71,52.5987 409.71,51.9321 408.5,51.5C 408.328,50.5084 408.662,49.8417 409.5,49.5C 409.833,49.5 410.167,49.5 410.5,49.5C 412.833,50.8333 415.167,50.8333 417.5,49.5C 418.167,49.5 418.5,49.1667 418.5,48.5C 419.268,47.7375 419.768,46.7375 420,45.5C 420.499,41.8484 420.665,38.1817 420.5,34.5C 420.5,32.8333 420.5,31.1667 420.5,29.5C 421.338,29.1583 421.672,28.4916 421.5,27.5C 422.164,25.1903 422.497,22.6903 422.5,20C 422.475,17.0706 421.809,14.5706 420.5,12.5C 421.254,10.5541 422.588,9.72075 424.5,10C 426.585,11.0414 428.252,12.5414 429.5,14.5C 429.145,15.5223 428.478,16.189 427.5,16.5 Z"/></g>
<g><path style="opacity:1" fill="#b49e8e" d="M 805.5,38.5 C 807.833,38.5 810.167,38.5 812.5,38.5C 810.236,40.8907 807.902,40.8907 805.5,38.5 Z"/></g>
<g><path style="opacity:1" fill="#f2f3f2" d="M 222.5,40.5 C 222.897,39.475 223.563,39.3083 224.5,40C 223.906,40.4643 223.239,40.631 222.5,40.5 Z"/></g>
<g><path style="opacity:1" fill="#f0efef" d="M 248.5,37.5 C 250.326,39.1475 251.66,41.1475 252.5,43.5C 251.279,44.0283 250.113,44.695 249,45.5C 248.055,49.1141 247.388,52.7808 247,56.5C 245.943,49.8859 246.443,43.5526 248.5,37.5 Z"/></g>
<g><path style="opacity:1" fill="#361f0e" d="M 657.5,26.5 C 655.896,34.7485 654.896,43.0819 654.5,51.5C 654.5,48.8333 654.5,46.1667 654.5,43.5C 648.833,43.5 643.167,43.5 637.5,43.5C 637.5,47.5 637.5,51.5 637.5,55.5C 636.167,46.5 636.167,37.5 637.5,28.5C 643.598,29.1167 649.265,28.45 654.5,26.5C 655.5,25.1667 656.5,25.1667 657.5,26.5 Z"/></g>
<g><path style="opacity:1" fill="#f5f4f4" d="M 654.5,40.5 C 654.5,40.8333 654.5,41.1667 654.5,41.5C 649.167,41.5 643.833,41.5 638.5,41.5C 638.5,40.1667 638.5,38.8333 638.5,37.5C 643.5,37.5 648.5,37.5 653.5,37.5C 653.263,38.791 653.596,39.791 654.5,40.5 Z"/></g>
<g><path style="opacity:1" fill="#d0c7c0" d="M 654.5,40.5 C 653.596,39.791 653.263,38.791 653.5,37.5C 648.5,37.5 643.5,37.5 638.5,37.5C 638.5,38.8333 638.5,40.1667 638.5,41.5C 643.833,41.5 649.167,41.5 654.5,41.5C 649.025,42.4889 643.358,42.8222 637.5,42.5C 637.5,40.5 637.5,38.5 637.5,36.5C 643.167,36.5 648.833,36.5 654.5,36.5C 654.5,37.8333 654.5,39.1667 654.5,40.5 Z"/></g>
<g><path style="opacity:1" fill="#b3a89e" d="M 638.5,29.5 C 638.5,31.1667 638.5,32.8333 638.5,34.5C 643.833,34.5 649.167,34.5 654.5,34.5C 649.025,35.4889 643.358,35.8222 637.5,35.5C 637.205,33.2646 637.539,31.2646 638.5,29.5 Z"/></g>
<g><path style="opacity:1" fill="#f3f2f2" d="M 638.5,29.5 C 643.833,29.5 649.167,29.5 654.5,29.5C 654.5,31.1667 654.5,32.8333 654.5,34.5C 649.167,34.5 643.833,34.5 638.5,34.5C 638.5,32.8333 638.5,31.1667 638.5,29.5 Z"/></g>
<g><path style="opacity:1" fill="#f2f3f2" d="M 691.5,40.5 C 692.289,40.7828 692.956,41.2828 693.5,42C 692.184,42.5281 691.517,42.0281 691.5,40.5 Z"/></g>
<g><path style="opacity:1" fill="#503523" d="M 728.5,26.5 C 727.539,24.7354 727.205,22.7354 727.5,20.5C 726.5,20.5 725.5,20.5 724.5,20.5C 723.665,26.1684 723.165,31.835 723,37.5C 724.125,33.8343 725.291,30.8343 726.5,28.5C 726.5,30.5 726.5,32.5 726.5,34.5C 726.768,36.099 726.434,37.4324 725.5,38.5C 723.929,39.1969 722.429,39.5302 721,39.5C 719.489,42.7961 718.323,46.1294 717.5,49.5C 717.167,50.5 716.5,51.1667 715.5,51.5C 714.391,51.4431 713.391,51.1098 712.5,50.5C 720.367,41.3901 723.7,30.7234 722.5,18.5C 725.392,18.7211 728.059,19.5544 730.5,21C 728.808,22.4007 728.141,24.2341 728.5,26.5 Z"/></g>
<g><path style="opacity:1" fill="#694e3a" d="M 248.5,31.5 C 249.167,31.8333 249.833,32.1667 250.5,32.5C 256.388,39.0337 263.554,43.7004 272,46.5C 272.167,46.8333 272.333,47.1667 272.5,47.5C 270.255,48.2082 268.255,49.2082 266.5,50.5C 265.735,51.6602 264.735,52.6602 263.5,53.5C 262.478,53.1445 261.811,52.4778 261.5,51.5C 261.027,50.0937 260.027,49.427 258.5,49.5C 258.167,49.5 257.833,49.5 257.5,49.5C 255.833,47.5 254.167,45.5 252.5,43.5C 251.66,41.1475 250.326,39.1475 248.5,37.5C 247.559,35.9505 246.893,34.2838 246.5,32.5C 247.925,34.0311 248.591,33.6977 248.5,31.5 Z"/></g>
<g><path style="opacity:1" fill="#f2f3f2" d="M 264.5,42.5 C 264.897,41.475 265.563,41.3083 266.5,42C 265.906,42.4643 265.239,42.631 264.5,42.5 Z"/></g>
<g><path style="opacity:1" fill="#eae6e1" d="M 307.5,41.5 C 307.672,42.4916 307.338,43.1583 306.5,43.5C 303.742,42.0335 304.075,41.3668 307.5,41.5 Z"/></g>
<g><path style="opacity:1" fill="#f2f3f2" d="M 315.5,41.5 C 316.833,42.1667 316.833,42.1667 315.5,41.5 Z"/></g>
<g><path style="opacity:1" fill="#f2f3f2" d="M 705.5,41.5 C 705.5,42.5 705.5,43.5 705.5,44.5C 704.178,44.33 703.011,44.6634 702,45.5C 701.5,45 701,44.5 700.5,44C 702.078,42.9055 703.745,42.0722 705.5,41.5 Z"/></g>
<g><path style="opacity:1" fill="#f2f1f0" d="M 234.5,39.5 C 235.391,40.2613 236.058,41.2613 236.5,42.5C 236.204,45.0262 236.037,47.6929 236,50.5C 234.883,49.0506 234.216,47.3839 234,45.5C 232.887,44.695 231.721,44.0283 230.5,43.5C 231.5,41.8333 232.833,40.5 234.5,39.5 Z"/></g>
<g><path style="opacity:1" fill="#c8bcb9" d="M 616.5,40.5 C 615.737,41.2679 614.737,41.7679 613.5,42C 614.056,42.3826 614.389,42.8826 614.5,43.5C 613.005,43.5852 612.005,42.9185 611.5,41.5C 613.045,40.5481 614.712,40.2148 616.5,40.5 Z"/></g>
<g><path style="opacity:1" fill="#70533c" d="M 725.5,38.5 C 724.617,41.7043 722.95,44.3709 720.5,46.5C 719.662,46.8417 719.328,47.5084 719.5,48.5C 719.158,49.3382 718.492,49.6716 717.5,49.5C 718.323,46.1294 719.489,42.7961 721,39.5C 722.429,39.5302 723.929,39.1969 725.5,38.5 Z"/></g>
<g><path style="opacity:1" fill="#f2f3f2" d="M 219.5,44.5 C 219.897,43.475 220.563,43.3083 221.5,44C 220.906,44.4643 220.239,44.631 219.5,44.5 Z"/></g>
<g><path style="opacity:1" fill="#f2f3f2" d="M 342.5,44.5 C 342.897,43.475 343.563,43.3083 344.5,44C 343.906,44.4643 343.239,44.631 342.5,44.5 Z"/></g>
<g><path style="opacity:1" fill="#f2f3f2" d="M 418.5,44.5 C 417.833,43.1667 417.833,43.1667 418.5,44.5 Z"/></g>
<g><path style="opacity:1" fill="#a89c93" d="M 654.5,51.5 C 654.167,51.5 653.833,51.5 653.5,51.5C 653.5,51.1667 653.5,50.8333 653.5,50.5C 653.5,48.5 653.5,46.5 653.5,44.5C 649.5,44.5 645.5,44.5 641.5,44.5C 640.5,44.5 639.5,44.5 638.5,44.5C 638.5,47.8333 638.5,51.1667 638.5,54.5C 638.672,55.4916 638.338,56.1583 637.5,56.5C 637.5,56.1667 637.5,55.8333 637.5,55.5C 637.5,51.5 637.5,47.5 637.5,43.5C 643.167,43.5 648.833,43.5 654.5,43.5C 654.5,46.1667 654.5,48.8333 654.5,51.5 Z"/></g>
<g><path style="opacity:1" fill="#f2f3f2" d="M 724.5,44.5 C 724.56,43.9569 724.893,43.6236 725.5,43.5C 726.7,44.5312 728.034,45.3645 729.5,46C 729,46.5 728.5,47 728,47.5C 726.961,46.2899 725.794,45.2899 724.5,44.5 Z"/></g>
<g><path style="opacity:1" fill="#f2f1f1" d="M 739.5,46.5 C 738.5,46.1667 737.833,45.5 737.5,44.5C 741.462,42.8927 742.129,43.5594 739.5,46.5 Z"/></g>
<g><path style="opacity:1" fill="#6d523c" d="M 728.5,26.5 C 729.048,28.6264 729.715,30.6264 730.5,32.5C 731.11,33.391 731.443,34.391 731.5,35.5C 731.328,36.4916 731.662,37.1583 732.5,37.5C 733.921,40.0094 735.588,42.3428 737.5,44.5C 737.833,45.5 738.5,46.1667 739.5,46.5C 742.299,48.7378 745.299,50.7378 748.5,52.5C 746.556,53.8007 744.556,54.8007 742.5,55.5C 741.518,56.1408 740.518,56.8075 739.5,57.5C 732.729,52.6301 729.062,45.9635 728.5,37.5C 728.58,34.2186 727.913,31.2186 726.5,28.5C 725.291,30.8343 724.125,33.8343 723,37.5C 723.165,31.835 723.665,26.1684 724.5,20.5C 725.5,20.5 726.5,20.5 727.5,20.5C 727.205,22.7354 727.539,24.7354 728.5,26.5 Z"/></g>
<g><path style="opacity:1" fill="#e1dbd2" d="M 726.5,28.5 C 727.913,31.2186 728.58,34.2186 728.5,37.5C 727.833,36.5 727.167,35.5 726.5,34.5C 726.5,32.5 726.5,30.5 726.5,28.5 Z"/></g>
<g><path style="opacity:1" fill="#edeceb" d="M 304.5,46.5 C 304.167,47.1667 303.833,47.8333 303.5,48.5C 303.167,48.5 302.833,48.5 302.5,48.5C 299.871,45.5594 300.538,44.8927 304.5,46.5 Z"/></g>
<g><path style="opacity:1" fill="#f2f3f2" d="M 312.5,45.5 C 313.239,45.369 313.906,45.5357 314.5,46C 313.563,46.6917 312.897,46.525 312.5,45.5 Z"/></g>
<g><path style="opacity:1" fill="#f2f3f2" d="M 327.5,46.5 C 327.897,45.475 328.563,45.3083 329.5,46C 328.906,46.4643 328.239,46.631 327.5,46.5 Z"/></g>
<g><path style="opacity:1" fill="#f2f3f2" d="M 345.5,46.5 C 346.251,45.4265 347.251,45.2599 348.5,46C 347.552,46.4828 346.552,46.6495 345.5,46.5 Z"/></g>
<g><path style="opacity:1" fill="#f2f3f2" d="M 400.5,47.5 C 399.475,47.1034 399.308,46.4368 400,45.5C 400.464,46.0944 400.631,46.7611 400.5,47.5 Z"/></g>
<g><path style="opacity:1" fill="#f2f3f2" d="M 538.5,45.5 C 539.103,47.1897 540.103,48.6897 541.5,50C 539.961,52.0396 539.127,54.2062 539,56.5C 538.501,52.8484 538.335,49.1817 538.5,45.5 Z"/></g>
<g><path style="opacity:1" fill="#f2f2f2" d="M 641.5,44.5 C 644.689,45.1661 648.023,45.8328 651.5,46.5C 648.943,46.7822 646.277,46.9489 643.5,47C 640.724,48.7787 641.057,49.7787 644.5,50C 642.808,51.4007 642.141,53.2341 642.5,55.5C 641.041,55.5674 639.708,55.2341 638.5,54.5C 638.5,51.1667 638.5,47.8333 638.5,44.5C 639.5,44.5 640.5,44.5 641.5,44.5 Z"/></g>
<g><path style="opacity:1" fill="#dcd6d1" d="M 694.5,43.5 C 693.92,45.7488 692.587,47.4154 690.5,48.5C 689.909,47.8485 689.243,47.1818 688.5,46.5C 690.704,45.7937 692.704,44.7937 694.5,43.5 Z"/></g>
<g><path style="opacity:1" fill="#d7d1cf" d="M 238.5,58.5 C 237.833,51.1667 237.167,43.8333 236.5,36.5C 236.783,35.7109 237.283,35.0442 238,34.5C 238.5,42.4931 238.666,50.4931 238.5,58.5 Z"/></g>
<g><path style="opacity:1" fill="#edece9" d="M 417.5,49.5 C 415.167,50.8333 412.833,50.8333 410.5,49.5C 413.598,49.5875 413.932,49.0875 411.5,48C 413.351,47.1628 415.184,46.3295 417,45.5C 417.062,47.1147 417.229,48.4481 417.5,49.5 Z"/></g>
<g><path style="opacity:1" fill="#f2f3f2" d="M 253.5,47.5 C 254.833,48.1667 254.833,48.1667 253.5,47.5 Z"/></g>
<g><path style="opacity:1" fill="#f2f3f2" d="M 348.5,48.5 C 348.897,47.475 349.563,47.3083 350.5,48C 349.906,48.4643 349.239,48.631 348.5,48.5 Z"/></g>
<g><path style="opacity:1" fill="#a29389" d="M 392.5,47.5 C 392.5,49.5 392.5,51.5 392.5,53.5C 392.028,51.4687 391.028,49.8021 389.5,48.5C 388.167,48.5 386.833,48.5 385.5,48.5C 384.5,48.5 383.5,48.5 382.5,48.5C 382.784,50.4147 382.451,52.0813 381.5,53.5C 381.5,51.5 381.5,49.5 381.5,47.5C 385.167,47.5 388.833,47.5 392.5,47.5 Z"/></g>
<g><path style="opacity:1" fill="#f2f3f2" d="M 400.5,47.5 C 401.573,48.2506 401.74,49.2506 401,50.5C 400.517,49.552 400.351,48.552 400.5,47.5 Z"/></g>
<g><path style="opacity:1" fill="#eeebec" d="M 696.5,46.5 C 697.635,47.4745 698.635,48.6412 699.5,50C 696.854,50.4974 694.187,50.6641 691.5,50.5C 693.142,49.197 694.809,47.8637 696.5,46.5 Z"/></g>
<g><path style="opacity:1" fill="#e2dedc" d="M 720.5,46.5 C 723.258,47.9665 722.925,48.6332 719.5,48.5C 719.328,47.5084 719.662,46.8417 720.5,46.5 Z"/></g>
<g><path style="opacity:1" fill="#f2f3f2" d="M 215.5,50.5 C 214.833,49.1667 214.833,49.1667 215.5,50.5 Z"/></g>
<g><path style="opacity:1" fill="#f2f3f2" d="M 257.5,49.5 C 256.833,50.1667 256.833,50.1667 257.5,49.5 Z"/></g>
<g><path style="opacity:1" fill="#f2f3f2" d="M 270.5,49.5 C 271.833,50.1667 271.833,50.1667 270.5,49.5 Z"/></g>
<g><path style="opacity:1" fill="#f2f3f2" d="M 299.5,50.5 C 298.761,50.631 298.094,50.4643 297.5,50C 298.437,49.3083 299.103,49.475 299.5,50.5 Z"/></g>
<g><path style="opacity:1" fill="#f2f3f2" d="M 333.5,49.5 C 332.749,50.5735 331.749,50.7401 330.5,50C 331.448,49.5172 332.448,49.3505 333.5,49.5 Z"/></g>
<g><path style="opacity:1" fill="#f0f0ef" d="M 385.5,48.5 C 386.833,48.5 388.167,48.5 389.5,48.5C 390.234,49.7079 390.567,51.0413 390.5,52.5C 386.714,53.0206 385.047,51.6873 385.5,48.5 Z"/></g>
<g><path style="opacity:1" fill="#674c32" d="M 634.5,26.5 C 635.391,27.1098 636.391,27.4431 637.5,27.5C 637.5,27.8333 637.5,28.1667 637.5,28.5C 636.167,37.5 636.167,46.5 637.5,55.5C 637.5,55.8333 637.5,56.1667 637.5,56.5C 637.158,57.3382 636.492,57.6716 635.5,57.5C 633.183,47.345 632.85,37.0117 634.5,26.5 Z"/></g>
<g><path style="opacity:1" fill="#b8aba7" d="M 258.5,49.5 C 260.027,49.427 261.027,50.0937 261.5,51.5C 259.973,51.573 258.973,50.9063 258.5,49.5 Z"/></g>
<g><path style="opacity:1" fill="#f2f3f2" d="M 266.5,50.5 C 267.239,50.369 267.906,50.5357 268.5,51C 267.563,51.6917 266.897,51.525 266.5,50.5 Z"/></g>
<g><path style="opacity:1" fill="#ede7e8" d="M 308.5,48.5 C 310.896,49.9264 310.563,51.2597 307.5,52.5C 306.817,52.1373 306.15,51.8039 305.5,51.5C 306.167,50.1667 307.167,49.1667 308.5,48.5 Z"/></g>
<g><path style="opacity:1" fill="#e1dbd9" d="M 409.5,49.5 C 408.662,49.8417 408.328,50.5084 408.5,51.5C 407.224,50.6136 407.224,49.6136 408.5,48.5C 409.107,48.6236 409.44,48.9569 409.5,49.5 Z"/></g>
<g><path style="opacity:1" fill="#f2f3f2" d="M 427.5,50.5 C 428.573,51.2506 428.74,52.2506 428,53.5C 427.517,52.552 427.351,51.552 427.5,50.5 Z"/></g>
<g><path style="opacity:1" fill="#795d41" d="M 622.5,38.5 C 622.5,39.1667 622.5,39.8333 622.5,40.5C 622.768,42.099 622.434,43.4324 621.5,44.5C 621.318,38.0895 620.652,38.2561 619.5,45C 620.426,48.1389 620.592,51.3056 620,54.5C 619.683,52.6992 619.016,52.3659 618,53.5C 617.667,50.8333 617.333,48.1667 617,45.5C 616.79,47.0581 616.29,48.3915 615.5,49.5C 615.483,47.4352 615.15,45.4352 614.5,43.5C 615.117,43.6107 615.617,43.944 616,44.5C 618.062,42.0993 619.729,39.4326 621,36.5C 621.278,37.4158 621.778,38.0825 622.5,38.5 Z"/></g>
<g><path style="opacity:1" fill="#f2f3f2" d="M 294.5,52.5 C 294.897,51.475 295.563,51.3083 296.5,52C 295.906,52.4643 295.239,52.631 294.5,52.5 Z"/></g>
<g><path style="opacity:1" fill="#a2928a" d="M 302.5,48.5 C 302.833,48.5 303.167,48.5 303.5,48.5C 301.761,51.2427 299.427,53.2427 296.5,54.5C 297.5,53.1667 298.5,51.8333 299.5,50.5C 300.5,49.8333 301.5,49.1667 302.5,48.5 Z"/></g>
<g><path style="opacity:1" fill="#f3f1f0" d="M 565.5,50.5 C 567.5,50.5 569.5,50.5 571.5,50.5C 571.5,52.1667 571.5,53.8333 571.5,55.5C 568.891,54.5569 566.891,52.8903 565.5,50.5 Z"/></g>
<g><path style="opacity:1" fill="#573924" d="M 550.5,6.5 C 556.833,6.5 563.167,6.5 569.5,6.5C 564.049,7.23882 557.382,7.90549 549.5,8.5C 549.5,14.5 549.5,20.5 549.5,26.5C 551.167,26.5 552.833,26.5 554.5,26.5C 552.833,27.1667 551.167,27.8333 549.5,28.5C 549.5,35.1667 549.5,41.8333 549.5,48.5C 556.833,48.5 564.167,48.5 571.5,48.5C 572.328,42.0126 572.828,35.346 573,28.5C 573.5,36.8267 573.666,45.16 573.5,53.5C 574.833,53.5 576.167,53.5 577.5,53.5C 577.333,38.8295 577.5,24.1629 578,9.5C 578.5,24.4963 578.667,39.4963 578.5,54.5C 576.287,56.3117 573.953,56.6451 571.5,55.5C 571.5,53.8333 571.5,52.1667 571.5,50.5C 569.5,50.5 567.5,50.5 565.5,50.5C 561.5,50.5 557.5,50.5 553.5,50.5C 552.167,50.5 550.833,50.5 549.5,50.5C 549.5,51.8333 549.5,53.1667 549.5,54.5C 548.169,47.197 547.502,39.5303 547.5,31.5C 547.667,23.8333 547.833,16.1667 548,8.5C 548.417,7.24402 549.25,6.57735 550.5,6.5 Z"/></g>
<g><path style="opacity:1" fill="#f2f3f2" d="M 553.5,51.5 C 554.552,51.3505 555.552,51.5172 556.5,52C 555.251,52.7401 554.251,52.5735 553.5,51.5 Z"/></g>
<g><path style="opacity:1" fill="#f3eeeb" d="M 553.5,50.5 C 553.5,50.8333 553.5,51.1667 553.5,51.5C 552.5,51.5 551.5,51.5 550.5,51.5C 550.737,52.791 550.404,53.791 549.5,54.5C 549.5,53.1667 549.5,51.8333 549.5,50.5C 550.833,50.5 552.167,50.5 553.5,50.5 Z"/></g>
<g><path style="opacity:1" fill="#f7f6f5" d="M 549.5,28.5 C 556.5,28.5 563.5,28.5 570.5,28.5C 571.491,34.979 571.824,41.6457 571.5,48.5C 564.167,48.5 556.833,48.5 549.5,48.5C 549.5,41.8333 549.5,35.1667 549.5,28.5 Z"/></g>
<g><path style="opacity:1" fill="#2d140a" d="M 554.5,26.5 C 559.833,26.5 565.167,26.5 570.5,26.5C 570.5,27.1667 570.5,27.8333 570.5,28.5C 563.5,28.5 556.5,28.5 549.5,28.5C 551.167,27.8333 552.833,27.1667 554.5,26.5 Z"/></g>
<g><path style="opacity:1" fill="#f2f3f2" d="M 644.5,51.5 C 645.833,52.1667 645.833,52.1667 644.5,51.5 Z"/></g>
<g><path style="opacity:1" fill="#ab9d96" d="M 689.5,50.5 C 689.5,51.1667 689.833,51.5 690.5,51.5C 689.632,53.6246 688.632,53.7913 687.5,52C 687.836,50.9701 688.503,50.4701 689.5,50.5 Z"/></g>
<g><path style="opacity:1" fill="#f2f3f2" d="M 729.5,52.5 C 730.251,51.4265 731.251,51.2599 732.5,52C 731.552,52.4828 730.552,52.6495 729.5,52.5 Z"/></g>
<g><path style="opacity:1" fill="#edebf0" d="M 219.5,51.5 C 218.402,52.397 218.402,53.2303 219.5,54C 218.251,54.7401 217.251,54.5735 216.5,53.5C 216.973,52.0937 217.973,51.427 219.5,51.5 Z"/></g>
<g><path style="opacity:1" fill="#c3bbb3" d="M 246.5,31.5 C 245.833,39.8333 245.167,48.1667 244.5,56.5C 244.5,56.1667 244.5,55.8333 244.5,55.5C 244.334,46.1607 244.5,36.8274 245,27.5C 245.791,28.745 246.291,30.0783 246.5,31.5 Z"/></g>
<g><path style="opacity:1" fill="#6c5249" d="M 711.5,50.5 C 711.833,50.5 712.167,50.5 712.5,50.5C 713.391,51.1098 714.391,51.4431 715.5,51.5C 711.822,54.7659 707.656,57.4326 703,59.5C 702.26,58.2506 702.427,57.2506 703.5,56.5C 705.853,55.6597 707.853,54.3264 709.5,52.5C 710.5,52.1667 711.167,51.5 711.5,50.5 Z"/></g>
<g><path style="opacity:1" fill="#f2f3f2" d="M 304.5,53.5 C 305.833,54.1667 305.833,54.1667 304.5,53.5 Z"/></g>
<g><path style="opacity:1" fill="#f2f3f2" d="M 396.5,53.5 C 397.833,54.1667 397.833,54.1667 396.5,53.5 Z"/></g>
<g><path style="opacity:1" fill="#f3f1f1" d="M 411.5,53.5 C 410.86,55.332 409.86,55.6653 408.5,54.5C 409.325,53.6143 410.325,53.281 411.5,53.5 Z"/></g>
<g><path style="opacity:1" fill="#634832" d="M 621.5,44.5 C 622.1,47.3319 622.767,50.1652 623.5,53C 623.192,54.4595 622.525,55.6261 621.5,56.5C 619.389,57.3799 617.389,57.3799 615.5,56.5C 614.244,54.2743 614.244,51.941 615.5,49.5C 616.29,48.3915 616.79,47.0581 617,45.5C 617.333,48.1667 617.667,50.8333 618,53.5C 619.016,52.3659 619.683,52.6992 620,54.5C 620.592,51.3056 620.426,48.1389 619.5,45C 620.652,38.2561 621.318,38.0895 621.5,44.5 Z"/></g>
<g><path style="opacity:1" fill="#412618" d="M 653.5,51.5 C 653.833,51.5 654.167,51.5 654.5,51.5C 654.047,52.4584 653.381,53.2917 652.5,54C 653.047,54.9246 653.713,55.7579 654.5,56.5C 656.886,55.0116 657.552,55.3449 656.5,57.5C 655.022,57.762 653.689,57.4287 652.5,56.5C 651.307,54.4733 649.64,52.9733 647.5,52C 649.473,51.5045 651.473,51.3379 653.5,51.5 Z"/></g>
<g><path style="opacity:1" fill="#edebeb" d="M 709.5,52.5 C 707.853,54.3264 705.853,55.6597 703.5,56.5C 703.196,55.8501 702.863,55.1835 702.5,54.5C 704.562,52.177 706.895,51.5103 709.5,52.5 Z"/></g>
<g><path style="opacity:1" fill="#f2f3f2" d="M 347.5,54.5 C 348.833,55.1667 348.833,55.1667 347.5,54.5 Z"/></g>
<g><path style="opacity:1" fill="#dcd7d6" d="M 653.5,50.5 C 653.5,50.8333 653.5,51.1667 653.5,51.5C 651.473,51.3379 649.473,51.5045 647.5,52C 649.64,52.9733 651.307,54.4733 652.5,56.5C 653.689,57.4287 655.022,57.762 656.5,57.5C 655.737,58.2679 654.737,58.7679 653.5,59C 654.696,59.6543 654.696,60.1543 653.5,60.5C 651.731,58.443 649.731,56.6097 647.5,55C 647.833,54.6667 648.167,54.3333 648.5,54C 647.572,53.6121 646.905,52.9454 646.5,52C 648.323,48.2718 650.656,47.7718 653.5,50.5 Z"/></g>
<g><path style="opacity:1" fill="#f2f3f2" d="M 337.5,55.5 C 338.833,56.1667 338.833,56.1667 337.5,55.5 Z"/></g>
<g><path style="opacity:1" fill="#f2f3f2" d="M 345.5,55.5 C 346.167,55.5 346.833,55.5 347.5,55.5C 346.833,56.8333 346.167,56.8333 345.5,55.5 Z"/></g>
<g><path style="opacity:1" fill="#3d2210" d="M 634.5,26.5 C 632.85,37.0117 633.183,47.345 635.5,57.5C 634.5,57.5 633.5,57.5 632.5,57.5C 631.858,46.7792 632.525,36.4459 634.5,26.5 Z"/></g>
<g><path style="opacity:1" fill="#f2f3f2" d="M 733.5,56.5 C 733.897,55.475 734.563,55.3083 735.5,56C 734.906,56.4643 734.239,56.631 733.5,56.5 Z"/></g>
<g><path style="opacity:1" fill="#f2f3f2" d="M 742.5,55.5 C 743.239,55.369 743.906,55.5357 744.5,56C 743.563,56.6917 742.897,56.525 742.5,55.5 Z"/></g>
<g><path style="opacity:1" fill="#f0eeed" d="M 300.5,54.5 C 300.918,55.2216 301.584,55.7216 302.5,56C 300.719,58.0401 298.719,58.5401 296.5,57.5C 297.436,56.0256 298.77,55.0256 300.5,54.5 Z"/></g>
<g><path style="opacity:1" fill="#c6b5b1" d="M 340.5,55.5 C 341.609,55.5569 342.609,55.8902 343.5,56.5C 342.221,57.7152 341.221,57.3818 340.5,55.5 Z"/></g>
<g><path style="opacity:1" fill="#bdb2b0" d="M 542.5,56.5 C 543.833,56.5 545.167,56.5 546.5,56.5C 544.968,58.7813 543.634,58.7813 542.5,56.5 Z"/></g>
<g><path style="opacity:1" fill="#f2f3f2" d="M 572.5,57.5 C 573.833,58.1667 573.833,58.1667 572.5,57.5 Z"/></g>
<g><path style="opacity:1" fill="#ccc3c1" d="M 615.5,56.5 C 617.389,57.3799 619.389,57.3799 621.5,56.5C 619.406,58.9938 617.406,58.9938 615.5,56.5 Z"/></g>
<g><path style="opacity:1" fill="#f2f3f2" d="M 415.5,60.5 C 416.251,59.4265 417.251,59.2599 418.5,60C 417.552,60.4828 416.552,60.6495 415.5,60.5 Z"/></g>
</svg>
