<?xml version="1.0" encoding="UTF-8"?>
<!DOCTYPE svg PUBLIC "-//W3C//DTD SVG 1.1//EN" "http://www.w3.org/Graphics/SVG/1.1/DTD/svg11.dtd">
<svg xmlns="http://www.w3.org/2000/svg" version="1.1" width="851px" height="235px" style="shape-rendering:geometricPrecision; text-rendering:geometricPrecision; image-rendering:optimizeQuality; fill-rule:evenodd; clip-rule:evenodd" xmlns:xlink="http://www.w3.org/1999/xlink">
<g><path style="opacity:1" fill="#000000" d="M 850.5,114.5 C 850.5,119.833 850.5,125.167 850.5,130.5C 841.972,130.489 833.306,130.322 824.5,130C 820.914,135.591 816.58,140.591 811.5,145C 808.217,145.044 807.884,144.044 810.5,142C 810.167,141.833 809.833,141.667 809.5,141.5C 807.972,142.861 806.305,144.028 804.5,145C 808.002,145.656 808.002,146.989 804.5,149C 802.687,148.954 801.021,149.12 799.5,149.5C 807.484,153.441 809.15,159.108 804.5,166.5C 803.088,167.806 801.421,168.64 799.5,169C 796.242,169.212 793.076,169.712 790,170.5C 789.667,170.167 789.333,169.833 789,169.5C 784.001,172.417 778.834,174.917 773.5,177C 771.814,194.423 772.814,211.923 776.5,229.5C 775.954,231.135 775.62,232.801 775.5,234.5C 753.167,234.5 730.833,234.5 708.5,234.5C 705.94,233.78 704.107,232.113 703,229.5C 701.582,231.363 699.749,231.863 697.5,231C 693.279,229.398 689.612,227.065 686.5,224C 684.444,223.689 682.444,223.189 680.5,222.5C 679.167,221.833 679.167,221.167 680.5,220.5C 703.224,228.219 726.224,229.386 749.5,224C 750.931,223.535 752.097,222.701 753,221.5C 753.988,218.576 754.654,215.576 755,212.5C 755.137,203.251 755.304,194.084 755.5,185C 750.746,185.692 746.079,187.025 741.5,189C 732.282,191.116 727.949,187.449 728.5,178C 728.559,176.564 728.892,175.231 729.5,174C 737.833,168.333 746.167,162.667 754.5,157C 748.273,157.349 742.273,158.849 736.5,161.5C 734.49,160.498 732.49,159.498 730.5,158.5C 728.749,154.851 729.749,152.185 733.5,150.5C 734.768,151.428 736.101,151.595 737.5,151C 743.176,147.829 748.842,144.663 754.5,141.5C 754,141.167 753.5,140.833 753,140.5C 734.969,146.294 717.303,153.294 700,161.5C 691.532,161.703 688.199,157.703 690,149.5C 692.488,146.017 695.322,145.351 698.5,147.5C 716.998,140.58 735.664,134.247 754.5,128.5C 754.82,125.102 754.487,121.768 753.5,118.5C 746.041,122.063 738.707,125.897 731.5,130C 726.302,129.654 722.968,126.82 721.5,121.5C 722.47,119.517 723.47,117.517 724.5,115.5C 729.3,112.931 733.967,110.098 738.5,107C 741.274,105.395 741.94,103.228 740.5,100.5C 737.439,103.784 733.773,105.284 729.5,105C 716.645,90.4245 718.645,77.9245 735.5,67.5C 735.833,67.8333 736.167,68.1667 736.5,68.5C 734.529,71.0267 733.863,73.6934 734.5,76.5C 740.749,72.1238 747.249,68.1238 754,64.5C 754.825,60.7887 754.659,57.122 753.5,53.5C 738.251,57.961 723.584,63.7943 709.5,71C 695.56,76.6339 685.894,72.4673 680.5,58.5C 681.934,54.3141 684.934,51.9807 689.5,51.5C 691.204,53.0413 693.037,54.3746 695,55.5C 714.436,49.2664 733.936,43.2664 753.5,37.5C 754.76,31.137 754.593,24.8037 753,18.5C 751.468,16.4376 749.468,15.1043 747,14.5C 746.242,12.2305 746.409,10.0639 747.5,8C 760.869,3.84776 770.535,8.1811 776.5,21C 774.515,24.5943 773.681,28.4276 774,32.5C 786.762,28.8482 799.595,25.5149 812.5,22.5C 818.564,24.6941 824.564,27.1941 830.5,30C 835.095,35.7831 834.095,40.2831 827.5,43.5C 823.057,43.7444 818.557,43.4111 814,42.5C 801.167,44.3338 789,48.1671 777.5,54C 781.21,54.6307 784.71,54.1307 788,52.5C 794.701,53.0175 800.367,55.6842 805,60.5C 807.223,64.3877 806.723,67.8877 803.5,71C 798.659,73.9212 793.659,76.5879 788.5,79C 792.017,80.484 793.851,82.984 794,86.5C 793.167,87.3333 792.333,88.1667 791.5,89C 784.713,91.0346 778.547,94.2013 773,98.5C 772.333,99.5 772.333,100.5 773,101.5C 784.186,98.879 795.352,96.2123 806.5,93.5C 812.914,95.5414 818.914,98.3747 824.5,102C 827.543,104.593 829.71,107.76 831,111.5C 833.417,110.648 835.917,109.981 838.5,109.5C 842.327,111.554 846.327,113.221 850.5,114.5 Z M 781.5,45.5 C 782.873,45.3433 784.207,45.51 785.5,46C 781.496,48.5845 777.329,50.7512 773,52.5C 772.506,50.8659 772.34,49.1992 772.5,47.5C 775.689,47.1417 778.689,46.475 781.5,45.5 Z M 749.5,51.5 C 747.208,53.2671 744.542,54.2671 741.5,54.5C 743.684,52.4152 746.351,51.4152 749.5,51.5 Z M 772.5,55.5 C 775.001,55.5109 775.168,56.1776 773,57.5C 772.536,56.9056 772.369,56.2389 772.5,55.5 Z M 776.5,67.5 C 777.552,67.3505 778.552,67.5172 779.5,68C 777.241,69.7146 775.074,71.5479 773,73.5C 771.924,70.0943 773.09,68.0943 776.5,67.5 Z M 752.5,76.5 C 753.765,77.5145 754.431,79.0145 754.5,81C 754.167,82.5 753.833,84 753.5,85.5C 749.168,88.4083 744.501,90.4083 739.5,91.5C 739.373,89.0846 739.207,86.7513 739,84.5C 742.965,80.8035 747.465,78.1369 752.5,76.5 Z M 749.5,103.5 C 745.104,108.035 739.77,111.035 733.5,112.5C 738.502,108.997 743.835,105.997 749.5,103.5 Z M 795.5,105.5 C 802.94,105.873 805.274,109.206 802.5,115.5C 794.636,118.693 786.636,120.359 778.5,120.5C 776.821,119.218 774.987,118.218 773,117.5C 772.16,114.682 772.994,112.516 775.5,111C 782.208,108.826 788.875,106.993 795.5,105.5 Z M 792.5,126.5 C 787.318,128.997 781.985,130.33 776.5,130.5C 776.804,129.85 777.137,129.183 777.5,128.5C 775.577,127.692 773.577,127.192 771.5,127C 778.027,124.824 784.527,122.658 791,120.5C 793.497,122.048 795.997,122.715 798.5,122.5C 795.383,123.984 792.05,124.984 788.5,125.5C 789.861,125.788 791.194,126.121 792.5,126.5 Z M 752.5,134.5 C 752.158,135.338 751.492,135.672 750.5,135.5C 745.77,136.686 741.27,138.353 737,140.5C 735.355,140.307 733.521,140.14 731.5,140C 737.986,136.111 744.986,133.277 752.5,131.5C 753.167,131.667 753.833,131.833 754.5,132C 753.244,132.417 752.577,133.25 752.5,134.5 Z M 791.5,131.5 C 792.552,131.351 793.552,131.517 794.5,132C 792.088,136.416 788.922,140.249 785,143.5C 781.544,141.07 777.71,139.737 773.5,139.5C 773.5,138.5 773.5,137.5 773.5,136.5C 779.603,134.81 785.603,133.144 791.5,131.5 Z M 752.5,134.5 C 753.239,134.369 753.906,134.536 754.5,135C 753.421,135.956 752.255,136.789 751,137.5C 750.536,136.906 750.369,136.239 750.5,135.5C 751.492,135.672 752.158,135.338 752.5,134.5 Z M 777.5,153.5 C 778.773,154.077 778.773,154.743 777.5,155.5C 776.084,157.139 774.417,157.973 772.5,158C 773.445,155.554 775.111,154.054 777.5,153.5 Z M 747.5,168.5 C 749.498,166.4 751.665,164.4 754,162.5C 754.49,163.793 754.657,165.127 754.5,166.5C 752.079,166.878 749.746,167.545 747.5,168.5 Z M 767.5,193.5 C 768.648,197.981 768.815,202.648 768,207.5C 767.102,202.698 766.936,198.031 767.5,193.5 Z M 704.5,229.5 C 704.62,228.414 705.287,227.747 706.5,227.5C 712.574,229.119 711.907,229.785 704.5,229.5 Z"/></g>
<g><path style="opacity:1" fill="#000000" d="M 384.5,119.5 C 387.02,117.737 389.353,115.737 391.5,113.5C 387.975,114.759 384.975,116.759 382.5,119.5C 381.833,119.5 381.5,119.833 381.5,120.5C 380.244,120.461 379.244,120.961 378.5,122C 379.03,123.744 379.03,125.244 378.5,126.5C 384.608,123.696 390.775,121.029 397,118.5C 403.356,119.842 408.356,123.175 412,128.5C 409.629,142.446 405.129,155.779 398.5,168.5C 402.167,171 405.833,173.5 409.5,176C 423.451,182.535 437.451,188.868 451.5,195C 457.288,199.587 461.622,205.254 464.5,212C 462.626,214.018 460.293,215.184 457.5,215.5C 445.596,212.723 433.596,210.556 421.5,209C 410.086,200.924 399.253,192.09 389,182.5C 378.475,193.01 365.975,196.843 351.5,194C 344.254,190.424 339.587,184.757 337.5,177C 338,176.5 338.5,176 339,175.5C 343.811,185.147 351.311,187.98 361.5,184C 366.755,180.749 371.422,176.749 375.5,172C 365.274,163.219 353.608,157.053 340.5,153.5C 343.088,151.943 345.921,150.943 349,150.5C 361.065,151.966 372.399,155.633 383,161.5C 386.682,153.266 389.516,144.766 391.5,136C 389.402,136.032 387.402,136.699 385.5,138C 380.678,141.911 375.678,145.578 370.5,149C 364.948,149.766 361.115,147.6 359,142.5C 358.385,139.955 358.885,137.622 360.5,135.5C 371.94,125.223 382.607,114.056 392.5,102C 386.971,98.6237 383.971,93.6237 383.5,87C 386.395,77.923 388.562,68.7563 390,59.5C 384.859,63.4506 379.025,65.1173 372.5,64.5C 374.291,70.0368 374.791,75.7035 374,81.5C 372.092,91.19 370.092,100.857 368,110.5C 365,114.5 362,114.5 359,110.5C 357.294,106.921 355.461,103.421 353.5,100C 354.617,96.9269 354.784,93.7603 354,90.5C 347.801,96.3644 341.968,102.531 336.5,109C 341.533,110.867 345.533,114.034 348.5,118.5C 348.124,120.383 347.124,121.883 345.5,123C 341.106,123.453 336.939,124.619 333,126.5C 332.106,139.58 331.606,152.08 331.5,164C 332.374,172.739 333.707,181.406 335.5,190C 335.492,196.048 335.325,202.215 335,208.5C 331.876,215.094 326.71,217.928 319.5,217C 311.688,208.396 305.355,198.73 300.5,188C 300.833,187.667 301.167,187.333 301.5,187C 298.101,183.272 295.101,179.272 292.5,175C 292.85,173.743 293.517,173.409 294.5,174C 298.574,183.914 305.907,189.414 316.5,190.5C 315.87,170.506 315.37,150.506 315,130.5C 312.333,132.5 309.667,134.5 307,136.5C 306.833,137.5 306.667,138.5 306.5,139.5C 306.932,144.24 308.432,148.574 311,152.5C 311.314,155.865 311.481,159.031 311.5,162C 309.461,164.374 307.128,166.374 304.5,168C 302.711,168.52 301.044,168.187 299.5,167C 296.969,163.584 295.302,159.751 294.5,155.5C 295.663,150.604 296.163,145.937 296,141.5C 294.581,142.46 293.081,143.293 291.5,144C 290.144,153.317 288.311,162.817 286,172.5C 279.808,186.898 270.308,198.564 257.5,207.5C 257.167,207.167 256.833,206.833 256.5,206.5C 266.441,189.176 272.607,170.843 275,151.5C 268.502,154.441 262.336,157.941 256.5,162C 252.5,164 248.5,164 244.5,162C 241.628,159.463 239.128,156.63 237,153.5C 236.403,147.239 239.236,143.239 245.5,141.5C 247.35,142.242 248.016,143.242 247.5,144.5C 257.713,141.04 267.546,136.706 277,131.5C 277.667,126.833 278.333,122.167 279,117.5C 279.281,109.103 279.448,100.769 279.5,92.5C 279.213,89.1345 278.046,86.1345 276,83.5C 274.667,84.8333 273.333,86.1667 272,87.5C 271.308,86.9747 270.808,86.3081 270.5,85.5C 280.737,72.6945 290.237,59.3611 299,45.5C 299.911,42.6894 300.744,39.8561 301.5,37C 300.964,34.76 299.797,32.9266 298,31.5C 297.333,30.5 297.333,29.5 298,28.5C 300.152,27.1147 302.485,26.1147 305,25.5C 312.203,27.2672 318.536,30.6006 324,35.5C 327.246,40.8634 327.246,46.1967 324,51.5C 313.164,63.3192 299.997,71.4859 284.5,76C 282.167,77.6667 279.833,79.3333 277.5,81C 281.039,81.1872 284.205,82.3538 287,84.5C 288.667,86.8333 290.333,89.1667 292,91.5C 292.494,93.1341 292.66,94.8008 292.5,96.5C 298.614,93.8637 304.614,94.0303 310.5,97C 311.833,99 313.167,101 314.5,103C 313.896,105.468 312.562,107.468 310.5,109C 303.635,112.18 297.802,116.68 293,122.5C 292.312,123.332 292.479,123.998 293.5,124.5C 300.53,121.649 307.53,118.815 314.5,116C 315.264,113.931 315.764,111.764 316,109.5C 316.5,98.8385 316.667,88.1719 316.5,77.5C 307.978,80.3398 299.478,83.3398 291,86.5C 290.5,86.1667 290,85.8333 289.5,85.5C 297.721,77.0574 306.721,69.5574 316.5,63C 325.074,63.0381 332.241,66.2048 338,72.5C 338.837,74.8383 339.67,77.1716 340.5,79.5C 335.439,88.3277 333.272,97.661 334,107.5C 342,96.8333 350,86.1667 358,75.5C 359.584,69.8803 359.918,64.2136 359,58.5C 360.378,56.7866 362.045,55.4533 364,54.5C 366.374,56.539 368.374,58.8723 370,61.5C 376.474,55.6952 382.974,49.8619 389.5,44C 395.56,42.1669 401.227,43.1669 406.5,47C 409.374,49.2599 411.374,52.0932 412.5,55.5C 408.339,65.8485 404.339,76.1818 400.5,86.5C 409.845,83.5051 416.511,86.5051 420.5,95.5C 419.289,97.4219 417.956,99.2552 416.5,101C 406.33,106.248 396.663,112.248 387.5,119C 386.552,119.483 385.552,119.649 384.5,119.5 Z M 293.5,102.5 C 296.407,103.734 298.741,105.734 300.5,108.5C 298.586,112.578 296.086,116.245 293,119.5C 292.313,113.796 292.479,108.13 293.5,102.5 Z M 394.5,111.5 C 394.027,112.906 393.027,113.573 391.5,113.5C 391.973,112.094 392.973,111.427 394.5,111.5 Z M 391.5,113.5 C 389.353,115.737 387.02,117.737 384.5,119.5C 383.833,119.5 383.167,119.5 382.5,119.5C 384.975,116.759 387.975,114.759 391.5,113.5 Z M 301.5,138.5 C 303.377,139.659 303.877,141.326 303,143.5C 301.991,141.975 301.491,140.308 301.5,138.5 Z"/></g>
<g><path style="opacity:1" fill="#000000" d="M 594.5,33.5 C 606.912,34.5771 617.412,39.5771 626,48.5C 626.449,51.132 627.283,53.632 628.5,56C 623.428,68.6349 621.095,81.8016 621.5,95.5C 622.13,106.674 622.796,117.841 623.5,129C 622.065,131.622 622.232,134.122 624,136.5C 624.195,145.215 624.695,153.881 625.5,162.5C 625.291,163.086 624.957,163.586 624.5,164C 625.824,168.266 626.824,172.599 627.5,177C 626.978,177.561 626.645,178.228 626.5,179C 628.303,186.073 628.803,193.24 628,200.5C 626.254,203.92 624.087,207.087 621.5,210C 622.535,211.507 622.368,213.007 621,214.5C 615.256,218.198 609.423,218.365 603.5,215C 596,206.167 587.833,198 579,190.5C 577.848,186.513 575.682,183.18 572.5,180.5C 572.833,180.167 573.167,179.833 573.5,179.5C 575.316,180.815 576.983,182.315 578.5,184C 580.402,185.301 582.402,185.968 584.5,186C 568.103,172.203 568.769,171.203 586.5,183C 589.512,183.78 592.345,184.947 595,186.5C 596.789,186.623 598.622,186.623 600.5,186.5C 601.208,180.813 601.875,175.146 602.5,169.5C 602.023,168.522 601.357,167.689 600.5,167C 601.059,166.275 601.392,165.442 601.5,164.5C 600.133,126.86 599.133,89.193 598.5,51.5C 596.473,49.661 594.14,49.161 591.5,50C 587.29,51.6228 583.29,53.6228 579.5,56C 571.5,59.3333 563.5,59.3333 555.5,56C 551.534,53.7152 551.534,51.3819 555.5,49C 568.072,42.5364 581.072,37.3697 594.5,33.5 Z M 616.5,129.5 C 616.893,134.779 617.893,139.946 619.5,145C 618.975,145.692 618.308,146.192 617.5,146.5C 616.505,140.872 616.171,135.206 616.5,129.5 Z M 604.5,147.5 C 605.267,148.172 605.934,149.005 606.5,150C 605.903,151.889 605.569,153.722 605.5,155.5C 604.52,152.914 604.187,150.247 604.5,147.5 Z M 617.5,150.5 C 617.125,147.093 618.125,146.593 620.5,149C 619.473,149.513 618.473,150.013 617.5,150.5 Z M 617.5,153.5 C 618.788,155.035 618.788,156.701 617.5,158.5C 616.334,156.833 616.334,155.166 617.5,153.5 Z M 604.5,157.5 C 605.239,157.369 605.906,157.536 606.5,158C 605.695,162.749 605.195,167.582 605,172.5C 604.501,167.511 604.334,162.511 604.5,157.5 Z M 617.5,160.5 C 618.713,161.497 618.546,162.497 617,163.5C 616.53,162.423 616.697,161.423 617.5,160.5 Z M 580.5,188.5 C 582.404,188.738 583.738,189.738 584.5,191.5C 582.596,191.262 581.262,190.262 580.5,188.5 Z"/></g>
<g><path style="opacity:1" fill="#000000" d="M 180.5,171.5 C 178.022,178.078 174.022,183.578 168.5,188C 165.8,190.405 163.967,189.905 163,186.5C 159.991,190.06 156.658,190.727 153,188.5C 150.597,190.983 148.264,190.983 146,188.5C 142.823,182.807 140.323,176.807 138.5,170.5C 141.105,168.584 140.605,167.584 137,167.5C 125.197,169.822 114.03,173.822 103.5,179.5C 103.167,179.167 102.833,178.833 102.5,178.5C 106.309,175.858 109.976,173.025 113.5,170C 108.528,171.638 103.528,173.638 98.5,176C 94.7219,177.259 91.0553,177.259 87.5,176C 82.6184,172.786 78.7851,168.619 76,163.5C 75.3333,161.833 75.3333,160.167 76,158.5C 90.4121,148.092 104.245,136.925 117.5,125C 112.481,122.793 110.147,118.96 110.5,113.5C 112.937,105.231 115.271,96.8978 117.5,88.5C 117.333,88.1667 117.167,87.8333 117,87.5C 107.257,93.6454 100.923,102.312 98,113.5C 97.8917,120.911 97.225,128.245 96,135.5C 93.0852,143.095 88.4185,144.428 82,139.5C 79.6033,135.377 77.7699,131.044 76.5,126.5C 79.9743,116.106 83.9743,106.273 88.5,97C 81.9612,95.032 75.2945,93.6987 68.5,93C 68.0426,92.586 67.7093,92.086 67.5,91.5C 72.4348,85.0404 78.7681,80.8737 86.5,79C 116.061,61.423 147.727,49.2564 181.5,42.5C 195.561,45.2796 207.727,51.613 218,61.5C 220.377,65.2896 222.377,69.2896 224,73.5C 225.406,80.1907 224.073,86.1907 220,91.5C 215.138,107.417 209.471,123.083 203,138.5C 197.304,147.907 191.637,157.241 186,166.5C 184.574,168.766 182.74,170.432 180.5,171.5 Z M 170.5,53.5 C 164.563,56.4001 158.23,57.9001 151.5,58C 152.667,57.5 153.5,56.6667 154,55.5C 158.585,56.1059 162.919,55.1059 167,52.5C 168.138,52.9891 169.305,53.3225 170.5,53.5 Z M 168.5,60.5 C 166.047,61.2172 163.713,62.3838 161.5,64C 168.544,62.5504 175.377,62.0504 182,62.5C 186.261,66.5634 187.594,71.5634 186,77.5C 182.574,93.204 177.907,108.537 172,123.5C 167.07,134.081 161.737,144.415 156,154.5C 154.167,156.333 152.333,158.167 150.5,160C 148.956,161.187 147.289,161.52 145.5,161C 148.39,155.053 147.056,150.053 141.5,146C 136.5,144.008 131.667,141.842 127,139.5C 116.818,145.448 105.985,149.615 94.5,152C 104.236,144.51 114.236,138.176 124.5,133C 127.155,131.885 129.821,131.218 132.5,131C 129.115,132.699 126.948,135.199 126,138.5C 133.881,133.975 142.047,130.142 150.5,127C 157.173,121.973 158.006,116.14 153,109.5C 150.325,107.554 147.492,105.887 144.5,104.5C 141.834,105.738 139.168,105.738 136.5,104.5C 139.976,98.3676 142.976,92.0343 145.5,85.5C 143.752,80.9189 140.752,77.4189 136.5,75C 141.167,73 145.833,71 150.5,69C 152.007,68.1627 152.507,66.9961 152,65.5C 150.612,66.5536 149.112,66.7203 147.5,66C 148.931,65.5348 150.097,64.7014 151,63.5C 154.578,63.9776 158.078,63.1443 161.5,61C 163.81,60.5034 166.143,60.3367 168.5,60.5 Z M 103.5,94.5 C 101.145,99.8795 97.8121,104.546 93.5,108.5C 90.0761,98.853 93.4094,94.1863 103.5,94.5 Z M 167.5,141.5 C 168.713,142.497 168.546,143.497 167,144.5C 166.53,143.423 166.697,142.423 167.5,141.5 Z M 160.5,153.5 C 162.067,150.717 163.9,148.051 166,145.5C 165.448,148.906 163.615,151.572 160.5,153.5 Z M 171.5,146.5 C 171.539,147.756 171.039,148.756 170,149.5C 169.415,148.002 169.915,147.002 171.5,146.5 Z M 179.5,155.5 C 180.128,152.91 181.295,150.577 183,148.5C 183.009,151.35 181.842,153.683 179.5,155.5 Z M 159.5,154.5 C 159.573,156.027 158.906,157.027 157.5,157.5C 157.427,155.973 158.094,154.973 159.5,154.5 Z M 188.5,154.5 C 185.798,160.186 183.131,165.853 180.5,171.5C 178.629,171.859 177.129,172.859 176,174.5C 175.833,174.167 175.667,173.833 175.5,173.5C 179.501,166.851 183.834,160.518 188.5,154.5 Z M 178.5,156.5 C 178.217,157.289 177.717,157.956 177,158.5C 176.472,157.184 176.972,156.517 178.5,156.5 Z M 175.5,160.5 C 175.262,162.404 174.262,163.738 172.5,164.5C 172.554,162.368 173.554,161.035 175.5,160.5 Z"/></g>
<g><path style="opacity:1" fill="#000000" d="M 502.5,45.5 C 510.905,45.1394 518.405,47.4727 525,52.5C 530.04,59.5228 529.54,66.0228 523.5,72C 518.498,73.5682 513.832,72.7349 509.5,69.5C 504.995,71.2492 500.995,73.7492 497.5,77C 496.668,77.6877 496.002,77.521 495.5,76.5C 498.053,72.7264 500.053,68.7264 501.5,64.5C 501.423,62.701 500.923,61.0344 500,59.5C 496.783,56.6195 493.95,53.4529 491.5,50C 491.645,49.228 491.978,48.5613 492.5,48C 495.952,47.1153 499.286,46.282 502.5,45.5 Z"/></g>
<g><path style="opacity:1" fill="#000000" d="M 158.5,63.5 C 159.376,63.3691 160.043,63.7025 160.5,64.5C 158.192,65.8734 157.525,65.5401 158.5,63.5 Z"/></g>
<g><path style="opacity:1" fill="#000000" d="M 542.5,74.5 C 547.708,74.9369 552.375,76.7702 556.5,80C 558.685,84.1869 559.019,88.5203 557.5,93C 563.037,91.7905 568.37,92.4571 573.5,95C 574.161,98.1368 575.495,100.97 577.5,103.5C 576.872,105.258 575.872,106.758 574.5,108C 568.268,108.963 562.768,111.463 558,115.5C 556.661,120.736 556.161,126.07 556.5,131.5C 561.056,132.586 565.556,132.586 570,131.5C 574.473,132.991 578.973,134.491 583.5,136C 593.872,142.38 595.039,149.88 587,158.5C 584.536,157.839 582.036,157.339 579.5,157C 572.262,152.102 564.762,147.602 557,143.5C 555.949,152.469 555.282,161.469 555,170.5C 552.118,182.352 547.118,183.352 540,173.5C 538.831,168.98 537.664,164.48 536.5,160C 536.559,158.564 536.892,157.231 537.5,156C 538.744,155.544 539.577,156.044 540,157.5C 540.667,153.5 540.667,149.5 540,145.5C 531.61,152.52 522.61,158.52 513,163.5C 507.184,158.403 507.351,153.569 513.5,149C 516.902,147.6 519.736,145.433 522,142.5C 526.152,136.685 530.652,131.185 535.5,126C 531.908,126.502 528.241,126.502 524.5,126C 519.616,124.786 516.283,121.786 514.5,117C 514.645,116.228 514.978,115.561 515.5,115C 524.16,112.503 532.16,108.67 539.5,103.5C 541.983,97.566 542.15,91.566 540,85.5C 536.794,84.1803 535.794,81.8469 537,78.5C 538.812,77.0229 540.645,75.6896 542.5,74.5 Z"/></g>
<g><path style="opacity:1" fill="#000000" d="M 487.5,84.5 C 490.336,84.2022 490.836,84.8689 489,86.5C 488.333,90.5 488.333,94.5 489,98.5C 491.509,102.534 493.343,106.867 494.5,111.5C 494.135,119.265 493.135,127.099 491.5,135C 491.446,141.69 491.612,148.523 492,155.5C 493.833,151.167 495.667,146.833 497.5,142.5C 498.002,141.479 498.668,141.312 499.5,142C 495.62,156.107 494.62,170.44 496.5,185C 495.546,191.092 492.046,194.592 486,195.5C 483.406,194.538 481.406,192.871 480,190.5C 478.592,185.924 476.259,181.924 473,178.5C 472.192,176.577 471.692,174.577 471.5,172.5C 473.037,165.693 474.371,158.859 475.5,152C 475.96,132.186 478.127,112.353 482,92.5C 483.273,89.4027 485.107,86.7361 487.5,84.5 Z"/></g>
<g><path style="opacity:1" fill="#000000" d="M 17.5,101.5 C 20.6492,101.211 23.6492,101.711 26.5,103C 34.1581,110.99 40.6581,119.823 46,129.5C 46.1953,127.793 46.1953,126.126 46,124.5C 47.0113,125.337 48.1779,125.67 49.5,125.5C 52.0206,137.193 56.1873,148.193 62,158.5C 64.4054,163.307 66.2387,168.307 67.5,173.5C 59.5069,186.829 48.8402,189.495 35.5,181.5C 31.6548,177.967 27.8215,174.3 24,170.5C 14.4354,151.913 10.7688,132.246 13,111.5C 13.9072,107.816 15.4072,104.482 17.5,101.5 Z"/></g>
<g><path style="opacity:1" fill="#000000" d="M 382.5,119.5 C 383.167,119.5 383.833,119.5 384.5,119.5C 384.027,120.906 383.027,121.573 381.5,121.5C 381.5,121.167 381.5,120.833 381.5,120.5C 382.167,120.5 382.5,120.167 382.5,119.5 Z"/></g>
<g><path style="opacity:1" fill="#000000" d="M 381.5,121.5 C 380.833,122.167 380.833,122.167 381.5,121.5 Z"/></g>
<g><path style="opacity:1" fill="#000000" d="M 785.5,125.5 C 788.001,125.511 788.168,126.178 786,127.5C 785.536,126.906 785.369,126.239 785.5,125.5 Z"/></g>
<g><path style="opacity:1" fill="#000000" d="M 780.5,126.5 C 783.797,126.329 784.131,126.995 781.5,128.5C 780.702,128.043 780.369,127.376 780.5,126.5 Z"/></g>
<g><path style="opacity:1" fill="#000000" d="M 569.5,171.5 C 570.077,170.227 570.743,170.227 571.5,171.5C 571.03,172.463 570.363,172.463 569.5,171.5 Z"/></g>
</svg>
