<?xml version="1.0" encoding="UTF-8"?>
<!DOCTYPE svg PUBLIC "-//W3C//DTD SVG 1.1//EN" "http://www.w3.org/Graphics/SVG/1.1/DTD/svg11.dtd">
<svg xmlns="http://www.w3.org/2000/svg" version="1.1" width="120px" height="185px" style="shape-rendering:geometricPrecision; text-rendering:geometricPrecision; image-rendering:optimizeQuality; fill-rule:evenodd; clip-rule:evenodd" xmlns:xlink="http://www.w3.org/1999/xlink">
<g><path style="opacity:1" fill="#f6e7e7" d="M 68.5,8.5 C 66.4006,9.61185 64.0673,10.2785 61.5,10.5C 61.4614,9.24382 61.9614,8.24382 63,7.5C 64.6995,8.40609 66.5328,8.73943 68.5,8.5 Z"/></g>
<g><path style="opacity:1" fill="#99291f" d="M 77.5,9.5 C 75.3168,11.2343 72.6502,12.2343 69.5,12.5C 68.8333,12.1667 68.1667,11.8333 67.5,11.5C 64.7642,13.9689 61.7642,14.9689 58.5,14.5C 59.1925,13.4822 59.8592,12.4822 60.5,11.5C 60.5,10.8333 60.8333,10.5 61.5,10.5C 64.0673,10.2785 66.4006,9.61185 68.5,8.5C 71.6565,7.12876 74.6565,7.4621 77.5,9.5 Z"/></g>
<g><path style="opacity:1" fill="#cf827b" d="M 86.5,8.5 C 83.9242,8.46791 81.5909,9.13458 79.5,10.5C 81.2389,7.58549 83.5722,6.91882 86.5,8.5 Z"/></g>
<g><path style="opacity:1" fill="#f9f3f2" d="M 94.5,10.5 C 95.8333,11.1667 95.8333,11.1667 94.5,10.5 Z"/></g>
<g><path style="opacity:1" fill="#a61e1a" d="M 71.5,13.5 C 71.3893,14.1174 71.056,14.6174 70.5,15C 72.3261,15.2917 74.1595,15.125 76,14.5C 77.8122,14.4934 79.3122,15.16 80.5,16.5C 79.1431,18.1856 77.8098,19.8523 76.5,21.5C 74.7526,21.4074 72.9193,21.074 71,20.5C 70.1667,21.3333 69.3333,22.1667 68.5,23C 72.375,24.3468 72.375,25.5135 68.5,26.5C 68.8457,27.6956 69.3457,27.6956 70,26.5C 70.7805,27.9437 70.6139,29.277 69.5,30.5C 67.0808,30.9137 65.0808,31.9137 63.5,33.5C 63.6282,35.0898 64.2949,36.4231 65.5,37.5C 69.7649,36.5614 74.0983,36.2281 78.5,36.5C 78.5,38.5 78.5,40.5 78.5,42.5C 74.1667,42.5 69.8333,42.5 65.5,42.5C 64.2502,42.5774 63.4169,43.244 63,44.5C 62.3109,43.6433 61.4776,42.9767 60.5,42.5C 60.4611,39.7571 60.1278,37.0905 59.5,34.5C 59.4894,32.9826 58.8228,31.8159 57.5,31C 54.7821,29.9282 52.1155,28.7616 49.5,27.5C 50.5244,26.1482 51.5244,24.8149 52.5,23.5C 54.0905,21.3674 56.0905,19.7007 58.5,18.5C 62.6926,16.5745 67.0259,14.9078 71.5,13.5 Z"/></g>
<g><path style="opacity:1" fill="#a21815" d="M 71.5,13.5 C 83.5373,13.0509 92.8706,17.7176 99.5,27.5C 98.9002,28.8999 97.9002,29.8999 96.5,30.5C 93.4484,32.1783 90.1151,32.845 86.5,32.5C 86.6905,29.0155 87.6905,25.8488 89.5,23C 87.8333,22.3333 86.1667,22.3333 84.5,23C 86.5951,23.5556 86.7618,24.0556 85,24.5C 81.8901,24.0555 79.0568,23.0555 76.5,21.5C 77.8098,19.8523 79.1431,18.1856 80.5,16.5C 79.3122,15.16 77.8122,14.4934 76,14.5C 74.1595,15.125 72.3261,15.2917 70.5,15C 71.056,14.6174 71.3893,14.1174 71.5,13.5 Z"/></g>
<g><path style="opacity:1" fill="#a03227" d="M 86.5,8.5 C 89.3103,9.19921 91.977,10.1992 94.5,11.5C 97.271,14.3918 100.271,17.0584 103.5,19.5C 103.557,20.609 103.89,21.609 104.5,22.5C 104.285,24.1788 104.952,25.1788 106.5,25.5C 108.588,27.3356 109.921,29.6689 110.5,32.5C 109.067,37.6564 107.901,37.3231 107,31.5C 104.361,27.3612 101.528,23.3612 98.5,19.5C 92.4123,16.2802 86.079,13.9468 79.5,12.5C 79.5,11.8333 79.5,11.1667 79.5,10.5C 81.5909,9.13458 83.9242,8.46791 86.5,8.5 Z"/></g>
<g><path style="opacity:1" fill="#b96b61" d="M 54.5,14.5 C 56.0481,14.8212 56.7148,15.8212 56.5,17.5C 54.7471,19.3987 52.7471,20.0653 50.5,19.5C 51.6125,17.5808 52.9458,15.9142 54.5,14.5 Z"/></g>
<g><path style="opacity:1" fill="#f9f3f2" d="M 103.5,19.5 C 103.897,18.475 104.563,18.3083 105.5,19C 104.906,19.4643 104.239,19.631 103.5,19.5 Z"/></g>
<g><path style="opacity:1" fill="#9b1714" d="M 76.5,21.5 C 79.0568,23.0555 81.8901,24.0555 85,24.5C 86.7618,24.0556 86.5951,23.5556 84.5,23C 86.1667,22.3333 87.8333,22.3333 89.5,23C 87.6905,25.8488 86.6905,29.0155 86.5,32.5C 90.1151,32.845 93.4484,32.1783 96.5,30.5C 96.0472,31.4584 95.3805,32.2917 94.5,33C 91.5184,33.498 88.5184,33.6646 85.5,33.5C 85.3184,31.4086 85.6518,29.4086 86.5,27.5C 83.9881,26.2054 81.3214,25.5387 78.5,25.5C 78.5,28.1667 78.5,30.8333 78.5,33.5C 73.5,33.5 68.5,33.5 63.5,33.5C 65.0808,31.9137 67.0808,30.9137 69.5,30.5C 70.6139,29.277 70.7805,27.9437 70,26.5C 69.3457,27.6956 68.8457,27.6956 68.5,26.5C 72.375,25.5135 72.375,24.3468 68.5,23C 69.3333,22.1667 70.1667,21.3333 71,20.5C 72.9193,21.074 74.7526,21.4074 76.5,21.5 Z"/></g>
<g><path style="opacity:1" fill="#f9f3f2" d="M 106.5,21.5 C 108.337,21.6395 108.67,22.3061 107.5,23.5C 106.702,23.0431 106.369,22.3764 106.5,21.5 Z"/></g>
<g><path style="opacity:1" fill="#ba6657" d="M 47.5,22.5 C 48.552,22.3505 49.552,22.5172 50.5,23C 49.3816,24.0736 48.3816,25.2402 47.5,26.5C 46.3132,27.6527 45.3132,27.6527 44.5,26.5C 45.7888,25.3634 46.7888,24.0301 47.5,22.5 Z"/></g>
<g><path style="opacity:1" fill="#dfb1af" d="M 104.5,22.5 C 105.401,23.2905 106.068,24.2905 106.5,25.5C 104.952,25.1788 104.285,24.1788 104.5,22.5 Z"/></g>
<g><path style="opacity:1" fill="#f1e1e0" d="M 77.5,9.5 C 78.1667,10.5 78.8333,11.5 79.5,12.5C 86.079,13.9468 92.4123,16.2802 98.5,19.5C 101.528,23.3612 104.361,27.3612 107,31.5C 107.901,37.3231 109.067,37.6564 110.5,32.5C 111.473,33.7914 112.473,33.7914 113.5,32.5C 113.833,33 114.167,33.5 114.5,34C 114.011,35.1385 113.678,36.3052 113.5,37.5C 112.325,37.281 111.325,37.6143 110.5,38.5C 111.098,39.7946 111.598,41.1279 112,42.5C 112.383,41.944 112.883,41.6107 113.5,41.5C 113.833,42.1667 114.167,42.8333 114.5,43.5C 113.662,43.8417 113.328,44.5084 113.5,45.5C 113.167,45.5 112.833,45.5 112.5,45.5C 111.504,45.4142 110.671,45.7476 110,46.5C 109.667,50.5 109.333,54.5 109,58.5C 108.617,57.944 108.117,57.6107 107.5,57.5C 108.38,47.3478 106.547,37.6811 102,28.5C 101.329,27.7476 100.496,27.4142 99.5,27.5C 92.8706,17.7176 83.5373,13.0509 71.5,13.5C 67.0259,14.9078 62.6926,16.5745 58.5,18.5C 58.5912,16.3023 57.9245,15.9689 56.5,17.5C 56.7148,15.8212 56.0481,14.8212 54.5,14.5C 55.9228,12.4551 57.9228,11.4551 60.5,11.5C 59.8592,12.4822 59.1925,13.4822 58.5,14.5C 61.7642,14.9689 64.7642,13.9689 67.5,11.5C 68.1667,11.8333 68.8333,12.1667 69.5,12.5C 72.6502,12.2343 75.3168,11.2343 77.5,9.5 Z"/></g>
<g><path style="opacity:1" fill="#f9f3f2" d="M 42.5,27.5 C 40.663,27.3605 40.3296,26.6939 41.5,25.5C 42.2975,25.9569 42.6309,26.6236 42.5,27.5 Z"/></g>
<g><path style="opacity:1" fill="#f9f3f2" d="M 109.5,27.5 C 109.897,26.475 110.563,26.3083 111.5,27C 110.906,27.4643 110.239,27.631 109.5,27.5 Z"/></g>
<g><path style="opacity:1" fill="#f4e5e5" d="M 47.5,22.5 C 49.3569,21.2348 51.0236,21.5682 52.5,23.5C 51.5244,24.8149 50.5244,26.1482 49.5,27.5C 52.1155,28.7616 54.7821,29.9282 57.5,31C 58.8228,31.8159 59.4894,32.9826 59.5,34.5C 59.938,38.9083 57.938,40.5749 53.5,39.5C 53.6581,35.4826 51.9914,32.4826 48.5,30.5C 45.7954,34.277 43.462,38.277 41.5,42.5C 44.5648,43.3768 47.5648,44.3768 50.5,45.5C 54.1684,47.3919 55.3351,50.3919 54,54.5C 51.0944,56.0671 48.9277,55.4005 47.5,52.5C 46.4803,49.1397 44.4803,46.473 41.5,44.5C 39.3495,49.4305 37.3495,54.4305 35.5,59.5C 34.6618,59.1583 34.3284,58.4916 34.5,57.5C 35.2341,56.2921 35.5674,54.9587 35.5,53.5C 36.2679,51.2854 36.9346,48.9521 37.5,46.5C 39.9208,41.0813 42.2541,35.5813 44.5,30C 44.1639,28.9701 43.4972,28.4701 42.5,28.5C 42.5,28.1667 42.5,27.8333 42.5,27.5C 43.1667,27.1667 43.8333,26.8333 44.5,26.5C 45.3132,27.6527 46.3132,27.6527 47.5,26.5C 48.3816,25.2402 49.3816,24.0736 50.5,23C 49.552,22.5172 48.552,22.3505 47.5,22.5 Z"/></g>
<g><path style="opacity:1" fill="#f2e5e5" d="M 96.5,30.5 C 98.7157,31.2026 100.549,32.5359 102,34.5C 102.692,35.4368 102.525,36.1034 101.5,36.5C 95.8333,36.5 90.1667,36.5 84.5,36.5C 84.5,38.5 84.5,40.5 84.5,42.5C 87.0593,42.8016 89.3926,42.4682 91.5,41.5C 94.8756,38.6166 97.5423,39.2833 99.5,43.5C 95.0093,45.2168 90.3426,45.8835 85.5,45.5C 85.1667,45.5 84.8333,45.5 84.5,45.5C 84.2914,44.0783 83.7914,42.745 83,41.5C 81.8525,42.4581 80.8525,42.1247 80,40.5C 79.7216,41.4158 79.2216,42.0825 78.5,42.5C 78.5,40.5 78.5,38.5 78.5,36.5C 74.0983,36.2281 69.7649,36.5614 65.5,37.5C 64.2949,36.4231 63.6282,35.0898 63.5,33.5C 68.5,33.5 73.5,33.5 78.5,33.5C 78.5,30.8333 78.5,28.1667 78.5,25.5C 81.3214,25.5387 83.9881,26.2054 86.5,27.5C 85.6518,29.4086 85.3184,31.4086 85.5,33.5C 88.5184,33.6646 91.5184,33.498 94.5,33C 95.3805,32.2917 96.0472,31.4584 96.5,30.5 Z"/></g>
<g><path style="opacity:1" fill="#f8f3f2" d="M 37.5,29.5 C 39.337,29.6395 39.6704,30.3061 38.5,31.5C 37.7025,31.0431 37.3691,30.3764 37.5,29.5 Z"/></g>
<g><path style="opacity:1" fill="#f9f3f2" d="M 37.5,35.5 C 36.3523,36.895 35.3523,36.7284 34.5,35C 36.0527,32.8601 37.0527,33.0268 37.5,35.5 Z"/></g>
<g><path style="opacity:1" fill="#bc6862" d="M 101.5,36.5 C 96.3595,37.4881 91.0262,37.8214 85.5,37.5C 85.5,38.8333 85.5,40.1667 85.5,41.5C 87.5,41.5 89.5,41.5 91.5,41.5C 89.3926,42.4682 87.0593,42.8016 84.5,42.5C 84.5,40.5 84.5,38.5 84.5,36.5C 90.1667,36.5 95.8333,36.5 101.5,36.5 Z"/></g>
<g><path style="opacity:1" fill="#f9f3f2" d="M 115.5,38.5 C 117.337,38.6395 117.67,39.3061 116.5,40.5C 115.702,40.0431 115.369,39.3764 115.5,38.5 Z"/></g>
<g><path style="opacity:1" fill="#bb5954" d="M 113.5,37.5 C 114.354,39.035 114.354,40.3684 113.5,41.5C 112.883,41.6107 112.383,41.944 112,42.5C 111.598,41.1279 111.098,39.7946 110.5,38.5C 111.325,37.6143 112.325,37.281 113.5,37.5 Z"/></g>
<g><path style="opacity:1" fill="#f9f3f2" d="M 32.5,40.5 C 33.525,40.8966 33.6917,41.5632 33,42.5C 32.5357,41.9056 32.369,41.2389 32.5,40.5 Z"/></g>
<g><path style="opacity:1" fill="#dea8a9" d="M 37.5,38.5 C 37.573,40.0269 36.9063,41.0269 35.5,41.5C 35.427,39.9731 36.0937,38.9731 37.5,38.5 Z"/></g>
<g><path style="opacity:1" fill="#98271e" d="M 42.5,28.5 C 43.4972,28.4701 44.1639,28.9701 44.5,30C 42.2541,35.5813 39.9208,41.0813 37.5,46.5C 35.8235,45.8166 35.1568,44.4832 35.5,42.5C 35.5,42.1667 35.5,41.8333 35.5,41.5C 36.9063,41.0269 37.573,40.0269 37.5,38.5C 37.5,37.5 37.5,36.5 37.5,35.5C 39.5841,33.4236 41.2508,31.0903 42.5,28.5 Z"/></g>
<g><path style="opacity:1" fill="#f5edec" d="M 84.5,45.5 C 84.5,47.1667 84.5,48.8333 84.5,50.5C 89.0323,50.8182 93.3656,50.4849 97.5,49.5C 101.46,46.6842 104.46,47.6842 106.5,52.5C 105.675,53.3857 104.675,53.719 103.5,53.5C 100.5,53.5 97.5,53.5 94.5,53.5C 84.4176,53.1926 74.4176,53.5259 64.5,54.5C 63.8333,54.5 63.1667,54.5 62.5,54.5C 61.7659,53.2921 61.4326,51.9587 61.5,50.5C 67.1667,50.5 72.8333,50.5 78.5,50.5C 78.5,48.8333 78.5,47.1667 78.5,45.5C 74.4862,45.6655 70.4862,45.4988 66.5,45C 65.7476,44.3292 65.4142,43.4959 65.5,42.5C 69.8333,42.5 74.1667,42.5 78.5,42.5C 79.2216,42.0825 79.7216,41.4158 80,40.5C 80.8525,42.1247 81.8525,42.4581 83,41.5C 83.7914,42.745 84.2914,44.0783 84.5,45.5 Z"/></g>
<g><path style="opacity:1" fill="#a11d18" d="M 59.5,34.5 C 60.1278,37.0905 60.4611,39.7571 60.5,42.5C 61.4776,42.9767 62.3109,43.6433 63,44.5C 63.4169,43.244 64.2502,42.5774 65.5,42.5C 65.4142,43.4959 65.7476,44.3292 66.5,45C 70.4862,45.4988 74.4862,45.6655 78.5,45.5C 78.5,47.1667 78.5,48.8333 78.5,50.5C 72.8333,50.5 67.1667,50.5 61.5,50.5C 61.4326,51.9587 61.7659,53.2921 62.5,54.5C 61.5041,54.4142 60.6708,54.7476 60,55.5C 59.7675,59.3739 58.9341,62.3739 57.5,64.5C 58.0833,57.9977 59.4166,51.6644 61.5,45.5C 60.3117,44.6364 59.1451,43.6364 58,42.5C 55.7625,44.2036 53.2625,45.2036 50.5,45.5C 47.5648,44.3768 44.5648,43.3768 41.5,42.5C 43.462,38.277 45.7954,34.277 48.5,30.5C 51.9914,32.4826 53.6581,35.4826 53.5,39.5C 57.938,40.5749 59.938,38.9083 59.5,34.5 Z"/></g>
<g><path style="opacity:1" fill="#951915" d="M 99.5,27.5 C 100.496,27.4142 101.329,27.7476 102,28.5C 106.547,37.6811 108.38,47.3478 107.5,57.5C 107.167,57.5 106.833,57.5 106.5,57.5C 106.5,56.5 106.5,55.5 106.5,54.5C 105.209,54.7373 104.209,54.404 103.5,53.5C 104.675,53.719 105.675,53.3857 106.5,52.5C 104.46,47.6842 101.46,46.6842 97.5,49.5C 93.5,49.5 89.5,49.5 85.5,49.5C 85.5,48.1667 85.5,46.8333 85.5,45.5C 90.3426,45.8835 95.0093,45.2168 99.5,43.5C 97.5423,39.2833 94.8756,38.6166 91.5,41.5C 89.5,41.5 87.5,41.5 85.5,41.5C 85.5,40.1667 85.5,38.8333 85.5,37.5C 91.0262,37.8214 96.3595,37.4881 101.5,36.5C 102.525,36.1034 102.692,35.4368 102,34.5C 100.549,32.5359 98.7157,31.2026 96.5,30.5C 97.9002,29.8999 98.9002,28.8999 99.5,27.5 Z"/></g>
<g><path style="opacity:1" fill="#d39292" d="M 35.5,42.5 C 35.1568,44.4832 35.8235,45.8166 37.5,46.5C 36.9346,48.9521 36.2679,51.2854 35.5,53.5C 35.7845,51.5853 35.4511,49.9187 34.5,48.5C 34.5,48.1667 34.5,47.8333 34.5,47.5C 34.2155,45.5853 34.5489,43.9187 35.5,42.5 Z"/></g>
<g><path style="opacity:1" fill="#f3e8e7" d="M 112.5,45.5 C 112.833,45.5 113.167,45.5 113.5,45.5C 113.769,48.0145 114.769,50.0145 116.5,51.5C 116.833,52.1667 117.167,52.8333 117.5,53.5C 114.833,54.1667 114.833,54.8333 117.5,55.5C 117.833,56.1667 118.167,56.8333 118.5,57.5C 117.5,57.5 116.5,57.5 115.5,57.5C 113.592,70.7422 112.592,84.0755 112.5,97.5C 111.833,97.5 111.167,97.5 110.5,97.5C 110.5,88.8333 110.5,80.1667 110.5,71.5C 112.09,62.9294 112.756,54.2628 112.5,45.5 Z"/></g>
<g><path style="opacity:1" fill="#f8f1f1" d="M 34.5,47.5 C 34.5,47.8333 34.5,48.1667 34.5,48.5C 33.8333,48.5 33.5,48.8333 33.5,49.5C 32.8333,49.5 32.5,49.8333 32.5,50.5C 31.453,52.1506 30.2863,53.8172 29,55.5C 28.3333,53.8333 28.3333,52.1667 29,50.5C 30.7335,48.438 32.5668,47.438 34.5,47.5 Z"/></g>
<g><path style="opacity:1" fill="#bc5f5e" d="M 84.5,45.5 C 84.8333,45.5 85.1667,45.5 85.5,45.5C 85.5,46.8333 85.5,48.1667 85.5,49.5C 89.5,49.5 93.5,49.5 97.5,49.5C 93.3656,50.4849 89.0323,50.8182 84.5,50.5C 84.5,48.8333 84.5,47.1667 84.5,45.5 Z"/></g>
<g><path style="opacity:1" fill="#c17a6f" d="M 114.5,43.5 C 115.27,45.6856 116.27,47.8523 117.5,50C 117.43,50.7648 117.097,51.2648 116.5,51.5C 114.769,50.0145 113.769,48.0145 113.5,45.5C 113.328,44.5084 113.662,43.8417 114.5,43.5 Z"/></g>
<g><path style="opacity:1" fill="#9b1a16" d="M 34.5,48.5 C 35.4511,49.9187 35.7845,51.5853 35.5,53.5C 35.5674,54.9587 35.2341,56.2921 34.5,57.5C 33.5269,55.0521 33.1936,52.3854 33.5,49.5C 33.5,48.8333 33.8333,48.5 34.5,48.5 Z"/></g>
<g><path style="opacity:1" fill="#a74a41" d="M 117.5,53.5 C 117.5,54.1667 117.5,54.8333 117.5,55.5C 114.833,54.8333 114.833,54.1667 117.5,53.5 Z"/></g>
<g><path style="opacity:1" fill="#9e1e18" d="M 47.5,52.5 C 47.2865,54.1439 47.6198,55.6439 48.5,57C 43.6473,58.7724 43.4806,60.6057 48,62.5C 48.9454,62.0946 49.6121,61.428 50,60.5C 50.9246,61.0465 51.7579,61.7132 52.5,62.5C 51.4229,64.7294 50.7563,67.0628 50.5,69.5C 49.6057,72.545 47.6057,74.2116 44.5,74.5C 43.2241,73.6136 43.2241,72.6136 44.5,71.5C 46.0709,70.6906 47.7376,70.3573 49.5,70.5C 49.5,69.1667 49.5,67.8333 49.5,66.5C 47.54,65.8617 45.7067,65.8617 44,66.5C 41.5506,65.1225 41.0506,63.2892 42.5,61C 41.139,59.073 40.3057,56.9063 40,54.5C 39.3333,55.1667 38.6667,55.8333 38,56.5C 36.6661,74.9432 35.4994,93.2766 34.5,111.5C 34.1981,96.1187 34.5314,80.7854 35.5,65.5C 35.5,63.5 35.5,61.5 35.5,59.5C 37.3495,54.4305 39.3495,49.4305 41.5,44.5C 44.4803,46.473 46.4803,49.1397 47.5,52.5 Z"/></g>
<g><path style="opacity:1" fill="#f2f3f2" d="M 31.5,56.5 C 30.8333,55.1667 30.8333,55.1667 31.5,56.5 Z"/></g>
<g><path style="opacity:1" fill="#9d221b" d="M 94.5,53.5 C 94.1667,54.1667 93.8333,54.8333 93.5,55.5C 87.7156,57.2669 81.7156,58.2669 75.5,58.5C 72.9534,58.5576 70.6201,57.8909 68.5,56.5C 67.503,63.4684 67.1697,70.4684 67.5,77.5C 67.7471,80.9387 67.4137,84.272 66.5,87.5C 65.8333,87.5 65.5,87.1667 65.5,86.5C 64.6993,84.9582 64.366,83.2915 64.5,81.5C 63.448,81.6495 62.448,81.4828 61.5,81C 61.8333,80.6667 62.1667,80.3333 62.5,80C 60.1558,79.1628 58.1558,77.8294 56.5,76C 57.4056,73.5529 58.2389,71.0529 59,68.5C 60.6965,67.6364 61.8632,66.3031 62.5,64.5C 63.325,63.6143 64.325,63.281 65.5,63.5C 65.7359,60.3915 65.4025,57.3915 64.5,54.5C 74.4176,53.5259 84.4176,53.1926 94.5,53.5 Z"/></g>
<g><path style="opacity:1" fill="#991a18" d="M 61.5,45.5 C 58.1416,53.5104 54.4749,61.5104 50.5,69.5C 50.7563,67.0628 51.4229,64.7294 52.5,62.5C 51.7579,61.7132 50.9246,61.0465 50,60.5C 49.6121,61.428 48.9454,62.0946 48,62.5C 43.4806,60.6057 43.6473,58.7724 48.5,57C 47.6198,55.6439 47.2865,54.1439 47.5,52.5C 48.9277,55.4005 51.0944,56.0671 54,54.5C 55.3351,50.3919 54.1684,47.3919 50.5,45.5C 53.2625,45.2036 55.7625,44.2036 58,42.5C 59.1451,43.6364 60.3117,44.6364 61.5,45.5 Z"/></g>
<g><path style="opacity:1" fill="#f7efef" d="M 93.5,55.5 C 96.0171,56.8927 97.6837,58.8927 98.5,61.5C 98.1667,61.5 97.8333,61.5 97.5,61.5C 96.6717,67.9874 96.1717,74.654 96,81.5C 95.6667,77.8333 95.3333,74.1667 95,70.5C 94.0513,72.0931 92.8846,73.4264 91.5,74.5C 91.5,72.5 91.5,70.5 91.5,68.5C 84.9779,68.1765 78.6446,68.5098 72.5,69.5C 71.0322,70.8057 69.6988,72.3057 68.5,74C 69.2871,75.313 68.9538,76.4797 67.5,77.5C 67.1697,70.4684 67.503,63.4684 68.5,56.5C 70.6201,57.8909 72.9534,58.5576 75.5,58.5C 81.7156,58.2669 87.7156,57.2669 93.5,55.5 Z"/></g>
<g><path style="opacity:1" fill="#ad201c" d="M 62.5,54.5 C 63.1667,54.5 63.8333,54.5 64.5,54.5C 65.4025,57.3915 65.7359,60.3915 65.5,63.5C 64.325,63.281 63.325,63.6143 62.5,64.5C 61.8632,66.3031 60.6965,67.6364 59,68.5C 58.2389,71.0529 57.4056,73.5529 56.5,76C 58.1558,77.8294 60.1558,79.1628 62.5,80C 62.1667,80.3333 61.8333,80.6667 61.5,81C 62.448,81.4828 63.448,81.6495 64.5,81.5C 64.366,83.2915 64.6993,84.9582 65.5,86.5C 64.2652,86.2786 63.2652,85.6119 62.5,84.5C 60.8306,85.8897 59.1639,86.2231 57.5,85.5C 54.8358,79.8399 54.8358,74.1732 57.5,68.5C 57.4573,67.5836 57.1239,66.9169 56.5,66.5C 56.3284,65.5084 56.6618,64.8417 57.5,64.5C 58.9341,62.3739 59.7675,59.3739 60,55.5C 60.6708,54.7476 61.5041,54.4142 62.5,54.5 Z"/></g>
<g><path style="opacity:1" fill="#d9a8a8" d="M 73.5,61.5 C 79.31,60.5104 85.31,60.1771 91.5,60.5C 91.7947,62.7354 91.4614,64.7354 90.5,66.5C 90.5,64.8333 90.5,63.1667 90.5,61.5C 84.8333,61.5 79.1667,61.5 73.5,61.5 Z"/></g>
<g><path style="opacity:1" fill="#9d2119" d="M 112.5,45.5 C 112.756,54.2628 112.09,62.9294 110.5,71.5C 109.833,72.1667 109.167,72.8333 108.5,73.5C 106.991,69.8363 103.991,67.003 99.5,65C 100.329,63.1839 101.163,61.3506 102,59.5C 102.741,58.3595 103.575,58.3595 104.5,59.5C 105.522,59.1445 106.189,58.4778 106.5,57.5C 106.833,57.5 107.167,57.5 107.5,57.5C 108.117,57.6107 108.617,57.944 109,58.5C 109.333,54.5 109.667,50.5 110,46.5C 110.671,45.7476 111.504,45.4142 112.5,45.5 Z"/></g>
<g><path style="opacity:1" fill="#ddb6af" d="M 108.5,59.5 C 109.586,59.62 110.253,60.2867 110.5,61.5C 110.167,62.1667 109.833,62.8333 109.5,63.5C 108.571,62.3112 108.238,60.9778 108.5,59.5 Z"/></g>
<g><path style="opacity:1" fill="#cb8782" d="M 33.5,49.5 C 33.1936,52.3854 33.5269,55.0521 34.5,57.5C 34.3284,58.4916 34.6618,59.1583 35.5,59.5C 35.5,61.5 35.5,63.5 35.5,65.5C 35.1667,65.5 34.8333,65.5 34.5,65.5C 33.3421,64.4274 33.3421,63.2607 34.5,62C 33.3679,60.2355 32.3679,58.4021 31.5,56.5C 32.4614,54.7354 32.7947,52.7354 32.5,50.5C 32.5,49.8333 32.8333,49.5 33.5,49.5 Z"/></g>
<g><path style="opacity:1" fill="#9e1d17" d="M 73.5,61.5 C 79.1667,61.5 84.8333,61.5 90.5,61.5C 90.5,63.1667 90.5,64.8333 90.5,66.5C 88.9064,66.0805 87.4064,65.4138 86,64.5C 81.757,66.3298 77.257,66.9965 72.5,66.5C 72.2155,64.5853 72.5489,62.9187 73.5,61.5 Z"/></g>
<g><path style="opacity:1" fill="#f2e3e3" d="M 32.5,63.5 C 32.1667,63.5 31.8333,63.5 31.5,63.5C 30.3745,66.4651 29.3745,69.4651 28.5,72.5C 27.3398,71.735 26.3398,70.735 25.5,69.5C 26.934,67.7801 27.7674,65.7801 28,63.5C 28.3333,64.5 28.6667,65.5 29,66.5C 29.1705,64.2852 29.8372,62.2852 31,60.5C 31.5133,61.5266 32.0133,62.5266 32.5,63.5 Z"/></g>
<g><path style="opacity:1" fill="#d6a1a0" d="M 91.5,74.5 C 91.1667,74.5 90.8333,74.5 90.5,74.5C 90.5,72.8333 90.5,71.1667 90.5,69.5C 84.8333,69.5 79.1667,69.5 73.5,69.5C 73.5,71.1667 73.5,72.8333 73.5,74.5C 72.5489,73.0813 72.2155,71.4147 72.5,69.5C 78.6446,68.5098 84.9779,68.1765 91.5,68.5C 91.5,70.5 91.5,72.5 91.5,74.5 Z"/></g>
<g><path style="opacity:1" fill="#a91a18" d="M 44.5,74.5 C 44.5,74.8333 44.5,75.1667 44.5,75.5C 47.3262,81.7701 46.4928,82.1034 42,76.5C 40.6784,79.6065 41.1784,82.6065 43.5,85.5C 44.1924,84.9747 44.6924,84.3081 45,83.5C 45.5655,86.6775 46.2321,89.6775 47,92.5C 46.3086,94.8912 45.3086,94.8912 44,92.5C 41.9571,94.4771 39.4571,95.4771 36.5,95.5C 36.3359,98.1873 36.5026,100.854 37,103.5C 37.3826,104.056 37.8826,104.389 38.5,104.5C 38.5,106.167 38.5,107.833 38.5,109.5C 38.0618,109.435 37.7284,109.601 37.5,110C 39.6095,111.725 41.6095,113.558 43.5,115.5C 43.4142,116.496 43.7476,117.329 44.5,118C 42.3333,119.833 40.1667,121.667 38,123.5C 37.2303,122.402 36.397,122.402 35.5,123.5C 35.8064,120.615 35.4731,117.948 34.5,115.5C 34.5,114.167 34.5,112.833 34.5,111.5C 35.4994,93.2766 36.6661,74.9432 38,56.5C 38.6667,55.8333 39.3333,55.1667 40,54.5C 40.3057,56.9063 41.139,59.073 42.5,61C 41.0506,63.2892 41.5506,65.1225 44,66.5C 45.7067,65.8617 47.54,65.8617 49.5,66.5C 49.5,67.8333 49.5,69.1667 49.5,70.5C 47.7376,70.3573 46.0709,70.6906 44.5,71.5C 43.2241,72.6136 43.2241,73.6136 44.5,74.5 Z"/></g>
<g><path style="opacity:1" fill="#f5ecec" d="M 72.5,69.5 C 72.2155,71.4147 72.5489,73.0813 73.5,74.5C 77.8333,74.5 82.1667,74.5 86.5,74.5C 87.1098,75.391 87.4431,76.391 87.5,77.5C 82.8333,77.5 78.1667,77.5 73.5,77.5C 73.7693,81.9315 73.436,86.2648 72.5,90.5C 70.8828,91.038 69.2161,91.3713 67.5,91.5C 66.7659,90.2921 66.4326,88.9587 66.5,87.5C 67.4137,84.272 67.7471,80.9387 67.5,77.5C 68.9538,76.4797 69.2871,75.313 68.5,74C 69.6988,72.3057 71.0322,70.8057 72.5,69.5 Z"/></g>
<g><path style="opacity:1" fill="#a9231c" d="M 94.5,53.5 C 97.5,53.5 100.5,53.5 103.5,53.5C 104.209,54.404 105.209,54.7373 106.5,54.5C 106.5,55.5 106.5,56.5 106.5,57.5C 106.189,58.4778 105.522,59.1445 104.5,59.5C 103.575,58.3595 102.741,58.3595 102,59.5C 101.163,61.3506 100.329,63.1839 99.5,65C 103.991,67.003 106.991,69.8363 108.5,73.5C 108.707,76.7454 107.207,78.7454 104,79.5C 100.333,78.7403 99.8333,77.2403 102.5,75C 98.9381,71.3371 97.6048,66.8371 98.5,61.5C 97.6837,58.8927 96.0171,56.8927 93.5,55.5C 93.8333,54.8333 94.1667,54.1667 94.5,53.5 Z"/></g>
<g><path style="opacity:1" fill="#a11e15" d="M 90.5,74.5 C 89.1667,74.5 87.8333,74.5 86.5,74.5C 82.1667,74.5 77.8333,74.5 73.5,74.5C 73.5,72.8333 73.5,71.1667 73.5,69.5C 79.1667,69.5 84.8333,69.5 90.5,69.5C 90.5,71.1667 90.5,72.8333 90.5,74.5 Z"/></g>
<g><path style="opacity:1" fill="#a01e19" d="M 97.5,61.5 C 97.8333,61.5 98.1667,61.5 98.5,61.5C 97.6048,66.8371 98.9381,71.3371 102.5,75C 99.8333,77.2403 100.333,78.7403 104,79.5C 107.207,78.7454 108.707,76.7454 108.5,73.5C 109.167,72.8333 109.833,72.1667 110.5,71.5C 110.5,80.1667 110.5,88.8333 110.5,97.5C 109.833,94.8333 109.167,92.1667 108.5,89.5C 107.25,89.4226 106.417,88.756 106,87.5C 105.667,88.1667 105.333,88.8333 105,89.5C 103.31,87.3967 101.476,85.3967 99.5,83.5C 98.8182,84.2427 98.1515,84.9094 97.5,85.5C 97.5,77.5 97.5,69.5 97.5,61.5 Z"/></g>
<g><path style="opacity:1" fill="#f1dedd" d="M 97.5,61.5 C 97.5,69.5 97.5,77.5 97.5,85.5C 97.6085,87.5138 96.9418,89.1805 95.5,90.5C 93.742,90.8769 92.0754,91.5435 90.5,92.5C 89.1476,91.4825 88.1476,90.1492 87.5,88.5C 86.3777,87.3698 85.0443,86.7031 83.5,86.5C 85.5,85.8333 87.5,85.1667 89.5,84.5C 91.3435,82.7211 92.0102,80.3878 91.5,77.5C 90.1667,77.5 88.8333,77.5 87.5,77.5C 87.4431,76.391 87.1098,75.391 86.5,74.5C 87.8333,74.5 89.1667,74.5 90.5,74.5C 90.8333,74.5 91.1667,74.5 91.5,74.5C 92.8846,73.4264 94.0513,72.0931 95,70.5C 95.3333,74.1667 95.6667,77.8333 96,81.5C 96.1717,74.654 96.6717,67.9874 97.5,61.5 Z"/></g>
<g><path style="opacity:1" fill="#e2b1a7" d="M 119.5,82.5 C 119.5,83.1667 119.5,83.8333 119.5,84.5C 117.164,85.4625 115.83,84.4625 115.5,81.5C 115.415,80.0047 116.081,79.0047 117.5,78.5C 118.172,79.9492 118.839,81.2825 119.5,82.5 Z"/></g>
<g><path style="opacity:1" fill="#f4e7e8" d="M 27.5,83.5 C 27.0338,92.4939 26.7004,101.494 26.5,110.5C 25.7337,112.684 25.0671,115.018 24.5,117.5C 23.6406,118.774 22.9739,118.608 22.5,117C 22.8038,106.431 22.8038,95.7639 22.5,85C 24.807,84.7287 25.9736,85.8953 26,88.5C 26.1981,86.6183 26.6981,84.9516 27.5,83.5 Z"/></g>
<g><path style="opacity:1" fill="#9f1a17" d="M 87.5,77.5 C 88.8333,77.5 90.1667,77.5 91.5,77.5C 92.0102,80.3878 91.3435,82.7211 89.5,84.5C 87.076,84.1924 84.7427,84.5258 82.5,85.5C 82.6236,86.1067 82.9569,86.44 83.5,86.5C 85.0443,86.7031 86.3777,87.3698 87.5,88.5C 88.1476,90.1492 89.1476,91.4825 90.5,92.5C 92.0754,91.5435 93.742,90.8769 95.5,90.5C 92.9948,93.8368 90.1615,94.1701 87,91.5C 86.6258,92.4162 86.1258,93.2496 85.5,94C 83.1218,94.5112 80.7885,95.1779 78.5,96C 79.8146,97.3946 79.4812,98.3946 77.5,99C 81.4215,99.4624 84.7548,100.962 87.5,103.5C 84.702,102.9 82.0354,101.9 79.5,100.5C 76.8564,111.775 72.8564,122.442 67.5,132.5C 67.19,131.262 66.69,131.262 66,132.5C 64.8658,137.797 64.0325,137.797 63.5,132.5C 64.4822,129.237 65.1489,125.903 65.5,122.5C 67.0672,121.319 67.9005,119.653 68,117.5C 68.6708,116.748 69.5041,116.414 70.5,116.5C 70.6395,118.337 71.3061,118.67 72.5,117.5C 73.9597,114.971 74.4597,112.304 74,109.5C 70.8667,107.691 68.0333,105.524 65.5,103C 67.1544,101.173 67.9877,99.3398 68,97.5C 68.414,97.9574 68.914,98.2907 69.5,98.5C 70.3449,96.2381 71.6783,95.5714 73.5,96.5C 74.7989,95.91 75.6322,94.91 76,93.5C 76.3333,93.8333 76.6667,94.1667 77,94.5C 77.5074,93.0039 77.0074,91.8373 75.5,91C 75.8333,90.6667 76.1667,90.3333 76.5,90C 75.0039,89.4926 73.8373,89.9926 73,91.5C 72.6012,91.2716 72.4346,90.9382 72.5,90.5C 73.436,86.2648 73.7693,81.9315 73.5,77.5C 78.1667,77.5 82.8333,77.5 87.5,77.5 Z"/></g>
<g><path style="opacity:1" fill="#ca7773" d="M 89.5,84.5 C 87.5,85.1667 85.5,85.8333 83.5,86.5C 82.9569,86.44 82.6236,86.1067 82.5,85.5C 84.7427,84.5258 87.076,84.1924 89.5,84.5 Z"/></g>
<g><path style="opacity:1" fill="#a3241c" d="M 31.5,63.5 C 32.3361,87.1564 32.6694,110.823 32.5,134.5C 32.5,134.833 32.5,135.167 32.5,135.5C 31.7784,135.918 31.2784,136.584 31,137.5C 30.7679,136.263 30.2679,135.263 29.5,134.5C 29.4512,130.922 28.7846,127.589 27.5,124.5C 26.8734,119.859 26.5401,115.193 26.5,110.5C 26.7004,101.494 27.0338,92.4939 27.5,83.5C 27.185,79.6286 27.5184,75.9619 28.5,72.5C 29.3745,69.4651 30.3745,66.4651 31.5,63.5 Z"/></g>
<g><path style="opacity:1" fill="#f4e7e7" d="M 61.5,45.5 C 59.4166,51.6644 58.0833,57.9977 57.5,64.5C 56.6618,64.8417 56.3284,65.5084 56.5,66.5C 55.6656,69.9282 54.6656,73.4282 53.5,77C 54.0395,80.031 54.7061,83.031 55.5,86C 53.9954,90.5031 51.4954,91.3365 48,88.5C 47.8922,84.8235 47.8922,81.1568 48,77.5C 47.1841,76.1772 46.0174,75.5106 44.5,75.5C 44.5,75.1667 44.5,74.8333 44.5,74.5C 47.6057,74.2116 49.6057,72.545 50.5,69.5C 54.4749,61.5104 58.1416,53.5104 61.5,45.5 Z"/></g>
<g><path style="opacity:1" fill="#9f1d1a" d="M 56.5,66.5 C 57.1239,66.9169 57.4573,67.5836 57.5,68.5C 54.8358,74.1732 54.8358,79.8399 57.5,85.5C 59.1639,86.2231 60.8306,85.8897 62.5,84.5C 63.2652,85.6119 64.2652,86.2786 65.5,86.5C 65.5,87.1667 65.8333,87.5 66.5,87.5C 66.4326,88.9587 66.7659,90.2921 67.5,91.5C 65.8008,91.3398 64.1341,91.5065 62.5,92C 58.868,95.4531 55.0347,97.9531 51,99.5C 50.6667,98.8333 50.3333,98.1667 50,97.5C 48.4861,100.334 46.8195,102.334 45,103.5C 44.586,103.043 44.086,102.709 43.5,102.5C 41.5738,103.675 39.9071,104.341 38.5,104.5C 37.8826,104.389 37.3826,104.056 37,103.5C 36.5026,100.854 36.3359,98.1873 36.5,95.5C 39.4571,95.4771 41.9571,94.4771 44,92.5C 45.3086,94.8912 46.3086,94.8912 47,92.5C 46.2321,89.6775 45.5655,86.6775 45,83.5C 44.6924,84.3081 44.1924,84.9747 43.5,85.5C 41.1784,82.6065 40.6784,79.6065 42,76.5C 46.4928,82.1034 47.3262,81.7701 44.5,75.5C 46.0174,75.5106 47.1841,76.1772 48,77.5C 47.8922,81.1568 47.8922,84.8235 48,88.5C 51.4954,91.3365 53.9954,90.5031 55.5,86C 54.7061,83.031 54.0395,80.031 53.5,77C 54.6656,73.4282 55.6656,69.9282 56.5,66.5 Z"/></g>
<g><path style="opacity:1" fill="#a81c19" d="M 70.5,116.5 C 71.8009,115.116 71.8009,113.616 70.5,112C 68.208,110.71 66.208,109.043 64.5,107C 62.8659,106.506 61.1992,106.34 59.5,106.5C 59.719,105.325 59.3857,104.325 58.5,103.5C 57.2054,104.098 55.8721,104.598 54.5,105C 57.1792,106.789 57.0125,107.955 54,108.5C 52.6739,108.245 51.6739,107.578 51,106.5C 50.6667,107.5 50.3333,108.5 50,109.5C 48.3333,108.167 46.6667,106.833 45,105.5C 43.984,106.634 43.3173,106.301 43,104.5C 42.6667,105.5 42.3333,106.5 42,107.5C 41.6667,107.167 41.3333,106.833 41,106.5C 40.7645,108.119 39.9311,109.119 38.5,109.5C 38.5,107.833 38.5,106.167 38.5,104.5C 39.9071,104.341 41.5738,103.675 43.5,102.5C 44.086,102.709 44.586,103.043 45,103.5C 46.8195,102.334 48.4861,100.334 50,97.5C 50.3333,98.1667 50.6667,98.8333 51,99.5C 55.0347,97.9531 58.868,95.4531 62.5,92C 64.1341,91.5065 65.8008,91.3398 67.5,91.5C 69.2161,91.3713 70.8828,91.038 72.5,90.5C 72.4346,90.9382 72.6012,91.2716 73,91.5C 73.8373,89.9926 75.0039,89.4926 76.5,90C 76.1667,90.3333 75.8333,90.6667 75.5,91C 77.0074,91.8373 77.5074,93.0039 77,94.5C 76.6667,94.1667 76.3333,93.8333 76,93.5C 75.6322,94.91 74.7989,95.91 73.5,96.5C 71.6783,95.5714 70.3449,96.2381 69.5,98.5C 68.914,98.2907 68.414,97.9574 68,97.5C 67.9877,99.3398 67.1544,101.173 65.5,103C 68.0333,105.524 70.8667,107.691 74,109.5C 74.4597,112.304 73.9597,114.971 72.5,117.5C 71.3061,118.67 70.6395,118.337 70.5,116.5 Z"/></g>
<g><path style="opacity:1" fill="#aa1e19" d="M 108.5,89.5 C 108.808,91.924 108.474,94.2573 107.5,96.5C 105.398,96.4793 103.232,96.8126 101,97.5C 100.667,96.8333 100.333,96.1667 100,95.5C 99.5348,96.9308 98.7014,98.0975 97.5,99C 97.8333,99.3333 98.1667,99.6667 98.5,100C 96.8866,100.089 95.7199,99.2552 95,97.5C 94.5,98 94,98.5 93.5,99C 94.731,100.183 94.731,101.349 93.5,102.5C 91.5699,104.174 89.5699,104.507 87.5,103.5C 84.7548,100.962 81.4215,99.4624 77.5,99C 79.4812,98.3946 79.8146,97.3946 78.5,96C 80.7885,95.1779 83.1218,94.5112 85.5,94C 86.1258,93.2496 86.6258,92.4162 87,91.5C 90.1615,94.1701 92.9948,93.8368 95.5,90.5C 96.9418,89.1805 97.6085,87.5138 97.5,85.5C 98.1515,84.9094 98.8182,84.2427 99.5,83.5C 101.476,85.3967 103.31,87.3967 105,89.5C 105.333,88.8333 105.667,88.1667 106,87.5C 106.417,88.756 107.25,89.4226 108.5,89.5 Z"/></g>
<g><path style="opacity:1" fill="#9d1b18" d="M 108.5,89.5 C 109.167,92.1667 109.833,94.8333 110.5,97.5C 110.713,104.211 110.38,110.877 109.5,117.5C 108.761,117.369 108.094,117.536 107.5,118C 108.337,119.011 108.67,120.178 108.5,121.5C 107.167,121.5 105.833,121.5 104.5,121.5C 105.984,120.527 106.484,119.193 106,117.5C 103.743,115.954 101.576,114.288 99.5,112.5C 98.354,113.145 97.354,113.978 96.5,115C 91.467,115.829 86.467,115.662 81.5,114.5C 83.1473,110.479 85.1473,106.812 87.5,103.5C 89.5699,104.507 91.5699,104.174 93.5,102.5C 94.731,101.349 94.731,100.183 93.5,99C 94,98.5 94.5,98 95,97.5C 95.7199,99.2552 96.8866,100.089 98.5,100C 98.1667,99.6667 97.8333,99.3333 97.5,99C 98.7014,98.0975 99.5348,96.9308 100,95.5C 100.333,96.1667 100.667,96.8333 101,97.5C 103.232,96.8126 105.398,96.4793 107.5,96.5C 108.474,94.2573 108.808,91.924 108.5,89.5 Z"/></g>
<g><path style="opacity:1" fill="#aa3127" d="M 118.5,57.5 C 118.263,58.791 118.596,59.791 119.5,60.5C 119.5,67.8333 119.5,75.1667 119.5,82.5C 118.839,81.2825 118.172,79.9492 117.5,78.5C 116.081,79.0047 115.415,80.0047 115.5,81.5C 114.53,84.1197 113.864,87.2864 113.5,91C 114.167,96.1777 115,101.344 116,106.5C 116.495,104.527 116.662,102.527 116.5,100.5C 117.167,101.167 117.833,101.833 118.5,102.5C 118.5,104.833 118.5,107.167 118.5,109.5C 117.178,109.33 116.011,109.663 115,110.5C 114.667,109.167 114.333,107.833 114,106.5C 113.826,111.684 113.326,116.684 112.5,121.5C 112.5,119.5 112.5,117.5 112.5,115.5C 112.5,109.5 112.5,103.5 112.5,97.5C 112.592,84.0755 113.592,70.7422 115.5,57.5C 116.5,57.5 117.5,57.5 118.5,57.5 Z"/></g>
<g><path style="opacity:1" fill="#a1211c" d="M 70.5,116.5 C 70.6495,115.448 70.4828,114.448 70,113.5C 67.9896,112.152 65.9896,110.818 64,109.5C 62.8315,110.009 61.9981,110.842 61.5,112C 57.176,112.582 52.8427,113.082 48.5,113.5C 46.3603,113.556 44.6936,114.223 43.5,115.5C 41.6095,113.558 39.6095,111.725 37.5,110C 37.7284,109.601 38.0618,109.435 38.5,109.5C 39.9311,109.119 40.7645,108.119 41,106.5C 41.3333,106.833 41.6667,107.167 42,107.5C 42.3333,106.5 42.6667,105.5 43,104.5C 43.3173,106.301 43.984,106.634 45,105.5C 46.6667,106.833 48.3333,108.167 50,109.5C 50.3333,108.5 50.6667,107.5 51,106.5C 51.6739,107.578 52.6739,108.245 54,108.5C 57.0125,107.955 57.1792,106.789 54.5,105C 55.8721,104.598 57.2054,104.098 58.5,103.5C 59.3857,104.325 59.719,105.325 59.5,106.5C 61.1992,106.34 62.8659,106.506 64.5,107C 66.208,109.043 68.208,110.71 70.5,112C 71.8009,113.616 71.8009,115.116 70.5,116.5 Z"/></g>
<g><path style="opacity:1" fill="#f3e5e5" d="M 70.5,116.5 C 69.5041,116.414 68.6708,116.748 68,117.5C 67.9005,119.653 67.0672,121.319 65.5,122.5C 63.1417,122.253 61.1417,122.919 59.5,124.5C 60.3234,121.539 60.99,118.539 61.5,115.5C 55.4482,116.687 49.4482,116.687 43.5,115.5C 44.6936,114.223 46.3603,113.556 48.5,113.5C 52.8427,113.082 57.176,112.582 61.5,112C 61.9981,110.842 62.8315,110.009 64,109.5C 65.9896,110.818 67.9896,112.152 70,113.5C 70.4828,114.448 70.6495,115.448 70.5,116.5 Z"/></g>
<g><path style="opacity:1" fill="#f3e4e2" d="M 110.5,97.5 C 111.167,97.5 111.833,97.5 112.5,97.5C 112.5,103.5 112.5,109.5 112.5,115.5C 111.517,119.298 111.183,123.298 111.5,127.5C 110.509,138.073 107.842,147.74 103.5,156.5C 103.5,155.833 103.167,155.5 102.5,155.5C 105.123,147.673 107.123,139.673 108.5,131.5C 109.383,126.897 109.717,122.23 109.5,117.5C 110.38,110.877 110.713,104.211 110.5,97.5 Z"/></g>
<g><path style="opacity:1" fill="#f3e3e3" d="M 87.5,103.5 C 85.1473,106.812 83.1473,110.479 81.5,114.5C 86.467,115.662 91.467,115.829 96.5,115C 97.354,113.978 98.354,113.145 99.5,112.5C 101.576,114.288 103.743,115.954 106,117.5C 106.484,119.193 105.984,120.527 104.5,121.5C 100.581,124.075 96.9145,127.075 93.5,130.5C 93.6043,127.16 94.6043,123.827 96.5,120.5C 90.8625,119.337 85.1959,119.17 79.5,120C 76.4403,125.282 72.7737,130.116 68.5,134.5C 67.7025,134.043 67.3691,133.376 67.5,132.5C 72.8564,122.442 76.8564,111.775 79.5,100.5C 82.0354,101.9 84.702,102.9 87.5,103.5 Z"/></g>
<g><path style="opacity:1" fill="#a51816" d="M 43.5,115.5 C 49.4482,116.687 55.4482,116.687 61.5,115.5C 60.99,118.539 60.3234,121.539 59.5,124.5C 59.1433,126.589 58.4767,128.589 57.5,130.5C 54.646,127.812 51.646,125.312 48.5,123C 47.2506,122.26 46.2506,122.427 45.5,123.5C 46.9818,127.174 49.1485,130.507 52,133.5C 52.624,135.464 52.124,137.131 50.5,138.5C 47.2601,138.396 44.2601,137.062 41.5,134.5C 40.914,134.709 40.414,135.043 40,135.5C 38.3743,134.045 37.2076,132.378 36.5,130.5C 36.702,128.05 36.3686,125.717 35.5,123.5C 36.397,122.402 37.2303,122.402 38,123.5C 40.1667,121.667 42.3333,119.833 44.5,118C 43.7476,117.329 43.4142,116.496 43.5,115.5 Z"/></g>
<g><path style="opacity:1" fill="#e8cdcb" d="M 31.5,63.5 C 31.8333,63.5 32.1667,63.5 32.5,63.5C 32.281,64.675 32.6143,65.675 33.5,66.5C 34.1067,66.3764 34.44,66.0431 34.5,65.5C 34.8333,65.5 35.1667,65.5 35.5,65.5C 34.5314,80.7854 34.1981,96.1187 34.5,111.5C 34.5,112.833 34.5,114.167 34.5,115.5C 34.5,120.5 34.5,125.5 34.5,130.5C 33.8333,131.833 33.1667,133.167 32.5,134.5C 32.6694,110.823 32.3361,87.1564 31.5,63.5 Z"/></g>
<g><path style="opacity:1" fill="#9c1d16" d="M 115.5,81.5 C 115.83,84.4625 117.164,85.4625 119.5,84.5C 119.5,102.833 119.5,121.167 119.5,139.5C 117.744,140.552 117.077,142.219 117.5,144.5C 117.461,147.535 116.461,150.202 114.5,152.5C 113.527,150.052 113.194,147.385 113.5,144.5C 113.5,144.167 113.5,143.833 113.5,143.5C 115.919,132.523 117.252,121.523 117.5,110.5C 116.914,110.709 116.414,111.043 116,111.5C 115.886,116.324 115.053,120.99 113.5,125.5C 112.571,124.311 112.238,122.978 112.5,121.5C 113.326,116.684 113.826,111.684 114,106.5C 114.333,107.833 114.667,109.167 115,110.5C 116.011,109.663 117.178,109.33 118.5,109.5C 118.5,107.167 118.5,104.833 118.5,102.5C 118.808,100.076 118.474,97.7427 117.5,95.5C 116.548,97.0453 116.215,98.712 116.5,100.5C 116.662,102.527 116.495,104.527 116,106.5C 115,101.344 114.167,96.1777 113.5,91C 113.864,87.2864 114.53,84.1197 115.5,81.5 Z"/></g>
<g><path style="opacity:1" fill="#e5c1bc" d="M 118.5,102.5 C 117.833,101.833 117.167,101.167 116.5,100.5C 116.215,98.712 116.548,97.0453 117.5,95.5C 118.474,97.7427 118.808,100.076 118.5,102.5 Z"/></g>
<g><path style="opacity:1" fill="#ad1e19" d="M 109.5,117.5 C 109.717,122.23 109.383,126.897 108.5,131.5C 107.504,131.586 106.671,131.252 106,130.5C 105.517,131.448 105.351,132.448 105.5,133.5C 103.669,134.052 102.003,134.052 100.5,133.5C 100.158,136.145 98.8247,138.645 96.5,141C 93.3411,142.084 91.0078,141.25 89.5,138.5C 88.5489,137.081 88.2155,135.415 88.5,133.5C 88.1636,129.833 88.997,126.5 91,123.5C 91.8699,124.108 92.3699,124.941 92.5,126C 91.7665,127.766 91.4332,129.599 91.5,131.5C 96.9137,129.775 101.247,126.441 104.5,121.5C 105.833,121.5 107.167,121.5 108.5,121.5C 108.67,120.178 108.337,119.011 107.5,118C 108.094,117.536 108.761,117.369 109.5,117.5 Z"/></g>
<g><path style="opacity:1" fill="#e5c1bd" d="M 113.5,143.5 C 112.833,143.167 112.167,142.833 111.5,142.5C 112.911,139.525 113.577,136.358 113.5,133C 113.453,130.705 112.787,128.871 111.5,127.5C 111.183,123.298 111.517,119.298 112.5,115.5C 112.5,117.5 112.5,119.5 112.5,121.5C 112.238,122.978 112.571,124.311 113.5,125.5C 115.053,120.99 115.886,116.324 116,111.5C 116.414,111.043 116.914,110.709 117.5,110.5C 117.252,121.523 115.919,132.523 113.5,143.5 Z"/></g>
<g><path style="opacity:1" fill="#d29d9b" d="M 27.5,124.5 C 28.7846,127.589 29.4512,130.922 29.5,134.5C 27.9886,131.456 27.322,128.122 27.5,124.5 Z"/></g>
<g><path style="opacity:1" fill="#f6ebeb" d="M 45.5,123.5 C 46.2506,122.427 47.2506,122.26 48.5,123C 51.646,125.312 54.646,127.812 57.5,130.5C 58.4767,128.589 59.1433,126.589 59.5,124.5C 61.1417,122.919 63.1417,122.253 65.5,122.5C 65.1489,125.903 64.4822,129.237 63.5,132.5C 62.6091,133.261 61.9424,134.261 61.5,135.5C 63.8848,138.212 66.2181,140.878 68.5,143.5C 69.7143,146.204 69.7143,148.871 68.5,151.5C 67.1805,152.942 65.5138,153.608 63.5,153.5C 62.5682,149.706 61.2349,146.039 59.5,142.5C 55.931,148.408 51.5976,153.741 46.5,158.5C 44.5,159.167 42.5,159.833 40.5,160.5C 40.5,160.167 40.5,159.833 40.5,159.5C 45.9718,154.578 49.9718,148.578 52.5,141.5C 54.5286,139.979 55.3619,137.979 55,135.5C 52.0546,131.249 48.888,127.249 45.5,123.5 Z"/></g>
<g><path style="opacity:1" fill="#f9f3f2" d="M 25.5,133.5 C 27.4646,133.948 27.7979,134.948 26.5,136.5C 25.6143,135.675 25.281,134.675 25.5,133.5 Z"/></g>
<g><path style="opacity:1" fill="#f4e3e3" d="M 88.5,133.5 C 88.2155,135.415 88.5489,137.081 89.5,138.5C 89.9143,141.743 90.9143,144.743 92.5,147.5C 90.9731,147.427 89.9731,148.094 89.5,149.5C 87.6625,145.467 86.4959,141.133 86,136.5C 85.79,138.058 85.29,139.391 84.5,140.5C 84.5,138.833 84.5,137.167 84.5,135.5C 83.1667,135.5 81.8333,135.5 80.5,135.5C 80.5,131.833 80.5,128.167 80.5,124.5C 80.4701,123.503 80.9701,122.836 82,122.5C 84.077,123.017 86.077,123.684 88,124.5C 87.4212,126.342 86.9212,128.342 86.5,130.5C 86.6399,132.03 87.3065,133.03 88.5,133.5 Z"/></g>
<g><path style="opacity:1" fill="#9f1c19" d="M 108.5,131.5 C 107.123,139.673 105.123,147.673 102.5,155.5C 98.3018,153.974 94.9685,151.307 92.5,147.5C 90.9143,144.743 89.9143,141.743 89.5,138.5C 91.0078,141.25 93.3411,142.084 96.5,141C 98.8247,138.645 100.158,136.145 100.5,133.5C 102.003,134.052 103.669,134.052 105.5,133.5C 105.351,132.448 105.517,131.448 106,130.5C 106.671,131.252 107.504,131.586 108.5,131.5 Z"/></g>
<g><path style="opacity:1" fill="#961914" d="M 104.5,121.5 C 101.247,126.441 96.9137,129.775 91.5,131.5C 91.4332,129.599 91.7665,127.766 92.5,126C 92.3699,124.941 91.8699,124.108 91,123.5C 88.997,126.5 88.1636,129.833 88.5,133.5C 87.3065,133.03 86.6399,132.03 86.5,130.5C 86.9212,128.342 87.4212,126.342 88,124.5C 86.077,123.684 84.077,123.017 82,122.5C 80.9701,122.836 80.4701,123.503 80.5,124.5C 79.8826,124.389 79.3826,124.056 79,123.5C 75.775,129.282 71.6083,134.282 66.5,138.5C 67.4565,140.075 68.1231,141.742 68.5,143.5C 66.2181,140.878 63.8848,138.212 61.5,135.5C 61.9424,134.261 62.6091,133.261 63.5,132.5C 64.0325,137.797 64.8658,137.797 66,132.5C 66.69,131.262 67.19,131.262 67.5,132.5C 67.3691,133.376 67.7025,134.043 68.5,134.5C 72.7737,130.116 76.4403,125.282 79.5,120C 85.1959,119.17 90.8625,119.337 96.5,120.5C 94.6043,123.827 93.6043,127.16 93.5,130.5C 96.9145,127.075 100.581,124.075 104.5,121.5 Z"/></g>
<g><path style="opacity:1" fill="#aa201b" d="M 80.5,124.5 C 80.5,128.167 80.5,131.833 80.5,135.5C 79.7453,139.764 78.4119,143.764 76.5,147.5C 76.631,146.761 76.4643,146.094 76,145.5C 74.3922,148.772 72.3922,151.772 70,154.5C 68.9614,153.756 68.4614,152.756 68.5,151.5C 69.7143,148.871 69.7143,146.204 68.5,143.5C 68.1231,141.742 67.4565,140.075 66.5,138.5C 71.6083,134.282 75.775,129.282 79,123.5C 79.3826,124.056 79.8826,124.389 80.5,124.5 Z"/></g>
<g><path style="opacity:1" fill="#a63026" d="M 111.5,127.5 C 112.787,128.871 113.453,130.705 113.5,133C 113.577,136.358 112.911,139.525 111.5,142.5C 111.058,146.154 110.724,149.821 110.5,153.5C 110.296,156.518 109.963,159.518 109.5,162.5C 107.527,165.139 105.194,167.473 102.5,169.5C 101.5,169.5 100.5,169.5 99.5,169.5C 99.5,170.5 99.5,171.5 99.5,172.5C 98.8333,173.167 98.1667,173.833 97.5,174.5C 96.3951,175.6 95.0618,176.267 93.5,176.5C 92.5084,176.328 91.8417,176.662 91.5,177.5C 88.9107,179.157 86.2441,179.491 83.5,178.5C 82.0484,177.698 80.3817,177.198 78.5,177C 79.4158,176.722 80.0825,176.222 80.5,175.5C 89.3049,172.953 96.9715,168.453 103.5,162C 104.938,161.781 106.271,161.281 107.5,160.5C 106.133,159.16 104.8,157.827 103.5,156.5C 107.842,147.74 110.509,138.073 111.5,127.5 Z"/></g>
<g><path style="opacity:1" fill="#a31b18" d="M 45.5,123.5 C 48.888,127.249 52.0546,131.249 55,135.5C 55.3619,137.979 54.5286,139.979 52.5,141.5C 51.6281,141.937 50.4614,141.937 49,141.5C 48.6924,142.308 48.1924,142.975 47.5,143.5C 46.2322,142.572 44.8989,142.405 43.5,143C 45.7092,143.957 45.5425,145.124 43,146.5C 42.3964,144.314 41.2297,144.148 39.5,146C 40.4506,146.718 40.6172,147.551 40,148.5C 38.2494,146.51 37.2494,144.177 37,141.5C 36.5014,137.848 36.3347,134.182 36.5,130.5C 37.2076,132.378 38.3743,134.045 40,135.5C 40.414,135.043 40.914,134.709 41.5,134.5C 44.2601,137.062 47.2601,138.396 50.5,138.5C 52.124,137.131 52.624,135.464 52,133.5C 49.1485,130.507 46.9818,127.174 45.5,123.5 Z"/></g>
<g><path style="opacity:1" fill="#dfafaf" d="M 29.5,134.5 C 30.2679,135.263 30.7679,136.263 31,137.5C 31.2784,136.584 31.7784,135.918 32.5,135.5C 32.8186,137.75 32.3186,139.75 31,141.5C 30.5503,139.481 29.717,137.648 28.5,136C 29.056,135.617 29.3893,135.117 29.5,134.5 Z"/></g>
<g><path style="opacity:1" fill="#d28075" d="M 119.5,139.5 C 119.5,140.5 119.5,141.5 119.5,142.5C 118.662,142.842 118.328,143.508 118.5,144.5C 118.167,144.5 117.833,144.5 117.5,144.5C 117.077,142.219 117.744,140.552 119.5,139.5 Z"/></g>
<g><path style="opacity:1" fill="#efd2d1" d="M 34.5,137.5 C 35.1599,139.816 35.8266,142.149 36.5,144.5C 35.2455,146.334 34.5789,148.334 34.5,150.5C 34.02,147.834 33.02,145.334 31.5,143C 32.8688,141.281 33.8688,139.448 34.5,137.5 Z"/></g>
<g><path style="opacity:1" fill="#f9f3f2" d="M 118.5,144.5 C 118.833,144.5 119.167,144.5 119.5,144.5C 119.5,145.833 119.5,147.167 119.5,148.5C 118.566,147.432 118.232,146.099 118.5,144.5 Z"/></g>
<g><path style="opacity:1" fill="#9d251d" d="M 34.5,115.5 C 35.4731,117.948 35.8064,120.615 35.5,123.5C 36.3686,125.717 36.702,128.05 36.5,130.5C 36.3347,134.182 36.5014,137.848 37,141.5C 37.2494,144.177 38.2494,146.51 40,148.5C 40.6172,147.551 40.4506,146.718 39.5,146C 41.2297,144.148 42.3964,144.314 43,146.5C 45.5425,145.124 45.7092,143.957 43.5,143C 44.8989,142.405 46.2322,142.572 47.5,143.5C 48.1924,142.975 48.6924,142.308 49,141.5C 50.4614,141.937 51.6281,141.937 52.5,141.5C 49.9718,148.578 45.9718,154.578 40.5,159.5C 41.0317,156.784 40.365,154.117 38.5,151.5C 38.5017,153.537 38.1684,155.537 37.5,157.5C 35.1663,155.824 34.1663,153.491 34.5,150.5C 34.5789,148.334 35.2455,146.334 36.5,144.5C 35.8266,142.149 35.1599,139.816 34.5,137.5C 34.5,135.167 34.5,132.833 34.5,130.5C 34.5,125.5 34.5,120.5 34.5,115.5 Z"/></g>
<g><path style="opacity:1" fill="#f6ebea" d="M 80.5,135.5 C 81.8333,135.5 83.1667,135.5 84.5,135.5C 84.5,137.167 84.5,138.833 84.5,140.5C 80.6051,154.062 71.9385,163.062 58.5,167.5C 58.5,167.167 58.5,166.833 58.5,166.5C 66.5477,162.119 72.5477,155.785 76.5,147.5C 78.4119,143.764 79.7453,139.764 80.5,135.5 Z"/></g>
<g><path style="opacity:1" fill="#e3bdb9" d="M 113.5,144.5 C 113.194,147.385 113.527,150.052 114.5,152.5C 114.44,153.043 114.107,153.376 113.5,153.5C 112.197,150.355 112.197,147.355 113.5,144.5 Z"/></g>
<g><path style="opacity:1" fill="#f9f3f2" d="M 32.5,153.5 C 33.7733,154.077 33.7733,154.743 32.5,155.5C 31.537,155.03 31.537,154.363 32.5,153.5 Z"/></g>
<g><path style="opacity:1" fill="#9d1d1b" d="M 89.5,149.5 C 90.2759,153.052 91.6092,156.386 93.5,159.5C 92.8826,159.611 92.3826,159.944 92,160.5C 90.5328,153.629 87.8661,152.962 84,158.5C 80.4853,154.405 77.6519,154.739 75.5,159.5C 79.3025,162.291 79.8025,165.291 77,168.5C 76.3333,167.833 75.6667,167.167 75,166.5C 73.3264,167.065 71.4931,167.232 69.5,167C 69.0137,169.027 69.0137,171.193 69.5,173.5C 72.0593,173.198 74.3926,173.532 76.5,174.5C 74.7354,175.461 72.7354,175.795 70.5,175.5C 67.799,174.751 65.1323,173.751 62.5,172.5C 64.3124,169.19 66.9791,166.69 70.5,165C 66.794,165.346 63.294,166.513 60,168.5C 59.2352,168.43 58.7352,168.097 58.5,167.5C 71.9385,163.062 80.6051,154.062 84.5,140.5C 85.29,139.391 85.79,138.058 86,136.5C 86.4959,141.133 87.6625,145.467 89.5,149.5 Z"/></g>
<g><path style="opacity:1" fill="#f6eceb" d="M 92.5,147.5 C 94.9685,151.307 98.3018,153.974 102.5,155.5C 103.167,155.5 103.5,155.833 103.5,156.5C 104.8,157.827 106.133,159.16 107.5,160.5C 106.271,161.281 104.938,161.781 103.5,162C 96.9715,168.453 89.3049,172.953 80.5,175.5C 80.5,174.833 80.1667,174.5 79.5,174.5C 86.0183,172.238 92.0183,168.904 97.5,164.5C 96.1431,162.814 94.8098,161.148 93.5,159.5C 91.6092,156.386 90.2759,153.052 89.5,149.5C 89.9731,148.094 90.9731,147.427 92.5,147.5 Z"/></g>
<g><path style="opacity:1" fill="#a81a18" d="M 58.5,166.5 C 58.5,166.833 58.5,167.167 58.5,167.5C 58.7352,168.097 59.2352,168.43 60,168.5C 63.294,166.513 66.794,165.346 70.5,165C 66.9791,166.69 64.3124,169.19 62.5,172.5C 56.6001,170.769 51.6001,167.603 47.5,163C 45.9343,162.235 44.6009,162.402 43.5,163.5C 41.732,164.507 40.3987,163.841 39.5,161.5C 39.6236,160.893 39.9569,160.56 40.5,160.5C 42.5,159.833 44.5,159.167 46.5,158.5C 51.4365,155.399 55.6031,151.399 59,146.5C 60.0916,149.028 61.2583,151.528 62.5,154C 59.9634,156.745 57.2967,159.245 54.5,161.5C 55.8872,163.21 57.2206,164.877 58.5,166.5 Z"/></g>
<g><path style="opacity:1" fill="#f4e7e9" d="M 110.5,153.5 C 111.708,154.234 113.041,154.567 114.5,154.5C 114.509,156.308 114.009,157.975 113,159.5C 112.333,160.833 111.667,160.833 111,159.5C 110.768,160.737 110.268,161.737 109.5,162.5C 109.963,159.518 110.296,156.518 110.5,153.5 Z"/></g>
<g><path style="opacity:1" fill="#c57166" d="M 40.5,159.5 C 40.5,159.833 40.5,160.167 40.5,160.5C 39.9569,160.56 39.6236,160.893 39.5,161.5C 40.3987,163.841 41.732,164.507 43.5,163.5C 44.5,163.833 45.1667,164.5 45.5,165.5C 44.596,166.209 44.2627,167.209 44.5,168.5C 43.596,167.791 43.2627,166.791 43.5,165.5C 40.2556,165.251 38.2556,163.584 37.5,160.5C 37.5,159.5 37.5,158.5 37.5,157.5C 38.1684,155.537 38.5017,153.537 38.5,151.5C 40.365,154.117 41.0317,156.784 40.5,159.5 Z"/></g>
<g><path style="opacity:1" fill="#a51c18" d="M 93.5,159.5 C 94.8098,161.148 96.1431,162.814 97.5,164.5C 92.0183,168.904 86.0183,172.238 79.5,174.5C 78.5,174.5 77.5,174.5 76.5,174.5C 74.3926,173.532 72.0593,173.198 69.5,173.5C 69.0137,171.193 69.0137,169.027 69.5,167C 71.4931,167.232 73.3264,167.065 75,166.5C 75.6667,167.167 76.3333,167.833 77,168.5C 79.8025,165.291 79.3025,162.291 75.5,159.5C 77.6519,154.739 80.4853,154.405 84,158.5C 87.8661,152.962 90.5328,153.629 92,160.5C 92.3826,159.944 92.8826,159.611 93.5,159.5 Z"/></g>
<g><path style="opacity:1" fill="#f9f3f2" d="M 37.5,160.5 C 37.3036,162.646 36.3036,162.812 34.5,161C 35.1258,160.25 35.6258,159.416 36,158.5C 36.2784,159.416 36.7784,160.082 37.5,160.5 Z"/></g>
<g><path style="opacity:1" fill="#9d1e18" d="M 68.5,151.5 C 68.4614,152.756 68.9614,153.756 70,154.5C 72.3922,151.772 74.3922,148.772 76,145.5C 76.4643,146.094 76.631,146.761 76.5,147.5C 72.5477,155.785 66.5477,162.119 58.5,166.5C 57.2206,164.877 55.8872,163.21 54.5,161.5C 57.2967,159.245 59.9634,156.745 62.5,154C 61.2583,151.528 60.0916,149.028 59,146.5C 55.6031,151.399 51.4365,155.399 46.5,158.5C 51.5976,153.741 55.931,148.408 59.5,142.5C 61.2349,146.039 62.5682,149.706 63.5,153.5C 65.5138,153.608 67.1805,152.942 68.5,151.5 Z"/></g>
<g><path style="opacity:1" fill="#f8f1f1" d="M 40.5,166.5 C 42.2252,166.843 42.7252,167.843 42,169.5C 40.9614,168.756 40.4614,167.756 40.5,166.5 Z"/></g>
<g><path style="opacity:1" fill="#f2dbd9" d="M 43.5,163.5 C 44.6009,162.402 45.9343,162.235 47.5,163C 51.6001,167.603 56.6001,170.769 62.5,172.5C 65.1323,173.751 67.799,174.751 70.5,175.5C 69.5,176.167 68.5,176.833 67.5,177.5C 59.9777,174.009 52.6444,170.009 45.5,165.5C 45.1667,164.5 44.5,163.833 43.5,163.5 Z"/></g>
<g><path style="opacity:1" fill="#e8d3d9" d="M 102.5,169.5 C 101.5,170.5 100.5,171.5 99.5,172.5C 99.5,171.5 99.5,170.5 99.5,169.5C 100.5,169.5 101.5,169.5 102.5,169.5 Z"/></g>
<g><path style="opacity:1" fill="#f9f3f2" d="M 101.5,171.5 C 102.833,172.167 102.833,172.167 101.5,171.5 Z"/></g>
<g><path style="opacity:1" fill="#d19b9a" d="M 48.5,172.5 C 50.0269,172.427 51.0269,173.094 51.5,174.5C 50.8333,174.5 50.1667,174.5 49.5,174.5C 49.1667,173.833 48.8333,173.167 48.5,172.5 Z"/></g>
<g><path style="opacity:1" fill="#9c291e" d="M 45.5,165.5 C 52.6444,170.009 59.9777,174.009 67.5,177.5C 66.376,178.809 64.876,179.475 63,179.5C 60.9135,178.582 58.7468,177.915 56.5,177.5C 55.8166,175.824 54.4832,175.157 52.5,175.5C 51.8333,175.5 51.5,175.167 51.5,174.5C 51.0269,173.094 50.0269,172.427 48.5,172.5C 46.8333,171.5 45.5,170.167 44.5,168.5C 44.2627,167.209 44.596,166.209 45.5,165.5 Z"/></g>
<g><path style="opacity:1" fill="#f9f3f2" d="M 49.5,174.5 C 49.1034,175.525 48.4368,175.692 47.5,175C 48.0944,174.536 48.7611,174.369 49.5,174.5 Z"/></g>
<g><path style="opacity:1" fill="#f9f3f2" d="M 97.5,174.5 C 98.2389,174.369 98.9056,174.536 99.5,175C 98.5632,175.692 97.8966,175.525 97.5,174.5 Z"/></g>
<g><path style="opacity:1" fill="#f2e7e6" d="M 70.5,176.5 C 71.8333,177.167 71.8333,177.167 70.5,176.5 Z"/></g>
<g><path style="opacity:1" fill="#f3e8e8" d="M 91.5,177.5 C 91.8417,176.662 92.5084,176.328 93.5,176.5C 93.5912,178.698 92.9245,179.031 91.5,177.5 Z"/></g>
<g><path style="opacity:1" fill="#f0d7d6" d="M 52.5,175.5 C 54.4832,175.157 55.8166,175.824 56.5,177.5C 57.9687,179.105 57.6354,179.605 55.5,179C 54.1667,178.333 54.1667,177.667 55.5,177C 54.2625,176.768 53.2625,176.268 52.5,175.5 Z"/></g>
<g><path style="opacity:1" fill="#cd796f" d="M 80.5,175.5 C 80.0825,176.222 79.4158,176.722 78.5,177C 80.3817,177.198 82.0484,177.698 83.5,178.5C 80.5569,178.647 77.7236,179.313 75,180.5C 73.6988,179.902 72.8655,178.902 72.5,177.5C 75.0795,176.451 77.7462,175.784 80.5,175.5 Z"/></g>
<g><path style="opacity:1" fill="#f9f3f2" d="M 61.5,181.5 C 62.2506,180.427 63.2506,180.26 64.5,181C 63.552,181.483 62.552,181.649 61.5,181.5 Z"/></g>
<g><path style="opacity:1" fill="#f9f3f2" d="M 85.5,181.5 C 85.8966,180.475 86.5632,180.308 87.5,181C 86.9056,181.464 86.2389,181.631 85.5,181.5 Z"/></g>
</svg>
