<?xml version="1.0" encoding="UTF-8"?>
<!DOCTYPE svg PUBLIC "-//W3C//DTD SVG 1.1//EN" "http://www.w3.org/Graphics/SVG/1.1/DTD/svg11.dtd">
<svg xmlns="http://www.w3.org/2000/svg" version="1.1" width="195px" height="230px" style="shape-rendering:geometricPrecision; text-rendering:geometricPrecision; image-rendering:optimizeQuality; fill-rule:evenodd; clip-rule:evenodd" xmlns:xlink="http://www.w3.org/1999/xlink">
<g><path style="opacity:1" fill="#ded6d0" d="M 103.5,43.5 C 102.478,45.5439 101.478,47.5439 100.5,49.5C 91.4931,26.8326 74.8265,15.9993 50.5,17C 28.5546,20.9453 15.0546,33.7786 10,55.5C 7.63928,69.7146 10.4726,82.7146 18.5,94.5C 17.8106,95.7736 16.9772,95.7736 16,94.5C 15.5439,95.7441 16.0439,96.5774 17.5,97C 16.9558,97.7172 16.2891,98.2172 15.5,98.5C -0.205236,76.064 -0.371902,53.3973 15,30.5C 35.7186,7.6378 59.2186,4.1378 85.5,20C 93.5939,26.2567 99.5939,34.09 103.5,43.5 Z"/></g>
<g><path style="opacity:1" fill="#f8f8f7" d="M 100.5,49.5 C 104.405,63.1068 102.738,75.9401 95.5,88C 97.4727,88.4955 99.4727,88.6621 101.5,88.5C 101.5,89.1667 101.5,89.8333 101.5,90.5C 95.7088,89.4888 90.8755,91.1555 87,95.5C 86.7216,94.5842 86.2216,93.9175 85.5,93.5C 84.6976,90.4262 83.6976,87.4262 82.5,84.5C 86.2859,77.8748 88.6192,70.7082 89.5,63C 89.2065,52.2429 84.8732,43.7429 76.5,37.5C 63.98,27.5414 50.98,27.0414 37.5,36C 25.3269,45.5512 20.8269,58.0512 24,73.5C 26.9176,82.3565 32.4176,89.0231 40.5,93.5C 40.9106,92.7376 41.0773,91.7376 41,90.5C 41.7504,89.8742 42.5838,89.3742 43.5,89C 31.2527,81.6164 26.7527,70.7831 30,56.5C 38.0434,38.0911 51.5434,32.4244 70.5,39.5C 81.4718,46.4656 85.6384,56.4656 83,69.5C 81.3957,72.4588 80.2291,75.4588 79.5,78.5C 76.6811,72.1927 73.8478,65.8594 71,59.5C 69.1952,55.8571 66.3619,53.5237 62.5,52.5C 57.9415,49.811 53.6082,50.1443 49.5,53.5C 44.4861,56.0156 42.1528,60.1822 42.5,66C 43.5857,72.089 45.5857,77.9224 48.5,83.5C 48.9887,84.9952 49.6554,86.3285 50.5,87.5C 53.4974,94.8289 56.4974,102.162 59.5,109.5C 42.6134,113.867 28.9467,108.867 18.5,94.5C 10.4726,82.7146 7.63928,69.7146 10,55.5C 15.0546,33.7786 28.5546,20.9453 50.5,17C 74.8265,15.9993 91.4931,26.8326 100.5,49.5 Z"/></g>
<g><path style="opacity:1" fill="#d3c9c0" d="M 76.5,37.5 C 74.4017,36.0374 72.4017,36.2041 70.5,38C 71.7383,38.69 71.7383,39.19 70.5,39.5C 51.5434,32.4244 38.0434,38.0911 30,56.5C 26.7527,70.7831 31.2527,81.6164 43.5,89C 42.5838,89.3742 41.7504,89.8742 41,90.5C 41.0773,91.7376 40.9106,92.7376 40.5,93.5C 32.4176,89.0231 26.9176,82.3565 24,73.5C 20.8269,58.0512 25.3269,45.5512 37.5,36C 50.98,27.0414 63.98,27.5414 76.5,37.5 Z"/></g>
<g><path style="opacity:1" fill="#ece8e3" d="M 103.5,43.5 C 109.257,58.6641 108.59,73.6641 101.5,88.5C 99.4727,88.6621 97.4727,88.4955 95.5,88C 102.738,75.9401 104.405,63.1068 100.5,49.5C 101.478,47.5439 102.478,45.5439 103.5,43.5 Z"/></g>
<g><path style="opacity:1" fill="#ded7d1" d="M 76.5,37.5 C 84.8732,43.7429 89.2065,52.2429 89.5,63C 88.6192,70.7082 86.2859,77.8748 82.5,84.5C 80.9925,82.8185 79.9925,80.8185 79.5,78.5C 80.2291,75.4588 81.3957,72.4588 83,69.5C 85.6384,56.4656 81.4718,46.4656 70.5,39.5C 71.7383,39.19 71.7383,38.69 70.5,38C 72.4017,36.2041 74.4017,36.0374 76.5,37.5 Z"/></g>
<g><path style="opacity:1" fill="#432a18" d="M 49.5,53.5 C 45.7983,56.4072 44.1317,60.2406 44.5,65C 46.2591,70.7806 47.9257,76.614 49.5,82.5C 49.3764,83.1067 49.0431,83.44 48.5,83.5C 45.5857,77.9224 43.5857,72.089 42.5,66C 42.1528,60.1822 44.4861,56.0156 49.5,53.5 Z"/></g>
<g><path style="opacity:1" fill="#332117" d="M 48.5,68.5 C 52.0329,77.1002 55.3663,85.7668 58.5,94.5C 53.881,86.0847 49.881,77.2513 46.5,68C 46.6667,67.5 46.8333,67 47,66.5C 47.2784,67.4158 47.7784,68.0825 48.5,68.5 Z"/></g>
<g><path style="opacity:1" fill="#442b19" d="M 62.5,52.5 C 66.3619,53.5237 69.1952,55.8571 71,59.5C 73.8478,65.8594 76.6811,72.1927 79.5,78.5C 79.9925,80.8185 80.9925,82.8185 82.5,84.5C 83.6976,87.4262 84.6976,90.4262 85.5,93.5C 85.5654,93.9382 85.3988,94.2716 85,94.5C 84.2935,92.9194 83.4601,91.4194 82.5,90C 81.5165,89.4092 80.8499,89.7425 80.5,91C 84.163,99.0329 87.9963,106.866 92,114.5C 93.0111,113.944 93.8444,113.278 94.5,112.5C 96.7763,115.791 97.443,119.291 96.5,123C 95.2161,123.684 94.0495,123.517 93,122.5C 86.1139,106.74 79.2806,91.0737 72.5,75.5C 73.6594,76.4558 74.8261,77.4558 76,78.5C 76.5,78.3333 77,78.1667 77.5,78C 74.7574,71.0123 71.5907,64.1789 68,57.5C 65.9205,55.8767 63.7538,54.3767 61.5,53C 61.7284,52.6012 62.0618,52.4346 62.5,52.5 Z"/></g>
<g><path style="opacity:1" fill="#f2f3f2" d="M 103.5,88.5 C 104.833,89.1667 104.833,89.1667 103.5,88.5 Z"/></g>
<g><path style="opacity:1" fill="#eeecea" d="M 123.5,91.5 C 118.654,91.2268 114.321,92.5601 110.5,95.5C 109.478,95.1445 108.811,94.4778 108.5,93.5C 113.116,90.6832 118.116,89.1832 123.5,89C 122.402,89.7697 122.402,90.603 123.5,91.5 Z"/></g>
<g><path style="opacity:1" fill="#ded9d5" d="M 108.5,93.5 C 107.508,93.6716 106.842,93.3382 106.5,92.5C 107.925,90.9689 108.591,91.3023 108.5,93.5 Z"/></g>
<g><path style="opacity:1" fill="#f2f3f2" d="M 147.5,93.5 C 147.897,92.475 148.563,92.3083 149.5,93C 148.906,93.4643 148.239,93.631 147.5,93.5 Z"/></g>
<g><path style="opacity:1" fill="#54361e" d="M 85.5,93.5 C 86.2216,93.9175 86.7216,94.5842 87,95.5C 90.8755,91.1555 95.7088,89.4888 101.5,90.5C 103.553,90.4021 105.22,91.0687 106.5,92.5C 105.761,92.369 105.094,92.5357 104.5,93C 106.906,96.1837 109.906,97.0171 113.5,95.5C 113.833,96.1667 114.167,96.8333 114.5,97.5C 113.833,99.1667 113.167,100.833 112.5,102.5C 114.22,107.608 116.22,112.608 118.5,117.5C 118.167,117.833 117.833,118.167 117.5,118.5C 114.488,113.139 111.488,107.806 108.5,102.5C 106.617,100.602 104.617,98.7691 102.5,97C 96.5632,95.0377 92.5632,96.871 90.5,102.5C 91.6439,105.936 92.9772,109.27 94.5,112.5C 93.8444,113.278 93.0111,113.944 92,114.5C 87.9963,106.866 84.163,99.0329 80.5,91C 80.8499,89.7425 81.5165,89.4092 82.5,90C 83.4601,91.4194 84.2935,92.9194 85,94.5C 85.3988,94.2716 85.5654,93.9382 85.5,93.5 Z"/></g>
<g><path style="opacity:1" fill="#402a1d" d="M 123.5,91.5 C 124.791,91.2627 125.791,91.596 126.5,92.5C 123.311,93.1661 119.977,93.8328 116.5,94.5C 127.643,95.3592 133.643,101.026 134.5,111.5C 133.024,106.569 130.357,102.402 126.5,99C 121.02,96.1814 116.686,97.3481 113.5,102.5C 115.538,107.579 117.871,112.579 120.5,117.5C 119.062,120.823 117.229,121.156 115,118.5C 112.538,113.248 110.371,107.915 108.5,102.5C 111.488,107.806 114.488,113.139 117.5,118.5C 117.833,118.167 118.167,117.833 118.5,117.5C 116.22,112.608 114.22,107.608 112.5,102.5C 113.167,100.833 113.833,99.1667 114.5,97.5C 114.167,96.8333 113.833,96.1667 113.5,95.5C 109.906,97.0171 106.906,96.1837 104.5,93C 105.094,92.5357 105.761,92.369 106.5,92.5C 106.842,93.3382 107.508,93.6716 108.5,93.5C 108.811,94.4778 109.478,95.1445 110.5,95.5C 114.321,92.5601 118.654,91.2268 123.5,91.5 Z"/></g>
<g><path style="opacity:1" fill="#3a261b" d="M 58.5,94.5 C 63.4539,103.48 67.9539,112.813 72,122.5C 75.8135,131.451 79.3135,140.451 82.5,149.5C 81.1667,147.5 79.8333,145.5 78.5,143.5C 71.8333,127.167 65.1667,110.833 58.5,94.5 Z"/></g>
<g><path style="opacity:1" fill="#624329" d="M 126.5,92.5 C 129.378,93.37 132.045,94.7033 134.5,96.5C 139.742,93.0613 145.076,92.728 150.5,95.5C 149.448,95.3505 148.448,95.5172 147.5,96C 148.973,96.7096 149.64,97.8762 149.5,99.5C 144.551,97.6114 140.051,98.2781 136,101.5C 135.333,103.167 135.333,104.833 136,106.5C 137.774,109.715 139.274,113.048 140.5,116.5C 139.364,116.964 138.364,117.298 137.5,117.5C 136.508,115.544 135.508,113.544 134.5,111.5C 133.643,101.026 127.643,95.3592 116.5,94.5C 119.977,93.8328 123.311,93.1661 126.5,92.5 Z"/></g>
<g><path style="opacity:1" fill="#372213" d="M 60.5,109.5 C 60.1667,109.5 59.8333,109.5 59.5,109.5C 56.4974,102.162 53.4974,94.8289 50.5,87.5C 51.472,86.2486 52.1386,86.582 52.5,88.5C 55.4612,95.4164 58.1278,102.416 60.5,109.5 Z"/></g>
<g><path style="opacity:1" fill="#452f22" d="M 150.5,95.5 C 155.627,97.9638 158.96,101.964 160.5,107.5C 160.989,108.995 161.655,110.329 162.5,111.5C 163.11,112.391 163.443,113.391 163.5,114.5C 163.427,116.027 164.094,117.027 165.5,117.5C 166.404,118.209 166.737,119.209 166.5,120.5C 166.833,121.833 167.167,123.167 167.5,124.5C 163.537,119.246 160.37,112.912 158,105.5C 156.553,103.597 154.886,101.93 153,100.5C 157.768,111.756 162.768,123.089 168,134.5C 168.789,136.712 168.622,138.712 167.5,140.5C 163.85,128.862 159.35,117.528 154,106.5C 149.825,100.382 144.492,98.7149 138,101.5C 137.76,106.952 139.26,111.952 142.5,116.5C 141.086,119.75 139.419,120.084 137.5,117.5C 138.364,117.298 139.364,116.964 140.5,116.5C 139.274,113.048 137.774,109.715 136,106.5C 135.333,104.833 135.333,103.167 136,101.5C 140.051,98.2781 144.551,97.6114 149.5,99.5C 149.64,97.8762 148.973,96.7096 147.5,96C 148.448,95.5172 149.448,95.3505 150.5,95.5 Z"/></g>
<g><path style="opacity:1" fill="#eae8e4" d="M 162.5,111.5 C 161.655,110.329 160.989,108.995 160.5,107.5C 161.858,106.374 163.192,106.374 164.5,107.5C 163.37,108.622 162.703,109.956 162.5,111.5 Z"/></g>
<g><path style="opacity:1" fill="#ece7e4" d="M 18.5,94.5 C 28.9467,108.867 42.6134,113.867 59.5,109.5C 59.8333,109.5 60.1667,109.5 60.5,109.5C 61.038,111.117 61.3713,112.784 61.5,114.5C 42.9468,118.095 27.6135,112.761 15.5,98.5C 16.2891,98.2172 16.9558,97.7172 17.5,97C 16.0439,96.5774 15.5439,95.7441 16,94.5C 16.9772,95.7736 17.8106,95.7736 18.5,94.5 Z"/></g>
<g><path style="opacity:1" fill="#e7e5e3" d="M 165.5,117.5 C 164.094,117.027 163.427,116.027 163.5,114.5C 164.822,114.67 165.989,114.337 167,113.5C 167.484,115.193 166.984,116.527 165.5,117.5 Z"/></g>
<g><path style="opacity:1" fill="#f8f3ee" d="M 67.5,63.5 C 68.0966,68.0169 69.7633,72.0169 72.5,75.5C 79.2806,91.0737 86.1139,106.74 93,122.5C 94.0495,123.517 95.2161,123.684 96.5,123C 97.443,119.291 96.7763,115.791 94.5,112.5C 92.9772,109.27 91.6439,105.936 90.5,102.5C 92.5632,96.871 96.5632,95.0377 102.5,97C 104.617,98.7691 106.617,100.602 108.5,102.5C 110.371,107.915 112.538,113.248 115,118.5C 117.229,121.156 119.062,120.823 120.5,117.5C 117.871,112.579 115.538,107.579 113.5,102.5C 116.686,97.3481 121.02,96.1814 126.5,99C 130.357,102.402 133.024,106.569 134.5,111.5C 135.508,113.544 136.508,115.544 137.5,117.5C 139.419,120.084 141.086,119.75 142.5,116.5C 139.26,111.952 137.76,106.952 138,101.5C 144.492,98.7149 149.825,100.382 154,106.5C 159.35,117.528 163.85,128.862 167.5,140.5C 168.228,144.983 169.228,149.316 170.5,153.5C 171.074,161.823 171.574,170.156 172,178.5C 173.645,181.622 175.145,184.788 176.5,188C 170.838,190.831 165.171,193.664 159.5,196.5C 146.747,202.292 133.914,207.959 121,213.5C 118.386,209.781 115.886,205.948 113.5,202C 100.683,197.8 89.0164,191.633 78.5,183.5C 76.5146,179.544 74.0146,175.878 71,172.5C 64.6097,165.448 58.2764,158.448 52,151.5C 50.3356,142.834 53.8356,139 62.5,140C 70.5253,144.025 76.5253,150.025 80.5,158C 81.7932,158.49 83.1266,158.657 84.5,158.5C 84.7847,155.171 84.1181,152.171 82.5,149.5C 79.3135,140.451 75.8135,131.451 72,122.5C 67.9539,112.813 63.4539,103.48 58.5,94.5C 55.3663,85.7668 52.0329,77.1002 48.5,68.5C 47.3293,59.8394 50.9959,56.006 59.5,57C 62.9614,58.3046 65.628,60.4713 67.5,63.5 Z"/></g>
<g><path style="opacity:1" fill="#eceae8" d="M 168.5,124.5 C 168.167,124.5 167.833,124.5 167.5,124.5C 167.167,123.167 166.833,121.833 166.5,120.5C 167.858,119.374 169.192,119.374 170.5,120.5C 169.37,121.622 168.703,122.956 168.5,124.5 Z"/></g>
<g><path style="opacity:1" fill="#f2f3f2" d="M 60.5,120.5 C 63.0009,120.511 63.1676,121.178 61,122.5C 60.5357,121.906 60.369,121.239 60.5,120.5 Z"/></g>
<g><path style="opacity:1" fill="#f2f3f2" d="M 172.5,126.5 C 173.776,127.386 173.776,128.386 172.5,129.5C 171.913,128.767 171.913,127.767 172.5,126.5 Z"/></g>
<g><path style="opacity:1" fill="#ebe7e5" d="M 66.5,125.5 C 68.7874,130.075 71.1207,134.741 73.5,139.5C 73.0302,140.463 72.3635,140.463 71.5,139.5C 69.4236,137.416 67.0903,135.749 64.5,134.5C 65.2389,134.631 65.9056,134.464 66.5,134C 65.5761,133.15 65.5761,132.15 66.5,131C 65.4911,129.832 64.4911,128.665 63.5,127.5C 64.6016,126.824 65.6016,126.158 66.5,125.5 Z"/></g>
<g><path style="opacity:1" fill="#f2f3f2" d="M 63.5,132.5 C 61.4727,132.662 59.4727,132.495 57.5,132C 58,131.5 58.5,131 59,130.5C 60.6225,131.099 62.1225,131.766 63.5,132.5 Z"/></g>
<g><path style="opacity:1" fill="#f2f3f2" d="M 52.5,132.5 C 53.8333,133.167 53.8333,133.167 52.5,132.5 Z"/></g>
<g><path style="opacity:1" fill="#ebebe6" d="M 63.5,132.5 C 64.3382,132.842 64.6716,133.508 64.5,134.5C 63.8333,134.5 63.1667,134.5 62.5,134.5C 62.5,134.167 62.5,133.833 62.5,133.5C 63.1667,133.5 63.5,133.167 63.5,132.5 Z"/></g>
<g><path style="opacity:1" fill="#827164" d="M 62.5,133.5 C 62.5,133.833 62.5,134.167 62.5,134.5C 58.3425,134.332 54.3425,134.998 50.5,136.5C 51.347,135.034 52.6803,134.2 54.5,134C 57.146,133.503 59.8127,133.336 62.5,133.5 Z"/></g>
<g><path style="opacity:1" fill="#f2f3f2" d="M 46.5,136.5 C 47.8333,137.167 47.8333,137.167 46.5,136.5 Z"/></g>
<g><path style="opacity:1" fill="#d9d4d1" d="M 174.5,143.5 C 173.232,141.095 172.565,138.428 172.5,135.5C 173.708,134.766 175.041,134.433 176.5,134.5C 175.08,137.261 174.413,140.261 174.5,143.5 Z"/></g>
<g><path style="opacity:1" fill="#f2f3f2" d="M 43.5,141.5 C 42.8333,140.167 42.8333,140.167 43.5,141.5 Z"/></g>
<g><path style="opacity:1" fill="#f2f3f2" d="M 43.5,141.5 C 44.525,141.897 44.6917,142.563 44,143.5C 43.5357,142.906 43.369,142.239 43.5,141.5 Z"/></g>
<g><path style="opacity:1" fill="#603e22" d="M 62.5,52.5 C 62.0618,52.4346 61.7284,52.6012 61.5,53C 63.7538,54.3767 65.9205,55.8767 68,57.5C 71.5907,64.1789 74.7574,71.0123 77.5,78C 77,78.1667 76.5,78.3333 76,78.5C 74.8261,77.4558 73.6594,76.4558 72.5,75.5C 71.3517,71.2132 69.685,67.2132 67.5,63.5C 65.628,60.4713 62.9614,58.3046 59.5,57C 50.9959,56.006 47.3293,59.8394 48.5,68.5C 47.7784,68.0825 47.2784,67.4158 47,66.5C 46.8333,67 46.6667,67.5 46.5,68C 49.881,77.2513 53.881,86.0847 58.5,94.5C 65.1667,110.833 71.8333,127.167 78.5,143.5C 76.8246,143.132 75.1579,143.798 73.5,145.5C 69.4475,141.806 64.7808,139.139 59.5,137.5C 55.0704,138.428 51.5704,140.761 49,144.5C 48.9061,139.583 51.4061,136.75 56.5,136C 62.0713,135.031 66.9046,136.531 71,140.5C 71.3988,140.272 71.5654,139.938 71.5,139.5C 72.3635,140.463 73.0302,140.463 73.5,139.5C 71.1207,134.741 68.7874,130.075 66.5,125.5C 64.5969,122.021 62.9302,118.354 61.5,114.5C 61.3713,112.784 61.038,111.117 60.5,109.5C 58.1278,102.416 55.4612,95.4164 52.5,88.5C 52.1386,86.582 51.472,86.2486 50.5,87.5C 49.6554,86.3285 48.9887,84.9952 48.5,83.5C 49.0431,83.44 49.3764,83.1067 49.5,82.5C 47.9257,76.614 46.2591,70.7806 44.5,65C 44.1317,60.2406 45.7983,56.4072 49.5,53.5C 53.6082,50.1443 57.9415,49.811 62.5,52.5 Z"/></g>
<g><path style="opacity:1" fill="#312013" d="M 67.5,63.5 C 69.685,67.2132 71.3517,71.2132 72.5,75.5C 69.7633,72.0169 68.0966,68.0169 67.5,63.5 Z"/></g>
<g><path style="opacity:1" fill="#5e3f25" d="M 167.5,124.5 C 167.833,124.5 168.167,124.5 168.5,124.5C 170.229,128.021 171.562,131.687 172.5,135.5C 172.565,138.428 173.232,141.095 174.5,143.5C 175.167,146.167 175.833,148.833 176.5,151.5C 176.5,154.5 176.5,157.5 176.5,160.5C 175.683,158.031 175.183,155.365 175,152.5C 174.667,160.167 174.333,167.833 174,175.5C 173.267,169.174 172.601,162.84 172,156.5C 171.917,154.494 171.417,153.494 170.5,153.5C 169.228,149.316 168.228,144.983 167.5,140.5C 168.622,138.712 168.789,136.712 168,134.5C 162.768,123.089 157.768,111.756 153,100.5C 154.886,101.93 156.553,103.597 158,105.5C 160.37,112.912 163.537,119.246 167.5,124.5 Z"/></g>
<g><path style="opacity:1" fill="#503523" d="M 62.5,134.5 C 63.1667,134.5 63.8333,134.5 64.5,134.5C 67.0903,135.749 69.4236,137.416 71.5,139.5C 71.5654,139.938 71.3988,140.272 71,140.5C 66.9046,136.531 62.0713,135.031 56.5,136C 51.4061,136.75 48.9061,139.583 49,144.5C 51.5704,140.761 55.0704,138.428 59.5,137.5C 64.7808,139.139 69.4475,141.806 73.5,145.5C 75.1579,143.798 76.8246,143.132 78.5,143.5C 79.8333,145.5 81.1667,147.5 82.5,149.5C 84.1181,152.171 84.7847,155.171 84.5,158.5C 83.1266,158.657 81.7932,158.49 80.5,158C 76.5253,150.025 70.5253,144.025 62.5,140C 53.8356,139 50.3356,142.834 52,151.5C 58.2764,158.448 64.6097,165.448 71,172.5C 74.0146,175.878 76.5146,179.544 78.5,183.5C 72.07,175.897 65.4033,168.397 58.5,161C 57.6683,160.312 57.0016,160.479 56.5,161.5C 58.9716,164.115 60.6382,167.115 61.5,170.5C 59.1938,167.527 56.5272,164.86 53.5,162.5C 51.8333,160.167 49.8333,158.167 47.5,156.5C 47.3404,154.847 46.6737,153.514 45.5,152.5C 43.5529,146.009 45.2195,140.676 50.5,136.5C 54.3425,134.998 58.3425,134.332 62.5,134.5 Z"/></g>
<g><path style="opacity:1" fill="#f2f3f2" d="M 176.5,151.5 C 176.5,150.5 176.5,149.5 176.5,148.5C 177.5,148.5 178.5,148.5 179.5,148.5C 179.219,152.188 178.719,155.855 178,159.5C 177.817,156.635 177.317,153.969 176.5,151.5 Z"/></g>
<g><path style="opacity:1" fill="#f2f3f2" d="M 45.5,152.5 C 44.7624,154.76 43.7624,154.927 42.5,153C 43.448,152.517 44.448,152.351 45.5,152.5 Z"/></g>
<g><path style="opacity:1" fill="#f2f3f2" d="M 47.5,156.5 C 46.8333,157.167 46.8333,157.167 47.5,156.5 Z"/></g>
<g><path style="opacity:1" fill="#f2f3f2" d="M 53.5,162.5 C 53.4891,165.001 52.8224,165.168 51.5,163C 52.0944,162.536 52.7611,162.369 53.5,162.5 Z"/></g>
<g><path style="opacity:1" fill="#543925" d="M 176.5,160.5 C 177.248,166.366 177.914,172.366 178.5,178.5C 178.66,180.153 179.326,181.486 180.5,182.5C 181.338,182.842 181.672,183.508 181.5,184.5C 181.328,185.492 181.662,186.158 182.5,186.5C 183.448,188.672 183.115,190.672 181.5,192.5C 180.167,192.5 178.833,192.5 177.5,192.5C 177.649,191.448 177.483,190.448 177,189.5C 171.561,192.259 166.061,194.926 160.5,197.5C 159.893,197.376 159.56,197.043 159.5,196.5C 165.171,193.664 170.838,190.831 176.5,188C 175.145,184.788 173.645,181.622 172,178.5C 171.574,170.156 171.074,161.823 170.5,153.5C 171.417,153.494 171.917,154.494 172,156.5C 172.601,162.84 173.267,169.174 174,175.5C 174.333,167.833 174.667,160.167 175,152.5C 175.183,155.365 175.683,158.031 176.5,160.5 Z"/></g>
<g><path style="opacity:1" fill="#f2f3f2" d="M 63.5,174.5 C 63.1034,175.525 62.4368,175.692 61.5,175C 62.0944,174.536 62.7611,174.369 63.5,174.5 Z"/></g>
<g><path style="opacity:1" fill="#e7e5e4" d="M 180.5,182.5 C 179.326,181.486 178.66,180.153 178.5,178.5C 179.822,178.67 180.989,178.337 182,177.5C 181.866,179.189 181.366,180.856 180.5,182.5 Z"/></g>
<g><path style="opacity:1" fill="#efeeee" d="M 182.5,186.5 C 181.662,186.158 181.328,185.492 181.5,184.5C 184.306,183.053 185.306,183.72 184.5,186.5C 183.571,185.45 182.905,185.45 182.5,186.5 Z"/></g>
<g><path style="opacity:1" fill="#f3f2f1" d="M 74.5,187.5 C 75.5,187.833 76.1667,188.5 76.5,189.5C 72.9018,190.585 72.2351,189.918 74.5,187.5 Z"/></g>
<g><path style="opacity:1" fill="#f2f3f2" d="M 183.5,190.5 C 185.337,190.639 185.67,191.306 184.5,192.5C 183.702,192.043 183.369,191.376 183.5,190.5 Z"/></g>
<g><path style="opacity:1" fill="#f2f3f2" d="M 175.5,196.5 C 176.239,196.369 176.906,196.536 177.5,197C 176.563,197.692 175.897,197.525 175.5,196.5 Z"/></g>
<g><path style="opacity:1" fill="#eae7e6" d="M 88.5,197.5 C 89.4916,197.328 90.1583,197.662 90.5,198.5C 89.8333,198.5 89.5,198.833 89.5,199.5C 87.3023,199.591 86.9689,198.925 88.5,197.5 Z"/></g>
<g><path style="opacity:1" fill="#5d3f28" d="M 78.5,183.5 C 89.0164,191.633 100.683,197.8 113.5,202C 115.886,205.948 118.386,209.781 121,213.5C 133.914,207.959 146.747,202.292 159.5,196.5C 159.56,197.043 159.893,197.376 160.5,197.5C 166.061,194.926 171.561,192.259 177,189.5C 177.483,190.448 177.649,191.448 177.5,192.5C 178.833,192.5 180.167,192.5 181.5,192.5C 179.5,193.833 177.5,195.167 175.5,196.5C 173.847,196.66 172.514,197.326 171.5,198.5C 168.256,199.463 165.256,200.796 162.5,202.5C 159.833,203.5 157.167,204.5 154.5,205.5C 152.25,206.13 150.25,207.13 148.5,208.5C 148.158,209.338 147.492,209.672 146.5,209.5C 145.508,209.328 144.842,209.662 144.5,210.5C 140.338,212.322 136.338,214.322 132.5,216.5C 129.296,217.901 125.963,218.901 122.5,219.5C 120.833,219.5 119.167,219.5 117.5,219.5C 116.624,219.631 115.957,219.298 115.5,218.5C 113.564,214.961 111.898,211.295 110.5,207.5C 109.341,205.75 107.674,204.75 105.5,204.5C 103.079,204.122 100.746,203.455 98.5,202.5C 95.8987,201.199 93.232,199.866 90.5,198.5C 90.1583,197.662 89.4916,197.328 88.5,197.5C 84.1189,195.316 80.1189,192.65 76.5,189.5C 76.1667,188.5 75.5,187.833 74.5,187.5C 71.0708,182.981 67.4041,178.648 63.5,174.5C 62.8333,173.167 62.1667,171.833 61.5,170.5C 60.6382,167.115 58.9716,164.115 56.5,161.5C 57.0016,160.479 57.6683,160.312 58.5,161C 65.4033,168.397 72.07,175.897 78.5,183.5 Z"/></g>
<g><path style="opacity:1" fill="#f2f3f2" d="M 171.5,198.5 C 172.239,198.369 172.906,198.536 173.5,199C 172.563,199.692 171.897,199.525 171.5,198.5 Z"/></g>
<g><path style="opacity:1" fill="#f2f3f2" d="M 89.5,199.5 C 90.8333,200.167 90.8333,200.167 89.5,199.5 Z"/></g>
<g><path style="opacity:1" fill="#f2f3f2" d="M 98.5,202.5 C 98.4891,205.001 97.8224,205.168 96.5,203C 97.0944,202.536 97.7611,202.369 98.5,202.5 Z"/></g>
<g><path style="opacity:1" fill="#f2f3f2" d="M 162.5,202.5 C 163.239,202.369 163.906,202.536 164.5,203C 163.563,203.692 162.897,203.525 162.5,202.5 Z"/></g>
<g><path style="opacity:1" fill="#ece8e5" d="M 105.5,204.5 C 107.674,204.75 109.341,205.75 110.5,207.5C 108.958,208.301 107.292,208.634 105.5,208.5C 105.5,207.167 105.5,205.833 105.5,204.5 Z"/></g>
<g><path style="opacity:1" fill="#e9e6e4" d="M 154.5,205.5 C 155.351,207.704 154.351,209.037 151.5,209.5C 150.583,208.873 149.583,208.539 148.5,208.5C 150.25,207.13 152.25,206.13 154.5,205.5 Z"/></g>
<g><path style="opacity:1" fill="#f2f3f2" d="M 108.5,210.5 C 111.001,210.511 111.168,211.178 109,212.5C 108.536,211.906 108.369,211.239 108.5,210.5 Z"/></g>
<g><path style="opacity:1" fill="#eeedec" d="M 144.5,210.5 C 144.842,209.662 145.508,209.328 146.5,209.5C 147.504,211.677 146.838,212.011 144.5,210.5 Z"/></g>
<g><path style="opacity:1" fill="#f2f3f2" d="M 142.5,212.5 C 143.833,213.167 143.833,213.167 142.5,212.5 Z"/></g>
<g><path style="opacity:1" fill="#f2f3f2" d="M 111.5,216.5 C 113.337,216.639 113.67,217.306 112.5,218.5C 111.702,218.043 111.369,217.376 111.5,216.5 Z"/></g>
<g><path style="opacity:1" fill="#f2f3f2" d="M 132.5,216.5 C 133.239,216.369 133.906,216.536 134.5,217C 133.563,217.692 132.897,217.525 132.5,216.5 Z"/></g>
<g><path style="opacity:1" fill="#f1efee" d="M 117.5,219.5 C 119.167,219.5 120.833,219.5 122.5,219.5C 123.385,221.27 122.552,222.27 120,222.5C 118.69,221.87 117.856,220.87 117.5,219.5 Z"/></g>
</svg>
