<?xml version="1.0" encoding="UTF-8"?>
<!DOCTYPE svg PUBLIC "-//W3C//DTD SVG 1.1//EN" "http://www.w3.org/Graphics/SVG/1.1/DTD/svg11.dtd">
<svg xmlns="http://www.w3.org/2000/svg" version="1.1" width="2170px" height="725px" style="shape-rendering:geometricPrecision; text-rendering:geometricPrecision; image-rendering:optimizeQuality; fill-rule:evenodd; clip-rule:evenodd" xmlns:xlink="http://www.w3.org/1999/xlink">

<g><path style="opacity:1" fill="#9fa0a0" d="M 462.5,260.5 C 464.288,259.378 466.288,259.211 468.5,260C 470.175,260.985 471.842,261.819 473.5,262.5C 469.833,261.833 466.167,261.167 462.5,260.5 Z"/></g>
<g><path style="opacity:1" fill="#070707" d="M 673.5,271.5 C 675.5,271.5 677.5,271.5 679.5,271.5C 679.177,337.196 679.51,402.862 680.5,468.5C 678.167,468.5 675.833,468.5 673.5,468.5C 673.5,402.833 673.5,337.167 673.5,271.5 Z"/></g>
<g><path style="opacity:1" fill="#5c5c5b" d="M 433.5,271.5 C 429.446,273.648 425.112,275.148 420.5,276C 416.49,276.501 412.49,277.001 408.5,277.5C 416.573,274.634 424.906,272.634 433.5,271.5 Z"/></g>
<g><path style="opacity:1" fill="#535351" d="M 408.5,277.5 C 408.389,278.117 408.056,278.617 407.5,279C 401.028,279.149 394.695,279.982 388.5,281.5C 389.842,280.207 391.509,279.374 393.5,279C 398.549,278.728 403.549,278.228 408.5,277.5 Z"/></g>
<g><path style="opacity:1" fill="#6d6b6b" d="M 375.5,281.5 C 368.366,283.005 361.033,284.005 353.5,284.5C 354.429,283.685 355.429,282.852 356.5,282C 362.825,281.5 369.158,281.334 375.5,281.5 Z"/></g>
<g><path style="opacity:1" fill="#0f0c0b" d="M 462.5,260.5 C 466.167,261.167 469.833,261.833 473.5,262.5C 477.803,265.971 481.636,269.971 485,274.5C 485.667,277.5 485.667,280.5 485,283.5C 483.229,284.304 481.729,285.471 480.5,287C 470.172,287.5 459.839,287.666 449.5,287.5C 447.102,287.259 445.102,287.926 443.5,289.5C 438.203,290.275 432.87,290.608 427.5,290.5C 422.917,291.34 418.584,292.674 414.5,294.5C 404.864,295.819 395.197,296.819 385.5,297.5C 381.773,299.252 377.773,299.919 373.5,299.5C 366.441,295.971 359.608,291.971 353,287.5C 352.26,286.251 352.427,285.251 353.5,284.5C 361.033,284.005 368.366,283.005 375.5,281.5C 379.833,281.5 384.167,281.5 388.5,281.5C 394.695,279.982 401.028,279.149 407.5,279C 408.056,278.617 408.389,278.117 408.5,277.5C 412.49,277.001 416.49,276.501 420.5,276C 425.112,275.148 429.446,273.648 433.5,271.5C 438.577,270.149 443.577,268.649 448.5,267C 452.63,263.709 457.297,261.543 462.5,260.5 Z"/></g>
<g><path style="opacity:1" fill="#999899" d="M 449.5,287.5 C 447.898,289.074 445.898,289.741 443.5,289.5C 445.102,287.926 447.102,287.259 449.5,287.5 Z"/></g>
<g><path style="opacity:1" fill="#858486" d="M 888.5,286.5 C 886.996,291.779 885.996,297.112 885.5,302.5C 885.334,297.821 885.501,293.155 886,288.5C 886.708,287.619 887.542,286.953 888.5,286.5 Z"/></g>
<g><path style="opacity:1" fill="#403f3d" d="M 1182.5,287.5 C 1178.5,288.314 1174.5,289.314 1170.5,290.5C 1171.35,289.034 1172.68,288.2 1174.5,288C 1177.15,287.503 1179.81,287.336 1182.5,287.5 Z"/></g>
<g><path style="opacity:1" fill="#949093" d="M 427.5,290.5 C 423.75,293.201 419.417,294.534 414.5,294.5C 418.584,292.674 422.917,291.34 427.5,290.5 Z"/></g>
<g><path style="opacity:1" fill="#494c4b" d="M 1394.5,293.5 C 1390.77,293.323 1387.1,293.656 1383.5,294.5C 1383.61,293.883 1383.94,293.383 1384.5,293C 1388.03,292.192 1391.36,292.359 1394.5,293.5 Z"/></g>
<g><path style="opacity:1" fill="#363636" d="M 965.5,291.5 C 965.5,297.5 965.5,303.5 965.5,309.5C 968.237,309.599 970.904,309.265 973.5,308.5C 973.389,309.117 973.056,309.617 972.5,310C 969.854,310.497 967.187,310.664 964.5,310.5C 964.177,303.978 964.51,297.645 965.5,291.5 Z"/></g>
<g><path style="opacity:1" fill="#a3a3a3" d="M 1139.5,294.5 C 1133.36,295.636 1127.03,296.303 1120.5,296.5C 1126.59,294.906 1132.93,294.239 1139.5,294.5 Z"/></g>
<g><path style="opacity:1" fill="#0f0d0c" d="M 1168.5,303.5 C 1166.1,303.259 1164.1,303.926 1162.5,305.5C 1157.47,306.022 1152.47,306.689 1147.5,307.5C 1144.05,308.879 1140.39,309.546 1136.5,309.5C 1134.08,309.44 1131.75,309.107 1129.5,308.5C 1125.68,306.331 1121.85,303.998 1118,301.5C 1117.24,299.019 1118.07,297.353 1120.5,296.5C 1127.03,296.303 1133.36,295.636 1139.5,294.5C 1149.88,293.318 1160.21,291.985 1170.5,290.5C 1174.5,289.314 1178.5,288.314 1182.5,287.5C 1187.65,286.086 1192.65,284.252 1197.5,282C 1208.8,275.028 1218.3,277.195 1226,288.5C 1227.38,292.475 1226.21,295.309 1222.5,297C 1204.49,299.309 1186.49,301.476 1168.5,303.5 Z"/></g>
<g><path style="opacity:1" fill="#a3a2a6" d="M 1729.5,291.5 C 1730.61,292.946 1730.78,294.613 1730,296.5C 1729.33,297.252 1728.5,297.586 1727.5,297.5C 1729.08,295.858 1729.75,293.858 1729.5,291.5 Z"/></g>
<g><path style="opacity:1" fill="#a6a5a5" d="M 385.5,297.5 C 385.196,298.15 384.863,298.817 384.5,299.5C 380.685,300.808 377.019,300.808 373.5,299.5C 377.019,300.808 380.685,300.808 384.5,299.5C 384.863,298.817 385.196,298.15 385.5,297.5 Z"/></g>
<g><path style="opacity:1" fill="#9b989c" d="M 1168.5,303.5 C 1166.9,305.074 1164.9,305.741 1162.5,305.5C 1164.1,303.926 1166.1,303.259 1168.5,303.5 Z"/></g>
<g><path style="opacity:1" fill="#6f7171" d="M 463.5,306.5 C 461.097,306.448 458.764,306.781 456.5,307.5C 457.312,306.007 458.645,305.34 460.5,305.5C 461.726,305.52 462.726,305.853 463.5,306.5 Z"/></g>
<g><path style="opacity:1" fill="#a7a7a7" d="M 1147.5,307.5 C 1144.44,309.528 1140.94,310.528 1137,310.5C 1134.07,310.475 1131.57,309.809 1129.5,308.5C 1131.75,309.107 1134.08,309.44 1136.5,309.5C 1140.39,309.546 1144.05,308.879 1147.5,307.5 Z"/></g>
<g><path style="opacity:1" fill="#636262" d="M 866.5,284.5 C 867.913,292.79 868.58,301.29 868.5,310C 868.499,315.012 868.166,319.845 867.5,324.5C 867.547,311.155 867.214,297.821 866.5,284.5 Z"/></g>
<g><path style="opacity:1" fill="#7f807f" d="M 885.5,305.5 C 884.903,310.294 885.57,314.627 887.5,318.5C 886.791,319.404 885.791,319.737 884.5,319.5C 884.181,314.637 884.514,309.97 885.5,305.5 Z"/></g>
<g><path style="opacity:1" fill="#868786" d="M 441.5,313.5 C 440.158,314.793 438.491,315.626 436.5,316C 429.508,316.5 422.508,316.666 415.5,316.5C 424.105,315.962 432.771,314.962 441.5,313.5 Z"/></g>
<g><path style="opacity:1" fill="#0e0b0a" d="M 463.5,306.5 C 469.109,310.582 475.109,314.082 481.5,317C 483.141,318.129 484.141,319.629 484.5,321.5C 485.403,324.391 485.736,327.391 485.5,330.5C 482.318,333.842 480.318,337.842 479.5,342.5C 478.515,346.634 478.182,350.968 478.5,355.5C 477.076,357.515 476.41,359.848 476.5,362.5C 475.214,373.548 473.714,384.548 472,395.5C 468.945,402.759 464.112,408.593 457.5,413C 453.834,414.271 451.334,413.104 450,409.5C 449.047,406.568 448.547,403.568 448.5,400.5C 441.194,401.72 433.861,402.72 426.5,403.5C 420.671,403.968 415.004,404.635 409.5,405.5C 408.833,405.5 408.167,405.5 407.5,405.5C 401.626,406.049 395.959,407.049 390.5,408.5C 390.143,415.029 386.81,418.195 380.5,418C 375.705,414.704 372.705,410.204 371.5,404.5C 371.667,393.828 371.5,383.161 371,372.5C 370.243,370.685 369.41,369.019 368.5,367.5C 368.828,356.321 368.495,345.321 367.5,334.5C 361.694,330.71 360.361,325.71 363.5,319.5C 366.446,318.345 369.446,318.179 372.5,319C 375.612,320.521 378.612,322.187 381.5,324C 384.817,324.498 388.15,324.665 391.5,324.5C 395.312,323.974 398.979,323.307 402.5,322.5C 404.482,322.005 406.482,321.505 408.5,321C 410.551,318.98 412.884,317.48 415.5,316.5C 422.508,316.666 429.508,316.5 436.5,316C 438.491,315.626 440.158,314.793 441.5,313.5C 444.187,313.664 446.854,313.497 449.5,313C 451.933,311.138 454.266,309.305 456.5,307.5C 458.764,306.781 461.097,306.448 463.5,306.5 Z"/></g>
<g><path style="opacity:1" fill="#bebebf" d="M 1198.5,321.5 C 1187.92,322.42 1177.25,323.42 1166.5,324.5C 1170.83,323.939 1175.16,323.106 1179.5,322C 1185.82,321.5 1192.16,321.334 1198.5,321.5 Z"/></g>
<g><path style="opacity:1" fill="#464746" d="M 402.5,322.5 C 398.979,323.307 395.312,323.974 391.5,324.5C 391.611,323.883 391.944,323.383 392.5,323C 395.817,322.502 399.15,322.335 402.5,322.5 Z"/></g>
<g><path style="opacity:1" fill="#9c9c9b" d="M 484.5,321.5 C 485.765,322.514 486.431,324.014 486.5,326C 486.492,327.707 486.158,329.207 485.5,330.5C 485.736,327.391 485.403,324.391 484.5,321.5 Z"/></g>
<g><path style="opacity:1" fill="#979596" d="M 994.5,321.5 C 988.186,323.93 981.52,324.93 974.5,324.5C 981.072,323.505 987.739,322.505 994.5,321.5 Z"/></g>
<g><path style="opacity:1" fill="#0e0b09" d="M 888.5,286.5 C 887.542,286.953 886.708,287.619 886,288.5C 885.501,293.155 885.334,297.821 885.5,302.5C 885.5,303.5 885.5,304.5 885.5,305.5C 884.514,309.97 884.181,314.637 884.5,319.5C 885.791,319.737 886.791,319.404 887.5,318.5C 888.429,317.685 889.429,316.852 890.5,316C 897.604,313.962 903.271,315.796 907.5,321.5C 907.663,323.857 907.497,326.19 907,328.5C 904.791,328.989 902.958,329.989 901.5,331.5C 895.207,330.901 889.373,332.234 884,335.5C 883.5,344.16 883.334,352.827 883.5,361.5C 888.257,358.949 892.923,356.115 897.5,353C 900.063,351.921 902.729,351.421 905.5,351.5C 905.067,354.285 903.734,356.619 901.5,358.5C 895.541,363.958 889.708,369.624 884,375.5C 883.5,384.16 883.334,392.827 883.5,401.5C 883.334,409.174 883.5,416.841 884,424.5C 884.198,426.382 884.698,428.048 885.5,429.5C 886.13,437.433 885.13,445.1 882.5,452.5C 880.101,457.735 876.434,461.902 871.5,465C 867.835,465.387 865.002,463.887 863,460.5C 861.63,457.95 860.463,455.283 859.5,452.5C 855.414,448.087 851.414,443.754 847.5,439.5C 847.608,438.558 847.941,437.725 848.5,437C 853.833,436.667 859.167,436.333 864.5,436C 865.056,435.617 865.389,435.117 865.5,434.5C 866.309,432.708 866.809,430.708 867,428.5C 867.833,415.82 867.666,403.154 866.5,390.5C 858.484,398.35 850.318,406.017 842,413.5C 841.517,414.448 841.351,415.448 841.5,416.5C 837.019,420.639 832.686,420.472 828.5,416C 824.298,412.133 820.465,407.967 817,403.5C 816.641,400.38 817.808,397.88 820.5,396C 827.294,395.558 833.628,393.558 839.5,390C 848.693,383.905 858.027,378.072 867.5,372.5C 868.495,361.679 868.828,350.679 868.5,339.5C 866.585,339.216 864.919,339.549 863.5,340.5C 857.996,341.225 852.662,342.558 847.5,344.5C 845.833,344.167 844.167,343.833 842.5,343.5C 838.44,341.634 834.94,338.967 832,335.5C 831.51,334.207 831.343,332.873 831.5,331.5C 840.867,330.448 850.2,329.114 859.5,327.5C 861.403,327.204 863.07,326.537 864.5,325.5C 865.791,325.737 866.791,325.404 867.5,324.5C 868.166,319.845 868.499,315.012 868.5,310C 868.58,301.29 867.913,292.79 866.5,284.5C 861.739,282.384 860.239,278.717 862,273.5C 863.822,271.955 865.989,271.288 868.5,271.5C 875.914,272.254 882.247,275.254 887.5,280.5C 888.466,282.396 888.799,284.396 888.5,286.5 Z"/></g>
<g><path style="opacity:1" fill="#656564" d="M 864.5,325.5 C 863.07,326.537 861.403,327.204 859.5,327.5C 860.635,325.787 862.302,325.12 864.5,325.5 Z"/></g>
<g><path style="opacity:1" fill="#b1b1b1" d="M 440.5,326.5 C 440.389,327.117 440.056,327.617 439.5,328C 435.57,328.242 431.903,329.075 428.5,330.5C 427.249,329.528 427.582,328.861 429.5,328.5C 433.13,327.574 436.797,326.907 440.5,326.5 Z"/></g>
<g><path style="opacity:1" fill="#b2b1b3" d="M 907.5,321.5 C 908.775,324.396 908.775,327.396 907.5,330.5C 905.435,330.517 903.435,330.85 901.5,331.5C 902.958,329.989 904.791,328.989 907,328.5C 907.497,326.19 907.663,323.857 907.5,321.5 Z"/></g>
<g><path style="opacity:1" fill="#0e0b0a" d="M 1225.5,341.5 C 1224.78,341.918 1224.28,342.584 1224,343.5C 1223.61,348.854 1223.11,354.188 1222.5,359.5C 1221.88,359.611 1221.38,359.944 1221,360.5C 1220.5,362.473 1220.34,364.473 1220.5,366.5C 1218.84,375.092 1217.51,383.758 1216.5,392.5C 1213.7,399.812 1208.87,405.145 1202,408.5C 1197.52,406.805 1195.68,403.471 1196.5,398.5C 1181.6,400.082 1166.6,401.748 1151.5,403.5C 1149.5,403.5 1147.5,403.5 1145.5,403.5C 1145.5,404.5 1145.5,405.5 1145.5,406.5C 1141.73,414.924 1136.9,415.591 1131,408.5C 1130.26,406.1 1129.42,403.767 1128.5,401.5C 1129.11,383.183 1128.95,364.849 1128,346.5C 1127.77,345.263 1127.27,344.263 1126.5,343.5C 1126.78,341.585 1126.45,339.919 1125.5,338.5C 1123.31,336.645 1121.97,334.311 1121.5,331.5C 1122.82,326.259 1125.98,324.593 1131,326.5C 1134.34,327.947 1137.51,329.614 1140.5,331.5C 1146.42,330.098 1152.42,329.265 1158.5,329C 1161.29,327.705 1163.96,326.205 1166.5,324.5C 1177.25,323.42 1187.92,322.42 1198.5,321.5C 1201.12,320.355 1203.12,318.521 1204.5,316C 1207.17,315.333 1209.83,315.333 1212.5,316C 1218.05,320.035 1223.55,324.201 1229,328.5C 1230.33,333.585 1229.17,337.919 1225.5,341.5 Z"/></g>
<g><path style="opacity:1" fill="#f3f3f3" d="M 400.5,358.5 C 396.733,359.795 392.733,360.461 388.5,360.5C 387.03,352.26 386.364,343.927 386.5,335.5C 392.273,335.562 397.939,334.896 403.5,333.5C 405.262,333.643 406.929,333.309 408.5,332.5C 410.22,340.397 410.886,348.397 410.5,356.5C 406.84,356.159 403.507,356.825 400.5,358.5 Z"/></g>
<g><path style="opacity:1" fill="#bcbbbd" d="M 681.5,271.5 C 682.499,337.331 682.832,403.331 682.5,469.5C 679.287,469.81 676.287,469.477 673.5,468.5C 675.833,468.5 678.167,468.5 680.5,468.5C 681.499,403.002 681.832,337.335 681.5,271.5 Z"/></g>
<g><path style="opacity:1" fill="#848486" d="M 1194.5,332.5 C 1190.8,334.245 1186.8,335.245 1182.5,335.5C 1186.2,333.755 1190.2,332.755 1194.5,332.5 Z"/></g>
<g><path style="opacity:1" fill="#efefef" d="M 1202.5,351.5 C 1200.99,359.284 1200.32,367.284 1200.5,375.5C 1200.38,378.86 1200.05,382.193 1199.5,385.5C 1196.72,385.279 1194.05,385.612 1191.5,386.5C 1187.21,387.295 1182.88,387.628 1178.5,387.5C 1178.5,381.167 1178.5,374.833 1178.5,368.5C 1184.33,367.478 1190.33,366.645 1196.5,366C 1200.03,362.61 1200.37,358.943 1197.5,355C 1192.39,353.39 1187.39,353.223 1182.5,354.5C 1181.5,354.5 1180.5,354.5 1179.5,354.5C 1179.55,350.802 1179.89,347.135 1180.5,343.5C 1182.08,340.926 1181.74,338.593 1179.5,336.5C 1180.32,335.614 1181.32,335.281 1182.5,335.5C 1186.8,335.245 1190.8,334.245 1194.5,332.5C 1202.51,329.669 1205.84,332.503 1204.5,341C 1204.22,344.629 1203.55,348.129 1202.5,351.5 Z"/></g>
<g><path style="opacity:1" fill="#abaaab" d="M 428.5,330.5 C 430.439,331.014 431.439,332.347 431.5,334.5C 429.364,339.026 428.031,343.692 427.5,348.5C 427.149,343.5 427.816,338.667 429.5,334C 429.352,332.744 429.018,331.577 428.5,330.5 Z"/></g>
<g><path style="opacity:1" fill="#9b9b9a" d="M 400.5,358.5 C 403.507,356.825 406.84,356.159 410.5,356.5C 410.886,348.397 410.22,340.397 408.5,332.5C 406.929,333.309 405.262,333.643 403.5,333.5C 405.515,332.076 407.848,331.41 410.5,331.5C 411.253,340.146 411.587,348.812 411.5,357.5C 407.802,357.552 404.135,357.886 400.5,358.5 Z"/></g>
<g><path style="opacity:1" fill="#100d0c" d="M 1729.5,291.5 C 1729.75,293.858 1729.08,295.858 1727.5,297.5C 1725.58,297.795 1723.91,298.628 1722.5,300C 1716.51,300.499 1710.51,300.666 1704.5,300.5C 1704.5,301.5 1704.5,302.5 1704.5,303.5C 1709.14,303.523 1713.31,304.856 1717,307.5C 1718.3,309.365 1718.63,311.365 1718,313.5C 1712.48,317.833 1707.31,322.499 1702.5,327.5C 1701.96,327.56 1701.62,327.893 1701.5,328.5C 1703.3,329.788 1704.97,329.788 1706.5,328.5C 1716.82,326.822 1727.16,324.489 1737.5,321.5C 1744.25,322.059 1749.75,325.059 1754,330.5C 1754.67,332.833 1754.67,335.167 1754,337.5C 1753.29,338.381 1752.46,339.047 1751.5,339.5C 1743.53,338.624 1735.53,337.958 1727.5,337.5C 1723.65,337.501 1719.98,337.835 1716.5,338.5C 1710.44,339.741 1704.44,340.741 1698.5,341.5C 1698.17,341.5 1697.83,341.5 1697.5,341.5C 1692.82,341.334 1688.15,341.501 1683.5,342C 1682.26,342.232 1681.26,342.732 1680.5,343.5C 1666.8,345.415 1653.3,348.082 1640,351.5C 1636.97,351.269 1634.13,350.436 1631.5,349C 1630.35,346.822 1628.69,345.322 1626.5,344.5C 1621.68,346.088 1616.68,347.088 1611.5,347.5C 1609.59,350.684 1608.92,354.351 1609.5,358.5C 1608.2,367.774 1608.2,377.107 1609.5,386.5C 1617.33,383.011 1625,379.344 1632.5,375.5C 1632.5,376.5 1632.5,377.5 1632.5,378.5C 1626.7,384.798 1620.7,390.965 1614.5,397C 1603.21,405.286 1592.21,413.952 1581.5,423C 1578.74,426.066 1576.41,429.399 1574.5,433C 1572.17,433.667 1569.83,433.667 1567.5,433C 1561.62,428.79 1556.79,423.623 1553,417.5C 1552.18,414.773 1552.35,412.106 1553.5,409.5C 1557.11,408.738 1560.78,408.238 1564.5,408C 1573.29,404.106 1581.96,399.939 1590.5,395.5C 1591.5,381.516 1591.83,367.516 1591.5,353.5C 1590.17,353.5 1588.83,353.5 1587.5,353.5C 1582.96,353.433 1578.63,354.099 1574.5,355.5C 1570.69,353.427 1567.03,351.094 1563.5,348.5C 1562.17,347.167 1562.17,345.833 1563.5,344.5C 1572.7,341.901 1582.03,339.901 1591.5,338.5C 1591.67,324.496 1591.5,310.496 1591,296.5C 1583.52,291.364 1583.69,286.698 1591.5,282.5C 1599.45,284.615 1606.62,288.281 1613,293.5C 1611.64,301.353 1610.81,309.52 1610.5,318C 1610.83,322.833 1611.17,327.667 1611.5,332.5C 1618.72,328.124 1624.88,329.457 1630,336.5C 1630.49,337.793 1630.66,339.127 1630.5,340.5C 1632.56,340.483 1634.56,340.15 1636.5,339.5C 1641.18,339.666 1645.85,339.499 1650.5,339C 1652.72,338.434 1654.72,337.6 1656.5,336.5C 1659.73,336.795 1662.73,336.129 1665.5,334.5C 1662.91,333.416 1660.75,331.749 1659,329.5C 1658.61,325.136 1657.27,321.136 1655,317.5C 1654.22,315.613 1654.39,313.946 1655.5,312.5C 1656.4,311.791 1656.74,310.791 1656.5,309.5C 1653.5,309.5 1650.5,309.5 1647.5,309.5C 1644.88,308.055 1642.38,306.389 1640,304.5C 1639.12,302.326 1639.62,300.659 1641.5,299.5C 1647.51,299.666 1653.51,299.499 1659.5,299C 1663.94,298.015 1668.27,296.848 1672.5,295.5C 1676.32,295.031 1679.99,294.031 1683.5,292.5C 1679.35,289.241 1677.18,284.907 1677,279.5C 1674.46,276.163 1671.63,273.163 1668.5,270.5C 1669.53,267.14 1671.87,265.473 1675.5,265.5C 1682.96,266.622 1689.8,269.288 1696,273.5C 1698.38,279.693 1697.54,285.36 1693.5,290.5C 1697.28,291.792 1700.62,290.959 1703.5,288C 1708.41,286.799 1713.25,285.633 1718,284.5C 1723.18,284.495 1727.01,286.828 1729.5,291.5 Z"/></g>
<g><path style="opacity:1" fill="#cacbcc" d="M 1675.5,320.5 C 1675.5,323.833 1675.5,327.167 1675.5,330.5C 1678.48,330.963 1681.48,331.296 1684.5,331.5C 1680.47,332.176 1676.47,333.176 1672.5,334.5C 1673.89,329.866 1674.89,325.199 1675.5,320.5 Z"/></g>
<g><path style="opacity:1" fill="#747575" d="M 1702.5,327.5 C 1703.57,328.434 1704.9,328.768 1706.5,328.5C 1704.97,329.788 1703.3,329.788 1701.5,328.5C 1701.62,327.893 1701.96,327.56 1702.5,327.5 Z"/></g>
<g><path style="opacity:1" fill="#f1f1f1" d="M 1692.5,303.5 C 1693.83,303.5 1695.17,303.5 1696.5,303.5C 1696.5,306.167 1696.5,308.833 1696.5,311.5C 1694.31,318.314 1691.64,324.981 1688.5,331.5C 1687.17,331.5 1685.83,331.5 1684.5,331.5C 1681.48,331.296 1678.48,330.963 1675.5,330.5C 1675.5,327.167 1675.5,323.833 1675.5,320.5C 1674.36,314.541 1670.69,311.541 1664.5,311.5C 1664.5,310.5 1664.5,309.5 1664.5,308.5C 1673.79,306.511 1683.12,304.845 1692.5,303.5 Z"/></g>
<g><path style="opacity:1" fill="#616161" d="M 1647.5,309.5 C 1650.5,309.5 1653.5,309.5 1656.5,309.5C 1656.74,310.791 1656.4,311.791 1655.5,312.5C 1653.14,310.902 1650.48,309.902 1647.5,309.5 Z"/></g>
<g><path style="opacity:1" fill="#838482" d="M 1692.5,303.5 C 1693.92,302.549 1695.59,302.216 1697.5,302.5C 1697.81,305.713 1697.48,308.713 1696.5,311.5C 1696.5,308.833 1696.5,306.167 1696.5,303.5C 1695.17,303.5 1693.83,303.5 1692.5,303.5 Z"/></g>
<g><path style="opacity:1" fill="#3a3a39" d="M 1672.5,295.5 C 1668.27,296.848 1663.94,298.015 1659.5,299C 1653.51,299.499 1647.51,299.666 1641.5,299.5C 1651.7,298.204 1662.03,296.871 1672.5,295.5 Z"/></g>
<g><path style="opacity:1" fill="#312f2f" d="M 1716.5,338.5 C 1719.98,337.835 1723.65,337.501 1727.5,337.5C 1735.53,337.958 1743.53,338.624 1751.5,339.5C 1746.98,340.678 1742.31,340.678 1737.5,339.5C 1730.69,338.509 1723.69,338.175 1716.5,338.5 Z"/></g>
<g><path style="opacity:1" fill="#a9a9a8" d="M 1162.5,338.5 C 1159.48,338.704 1156.48,339.037 1153.5,339.5C 1154.95,338.06 1156.78,337.393 1159,337.5C 1160.38,337.514 1161.55,337.848 1162.5,338.5 Z"/></g>
<g><path style="opacity:1" fill="#f1f1f1" d="M 1162.5,338.5 C 1163.65,344.987 1163.82,351.654 1163,358.5C 1156.64,360.204 1150.14,361.204 1143.5,361.5C 1143.5,354.5 1143.5,347.5 1143.5,340.5C 1146.9,340.658 1150.24,340.324 1153.5,339.5C 1156.48,339.037 1159.48,338.704 1162.5,338.5 Z"/></g>
<g><path style="opacity:1" fill="#9b9b9b" d="M 1656.5,336.5 C 1654.72,337.6 1652.72,338.434 1650.5,339C 1645.85,339.499 1641.18,339.666 1636.5,339.5C 1643.09,338.805 1649.76,337.805 1656.5,336.5 Z"/></g>
<g><path style="opacity:1" fill="#bdbcbd" d="M 1716.5,338.5 C 1723.69,338.175 1730.69,338.509 1737.5,339.5C 1724.75,339.225 1712.08,339.892 1699.5,341.5C 1699.17,341.5 1698.83,341.5 1698.5,341.5C 1704.44,340.741 1710.44,339.741 1716.5,338.5 Z"/></g>
<g><path style="opacity:1" fill="#8c8c8c" d="M 1697.5,341.5 C 1692,342.365 1686.33,343.032 1680.5,343.5C 1681.26,342.732 1682.26,342.232 1683.5,342C 1688.15,341.501 1692.82,341.334 1697.5,341.5 Z"/></g>
<g><path style="opacity:1" fill="#f2f2f2" d="M 1697.5,341.5 C 1697.83,341.5 1698.17,341.5 1698.5,341.5C 1698.83,341.5 1699.17,341.5 1699.5,341.5C 1704.32,342.326 1709.32,342.826 1714.5,343C 1716.89,344.861 1719.55,346.194 1722.5,347C 1721.18,347.816 1720.51,348.983 1720.5,350.5C 1717.42,348.092 1714.09,346.092 1710.5,344.5C 1709.45,344.68 1708.45,345.013 1707.5,345.5C 1705.55,347.297 1703.88,349.297 1702.5,351.5C 1699.59,352.241 1696.59,352.741 1693.5,353C 1692.94,353.383 1692.61,353.883 1692.5,354.5C 1680.8,355.745 1669.13,357.745 1657.5,360.5C 1654.44,359.952 1651.44,359.119 1648.5,358C 1641.3,355.975 1638.13,358.475 1639,365.5C 1640.4,366.731 1641.57,368.064 1642.5,369.5C 1642.29,373.898 1642.63,378.232 1643.5,382.5C 1640.91,386.946 1640.91,391.446 1643.5,396C 1643.14,398.261 1642.47,400.427 1641.5,402.5C 1642.17,404.5 1642.83,406.5 1643.5,408.5C 1641.95,409.452 1640.29,409.785 1638.5,409.5C 1638.95,403.877 1637.95,398.544 1635.5,393.5C 1638.31,390.722 1639.14,387.389 1638,383.5C 1636.41,382.624 1634.91,381.624 1633.5,380.5C 1634.48,378.902 1634.65,377.235 1634,375.5C 1633.77,376.737 1633.27,377.737 1632.5,378.5C 1632.5,377.5 1632.5,376.5 1632.5,375.5C 1625,379.344 1617.33,383.011 1609.5,386.5C 1608.2,377.107 1608.2,367.774 1609.5,358.5C 1610.23,354.939 1610.9,351.273 1611.5,347.5C 1616.68,347.088 1621.68,346.088 1626.5,344.5C 1628.69,345.322 1630.35,346.822 1631.5,349C 1634.13,350.436 1636.97,351.269 1640,351.5C 1653.3,348.082 1666.8,345.415 1680.5,343.5C 1686.33,343.032 1692,342.365 1697.5,341.5 Z"/></g>
<g><path style="opacity:1" fill="#7b7b7b" d="M 1611.5,347.5 C 1610.9,351.273 1610.23,354.939 1609.5,358.5C 1608.92,354.351 1609.59,350.684 1611.5,347.5 Z"/></g>
<g><path style="opacity:1" fill="#484848" d="M 1702.5,351.5 C 1699.63,353.31 1696.29,354.31 1692.5,354.5C 1692.61,353.883 1692.94,353.383 1693.5,353C 1696.59,352.741 1699.59,352.241 1702.5,351.5 Z"/></g>
<g><path style="opacity:1" fill="#f2f2f2" d="M 456.5,345.5 C 455.883,345.611 455.383,345.944 455,346.5C 454.503,349.146 454.336,351.813 454.5,354.5C 454.509,363.194 454.009,371.861 453,380.5C 452.381,383.579 450.881,386.079 448.5,388C 442.843,388.499 437.176,388.666 431.5,388.5C 430.5,388.5 429.5,388.5 428.5,388.5C 428.5,381.5 428.5,374.5 428.5,367.5C 432.514,367.666 436.514,367.499 440.5,367C 441.737,366.768 442.737,366.268 443.5,365.5C 450.403,365.006 452.903,361.339 451,354.5C 448.695,351.229 445.528,349.563 441.5,349.5C 436.687,350.261 432.02,351.261 427.5,352.5C 427.5,351.167 427.5,349.833 427.5,348.5C 428.031,343.692 429.364,339.026 431.5,334.5C 431.439,332.347 430.439,331.014 428.5,330.5C 431.903,329.075 435.57,328.242 439.5,328C 440.056,327.617 440.389,327.117 440.5,326.5C 445.74,325.551 451.073,325.218 456.5,325.5C 456.5,332.167 456.5,338.833 456.5,345.5 Z"/></g>
<g><path style="opacity:1" fill="#9e9e9f" d="M 1587.5,353.5 C 1584.17,354.285 1580.84,355.285 1577.5,356.5C 1576.27,356.48 1575.27,356.147 1574.5,355.5C 1578.63,354.099 1582.96,353.433 1587.5,353.5 Z"/></g>
<g><path style="opacity:1" fill="#4c4a49" d="M 936.5,355.5 C 934.898,357.074 932.898,357.741 930.5,357.5C 932.102,355.926 934.102,355.259 936.5,355.5 Z"/></g>
<g><path style="opacity:1" fill="#f4f4f4" d="M 1125.5,338.5 C 1126.45,339.919 1126.78,341.585 1126.5,343.5C 1127.51,363.004 1128.18,382.338 1128.5,401.5C 1129.42,403.767 1130.26,406.1 1131,408.5C 1136.9,415.591 1141.73,414.924 1145.5,406.5C 1147.36,405.158 1149.36,404.158 1151.5,403.5C 1166.6,401.748 1181.6,400.082 1196.5,398.5C 1195.68,403.471 1197.52,406.805 1202,408.5C 1208.87,405.145 1213.7,399.812 1216.5,392.5C 1217.51,383.758 1218.84,375.092 1220.5,366.5C 1221.41,364.343 1222.07,362.01 1222.5,359.5C 1223.11,354.188 1223.61,348.854 1224,343.5C 1224.28,342.584 1224.78,341.918 1225.5,341.5C 1225.62,345.838 1225.96,346.172 1226.5,342.5C 1230.07,342.759 1231.4,344.759 1230.5,348.5C 1232.9,348.448 1235.24,348.781 1237.5,349.5C 1232.03,353.997 1232.19,358.331 1238,362.5C 1238.96,380.57 1238.46,398.57 1236.5,416.5C 1223.42,416.662 1210.42,417.329 1197.5,418.5C 1194.12,418.068 1191.12,418.735 1188.5,420.5C 1180.81,420.46 1173.15,420.793 1165.5,421.5C 1161.84,421.723 1158.5,422.723 1155.5,424.5C 1147.4,424.173 1139.4,424.839 1131.5,426.5C 1126.17,426.5 1120.83,426.5 1115.5,426.5C 1115.2,413.117 1115.54,399.784 1116.5,386.5C 1118.53,383.687 1118.86,380.687 1117.5,377.5C 1121.72,375.178 1121.39,373.678 1116.5,373C 1117.5,372.5 1118.5,372 1119.5,371.5C 1121.46,363.744 1121.46,356.077 1119.5,348.5C 1119.81,345.468 1120.31,342.468 1121,339.5C 1121.74,338.359 1122.57,338.359 1123.5,339.5C 1124.31,341.766 1124.81,344.1 1125,346.5C 1125.5,343.854 1125.66,341.187 1125.5,338.5 Z"/></g>
<g><path style="opacity:1" fill="#5d5d5d" d="M 1180.5,343.5 C 1179.89,347.135 1179.55,350.802 1179.5,354.5C 1180.5,354.5 1181.5,354.5 1182.5,354.5C 1181.43,355.434 1180.1,355.768 1178.5,355.5C 1178.08,351.183 1178.75,347.183 1180.5,343.5 Z"/></g>
<g><path style="opacity:1" fill="#929290" d="M 863.5,340.5 C 864.919,339.549 866.585,339.216 868.5,339.5C 868.828,350.679 868.495,361.679 867.5,372.5C 867.5,361.833 867.5,351.167 867.5,340.5C 866.167,340.5 864.833,340.5 863.5,340.5 Z"/></g>
<g><path style="opacity:1" fill="#626262" d="M 1126.5,343.5 C 1127.27,344.263 1127.77,345.263 1128,346.5C 1128.95,364.849 1129.11,383.183 1128.5,401.5C 1128.18,382.338 1127.51,363.004 1126.5,343.5 Z"/></g>
<g><path style="opacity:1" fill="#100d0c" d="M 1720.5,350.5 C 1725.04,352.03 1728.87,354.696 1732,358.5C 1733.37,360.695 1733.71,363.029 1733,365.5C 1725.78,371.026 1722.11,378.359 1722,387.5C 1721.67,392.167 1721.33,396.833 1721,401.5C 1718.25,405.776 1714.42,408.109 1709.5,408.5C 1705.52,409.026 1702.52,407.526 1700.5,404C 1698.1,403.186 1695.76,403.353 1693.5,404.5C 1696.04,406.267 1698.7,407.767 1701.5,409C 1703.36,410.182 1704.36,411.849 1704.5,414C 1699.04,424.553 1698.21,435.386 1702,446.5C 1703.17,447.893 1704.67,448.727 1706.5,449C 1715.83,449.667 1725.17,449.667 1734.5,449C 1737.43,448.728 1739.93,447.562 1742,445.5C 1742.86,442.31 1744.03,439.31 1745.5,436.5C 1746.58,433.373 1747.25,430.04 1747.5,426.5C 1748,423.513 1748.5,420.513 1749,417.5C 1750.33,416.167 1751.67,416.167 1753,417.5C 1753.75,428.755 1758.09,438.421 1766,446.5C 1768.73,452.701 1767.56,458.034 1762.5,462.5C 1758.81,465.254 1754.81,466.92 1750.5,467.5C 1735.88,468.467 1721.22,468.8 1706.5,468.5C 1706.03,467.094 1705.03,466.427 1703.5,466.5C 1693.8,464.642 1687.3,458.976 1684,449.5C 1683.83,436.327 1683.33,423.327 1682.5,410.5C 1682.5,408.833 1682.5,407.167 1682.5,405.5C 1680.14,405.337 1677.81,405.503 1675.5,406C 1674.94,406.383 1674.61,406.883 1674.5,407.5C 1673.13,407.343 1671.79,407.51 1670.5,408C 1675.28,410.073 1677.45,413.573 1677,418.5C 1669.04,431.143 1659.54,442.643 1648.5,453C 1634.75,462.017 1619.75,467.517 1603.5,469.5C 1603.32,467.019 1604.32,465.186 1606.5,464C 1627.72,455.401 1644.05,441.234 1655.5,421.5C 1657.44,417.872 1659.44,414.206 1661.5,410.5C 1658.91,409.79 1656.91,410.79 1655.5,413.5C 1653.93,414.309 1652.26,414.643 1650.5,414.5C 1648.83,412.5 1647.17,410.5 1645.5,408.5C 1646.23,395.11 1645.23,382.11 1642.5,369.5C 1641.57,368.064 1640.4,366.731 1639,365.5C 1638.13,358.475 1641.3,355.975 1648.5,358C 1651.44,359.119 1654.44,359.952 1657.5,360.5C 1669.13,357.745 1680.8,355.745 1692.5,354.5C 1696.29,354.31 1699.63,353.31 1702.5,351.5C 1703.88,349.297 1705.55,347.297 1707.5,345.5C 1708.45,345.013 1709.45,344.68 1710.5,344.5C 1714.09,346.092 1717.42,348.092 1720.5,350.5 Z"/></g>
<g><path style="opacity:1" fill="#a7a7a7" d="M 1705.5,362.5 C 1699.89,361.325 1694.22,361.325 1688.5,362.5C 1691.53,360.981 1694.86,360.315 1698.5,360.5C 1701.27,360.529 1703.6,361.195 1705.5,362.5 Z"/></g>
<g><path style="opacity:1" fill="#f2f1f2" d="M 367.5,334.5 C 368.495,345.321 368.828,356.321 368.5,367.5C 370.008,379.906 371.008,392.24 371.5,404.5C 372.705,410.204 375.705,414.704 380.5,418C 386.81,418.195 390.143,415.029 390.5,408.5C 395.552,408.55 400.552,408.05 405.5,407C 406.416,406.722 407.082,406.222 407.5,405.5C 408.167,405.5 408.833,405.5 409.5,405.5C 414.511,405.666 419.511,405.499 424.5,405C 425.416,404.722 426.082,404.222 426.5,403.5C 433.861,402.72 441.194,401.72 448.5,400.5C 448.547,403.568 449.047,406.568 450,409.5C 451.334,413.104 453.834,414.271 457.5,413C 464.112,408.593 468.945,402.759 472,395.5C 473.714,384.548 475.214,373.548 476.5,362.5C 477.924,360.485 478.59,358.152 478.5,355.5C 478.182,350.968 478.515,346.634 479.5,342.5C 479.334,348.176 479.501,353.843 480,359.5C 480.308,358.692 480.808,358.025 481.5,357.5C 483.786,358.42 486.119,358.42 488.5,357.5C 488.457,353.107 488.957,352.774 490,356.5C 490.191,354.292 490.691,352.292 491.5,350.5C 491.192,352.924 491.526,355.257 492.5,357.5C 494.858,359.024 496.691,361.024 498,363.5C 498.667,379.833 498.667,396.167 498,412.5C 496.961,413.244 496.461,414.244 496.5,415.5C 495.549,416.919 495.216,418.585 495.5,420.5C 488.313,420.175 481.313,420.509 474.5,421.5C 472.102,421.259 470.102,421.926 468.5,423.5C 461.847,424.054 455.18,424.388 448.5,424.5C 445.15,424.335 441.817,424.502 438.5,425C 437.584,425.278 436.918,425.778 436.5,426.5C 430.203,427.32 423.869,427.653 417.5,427.5C 414.813,427.336 412.146,427.503 409.5,428C 408.584,428.278 407.918,428.778 407.5,429.5C 401.203,430.32 394.869,430.653 388.5,430.5C 385.772,430.171 383.438,430.837 381.5,432.5C 375.175,433.166 368.841,433.832 362.5,434.5C 360.571,434.46 358.738,434.127 357,433.5C 355.544,418.192 355.21,402.859 356,387.5C 359.717,381.804 358.884,376.804 353.5,372.5C 357.794,372.423 361.961,371.756 366,370.5C 366.249,371.624 366.749,372.624 367.5,373.5C 367.833,373.333 368.167,373.167 368.5,373C 367.511,360.246 367.178,347.413 367.5,334.5 Z"/></g>
<g><path style="opacity:1" fill="#6d6c6a" d="M 478.5,355.5 C 478.59,358.152 477.924,360.485 476.5,362.5C 476.41,359.848 477.076,357.515 478.5,355.5 Z"/></g>
<g><path style="opacity:1" fill="#8a8989" d="M 456.5,345.5 C 456.324,348.727 455.657,351.727 454.5,354.5C 454.336,351.813 454.503,349.146 455,346.5C 455.383,345.944 455.883,345.611 456.5,345.5 Z"/></g>
<g><path style="opacity:1" fill="#f1f1f1" d="M 1705.5,362.5 C 1705.78,367.595 1705.45,372.595 1704.5,377.5C 1703.88,377.611 1703.38,377.944 1703,378.5C 1702.5,383.155 1702.33,387.821 1702.5,392.5C 1696.66,393.671 1690.66,394.671 1684.5,395.5C 1681.81,395.336 1679.15,395.503 1676.5,396C 1675.94,396.383 1675.61,396.883 1675.5,397.5C 1672.12,397.46 1668.79,397.793 1665.5,398.5C 1664.17,398.5 1662.83,398.5 1661.5,398.5C 1660.91,394.029 1661.58,390.029 1663.5,386.5C 1670.98,386.216 1678.31,385.216 1685.5,383.5C 1689.04,383.247 1692.37,382.581 1695.5,381.5C 1698.65,377.119 1697.65,374.119 1692.5,372.5C 1687.59,371.031 1682.93,371.698 1678.5,374.5C 1672.31,376.531 1665.98,377.698 1659.5,378C 1658.54,374.606 1658.21,371.106 1658.5,367.5C 1668.37,365.245 1678.37,363.578 1688.5,362.5C 1694.22,361.325 1699.89,361.325 1705.5,362.5 Z"/></g>
<g><path style="opacity:1" fill="#8f8d8f" d="M 1222.5,359.5 C 1222.07,362.01 1221.41,364.343 1220.5,366.5C 1220.34,364.473 1220.5,362.473 1221,360.5C 1221.38,359.944 1221.88,359.611 1222.5,359.5 Z"/></g>
<g><path style="opacity:1" fill="#c1c1c0" d="M 1091.5,367.5 C 1096.98,366.348 1102.65,366.182 1108.5,367C 1106.83,367.333 1105.17,367.667 1103.5,368C 1104.74,368.232 1105.74,368.732 1106.5,369.5C 1101.72,367.853 1096.72,367.186 1091.5,367.5 Z"/></g>
<g><path style="opacity:1" fill="#f4f4f4" d="M 916.5,326.5 C 917.962,327.458 919.295,328.624 920.5,330C 922.382,330.198 924.048,330.698 925.5,331.5C 931.566,332.829 937.566,332.495 943.5,330.5C 944.833,330.5 946.167,330.5 947.5,330.5C 947.5,338.5 947.5,346.5 947.5,354.5C 943.629,354.185 939.962,354.518 936.5,355.5C 934.102,355.259 932.102,355.926 930.5,357.5C 921.889,357.389 913.389,358.055 905,359.5C 904.551,364.427 906.718,367.927 911.5,370C 916.511,370.388 921.511,370.222 926.5,369.5C 929.33,369.037 931.997,368.371 934.5,367.5C 936.607,366.532 938.941,366.198 941.5,366.5C 942.15,370.14 943.65,373.473 946,376.5C 946.499,381.823 946.666,387.156 946.5,392.5C 945.167,392.5 943.833,392.5 942.5,392.5C 937.766,393.666 933.1,394.666 928.5,395.5C 923.456,395.173 918.456,395.506 913.5,396.5C 911.816,397.854 911.316,399.521 912,401.5C 914.593,403.549 917.093,405.715 919.5,408C 922.688,409.316 926.022,409.816 929.5,409.5C 934.803,408.703 940.136,408.036 945.5,407.5C 945.5,416.167 945.5,424.833 945.5,433.5C 927.621,436.049 909.621,437.549 891.5,438C 890.196,438.804 889.529,439.971 889.5,441.5C 890.844,443.529 892.177,445.529 893.5,447.5C 892.244,447.461 891.244,447.961 890.5,449C 891.678,449.967 893.011,450.467 894.5,450.5C 895.521,451.002 895.688,451.668 895,452.5C 893,451.167 891,451.167 889,452.5C 888.363,450.697 887.197,449.364 885.5,448.5C 884.85,450.184 883.85,451.517 882.5,452.5C 885.13,445.1 886.13,437.433 885.5,429.5C 885.143,419.994 884.476,410.66 883.5,401.5C 883.334,392.827 883.5,384.16 884,375.5C 889.708,369.624 895.541,363.958 901.5,358.5C 903.734,356.619 905.067,354.285 905.5,351.5C 902.729,351.421 900.063,351.921 897.5,353C 892.923,356.115 888.257,358.949 883.5,361.5C 883.334,352.827 883.5,344.16 884,335.5C 889.373,332.234 895.207,330.901 901.5,331.5C 903.435,330.85 905.435,330.517 907.5,330.5C 909.554,329.391 911.721,328.391 914,327.5C 915.726,329.098 916.559,328.765 916.5,326.5 Z"/></g>
<g><path style="opacity:1" fill="#909091" d="M 943.5,330.5 C 937.566,332.495 931.566,332.829 925.5,331.5C 931.5,331.167 937.5,330.833 943.5,330.5 Z"/></g>
<g><path style="opacity:1" fill="#7a7b7b" d="M 1202.5,351.5 C 1202.48,359.701 1201.82,367.701 1200.5,375.5C 1200.32,367.284 1200.99,359.284 1202.5,351.5 Z"/></g>
<g><path style="opacity:1" fill="#6b6c6e" d="M 1692.5,372.5 C 1687.73,372.538 1683.06,373.204 1678.5,374.5C 1682.93,371.698 1687.59,371.031 1692.5,372.5 Z"/></g>
<g><path style="opacity:1" fill="#767573" d="M 525.5,375.5 C 525.741,377.898 525.074,379.898 523.5,381.5C 523.259,379.102 523.926,377.102 525.5,375.5 Z"/></g>
<g><path style="opacity:1" fill="#939392" d="M 1695.5,381.5 C 1692.37,382.581 1689.04,383.247 1685.5,383.5C 1688.51,381.825 1691.84,381.159 1695.5,381.5 Z"/></g>
<g><path style="opacity:1" fill="#8f8e8d" d="M 1704.5,377.5 C 1703.93,382.637 1703.27,387.637 1702.5,392.5C 1702.33,387.821 1702.5,383.155 1703,378.5C 1703.38,377.944 1703.88,377.611 1704.5,377.5 Z"/></g>
<g><path style="opacity:1" fill="#615f60" d="M 681.5,271.5 C 681.832,337.335 681.499,403.002 680.5,468.5C 679.51,402.862 679.177,337.196 679.5,271.5C 677.5,271.5 675.5,271.5 673.5,271.5C 676.09,268.941 678.757,268.941 681.5,271.5 Z"/></g>
<g><path style="opacity:1" fill="#7f8081" d="M 964.5,380.5 C 964.708,382.92 964.374,385.253 963.5,387.5C 964.325,388.386 965.325,388.719 966.5,388.5C 965.432,389.434 964.099,389.768 962.5,389.5C 962.676,386.273 963.343,383.273 964.5,380.5 Z"/></g>
<g><path style="opacity:1" fill="#9e9c9f" d="M 1663.5,386.5 C 1661.58,390.029 1660.91,394.029 1661.5,398.5C 1662.83,398.5 1664.17,398.5 1665.5,398.5C 1664.08,399.451 1662.41,399.784 1660.5,399.5C 1660.5,394.833 1660.5,390.167 1660.5,385.5C 1661.79,385.263 1662.79,385.596 1663.5,386.5 Z"/></g>
<g><path style="opacity:1" fill="#3d3c3a" d="M 942.5,392.5 C 941.4,393.558 940.066,394.392 938.5,395C 935.183,395.498 931.85,395.665 928.5,395.5C 933.1,394.666 937.766,393.666 942.5,392.5 Z"/></g>
<g><path style="opacity:1" fill="#676769" d="M 1684.5,395.5 C 1681.66,396.344 1678.66,397.01 1675.5,397.5C 1675.61,396.883 1675.94,396.383 1676.5,396C 1679.15,395.503 1681.81,395.336 1684.5,395.5 Z"/></g>
<g><path style="opacity:1" fill="#0f0c0a" d="M 525.5,375.5 C 523.926,377.102 523.259,379.102 523.5,381.5C 523.667,401.169 523.5,420.836 523,440.5C 522.59,441.901 522.09,443.234 521.5,444.5C 520.182,449.463 518.848,454.463 517.5,459.5C 514.898,465.62 510.898,470.786 505.5,475C 503.5,475.667 501.5,475.667 499.5,475C 497.548,472.926 495.715,470.759 494,468.5C 492.808,462.423 491.308,456.423 489.5,450.5C 490.143,447.537 491.143,444.703 492.5,442C 492.355,441.228 492.022,440.561 491.5,440C 480.628,439.244 469.961,439.744 459.5,441.5C 455.96,441.753 452.627,442.419 449.5,443.5C 442.5,443.5 435.5,443.5 428.5,443.5C 426.302,443.12 424.635,443.787 423.5,445.5C 418.133,446.117 412.799,446.783 407.5,447.5C 405.102,447.259 403.102,447.926 401.5,449.5C 400.833,449.5 400.167,449.5 399.5,449.5C 390.429,449.707 381.429,450.541 372.5,452C 370.68,452.2 369.347,453.034 368.5,454.5C 364.454,455.013 360.454,455.846 356.5,457C 352.2,460.298 348.2,463.965 344.5,468C 343.167,468.667 341.833,468.667 340.5,468C 333,463.167 326.833,457 322,449.5C 319.574,439.088 323.741,434.421 334.5,435.5C 334.863,434.817 335.196,434.15 335.5,433.5C 336.658,424.343 336.824,415.009 336,405.5C 335.76,403.148 334.927,401.148 333.5,399.5C 333.666,394.156 333.499,388.823 333,383.5C 327.102,379.826 325.102,374.493 327,367.5C 330.256,365.571 333.756,365.071 337.5,366C 342.921,367.913 348.254,370.08 353.5,372.5C 358.884,376.804 359.717,381.804 356,387.5C 355.21,402.859 355.544,418.192 357,433.5C 358.738,434.127 360.571,434.46 362.5,434.5C 368.841,433.832 375.175,433.166 381.5,432.5C 384.067,432.279 386.401,431.612 388.5,430.5C 394.869,430.653 401.203,430.32 407.5,429.5C 411.04,429.247 414.373,428.581 417.5,427.5C 423.869,427.653 430.203,427.32 436.5,426.5C 440.684,426.149 444.684,425.482 448.5,424.5C 455.18,424.388 461.847,424.054 468.5,423.5C 470.898,423.741 472.898,423.074 474.5,421.5C 481.833,421.5 489.167,421.5 496.5,421.5C 496.5,419.5 496.5,417.5 496.5,415.5C 496.461,414.244 496.961,413.244 498,412.5C 498.667,396.167 498.667,379.833 498,363.5C 496.691,361.024 494.858,359.024 492.5,357.5C 491.526,355.257 491.192,352.924 491.5,350.5C 492.968,349.194 494.301,347.694 495.5,346C 497.423,345.192 499.423,344.692 501.5,344.5C 509.916,347.542 517.916,351.375 525.5,356C 528.167,358 529.5,360.667 529.5,364C 528.015,367.798 526.682,371.631 525.5,375.5 Z"/></g>
<g><path style="opacity:1" fill="#a3a2a3" d="M 389.5,382.5 C 390.483,386.298 390.817,390.298 390.5,394.5C 392.5,394.5 394.5,394.5 396.5,394.5C 394.393,395.468 392.059,395.802 389.5,395.5C 389.5,391.167 389.5,386.833 389.5,382.5 Z"/></g>
<g><path style="opacity:1" fill="#c5c5c6" d="M 443.5,365.5 C 442.737,366.268 441.737,366.768 440.5,367C 436.514,367.499 432.514,367.666 428.5,367.5C 428.5,374.5 428.5,381.5 428.5,388.5C 429.5,388.5 430.5,388.5 431.5,388.5C 430.432,389.434 429.099,389.768 427.5,389.5C 427.5,381.833 427.5,374.167 427.5,366.5C 432.87,366.608 438.203,366.275 443.5,365.5 Z"/></g>
<g><path style="opacity:1" fill="#676767" d="M 368.5,367.5 C 369.41,369.019 370.243,370.685 371,372.5C 371.5,383.161 371.667,393.828 371.5,404.5C 371.008,392.24 370.008,379.906 368.5,367.5 Z"/></g>
<g><path style="opacity:1" fill="#707072" d="M 390.5,367.5 C 389.515,371.634 389.182,375.968 389.5,380.5C 388.188,375.985 388.188,371.318 389.5,366.5C 390.107,366.624 390.44,366.957 390.5,367.5 Z"/></g>
<g><path style="opacity:1" fill="#f3f3f3" d="M 390.5,367.5 C 392.179,369.807 394.512,370.807 397.5,370.5C 402.141,369.769 406.807,369.436 411.5,369.5C 411.404,377.179 411.07,384.846 410.5,392.5C 405.729,392.538 401.062,393.204 396.5,394.5C 394.5,394.5 392.5,394.5 390.5,394.5C 390.817,390.298 390.483,386.298 389.5,382.5C 389.5,381.833 389.5,381.167 389.5,380.5C 389.182,375.968 389.515,371.634 390.5,367.5 Z"/></g>
<g><path style="opacity:1" fill="#ededee" d="M 865.5,434.5 C 865.663,432.143 865.497,429.81 865,427.5C 862.507,428.946 860.673,428.279 859.5,425.5C 861.467,422.988 861.8,420.321 860.5,417.5C 857.924,416.571 855.424,415.571 853,414.5C 849.412,416.181 845.578,416.848 841.5,416.5C 841.351,415.448 841.517,414.448 842,413.5C 850.318,406.017 858.484,398.35 866.5,390.5C 867.666,403.154 867.833,415.82 867,428.5C 866.809,430.708 866.309,432.708 865.5,434.5 Z"/></g>
<g><path style="opacity:1" fill="#aaa9aa" d="M 1263.5,373.5 C 1262.12,390.616 1261.12,407.616 1260.5,424.5C 1260.33,410.163 1260.5,395.829 1261,381.5C 1262.06,378.834 1262.89,376.167 1263.5,373.5 Z"/></g>
<g><path style="opacity:1" fill="#999998" d="M 1642.5,369.5 C 1645.23,382.11 1646.23,395.11 1645.5,408.5C 1644.81,399.932 1644.14,391.266 1643.5,382.5C 1642.63,378.232 1642.29,373.898 1642.5,369.5 Z"/></g>
<g><path style="opacity:1" fill="#706f6f" d="M 986.5,400.5 C 982.005,401.422 977.338,402.089 972.5,402.5C 973.263,401.732 974.263,401.232 975.5,401C 979.152,400.501 982.818,400.335 986.5,400.5 Z"/></g>
<g><path style="opacity:1" fill="#a2a1a2" d="M 426.5,403.5 C 426.082,404.222 425.416,404.722 424.5,405C 419.511,405.499 414.511,405.666 409.5,405.5C 415.004,404.635 420.671,403.968 426.5,403.5 Z"/></g>
<g><path style="opacity:1" fill="#a09fa0" d="M 407.5,405.5 C 407.082,406.222 406.416,406.722 405.5,407C 400.552,408.05 395.552,408.55 390.5,408.5C 395.959,407.049 401.626,406.049 407.5,405.5 Z"/></g>
<g><path style="opacity:1" fill="#b0b0af" d="M 1682.5,410.5 C 1680.9,409.713 1680.23,408.38 1680.5,406.5C 1678.44,406.517 1676.44,406.85 1674.5,407.5C 1674.61,406.883 1674.94,406.383 1675.5,406C 1677.81,405.503 1680.14,405.337 1682.5,405.5C 1682.5,407.167 1682.5,408.833 1682.5,410.5 Z"/></g>
<g><path style="opacity:1" fill="#aaa9a9" d="M 883.5,401.5 C 884.476,410.66 885.143,419.994 885.5,429.5C 884.698,428.048 884.198,426.382 884,424.5C 883.5,416.841 883.334,409.174 883.5,401.5 Z"/></g>
<g><path style="opacity:1" fill="#aaa9a9" d="M 333.5,399.5 C 334.927,401.148 335.76,403.148 336,405.5C 336.824,415.009 336.658,424.343 335.5,433.5C 335.637,422.11 334.971,410.777 333.5,399.5 Z"/></g>
<g><path style="opacity:1" fill="#0f0c0b" d="M 1394.5,293.5 C 1397.5,295.098 1400.33,297.098 1403,299.5C 1419.16,334.012 1439.82,365.679 1465,394.5C 1481.41,407.535 1499.07,418.535 1518,427.5C 1521.23,429.041 1523.23,431.374 1524,434.5C 1520.75,437.477 1516.91,439.31 1512.5,440C 1500.17,440.5 1487.84,440.667 1475.5,440.5C 1472.57,441.299 1469.57,441.632 1466.5,441.5C 1464.18,440.582 1462.01,439.248 1460,437.5C 1458.42,433.325 1456.08,429.659 1453,426.5C 1448.15,416.797 1442.82,407.463 1437,398.5C 1430.35,383.548 1423.52,368.881 1416.5,354.5C 1415.79,353.596 1414.79,353.263 1413.5,353.5C 1413.49,357.157 1412.49,360.49 1410.5,363.5C 1398.86,385.673 1383.86,405.506 1365.5,423C 1350.23,434.915 1333.23,443.081 1314.5,447.5C 1314.24,446.022 1314.57,444.689 1315.5,443.5C 1333.34,431.807 1348.84,417.474 1362,400.5C 1377.97,376.77 1391.14,351.77 1401.5,325.5C 1401.27,323.811 1400.94,322.145 1400.5,320.5C 1398.36,316.292 1395.36,312.792 1391.5,310C 1385.64,309.385 1379.98,309.718 1374.5,311C 1371.45,307.367 1370.78,303.201 1372.5,298.5C 1375.86,296.321 1379.52,294.988 1383.5,294.5C 1387.1,293.656 1390.77,293.323 1394.5,293.5 Z"/></g>
<g><path style="opacity:1" fill="#a6a7a9" d="M 1416.5,354.5 C 1415.2,357.913 1413.2,360.913 1410.5,363.5C 1412.49,360.49 1413.49,357.157 1413.5,353.5C 1414.79,353.263 1415.79,353.596 1416.5,354.5 Z"/></g>
<g><path style="opacity:1" fill="#cacaca" d="M 1655.5,421.5 C 1655.98,417.487 1654.32,415.154 1650.5,414.5C 1652.26,414.643 1653.93,414.309 1655.5,413.5C 1656.91,410.79 1658.91,409.79 1661.5,410.5C 1659.44,414.206 1657.44,417.872 1655.5,421.5 Z"/></g>
<g><path style="opacity:1" fill="#acacac" d="M 945.5,433.5 C 945.5,424.833 945.5,416.167 945.5,407.5C 940.136,408.036 934.803,408.703 929.5,409.5C 929.611,408.883 929.944,408.383 930.5,408C 935.822,407.316 941.156,406.816 946.5,406.5C 946.827,415.682 946.493,424.682 945.5,433.5 Z"/></g>
<g><path style="opacity:1" fill="#989898" d="M 496.5,415.5 C 496.5,417.5 496.5,419.5 496.5,421.5C 489.167,421.5 481.833,421.5 474.5,421.5C 481.313,420.509 488.313,420.175 495.5,420.5C 495.216,418.585 495.549,416.919 496.5,415.5 Z"/></g>
<g><path style="opacity:1" fill="#4b4e4d" d="M 1010.5,421.5 C 1007.03,421.547 1003.7,422.213 1000.5,423.5C 1001.35,422.034 1002.68,421.2 1004.5,421C 1006.71,420.211 1008.71,420.378 1010.5,421.5 Z"/></g>
<g><path style="opacity:1" fill="#7b7b78" d="M 474.5,421.5 C 472.898,423.074 470.898,423.741 468.5,423.5C 470.102,421.926 472.102,421.259 474.5,421.5 Z"/></g>
<g><path style="opacity:1" fill="#cacacc" d="M 967.5,403.5 C 966.791,404.404 965.791,404.737 964.5,404.5C 964.309,412.84 963.976,421.174 963.5,429.5C 964.5,429.5 965.5,429.5 966.5,429.5C 965.432,430.434 964.099,430.768 962.5,430.5C 962.786,421.498 963.119,412.498 963.5,403.5C 964.833,403.5 966.167,403.5 967.5,403.5 Z"/></g>
<g><path style="opacity:1" fill="#7d7c7b" d="M 448.5,424.5 C 444.684,425.482 440.684,426.149 436.5,426.5C 436.918,425.778 437.584,425.278 438.5,425C 441.817,424.502 445.15,424.335 448.5,424.5 Z"/></g>
<g><path style="opacity:1" fill="#717172" d="M 417.5,427.5 C 414.373,428.581 411.04,429.247 407.5,429.5C 407.918,428.778 408.584,428.278 409.5,428C 412.146,427.503 414.813,427.336 417.5,427.5 Z"/></g>
<g><path style="opacity:1" fill="#a0a29f" d="M 388.5,430.5 C 386.401,431.612 384.067,432.279 381.5,432.5C 383.438,430.837 385.772,430.171 388.5,430.5 Z"/></g>
<g><path style="opacity:1" fill="#7a7978" d="M 1747.5,426.5 C 1747.25,430.04 1746.58,433.373 1745.5,436.5C 1745.16,432.84 1745.83,429.507 1747.5,426.5 Z"/></g>
<g><path style="opacity:1" fill="#0f0c0a" d="M 965.5,291.5 C 964.51,297.645 964.177,303.978 964.5,310.5C 967.187,310.664 969.854,310.497 972.5,310C 973.056,309.617 973.389,309.117 973.5,308.5C 982.48,302.238 990.313,303.571 997,312.5C 998.221,316.282 997.387,319.282 994.5,321.5C 987.739,322.505 981.072,323.505 974.5,324.5C 970.9,324.794 967.4,325.46 964,326.5C 963.972,334.982 963.139,343.315 961.5,351.5C 963.216,351.371 964.883,351.038 966.5,350.5C 972.097,350.23 977.43,349.23 982.5,347.5C 984.969,346.683 987.635,346.183 990.5,346C 995.855,341.377 1001.86,340.377 1008.5,343C 1012.55,345.601 1016.05,348.768 1019,352.5C 1019.67,354.833 1019.67,357.167 1019,359.5C 1018.59,359.957 1018.09,360.291 1017.5,360.5C 995.167,361.152 972.834,362.152 950.5,363.5C 950.5,364.5 950.5,365.5 950.5,366.5C 955.474,367.38 960.141,369.046 964.5,371.5C 965.724,374.495 965.724,377.495 964.5,380.5C 963.343,383.273 962.676,386.273 962.5,389.5C 964.099,389.768 965.432,389.434 966.5,388.5C 972.201,387.674 977.701,386.007 983,383.5C 988.263,384.07 992.596,386.403 996,390.5C 996.897,397.441 993.731,400.774 986.5,400.5C 982.818,400.335 979.152,400.501 975.5,401C 974.263,401.232 973.263,401.732 972.5,402.5C 970.585,402.216 968.919,402.549 967.5,403.5C 966.167,403.5 964.833,403.5 963.5,403.5C 963.119,412.498 962.786,421.498 962.5,430.5C 964.099,430.768 965.432,430.434 966.5,429.5C 968.5,429.5 970.5,429.5 972.5,429.5C 973.833,429.5 975.167,429.5 976.5,429.5C 979.152,429.59 981.485,428.924 983.5,427.5C 986.85,427.665 990.183,427.498 993.5,427C 995.393,424.978 997.727,423.812 1000.5,423.5C 1003.7,422.213 1007.03,421.547 1010.5,421.5C 1017.08,424.127 1023.08,427.794 1028.5,432.5C 1032.81,437.456 1032.47,441.956 1027.5,446C 1022.51,446.499 1017.51,446.666 1012.5,446.5C 1008.24,445.598 1003.91,444.598 999.5,443.5C 997.833,443.5 996.167,443.5 994.5,443.5C 985.833,443.5 977.167,443.5 968.5,443.5C 965.302,442.964 962.635,443.631 960.5,445.5C 953.012,446.022 945.678,446.689 938.5,447.5C 936.102,447.259 934.102,447.926 932.5,449.5C 928.818,449.335 925.152,449.501 921.5,450C 916.235,451.676 911.068,453.509 906,455.5C 901.444,453.47 897.278,450.804 893.5,447.5C 892.177,445.529 890.844,443.529 889.5,441.5C 889.529,439.971 890.196,438.804 891.5,438C 909.621,437.549 927.621,436.049 945.5,433.5C 946.493,424.682 946.827,415.682 946.5,406.5C 941.156,406.816 935.822,407.316 930.5,408C 929.944,408.383 929.611,408.883 929.5,409.5C 926.022,409.816 922.688,409.316 919.5,408C 917.093,405.715 914.593,403.549 912,401.5C 911.316,399.521 911.816,397.854 913.5,396.5C 918.456,395.506 923.456,395.173 928.5,395.5C 931.85,395.665 935.183,395.498 938.5,395C 940.066,394.392 941.4,393.558 942.5,392.5C 943.833,392.5 945.167,392.5 946.5,392.5C 946.666,387.156 946.499,381.823 946,376.5C 943.65,373.473 942.15,370.14 941.5,366.5C 938.941,366.198 936.607,366.532 934.5,367.5C 932.143,367.337 929.81,367.503 927.5,368C 926.944,368.383 926.611,368.883 926.5,369.5C 921.511,370.222 916.511,370.388 911.5,370C 906.718,367.927 904.551,364.427 905,359.5C 913.389,358.055 921.889,357.389 930.5,357.5C 932.898,357.741 934.898,357.074 936.5,355.5C 939.962,354.518 943.629,354.185 947.5,354.5C 947.5,346.5 947.5,338.5 947.5,330.5C 946.167,330.5 944.833,330.5 943.5,330.5C 937.5,330.833 931.5,331.167 925.5,331.5C 924.048,330.698 922.382,330.198 920.5,330C 919.295,328.624 917.962,327.458 916.5,326.5C 915.193,324.777 915.193,322.943 916.5,321C 927.071,320.239 937.405,318.405 947.5,315.5C 947.666,305.494 947.5,295.494 947,285.5C 946.814,283.1 946.314,280.766 945.5,278.5C 938.298,272.675 939.132,268.341 948,265.5C 954.395,267.747 960.561,270.58 966.5,274C 968.152,275.47 969.152,277.303 969.5,279.5C 968.044,283.432 966.71,287.432 965.5,291.5 Z"/></g>
<g><path style="opacity:1" fill="#4b4a4a" d="M 979.5,427.5 C 980.833,427.5 982.167,427.5 983.5,427.5C 981.485,428.924 979.152,429.59 976.5,429.5C 977.5,428.833 978.5,428.167 979.5,427.5 Z"/></g>
<g><path style="opacity:1" fill="#9e9d9b" d="M 979.5,427.5 C 978.5,428.167 977.5,428.833 976.5,429.5C 975.167,429.5 973.833,429.5 972.5,429.5C 974.438,427.837 976.772,427.171 979.5,427.5 Z"/></g>
<g><path style="opacity:1" fill="#898889" d="M 934.5,367.5 C 931.997,368.371 929.33,369.037 926.5,369.5C 926.611,368.883 926.944,368.383 927.5,368C 929.81,367.503 932.143,367.337 934.5,367.5 Z"/></g>
<g><path style="opacity:1" fill="#676867" d="M 982.5,347.5 C 977.43,349.23 972.097,350.23 966.5,350.5C 971.57,348.77 976.903,347.77 982.5,347.5 Z"/></g>
<g><path style="opacity:1" fill="#0f0b0a" d="M 1263.5,373.5 C 1262.89,376.167 1262.06,378.834 1261,381.5C 1260.5,395.829 1260.33,410.163 1260.5,424.5C 1260.72,430.399 1259.88,436.066 1258,441.5C 1255.37,446.81 1252.71,452.144 1250,457.5C 1246.36,463.992 1241.69,464.992 1236,460.5C 1234.49,453.729 1232.66,447.063 1230.5,440.5C 1231.66,437.933 1232.33,435.266 1232.5,432.5C 1223.46,432.252 1214.46,432.585 1205.5,433.5C 1191.61,434.011 1177.95,435.344 1164.5,437.5C 1161.14,437.69 1158.14,438.69 1155.5,440.5C 1149.66,440.124 1143.99,440.79 1138.5,442.5C 1132.25,442.184 1126.25,442.85 1120.5,444.5C 1114.68,445.749 1109.68,448.582 1105.5,453C 1103.17,453.667 1100.83,453.667 1098.5,453C 1092.51,448.179 1087.84,442.345 1084.5,435.5C 1086.28,430.017 1090.11,427.35 1096,427.5C 1096.59,412.484 1096.26,397.484 1095,382.5C 1089.53,378.309 1088.37,373.309 1091.5,367.5C 1096.72,367.186 1101.72,367.853 1106.5,369.5C 1110.7,371.359 1114.37,374.026 1117.5,377.5C 1118.86,380.687 1118.53,383.687 1116.5,386.5C 1115.88,386.611 1115.38,386.944 1115,387.5C 1114.5,400.829 1114.33,414.163 1114.5,427.5C 1120.36,427.822 1126.02,427.489 1131.5,426.5C 1139.4,424.839 1147.4,424.173 1155.5,424.5C 1159.16,424.277 1162.5,423.277 1165.5,421.5C 1173.15,420.793 1180.81,420.46 1188.5,420.5C 1191.73,420.324 1194.73,419.657 1197.5,418.5C 1210.42,417.329 1223.42,416.662 1236.5,416.5C 1238.46,398.57 1238.96,380.57 1238,362.5C 1232.19,358.331 1232.03,353.997 1237.5,349.5C 1240.41,348.431 1243.41,348.264 1246.5,349C 1254.25,351.504 1261.08,355.671 1267,361.5C 1267.17,362.5 1267.33,363.5 1267.5,364.5C 1266.2,367.484 1264.86,370.484 1263.5,373.5 Z"/></g>
<g><path style="opacity:1" fill="#8b8a8a" d="M 1205.5,433.5 C 1192.1,435.839 1178.43,437.172 1164.5,437.5C 1177.95,435.344 1191.61,434.011 1205.5,433.5 Z"/></g>
<g><path style="opacity:1" fill="#6c6c6b" d="M 1165.5,421.5 C 1162.5,423.277 1159.16,424.277 1155.5,424.5C 1158.5,422.723 1161.84,421.723 1165.5,421.5 Z"/></g>
<g><path style="opacity:1" fill="#7e7d7d" d="M 1197.5,418.5 C 1194.73,419.657 1191.73,420.324 1188.5,420.5C 1191.12,418.735 1194.12,418.068 1197.5,418.5 Z"/></g>
<g><path style="opacity:1" fill="#989898" d="M 1116.5,386.5 C 1115.54,399.784 1115.2,413.117 1115.5,426.5C 1120.83,426.5 1126.17,426.5 1131.5,426.5C 1126.02,427.489 1120.36,427.822 1114.5,427.5C 1114.33,414.163 1114.5,400.829 1115,387.5C 1115.38,386.944 1115.88,386.611 1116.5,386.5 Z"/></g>
<g><path style="opacity:1" fill="#757675" d="M 1151.5,403.5 C 1149.36,404.158 1147.36,405.158 1145.5,406.5C 1145.5,405.5 1145.5,404.5 1145.5,403.5C 1147.5,403.5 1149.5,403.5 1151.5,403.5 Z"/></g>
<g><path style="opacity:1" fill="#5b5b5b" d="M 1178.5,368.5 C 1178.5,374.833 1178.5,381.167 1178.5,387.5C 1182.88,387.628 1187.21,387.295 1191.5,386.5C 1191.08,387.222 1190.42,387.722 1189.5,388C 1185.51,388.499 1181.51,388.666 1177.5,388.5C 1177.18,381.646 1177.51,374.979 1178.5,368.5 Z"/></g>
<g><path style="opacity:1" fill="#aeaeae" d="M 1162.5,389.5 C 1162.5,383.167 1162.5,376.833 1162.5,370.5C 1159.27,370.411 1156.27,371.077 1153.5,372.5C 1152.27,372.48 1151.27,372.147 1150.5,371.5C 1154.63,370.099 1158.96,369.433 1163.5,369.5C 1163.82,376.354 1163.49,383.021 1162.5,389.5 Z"/></g>
<g><path style="opacity:1" fill="#f4f4f4" d="M 1145.5,368.5 C 1146.85,369.953 1148.52,370.953 1150.5,371.5C 1151.27,372.147 1152.27,372.48 1153.5,372.5C 1156.27,371.077 1159.27,370.411 1162.5,370.5C 1162.5,376.833 1162.5,383.167 1162.5,389.5C 1162.08,390.222 1161.42,390.722 1160.5,391C 1155.55,392.05 1150.55,392.55 1145.5,392.5C 1145.66,387.453 1145.33,382.453 1144.5,377.5C 1144.19,374.287 1144.52,371.287 1145.5,368.5 Z"/></g>
<g><path style="opacity:1" fill="#9a9998" d="M 1145.5,368.5 C 1144.52,371.287 1144.19,374.287 1144.5,377.5C 1143.19,374.313 1143.19,370.98 1144.5,367.5C 1145.11,367.624 1145.44,367.957 1145.5,368.5 Z"/></g>
<g><path style="opacity:1" fill="#939192" d="M 1164.5,437.5 C 1161.92,439.472 1158.92,440.472 1155.5,440.5C 1158.14,438.69 1161.14,437.69 1164.5,437.5 Z"/></g>
<g><path style="opacity:1" fill="#909090" d="M 1475.5,440.5 C 1475.39,441.117 1475.06,441.617 1474.5,442C 1471.63,442.801 1468.97,442.634 1466.5,441.5C 1469.57,441.632 1472.57,441.299 1475.5,440.5 Z"/></g>
<g><path style="opacity:1" fill="#8e8d8d" d="M 459.5,441.5 C 459.082,442.222 458.416,442.722 457.5,443C 454.854,443.497 452.187,443.664 449.5,443.5C 452.627,442.419 455.96,441.753 459.5,441.5 Z"/></g>
<g><path style="opacity:1" fill="#73706f" d="M 968.5,443.5 C 968.158,444.338 967.492,444.672 966.5,444.5C 964.435,444.517 962.435,444.85 960.5,445.5C 962.635,443.631 965.302,442.964 968.5,443.5 Z"/></g>
<g><path style="opacity:1" fill="#80807c" d="M 994.5,443.5 C 996.167,443.5 997.833,443.5 999.5,443.5C 1000.17,444.167 1000.83,444.833 1001.5,445.5C 998.933,445.279 996.599,444.612 994.5,443.5 Z"/></g>
<g><path style="opacity:1" fill="#8e8c8c" d="M 1138.5,442.5 C 1132.7,443.682 1126.7,444.348 1120.5,444.5C 1126.25,442.85 1132.25,442.184 1138.5,442.5 Z"/></g>
<g><path style="opacity:1" fill="#555454" d="M 428.5,443.5 C 427.365,445.213 425.698,445.88 423.5,445.5C 424.635,443.787 426.302,443.12 428.5,443.5 Z"/></g>
<g><path style="opacity:1" fill="#555555" d="M 999.5,443.5 C 1003.91,444.598 1008.24,445.598 1012.5,446.5C 1008.77,446.677 1005.1,446.344 1001.5,445.5C 1000.83,444.833 1000.17,444.167 999.5,443.5 Z"/></g>
<g><path style="opacity:1" fill="#cacaca" d="M 966.5,444.5 C 963.851,446.109 960.851,446.943 957.5,447C 951.175,447.5 944.842,447.666 938.5,447.5C 945.678,446.689 953.012,446.022 960.5,445.5C 962.435,444.85 964.435,444.517 966.5,444.5 Z"/></g>
<g><path style="opacity:1" fill="#adacad" d="M 407.5,447.5 C 405.898,449.074 403.898,449.741 401.5,449.5C 403.102,447.926 405.102,447.259 407.5,447.5 Z"/></g>
<g><path style="opacity:1" fill="#acaaaa" d="M 938.5,447.5 C 936.898,449.074 934.898,449.741 932.5,449.5C 934.102,447.926 936.102,447.259 938.5,447.5 Z"/></g>
<g><path style="opacity:1" fill="#6f706f" d="M 399.5,449.5 C 389.313,451.33 378.98,452.997 368.5,454.5C 369.347,453.034 370.68,452.2 372.5,452C 381.429,450.541 390.429,449.707 399.5,449.5 Z"/></g>
<g><path style="opacity:1" fill="#9b9a9b" d="M 521.5,444.5 C 521.664,447.187 521.497,449.854 521,452.5C 519.384,454.713 518.217,457.047 517.5,459.5C 518.848,454.463 520.182,449.463 521.5,444.5 Z"/></g>
<g><path style="opacity:1" fill="#8b8a8a" d="M 1703.5,466.5 C 1705.03,466.427 1706.03,467.094 1706.5,468.5C 1704.97,468.573 1703.97,467.906 1703.5,466.5 Z"/></g>
<g><path style="opacity:1" fill="#8f8f90" d="M 1750.5,467.5 C 1743.53,468.831 1736.2,469.497 1728.5,469.5C 1720.99,469.5 1713.66,469.166 1706.5,468.5C 1721.22,468.8 1735.88,468.467 1750.5,467.5 Z"/></g>
</svg>
