<?xml version="1.0" encoding="utf-8" ?><svg xmlns="http://www.w3.org/2000/svg" xmlns:xlink="http://www.w3.org/1999/xlink" width="1160" height="310" viewBox="100 350 1160 310"><path fill="#B62316" d="M1311.5 653.332C1302.39 644.939 1297.45 629.603 1297.27 617.655C1296.99 597.959 1296.52 576.488 1297.35 556.909C1298.55 528.583 1288.62 466.425 1330.07 463.763C1337.41 463.292 1345.16 467.243 1350.48 472.224C1366.77 488.488 1362.43 516.143 1363.04 537.351C1363.88 566.865 1364.47 598.039 1361.35 627.477C1360.55 635.077 1353.85 647.709 1348.61 653.211L1349.84 655.366C1349.6 660.444 1336.28 664.835 1331.68 663.426L1331.2 663.876C1328.53 664.769 1320.48 663.43 1317.94 662.492C1308.81 659.124 1304.22 654.509 1299.9 646.289C1303.67 648.611 1307.09 651.526 1310.54 654.314L1311.5 653.332Z"/><path fill="white" d="M1299.9 646.289C1303.67 648.611 1307.09 651.526 1310.54 654.314L1311.5 653.332C1324.03 660.537 1336.11 660.911 1348.61 653.211L1349.84 655.366C1349.6 660.444 1336.28 664.835 1331.68 663.426L1331.2 663.876C1328.53 664.769 1320.48 663.43 1317.94 662.492C1308.81 659.124 1304.22 654.509 1299.9 646.289Z"/><path fill="#B62316" d="M1299.9 646.289C1303.67 648.611 1307.09 651.526 1310.54 654.314C1312.54 655.559 1313.03 656.009 1314.22 658.046C1320.74 662.008 1328.23 659.266 1331.2 663.876C1328.53 664.769 1320.48 663.43 1317.94 662.492C1308.81 659.124 1304.22 654.509 1299.9 646.289Z"/><path fill="#B62316" d="M1349.84 655.366C1349.6 660.444 1336.28 664.835 1331.68 663.426C1332.99 661.698 1347.49 655.983 1349.84 655.366Z"/><path fill="#B62316" d="M1343.85 477.295L1346.22 475.637C1348.85 476.135 1349.24 476.113 1351.52 477.386L1352.27 479.084L1351.78 479.747C1346.98 486.43 1352.21 503.438 1347.64 506.98L1345.83 508.699C1343.01 508.798 1346.16 506.978 1342.34 504.012C1337.81 504.049 1321.31 503.953 1317.67 504.768C1316.86 507.152 1316.58 507.867 1314.72 508.927C1311.59 506.686 1313.34 483.278 1309.35 474.617C1316.32 478.654 1316.6 478.525 1324.64 478.552C1330.01 477.867 1339.26 478.608 1343.85 477.295Z"/><path fill="white" d="M1309.35 474.617C1316.32 478.654 1316.6 478.525 1324.64 478.552C1330.01 477.867 1339.26 478.608 1343.85 477.295L1344.99 479.669L1336.59 479.894C1336.46 482.707 1335.89 488.994 1336.7 491.309C1340.63 492.162 1341.28 490.724 1343.56 492.495C1342.86 496.898 1335.29 496.046 1332.72 493.456C1331.28 488.251 1333.82 483.002 1331.08 479.631L1329.8 479.689C1326.56 483.827 1328.19 486.453 1326.06 490.128C1322.73 495.87 1318.1 496.013 1316.65 502.363L1317.67 504.768C1316.86 507.152 1316.58 507.867 1314.72 508.927C1311.59 506.686 1313.34 483.278 1309.35 474.617Z"/><path fill="#F9EBEC" d="M1324.64 478.552C1330.01 477.867 1339.26 478.608 1343.85 477.295L1344.99 479.669L1336.59 479.894C1335.03 478.546 1327.97 478.859 1324.64 478.552Z"/><path fill="#B62316" d="M1316.67 480.599C1319.75 480.497 1320.96 479.955 1323.06 482.246C1324.05 485.651 1322.22 489.093 1320.81 492.358L1318.6 494.772L1317.54 494.63C1316.53 492.078 1316.77 483.857 1316.67 480.599Z"/><path fill="white" d="M1343.85 477.295L1346.22 475.637C1348.85 476.135 1349.24 476.113 1351.52 477.386L1352.27 479.084L1351.78 479.747C1346.98 486.43 1352.21 503.438 1347.64 506.98C1347.03 506.869 1346.33 506.566 1345.72 506.345C1343.8 501.732 1345.93 498.965 1344.59 493.638C1344.58 489.218 1344.86 484.142 1344.99 479.669L1343.85 477.295Z"/><path fill="#F9EBEC" d="M1344.35 501.09C1344.3 498.247 1344.25 496.517 1344.59 493.638C1345.93 498.965 1343.8 501.732 1345.72 506.345C1346.33 506.566 1347.03 506.869 1347.64 506.98L1345.83 508.699C1343.01 508.798 1346.16 506.978 1342.34 504.012C1337.81 504.049 1321.31 503.953 1317.67 504.768L1316.65 502.363C1323.33 502.928 1337.5 501.804 1344.35 501.09Z"/><path fill="white" d="M1307.95 560.027C1310.73 552.649 1312.49 549.055 1312.59 541.097L1311.87 539.627C1308.74 538.701 1306.72 541.211 1305.16 540.317C1305.69 537.733 1305.27 538.691 1307.12 536.699C1309.37 535.933 1309.63 535.817 1311.98 535.67C1313.28 531.867 1311.62 525.709 1312.71 523.427C1315.53 523.88 1315.31 524.344 1317.23 523.245C1318.06 521.158 1318.88 519.064 1319.69 516.964L1320.82 516.511C1323.06 517.662 1322.62 517.024 1323.55 518.932C1322.29 520.802 1321.53 521.471 1319.92 523.078L1320.51 523.458C1323.31 522.84 1325.21 522.1 1327.9 522.864L1328.93 524.148C1328.04 527.797 1326.75 530.57 1328.42 533.711L1329.88 534.522C1333.94 532.566 1333.06 523.975 1333.05 519.881C1337.75 520.256 1339.35 520.612 1343.65 518.829L1345.33 519.21C1346.75 522.544 1344.37 525.262 1345.67 529.834C1349.36 529.843 1350.21 528.752 1353 529.911L1353.31 531.702C1351.4 534.144 1348.18 532.057 1346.92 534.044C1350.8 540.254 1346.74 542.791 1342.68 548.231C1347.71 550.722 1349.95 551.832 1355.26 553.42C1352.66 554.861 1351.31 555.507 1349.01 557.457C1344.97 554.707 1343.6 553.676 1340.15 550.271C1337.28 552.196 1332.09 556.073 1328.61 555.952L1327.88 555.124L1327.25 554.775C1323.96 557.041 1324.32 556.92 1320.71 554.452C1319.87 552.75 1319.52 552.843 1319.96 551.538L1323.08 551.091C1324.62 549.031 1323.91 539.777 1323.83 536.922C1321.34 537.11 1318.84 537.281 1316.34 537.435C1315.67 548.523 1314.76 551.259 1307.95 560.027Z"/><path fill="#B62316" d="M1327.25 554.775C1328.32 548.541 1325.43 537.859 1330.95 535.19C1337.01 532.261 1335.87 528.239 1337.29 522.251C1339.05 521.393 1338.08 521.65 1340.38 521.965C1342.94 525.979 1339.91 528.097 1342.14 532.379C1343.54 532.969 1344.06 533.054 1345.16 534.112L1344.22 536.382L1343.68 537.959C1342.28 541.563 1341.91 542.5 1339.78 545.726C1339.17 546.365 1338.37 547.099 1337.9 547.818C1334.98 550.777 1331.59 553.244 1327.88 555.124L1327.25 554.775Z"/><path fill="#F9EBEC" d="M1337.9 547.818C1336.09 545.596 1331.62 539.82 1332.51 537.148C1335.12 536.014 1341.06 536.372 1344.22 536.382L1343.68 537.959C1342.28 541.563 1341.91 542.5 1339.78 545.726C1339.17 546.365 1338.37 547.099 1337.9 547.818Z"/><path fill="#B62316" d="M1334.06 538.137L1343.68 537.959C1342.28 541.563 1341.91 542.5 1339.78 545.726C1337.35 543.399 1335.92 540.938 1334.06 538.137Z"/><path fill="white" d="M1328.19 614.401C1327.84 612.016 1327.41 611.034 1328.52 609.075C1330.4 608.294 1331.85 609.077 1333.05 610.75L1332.76 613.363C1336.17 615.399 1343.66 612.564 1347.38 612.029C1348.35 612.967 1349.18 613.762 1349.86 614.415L1349.37 615.21C1347.29 615.306 1343.72 615.018 1342.57 616.135C1343.64 617.362 1344.75 618.555 1345.89 619.711L1342.92 626.359C1344.44 629.993 1347.11 627.517 1344.63 631.668L1345.24 632.796C1346.96 632.822 1347.65 631.975 1349.03 630.879C1351.15 631.15 1350.82 631.484 1352.76 633.364L1352.66 634.382C1348.98 635.731 1347.83 633.642 1344.99 635.316C1344.66 637.989 1344.74 639.543 1343.16 641.691L1341.94 642.118C1341.28 641.433 1340.8 641.127 1340.45 640.331C1337.78 640.204 1335.24 640.021 1332.57 640.168C1332.6 643.511 1332.68 647.403 1329.9 649.541C1327.49 649.539 1324.34 647.051 1322.66 645.436C1325.27 645.083 1325.92 645.136 1328.22 643.974L1328.49 642.67C1325.76 637.516 1319.22 642.339 1314.56 640.404L1314.24 638.852C1316.96 637.272 1322.87 640.154 1327.45 637.721L1327.8 635.558L1327.85 633.546L1327.5 632.627L1328.28 631.065L1328.69 628.596C1326.22 621.938 1321.08 628.653 1316.58 626.912C1315.53 624.388 1316.39 620.489 1316.75 617.577L1318.19 615.909C1315.08 616.284 1314.48 616.338 1311.4 615.891L1311.51 615.232C1317.9 613.897 1321.65 613.895 1328.19 614.401Z"/><path fill="#F9EBEC" d="M1332.57 640.168C1332.34 638.28 1332.36 638.342 1332.71 636.461C1336.87 632.799 1339.95 635.12 1340.45 640.331C1337.78 640.204 1335.24 640.021 1332.57 640.168Z"/><path fill="#F9EBEC" d="M1328.19 614.401L1328.14 616.346C1325.13 615.644 1321.35 615.883 1318.19 615.909C1315.08 616.284 1314.48 616.338 1311.4 615.891L1311.51 615.232C1317.9 613.897 1321.65 613.895 1328.19 614.401Z"/><path fill="#B62316" d="M1318.19 615.909C1321.35 615.883 1325.13 615.644 1328.14 616.346L1327.42 618.271C1323.66 619.664 1320.58 618.555 1316.75 617.577L1318.19 615.909Z"/><path fill="#B62316" d="M1331.94 615.969C1334.86 615.656 1338.95 614.881 1341.43 616.158L1341.37 617.792C1337.55 618.922 1333.68 620.287 1331.94 615.969Z"/><path fill="white" d="M1328.11 569.92L1326.45 569.595L1326.66 568.777C1332.47 567.181 1338.3 568.427 1343.65 566.826L1344.65 569.24L1344.72 577.793L1343.63 578.78C1341.48 580.425 1335.82 580.303 1332.83 580.422C1333.31 586.996 1334.22 591.004 1331.76 597.197L1330.64 597.892C1327.85 595.535 1328.71 587.98 1328.78 584.372C1326.27 587.272 1321.53 593.295 1318.03 594.132L1317.33 593.942L1316.06 593.936C1316.06 597.066 1316.73 601.581 1312.96 602.512C1309.93 599.067 1311.43 575.895 1311.81 570.434C1313.57 569.64 1314.55 570.38 1316.82 571.009C1317.28 573.176 1317.58 576.782 1318.81 578.036L1318.6 579C1321.87 578.772 1325.22 579.6 1327.93 578.2C1329.36 576.127 1328.82 573.741 1328.67 571.053L1328.11 569.92Z"/><path fill="white" d="M1316.06 593.936C1316.06 597.066 1316.73 601.581 1312.96 602.512C1309.93 599.067 1311.43 575.895 1311.81 570.434C1313.57 569.64 1314.55 570.38 1316.82 571.009C1315.38 575.29 1315.98 588.751 1316.06 593.936Z"/><path fill="#B62316" d="M1328.11 569.92L1326.45 569.595L1326.66 568.777C1332.47 567.181 1338.3 568.427 1343.65 566.826L1344.65 569.24L1344.72 577.793L1343.63 578.78L1341.34 576.664C1338.75 576.451 1339.49 576.602 1336.74 578.579C1334.43 578.603 1335.45 578.93 1333.57 577.553L1333.22 573.614C1331.61 571.452 1331.82 572.078 1328.67 571.053L1328.11 569.92Z"/><path fill="#F9EBEC" d="M1328.11 569.92L1326.45 569.595L1326.66 568.777C1332.47 567.181 1338.3 568.427 1343.65 566.826L1344.65 569.24C1340.31 569.13 1332.69 569.707 1328.11 569.92Z"/><path fill="#B62316" d="M1316.82 571.009C1317.28 573.176 1317.58 576.782 1318.81 578.036L1318.6 579L1319.32 580.68C1321.83 581.529 1324.68 580.868 1327.41 580.536C1325.19 583.928 1318.65 591.323 1317.33 593.942L1316.06 593.936C1315.98 588.751 1315.38 575.29 1316.82 571.009Z"/><path fill="white" d="M1343.65 566.826L1345.33 565.306C1347.49 565.462 1347.39 565.391 1349.16 566.589C1349.46 567.152 1349.76 567.714 1350.06 568.276C1348.03 576.191 1351.89 598.63 1346.39 603.664C1344.73 603.049 1341.8 600.151 1340.31 598.831C1343.09 598.489 1343.33 598.963 1344.91 597.431C1344.86 591.035 1344.94 584.142 1344.72 577.793L1344.65 569.24L1343.65 566.826Z"/><path fill="#B62316" d="M1328.69 628.596L1328.28 631.065L1327.5 632.627C1324.43 632.692 1316.67 633.285 1314.48 632.11L1317.04 631.202C1316.19 631.087 1315.77 630.834 1314.94 630.508L1315.22 629.836C1318.86 628.866 1323.7 629.298 1328.04 628.692L1328.69 628.596Z"/><path fill="#F9EBEC" d="M1328.69 628.596L1328.28 631.065C1323.78 630.434 1321.56 630.741 1317.04 631.202C1316.19 631.087 1315.77 630.834 1314.94 630.508L1315.22 629.836C1318.86 628.866 1323.7 629.298 1328.04 628.692L1328.69 628.596Z"/><path fill="#F9EBEC" d="M1327.8 635.558C1322.5 633.805 1313.05 637.654 1308.71 634.503L1309.21 633.864C1313.79 632.927 1322.85 633.437 1327.85 633.546L1327.8 635.558Z"/><path fill="white" d="M1316.35 564.258C1318.65 564.921 1319.41 565.157 1321.54 566.249C1323.24 568.87 1322.7 568.163 1322.91 571.718C1320.94 572.1 1321.08 572.126 1319.24 571.309C1317.25 569.137 1317.08 567.16 1316.35 564.258Z"/><path fill="white" d="M1334.05 583.635C1338.95 585.27 1342.57 586.279 1342.23 591.969C1340.87 592.399 1340.95 592.328 1339.55 591.971C1337.05 589.031 1335.97 586.97 1334.05 583.635Z"/><path d="M250.081 394.18C247.783 392.668 245.637 391.734 244.825 389.279C245.638 377.159 283.741 386.039 269.589 403.429L270.149 404.18C283.049 398.989 309.239 414.334 287.644 425.626C273.384 422.398 270.833 427.215 258.197 428.853C255.053 434.742 252.25 440.029 248.139 445.348C241.917 453.397 236.007 458.499 231.135 467.621C248.204 476.769 266.982 487.345 285.415 493.125C303.598 498.827 322.976 499.024 340.258 508.695C347.139 512.545 350.573 515.251 347.262 524.315C340.949 529.711 337.6 526.186 331.309 527.324C321.475 529.104 311.458 532.144 301.227 531.335C280.951 529.379 258.96 506.201 243.115 494.08C236.776 489.231 233.285 484.787 225.712 481.285C201.699 508.025 176.448 538.694 147 559.648C141.548 563.527 133.59 566.538 127.154 568.443C128.397 557.387 135.476 548.268 143.15 540.324L137.261 551.988C148.291 545.131 160.386 531.013 169.603 521.682L177.859 512.597C182.528 506.381 208.527 475.5 208.525 471.127C205.791 469.654 205.927 470.289 204.827 468.026C205.211 466.101 205.734 465.828 207.129 464.461C203.595 461.814 202.679 463.038 201.017 457.563C200.012 454.249 199.535 451.202 198.962 447.794C190.797 451.962 186.876 454.272 177.767 456.065C172.53 453.097 157.824 443.247 161.209 436.104C162.823 435.124 163.509 434.335 165.521 434.75C166.744 435.002 169.719 436.395 170.969 436.138C178.539 434.578 187.291 431.709 194.511 429.4C194.027 425.287 193.762 421.911 192.773 417.862C191.716 413.535 187.469 407.72 187.787 404.248C192.337 399.131 208.74 407.409 212.834 411.296C216.524 414.799 214.475 418.721 216.382 421.862C226.174 421.191 235.772 415.073 245.213 412.93C247.001 406.603 248.751 400.631 250.081 394.18Z"/><path fill="white" d="M169.603 521.682L177.859 512.597C177.923 513.606 178.131 515.277 177.924 516.176C176.071 519.4 173.617 522.152 171.21 524.969C171.702 524.678 171.92 524.326 172.328 523.868C175.003 523.57 175.027 522.553 177.503 520.793C170.827 528.573 158.348 540.958 150.532 547.821C156.771 539.102 163.462 530.715 170.577 522.695L169.603 521.682Z"/><path fill="#121112" d="M169.603 521.682L177.859 512.597C177.923 513.606 178.131 515.277 177.924 516.176C174.651 518.615 173.443 519.762 170.577 522.695L169.603 521.682Z"/><path fill="white" d="M237.059 433.01L237.982 433.466C235.78 442.853 230.522 452.946 225.456 461.092L222.171 457.312L218.73 458.031L217.448 457.1C215.919 452.806 216.371 446.075 216.331 441.17C223.444 436.706 228.73 433.825 237.059 433.01Z"/><path d="M807.071 405.999C811.609 405.639 820.681 406.551 823.601 410.558C827.525 415.944 822.573 421.69 821.692 427C828.321 426.735 841.078 426.443 842.718 435.277C843.101 437.341 842.675 437.907 841.642 439.578C837.321 442.245 819.973 443.024 812.559 444.292C803.43 460.311 802.645 462.407 788.696 474.116C796.12 479.346 820.244 492.625 828.307 495.163C840.585 498.664 854.082 500.941 865.726 506.23C869.593 507.986 877.962 512.975 874.771 517.768C874.431 518.278 872.35 520.15 871.763 520.193C863.963 520.76 856.178 519.93 848.393 521.532C832.291 524.068 820.707 511.683 809.799 502.794C801.4 495.909 792.904 489.143 784.314 482.498C778.909 490.087 756.735 514.388 749.671 519.797C745.75 523.368 742.345 527.593 738.298 531.164C727.013 541.122 716.51 546.036 702.727 551.166C705.084 546.739 710.907 535.12 714.701 532.634C714.699 534.346 714.38 535.694 714.072 537.366L714.853 537.632C731.71 525.393 749.087 504.07 762.084 487.758C776.745 469.357 762.57 479.664 760.299 461.189L743.736 467.911C739.291 466.064 728.265 459.598 729.215 454.223C733.217 449.735 741.213 451 746.878 449.205C750.35 448.105 753.705 446.812 757.097 445.511C753.138 437.802 757.156 436.551 750.578 426.84C749.032 414.923 767.271 425.821 771.148 428.395C771.439 432.082 771.419 437.25 771.524 441.058C781.05 438.011 781.542 438.392 788.509 430.989C787.532 432.859 784.379 438.174 784.728 439.718C790.299 435.773 795.07 435.575 801.893 433.958C803.784 428.978 807.908 419.621 806.184 414.504C805.206 411.605 803.366 413.067 802.553 410.47C803.543 408.39 805.201 407.442 807.071 405.999Z"/><path fill="white" d="M791.869 446.273C794.281 446.133 794.545 446.054 796.837 446.654C796.985 449.695 786.721 469.511 784.252 470.643L781.233 467.955C779.402 466.679 777.342 467.461 775.458 467.386C775.253 463.249 775.071 459.112 774.912 454.973C777.246 453.481 779.892 451.391 781.459 449.089C785.007 447.931 788.242 447.157 791.869 446.273Z"/><path fill="white" d="M747.717 508.339C748.052 511.727 737.135 521.028 734.484 523.52L734.418 521.978C738.049 517.505 743.514 512.455 747.717 508.339Z"/><path d="M1167.67 413.504C1173.5 413.719 1182 416.334 1182.97 422.989C1183.98 429.902 1179.35 435.559 1175.72 440.901C1179.73 439.467 1182.87 438.777 1187.03 437.82C1211.28 444.597 1187.67 460.02 1178.42 471.102C1185.29 468.671 1191.46 466.243 1198.64 464.963C1207.57 467.882 1209.35 469.808 1214.11 477.749C1212.71 480.723 1211.02 483.719 1209.46 486.625C1216.34 486.115 1224.64 486.99 1227.37 494.599C1226.01 501.787 1211.88 498.912 1206.32 498.732C1203.55 502.431 1199.9 509.61 1197.57 513.874C1216.17 526.421 1186.86 529.561 1180.87 531.631C1180.48 540.45 1180.1 548.565 1180.25 557.491C1180.45 569.545 1183.34 583.672 1181.25 595.313C1179.28 606.281 1170.72 619.213 1160.54 623.991C1155.9 626.171 1154.82 623.899 1147.11 629.028L1146.72 629.289C1150.24 622.339 1152.98 615.616 1158.24 609.939C1171.42 585.997 1167.58 562.156 1166.62 536.701C1162.54 538.01 1158.47 539.352 1154.41 540.727C1150.74 539.321 1146.73 538.178 1145.53 534.086C1148.31 525.865 1166.67 527.633 1167.23 520.908C1164.63 519.106 1163.63 518.888 1163.42 515.687C1164.57 512.613 1166.86 510.927 1169.3 508.614C1162.14 510.402 1155.01 513.678 1147.72 514.207C1144.15 514.466 1138.59 511.615 1138.84 507.526C1140.85 505.093 1149.21 503.855 1152.81 502.626C1157.78 500.935 1162.48 499.166 1167.37 497.229C1168.03 480.343 1164.17 490.149 1155.71 489.904C1153.83 489.849 1151.09 486.577 1150.02 484.81C1147.39 480.496 1159.41 479.537 1161.27 476.656C1169.76 467.661 1175.46 458.503 1180.63 447.375C1177.61 448.932 1173.99 450.464 1171.26 452.427C1166.5 455.848 1161.92 460.809 1156.66 463.378C1154.86 462.989 1153.95 462.181 1152.89 460.593C1146.89 451.595 1160.14 441.774 1164.26 433.854C1167.24 428.138 1167.23 428.378 1168.77 421.672C1167.01 418.921 1166.06 418.427 1165.89 415.503L1167.67 413.504Z"/><path fill="white" d="M1191.49 476.482C1193.48 477.349 1193.66 477.34 1194.84 479.069C1195.29 482.579 1193.23 487.52 1192.09 491.084C1188.09 491.92 1185.2 493.918 1181.63 492.382L1180.92 489.551L1181.07 488.716C1179.45 485.798 1175.41 487.695 1173.25 485.274C1175.71 483.183 1187.83 478.109 1191.49 476.482Z"/><path fill="white" d="M1186.78 502.567L1187.97 502.86C1188.33 504.519 1184.01 514.793 1182.41 516.25L1181.12 515.632C1180.55 508.116 1179.47 505.236 1186.78 502.567Z"/><path fill="#424141" d="M1176.86 558.988L1178.05 560.714C1178.28 564.372 1176.88 566.447 1174.8 569.423L1174.08 568.718C1173.75 565.755 1175.56 561.61 1176.86 558.988Z"/><path fill="#6B6A6A" d="M1171.08 555.503C1172.2 559.786 1171.19 563.218 1170.04 567.325C1168.67 564.593 1170.43 558.58 1171.08 555.503Z"/><path d="M591.51 415.738C592.091 415.773 592.672 415.807 593.254 415.841C618.346 421.046 616.191 427.504 612.547 450.089C619.04 444.701 622.794 446.253 629.802 440.557C666.804 451.685 628.925 466.216 610.951 466.115C610.797 473.523 610.032 481.818 609.494 489.282C614.467 487.05 622.783 484.676 628.924 482.114C630.707 483.042 632.469 484.009 634.209 485.014C665.773 502.854 627.436 511.592 629.874 523.16L632.678 524.794C633.296 525.483 634.983 527.789 635.155 528.531C637.959 540.077 617.554 537.396 610.971 538.873C600.312 541.265 596.434 536.182 588.031 546.557C582.79 553.028 574.868 541.603 573.342 536.734C572.385 533.68 572.861 527.729 571.871 524.502C571.187 518.737 562.824 500.113 563.67 495.887C568.546 491.707 577.668 500.187 581.669 503.45C585.592 500.501 590.061 498.175 594.358 495.782C591.204 486.186 593.332 474.578 593.229 463.765C593.024 453.036 592.691 442.309 592.231 431.588C586.741 424.565 579.007 421 591.51 415.738Z"/><path fill="white" d="M618.535 499.245C619.884 499.097 619.239 499.032 620.454 499.643C621.293 504.303 612.994 519.425 610.564 524.16C603.765 525.458 593.713 530.4 587.974 529.967C585.887 523.975 588.413 519.635 584.149 508.296L584.983 507.551C591.576 508.541 610.835 501.595 618.535 499.245Z"/><path d="M921.195 456.824C935.648 455.095 947.261 467.389 956.068 477.139C973.624 496.576 989.73 519.304 1015.5 528.222C1028.31 532.657 1039.97 540.079 1049.8 549.586C1042.54 561.552 1036.27 554.161 1024.51 556.692C1022.12 557.206 1019.44 558.572 1017.23 559.674C998.843 556.956 993.589 549.969 982.592 536.375C977.327 529.828 972.127 523.228 966.995 516.575C963.041 511.124 958.795 506.348 954.397 501.258C939.047 518.594 925.18 545.063 903.238 551.974C899.655 553.102 887.458 557.051 884.712 555.702C886.949 551.074 889.281 546.492 891.708 541.96L892.491 541.92C892.839 543.368 892.871 543.89 893.605 545.195C905.236 540.039 924.326 515.445 931.668 504.405C935.056 499.311 937.912 492.75 942.069 486.789C938.799 483.131 931.63 475.625 927.863 473.16C923.003 469.98 916.105 469.557 911.719 464.371C910.718 458.916 916.936 458.167 921.195 456.824Z"/><path d="M212.981 503.868C219.209 504.229 226.102 504.227 232.458 504.493C242.35 511.132 241.624 512.945 239.263 524.194C242.347 523.073 245.686 521.641 248.756 520.391C252.43 521.544 256.391 523.168 260.019 524.566C261.67 526.721 263.381 529.188 264.983 531.409C262.705 535.607 261.892 536.693 258.824 540.383C249.793 539.873 246.501 541.948 238.479 545.503C238.345 553.053 238.128 561.727 238.459 569.225C239.233 586.755 244.352 596.257 234.662 611.894C223.184 619.031 220.194 611.81 211.167 603.878C207.904 600.69 197.089 591.048 195.683 587.847L196.272 587.043C204.326 586.118 222.277 596.552 222.532 580.654C222.687 570.999 222.361 561.257 221.367 551.642C215.163 553.564 208.086 559.044 202.93 559.688C198.225 560.275 189.417 550.169 189.382 544.848C192.147 539.845 196.078 541.518 200.645 542.779C207.73 540.255 214.023 536.225 220.531 532.418C220.33 528.456 220.134 520.116 218.905 516.725C216.374 509.743 212.503 512.483 212.981 503.868Z"/><path d="M1107.33 407.807C1111.76 409.249 1115.05 410.238 1118.86 412.535C1129.19 418.771 1112.4 431.375 1127.91 431.783C1130.75 431.857 1135.51 434.986 1135.43 438.368C1135.23 446.643 1124.79 444.511 1120.06 450.155C1119.34 452.472 1119.37 452.347 1119.75 454.764C1124.55 455.562 1128.95 456.18 1132.28 459.928C1133.88 466.248 1121.98 469.97 1117.26 471.687C1117.12 474.294 1116.81 477.023 1116.55 479.633C1122.56 476.847 1138.33 468.268 1140.29 482.555C1140.65 490.953 1126.49 488.403 1123.06 490.576C1110.98 498.234 1079.97 507.498 1070.25 516.403C1067.64 518.056 1064.49 518.48 1061.44 519.114C1052.82 512.506 1051.07 507.462 1063.17 504.545C1079.78 500.541 1091.62 485.863 1104.04 475.293C1097.97 477.509 1087.57 482.635 1086.12 472.032C1087.74 469.008 1099.69 465.451 1103.73 463.203C1103.94 460.684 1104.41 460.3 1103.43 458.458C1101.46 459.45 1100.8 460.262 1099.08 459.954C1100.12 458.772 1101.25 457.725 1101.81 456.278C1096.27 456.036 1089.18 455.51 1084.53 452.181C1081.96 450.337 1082.16 447.029 1084.76 445.27C1091.4 447.135 1099.9 442.028 1106.13 439C1106.63 432.257 1107.07 426.029 1107.24 419.266C1104.24 416.174 1103.49 415.772 1099.71 413.621C1102.83 410.674 1103.67 410.033 1107.33 407.807Z"/><path d="M1115.07 497.234C1119.84 500 1126.12 495.54 1130.43 504.819C1130.2 517.41 1130.39 530.004 1130.99 542.582C1131.23 546.847 1131.6 555.049 1132.12 559.094C1134.51 577.853 1127.12 598.44 1112.33 571.592C1110.92 569.025 1107.59 564.529 1105.69 561.907C1108.96 562.969 1114.31 564.896 1117.58 563.867C1119.46 560.579 1119.98 548.533 1118.48 545.276C1115.46 547.965 1111.62 549.449 1108 551.148C1103.52 553.253 1103.71 553.371 1099.16 551.872C1098.9 559.014 1100.52 575.122 1093.82 579.08C1088.14 578.471 1085.74 568.591 1084.01 563.876C1087.24 555.235 1093.87 505.638 1100.14 504.842C1101.05 506.356 1101.48 507.334 1102.85 508.474C1105.75 506.677 1110.9 500.439 1115.07 497.234Z"/><path fill="white" d="M1114.06 507.477C1116.99 508.502 1118.87 514.057 1118.19 516.638C1115.39 518.698 1112.42 516.903 1107.17 520.001C1105.91 520.743 1105.5 520.809 1104.13 521.246L1103.34 520.27C1104.39 514.47 1109.49 510.578 1114.06 507.477Z"/><path fill="white" d="M1117.67 526.877C1118.27 528.595 1118.26 532.846 1118.33 534.864C1113.99 536.407 1108.72 538.923 1104.42 540.827L1103.96 540.35C1104.3 535.311 1113.74 529.513 1117.67 526.877Z"/><path fill="white" d="M1101.25 528.499C1103.6 529.451 1105.1 529.562 1105.84 531.993C1104.67 534.39 1103.58 536.002 1102.14 538.218C1101.55 539.565 1101.98 539.02 1100.77 539.893C1100.2 537.723 1101.02 531.126 1101.25 528.499Z"/><path d="M775.429 502.043C785.435 502.173 789.891 500.529 796.626 508.754C795.894 511.798 794.388 515.498 796.33 518.079C798.822 518.351 801.283 516.578 803.662 515.306C804.933 515.642 806.197 516.002 807.455 516.385C811.425 517.614 814.715 519.289 816.697 523.041C816.663 531.104 802.061 533.783 795.482 535.98C795.768 542.634 794.645 549.089 794.536 555.714C794.722 562.841 795.86 569.844 795.983 576.986C796.067 581.788 795.206 585.201 793.663 589.716C789.397 602.191 780.462 596.373 774.154 589.229C769.638 582.881 764.711 578.414 760.323 572.226C764.619 572.899 774.913 575.646 778.184 573.295C781.444 567.542 780.144 549.081 779.927 541.507C774.631 543.117 769.183 545.428 764.041 547.536C759.752 545.798 751.805 540.199 751.755 535.127C752.167 534.473 752.948 533.04 753.71 533.091C763.469 533.747 770.261 530.044 779.273 526.198C779.329 521.627 779.48 518.379 778.744 513.798C777.948 508.841 774.032 506.923 773.642 503.833L775.429 502.043Z"/><path d="M647.962 552.17C654.318 552.319 660.616 553.406 666.654 555.396C674.862 558.119 686.884 566.291 684.043 576.965C680.522 590.196 665.331 578.196 657.525 578.627C654.365 578.802 649.113 581.327 645.753 582.761C650.617 577.19 657.755 574.128 658.517 568.566C656.782 562.416 648.82 558.118 642.664 558.045C636.161 557.968 632.412 561.27 628.033 565.503C632.846 573.979 628.742 580.799 619.175 577.895C611.136 573.288 613.247 568.276 607.252 562.364C606.021 561.151 602.872 561.367 601.352 561.833C585.468 566.696 596.369 570.813 590.688 581.208C589.721 582.976 588.375 583.041 586.956 583.296C580.895 581.841 569.155 567.544 568.892 562.847L569.97 561.881C574.851 561.105 582.074 563.843 586.893 565.408C595.682 561.704 600.747 559.957 609.775 557.331C614.067 558.488 618.768 560.011 623.067 561.298C632.244 557.03 638.752 557.629 647.962 552.17Z"/><path d="M259.132 560.954C270.499 560.443 282.284 562.726 290.985 570.442C295.218 574.196 300.596 579.63 298.305 585.857C296.384 591.075 292.224 592.737 287.639 594.964C285.484 593.843 283.204 592.789 281.008 591.736C278.652 591.219 273.167 586.642 269.828 585.941C264.644 584.854 260.625 587.346 256.346 589.481C260.059 585.869 263.708 582.193 267.292 578.453C263.636 573.09 252.024 566.492 252.461 562.634C254.517 561.043 256.459 561.2 259.132 560.954Z"/><path d="M432.912 436.044C434.252 436.175 435.59 436.318 436.927 436.472C437.181 436.779 437.435 437.086 437.69 437.392C437.916 479.709 438.229 542.516 437.7 582.744C435.655 582.587 435.012 582.667 433.145 581.73C432.284 576.066 432.836 544.886 432.837 537.2L432.912 436.044Z"/><path d="M180.233 567.067C181.889 570.588 175.222 575.291 180.075 578.754C187.238 579.529 200.814 571.253 207.538 567.656C205.657 569.937 203.269 571.938 201.313 574.384C196.829 579.991 193.226 585.485 188.207 590.641C184.444 596.14 178.887 601.862 171.48 600.8C168.738 600.413 166.282 598.898 164.705 596.622C155.609 583.738 171.116 573.009 180.233 567.067Z"/><path d="M543.409 556.26C545.674 558.913 542.337 565.236 544.376 569.537C548.013 571.005 562.003 564.308 568.767 562.321C557.477 567.825 554.301 570.337 549.595 582.216L549.011 588.913L541.321 594.1L532.996 590.596C531.245 586.862 529.8 582.488 528.398 578.562C531.347 568.329 535.03 562.54 543.409 556.26Z"/><path d="M811.889 550.218C846.101 548.092 847.047 581.581 831.27 577.375C825.063 574.749 821.551 570.691 815.414 571.075C814.564 571.128 814.913 571.25 814.29 570.689L818.911 565.025C813.998 557.899 807.26 556.084 805.766 552.187C807.38 550.509 809.441 550.58 811.889 550.218Z"/><path d="M748.66 553.604C749.924 555.163 749.047 560.054 751.001 563.371C754.301 564.424 764.567 559.247 768.254 557.655C763.438 562.092 756.639 570.492 755.155 576.826C754.539 577.509 753.912 578.183 753.276 578.847C744.952 587.494 736.513 580.693 737.409 570.166C738.069 562.418 743.319 558.396 748.66 553.604Z"/><path fill="#B62316" d="M1295.18 509.264C1295.24 517.58 1293.02 527.988 1293.8 536.68C1294.44 543.916 1297.38 580.836 1292.56 583.867C1285.02 577.969 1288.94 551.892 1289.79 543.308C1290.94 531.666 1289.79 514.184 1293.37 503.547C1294.83 505.776 1294.75 506.536 1295.18 509.264Z"/><path fill="#B62316" d="M1330.22 457.568C1334.05 458.411 1337.97 458.455 1341.43 459.559C1348.83 461.922 1356.08 467.08 1359.64 474.13C1360.48 475.796 1361.28 476.877 1360.78 478.344C1357.48 476.586 1351.34 468.69 1345.44 464.399C1335.63 462.259 1325.51 458.294 1315.54 464.774C1312.56 466.713 1311.1 469.548 1307.44 470.233L1306.63 469.608C1309.98 462.86 1323.32 459.007 1330.22 457.568Z"/><path fill="#B62316" d="M1369.69 575.188L1370.65 576.11C1372.94 585.392 1371.45 603.901 1367.68 612.748C1363.87 604.905 1364.45 582.224 1369.69 575.188Z"/><path fill="#B62316" d="M1367.6 505.352C1371.06 509.084 1371.3 539.14 1369.94 545.157C1368.66 544.56 1367.73 543.555 1367.44 542.285C1366.12 536.612 1365.8 509.416 1367.6 505.352Z"/><path fill="#B62316" d="M1288.95 582.902C1296.43 587.431 1295.67 605.615 1293.11 612.621L1291.4 613.191C1288.71 609.874 1289 588.075 1288.95 582.902Z"/><path fill="#B62316" d="M1369.85 547.762C1370.33 548.567 1370.64 549.455 1370.78 550.379C1371.82 557.32 1372.6 569.876 1368.16 575.528C1367.51 574.83 1367.11 574.32 1366.93 573.349C1365.08 563.041 1364.94 556.701 1369.85 547.762Z"/><path fill="#B62316" d="M1291.96 614.845C1294.28 616.574 1298.51 638.299 1299.46 643.191C1293.75 640.607 1289.59 620.332 1291.96 614.845Z"/><path fill="#B62316" d="M1366.99 613.285L1368.26 614.356C1369.38 619.978 1366.6 629.32 1364.44 634.531L1363.63 634.549C1362.29 631.383 1365.59 616.932 1366.99 613.285Z"/><path fill="#B62316" d="M1362.66 484.694L1363.74 485.212C1366.9 489.497 1367.9 498.522 1368.05 503.754L1366.15 502.6C1364.07 498.982 1363.23 489.316 1362.66 484.694Z"/><path fill="#B62316" d="M1360.79 640.448C1363.44 645.144 1355.75 652.346 1352.08 654.839L1351.54 653.788C1354.22 649.724 1357.32 643.336 1360.79 640.448Z"/><path fill="#B62316" d="M1303.7 472.135L1304.3 472.895C1303 478.129 1301.27 482.717 1298.49 487.337L1297.61 486.025C1297.57 481.187 1301.14 476.246 1303.7 472.135Z"/><path fill="#B62316" d="M1293.37 503.547C1293.86 500.48 1294.17 497.307 1295.55 494.541C1296.62 497.095 1295.18 505.68 1295.18 509.264C1294.75 506.536 1294.83 505.776 1293.37 503.547Z"/></svg>
