<?xml version="1.0" encoding="UTF-8"?>
<!DOCTYPE svg PUBLIC "-//W3C//DTD SVG 1.1//EN" "http://www.w3.org/Graphics/SVG/1.1/DTD/svg11.dtd">
<svg xmlns="http://www.w3.org/2000/svg" version="1.1" width="665px" height="225px" style="shape-rendering:geometricPrecision; text-rendering:geometricPrecision; image-rendering:optimizeQuality; fill-rule:evenodd; clip-rule:evenodd" xmlns:xlink="http://www.w3.org/1999/xlink">
<g><path style="opacity:1" fill="#83643a" d="M 67.5,-0.5 C 242.833,-0.5 418.167,-0.5 593.5,-0.5C 593.611,1.64769 592.944,1.98103 591.5,0.5C 590.5,1 589.5,1.5 588.5,2C 416.167,2.58046 243.833,3.08046 71.5,3.5C 70.6304,1.72632 69.297,0.392987 67.5,-0.5 Z"/></g>
<g><path style="opacity:1" fill="#a07d50" d="M 61.5,-0.5 C 63.5,-0.5 65.5,-0.5 67.5,-0.5C 69.297,0.392987 70.6304,1.72632 71.5,3.5C 69.901,3.23219 68.5676,3.56552 67.5,4.5C 66.8333,4.5 66.5,4.83333 66.5,5.5C 65.5,5.5 64.5,5.5 63.5,5.5C 62.0466,8.40684 60.5466,11.4068 59,14.5C 59.1049,11.9715 58.9383,9.63822 58.5,7.5C 58.5,6.83333 58.5,6.16667 58.5,5.5C 58.9752,3.21632 59.9752,1.21632 61.5,-0.5 Z"/></g>
<g><path style="opacity:1" fill="#6a4c28" d="M 593.5,-0.5 C 594.833,-0.5 596.167,-0.5 597.5,-0.5C 596.94,1.80079 596.44,4.13412 596,6.5C 595.023,5.22641 594.189,5.22641 593.5,6.5C 592.508,6.67158 591.842,6.33825 591.5,5.5C 417.001,4.50032 242.334,4.16699 67.5,4.5C 68.5676,3.56552 69.901,3.23219 71.5,3.5C 243.833,3.08046 416.167,2.58046 588.5,2C 589.5,1.5 590.5,1 591.5,0.5C 592.944,1.98103 593.611,1.64769 593.5,-0.5 Z"/></g>
<g><path style="opacity:1" fill="#f2faf9" d="M 57.5,5.5 C 56.475,5.10343 56.3083,4.43677 57,3.5C 57.4643,4.09442 57.631,4.76109 57.5,5.5 Z"/></g>
<g><path style="opacity:1" fill="#4a4c39" d="M 67.5,4.5 C 242.334,4.16699 417.001,4.50032 591.5,5.5C 416.833,5.5 242.167,5.5 67.5,5.5C 67.7373,6.79105 67.404,7.79105 66.5,8.5C 66.5,7.5 66.5,6.5 66.5,5.5C 66.5,4.83333 66.8333,4.5 67.5,4.5 Z"/></g>
<g><path style="opacity:1" fill="#586f5d" d="M 591.5,5.5 C 591.842,6.33825 592.508,6.67158 593.5,6.5C 593.963,9.48237 594.296,12.4824 594.5,15.5C 594.874,18.8884 596.874,20.7218 600.5,21C 602.037,22.7073 603.704,24.2073 605.5,25.5C 605.875,27.6976 606.542,29.6976 607.5,31.5C 618.333,34.5879 627.666,40.2546 635.5,48.5C 639.804,53.4723 642.804,59.139 644.5,65.5C 644.467,70.7713 645.634,75.7713 648,80.5C 648.5,88.8267 648.666,97.16 648.5,105.5C 648.01,112.642 646.01,119.309 642.5,125.5C 641.25,125.423 640.417,124.756 640,123.5C 639.085,124.328 638.419,125.328 638,126.5C 637.667,125.833 637.333,125.167 637,124.5C 635.556,126.155 633.722,126.822 631.5,126.5C 644.873,101.543 643.373,77.543 627,54.5C 621.698,48.6017 615.198,44.935 607.5,43.5C 604.713,42.5233 601.713,42.19 598.5,42.5C 598.784,40.5853 598.451,38.9187 597.5,37.5C 596.26,31.7585 592.76,28.0918 587,26.5C 585.69,22.9296 584.857,19.263 584.5,15.5C 500.003,14.1667 415.169,13.5 330,13.5C 244.999,13.5 160.166,13.8333 75.5,14.5C 73.9914,17.6777 72.658,21.0111 71.5,24.5C 65.8387,27.8316 61.5054,32.4983 58.5,38.5C 57.2373,33.6554 56.2373,29.3221 55.5,25.5C 57.6609,21.8439 60.8276,19.5106 65,18.5C 65.696,15.5219 66.196,12.5219 66.5,9.5C 66.5,9.16667 66.5,8.83333 66.5,8.5C 67.404,7.79105 67.7373,6.79105 67.5,5.5C 242.167,5.5 416.833,5.5 591.5,5.5 Z"/></g>
<g><path style="opacity:1" fill="#d6ccbe" d="M 57.5,5.5 C 57.8333,5.5 58.1667,5.5 58.5,5.5C 58.5,6.16667 58.5,6.83333 58.5,7.5C 58.2041,9.40301 57.5375,11.0697 56.5,12.5C 56.7373,11.209 56.404,10.209 55.5,9.5C 56.1667,8.16667 56.8333,6.83333 57.5,5.5 Z"/></g>
<g><path style="opacity:1" fill="#dfc5a8" d="M 599.5,3.5 C 600.833,6.16667 602.167,8.83333 603.5,11.5C 603.5,11.8333 603.5,12.1667 603.5,12.5C 602.178,12.33 601.011,12.6634 600,13.5C 599.209,12.255 598.709,10.9217 598.5,9.5C 598.643,7.73759 598.309,6.07092 597.5,4.5C 598.2,4.21285 598.867,3.87952 599.5,3.5 Z"/></g>
<g><path style="opacity:1" fill="#f5f3f2" d="M 55.5,9.5 C 55.1034,10.525 54.4368,10.6917 53.5,10C 54.0944,9.53566 54.7611,9.36899 55.5,9.5 Z"/></g>
<g><path style="opacity:1" fill="#f2f3f2" d="M 603.5,10.5 C 604.833,11.1667 604.833,11.1667 603.5,10.5 Z"/></g>
<g><path style="opacity:1" fill="#b18c5a" d="M 597.5,-0.5 C 597.833,-0.5 598.167,-0.5 598.5,-0.5C 599.234,0.707917 599.567,2.04125 599.5,3.5C 598.867,3.87952 598.2,4.21285 597.5,4.5C 598.309,6.07092 598.643,7.73759 598.5,9.5C 597.778,9.08247 597.278,8.4158 597,7.5C 596.667,10.8333 596.333,14.1667 596,17.5C 595.722,16.5842 595.222,15.9175 594.5,15.5C 594.296,12.4824 593.963,9.48237 593.5,6.5C 594.189,5.22641 595.023,5.22641 596,6.5C 596.44,4.13412 596.94,1.80079 597.5,-0.5 Z"/></g>
<g><path style="opacity:1" fill="#ddd8d4" d="M 606.5,13.5 C 605.209,13.7373 604.209,13.404 603.5,12.5C 604.583,12.4606 605.583,12.1272 606.5,11.5C 607.463,11.9698 607.463,12.6365 606.5,13.5 Z"/></g>
<g><path style="opacity:1" fill="#6c7252" d="M 75.5,14.5 C 160.166,13.8333 244.999,13.5 330,13.5C 415.169,13.5 500.003,14.1667 584.5,15.5C 583.833,15.1667 583.167,14.8333 582.5,14.5C 413.5,14.5 244.5,14.5 75.5,14.5 Z"/></g>
<g><path style="opacity:1" fill="#eac083" d="M 75.5,14.5 C 244.5,14.5 413.5,14.5 582.5,14.5C 582.672,15.4916 582.338,16.1583 581.5,16.5C 412.999,16.167 244.666,16.5003 76.5,17.5C 76.0951,20.7146 75.0951,23.7146 73.5,26.5C 71.7973,27.6602 71.1307,26.9935 71.5,24.5C 72.658,21.0111 73.9914,17.6777 75.5,14.5 Z"/></g>
<g><path style="opacity:1" fill="#84653d" d="M 598.5,9.5 C 598.709,10.9217 599.209,12.255 600,13.5C 601.011,12.6634 602.178,12.33 603.5,12.5C 604.209,13.404 605.209,13.7373 606.5,13.5C 609.932,14.5993 611.932,16.9326 612.5,20.5C 612.631,21.2389 612.464,21.9056 612,22.5C 611.07,19.6384 609.403,17.305 607,15.5C 606.313,17.9203 606.813,20.087 608.5,22C 606.574,22.4224 605.574,23.5891 605.5,25.5C 603.704,24.2073 602.037,22.7073 600.5,21C 596.874,20.7218 594.874,18.8884 594.5,15.5C 595.222,15.9175 595.722,16.5842 596,17.5C 596.333,14.1667 596.667,10.8333 597,7.5C 597.278,8.4158 597.778,9.08247 598.5,9.5 Z"/></g>
<g><path style="opacity:1" fill="#86653e" d="M 66.5,5.5 C 66.5,6.5 66.5,7.5 66.5,8.5C 66.5,8.83333 66.5,9.16667 66.5,9.5C 64.9318,11.8109 64.0984,14.4776 64,17.5C 58.3087,18.0767 54.8087,21.0767 53.5,26.5C 51.6535,28.0301 50.6535,30.0301 50.5,32.5C 48.1432,32.3367 45.8098,32.5034 43.5,33C 40.4462,35.4203 37.1129,37.2536 33.5,38.5C 30.6967,38.9613 28.3634,40.2947 26.5,42.5C 26.4208,41.0695 26.7542,39.7362 27.5,38.5C 26.5281,38.407 25.5281,38.0736 24.5,37.5C 26.5,36.1667 28.1667,34.5 29.5,32.5C 31.9754,29.7589 34.9754,27.7589 38.5,26.5C 40.861,26.3259 43.1944,25.9926 45.5,25.5C 45.281,26.675 45.6143,27.675 46.5,28.5C 47.2521,25.7371 48.2521,23.0704 49.5,20.5C 49.3333,20.1667 49.1667,19.8333 49,19.5C 48.0853,20.3279 47.4186,21.3279 47,22.5C 46.5172,21.552 46.3505,20.552 46.5,19.5C 48.3622,15.2228 51.6955,12.8894 56.5,12.5C 57.5375,11.0697 58.2041,9.40301 58.5,7.5C 58.9383,9.63822 59.1049,11.9715 59,14.5C 60.5466,11.4068 62.0466,8.40684 63.5,5.5C 64.5,5.5 65.5,5.5 66.5,5.5 Z"/></g>
<g><path style="opacity:1" fill="#a69a6f" d="M 76.5,17.5 C 244.666,16.5003 412.999,16.167 581.5,16.5C 581.5,16.8333 581.5,17.1667 581.5,17.5C 418.166,17.3333 254.833,17.5 91.5,18C 92.8333,18.3333 94.1667,18.6667 95.5,19C 90.6482,21.2321 85.6482,21.7321 80.5,20.5C 81.6651,19.4164 82.9984,18.5831 84.5,18C 81.854,17.5026 79.1873,17.3359 76.5,17.5 Z"/></g>
<g><path style="opacity:1" fill="#586f5d" d="M 76.5,17.5 C 79.1873,17.3359 81.854,17.5026 84.5,18C 82.9984,18.5831 81.6651,19.4164 80.5,20.5C 85.6482,21.7321 90.6482,21.2321 95.5,19C 94.1667,18.6667 92.8333,18.3333 91.5,18C 254.833,17.5 418.166,17.3333 581.5,17.5C 581.959,20.8774 582.626,24.2107 583.5,27.5C 581.801,27.3398 580.134,27.5065 578.5,28C 581.86,31.7481 585.86,34.0815 590.5,35C 589.122,33.2866 587.455,31.9533 585.5,31C 587.289,30.4795 588.956,30.8129 590.5,32C 593.492,35.4357 594.492,39.2691 593.5,43.5C 591.157,44.7253 589.323,44.0586 588,41.5C 587.508,42.549 587.674,43.549 588.5,44.5C 590.607,46.5302 592.607,48.6969 594.5,51C 597.548,50.4219 600.548,50.5886 603.5,51.5C 604.432,55.2961 605.766,58.9628 607.5,62.5C 607.291,63.086 606.957,63.586 606.5,64C 607.906,66.4449 609.24,68.9449 610.5,71.5C 610.361,74.4755 610.027,77.4755 609.5,80.5C 609.942,81.7387 610.609,82.7387 611.5,83.5C 608.478,87.5214 604.811,90.8547 600.5,93.5C 601.852,94.5244 603.185,95.5244 604.5,96.5C 603.982,97.5774 603.648,98.7441 603.5,100C 604.778,107.724 608.278,114.224 614,119.5C 615.008,114.459 615.508,114.792 615.5,120.5C 613.827,129.501 608.827,135.835 600.5,139.5C 598.41,137.894 596.076,137.394 593.5,138C 591.297,143.228 587.797,147.395 583,150.5C 582.086,152.664 580.919,154.664 579.5,156.5C 579.833,156.833 580.167,157.167 580.5,157.5C 584.978,154.19 589.311,150.69 593.5,147C 594.483,146.409 595.15,146.743 595.5,148C 595.138,149.225 594.638,150.391 594,151.5C 590.19,155.4 586.19,159.066 582,162.5C 581.505,164.473 581.338,166.473 581.5,168.5C 574.5,168.5 567.5,168.5 560.5,168.5C 533.338,167.502 506.005,167.169 478.5,167.5C 481.305,166.681 484.305,166.181 487.5,166C 486.624,164.415 485.291,163.415 483.5,163C 484.5,162.667 485.5,162.333 486.5,162C 483.735,161.875 482.068,161.042 481.5,159.5C 480.353,159.818 479.519,160.484 479,161.5C 478.692,160.692 478.192,160.025 477.5,159.5C 477.704,160.529 477.204,161.529 476,162.5C 474.326,155.452 471.326,154.452 467,159.5C 466.667,158.833 466.333,158.167 466,157.5C 465.259,158.641 464.425,158.641 463.5,157.5C 462.086,158.624 460.586,159.624 459,160.5C 456.729,156.965 454.062,156.631 451,159.5C 450.167,159.333 449.333,159.167 448.5,159C 448.833,158.667 449.167,158.333 449.5,158C 447.276,155.851 445.776,156.351 445,159.5C 444.667,158.833 444.333,158.167 444,157.5C 443.138,159.087 442.471,160.754 442,162.5C 441.667,161.833 441.333,161.167 441,160.5C 440.333,161.833 439.667,161.833 439,160.5C 438.383,159.551 438.549,158.718 439.5,158C 437.341,154.682 436.675,154.849 437.5,158.5C 435.668,159.248 434.001,160.248 432.5,161.5C 430.316,162.108 428.316,161.441 426.5,159.5C 425.063,162.044 423.563,162.044 422,159.5C 421.047,161.592 419.714,161.925 418,160.5C 416.029,162.1 414.196,162.266 412.5,161C 412.833,160.667 413.167,160.333 413.5,160C 412.065,160.311 410.732,160.145 409.5,159.5C 409.002,160.603 408.669,161.603 408.5,162.5C 406.65,161.758 405.984,160.758 406.5,159.5C 405.481,160.687 404.314,161.687 403,162.5C 402.667,162.167 402.333,161.833 402,161.5C 401.667,162.5 401.333,163.5 401,164.5C 399.561,161.725 397.728,159.225 395.5,157C 396.337,155.989 396.67,154.822 396.5,153.5C 393.402,153.413 393.068,153.913 395.5,155C 394.128,155.402 392.795,155.902 391.5,156.5C 390.264,155.754 388.93,155.421 387.5,155.5C 387.762,156.978 387.429,158.311 386.5,159.5C 387.108,157.316 386.441,155.316 384.5,153.5C 383.749,154.376 383.249,155.376 383,156.5C 382.667,156.167 382.333,155.833 382,155.5C 381.751,156.624 381.251,157.624 380.5,158.5C 377.888,158.929 376.388,159.929 376,161.5C 374.278,161.389 374.112,160.889 375.5,160C 374.874,159.25 374.374,158.416 374,157.5C 372.16,158.833 371.66,158.666 372.5,157C 371.975,156.308 371.308,155.808 370.5,155.5C 369.41,156.727 368.076,157.56 366.5,158C 367.654,158.914 367.487,159.747 366,160.5C 364.753,158.119 364.42,158.453 365,161.5C 365.75,162.126 366.584,162.626 367.5,163C 365.559,163.304 363.893,164.137 362.5,165.5C 362.891,164.282 362.224,163.448 360.5,163C 363.167,162.333 363.167,161.667 360.5,161C 360.833,160.667 361.167,160.333 361.5,160C 360.256,159.544 359.423,160.044 359,161.5C 358.667,160.833 358.333,160.167 358,159.5C 357.5,160.667 356.667,161.5 355.5,162C 356.167,162.333 356.833,162.667 357.5,163C 357.07,163.92 356.736,164.753 356.5,165.5C 354.833,164.167 353.167,162.833 351.5,161.5C 351.089,162.262 350.923,163.262 351,164.5C 349.16,163.167 348.66,163.334 349.5,165C 346.167,165.333 342.833,165.667 339.5,166C 343.423,166.793 347.256,166.626 351,165.5C 353.277,166.117 355.444,166.784 357.5,167.5C 323.832,167.667 290.165,167.5 256.5,167C 276.175,166.833 295.842,166.333 315.5,165.5C 318.365,162.926 321.199,162.926 324,165.5C 325.067,164.809 326.234,164.309 327.5,164C 326.742,162.636 327.242,161.469 329,160.5C 329.26,162.618 330.26,164.284 332,165.5C 332.121,163.273 332.954,161.44 334.5,160C 333.167,159.333 332.167,158.333 331.5,157C 329.286,156.54 328.619,157.207 329.5,159C 327.617,160.78 325.617,160.947 323.5,159.5C 322.328,159.919 321.328,160.585 320.5,161.5C 319.3,160.469 317.966,159.635 316.5,159C 318.158,158.275 318.658,157.108 318,155.5C 317.667,156.167 317.333,156.833 317,157.5C 315.215,154.58 313.048,152.58 310.5,151.5C 309.833,152.833 309.167,154.167 308.5,155.5C 308.891,154.282 308.224,153.448 306.5,153C 306.833,152.667 307.167,152.333 307.5,152C 306.167,151.333 304.833,151.333 303.5,152C 307.814,154.698 307.48,156.698 302.5,158C 303.517,159.049 303.684,160.216 303,161.5C 302.667,160.833 302.333,160.167 302,159.5C 301.915,161.085 301.749,162.418 301.5,163.5C 301.159,161.028 299.992,158.695 298,156.5C 297,157.5 296,158.5 295,159.5C 291.079,160.42 287.246,160.42 283.5,159.5C 284.637,155.638 283.637,154.971 280.5,157.5C 279.833,157.167 279.167,156.833 278.5,156.5C 277.094,157.951 275.594,159.284 274,160.5C 271.724,158.465 269.891,156.132 268.5,153.5C 268.642,155.382 268.142,157.382 267,159.5C 266.644,156.271 264.81,154.771 261.5,155C 262.624,154.751 263.624,154.251 264.5,153.5C 264.333,153.167 264.167,152.833 264,152.5C 261.883,153.343 259.55,153.677 257,153.5C 255.272,151.806 255.772,150.639 258.5,150C 256.212,149.178 253.878,148.511 251.5,148C 253.815,146.632 253.815,145.799 251.5,145.5C 250.945,147.648 249.445,149.648 247,151.5C 246,149.833 245,148.167 244,146.5C 243.667,147.5 243.333,148.5 243,149.5C 239.687,148.14 237.021,149.473 235,153.5C 233.62,150.942 232.12,150.942 230.5,153.5C 228.983,152.089 227.649,152.256 226.5,154C 227.5,154.333 228.5,154.667 229.5,155C 228.333,155.5 227.5,156.333 227,157.5C 226.667,156.833 226.333,156.167 226,155.5C 224.16,156.833 223.66,156.666 224.5,155C 223.382,153.926 222.382,152.76 221.5,151.5C 221.446,152.687 221.113,154.02 220.5,155.5C 219.549,154.674 218.549,154.508 217.5,155C 216.54,156.419 215.707,157.919 215,159.5C 214.316,158.216 214.483,157.049 215.5,156C 213.919,155.293 212.419,154.46 211,153.5C 211.594,155.509 211.427,157.509 210.5,159.5C 208.354,160.057 206.354,160.39 204.5,160.5C 202.968,161.37 201.468,161.036 200,159.5C 199.333,162.167 198.667,162.167 198,159.5C 197.228,160.849 196.061,161.682 194.5,162C 195.5,162.333 196.5,162.667 197.5,163C 196.359,163.741 196.359,164.575 197.5,165.5C 205.479,166.332 213.479,166.832 221.5,167C 181.331,167.167 141.331,167.667 101.5,168.5C 93.1667,168.5 84.8333,168.5 76.5,168.5C 76.7947,166.265 76.4614,164.265 75.5,162.5C 70.5765,158.503 66.2432,153.837 62.5,148.5C 62.369,147.761 62.5357,147.094 63,146.5C 63.7083,147.381 64.5416,148.047 65.5,148.5C 69.1484,151.142 72.8151,153.809 76.5,156.5C 77.6336,154.561 77.3003,152.895 75.5,151.5C 72.3117,148.97 69.145,146.304 66,143.5C 65.79,141.942 65.29,140.609 64.5,139.5C 64.189,138.522 63.5223,137.855 62.5,137.5C 61.452,138.383 60.2853,139.05 59,139.5C 46.2577,132.682 40.9244,122.016 43,107.5C 47.0208,101.979 51.8541,97.3123 57.5,93.5C 54.9088,91.7188 52.5755,89.7188 50.5,87.5C 51.4959,87.4142 52.3292,87.7476 53,88.5C 53.9409,82.3956 52.7742,76.8956 49.5,72C 51.83,68.8873 51.9967,65.7206 50,62.5C 48.3333,63.8333 46.6667,65.1667 45,66.5C 43.5888,70.6305 43.0888,74.6305 43.5,78.5C 40.6608,67.007 44.3275,58.1737 54.5,52C 57.5217,51.1512 60.5217,50.4845 63.5,50C 65.3333,48.1667 67.1667,46.3333 69,44.5C 69.6877,43.6683 69.521,43.0016 68.5,42.5C 66.2534,43.3742 63.9201,43.7076 61.5,43.5C 61.7478,38.8401 63.7478,35.0068 67.5,32C 71.7269,31.2133 75.7269,29.8799 79.5,28C 77.2922,27.8091 75.2922,27.3091 73.5,26.5C 75.0951,23.7146 76.0951,20.7146 76.5,17.5 Z"/></g>
<g><path style="opacity:1" fill="#4b4a35" d="M 66.5,9.5 C 66.196,12.5219 65.696,15.5219 65,18.5C 60.8276,19.5106 57.6609,21.8439 55.5,25.5C 54.8333,25.8333 54.1667,26.1667 53.5,26.5C 54.8087,21.0767 58.3087,18.0767 64,17.5C 64.0984,14.4776 64.9318,11.8109 66.5,9.5 Z"/></g>
<g><path style="opacity:1" fill="#f5f3f2" d="M 614.5,23.5 C 614.281,22.325 614.614,21.325 615.5,20.5C 616.798,22.0517 616.465,23.0517 614.5,23.5 Z"/></g>
<g><path style="opacity:1" fill="#a07b4e" d="M 612.5,20.5 C 613.167,21.5 613.833,22.5 614.5,23.5C 614.5,23.8333 614.5,24.1667 614.5,24.5C 613.399,27.9173 611.065,30.2506 607.5,31.5C 606.542,29.6976 605.875,27.6976 605.5,25.5C 605.574,23.5891 606.574,22.4224 608.5,22C 606.813,20.087 606.313,17.9203 607,15.5C 609.403,17.305 611.07,19.6384 612,22.5C 612.464,21.9056 612.631,21.2389 612.5,20.5 Z"/></g>
<g><path style="opacity:1" fill="#b99b74" d="M 46.5,19.5 C 46.3505,20.552 46.5172,21.552 47,22.5C 47.4186,21.3279 48.0853,20.3279 49,19.5C 49.1667,19.8333 49.3333,20.1667 49.5,20.5C 48.2521,23.0704 47.2521,25.7371 46.5,28.5C 45.6143,27.675 45.281,26.675 45.5,25.5C 43.1944,25.9926 40.861,26.3259 38.5,26.5C 40.2774,25.3995 42.2774,24.5662 44.5,24C 45.0989,22.3775 45.7656,20.8775 46.5,19.5 Z"/></g>
<g><path style="opacity:1" fill="#f2f3f2" d="M 623.5,25.5 C 624.833,26.1667 624.833,26.1667 623.5,25.5 Z"/></g>
<g><path style="opacity:1" fill="#705532" d="M 614.5,24.5 C 616.099,24.2322 617.432,24.5655 618.5,25.5C 621.295,27.1586 621.628,28.9919 619.5,31C 623.23,34.4355 627.564,36.6021 632.5,37.5C 633.251,40.9404 634.918,43.9404 637.5,46.5C 636.757,47.1818 636.091,47.8485 635.5,48.5C 627.666,40.2546 618.333,34.5879 607.5,31.5C 611.065,30.2506 613.399,27.9173 614.5,24.5 Z"/></g>
<g><path style="opacity:1" fill="#f2f3f2" d="M 630.5,29.5 C 631.833,30.1667 631.833,30.1667 630.5,29.5 Z"/></g>
<g><path style="opacity:1" fill="#ded1c5" d="M 29.5,32.5 C 28.1667,34.5 26.5,36.1667 24.5,37.5C 25.1712,36.1529 25.1712,34.9862 24.5,34C 26.1545,33.3923 27.8211,32.8923 29.5,32.5 Z"/></g>
<g><path style="opacity:1" fill="#b99f67" d="M 72.5,31.5 C 73.3764,31.3691 74.0431,31.7025 74.5,32.5C 73.5,33.8333 72.5,35.1667 71.5,36.5C 70.3482,34.6029 70.6815,32.9362 72.5,31.5 Z"/></g>
<g><path style="opacity:1" fill="#546756" d="M 55.5,25.5 C 56.2373,29.3221 57.2373,33.6554 58.5,38.5C 58.5,39.8333 58.5,41.1667 58.5,42.5C 48.0369,42.7332 39.3702,46.7332 32.5,54.5C 30.9323,53.1305 29.099,52.1305 27,51.5C 21.5367,54.8186 18.2034,60.1519 17,67.5C 15.6152,68.5505 14.6152,69.8839 14,71.5C 10.7392,83.031 10.0725,94.6976 12,106.5C 12.3826,107.056 12.8826,107.389 13.5,107.5C 13.7036,109.685 14.3702,111.685 15.5,113.5C 14.6365,112.537 13.9698,112.537 13.5,113.5C 15.1693,118.175 16.8359,122.842 18.5,127.5C 17.2223,127.218 16.2223,126.551 15.5,125.5C 9.72243,111.411 7.55576,96.7445 9,81.5C 11.1966,74.039 13.6966,66.7056 16.5,59.5C 17.3382,59.1583 17.6716,58.4916 17.5,57.5C 21.6708,55.4865 24.1708,52.1532 25,47.5C 28.0657,44.6043 30.8991,41.6043 33.5,38.5C 37.1129,37.2536 40.4462,35.4203 43.5,33C 45.8098,32.5034 48.1432,32.3367 50.5,32.5C 50.6535,30.0301 51.6535,28.0301 53.5,26.5C 54.1667,26.1667 54.8333,25.8333 55.5,25.5 Z"/></g>
<g><path style="opacity:1" fill="#5a705e" d="M 237.5,90.5 C 236.01,92.2798 234.01,92.9465 231.5,92.5C 231.5,88.1667 231.5,83.8333 231.5,79.5C 235.226,79.8226 238.893,79.4892 242.5,78.5C 241.167,76.5 239.5,74.8333 237.5,73.5C 235.833,74.8333 234.167,76.1667 232.5,77.5C 230.991,73.2707 231.324,69.2707 233.5,65.5C 231.255,63.3773 228.588,62.3773 225.5,62.5C 225.5,67.5 225.5,72.5 225.5,77.5C 223.167,77.5 220.833,77.5 218.5,77.5C 218.207,73.5633 218.54,69.73 219.5,66C 216.818,64.2385 214.152,63.7385 211.5,64.5C 211.5,68.8333 211.5,73.1667 211.5,77.5C 208.753,77.1866 206.086,77.52 203.5,78.5C 203.624,79.1067 203.957,79.44 204.5,79.5C 206.607,80.4682 208.941,80.8016 211.5,80.5C 211.5,84.5 211.5,88.5 211.5,92.5C 208.287,92.19 205.287,92.5233 202.5,93.5C 204.988,95.3878 207.988,96.0545 211.5,95.5C 211.098,103.644 207.598,109.977 201,114.5C 200.228,114.355 199.561,114.022 199,113.5C 198.833,110 198.667,106.5 198.5,103C 198.429,98.2509 198.929,93.7509 200,89.5C 198.323,88.4841 196.657,87.4841 195,86.5C 193.831,87.0085 192.998,87.8419 192.5,89C 189.183,89.4983 185.85,89.665 182.5,89.5C 180.407,93.1757 178.074,93.3423 175.5,90C 176.449,89.3828 177.282,89.5494 178,90.5C 179.119,89.4479 179.619,88.2812 179.5,87C 182.437,85.3386 185.437,84.8386 188.5,85.5C 189.354,84.4783 190.354,83.6449 191.5,83C 189.606,81.9207 189.273,80.5874 190.5,79C 189.833,78.6667 189.167,78.3333 188.5,78C 189.833,77.3333 189.833,76.6667 188.5,76C 189.715,73.9045 190.549,74.0712 191,76.5C 191.557,74.4141 190.724,73.0807 188.5,72.5C 187.684,75.5467 185.684,77.2134 182.5,77.5C 182.985,80.112 182.151,80.112 180,77.5C 177.874,77.7906 175.54,78.4573 173,79.5C 172.5,79 172,78.5 171.5,78C 176.377,77.409 177.044,76.0757 173.5,74C 177.356,73.4674 180.356,71.634 182.5,68.5C 182.291,67.914 181.957,67.414 181.5,67C 182.667,65.8333 183.833,64.6667 185,63.5C 185.333,64.5 185.667,65.5 186,66.5C 186.5,65.3333 187.333,64.5 188.5,64C 187.044,63.5774 186.544,62.7441 187,61.5C 187.333,61.8333 187.667,62.1667 188,62.5C 191.462,62.017 191.962,60.8504 189.5,59C 191.131,56.8427 191.631,54.3427 191,51.5C 195.633,52.8468 199.8,51.8468 203.5,48.5C 203.833,49.1667 204.167,49.8333 204.5,50.5C 205.086,50.2907 205.586,49.9574 206,49.5C 209.233,51.1663 212.399,51.333 215.5,50C 214.549,49.2825 214.383,48.4491 215,47.5C 216.183,48.731 217.349,48.731 218.5,47.5C 220.02,46.1501 220.687,44.8168 220.5,43.5C 221.167,44.8333 221.833,46.1667 222.5,47.5C 223.606,45.7156 223.606,43.8822 222.5,42C 224.397,40.2169 226.063,38.2169 227.5,36C 226.953,35.0754 226.287,34.2421 225.5,33.5C 224.167,34.5 222.833,35.5 221.5,36.5C 221.721,33.6803 223.388,31.5136 226.5,30C 220.859,27.3164 221.192,25.9831 227.5,26C 225.654,23.4375 223.487,21.2708 221,19.5C 216.658,19.5201 212.158,19.6868 207.5,20C 205.161,21.3426 202.828,22.676 200.5,24C 201.126,24.7504 201.626,25.5838 202,26.5C 203.364,25.7417 204.531,26.2417 205.5,28C 203.273,29.8355 201.44,29.3355 200,26.5C 199.313,28.9203 199.813,31.087 201.5,33C 200.5,34 199.5,35 198.5,36C 199.449,36.6172 200.282,36.4506 201,35.5C 200.968,37.5785 201.134,39.5785 201.5,41.5C 199.833,42.5 198.5,43.8333 197.5,45.5C 196.512,42.6151 195.012,42.9484 193,46.5C 193.43,44.873 193.596,43.373 193.5,42C 192.354,41.3551 191.354,40.5217 190.5,39.5C 189.468,41.0396 188.135,41.5396 186.5,41C 188.776,39.9698 189.443,38.4698 188.5,36.5C 187.414,39.711 185.414,40.711 182.5,39.5C 181.808,40.0253 181.308,40.6919 181,41.5C 179.287,39.8071 177.287,38.4738 175,37.5C 173.605,38.8146 172.605,38.4812 172,36.5C 170.398,38.3955 168.898,40.3955 167.5,42.5C 166.675,43.3857 165.675,43.719 164.5,43.5C 164.688,45.1033 164.188,46.4366 163,47.5C 161.365,46.2744 159.865,44.941 158.5,43.5C 159.025,42.8076 159.692,42.3076 160.5,42C 158.744,41.7978 157.078,41.2978 155.5,40.5C 156.648,38.8513 157.981,37.3513 159.5,36C 159.167,35.6667 158.833,35.3333 158.5,35C 159.793,34.51 161.127,34.3433 162.5,34.5C 161.836,32.1331 160.503,30.1331 158.5,28.5C 160.781,26.674 160.781,24.674 158.5,22.5C 158.833,21.5 159.5,20.8333 160.5,20.5C 163.493,22.1362 164.493,24.4695 163.5,27.5C 164.723,28.6139 166.056,28.7805 167.5,28C 166.029,26.0811 166.362,25.0811 168.5,25C 167.366,26.016 167.699,26.6827 169.5,27C 168.167,27.6667 168.167,28.3333 169.5,29C 166.833,29.6667 166.833,30.3333 169.5,31C 168.399,33.2924 169.232,34.7924 172,35.5C 171.877,33.55 172.877,31.8834 175,30.5C 175.448,32.2244 176.282,32.891 177.5,32.5C 176.189,33.2575 175.689,34.2575 176,35.5C 179.323,33.6634 182.489,31.6634 185.5,29.5C 184.5,28.8333 183.5,28.1667 182.5,27.5C 184.657,27.219 186.323,25.719 187.5,23C 185.633,22.2888 184.133,22.7888 183,24.5C 181.167,23.3333 179.667,21.8333 178.5,20C 176.5,19.6667 174.5,19.3333 172.5,19C 198.167,18.3333 223.833,18.3333 249.5,19C 246.167,19.3333 242.833,19.6667 239.5,20C 240.167,20.3333 240.833,20.6667 241.5,21C 237.502,22.5788 233.502,23.2454 229.5,23C 228.017,25.573 228.517,27.7397 231,29.5C 230.981,27.8925 230.815,26.2259 230.5,24.5C 231.873,24.3433 233.207,24.51 234.5,25C 234.539,26.2447 234.205,27.5781 233.5,29C 233.905,29.9454 234.572,30.6121 235.5,31C 234.5,31.8333 233.5,32.6667 232.5,33.5C 232.709,34.086 233.043,34.586 233.5,35C 232.256,35.4561 231.423,34.9561 231,33.5C 230.55,35.519 229.717,37.3523 228.5,39C 229.623,40.0437 230.956,40.7104 232.5,41C 231.672,41.9147 230.672,42.5814 229.5,43C 231.289,43.5205 232.956,43.1871 234.5,42C 233.216,40.7025 233.383,39.5358 235,38.5C 235.317,40.3008 235.984,40.6341 237,39.5C 237.684,40.7839 237.517,41.9505 236.5,43C 237.328,43.9147 238.328,44.5814 239.5,45C 239.167,45.3333 238.833,45.6667 238.5,46C 245.167,47.3333 245.167,48.6667 238.5,50C 240.717,51.2754 243.051,52.2754 245.5,53C 244.833,53.3333 244.167,53.6667 243.5,54C 244.833,54.3333 246.167,54.6667 247.5,55C 246.167,55.6667 245.167,56.6667 244.5,58C 246.887,57.5844 248.72,58.7511 250,61.5C 251.487,60.7471 251.654,59.9138 250.5,59C 252.134,58.5065 253.801,58.3398 255.5,58.5C 255.343,59.8734 255.51,61.2068 256,62.5C 257.337,61.2351 258.837,60.7351 260.5,61C 258.517,62.8889 256.184,64.2223 253.5,65C 253.741,66.5625 253.241,68.0625 252,69.5C 249.265,65.8167 247.265,65.8167 246,69.5C 247.049,68.4829 248.216,68.3162 249.5,69C 248.333,70.1667 247.167,71.3333 246,72.5C 245.667,72.1667 245.333,71.8333 245,71.5C 243.266,72.2489 241.433,72.7489 239.5,73C 240.667,74.1667 241.833,75.3333 243,76.5C 243.317,74.6992 243.984,74.3659 245,75.5C 244.689,76.9346 244.855,78.2679 245.5,79.5C 244.902,80.7946 244.402,82.1279 244,83.5C 242.192,83.1119 240.525,83.1119 239,83.5C 238.683,85.3008 238.016,85.6341 237,84.5C 235.5,85.3333 234.333,86.5 233.5,88C 234.449,88.6172 235.282,88.4506 236,87.5C 236.513,88.5266 237.013,89.5266 237.5,90.5 Z"/></g>
<g><path style="opacity:1" fill="#f9f3f2" d="M 642.5,41.5 C 643.833,42.1667 643.833,42.1667 642.5,41.5 Z"/></g>
<g><path style="opacity:1" fill="#898460" d="M 597.5,37.5 C 598.451,38.9187 598.784,40.5853 598.5,42.5C 601.713,42.19 604.713,42.5233 607.5,43.5C 604.167,43.5 600.833,43.5 597.5,43.5C 597.5,41.5 597.5,39.5 597.5,37.5 Z"/></g>
<g><path style="opacity:1" fill="#685131" d="M 33.5,38.5 C 30.8991,41.6043 28.0657,44.6043 25,47.5C 24.1708,52.1532 21.6708,55.4865 17.5,57.5C 19.2477,51.7515 22.2477,46.7515 26.5,42.5C 28.3634,40.2947 30.6967,38.9613 33.5,38.5 Z"/></g>
<g><path style="opacity:1" fill="#967248" d="M 24.5,37.5 C 25.5281,38.0736 26.5281,38.407 27.5,38.5C 26.7542,39.7362 26.4208,41.0695 26.5,42.5C 22.2477,46.7515 19.2477,51.7515 17.5,57.5C 17.6716,58.4916 17.3382,59.1583 16.5,59.5C 14.4727,60.8606 12.806,62.5273 11.5,64.5C 12.0084,61.1485 13.3418,58.1485 15.5,55.5C 14.5585,55.5105 13.8919,55.0105 13.5,54C 13.9891,52.8615 14.3225,51.6948 14.5,50.5C 15.8089,47.2223 17.6422,44.2223 20,41.5C 21.3712,39.9586 22.8712,38.6253 24.5,37.5 Z"/></g>
<g><path style="opacity:1" fill="#5c7060" d="M 369.5,73.5 C 367.257,74.8117 364.59,75.4783 361.5,75.5C 358.833,75.3333 356.167,75.1667 353.5,75C 352.667,74.1667 351.833,73.3333 351,72.5C 350.528,76.1105 349.028,79.1105 346.5,81.5C 345.304,79.0185 343.804,79.0185 342,81.5C 340.47,80.0798 338.637,79.0798 336.5,78.5C 338.04,78.3158 339.373,77.1492 340.5,75C 340.333,74.5 340.167,74 340,73.5C 339.395,75.4812 338.395,75.8146 337,74.5C 336.386,72.6866 336.719,72.3533 338,73.5C 338.5,73 339,72.5 339.5,72C 337.673,69.7583 336.006,67.425 334.5,65C 335.5,64.6667 336.5,64.3333 337.5,64C 336.167,63.3333 336.167,62.6667 337.5,62C 334.68,61.2645 332.68,59.5978 331.5,57C 332.551,55.6152 333.884,54.6152 335.5,54C 335.167,53.6667 334.833,53.3333 334.5,53C 335.5,52.6667 336.5,52.3333 337.5,52C 336.359,51.2588 336.359,50.4255 337.5,49.5C 336.609,48.4104 335.609,48.4104 334.5,49.5C 333.392,52.5032 331.725,53.0032 329.5,51C 330.851,49.3829 332.518,48.2162 334.5,47.5C 333.975,46.8076 333.308,46.3076 332.5,46C 334.004,44.5093 334.837,42.676 335,40.5C 337.045,39.1131 339.212,37.9464 341.5,37C 339.888,36.2797 338.388,36.4464 337,37.5C 336.51,36.2068 336.343,34.8734 336.5,33.5C 334.876,33.3601 333.71,34.0267 333,35.5C 331.891,31.983 330.724,31.8163 329.5,35C 329.905,35.9454 330.572,36.6121 331.5,37C 330.663,38.0113 330.33,39.1779 330.5,40.5C 333.684,40.3322 334.184,41.6655 332,44.5C 331.085,43.6721 330.419,42.6721 330,41.5C 328.481,48.0585 326.481,48.0585 324,41.5C 323.289,43.3668 323.789,44.8668 325.5,46C 323.112,46.0408 320.779,46.8742 318.5,48.5C 317.692,48.1924 317.025,47.6924 316.5,47C 317.938,46.7811 319.271,46.2811 320.5,45.5C 320.154,44.3044 319.654,44.3044 319,45.5C 317.186,43.2849 316.686,40.9515 317.5,38.5C 318.251,39.376 318.751,40.376 319,41.5C 320.041,38.8874 321.541,36.5541 323.5,34.5C 327.695,37.2548 328.695,36.5882 326.5,32.5C 328.463,28.757 330.129,25.257 331.5,22C 325.396,21.0396 325.229,20.2063 331,19.5C 334.028,20.1054 336.695,20.772 339,21.5C 339.725,19.842 340.892,19.342 342.5,20C 338.224,23.2176 338.891,24.8843 344.5,25C 343.24,26.113 342.073,26.2797 341,25.5C 336.184,28.5911 336.351,30.7578 341.5,32C 339.715,30.4071 339.548,28.9071 341,27.5C 342,29.1667 343,30.8333 344,32.5C 344.925,31.9535 345.758,31.2868 346.5,30.5C 345.833,30.1667 345.167,29.8333 344.5,29.5C 345.531,28.2997 346.365,26.9663 347,25.5C 348.65,26.8908 349.15,28.3908 348.5,30C 351.099,30.769 353.599,30.6023 356,29.5C 355.208,31.4783 353.708,33.145 351.5,34.5C 352.82,36.2701 354.32,36.6034 356,35.5C 356.617,36.4491 356.451,37.2825 355.5,38C 356.5,38.3333 357.5,38.6667 358.5,39C 356.999,40.2515 355.332,41.2515 353.5,42C 356.131,43.6909 355.797,44.8576 352.5,45.5C 353.376,46.2508 354.376,46.7508 355.5,47C 351.489,47.1663 350.989,47.9996 354,49.5C 354.333,49.1667 354.667,48.8333 355,48.5C 354.667,49.8333 354.333,51.1667 354,52.5C 354.333,52.1667 354.667,51.8333 355,51.5C 356.667,53.1667 358.333,54.8333 360,56.5C 360.667,55.1667 361.333,55.1667 362,56.5C 362.317,54.6992 362.984,54.3659 364,55.5C 365.487,54.7471 365.654,53.9138 364.5,53C 366.298,51.4947 368.132,51.3281 370,52.5C 371.333,51.8333 372.333,50.8333 373,49.5C 376.32,51.1751 376.82,53.1751 374.5,55.5C 373.522,55.0233 372.689,54.3567 372,53.5C 371.333,54.8333 370.333,55.8333 369,56.5C 368,56.5 367,56.5 366,56.5C 365.6,59.0526 364.767,61.7193 363.5,64.5C 364.675,64.281 365.675,64.6143 366.5,65.5C 367.209,68.3844 368.209,71.051 369.5,73.5 Z"/></g>
<g><path style="opacity:1" fill="#87663f" d="M 618.5,25.5 C 620.216,25.6287 621.883,25.962 623.5,26.5C 639.032,37.8913 649.366,52.8913 654.5,71.5C 654.171,74.2282 654.837,76.5615 656.5,78.5C 656.5,78.8333 656.5,79.1667 656.5,79.5C 656.666,87.1739 656.5,94.8406 656,102.5C 655.667,100.833 655.333,99.1667 655,97.5C 654.517,98.448 654.351,99.448 654.5,100.5C 653.833,95.5 653.167,90.5 652.5,85.5C 652.998,81.7806 652.164,78.4473 650,75.5C 649.51,76.7932 649.343,78.1266 649.5,79.5C 648.636,74.575 646.969,69.9083 644.5,65.5C 642.804,59.139 639.804,53.4723 635.5,48.5C 636.091,47.8485 636.757,47.1818 637.5,46.5C 634.918,43.9404 633.251,40.9404 632.5,37.5C 627.564,36.6021 623.23,34.4355 619.5,31C 621.628,28.9919 621.295,27.1586 618.5,25.5 Z"/></g>
<g><path style="opacity:1" fill="#728672" d="M 42.5,61.5 C 37.1298,73.3099 39.4632,83.4766 49.5,92C 46.7688,91.138 44.1021,89.9713 41.5,88.5C 41.6107,87.8826 41.944,87.3826 42.5,87C 40.5273,86.5045 38.5273,86.3379 36.5,86.5C 34.0311,78.1113 34.3644,69.9447 37.5,62C 36.1837,60.0224 36.6837,58.5224 39,57.5C 40.0319,59.0267 41.1986,60.36 42.5,61.5 Z"/></g>
<g><path style="opacity:1" fill="#5e7664" d="M 32.5,54.5 C 27.2838,60.2617 23.6172,66.9284 21.5,74.5C 20.2616,76.2143 19.595,78.2143 19.5,80.5C 18.7321,79.7375 18.2321,78.7375 18,77.5C 17,78.8333 16,78.8333 15,77.5C 14.1779,79.7885 13.5112,82.1218 13,84.5C 12.3645,92.0465 12.5312,99.7132 13.5,107.5C 12.8826,107.389 12.3826,107.056 12,106.5C 10.0725,94.6976 10.7392,83.031 14,71.5C 14.6152,69.8839 15.6152,68.5505 17,67.5C 18.2034,60.1519 21.5367,54.8186 27,51.5C 29.099,52.1305 30.9323,53.1305 32.5,54.5 Z"/></g>
<g><path style="opacity:1" fill="#f2f3f2" d="M 653.5,63.5 C 654.833,64.1667 654.833,64.1667 653.5,63.5 Z"/></g>
<g><path style="opacity:1" fill="#84917b" d="M 603.5,51.5 C 616.72,59.7838 619.387,70.4504 611.5,83.5C 610.609,82.7387 609.942,81.7387 609.5,80.5C 610.027,77.4755 610.361,74.4755 610.5,71.5C 609.24,68.9449 607.906,66.4449 606.5,64C 606.957,63.586 607.291,63.086 607.5,62.5C 605.766,58.9628 604.432,55.2961 603.5,51.5 Z"/></g>
<g><path style="opacity:1" fill="#ece8d6" d="M 375.5,74.5 C 379.833,75.8333 384.167,75.8333 388.5,74.5C 391.29,74.7776 393.79,74.1109 396,72.5C 398.633,74.2962 401.133,76.2962 403.5,78.5C 398.899,79.6421 394.732,81.6421 391,84.5C 391.15,82.4944 391.65,80.4944 392.5,78.5C 393.043,78.44 393.376,78.1067 393.5,77.5C 389.016,76.1889 384.683,76.1889 380.5,77.5C 371.167,77.5 361.833,77.5 352.5,77.5C 353.1,81.5164 352.1,85.0164 349.5,88C 344.9,89.5833 343.066,88.0833 344,83.5C 344.708,82.6195 345.542,81.9528 346.5,81.5C 349.028,79.1105 350.528,76.1105 351,72.5C 351.833,73.3333 352.667,74.1667 353.5,75C 356.167,75.1667 358.833,75.3333 361.5,75.5C 364.59,75.4783 367.257,74.8117 369.5,73.5C 369.334,69.1539 369.501,64.8206 370,60.5C 372.456,61.5742 374.956,62.5742 377.5,63.5C 375.675,66.8768 375.008,70.5435 375.5,74.5 Z"/></g>
<g><path style="opacity:1" fill="#e9e6d1" d="M 382.5,73.5 C 381.075,75.0311 380.409,74.6977 380.5,72.5C 381.823,69.1829 383.157,65.8496 384.5,62.5C 386.944,63.4485 388.944,64.9485 390.5,67C 387.689,68.9764 385.022,71.1431 382.5,73.5 Z"/></g>
<g><path style="opacity:1" fill="#e0e0d0" d="M 479.5,71.5 C 461.786,71.1938 444.12,71.5271 426.5,72.5C 426.047,71.5416 425.381,70.7083 424.5,70C 439.18,69.6186 453.847,68.9519 468.5,68C 470.019,66.6487 471.352,65.1487 472.5,63.5C 475.642,65.63 477.975,68.2967 479.5,71.5 Z"/></g>
<g><path style="opacity:1" fill="#e7e3ce" d="M 187.5,65.5 C 191.957,66.3117 195.79,68.3117 199,71.5C 200.347,76.4721 198.68,78.4721 194,77.5C 192.585,72.9979 190.419,68.9979 187.5,65.5 Z"/></g>
<g><path style="opacity:1" fill="#b7956b" d="M 14.5,50.5 C 14.3225,51.6948 13.9891,52.8615 13.5,54C 13.8919,55.0105 14.5585,55.5105 15.5,55.5C 13.3418,58.1485 12.0084,61.1485 11.5,64.5C 11.5979,66.5529 10.9313,68.2196 9.5,69.5C 7.25535,72.7536 5.75535,76.4202 5,80.5C 4.66667,79.8333 4.33333,79.1667 4,78.5C 3.76791,79.7375 3.26791,80.7375 2.5,81.5C 4.16021,70.1741 8.16021,59.8407 14.5,50.5 Z"/></g>
<g><path style="opacity:1" fill="#eee8d4" d="M 237.5,90.5 C 238.473,89.016 239.807,88.516 241.5,89C 243.746,90.2568 245.079,92.0901 245.5,94.5C 240.833,94.5 236.167,94.5 231.5,94.5C 231.666,100.509 231.499,106.509 231,112.5C 230.333,114.5 229,115.833 227,116.5C 225.54,109.677 225.04,102.677 225.5,95.5C 222.833,95.5 220.167,95.5 217.5,95.5C 217.075,99.6071 215.575,103.274 213,106.5C 209.958,109.711 206.791,112.711 203.5,115.5C 206.367,116.774 209.367,117.607 212.5,118C 224.201,118.191 235.868,118.358 247.5,118.5C 244.559,119.773 242.226,121.773 240.5,124.5C 230.056,126.011 219.722,125.511 209.5,123C 205.083,121.067 201.083,118.567 197.5,115.5C 195.856,114.684 194.69,113.35 194,111.5C 193.828,104.654 193.328,97.9874 192.5,91.5C 189.482,91.6646 186.482,91.498 183.5,91C 182.944,90.6174 182.611,90.1174 182.5,89.5C 185.85,89.665 189.183,89.4983 192.5,89C 192.998,87.8419 193.831,87.0085 195,86.5C 196.657,87.4841 198.323,88.4841 200,89.5C 198.929,93.7509 198.429,98.2509 198.5,103C 198.667,106.5 198.833,110 199,113.5C 199.561,114.022 200.228,114.355 201,114.5C 207.598,109.977 211.098,103.644 211.5,95.5C 207.988,96.0545 204.988,95.3878 202.5,93.5C 205.833,93.5 209.167,93.5 212.5,93.5C 212.5,88.8333 212.5,84.1667 212.5,79.5C 209.833,79.5 207.167,79.5 204.5,79.5C 206.948,78.5269 209.615,78.1936 212.5,78.5C 212.819,73.6367 212.486,68.97 211.5,64.5C 214.152,63.7385 216.818,64.2385 219.5,66C 218.54,69.73 218.207,73.5633 218.5,77.5C 220.833,77.5 223.167,77.5 225.5,77.5C 225.5,72.5 225.5,67.5 225.5,62.5C 228.588,62.3773 231.255,63.3773 233.5,65.5C 231.324,69.2707 230.991,73.2707 232.5,77.5C 234.167,76.1667 235.833,74.8333 237.5,73.5C 239.5,74.8333 241.167,76.5 242.5,78.5C 238.893,79.4892 235.226,79.8226 231.5,79.5C 231.5,83.8333 231.5,88.1667 231.5,92.5C 234.01,92.9465 236.01,92.2798 237.5,90.5 Z"/></g>
<g><path style="opacity:1" fill="#596f5f" d="M 426.5,72.5 C 444.12,71.5271 461.786,71.1938 479.5,71.5C 476.51,71.9588 473.677,72.9588 471,74.5C 469.274,73.4238 467.441,73.2571 465.5,74C 464.167,74.6667 464.167,75.3333 465.5,76C 467.235,76.6514 468.902,76.4847 470.5,75.5C 471.86,77.9812 472.86,77.6478 473.5,74.5C 474.325,73.6143 475.325,73.281 476.5,73.5C 476.863,75.9115 475.863,77.4115 473.5,78C 475.598,78.0139 477.431,77.8472 479,77.5C 479.309,78.7659 479.809,79.9326 480.5,81C 479.262,80.9227 478.262,81.0894 477.5,81.5C 478.333,81.8333 479.167,82.1667 480,82.5C 481.669,81.8338 483.169,81.8338 484.5,82.5C 485.5,82.1667 486.167,81.5 486.5,80.5C 484.075,77.937 481.742,75.937 479.5,74.5C 483.546,73.6063 484.213,71.773 481.5,69C 481.833,68.8333 482.167,68.6667 482.5,68.5C 483.425,69.6405 484.259,69.6405 485,68.5C 485.779,70.8071 485.279,72.8071 483.5,74.5C 484.025,75.1924 484.692,75.6924 485.5,76C 484.304,76.6543 484.304,77.1543 485.5,77.5C 486.987,73.8585 488.321,74.1919 489.5,78.5C 490.167,77.1667 490.833,75.8333 491.5,74.5C 491.489,75.4415 491.989,76.1081 493,76.5C 494.162,75.8132 495.328,75.6466 496.5,76C 493.202,76.6415 490.202,78.3082 487.5,81C 488.167,82.3333 488.833,83.6667 489.5,85C 487.671,85.2735 486.171,86.1068 485,87.5C 483.847,85.503 482.347,85.1696 480.5,86.5C 481.09,87.7989 482.09,88.6322 483.5,89C 482.66,90.6665 483.16,90.8331 485,89.5C 488.25,91.2051 488.084,92.7051 484.5,94C 484.833,94.3333 485.167,94.6667 485.5,95C 483.086,98.0814 481.086,101.415 479.5,105C 479.918,107.6 481.084,109.767 483,111.5C 483.87,110.892 484.37,110.059 484.5,109C 483.373,107.943 482.873,106.777 483,105.5C 484.359,103.308 486.192,101.641 488.5,100.5C 489.696,100.846 489.696,101.346 488.5,102C 489.167,102.667 489.833,102.667 490.5,102C 491.594,100.22 492.594,98.3864 493.5,96.5C 494.063,98.7092 495.396,100.209 497.5,101C 495.758,102.942 493.758,104.609 491.5,106C 493.774,106.47 495.774,107.47 497.5,109C 495.595,109.826 495.261,110.993 496.5,112.5C 497.258,111.189 498.258,110.689 499.5,111C 498.54,112.419 497.707,113.919 497,115.5C 495.833,114 494.667,112.5 493.5,111C 492.551,110.383 491.718,110.549 491,111.5C 487.715,108.807 486.382,109.474 487,113.5C 485.553,115.403 483.886,117.07 482,118.5C 480.244,117.579 480.077,116.412 481.5,115C 481.138,113.775 480.638,112.609 480,111.5C 479.503,114.146 479.336,116.813 479.5,119.5C 481.76,120.139 483.76,121.306 485.5,123C 483.333,124.167 481.167,125.333 479,126.5C 478.5,126.333 478,126.167 477.5,126C 478.5,125 479.5,124 480.5,123C 479.956,122.283 479.289,121.783 478.5,121.5C 478.201,110.96 478.535,100.46 479.5,90C 477.46,87.4817 474.793,86.315 471.5,86.5C 471.5,96.8333 471.5,107.167 471.5,117.5C 468.5,117.5 465.5,117.5 462.5,117.5C 453.009,116.67 443.342,116.17 433.5,116C 434.12,113.898 435.12,113.065 436.5,113.5C 440.349,113.981 442.349,112.314 442.5,108.5C 448.5,108.5 454.5,108.5 460.5,108.5C 460.5,109.833 460.5,111.167 460.5,112.5C 462.903,112.607 464.736,111.607 466,109.5C 466.08,99.5966 466.747,89.9299 468,80.5C 466.027,79.3601 464.193,78.0267 462.5,76.5C 461.155,77.3467 460.155,78.5134 459.5,80C 452.349,81.0015 445.349,80.5015 438.5,78.5C 437.584,78.5427 436.917,78.8761 436.5,79.5C 435.833,86.6775 435.167,94.0109 434.5,101.5C 433.513,98.2317 433.18,94.8984 433.5,91.5C 433.631,90.6236 433.298,89.9569 432.5,89.5C 430.5,88.8333 428.5,88.1667 426.5,87.5C 425.501,97.4778 425.168,107.478 425.5,117.5C 424.671,109.677 424.171,101.677 424,93.5C 422.155,94.0495 420.655,95.0495 419.5,96.5C 421.645,97.6825 421.645,99.1825 419.5,101C 420.623,102.044 421.956,102.71 423.5,103C 421.684,104.315 420.017,105.815 418.5,107.5C 417.304,107.154 417.304,106.654 418.5,106C 415.755,106.96 414.255,105.793 414,102.5C 412.733,103.91 412.733,105.576 414,107.5C 414.75,108.126 415.584,108.626 416.5,109C 415.874,109.75 415.374,110.584 415,111.5C 414.692,110.692 414.192,110.025 413.5,109.5C 411.468,111.831 409.301,113.164 407,113.5C 403.631,110.081 401.465,110.081 400.5,113.5C 399.833,112.833 399.167,112.167 398.5,111.5C 396.78,113.131 394.78,114.297 392.5,115C 394.223,115.523 395.556,116.523 396.5,118C 396.431,120.213 396.097,122.38 395.5,124.5C 395.607,122.097 394.607,120.264 392.5,119C 386.656,116.83 380.656,115.83 374.5,116C 379.752,118.448 384.419,121.614 388.5,125.5C 386.83,125.751 385.33,126.418 384,127.5C 382.984,126.366 382.317,126.699 382,128.5C 378.92,125.051 375.587,124.718 372,127.5C 369.439,126.888 366.606,126.721 363.5,127C 362.54,128.419 361.707,129.919 361,131.5C 360.167,130 359,128.833 357.5,128C 358.793,127.51 360.127,127.343 361.5,127.5C 361.5,126.5 361.5,125.5 361.5,124.5C 365.573,123.045 369.073,120.712 372,117.5C 373.913,112.392 375.08,107.392 375.5,102.5C 378.142,102.512 379.475,101.179 379.5,98.5C 380.833,98.5 382.167,98.5 383.5,98.5C 383.5,104.167 383.5,109.833 383.5,115.5C 385.467,115.739 387.301,115.406 389,114.5C 389.333,109.5 389.667,104.5 390,99.5C 390.692,98.9747 391.192,98.3081 391.5,97.5C 390.148,96.4756 388.815,95.4756 387.5,94.5C 387.918,93.7784 388.584,93.2784 389.5,93C 389.167,92.6667 388.833,92.3333 388.5,92C 389.5,91.6667 390.5,91.3333 391.5,91C 390.66,89.3335 391.16,89.1669 393,90.5C 396,88.5 399,86.5 402,84.5C 402.667,85.8333 403.333,85.8333 404,84.5C 404.333,85.5 404.667,86.5 405,87.5C 406.378,85.7866 408.045,84.4533 410,83.5C 410.451,85.9288 411.285,86.0955 412.5,84C 410.434,82.0573 410.101,79.8906 411.5,77.5C 410.717,73.1632 408.05,71.3298 403.5,72C 402.333,71.5 401.5,70.6667 401,69.5C 399.984,70.6341 399.317,70.3008 399,68.5C 398.333,71.1667 397.667,71.1667 397,68.5C 396.333,69.1667 395.667,69.8333 395,70.5C 393.865,70.273 392.698,69.9396 391.5,69.5C 391.977,68.069 392.643,66.7357 393.5,65.5C 393.911,66.2624 394.077,67.2624 394,68.5C 396.058,67.8905 396.891,66.8905 396.5,65.5C 397.748,66.0402 398.915,66.7069 400,67.5C 400.617,66.5509 400.451,65.7175 399.5,65C 401.689,64.323 402.022,63.1563 400.5,61.5C 402.207,58.8965 404.374,58.2298 407,59.5C 409.035,57.0881 410.035,57.7548 410,61.5C 411.204,60.5294 411.704,59.5294 411.5,58.5C 412.063,60.7092 413.396,62.2092 415.5,63C 412.151,63.0891 411.651,64.2557 414,66.5C 414.308,65.6919 414.808,65.0253 415.5,64.5C 416.333,65.5 417.167,66.5 418,67.5C 419.073,66.7203 420.24,66.887 421.5,68C 422.88,69.9252 424.38,71.7585 426,73.5C 426.399,73.2716 426.565,72.9382 426.5,72.5 Z"/></g>
<g><path style="opacity:1" fill="#eceada" d="M 355.5,65.5 C 358.867,64.2376 361.7,65.2376 364,68.5C 365.584,73.3618 364.084,75.0285 359.5,73.5C 358.663,70.493 357.33,67.8263 355.5,65.5 Z"/></g>
<g><path style="opacity:1" fill="#a4ac99" d="M 380.5,72.5 C 380.409,74.6977 381.075,75.0311 382.5,73.5C 384.265,74.4614 386.265,74.7947 388.5,74.5C 384.167,75.8333 379.833,75.8333 375.5,74.5C 377.554,74.6347 379.221,73.968 380.5,72.5 Z"/></g>
<g><path style="opacity:1" fill="#5a5d43" d="M 644.5,65.5 C 646.969,69.9083 648.636,74.575 649.5,79.5C 650.165,82.8167 650.499,86.3167 650.5,90C 650.674,95.4207 650.007,100.587 648.5,105.5C 648.666,97.16 648.5,88.8267 648,80.5C 645.634,75.7713 644.467,70.7713 644.5,65.5 Z"/></g>
<g><path style="opacity:1" fill="#748773" d="M 50.5,87.5 C 47.4442,85.0515 45.1108,82.0515 43.5,78.5C 43.0888,74.6305 43.5888,70.6305 45,66.5C 46.6667,65.1667 48.3333,63.8333 50,62.5C 51.9967,65.7206 51.83,68.8873 49.5,72C 52.7742,76.8956 53.9409,82.3956 53,88.5C 52.3292,87.7476 51.4959,87.4142 50.5,87.5 Z"/></g>
<g><path style="opacity:1" fill="#cca974" d="M 582.5,14.5 C 583.167,14.8333 583.833,15.1667 584.5,15.5C 584.857,19.263 585.69,22.9296 587,26.5C 592.76,28.0918 596.26,31.7585 597.5,37.5C 597.5,39.5 597.5,41.5 597.5,43.5C 600.833,43.5 604.167,43.5 607.5,43.5C 615.198,44.935 621.698,48.6017 627,54.5C 643.373,77.543 644.873,101.543 631.5,126.5C 625.948,134.876 618.281,140.376 608.5,143C 605.518,143.498 602.518,143.665 599.5,143.5C 599.113,151.764 595.113,157.598 587.5,161C 586.177,161.816 585.511,162.983 585.5,164.5C 584.833,166.5 584.167,168.5 583.5,170.5C 414.5,169.833 245.5,169.167 76.5,168.5C 84.8333,168.5 93.1667,168.5 101.5,168.5C 254.5,168.5 407.5,168.5 560.5,168.5C 567.5,168.5 574.5,168.5 581.5,168.5C 581.338,166.473 581.505,164.473 582,162.5C 586.19,159.066 590.19,155.4 594,151.5C 594.638,150.391 595.138,149.225 595.5,148C 595.15,146.743 594.483,146.409 593.5,147C 589.311,150.69 584.978,154.19 580.5,157.5C 580.167,157.167 579.833,156.833 579.5,156.5C 580.919,154.664 582.086,152.664 583,150.5C 587.797,147.395 591.297,143.228 593.5,138C 596.076,137.394 598.41,137.894 600.5,139.5C 608.827,135.835 613.827,129.501 615.5,120.5C 617.322,110.135 613.655,102.135 604.5,96.5C 603.185,95.5244 601.852,94.5244 600.5,93.5C 604.811,90.8547 608.478,87.5214 611.5,83.5C 619.387,70.4504 616.72,59.7838 603.5,51.5C 600.548,50.5886 597.548,50.4219 594.5,51C 592.607,48.6969 590.607,46.5302 588.5,44.5C 587.674,43.549 587.508,42.549 588,41.5C 589.323,44.0586 591.157,44.7253 593.5,43.5C 594.492,39.2691 593.492,35.4357 590.5,32C 588.956,30.8129 587.289,30.4795 585.5,31C 587.455,31.9533 589.122,33.2866 590.5,35C 585.86,34.0815 581.86,31.7481 578.5,28C 580.134,27.5065 581.801,27.3398 583.5,27.5C 582.626,24.2107 581.959,20.8774 581.5,17.5C 581.5,17.1667 581.5,16.8333 581.5,16.5C 582.338,16.1583 582.672,15.4916 582.5,14.5 Z"/></g>
<g><path style="opacity:1" fill="#bda793" d="M 654.5,71.5 C 655.612,73.5994 656.279,75.9327 656.5,78.5C 654.837,76.5615 654.171,74.2282 654.5,71.5 Z"/></g>
<g><path style="opacity:1" fill="#97a190" d="M 380.5,77.5 C 384.683,76.1889 389.016,76.1889 393.5,77.5C 393.376,78.1067 393.043,78.44 392.5,78.5C 388.702,77.5166 384.702,77.1832 380.5,77.5 Z"/></g>
<g><path style="opacity:1" fill="#b8b9a6" d="M 211.5,64.5 C 212.486,68.97 212.819,73.6367 212.5,78.5C 209.615,78.1936 206.948,78.5269 204.5,79.5C 203.957,79.44 203.624,79.1067 203.5,78.5C 206.086,77.52 208.753,77.1866 211.5,77.5C 211.5,73.1667 211.5,68.8333 211.5,64.5 Z"/></g>
<g><path style="opacity:1" fill="#dcb381" d="M 21.5,74.5 C 21.8417,75.3382 22.5084,75.6716 23.5,75.5C 18.9831,93.2618 21.4831,109.928 31,125.5C 34.4029,130.405 38.5695,134.405 43.5,137.5C 42.5,137.833 41.8333,138.5 41.5,139.5C 39.5,138.167 37.5,136.833 35.5,135.5C 20.3979,120.104 15.0646,101.771 19.5,80.5C 19.595,78.2143 20.2616,76.2143 21.5,74.5 Z"/></g>
<g><path style="opacity:1" fill="#647966" d="M 626.5,59.5 C 625.957,59.56 625.624,59.8933 625.5,60.5C 626.38,62.4292 627.38,64.2626 628.5,66C 626.365,70.4203 626.532,74.9203 629,79.5C 631.423,81.9438 633.257,84.2771 634.5,86.5C 632.011,92.1929 629.678,97.6929 627.5,103C 631.191,105.873 631.024,108.706 627,111.5C 626.295,116.981 625.795,122.315 625.5,127.5C 624.5,130.5 622.5,132.5 619.5,133.5C 618.851,132.394 618.517,131.394 618.5,130.5C 617.264,131.246 615.93,131.579 614.5,131.5C 622.582,117.975 620.915,105.808 609.5,95C 612.836,95.8184 616.169,96.9851 619.5,98.5C 630.893,94.842 631.06,91.5087 620,88.5C 616.43,88.8684 613.263,90.2017 610.5,92.5C 610.167,92.1667 609.833,91.8333 609.5,91.5C 621.361,80.2221 622.528,67.8888 613,54.5C 609.193,51.5273 605.027,49.194 600.5,47.5C 611.6,46.048 620.267,50.048 626.5,59.5 Z"/></g>
<g><path style="opacity:1" fill="#c0c2ae" d="M 360.5,80.5 C 359.515,84.6344 359.182,88.9677 359.5,93.5C 358.188,88.9848 358.188,84.3181 359.5,79.5C 360.107,79.6236 360.44,79.9569 360.5,80.5 Z"/></g>
<g><path style="opacity:1" fill="#9ca390" d="M 204.5,79.5 C 207.167,79.5 209.833,79.5 212.5,79.5C 212.5,84.1667 212.5,88.8333 212.5,93.5C 209.167,93.5 205.833,93.5 202.5,93.5C 205.287,92.5233 208.287,92.19 211.5,92.5C 211.5,88.5 211.5,84.5 211.5,80.5C 208.941,80.8016 206.607,80.4682 204.5,79.5 Z"/></g>
<g><path style="opacity:1" fill="#5e7560" d="M 218.5,79.5 C 220.833,79.5 223.167,79.5 225.5,79.5C 225.5,83.8333 225.5,88.1667 225.5,92.5C 223.167,92.5 220.833,92.5 218.5,92.5C 218.5,88.1667 218.5,83.8333 218.5,79.5 Z"/></g>
<g><path style="opacity:1" fill="#ede7d3" d="M 284.5,63.5 C 287.731,65.2199 290.564,67.5532 293,70.5C 296.968,86.6137 305.135,100.114 317.5,111C 320.833,113.333 324.167,115.667 327.5,118C 322.957,118.506 319.123,120.339 316,123.5C 312.012,120.846 308.679,117.512 306,113.5C 301.937,105.298 298.27,96.965 295,88.5C 291.052,98.9033 285.219,108.07 277.5,116C 272.417,119.292 267.25,122.459 262,125.5C 276.913,112.815 286.746,96.6481 291.5,77C 291.397,75.4385 291.063,73.9385 290.5,72.5C 287.218,70.1266 283.552,68.6266 279.5,68C 281.618,66.9509 283.284,65.4509 284.5,63.5 Z"/></g>
<g><path style="opacity:1" fill="#637866" d="M 42.5,61.5 C 41.1986,60.36 40.0319,59.0267 39,57.5C 36.6837,58.5224 36.1837,60.0224 37.5,62C 34.3644,69.9447 34.0311,78.1113 36.5,86.5C 38.5273,86.3379 40.5273,86.5045 42.5,87C 41.944,87.3826 41.6107,87.8826 41.5,88.5C 37.0833,88.0417 33.75,89.7083 31.5,93.5C 33.5563,95.5566 35.8897,97.2233 38.5,98.5C 42.5045,96.977 46.5045,95.8103 50.5,95C 38.3487,104.831 36.182,116.664 44,130.5C 47.3148,134.818 51.4814,137.985 56.5,140C 51.7731,141.036 47.4398,140.203 43.5,137.5C 38.5695,134.405 34.4029,130.405 31,125.5C 21.4831,109.928 18.9831,93.2618 23.5,75.5C 28.1529,61.6808 37.1529,51.8474 50.5,46C 52.5,45.3333 54.5,45.3333 56.5,46C 56.9574,46.414 57.2907,46.914 57.5,47.5C 50.5826,50.1232 45.5826,54.7899 42.5,61.5 Z"/></g>
<g><path style="opacity:1" fill="#576e5b" d="M 626.5,59.5 C 641.482,82.4956 641.148,105.162 625.5,127.5C 625.795,122.315 626.295,116.981 627,111.5C 631.024,108.706 631.191,105.873 627.5,103C 629.678,97.6929 632.011,92.1929 634.5,86.5C 633.257,84.2771 631.423,81.9438 629,79.5C 626.532,74.9203 626.365,70.4203 628.5,66C 627.38,64.2626 626.38,62.4292 625.5,60.5C 625.624,59.8933 625.957,59.56 626.5,59.5 Z"/></g>
<g><path style="opacity:1" fill="#a4825a" d="M 9.5,69.5 C 8.33653,74.4686 7.16986,79.4686 6,84.5C 5.99485,92.1392 5.16151,99.6392 3.5,107C 4.07665,109.137 4.40999,111.304 4.5,113.5C 3.03699,110.797 2.20366,107.797 2,104.5C 1.17767,96.6554 1.34434,88.9887 2.5,81.5C 3.26791,80.7375 3.76791,79.7375 4,78.5C 4.33333,79.1667 4.66667,79.8333 5,80.5C 5.75535,76.4202 7.25535,72.7536 9.5,69.5 Z"/></g>
<g><path style="opacity:1" fill="#e8e4d2" d="M 359.5,93.5 C 359.182,88.9677 359.515,84.6344 360.5,80.5C 367.111,81.7924 373.777,81.7924 380.5,80.5C 380.833,79.5 381.5,78.8333 382.5,78.5C 384.167,79.8333 385.833,81.1667 387.5,82.5C 385.999,85.484 384.999,88.6506 384.5,92C 377.539,91.4947 370.539,91.4947 363.5,92C 362.437,93.1882 361.103,93.6882 359.5,93.5 Z"/></g>
<g><path style="opacity:1" fill="#4c6452" d="M 379.5,83.5 C 379.5,85.1667 379.5,86.8333 379.5,88.5C 374.5,88.5 369.5,88.5 364.5,88.5C 364.5,86.8333 364.5,85.1667 364.5,83.5C 369.5,83.5 374.5,83.5 379.5,83.5 Z"/></g>
<g><path style="opacity:1" fill="#959b87" d="M 379.5,83.5 C 380.461,85.2646 380.795,87.2646 380.5,89.5C 374.974,89.8214 369.64,89.4881 364.5,88.5C 369.5,88.5 374.5,88.5 379.5,88.5C 379.5,86.8333 379.5,85.1667 379.5,83.5 Z"/></g>
<g><path style="opacity:1" fill="#d7b178" d="M 71.5,24.5 C 71.1307,26.9935 71.7973,27.6602 73.5,26.5C 75.2922,27.3091 77.2922,27.8091 79.5,28C 75.7269,29.8799 71.7269,31.2133 67.5,32C 63.7478,35.0068 61.7478,38.8401 61.5,43.5C 63.9201,43.7076 66.2534,43.3742 68.5,42.5C 69.521,43.0016 69.6877,43.6683 69,44.5C 67.1667,46.3333 65.3333,48.1667 63.5,50C 60.5217,50.4845 57.5217,51.1512 54.5,52C 44.3275,58.1737 40.6608,67.007 43.5,78.5C 45.1108,82.0515 47.4442,85.0515 50.5,87.5C 52.5755,89.7188 54.9088,91.7188 57.5,93.5C 51.8541,97.3123 47.0208,101.979 43,107.5C 40.9244,122.016 46.2577,132.682 59,139.5C 60.2853,139.05 61.452,138.383 62.5,137.5C 63.5223,137.855 64.189,138.522 64.5,139.5C 63.9771,142.028 62.9771,144.361 61.5,146.5C 61.5427,147.416 61.8761,148.083 62.5,148.5C 66.2432,153.837 70.5765,158.503 75.5,162.5C 74.8333,162.833 74.1667,163.167 73.5,163.5C 69.208,160.38 65.0413,157.047 61,153.5C 58.9937,150.464 58.1604,147.131 58.5,143.5C 52.3219,144.188 46.6553,142.855 41.5,139.5C 41.8333,138.5 42.5,137.833 43.5,137.5C 47.4398,140.203 51.7731,141.036 56.5,140C 51.4814,137.985 47.3148,134.818 44,130.5C 36.182,116.664 38.3487,104.831 50.5,95C 46.5045,95.8103 42.5045,96.977 38.5,98.5C 35.8897,97.2233 33.5563,95.5566 31.5,93.5C 33.75,89.7083 37.0833,88.0417 41.5,88.5C 44.1021,89.9713 46.7688,91.138 49.5,92C 39.4632,83.4766 37.1298,73.3099 42.5,61.5C 45.5826,54.7899 50.5826,50.1232 57.5,47.5C 57.2907,46.914 56.9574,46.414 56.5,46C 54.5,45.3333 52.5,45.3333 50.5,46C 37.1529,51.8474 28.1529,61.6808 23.5,75.5C 22.5084,75.6716 21.8417,75.3382 21.5,74.5C 23.6172,66.9284 27.2838,60.2617 32.5,54.5C 39.3702,46.7332 48.0369,42.7332 58.5,42.5C 58.5,41.1667 58.5,39.8333 58.5,38.5C 61.5054,32.4983 65.8387,27.8316 71.5,24.5 Z"/></g>
<g><path style="opacity:1" fill="#ddb880" d="M 121.5,80.5 C 122.94,84.0251 124.94,87.3584 127.5,90.5C 130.737,91.9521 134.07,93.1188 137.5,94C 129.239,94.9271 124.072,99.4271 122,107.5C 119.949,99.4504 114.782,94.9504 106.5,94C 110.265,92.9515 113.932,91.6181 117.5,90C 119.902,87.2966 121.235,84.1299 121.5,80.5 Z"/></g>
<g><path style="opacity:1" fill="#dfba80" d="M 544.5,80.5 C 546.026,84.2145 548.026,87.7145 550.5,91C 553.405,92.2862 556.405,93.2862 559.5,94C 551.682,95.4899 546.849,99.9899 545,107.5C 543.14,100.307 538.64,95.8067 531.5,94C 539.407,92.9266 543.74,88.4266 544.5,80.5 Z"/></g>
<g><path style="opacity:1" fill="#767f69" d="M 543.5,92.5 C 544.675,92.281 545.675,92.6143 546.5,93.5C 544.948,94.7979 543.948,94.4646 543.5,92.5 Z"/></g>
<g><path style="opacity:1" fill="#ece6d2" d="M 436.5,113.5 C 436.5,102.167 436.5,90.8333 436.5,79.5C 436.917,78.8761 437.584,78.5427 438.5,78.5C 445.349,80.5015 452.349,81.0015 459.5,80C 460.155,78.5134 461.155,77.3467 462.5,76.5C 464.193,78.0267 466.027,79.3601 468,80.5C 466.747,89.9299 466.08,99.5966 466,109.5C 464.736,111.607 462.903,112.607 460.5,112.5C 460.5,111.167 460.5,109.833 460.5,108.5C 454.5,108.5 448.5,108.5 442.5,108.5C 442.349,112.314 440.349,113.981 436.5,113.5 Z"/></g>
<g><path style="opacity:1" fill="#586e5c" d="M 443.5,82.5 C 445.167,82.5 446.833,82.5 448.5,82.5C 448.5,85.8333 448.5,89.1667 448.5,92.5C 446.833,92.5 445.167,92.5 443.5,92.5C 443.5,89.1667 443.5,85.8333 443.5,82.5 Z"/></g>
<g><path style="opacity:1" fill="#8a9784" d="M 443.5,82.5 C 443.5,85.8333 443.5,89.1667 443.5,92.5C 445.167,92.5 446.833,92.5 448.5,92.5C 446.735,93.4614 444.735,93.7947 442.5,93.5C 442.185,89.6286 442.518,85.9619 443.5,82.5 Z"/></g>
<g><path style="opacity:1" fill="#4c6656" d="M 454.5,82.5 C 456.5,82.5 458.5,82.5 460.5,82.5C 460.5,85.8333 460.5,89.1667 460.5,92.5C 458.5,92.5 456.5,92.5 454.5,92.5C 454.5,89.1667 454.5,85.8333 454.5,82.5 Z"/></g>
<g><path style="opacity:1" fill="#bc9b76" d="M 656.5,79.5 C 657.166,83.4861 657.499,87.6528 657.5,92C 657.701,98.0829 657.034,103.916 655.5,109.5C 655.037,106.518 654.704,103.518 654.5,100.5C 654.351,99.448 654.517,98.448 655,97.5C 655.333,99.1667 655.667,100.833 656,102.5C 656.5,94.8406 656.666,87.1739 656.5,79.5 Z"/></g>
<g><path style="opacity:1" fill="#c1c4ad" d="M 192.5,91.5 C 193.328,97.9874 193.828,104.654 194,111.5C 194.69,113.35 195.856,114.684 197.5,115.5C 196.5,115.5 195.5,115.5 194.5,115.5C 193.432,114.566 192.099,114.232 190.5,114.5C 192.414,107.108 193.081,99.4415 192.5,91.5 Z"/></g>
<g><path style="opacity:1" fill="#f4f3f2" d="M -0.5,107.5 C -0.5,107.167 -0.5,106.833 -0.5,106.5C 1.35308,105.386 1.85308,106.052 1,108.5C 0.617425,107.944 0.117425,107.611 -0.5,107.5 Z"/></g>
<g><path style="opacity:1" fill="#84623b" d="M 16.5,59.5 C 13.6966,66.7056 11.1966,74.039 9,81.5C 7.55576,96.7445 9.72243,111.411 15.5,125.5C 15.5,126.5 15.5,127.5 15.5,128.5C 13.8561,128.714 12.3561,128.38 11,127.5C 10.5357,128.094 10.369,128.761 10.5,129.5C 7.95715,125.748 5.95715,121.748 4.5,117.5C 4.5,116.167 4.5,114.833 4.5,113.5C 4.40999,111.304 4.07665,109.137 3.5,107C 5.16151,99.6392 5.99485,92.1392 6,84.5C 7.16986,79.4686 8.33653,74.4686 9.5,69.5C 10.9313,68.2196 11.5979,66.5529 11.5,64.5C 12.806,62.5273 14.4727,60.8606 16.5,59.5 Z"/></g>
<g><path style="opacity:1" fill="#ede7d2" d="M 387.5,94.5 C 388.815,95.4756 390.148,96.4756 391.5,97.5C 391.192,98.3081 390.692,98.9747 390,99.5C 389.667,104.5 389.333,109.5 389,114.5C 387.301,115.406 385.467,115.739 383.5,115.5C 383.5,109.833 383.5,104.167 383.5,98.5C 382.167,98.5 380.833,98.5 379.5,98.5C 373.5,98.5 367.5,98.5 361.5,98.5C 361.666,104.176 361.499,109.843 361,115.5C 359.556,117.155 357.722,117.822 355.5,117.5C 355.5,109.833 355.5,102.167 355.5,94.5C 364.709,96.3136 374.043,96.9803 383.5,96.5C 383.5,95.5 383.5,94.5 383.5,93.5C 384.959,93.4326 386.292,93.7659 387.5,94.5 Z"/></g>
<g><path style="opacity:1" fill="#6e816e" d="M 19.5,80.5 C 15.0646,101.771 20.3979,120.104 35.5,135.5C 34.9569,135.56 34.6236,135.893 34.5,136.5C 35.8333,137.5 37.1667,138.5 38.5,139.5C 38.3333,139.833 38.1667,140.167 38,140.5C 36,139.167 34,139.167 32,140.5C 30.7949,139.929 29.6283,139.262 28.5,138.5C 22.3202,131.141 17.9869,122.808 15.5,113.5C 14.3702,111.685 13.7036,109.685 13.5,107.5C 12.5312,99.7132 12.3645,92.0465 13,84.5C 13.5112,82.1218 14.1779,79.7885 15,77.5C 16,78.8333 17,78.8333 18,77.5C 18.2321,78.7375 18.7321,79.7375 19.5,80.5 Z"/></g>
<g><path style="opacity:1" fill="#c99c64" d="M 652.5,85.5 C 654.446,110.162 646.446,130.995 628.5,148C 626.655,149.128 624.655,149.628 622.5,149.5C 631.507,143.507 638.174,135.507 642.5,125.5C 646.01,119.309 648.01,112.642 648.5,105.5C 650.007,100.587 650.674,95.4207 650.5,90C 650.499,86.3167 650.165,82.8167 649.5,79.5C 649.343,78.1266 649.51,76.7932 650,75.5C 652.164,78.4473 652.998,81.7806 652.5,85.5 Z"/></g>
<g><path style="opacity:1" fill="#c3a07b" d="M 655.5,110.5 C 655.101,114.116 654.101,117.45 652.5,120.5C 652.198,116.866 652.198,113.866 652.5,111.5C 653.325,110.614 654.325,110.281 655.5,110.5 Z"/></g>
<g><path style="opacity:1" fill="#e9e5d3" d="M 375.5,102.5 C 375.08,107.392 373.913,112.392 372,117.5C 369.073,120.712 365.573,123.045 361.5,124.5C 356.704,126.559 351.704,127.393 346.5,127C 353.309,125.013 359.475,121.846 365,117.5C 367.996,112.23 369.162,106.563 368.5,100.5C 370.921,100.878 373.254,101.545 375.5,102.5 Z"/></g>
<g><path style="opacity:1" fill="#71826d" d="M 604.5,96.5 C 613.655,102.135 617.322,110.135 615.5,120.5C 615.508,114.792 615.008,114.459 614,119.5C 608.278,114.224 604.778,107.724 603.5,100C 603.648,98.7441 603.982,97.5774 604.5,96.5 Z"/></g>
<g><path style="opacity:1" fill="#475f4f" d="M 436.5,79.5 C 436.5,90.8333 436.5,102.167 436.5,113.5C 435.12,113.065 434.12,113.898 433.5,116C 443.342,116.17 453.009,116.67 462.5,117.5C 458.167,117.5 453.833,117.5 449.5,117.5C 443.833,117.5 438.167,117.5 432.5,117.5C 432.5,109.167 432.5,100.833 432.5,92.5C 432.5,91.8333 432.833,91.5 433.5,91.5C 433.18,94.8984 433.513,98.2317 434.5,101.5C 435.167,94.0109 435.833,86.6775 436.5,79.5 Z"/></g>
<g><path style="opacity:1" fill="#f4f3f2" d="M 4.5,117.5 C 4.79776,120.336 4.13109,120.836 2.5,119C 3.0442,118.283 3.71087,117.783 4.5,117.5 Z"/></g>
<g><path style="opacity:1" fill="#ebe7d5" d="M 190.5,114.5 C 192.099,114.232 193.432,114.566 194.5,115.5C 191.839,118.171 189.506,121.171 187.5,124.5C 180.25,118.973 181.25,115.64 190.5,114.5 Z"/></g>
<g><path style="opacity:1" fill="#e6e1ce" d="M 478.5,121.5 C 476.977,124.364 474.643,126.031 471.5,126.5C 471.5,124.5 471.5,122.5 471.5,120.5C 458.15,120.167 444.817,120.501 431.5,121.5C 429.74,124.926 427.574,125.259 425,122.5C 424.36,120.735 424.527,119.068 425.5,117.5C 425.168,107.478 425.501,97.4778 426.5,87.5C 428.5,88.1667 430.5,88.8333 432.5,89.5C 433.298,89.9569 433.631,90.6236 433.5,91.5C 432.833,91.5 432.5,91.8333 432.5,92.5C 431.507,100.984 431.174,109.651 431.5,118.5C 437.69,118.823 443.69,118.49 449.5,117.5C 453.833,117.5 458.167,117.5 462.5,117.5C 465.5,117.5 468.5,117.5 471.5,117.5C 471.5,107.167 471.5,96.8333 471.5,86.5C 474.793,86.315 477.46,87.4817 479.5,90C 478.535,100.46 478.201,110.96 478.5,121.5 Z"/></g>
<g><path style="opacity:1" fill="#909a87" d="M 432.5,92.5 C 432.5,100.833 432.5,109.167 432.5,117.5C 438.167,117.5 443.833,117.5 449.5,117.5C 443.69,118.49 437.69,118.823 431.5,118.5C 431.174,109.651 431.507,100.984 432.5,92.5 Z"/></g>
<g><path style="opacity:1" fill="#506655" d="M 442.5,95.5 C 444.5,95.5 446.5,95.5 448.5,95.5C 448.5,99.1667 448.5,102.833 448.5,106.5C 446.5,106.5 444.5,106.5 442.5,106.5C 442.5,102.833 442.5,99.1667 442.5,95.5 Z"/></g>
<g><path style="opacity:1" fill="#536d5a" d="M 454.5,95.5 C 456.5,95.5 458.5,95.5 460.5,95.5C 460.5,99.1667 460.5,102.833 460.5,106.5C 458.5,106.5 456.5,106.5 454.5,106.5C 454.5,102.833 454.5,99.1667 454.5,95.5 Z"/></g>
<g><path style="opacity:1" fill="#ece4cc" d="M 395.5,124.5 C 393.724,128.139 391.39,128.472 388.5,125.5C 384.419,121.614 379.752,118.448 374.5,116C 380.656,115.83 386.656,116.83 392.5,119C 394.607,120.264 395.607,122.097 395.5,124.5 Z"/></g>
<g><path style="opacity:1" fill="#f9f3f2" d="M 5.5,126.5 C 6.83333,127.167 6.83333,127.167 5.5,126.5 Z"/></g>
<g><path style="opacity:1" fill="#775a38" d="M 15.5,125.5 C 16.2223,126.551 17.2223,127.218 18.5,127.5C 22.2706,135.947 27.9373,142.947 35.5,148.5C 34.5,148.5 33.5,148.5 32.5,148.5C 33.1949,150.978 34.6949,152.978 37,154.5C 38.016,153.366 38.6827,153.699 39,155.5C 39.3333,154.833 39.6667,154.167 40,153.5C 40.9078,155.439 42.4078,156.439 44.5,156.5C 44.4326,157.959 44.7659,159.292 45.5,160.5C 44.1667,160.5 42.8333,160.5 41.5,160.5C 36.3697,159.022 31.703,156.689 27.5,153.5C 27.1667,152.5 26.5,151.833 25.5,151.5C 23.8333,149.167 21.8333,147.167 19.5,145.5C 19.2624,143.596 18.2624,142.262 16.5,141.5C 14.8899,137.9 12.8899,134.566 10.5,131.5C 10.5,130.833 10.5,130.167 10.5,129.5C 10.369,128.761 10.5357,128.094 11,127.5C 12.3561,128.38 13.8561,128.714 15.5,128.5C 15.5,127.5 15.5,126.5 15.5,125.5 Z"/></g>
<g><path style="opacity:1" fill="#f4f3f2" d="M 10.5,131.5 C 10.4827,133.028 9.81602,133.528 8.5,133C 9.0442,132.283 9.71087,131.783 10.5,131.5 Z"/></g>
<g><path style="opacity:1" fill="#506659" d="M 619.5,133.5 C 615.203,138.146 609.87,140.313 603.5,140C 607.638,137.685 611.305,134.852 614.5,131.5C 615.93,131.579 617.264,131.246 618.5,130.5C 618.517,131.394 618.851,132.394 619.5,133.5 Z"/></g>
<g><path style="opacity:1" fill="#f2f3f2" d="M 11.5,138.5 C 11.8966,137.475 12.5632,137.308 13.5,138C 12.9056,138.464 12.2389,138.631 11.5,138.5 Z"/></g>
<g><path style="opacity:1" fill="#b49067" d="M 647.5,130.5 C 644.944,136.049 641.61,141.049 637.5,145.5C 637.345,140.977 639.345,137.811 643.5,136C 643.835,134.836 643.835,133.503 643.5,132C 644.667,131.5 645.5,130.667 646,129.5C 646.383,130.056 646.883,130.389 647.5,130.5 Z"/></g>
<g><path style="opacity:1" fill="#9a7448" d="M 652.5,85.5 C 653.167,90.5 653.833,95.5 654.5,100.5C 654.704,103.518 655.037,106.518 655.5,109.5C 655.5,109.833 655.5,110.167 655.5,110.5C 654.325,110.281 653.325,110.614 652.5,111.5C 652.198,113.866 652.198,116.866 652.5,120.5C 651.579,124.299 649.912,127.632 647.5,130.5C 646.883,130.389 646.383,130.056 646,129.5C 645.5,130.667 644.667,131.5 643.5,132C 643.835,133.503 643.835,134.836 643.5,136C 639.345,137.811 637.345,140.977 637.5,145.5C 635.473,148.194 633.139,150.527 630.5,152.5C 629.688,151.007 628.355,150.34 626.5,150.5C 622.844,151.659 619.177,152.826 615.5,154C 613.75,155.754 613.083,157.921 613.5,160.5C 614.833,160.5 616.167,160.5 617.5,160.5C 617.5,160.833 617.5,161.167 617.5,161.5C 616.167,161.5 614.833,161.5 613.5,161.5C 612.543,158.971 611.209,156.638 609.5,154.5C 613.944,153.111 618.277,151.444 622.5,149.5C 624.655,149.628 626.655,149.128 628.5,148C 646.446,130.995 654.446,110.162 652.5,85.5 Z"/></g>
<g><path style="opacity:1" fill="#f2f3f2" d="M 16.5,141.5 C 16.1034,142.525 15.4368,142.692 14.5,142C 15.0944,141.536 15.7611,141.369 16.5,141.5 Z"/></g>
<g><path style="opacity:1" fill="#f2f3f2" d="M 19.5,145.5 C 19.1034,146.525 18.4368,146.692 17.5,146C 18.0944,145.536 18.7611,145.369 19.5,145.5 Z"/></g>
<g><path style="opacity:1" fill="#627663" d="M 642.5,125.5 C 638.174,135.507 631.507,143.507 622.5,149.5C 618.277,151.444 613.944,153.111 609.5,154.5C 609.167,154.5 608.833,154.5 608.5,154.5C 607.061,158.025 605.061,161.358 602.5,164.5C 601.399,163.402 600.066,163.235 598.5,164C 594.988,166.652 591.321,168.152 587.5,168.5C 586.828,167.051 586.161,165.718 585.5,164.5C 585.511,162.983 586.177,161.816 587.5,161C 595.113,157.598 599.113,151.764 599.5,143.5C 602.518,143.665 605.518,143.498 608.5,143C 618.281,140.376 625.948,134.876 631.5,126.5C 633.722,126.822 635.556,126.155 637,124.5C 637.333,125.167 637.667,125.833 638,126.5C 638.419,125.328 639.085,124.328 640,123.5C 640.417,124.756 641.25,125.423 642.5,125.5 Z"/></g>
<g><path style="opacity:1" fill="#566a5c" d="M 283.5,159.5 C 281.164,162.322 278.331,162.989 275,161.5C 272.52,162.393 270.02,163.393 267.5,164.5C 266.167,164.167 264.833,163.833 263.5,163.5C 262.522,163.977 261.689,164.643 261,165.5C 260.581,164.328 259.915,163.328 259,162.5C 258.577,163.956 257.744,164.456 256.5,164C 257.061,162.434 256.394,161.101 254.5,160C 255.5,159.667 256.5,159.333 257.5,159C 254.469,157.925 252.469,158.925 251.5,162C 253.901,162.805 253.734,163.638 251,164.5C 250.667,163.167 250.333,161.833 250,160.5C 247.186,161.966 244.353,163.466 241.5,165C 242.5,165.333 243.5,165.667 244.5,166C 241.524,166.757 239.691,165.591 239,162.5C 237.956,163.623 237.29,164.956 237,166.5C 236.259,165.359 235.425,165.359 234.5,166.5C 233.304,166.154 233.304,165.654 234.5,165C 232.316,165.608 230.316,164.941 228.5,163C 230.405,162.174 230.739,161.007 229.5,159.5C 227.851,160.648 226.351,161.981 225,163.5C 224.385,161.884 223.385,160.551 222,159.5C 221.549,161.929 220.715,162.096 219.5,160C 219.833,159.667 220.167,159.333 220.5,159C 219.552,158.517 218.552,158.351 217.5,158.5C 217.66,160.199 217.494,161.866 217,163.5C 216.667,162.833 216.333,162.167 216,161.5C 214.837,165.213 213.337,165.213 211.5,161.5C 210.833,162.167 210.167,162.833 209.5,163.5C 207.635,162.451 205.968,161.451 204.5,160.5C 206.354,160.39 208.354,160.057 210.5,159.5C 211.427,157.509 211.594,155.509 211,153.5C 212.419,154.46 213.919,155.293 215.5,156C 214.483,157.049 214.316,158.216 215,159.5C 215.707,157.919 216.54,156.419 217.5,155C 218.549,154.508 219.549,154.674 220.5,155.5C 221.113,154.02 221.446,152.687 221.5,151.5C 222.382,152.76 223.382,153.926 224.5,155C 223.66,156.666 224.16,156.833 226,155.5C 226.333,156.167 226.667,156.833 227,157.5C 227.5,156.333 228.333,155.5 229.5,155C 228.5,154.667 227.5,154.333 226.5,154C 227.649,152.256 228.983,152.089 230.5,153.5C 232.12,150.942 233.62,150.942 235,153.5C 237.021,149.473 239.687,148.14 243,149.5C 243.333,148.5 243.667,147.5 244,146.5C 245,148.167 246,149.833 247,151.5C 249.445,149.648 250.945,147.648 251.5,145.5C 253.815,145.799 253.815,146.632 251.5,148C 253.878,148.511 256.212,149.178 258.5,150C 255.772,150.639 255.272,151.806 257,153.5C 259.55,153.677 261.883,153.343 264,152.5C 264.167,152.833 264.333,153.167 264.5,153.5C 263.624,154.251 262.624,154.751 261.5,155C 264.81,154.771 266.644,156.271 267,159.5C 268.142,157.382 268.642,155.382 268.5,153.5C 269.891,156.132 271.724,158.465 274,160.5C 275.594,159.284 277.094,157.951 278.5,156.5C 279.167,156.833 279.833,157.167 280.5,157.5C 283.637,154.971 284.637,155.638 283.5,159.5 Z"/></g>
<g><path style="opacity:1" fill="#a1885d" d="M 64.5,139.5 C 65.29,140.609 65.79,141.942 66,143.5C 69.145,146.304 72.3117,148.97 75.5,151.5C 72.1215,151.147 69.1215,149.813 66.5,147.5C 65.8933,147.624 65.56,147.957 65.5,148.5C 64.5416,148.047 63.7083,147.381 63,146.5C 62.5357,147.094 62.369,147.761 62.5,148.5C 61.8761,148.083 61.5427,147.416 61.5,146.5C 62.9771,144.361 63.9771,142.028 64.5,139.5 Z"/></g>
<g><path style="opacity:1" fill="#f2f3f2" d="M 25.5,151.5 C 25.1034,152.525 24.4368,152.692 23.5,152C 24.0944,151.536 24.7611,151.369 25.5,151.5 Z"/></g>
<g><path style="opacity:1" fill="#566a5c" d="M 143.5,151.5 C 145.156,152.146 146.823,152.813 148.5,153.5C 150.029,153.471 151.196,152.804 152,151.5C 153,153.5 154,155.5 155,157.5C 156,155.5 157,153.5 158,151.5C 158.5,152 159,152.5 159.5,153C 160.108,155.184 159.441,157.184 157.5,159C 158.293,160.085 158.96,161.252 159.5,162.5C 157.513,164.327 155.179,165.327 152.5,165.5C 152.251,161.178 150.584,160.178 147.5,162.5C 148.397,162.669 149.397,163.002 150.5,163.5C 148.916,166.127 147.249,166.127 145.5,163.5C 144.117,166.076 143.283,165.742 143,162.5C 140.106,165.465 136.606,166.631 132.5,166C 133.167,164.667 134.167,163.667 135.5,163C 134.333,162.5 133.5,161.667 133,160.5C 132.527,162.779 131.527,164.779 130,166.5C 129.424,163.876 128.09,163.209 126,164.5C 125.667,163.167 125.333,161.833 125,160.5C 124.5,161 124,161.5 123.5,162C 124.629,165.47 123.295,166.804 119.5,166C 120.167,165.667 120.833,165.333 121.5,165C 118.993,164.907 116.826,164.074 115,162.5C 114.667,162.833 114.333,163.167 114,163.5C 113.568,162.4 114.068,161.733 115.5,161.5C 117.345,162.938 118.511,162.604 119,160.5C 119.718,161.451 120.551,161.617 121.5,161C 119.424,159.116 119.09,156.949 120.5,154.5C 121.941,155.865 123.274,157.365 124.5,159C 126.135,159.54 127.468,159.04 128.5,157.5C 129.478,157.977 130.311,158.643 131,159.5C 131.626,157.009 132.459,157.009 133.5,159.5C 135.003,158.41 135.336,157.243 134.5,156C 135.931,155.535 137.097,154.701 138,153.5C 138.626,155.991 139.459,155.991 140.5,153.5C 141.696,153.846 141.696,154.346 140.5,155C 141.5,155.667 142.5,155.667 143.5,155C 142.829,154.014 142.829,152.847 143.5,151.5 Z"/></g>
<g><path style="opacity:1" fill="#c1a26c" d="M 65.5,148.5 C 65.56,147.957 65.8933,147.624 66.5,147.5C 69.1215,149.813 72.1215,151.147 75.5,151.5C 77.3003,152.895 77.6336,154.561 76.5,156.5C 72.8151,153.809 69.1484,151.142 65.5,148.5 Z"/></g>
<g><path style="opacity:1" fill="#f2f3f2" d="M 27.5,153.5 C 26.8333,154.167 26.8333,154.167 27.5,153.5 Z"/></g>
<g><path style="opacity:1" fill="#7d5d3a" d="M 630.5,152.5 C 627.302,156.936 622.969,159.602 617.5,160.5C 616.167,160.5 614.833,160.5 613.5,160.5C 613.083,157.921 613.75,155.754 615.5,154C 619.177,152.826 622.844,151.659 626.5,150.5C 628.355,150.34 629.688,151.007 630.5,152.5 Z"/></g>
<g><path style="opacity:1" fill="#a27a49" d="M 51.5,154.5 C 52.1495,156.435 52.4828,158.435 52.5,160.5C 51.7904,162.746 51.2904,165.08 51,167.5C 50.2496,166.874 49.4162,166.374 48.5,166C 46.9538,162.35 46.2871,158.516 46.5,154.5C 48.1667,154.5 49.8333,154.5 51.5,154.5 Z"/></g>
<g><path style="opacity:1" fill="#607564" d="M 15.5,113.5 C 17.9869,122.808 22.3202,131.141 28.5,138.5C 29.6283,139.262 30.7949,139.929 32,140.5C 34,139.167 36,139.167 38,140.5C 38.1667,140.167 38.3333,139.833 38.5,139.5C 37.1667,138.5 35.8333,137.5 34.5,136.5C 34.6236,135.893 34.9569,135.56 35.5,135.5C 37.5,136.833 39.5,138.167 41.5,139.5C 46.6553,142.855 52.3219,144.188 58.5,143.5C 58.1604,147.131 58.9937,150.464 61,153.5C 65.0413,157.047 69.208,160.38 73.5,163.5C 73.5,164.833 73.5,166.167 73.5,167.5C 73.2097,170.528 71.543,172.528 68.5,173.5C 66.7844,172.451 65.4511,171.118 64.5,169.5C 63.914,167.16 62.914,164.993 61.5,163C 58.7782,164.07 56.6115,163.237 55,160.5C 53.5387,157.321 52.7054,153.988 52.5,150.5C 47.8177,151.281 43.151,150.948 38.5,149.5C 37.391,149.443 36.391,149.11 35.5,148.5C 27.9373,142.947 22.2706,135.947 18.5,127.5C 16.8359,122.842 15.1693,118.175 13.5,113.5C 13.9698,112.537 14.6365,112.537 15.5,113.5 Z"/></g>
<g><path style="opacity:1" fill="#4f6555" d="M 357.5,167.5 C 397.833,167.5 438.167,167.5 478.5,167.5C 506.005,167.169 533.338,167.502 560.5,168.5C 407.5,168.5 254.5,168.5 101.5,168.5C 141.331,167.667 181.331,167.167 221.5,167C 213.479,166.832 205.479,166.332 197.5,165.5C 196.359,164.575 196.359,163.741 197.5,163C 196.5,162.667 195.5,162.333 194.5,162C 196.061,161.682 197.228,160.849 198,159.5C 198.667,162.167 199.333,162.167 200,159.5C 201.468,161.036 202.968,161.37 204.5,160.5C 205.968,161.451 207.635,162.451 209.5,163.5C 210.167,162.833 210.833,162.167 211.5,161.5C 213.337,165.213 214.837,165.213 216,161.5C 216.333,162.167 216.667,162.833 217,163.5C 217.494,161.866 217.66,160.199 217.5,158.5C 218.552,158.351 219.552,158.517 220.5,159C 220.167,159.333 219.833,159.667 219.5,160C 220.715,162.096 221.549,161.929 222,159.5C 223.385,160.551 224.385,161.884 225,163.5C 226.351,161.981 227.851,160.648 229.5,159.5C 230.739,161.007 230.405,162.174 228.5,163C 230.316,164.941 232.316,165.608 234.5,165C 233.304,165.654 233.304,166.154 234.5,166.5C 235.425,165.359 236.259,165.359 237,166.5C 237.29,164.956 237.956,163.623 239,162.5C 239.691,165.591 241.524,166.757 244.5,166C 243.5,165.667 242.5,165.333 241.5,165C 244.353,163.466 247.186,161.966 250,160.5C 250.333,161.833 250.667,163.167 251,164.5C 253.734,163.638 253.901,162.805 251.5,162C 252.469,158.925 254.469,157.925 257.5,159C 256.5,159.333 255.5,159.667 254.5,160C 256.394,161.101 257.061,162.434 256.5,164C 257.744,164.456 258.577,163.956 259,162.5C 259.915,163.328 260.581,164.328 261,165.5C 261.689,164.643 262.522,163.977 263.5,163.5C 264.833,163.833 266.167,164.167 267.5,164.5C 270.02,163.393 272.52,162.393 275,161.5C 278.331,162.989 281.164,162.322 283.5,159.5C 287.246,160.42 291.079,160.42 295,159.5C 296,158.5 297,157.5 298,156.5C 299.992,158.695 301.159,161.028 301.5,163.5C 301.749,162.418 301.915,161.085 302,159.5C 302.333,160.167 302.667,160.833 303,161.5C 303.684,160.216 303.517,159.049 302.5,158C 307.48,156.698 307.814,154.698 303.5,152C 304.833,151.333 306.167,151.333 307.5,152C 307.167,152.333 306.833,152.667 306.5,153C 308.224,153.448 308.891,154.282 308.5,155.5C 309.167,154.167 309.833,152.833 310.5,151.5C 313.048,152.58 315.215,154.58 317,157.5C 317.333,156.833 317.667,156.167 318,155.5C 318.658,157.108 318.158,158.275 316.5,159C 317.966,159.635 319.3,160.469 320.5,161.5C 321.328,160.585 322.328,159.919 323.5,159.5C 325.617,160.947 327.617,160.78 329.5,159C 328.619,157.207 329.286,156.54 331.5,157C 332.167,158.333 333.167,159.333 334.5,160C 332.954,161.44 332.121,163.273 332,165.5C 330.26,164.284 329.26,162.618 329,160.5C 327.242,161.469 326.742,162.636 327.5,164C 326.234,164.309 325.067,164.809 324,165.5C 321.199,162.926 318.365,162.926 315.5,165.5C 295.842,166.333 276.175,166.833 256.5,167C 290.165,167.5 323.832,167.667 357.5,167.5 Z"/></g>
<g><path style="opacity:1" fill="#f0eeeb" d="M 41.5,160.5 C 42.8333,160.5 44.1667,160.5 45.5,160.5C 45.5,161.5 45.5,162.5 45.5,163.5C 43.2495,163.819 41.2495,163.319 39.5,162C 40.4158,161.722 41.0825,161.222 41.5,160.5 Z"/></g>
<g><path style="opacity:1" fill="#f2f3f2" d="M 617.5,161.5 C 618.239,161.369 618.906,161.536 619.5,162C 618.563,162.692 617.897,162.525 617.5,161.5 Z"/></g>
<g><path style="opacity:1" fill="#56624d" d="M 38.5,149.5 C 43.151,150.948 47.8177,151.281 52.5,150.5C 52.7054,153.988 53.5387,157.321 55,160.5C 56.6115,163.237 58.7782,164.07 61.5,163C 62.914,164.993 63.914,167.16 64.5,169.5C 60.1038,166.975 56.1038,163.975 52.5,160.5C 52.4828,158.435 52.1495,156.435 51.5,154.5C 49.0314,153.683 46.3647,153.183 43.5,153C 41.4156,152.303 39.7489,151.136 38.5,149.5 Z"/></g>
<g><path style="opacity:1" fill="#556b5a" d="M 478.5,167.5 C 438.167,167.5 397.833,167.5 357.5,167.5C 355.444,166.784 353.277,166.117 351,165.5C 347.256,166.626 343.423,166.793 339.5,166C 342.833,165.667 346.167,165.333 349.5,165C 348.66,163.334 349.16,163.167 351,164.5C 350.923,163.262 351.089,162.262 351.5,161.5C 353.167,162.833 354.833,164.167 356.5,165.5C 356.736,164.753 357.07,163.92 357.5,163C 356.833,162.667 356.167,162.333 355.5,162C 356.667,161.5 357.5,160.667 358,159.5C 358.333,160.167 358.667,160.833 359,161.5C 359.423,160.044 360.256,159.544 361.5,160C 361.167,160.333 360.833,160.667 360.5,161C 363.167,161.667 363.167,162.333 360.5,163C 362.224,163.448 362.891,164.282 362.5,165.5C 363.893,164.137 365.559,163.304 367.5,163C 366.584,162.626 365.75,162.126 365,161.5C 364.42,158.453 364.753,158.119 366,160.5C 367.487,159.747 367.654,158.914 366.5,158C 368.076,157.56 369.41,156.727 370.5,155.5C 371.308,155.808 371.975,156.308 372.5,157C 371.66,158.666 372.16,158.833 374,157.5C 374.374,158.416 374.874,159.25 375.5,160C 374.112,160.889 374.278,161.389 376,161.5C 376.388,159.929 377.888,158.929 380.5,158.5C 381.251,157.624 381.751,156.624 382,155.5C 382.333,155.833 382.667,156.167 383,156.5C 383.249,155.376 383.749,154.376 384.5,153.5C 386.441,155.316 387.108,157.316 386.5,159.5C 387.429,158.311 387.762,156.978 387.5,155.5C 388.93,155.421 390.264,155.754 391.5,156.5C 392.795,155.902 394.128,155.402 395.5,155C 393.068,153.913 393.402,153.413 396.5,153.5C 396.67,154.822 396.337,155.989 395.5,157C 397.728,159.225 399.561,161.725 401,164.5C 401.333,163.5 401.667,162.5 402,161.5C 402.333,161.833 402.667,162.167 403,162.5C 404.314,161.687 405.481,160.687 406.5,159.5C 405.984,160.758 406.65,161.758 408.5,162.5C 408.669,161.603 409.002,160.603 409.5,159.5C 410.732,160.145 412.065,160.311 413.5,160C 413.167,160.333 412.833,160.667 412.5,161C 414.196,162.266 416.029,162.1 418,160.5C 419.714,161.925 421.047,161.592 422,159.5C 423.563,162.044 425.063,162.044 426.5,159.5C 428.316,161.441 430.316,162.108 432.5,161.5C 434.001,160.248 435.668,159.248 437.5,158.5C 436.675,154.849 437.341,154.682 439.5,158C 438.549,158.718 438.383,159.551 439,160.5C 439.667,161.833 440.333,161.833 441,160.5C 441.333,161.167 441.667,161.833 442,162.5C 442.471,160.754 443.138,159.087 444,157.5C 444.333,158.167 444.667,158.833 445,159.5C 445.776,156.351 447.276,155.851 449.5,158C 449.167,158.333 448.833,158.667 448.5,159C 449.333,159.167 450.167,159.333 451,159.5C 454.062,156.631 456.729,156.965 459,160.5C 460.586,159.624 462.086,158.624 463.5,157.5C 464.425,158.641 465.259,158.641 466,157.5C 466.333,158.167 466.667,158.833 467,159.5C 471.326,154.452 474.326,155.452 476,162.5C 477.204,161.529 477.704,160.529 477.5,159.5C 478.192,160.025 478.692,160.692 479,161.5C 479.519,160.484 480.353,159.818 481.5,159.5C 482.068,161.042 483.735,161.875 486.5,162C 485.5,162.333 484.5,162.667 483.5,163C 485.291,163.415 486.624,164.415 487.5,166C 484.305,166.181 481.305,166.681 478.5,167.5 Z"/></g>
<g><path style="opacity:1" fill="#f7f5f3" d="M 614.5,162.5 C 616.973,162.947 617.14,163.947 615,165.5C 614.517,164.552 614.351,163.552 614.5,162.5 Z"/></g>
<g><path style="opacity:1" fill="#8b8965" d="M 79.5,163.5 C 83.5247,164.306 87.5247,165.472 91.5,167C 87.7887,167.825 84.122,167.659 80.5,166.5C 79.8728,165.583 79.5394,164.583 79.5,163.5 Z"/></g>
<g><path style="opacity:1" fill="#edbf80" d="M 75.5,162.5 C 76.4614,164.265 76.7947,166.265 76.5,168.5C 245.5,169.167 414.5,169.833 583.5,170.5C 583.5,170.833 583.5,171.167 583.5,171.5C 413.833,171.5 244.167,171.5 74.5,171.5C 74.7373,170.209 74.404,169.209 73.5,168.5C 73.5,168.167 73.5,167.833 73.5,167.5C 73.5,166.167 73.5,164.833 73.5,163.5C 74.1667,163.167 74.8333,162.833 75.5,162.5 Z"/></g>
<g><path style="opacity:1" fill="#f3f1ef" d="M 53.5,172.5 C 54.4916,172.328 55.1583,172.662 55.5,173.5C 54.6397,175.97 53.3064,176.137 51.5,174C 52.4158,173.722 53.0825,173.222 53.5,172.5 Z"/></g>
<g><path style="opacity:1" fill="#566e5d" d="M 602.5,164.5 C 599.948,165.693 597.448,167.027 595,168.5C 594.118,171.789 593.452,175.123 593,178.5C 592.617,179.056 592.117,179.389 591.5,179.5C 582.582,179.817 573.749,179.484 565,178.5C 399.209,179.17 233.375,179.837 67.5,180.5C 66.8826,180.389 66.3826,180.056 66,179.5C 65.1744,176.207 64.6744,172.874 64.5,169.5C 65.4511,171.118 66.7844,172.451 68.5,173.5C 71.543,172.528 73.2097,170.528 73.5,167.5C 73.5,167.833 73.5,168.167 73.5,168.5C 73.5,169.833 73.5,171.167 73.5,172.5C 74.8333,172.5 76.1667,172.5 77.5,172.5C 126.048,172.838 174.548,173.838 223,175.5C 223.5,175 224,174.5 224.5,174C 265.335,173.833 306.002,173.333 346.5,172.5C 425.668,172.833 504.668,172.499 583.5,171.5C 583.5,171.167 583.5,170.833 583.5,170.5C 584.167,168.5 584.833,166.5 585.5,164.5C 586.161,165.718 586.828,167.051 587.5,168.5C 591.321,168.152 594.988,166.652 598.5,164C 600.066,163.235 601.399,163.402 602.5,164.5 Z"/></g>
<g><path style="opacity:1" fill="#45695d" d="M 77.5,172.5 C 167.167,172.5 256.833,172.5 346.5,172.5C 306.002,173.333 265.335,173.833 224.5,174C 224,174.5 223.5,175 223,175.5C 174.548,173.838 126.048,172.838 77.5,172.5 Z"/></g>
<g><path style="opacity:1" fill="#727961" d="M 73.5,168.5 C 74.404,169.209 74.7373,170.209 74.5,171.5C 244.167,171.5 413.833,171.5 583.5,171.5C 504.668,172.499 425.668,172.833 346.5,172.5C 256.833,172.5 167.167,172.5 77.5,172.5C 76.1667,172.5 74.8333,172.5 73.5,172.5C 73.5,171.167 73.5,169.833 73.5,168.5 Z"/></g>
<g><path style="opacity:1" fill="#d1a66f" d="M 608.5,154.5 C 609.122,162.2 605.789,167.2 598.5,169.5C 597.319,173.228 595.985,176.895 594.5,180.5C 593.386,181.776 592.386,181.776 591.5,180.5C 591.5,180.167 591.5,179.833 591.5,179.5C 592.117,179.389 592.617,179.056 593,178.5C 593.452,175.123 594.118,171.789 595,168.5C 597.448,167.027 599.948,165.693 602.5,164.5C 605.061,161.358 607.061,158.025 608.5,154.5 Z"/></g>
<g><path style="opacity:1" fill="#525c46" d="M 591.5,179.5 C 591.5,179.833 591.5,180.167 591.5,180.5C 557.573,181.493 523.573,181.826 489.5,181.5C 349.5,181.5 209.5,181.5 69.5,181.5C 68.5084,181.672 67.8417,181.338 67.5,180.5C 233.375,179.837 399.209,179.17 565,178.5C 573.749,179.484 582.582,179.817 591.5,179.5 Z"/></g>
<g><path style="opacity:1" fill="#ad8655" d="M 69.5,181.5 C 209.5,181.5 349.5,181.5 489.5,181.5C 489.218,182.778 488.551,183.778 487.5,184.5C 348.167,184.5 208.833,184.5 69.5,184.5C 69.5,183.5 69.5,182.5 69.5,181.5 Z"/></g>
<g><path style="opacity:1" fill="#a27c4d" d="M 608.5,154.5 C 608.833,154.5 609.167,154.5 609.5,154.5C 611.209,156.638 612.543,158.971 613.5,161.5C 613.182,169.152 609.182,173.152 601.5,173.5C 601.911,177.463 601.078,181.13 599,184.5C 598.184,185.823 597.017,186.489 595.5,186.5C 595.657,185.127 595.49,183.793 595,182.5C 589.363,183.012 583.529,183.512 577.5,184C 552.836,184.5 528.169,184.667 503.5,184.5C 498.167,184.5 492.833,184.5 487.5,184.5C 488.551,183.778 489.218,182.778 489.5,181.5C 523.573,181.826 557.573,181.493 591.5,180.5C 592.386,181.776 593.386,181.776 594.5,180.5C 595.985,176.895 597.319,173.228 598.5,169.5C 605.789,167.2 609.122,162.2 608.5,154.5 Z"/></g>
<g><path style="opacity:1" fill="#947048" d="M 35.5,148.5 C 36.391,149.11 37.391,149.443 38.5,149.5C 39.7489,151.136 41.4156,152.303 43.5,153C 46.3647,153.183 49.0314,153.683 51.5,154.5C 49.8333,154.5 48.1667,154.5 46.5,154.5C 46.2871,158.516 46.9538,162.35 48.5,166C 49.4162,166.374 50.2496,166.874 51,167.5C 51.2904,165.08 51.7904,162.746 52.5,160.5C 56.1038,163.975 60.1038,166.975 64.5,169.5C 64.6744,172.874 65.1744,176.207 66,179.5C 66.3826,180.056 66.8826,180.389 67.5,180.5C 67.8417,181.338 68.5084,181.672 69.5,181.5C 69.5,182.5 69.5,183.5 69.5,184.5C 208.833,184.5 348.167,184.5 487.5,184.5C 492.833,184.5 498.167,184.5 503.5,184.5C 494.676,185.33 485.676,185.83 476.5,186C 434.833,186.333 393.167,186.667 351.5,187C 432.166,187.5 512.833,187.667 593.5,187.5C 591.393,188.468 589.059,188.802 586.5,188.5C 572.833,188.5 559.167,188.5 545.5,188.5C 385.166,188.667 224.833,188.5 64.5,188C 59.0523,185.282 56.5523,180.782 57,174.5C 56.6174,173.944 56.1174,173.611 55.5,173.5C 55.1583,172.662 54.4916,172.328 53.5,172.5C 48.7139,171.381 46.0473,168.381 45.5,163.5C 45.5,162.5 45.5,161.5 45.5,160.5C 44.7659,159.292 44.4326,157.959 44.5,156.5C 42.4078,156.439 40.9078,155.439 40,153.5C 39.6667,154.167 39.3333,154.833 39,155.5C 38.6827,153.699 38.016,153.366 37,154.5C 34.6949,152.978 33.1949,150.978 32.5,148.5C 33.5,148.5 34.5,148.5 35.5,148.5 Z"/></g>
<g><path style="opacity:1" fill="#7c582d" d="M 595.5,186.5 C 595.158,187.338 594.492,187.672 593.5,187.5C 512.833,187.667 432.166,187.5 351.5,187C 393.167,186.667 434.833,186.333 476.5,186C 485.676,185.83 494.676,185.33 503.5,184.5C 528.169,184.667 552.836,184.5 577.5,184C 583.529,183.512 589.363,183.012 595,182.5C 595.49,183.793 595.657,185.127 595.5,186.5 Z"/></g>
<g><path style="opacity:1" fill="#f4f3f2" d="M 66.5,190.5 C 115.998,189.335 165.665,189.168 215.5,190C 165.834,190.5 116.168,190.667 66.5,190.5 Z"/></g>
<g><path style="opacity:1" fill="#f4f3f3" d="M 545.5,188.5 C 559.167,188.5 572.833,188.5 586.5,188.5C 588.292,189.309 590.292,189.809 592.5,190C 471.167,190.667 349.833,190.667 228.5,190C 334.334,189.833 440.001,189.333 545.5,188.5 Z"/></g>
</svg>
