<?xml version="1.0" encoding="UTF-8"?>
<!DOCTYPE svg PUBLIC "-//W3C//DTD SVG 1.1//EN" "http://www.w3.org/Graphics/SVG/1.1/DTD/svg11.dtd">
<svg xmlns="http://www.w3.org/2000/svg" version="1.1" width="665px" height="225px" style="shape-rendering:geometricPrecision; text-rendering:geometricPrecision; image-rendering:optimizeQuality; fill-rule:evenodd; clip-rule:evenodd" xmlns:xlink="http://www.w3.org/1999/xlink">
<g><path style="opacity:1" fill="#f4f3f3" d="M 510.5,4.5 C 508.167,4.5 505.833,4.5 503.5,4.5C 358.334,3.66686 213.001,3.16686 67.5,3C 230.5,2.33333 393.5,2.33333 556.5,3C 540.995,3.16865 525.661,3.66865 510.5,4.5 Z"/></g>
<g><path style="opacity:1" fill="#f9f3f2" d="M 557.5,2.5 C 558.833,3.16667 558.833,3.16667 557.5,2.5 Z"/></g>
<g><path style="opacity:1" fill="#f9f3f2" d="M 564.5,3.5 C 568.311,2.35472 572.311,2.18806 576.5,3C 572.514,3.49885 568.514,3.66551 564.5,3.5 Z"/></g>
<g><path style="opacity:1" fill="#f3f3f2" d="M 579.5,3.5 C 582.976,2.35673 586.642,2.19007 590.5,3C 586.848,3.49863 583.182,3.6653 579.5,3.5 Z"/></g>
<g><path style="opacity:1" fill="#886941" d="M 503.5,4.5 C 505.833,4.5 508.167,4.5 510.5,4.5C 538.169,4.33336 565.835,4.50002 593.5,5C 595.66,5.9959 597.327,7.4959 598.5,9.5C 598.631,10.2389 598.464,10.9056 598,11.5C 597.346,10.3044 596.846,10.3044 596.5,11.5C 597.986,15.1107 599.319,18.7773 600.5,22.5C 601.736,21.7542 603.07,21.4208 604.5,21.5C 604.833,21.5 605.167,21.5 605.5,21.5C 606.431,24.3578 607.765,27.5245 609.5,31C 607.563,31.1216 606.23,31.955 605.5,33.5C 602.677,30.1818 599.177,27.8484 595,26.5C 594.892,22.5349 594.059,18.8683 592.5,15.5C 592.5,13.5 591.5,12.5 589.5,12.5C 588.855,11.1882 587.855,10.1882 586.5,9.5C 579.998,11.0656 573.664,10.7323 567.5,8.5C 565.5,9 563.5,9.5 561.5,10C 532.161,10.8332 502.828,10.6665 473.5,9.5C 468.952,8.80761 464.452,8.14094 460,7.5C 449.505,8.79396 438.672,8.79396 427.5,7.5C 422.901,7.80305 418.401,8.46971 414,9.5C 409.667,8.83333 405.333,8.16667 401,7.5C 399.887,9.7996 398.387,10.1329 396.5,8.5C 392.008,9.20293 387.508,9.8696 383,10.5C 373.362,10.2658 363.695,9.59914 354,8.5C 345.37,8.57305 336.703,8.57305 328,8.5C 326.167,8.66667 324.333,8.83333 322.5,9C 325.063,9.76297 325.063,10.263 322.5,10.5C 320.192,10.0107 319.025,9.01074 319,7.5C 313.016,7.96914 307.183,9.1358 301.5,11C 223.332,11.167 145.332,11.667 67.5,12.5C 64.1922,16.0973 62.8588,20.4307 63.5,25.5C 63.5,25.8333 63.5,26.1667 63.5,26.5C 60.4844,27.562 57.4844,28.7286 54.5,30C 53.3937,33.2695 52.0603,36.4361 50.5,39.5C 46.6059,38.4829 42.7725,38.4829 39,39.5C 37.6003,38.252 36.1003,37.252 34.5,36.5C 36.8902,34.9802 39.5568,33.9802 42.5,33.5C 44.1765,34.1834 44.8432,35.5168 44.5,37.5C 45.5,37.5 46.5,37.5 47.5,37.5C 46.9944,33.0143 48.3277,29.181 51.5,26C 50.5,25.3333 49.5,25.3333 48.5,26C 47.7894,27.2547 46.956,28.4214 46,29.5C 45.5357,28.9056 45.369,28.2389 45.5,27.5C 47.3622,23.2228 50.6955,20.8894 55.5,20.5C 56.793,19.158 57.6264,17.4913 58,15.5C 58.1554,17.856 58.1554,20.1893 58,22.5C 58.9835,17.1882 61.4835,12.8548 65.5,9.5C 64.624,8.74917 63.624,8.24917 62.5,8C 63.056,7.61742 63.3893,7.11742 63.5,6.5C 63.9175,5.77842 64.5842,5.27842 65.5,5C 211.5,4.5 357.5,4.33333 503.5,4.5 Z"/></g>
<g><path style="opacity:1" fill="#bb9d76" d="M 63.5,6.5 C 63.3893,7.11742 63.056,7.61742 62.5,8C 63.624,8.24917 64.624,8.74917 65.5,9.5C 61.4835,12.8548 58.9835,17.1882 58,22.5C 58.1554,20.1893 58.1554,17.856 58,15.5C 57.6264,17.4913 56.793,19.158 55.5,20.5C 55.631,19.7611 55.4643,19.0944 55,18.5C 54.3457,19.6956 53.8457,19.6956 53.5,18.5C 54.325,17.6143 55.325,17.281 56.5,17.5C 56.6028,12.2703 58.9361,8.60363 63.5,6.5 Z"/></g>
<g><path style="opacity:1" fill="#75562f" d="M 589.5,12.5 C 415.5,12.5 241.5,12.5 67.5,12.5C 145.332,11.667 223.332,11.167 301.5,11C 307.183,9.1358 313.016,7.96914 319,7.5C 319.025,9.01074 320.192,10.0107 322.5,10.5C 325.063,10.263 325.063,9.76297 322.5,9C 324.333,8.83333 326.167,8.66667 328,8.5C 336.703,8.57305 345.37,8.57305 354,8.5C 363.695,9.59914 373.362,10.2658 383,10.5C 387.508,9.8696 392.008,9.20293 396.5,8.5C 398.387,10.1329 399.887,9.7996 401,7.5C 405.333,8.16667 409.667,8.83333 414,9.5C 418.401,8.46971 422.901,7.80305 427.5,7.5C 438.672,8.79396 449.505,8.79396 460,7.5C 464.452,8.14094 468.952,8.80761 473.5,9.5C 502.828,10.6665 532.161,10.8332 561.5,10C 563.5,9.5 565.5,9 567.5,8.5C 573.664,10.7323 579.998,11.0656 586.5,9.5C 587.855,10.1882 588.855,11.1882 589.5,12.5 Z"/></g>
<g><path style="opacity:1" fill="#4c422b" d="M 67.5,12.5 C 241.5,12.5 415.5,12.5 589.5,12.5C 591.5,12.5 592.5,13.5 592.5,15.5C 591.527,15.0133 590.527,14.5133 589.5,14C 415.833,13.3333 242.167,13.3333 68.5,14C 67.6667,14.8333 66.8333,15.6667 66,16.5C 65.5939,19.7422 64.7605,22.7422 63.5,25.5C 62.8588,20.4307 64.1922,16.0973 67.5,12.5 Z"/></g>
<g><path style="opacity:1" fill="#586f5d" d="M 592.5,15.5 C 594.059,18.8683 594.892,22.5349 595,26.5C 599.177,27.8484 602.677,30.1818 605.5,33.5C 605.517,35.5648 605.85,37.5648 606.5,39.5C 621.775,43.3979 633.442,52.3979 641.5,66.5C 644.485,72.7917 647.152,79.125 649.5,85.5C 653.047,104.412 650.047,122.078 640.5,138.5C 643.004,130.317 645.004,121.984 646.5,113.5C 646.423,111.701 645.923,110.034 645,108.5C 644.333,109.833 643.667,109.833 643,108.5C 642.667,109.167 642.333,109.833 642,110.5C 641.826,105.649 641.326,100.982 640.5,96.5C 638.783,78.8834 630.783,65.05 616.5,55C 610.364,52.8218 604.031,51.9885 597.5,52.5C 598.861,43.6883 595.361,37.6883 587,34.5C 585.407,30.8387 584.241,27.172 583.5,23.5C 514.002,22.5008 444.335,22.1675 374.5,22.5C 369.221,22.1069 364.054,21.1069 359,19.5C 349.911,20.3192 340.744,20.8192 331.5,21C 245.486,21.634 159.486,21.634 73.5,21C 74.056,21.3826 74.3893,21.8826 74.5,22.5C 74.5,22.8333 74.5,23.1667 74.5,23.5C 73.6618,23.8417 73.3284,24.5084 73.5,25.5C 72.4394,28.5107 71.2727,31.5107 70,34.5C 62.2902,37.6842 58.4569,43.3508 58.5,51.5C 44.3974,51.9156 33.7308,58.2489 26.5,70.5C 25.8141,69.1516 24.8141,67.985 23.5,67C 24.7059,65.9823 24.3726,65.4823 22.5,65.5C 21.8333,65.8333 21.1667,66.1667 20.5,66.5C 14.0928,78.6448 11.0928,91.6448 11.5,105.5C 11.4995,113.005 12.6662,120.339 15,127.5C 18.0117,133.84 21.0117,140.173 24,146.5C 26.1022,150.274 29.1022,152.941 33,154.5C 38.2832,153.356 39.1165,151.189 35.5,148C 35.7284,147.601 36.0618,147.435 36.5,147.5C 37.8333,148.167 39.1667,148.833 40.5,149.5C 45.533,152.985 51.1997,154.319 57.5,153.5C 57.4924,162.147 61.4924,168.147 69.5,171.5C 72.758,174.369 74.0914,178.036 73.5,182.5C 178.5,182.5 283.5,182.5 388.5,182.5C 388.5,182.833 388.5,183.167 388.5,183.5C 285.827,183.16 195.827,183.493 118.5,184.5C 118.124,185.982 118.124,187.315 118.5,188.5C 115.833,188.5 113.167,188.5 110.5,188.5C 109.614,187.675 109.281,186.675 109.5,185.5C 106.289,185.012 103.456,185.679 101,187.5C 100.612,186.572 99.9454,185.905 99,185.5C 97.3113,186.858 95.978,188.525 95,190.5C 94.6667,190.167 94.3333,189.833 94,189.5C 85.0988,191.456 75.9321,192.122 66.5,191.5C 65.2101,190.942 64.3768,189.942 64,188.5C 63.7935,185.377 63.1268,182.377 62,179.5C 58.0874,177.591 54.7541,174.924 52,171.5C 51.023,169.26 50.523,166.927 50.5,164.5C 48.1432,164.663 45.8098,164.497 43.5,164C 40.9289,162.546 38.2622,161.38 35.5,160.5C 15.0514,144.242 6.05137,122.908 8.5,96.5C 11.2887,86.1308 14.2887,75.7974 17.5,65.5C 23.4351,58.227 29.7685,51.227 36.5,44.5C 41.0627,42.558 45.7294,41.2247 50.5,40.5C 52.7461,37.2291 55.0794,33.8957 57.5,30.5C 60.0216,29.6971 62.0216,28.3638 63.5,26.5C 63.5,26.1667 63.5,25.8333 63.5,25.5C 64.7605,22.7422 65.5939,19.7422 66,16.5C 66.8333,15.6667 67.6667,14.8333 68.5,14C 242.167,13.3333 415.833,13.3333 589.5,14C 590.527,14.5133 591.527,15.0133 592.5,15.5 Z"/></g>
<g><path style="opacity:1" fill="#d0b18b" d="M 598.5,9.5 C 600.428,12.6217 601.761,15.9551 602.5,19.5C 603.167,20.1667 603.833,20.8333 604.5,21.5C 603.07,21.4208 601.736,21.7542 600.5,22.5C 599.319,18.7773 597.986,15.1107 596.5,11.5C 596.846,10.3044 597.346,10.3044 598,11.5C 598.464,10.9056 598.631,10.2389 598.5,9.5 Z"/></g>
<g><path style="opacity:1" fill="#f5f3f2" d="M 602.5,19.5 C 602.897,18.475 603.563,18.3083 604.5,19C 603.906,19.4643 603.239,19.631 602.5,19.5 Z"/></g>
<g><path style="opacity:1" fill="#4a634e" d="M 374.5,22.5 C 274.5,22.5 174.5,22.5 74.5,22.5C 74.3893,21.8826 74.056,21.3826 73.5,21C 159.486,21.634 245.486,21.634 331.5,21C 340.744,20.8192 349.911,20.3192 359,19.5C 364.054,21.1069 369.221,22.1069 374.5,22.5 Z"/></g>
<g><path style="opacity:1" fill="#caac70" d="M 74.5,23.5 C 74.5,23.1667 74.5,22.8333 74.5,22.5C 174.5,22.5 274.5,22.5 374.5,22.5C 444.335,22.1675 514.002,22.5008 583.5,23.5C 413.973,23.6177 244.306,23.6177 74.5,23.5 Z"/></g>
<g><path style="opacity:1" fill="#e0bc7d" d="M 74.5,23.5 C 244.306,23.6177 413.973,23.6177 583.5,23.5C 583.5,24.8333 582.833,25.5 581.5,25.5C 580.833,25.5 580.167,25.5 579.5,25.5C 472.167,25.5 364.833,25.5 257.5,25.5C 196.664,25.1676 135.998,25.5009 75.5,26.5C 74.8333,26.1667 74.1667,25.8333 73.5,25.5C 73.3284,24.5084 73.6618,23.8417 74.5,23.5 Z"/></g>
<g><path style="opacity:1" fill="#576f5d" d="M 257.5,25.5 C 278.337,26.1667 299.337,26.8333 320.5,27.5C 319.613,28.0786 318.446,28.0786 317,27.5C 316.167,27.8333 315.333,28.1667 314.5,28.5C 314.667,28.8333 314.833,29.1667 315,29.5C 316.049,28.4829 317.216,28.3162 318.5,29C 321.002,30.3375 323.002,32.1708 324.5,34.5C 327.056,33.9488 329.389,32.9488 331.5,31.5C 330.413,30.895 329.246,31.2283 328,32.5C 327.544,31.2559 328.044,30.4226 329.5,30C 326.833,29.3333 326.833,28.6667 329.5,28C 335.825,27.5005 342.158,27.3338 348.5,27.5C 348.351,28.552 348.517,29.552 349,30.5C 349.333,30.1667 349.667,29.8333 350,29.5C 350.339,32.6835 351.672,35.3502 354,37.5C 354.667,36.1667 355.333,36.1667 356,37.5C 356.36,35.5789 357.194,33.9122 358.5,32.5C 359.086,32.7093 359.586,33.0426 360,33.5C 363.854,29.6562 368.521,27.6562 374,27.5C 375.981,27.6292 377.647,28.2958 379,29.5C 379.388,28.572 380.055,27.9054 381,27.5C 382.626,28.2887 384.126,29.2887 385.5,30.5C 390.029,27.2763 395.029,26.6097 400.5,28.5C 401.647,28.8178 402.481,29.4844 403,30.5C 404.493,28.4402 406.326,28.1068 408.5,29.5C 409.128,31.2581 410.128,32.7581 411.5,34C 412.744,34.4561 413.577,33.9561 414,32.5C 414.953,34.5922 416.286,34.9255 418,33.5C 418.333,34.1667 418.667,34.8333 419,35.5C 419.005,32.7708 420.171,30.7708 422.5,29.5C 423.257,31.5967 423.424,33.93 423,36.5C 423.667,33.8333 424.333,33.8333 425,36.5C 424.599,33.9387 424.765,31.2721 425.5,28.5C 428.794,27.9466 430.46,28.9466 430.5,31.5C 433.097,31.1475 435.93,30.4808 439,29.5C 439.945,29.9054 440.612,30.572 441,31.5C 444.446,26.9006 447.946,26.4006 451.5,30C 452.993,31.3681 454.493,31.5348 456,30.5C 456.333,31.1667 456.667,31.8333 457,32.5C 457.684,31.2161 457.517,30.0495 456.5,29C 457.6,27.977 458.933,27.477 460.5,27.5C 462.338,28.1123 464.005,28.1123 465.5,27.5C 466.192,28.0253 466.692,28.6919 467,29.5C 467.739,28.4258 468.739,27.7591 470,27.5C 470.253,28.5345 471.086,29.5345 472.5,30.5C 474.029,29.7161 475.696,28.7161 477.5,27.5C 478.5,28 479.5,28.5 480.5,29C 479.346,29.9138 479.513,30.7471 481,31.5C 483.667,27.5 486.333,27.5 489,31.5C 490.487,30.8448 491.653,29.8448 492.5,28.5C 498.052,27.8124 503.552,27.1457 509,26.5C 510.117,27.9494 510.784,29.6161 511,31.5C 512.667,30.1667 514.333,30.1667 516,31.5C 516.903,30.2986 518.069,29.4652 519.5,29C 518.833,28.6667 518.167,28.3333 517.5,28C 519.134,27.5065 520.801,27.3398 522.5,27.5C 522.094,29.1092 522.094,30.4425 522.5,31.5C 524.481,30.8946 524.815,29.8946 523.5,28.5C 525.667,28.1667 527.833,27.8333 530,27.5C 533.243,27.3066 536.243,27.9733 539,29.5C 540.016,28.3659 540.683,28.6992 541,30.5C 541.308,29.6919 541.808,29.0253 542.5,28.5C 542.61,30.0982 542.943,31.7648 543.5,33.5C 544.948,34.3539 546.281,35.3539 547.5,36.5C 548.216,35.1045 548.383,33.4378 548,31.5C 549.395,30.1854 550.395,30.5188 551,32.5C 552.887,30.9379 553.72,29.2712 553.5,27.5C 554.425,28.6405 555.259,28.6405 556,27.5C 555.923,28.7376 556.089,29.7376 556.5,30.5C 559.288,29.04 561.455,29.7067 563,32.5C 564.333,29.8333 565.667,29.8333 567,32.5C 568.258,29.9447 570.091,29.2781 572.5,30.5C 576.715,29.2695 577.048,28.1029 573.5,27C 575.708,26.8091 577.708,26.3091 579.5,25.5C 580.167,25.5 580.833,25.5 581.5,25.5C 581.4,28.667 582.067,31.667 583.5,34.5C 581.833,35.1667 580.167,35.8333 578.5,36.5C 581.379,39.193 584.546,41.5263 588,43.5C 588.5,43.3333 589,43.1667 589.5,43C 588.315,41.647 586.981,40.4803 585.5,39.5C 586.365,38.4173 587.365,38.2506 588.5,39C 593.544,43.2032 594.544,48.0365 591.5,53.5C 590.186,52.6872 589.019,51.6872 588,50.5C 587.333,51.1667 587.333,51.8333 588,52.5C 590.444,54.556 592.277,57.056 593.5,60C 597.387,58.9423 601.053,59.4423 604.5,61.5C 604.389,62.1174 604.056,62.6174 603.5,63C 603.981,66.0185 604.981,68.8518 606.5,71.5C 605.977,73.8363 606.477,76.1697 608,78.5C 608.066,84.0124 608.9,89.3457 610.5,94.5C 607.809,98.1895 604.476,101.19 600.5,103.5C 601.243,104.182 601.909,104.849 602.5,105.5C 601.711,105.783 601.044,106.283 600.5,107C 602.31,109.644 604.31,112.144 606.5,114.5C 606.291,115.086 605.957,115.586 605.5,116C 606.309,121.417 606.809,126.917 607,132.5C 607.739,134.221 608.573,135.887 609.5,137.5C 610.663,138.056 611.663,138.389 612.5,138.5C 609.483,143.683 605.317,147.683 600,150.5C 598.503,149.523 597.003,148.523 595.5,147.5C 594.833,147.667 594.167,147.833 593.5,148C 592.773,149.399 592.273,150.899 592,152.5C 586.261,156.404 581.761,161.404 578.5,167.5C 578.833,167.833 579.167,168.167 579.5,168.5C 584.167,164.833 588.833,161.167 593.5,157.5C 594.631,159.074 594.798,160.741 594,162.5C 590.148,166.409 586.148,170.076 582,173.5C 581.505,175.473 581.338,177.473 581.5,179.5C 418.832,179.833 256.165,179.5 93.5,178.5C 89.5904,176.654 85.5904,176.32 81.5,177.5C 81.7093,178.086 82.0426,178.586 82.5,179C 80.5273,179.495 78.5273,179.662 76.5,179.5C 76.7947,177.265 76.4614,175.265 75.5,173.5C 74.5,171.833 73.1667,170.5 71.5,169.5C 67.0099,167.175 63.6765,163.675 61.5,159C 61.8333,158.5 62.1667,158 62.5,157.5C 66.8803,159.377 70.5469,162.21 73.5,166C 74.448,166.483 75.448,166.649 76.5,166.5C 76.5086,164.692 76.0086,163.025 75,161.5C 69.0463,158.55 64.8796,154.05 62.5,148C 60.9532,147.667 59.6199,148.167 58.5,149.5C 55.4685,148.323 52.8019,146.656 50.5,144.5C 36.5387,127.965 38.872,114.131 57.5,103C 56.0161,102.338 54.6828,101.504 53.5,100.5C 54.0906,99.8485 54.7573,99.1818 55.5,98.5C 54.8064,95.9124 53.6398,93.579 52,91.5C 51.7305,88.7759 51.2305,86.1092 50.5,83.5C 51.6706,81.3087 51.3373,79.1421 49.5,77C 50.1958,75.512 49.8625,74.012 48.5,72.5C 46.4941,73.1804 44.8275,73.1804 43.5,72.5C 46.1885,66.312 50.6885,61.9786 57,59.5C 57.8732,59.7355 58.7065,60.0688 59.5,60.5C 62.472,58.6944 65.3053,56.6944 68,54.5C 68.7494,53.365 68.5827,52.365 67.5,51.5C 65.5914,52.3482 63.5914,52.6816 61.5,52.5C 61.3829,44.1197 65.3829,39.953 73.5,40C 71.2031,41.2633 70.3698,43.0966 71,45.5C 73.128,42.3699 75.628,39.5366 78.5,37C 76.8659,36.5065 75.1992,36.3398 73.5,36.5C 75.017,33.4127 75.6837,30.0794 75.5,26.5C 135.998,25.5009 196.664,25.1676 257.5,25.5 Z"/></g>
<g><path style="opacity:1" fill="#f9f3f2" d="M 41.5,28.5 C 42.525,28.8966 42.6917,29.5632 42,30.5C 41.5357,29.9056 41.369,29.2389 41.5,28.5 Z"/></g>
<g><path style="opacity:1" fill="#b7a072" d="M 84.5,26.5 C 86.9892,26.2978 89.3225,26.7978 91.5,28C 87.7805,30.8598 84.1138,31.0265 80.5,28.5C 81.9492,27.8281 83.2825,27.1614 84.5,26.5 Z"/></g>
<g><path style="opacity:1" fill="#5d7060" d="M 257.5,25.5 C 364.833,25.5 472.167,25.5 579.5,25.5C 577.708,26.3091 575.708,26.8091 573.5,27C 577.048,28.1029 576.715,29.2695 572.5,30.5C 570.091,29.2781 568.258,29.9447 567,32.5C 565.667,29.8333 564.333,29.8333 563,32.5C 561.455,29.7067 559.288,29.04 556.5,30.5C 556.089,29.7376 555.923,28.7376 556,27.5C 555.259,28.6405 554.425,28.6405 553.5,27.5C 553.72,29.2712 552.887,30.9379 551,32.5C 550.395,30.5188 549.395,30.1854 548,31.5C 548.383,33.4378 548.216,35.1045 547.5,36.5C 546.281,35.3539 544.948,34.3539 543.5,33.5C 542.943,31.7648 542.61,30.0982 542.5,28.5C 541.808,29.0253 541.308,29.6919 541,30.5C 540.683,28.6992 540.016,28.3659 539,29.5C 536.243,27.9733 533.243,27.3066 530,27.5C 527.833,27.8333 525.667,28.1667 523.5,28.5C 524.815,29.8946 524.481,30.8946 522.5,31.5C 522.094,30.4425 522.094,29.1092 522.5,27.5C 520.801,27.3398 519.134,27.5065 517.5,28C 518.167,28.3333 518.833,28.6667 519.5,29C 518.069,29.4652 516.903,30.2986 516,31.5C 514.333,30.1667 512.667,30.1667 511,31.5C 510.784,29.6161 510.117,27.9494 509,26.5C 503.552,27.1457 498.052,27.8124 492.5,28.5C 491.653,29.8448 490.487,30.8448 489,31.5C 486.333,27.5 483.667,27.5 481,31.5C 479.513,30.7471 479.346,29.9138 480.5,29C 479.5,28.5 478.5,28 477.5,27.5C 475.696,28.7161 474.029,29.7161 472.5,30.5C 471.086,29.5345 470.253,28.5345 470,27.5C 468.739,27.7591 467.739,28.4258 467,29.5C 466.692,28.6919 466.192,28.0253 465.5,27.5C 464.005,28.1123 462.338,28.1123 460.5,27.5C 458.933,27.477 457.6,27.977 456.5,29C 457.517,30.0495 457.684,31.2161 457,32.5C 456.667,31.8333 456.333,31.1667 456,30.5C 454.493,31.5348 452.993,31.3681 451.5,30C 447.946,26.4006 444.446,26.9006 441,31.5C 440.612,30.572 439.945,29.9054 439,29.5C 435.93,30.4808 433.097,31.1475 430.5,31.5C 430.46,28.9466 428.794,27.9466 425.5,28.5C 424.765,31.2721 424.599,33.9387 425,36.5C 424.333,33.8333 423.667,33.8333 423,36.5C 423.424,33.93 423.257,31.5967 422.5,29.5C 420.171,30.7708 419.005,32.7708 419,35.5C 418.667,34.8333 418.333,34.1667 418,33.5C 416.286,34.9255 414.953,34.5922 414,32.5C 413.577,33.9561 412.744,34.4561 411.5,34C 410.128,32.7581 409.128,31.2581 408.5,29.5C 406.326,28.1068 404.493,28.4402 403,30.5C 402.481,29.4844 401.647,28.8178 400.5,28.5C 395.029,26.6097 390.029,27.2763 385.5,30.5C 384.126,29.2887 382.626,28.2887 381,27.5C 380.055,27.9054 379.388,28.572 379,29.5C 377.647,28.2958 375.981,27.6292 374,27.5C 368.521,27.6562 363.854,29.6562 360,33.5C 359.586,33.0426 359.086,32.7093 358.5,32.5C 357.194,33.9122 356.36,35.5789 356,37.5C 355.333,36.1667 354.667,36.1667 354,37.5C 351.672,35.3502 350.339,32.6835 350,29.5C 349.667,29.8333 349.333,30.1667 349,30.5C 348.517,29.552 348.351,28.552 348.5,27.5C 342.158,27.3338 335.825,27.5005 329.5,28C 326.833,28.6667 326.833,29.3333 329.5,30C 328.044,30.4226 327.544,31.2559 328,32.5C 329.246,31.2283 330.413,30.895 331.5,31.5C 329.389,32.9488 327.056,33.9488 324.5,34.5C 323.002,32.1708 321.002,30.3375 318.5,29C 317.216,28.3162 316.049,28.4829 315,29.5C 314.833,29.1667 314.667,28.8333 314.5,28.5C 315.333,28.1667 316.167,27.8333 317,27.5C 318.446,28.0786 319.613,28.0786 320.5,27.5C 299.337,26.8333 278.337,26.1667 257.5,25.5 Z"/></g>
<g><path style="opacity:1" fill="#f7f3f2" d="M 614.5,28.5 C 616.332,29.1405 616.665,30.1405 615.5,31.5C 614.614,30.675 614.281,29.675 614.5,28.5 Z"/></g>
<g><path style="opacity:1" fill="#484b38" d="M 63.5,26.5 C 62.0216,28.3638 60.0216,29.6971 57.5,30.5C 55.0794,33.8957 52.7461,37.2291 50.5,40.5C 50.5,40.1667 50.5,39.8333 50.5,39.5C 52.0603,36.4361 53.3937,33.2695 54.5,30C 57.4844,28.7286 60.4844,27.562 63.5,26.5 Z"/></g>
<g><path style="opacity:1" fill="#a58158" d="M 605.5,21.5 C 607.861,22.4348 610.028,23.7682 612,25.5C 612.575,28.5295 613.741,31.1961 615.5,33.5C 613.026,36.2085 610.86,35.8752 609,32.5C 609.03,35.3615 608.197,37.6948 606.5,39.5C 605.85,37.5648 605.517,35.5648 605.5,33.5C 606.23,31.955 607.563,31.1216 609.5,31C 607.765,27.5245 606.431,24.3578 605.5,21.5 Z"/></g>
<g><path style="opacity:1" fill="#b7976b" d="M 42.5,33.5 C 43.5139,31.4261 44.5139,29.4261 45.5,27.5C 45.369,28.2389 45.5357,28.9056 46,29.5C 46.956,28.4214 47.7894,27.2547 48.5,26C 49.5,25.3333 50.5,25.3333 51.5,26C 48.3277,29.181 46.9944,33.0143 47.5,37.5C 46.5,37.5 45.5,37.5 44.5,37.5C 44.8432,35.5168 44.1765,34.1834 42.5,33.5 Z"/></g>
<g><path style="opacity:1" fill="#f2f3f2" d="M 624.5,34.5 C 625.833,35.1667 625.833,35.1667 624.5,34.5 Z"/></g>
<g><path style="opacity:1" fill="#f2f3f2" d="M 29.5,36.5 C 30.8333,37.1667 30.8333,37.1667 29.5,36.5 Z"/></g>
<g><path style="opacity:1" fill="#f2f3f2" d="M 627.5,36.5 C 628.833,37.1667 628.833,37.1667 627.5,36.5 Z"/></g>
<g><path style="opacity:1" fill="#f2f3f2" d="M 630.5,38.5 C 631.833,39.1667 631.833,39.1667 630.5,38.5 Z"/></g>
<g><path style="opacity:1" fill="#7d5d39" d="M 34.5,36.5 C 36.1003,37.252 37.6003,38.252 39,39.5C 42.7725,38.4829 46.6059,38.4829 50.5,39.5C 50.5,39.8333 50.5,40.1667 50.5,40.5C 45.7294,41.2247 41.0627,42.558 36.5,44.5C 28.4034,49.9287 22.0701,56.9287 17.5,65.5C 17.1667,65.5 16.8333,65.5 16.5,65.5C 16.5858,64.5041 16.2524,63.6708 15.5,63C 19.894,58.3598 23.394,53.1932 26,47.5C 26.4935,45.8659 26.6602,44.1992 26.5,42.5C 28.8003,40.016 31.4669,38.016 34.5,36.5 Z"/></g>
<g><path style="opacity:1" fill="#f5f3f2" d="M 22.5,45.5 C 21.7611,45.631 21.0944,45.4643 20.5,45C 21.4368,44.3083 22.1034,44.475 22.5,45.5 Z"/></g>
<g><path style="opacity:1" fill="#f9f3f2" d="M 642.5,50.5 C 643.833,51.1667 643.833,51.1667 642.5,50.5 Z"/></g>
<g><path style="opacity:1" fill="#d3ae77" d="M 583.5,23.5 C 584.241,27.172 585.407,30.8387 587,34.5C 595.361,37.6883 598.861,43.6883 597.5,52.5C 604.031,51.9885 610.364,52.8218 616.5,55C 630.783,65.05 638.783,78.8834 640.5,96.5C 641.557,112.897 637.557,127.897 628.5,141.5C 620.673,149.731 611.006,154.231 599.5,155C 599.041,160.584 596.708,165.251 592.5,169C 589.734,170.467 587.234,172.3 585,174.5C 585.053,177.675 584.22,180.342 582.5,182.5C 582.672,181.508 582.338,180.842 581.5,180.5C 581.5,180.167 581.5,179.833 581.5,179.5C 581.338,177.473 581.505,175.473 582,173.5C 586.148,170.076 590.148,166.409 594,162.5C 594.798,160.741 594.631,159.074 593.5,157.5C 588.833,161.167 584.167,164.833 579.5,168.5C 579.167,168.167 578.833,167.833 578.5,167.5C 581.761,161.404 586.261,156.404 592,152.5C 592.273,150.899 592.773,149.399 593.5,148C 594.167,147.833 594.833,147.667 595.5,147.5C 597.003,148.523 598.503,149.523 600,150.5C 605.317,147.683 609.483,143.683 612.5,138.5C 618.968,127.094 617.301,116.928 607.5,108C 605.922,106.906 604.255,106.072 602.5,105.5C 601.909,104.849 601.243,104.182 600.5,103.5C 604.476,101.19 607.809,98.1895 610.5,94.5C 617.916,86.0227 618.416,77.0227 612,67.5C 609.914,64.9061 607.414,62.9061 604.5,61.5C 601.053,59.4423 597.387,58.9423 593.5,60C 592.277,57.056 590.444,54.556 588,52.5C 587.333,51.8333 587.333,51.1667 588,50.5C 589.019,51.6872 590.186,52.6872 591.5,53.5C 594.544,48.0365 593.544,43.2032 588.5,39C 587.365,38.2506 586.365,38.4173 585.5,39.5C 586.981,40.4803 588.315,41.647 589.5,43C 589,43.1667 588.5,43.3333 588,43.5C 584.546,41.5263 581.379,39.193 578.5,36.5C 580.167,35.8333 581.833,35.1667 583.5,34.5C 582.067,31.667 581.4,28.667 581.5,25.5C 582.833,25.5 583.5,24.8333 583.5,23.5 Z"/></g>
<g><path style="opacity:1" fill="#785b36" d="M 615.5,33.5 C 619.874,33.8468 623.874,35.1801 627.5,37.5C 631.847,40.8483 635.514,44.8483 638.5,49.5C 640.232,52.9054 640.565,56.4054 639.5,60C 640.983,60.8485 642.316,62.5152 643.5,65C 642.584,65.2784 641.918,65.7784 641.5,66.5C 633.442,52.3979 621.775,43.3979 606.5,39.5C 608.197,37.6948 609.03,35.3615 609,32.5C 610.86,35.8752 613.026,36.2085 615.5,33.5 Z"/></g>
<g><path style="opacity:1" fill="#dcd0bb" d="M 14.5,57.5 C 14.573,59.0269 13.9063,60.0269 12.5,60.5C 12.427,58.9731 13.0937,57.9731 14.5,57.5 Z"/></g>
<g><path style="opacity:1" fill="#4c4933" d="M 36.5,44.5 C 29.7685,51.227 23.4351,58.227 17.5,65.5C 22.0701,56.9287 28.4034,49.9287 36.5,44.5 Z"/></g>
<g><path style="opacity:1" fill="#f2f3f2" d="M 653.5,72.5 C 654.833,73.1667 654.833,73.1667 653.5,72.5 Z"/></g>
<g><path style="opacity:1" fill="#484c38" d="M 16.5,65.5 C 16.8333,65.5 17.1667,65.5 17.5,65.5C 14.2887,75.7974 11.2887,86.1308 8.5,96.5C 8.74895,90.6713 9.74895,85.0046 11.5,79.5C 12.5778,76.5979 13.2444,73.5979 13.5,70.5C 14.7368,69.0351 15.7368,67.3684 16.5,65.5 Z"/></g>
<g><path style="opacity:1" fill="#5b715f" d="M 619.5,128.5 C 620.29,127.391 620.79,126.058 621,124.5C 623.09,125.791 624.424,125.124 625,122.5C 626.162,116.543 626.996,110.543 627.5,104.5C 628.303,103.577 628.47,102.577 628,101.5C 625.853,99.5239 623.353,98.1906 620.5,97.5C 616.934,99.2995 613.267,100.466 609.5,101C 621.42,89.5445 622.587,77.0445 613,63.5C 609.067,60.7825 604.9,58.4492 600.5,56.5C 612.281,55.6414 621.448,60.3081 628,70.5C 640.936,93.0489 640.603,115.382 627,137.5C 621.175,144.99 613.675,149.156 604.5,150C 613.086,145.326 618.086,138.159 619.5,128.5 Z"/></g>
<g><path style="opacity:1" fill="#aa9784" d="M 652.5,74.5 C 654.483,77.7994 655.483,81.4661 655.5,85.5C 653.926,82.0935 652.926,78.4268 652.5,74.5 Z"/></g>
<g><path style="opacity:1" fill="#748976" d="M 26.5,70.5 C 21.727,78.1491 18.727,86.4824 17.5,95.5C 16.6744,92.9856 16.5078,90.319 17,87.5C 13.0088,90.4793 12.3422,94.146 15,98.5C 15.3333,97.8333 15.6667,97.1667 16,96.5C 16.6667,100.167 16.6667,103.833 16,107.5C 15.6667,105.833 15.3333,104.167 15,102.5C 14.5776,104.426 13.4109,105.426 11.5,105.5C 11.0928,91.6448 14.0928,78.6448 20.5,66.5C 21.1667,66.1667 21.8333,65.8333 22.5,65.5C 24.3726,65.4823 24.7059,65.9823 23.5,67C 24.8141,67.985 25.8141,69.1516 26.5,70.5 Z"/></g>
<g><path style="opacity:1" fill="#eae4cf" d="M 187.5,74.5 C 191.704,75.8418 195.537,77.8418 199,80.5C 200.328,85.3376 198.494,87.671 193.5,87.5C 192.294,82.7566 190.294,78.4232 187.5,74.5 Z"/></g>
<g><path style="opacity:1" fill="#ede8d6" d="M 380.5,70.5 C 383.467,70.9886 386.133,72.1552 388.5,74C 386.686,76.4815 386.02,79.3148 386.5,82.5C 390.273,83.1776 393.106,81.8442 395,78.5C 397.308,79.6411 399.141,81.3078 400.5,83.5C 395.833,84.1667 391.167,84.8333 386.5,85.5C 391.091,90.8051 396.758,94.6384 403.5,97C 400.827,98.0014 398.493,99.5014 396.5,101.5C 392.622,98.085 389.455,94.085 387,89.5C 386.828,94.2018 386.328,98.8685 385.5,103.5C 384.5,104.167 383.5,104.833 382.5,105.5C 381.833,101.5 381.167,97.5 380.5,93.5C 376.47,98.1429 371.804,101.143 366.5,102.5C 372.288,98.3759 376.621,93.0425 379.5,86.5C 377.167,85.8333 374.833,85.1667 372.5,84.5C 375.428,83.5159 378.428,83.1826 381.5,83.5C 381.706,79.1018 381.373,74.7685 380.5,70.5 Z"/></g>
<g><path style="opacity:1" fill="#778973" d="M 604.5,61.5 C 607.414,62.9061 609.914,64.9061 612,67.5C 618.416,77.0227 617.916,86.0227 610.5,94.5C 608.9,89.3457 608.066,84.0124 608,78.5C 606.477,76.1697 605.977,73.8363 606.5,71.5C 604.981,68.8518 603.981,66.0185 603.5,63C 604.056,62.6174 604.389,62.1174 604.5,61.5 Z"/></g>
<g><path style="opacity:1" fill="#8a683f" d="M 638.5,49.5 C 644.97,56.7688 649.637,65.1021 652.5,74.5C 652.926,78.4268 653.926,82.0935 655.5,85.5C 656.434,86.5676 656.768,87.901 656.5,89.5C 656.666,97.5069 656.5,105.507 656,113.5C 655.667,112.5 655.333,111.5 655,110.5C 654.564,112.847 654.064,115.181 653.5,117.5C 654.51,120.813 654.51,124.146 653.5,127.5C 653.405,129.786 652.738,131.786 651.5,133.5C 650.325,133.281 649.325,133.614 648.5,134.5C 647.686,138.484 645.853,141.817 643,144.5C 642.506,146.134 642.34,147.801 642.5,149.5C 639.29,154.89 635.456,159.89 631,164.5C 628.931,166.085 626.764,167.419 624.5,168.5C 624.611,167.883 624.944,167.383 625.5,167C 621.82,164.439 617.82,164.106 613.5,166C 612.944,166.383 612.611,166.883 612.5,167.5C 611.533,166.194 610.199,165.527 608.5,165.5C 607.833,165.5 607.167,165.5 606.5,165.5C 609.887,164.712 613.22,163.712 616.5,162.5C 617.391,161.89 618.391,161.557 619.5,161.5C 617.946,162.895 618.279,163.561 620.5,163.5C 626.618,160.9 631.785,156.9 636,151.5C 650.266,132.768 655.6,111.768 652,88.5C 651.529,86.7536 650.862,85.087 650,83.5C 649.536,84.0944 649.369,84.7611 649.5,85.5C 647.152,79.125 644.485,72.7917 641.5,66.5C 641.918,65.7784 642.584,65.2784 643.5,65C 642.316,62.5152 640.983,60.8485 639.5,60C 640.565,56.4054 640.232,52.9054 638.5,49.5 Z"/></g>
<g><path style="opacity:1" fill="#6c826f" d="M 43.5,72.5 C 44.8275,73.1804 46.4941,73.1804 48.5,72.5C 49.8625,74.012 50.1958,75.512 49.5,77C 51.3373,79.1421 51.6706,81.3087 50.5,83.5C 51.2305,86.1092 51.7305,88.7759 52,91.5C 53.6398,93.579 54.8064,95.9124 55.5,98.5C 54.7573,99.1818 54.0906,99.8485 53.5,100.5C 42.7633,93.615 39.43,84.2817 43.5,72.5 Z"/></g>
<g><path style="opacity:1" fill="#f2f3f2" d="M 656.5,82.5 C 657.833,83.1667 657.833,83.1667 656.5,82.5 Z"/></g>
<g><path style="opacity:1" fill="#5e7563" d="M 48.5,145.5 C 50.1198,147.984 52.4531,149.484 55.5,150C 50.5521,150.74 45.8854,149.906 41.5,147.5C 24.959,133.4 18.1257,115.4 21,93.5C 23.7504,75.1005 33.5837,62.2672 50.5,55C 52.4727,54.5045 54.4727,54.3379 56.5,54.5C 56.719,55.675 56.3857,56.675 55.5,57.5C 43.2882,63.2483 37.7882,72.915 39,86.5C 41.1269,92.5842 44.6269,97.7508 49.5,102C 45.8506,100.44 42.0172,98.9404 38,97.5C 35.1089,98.5538 32.6089,100.22 30.5,102.5C 32.2466,105.251 34.58,107.251 37.5,108.5C 41.3175,106.408 45.3175,105.241 49.5,105C 37.8844,114.047 35.3844,125.213 42,138.5C 43.6657,141.331 45.8324,143.664 48.5,145.5 Z"/></g>
<g><path style="opacity:1" fill="#909a87" d="M 226.5,71.5 C 225.512,76.6405 225.179,81.9738 225.5,87.5C 222.833,87.5 220.167,87.5 217.5,87.5C 217.185,83.6286 217.518,79.9619 218.5,76.5C 218.5,79.8333 218.5,83.1667 218.5,86.5C 220.5,86.5 222.5,86.5 224.5,86.5C 224.172,81.1254 224.505,75.7921 225.5,70.5C 226.107,70.6236 226.44,70.9569 226.5,71.5 Z"/></g>
<g><path style="opacity:1" fill="#e9e4d2" d="M 356.5,72.5 C 359.004,71.3978 361.504,71.7312 364,73.5C 363.538,75.3478 363.038,77.3478 362.5,79.5C 363.222,84.5135 364.555,84.5135 366.5,79.5C 368.316,80.8149 369.983,82.3149 371.5,84C 368.722,85.3919 365.722,85.8919 362.5,85.5C 362.5,86.8333 362.5,88.1667 362.5,89.5C 366.286,89.3932 369.286,90.8932 371.5,94C 370.333,95.1667 369.167,96.3333 368,97.5C 366.257,95.6789 364.757,93.6789 363.5,91.5C 362.808,96.048 362.141,100.548 361.5,105C 360.5,105.5 359.5,106 358.5,106.5C 357.833,102.5 357.167,98.5 356.5,94.5C 352.391,99.5313 347.391,103.031 341.5,105C 347.248,99.9878 351.915,94.1545 355.5,87.5C 352.215,86.6764 348.882,86.1764 345.5,86C 345.043,85.586 344.709,85.086 344.5,84.5C 348.783,83.5078 353.116,83.1744 357.5,83.5C 357.815,79.6286 357.482,75.9619 356.5,72.5 Z"/></g>
<g><path style="opacity:1" fill="#959d86" d="M 440.5,81.5 C 442.948,80.5269 445.615,80.1936 448.5,80.5C 448.5,83.1667 448.5,85.8333 448.5,88.5C 445.5,88.5 442.5,88.5 439.5,88.5C 441.948,87.5269 444.615,87.1936 447.5,87.5C 447.5,85.5 447.5,83.5 447.5,81.5C 445.167,81.5 442.833,81.5 440.5,81.5 Z"/></g>
<g><path style="opacity:1" fill="#a3a995" d="M 204.5,89.5 C 207.167,89.5 209.833,89.5 212.5,89.5C 212.5,94.1667 212.5,98.8333 212.5,103.5C 208.958,103.187 205.625,103.521 202.5,104.5C 201.957,104.44 201.624,104.107 201.5,103.5C 204.768,102.513 208.102,102.18 211.5,102.5C 211.5,98.5 211.5,94.5 211.5,90.5C 208.941,90.8016 206.607,90.4682 204.5,89.5 Z"/></g>
<g><path style="opacity:1" fill="#ece6d3" d="M 284.5,72.5 C 288.702,73.8633 291.869,76.5299 294,80.5C 298.018,101.338 309.184,117.005 327.5,127.5C 322.581,128.51 318.248,130.344 314.5,133C 311.296,130.131 308.463,126.965 306,123.5C 301.942,115.321 298.275,106.988 295,98.5C 288.933,115.234 277.933,127.567 262,135.5C 266.155,130.334 270.822,125.334 276,120.5C 282.33,110.839 287.33,100.506 291,89.5C 292.183,85.7261 291.349,82.5594 288.5,80C 285.361,79.2457 282.361,78.2457 279.5,77C 281.66,76.0041 283.327,74.5041 284.5,72.5 Z"/></g>
<g><path style="opacity:1" fill="#e9e4d1" d="M 435.5,106.5 C 430.447,109.532 425.114,111.699 419.5,113C 428.803,107.027 436.803,99.6941 443.5,91C 437.448,90.2097 431.448,90.3764 425.5,91.5C 424.354,90.8551 423.354,90.0217 422.5,89C 428.157,88.5006 433.824,88.3339 439.5,88.5C 442.5,88.5 445.5,88.5 448.5,88.5C 448.5,85.8333 448.5,83.1667 448.5,80.5C 445.615,80.1936 442.948,80.5269 440.5,81.5C 437.482,81.6646 434.482,81.498 431.5,81C 438.444,78.847 445.444,76.847 452.5,75C 455.754,73.9731 458.754,72.4731 461.5,70.5C 464.712,72.3633 466.712,75.03 467.5,78.5C 462.713,78.3484 458.046,79.015 453.5,80.5C 454.374,82.7466 454.708,85.0799 454.5,87.5C 459.511,87.6659 464.511,87.4993 469.5,87C 471,85.5 472.5,84 474,82.5C 476.018,84.3501 477.851,86.3501 479.5,88.5C 471.5,89.1667 463.5,89.8333 455.5,90.5C 464.22,97.8596 474.22,102.526 485.5,104.5C 481.624,105.71 478.624,108.043 476.5,111.5C 467.675,107.511 460.508,101.511 455,93.5C 454.667,97.1667 454.333,100.833 454,104.5C 452.211,106.229 450.044,106.896 447.5,106.5C 447.817,103.428 447.484,100.428 446.5,97.5C 442.947,100.758 439.28,103.758 435.5,106.5 Z"/></g>
<g><path style="opacity:1" fill="#ac885e" d="M 26.5,42.5 C 26.6602,44.1992 26.4935,45.8659 26,47.5C 23.394,53.1932 19.894,58.3598 15.5,63C 16.2524,63.6708 16.5858,64.5041 16.5,65.5C 15.7368,67.3684 14.7368,69.0351 13.5,70.5C 10.8872,71.3919 10.2205,73.0586 11.5,75.5C 9.65629,79.8638 7.32295,83.8638 4.5,87.5C 3.72567,95.8052 3.22567,104.139 3,112.5C 2.66667,110.833 2.33333,109.167 2,107.5C 1.50204,110.482 1.33537,113.482 1.5,116.5C 0.833333,113.5 0.166667,110.5 -0.5,107.5C -0.5,105.5 -0.5,103.5 -0.5,101.5C 0.402009,86.7919 4.73534,73.1253 12.5,60.5C 13.9063,60.0269 14.573,59.0269 14.5,57.5C 16.7485,53.2458 19.4152,49.2458 22.5,45.5C 23.8333,44.5 25.1667,43.5 26.5,42.5 Z"/></g>
<g><path style="opacity:1" fill="#e0bb81" d="M 544.5,89.5 C 546.136,92.7726 547.803,96.1059 549.5,99.5C 552.673,101.283 556.006,102.783 559.5,104C 551.496,105.229 546.663,109.729 545,117.5C 543.901,114.136 542.401,110.97 540.5,108C 537.326,106.275 533.993,104.942 530.5,104C 538.757,102.577 543.424,97.744 544.5,89.5 Z"/></g>
<g><path style="opacity:1" fill="#dcb47b" d="M 73.5,25.5 C 74.1667,25.8333 74.8333,26.1667 75.5,26.5C 75.6837,30.0794 75.017,33.4127 73.5,36.5C 75.1992,36.3398 76.8659,36.5065 78.5,37C 75.628,39.5366 73.128,42.3699 71,45.5C 70.3698,43.0966 71.2031,41.2633 73.5,40C 65.3829,39.953 61.3829,44.1197 61.5,52.5C 63.5914,52.6816 65.5914,52.3482 67.5,51.5C 68.5827,52.365 68.7494,53.365 68,54.5C 65.3053,56.6944 62.472,58.6944 59.5,60.5C 58.7065,60.0688 57.8732,59.7355 57,59.5C 50.6885,61.9786 46.1885,66.312 43.5,72.5C 39.43,84.2817 42.7633,93.615 53.5,100.5C 54.6828,101.504 56.0161,102.338 57.5,103C 38.872,114.131 36.5387,127.965 50.5,144.5C 50.1583,145.338 49.4916,145.672 48.5,145.5C 45.8324,143.664 43.6657,141.331 42,138.5C 35.3844,125.213 37.8844,114.047 49.5,105C 45.3175,105.241 41.3175,106.408 37.5,108.5C 34.58,107.251 32.2466,105.251 30.5,102.5C 32.6089,100.22 35.1089,98.5538 38,97.5C 42.0172,98.9404 45.8506,100.44 49.5,102C 44.6269,97.7508 41.1269,92.5842 39,86.5C 37.7882,72.915 43.2882,63.2483 55.5,57.5C 56.3857,56.675 56.719,55.675 56.5,54.5C 54.4727,54.3379 52.4727,54.5045 50.5,55C 33.5837,62.2672 23.7504,75.1005 21,93.5C 18.1257,115.4 24.959,133.4 41.5,147.5C 40.6618,147.842 40.3284,148.508 40.5,149.5C 39.1667,148.833 37.8333,148.167 36.5,147.5C 21.5117,133.553 15.1784,116.219 17.5,95.5C 18.727,86.4824 21.727,78.1491 26.5,70.5C 33.7308,58.2489 44.3974,51.9156 58.5,51.5C 58.4569,43.3508 62.2902,37.6842 70,34.5C 71.2727,31.5107 72.4394,28.5107 73.5,25.5 Z"/></g>
<g><path style="opacity:1" fill="#8d693f" d="M 13.5,70.5 C 13.2444,73.5979 12.5778,76.5979 11.5,79.5C 8.50459,84.2996 6.17126,89.4663 4.5,95C 6.94496,99.1058 6.94496,103.272 4.5,107.5C 5.28628,111.549 6.28628,115.549 7.5,119.5C 6.31116,120.429 4.97782,120.762 3.5,120.5C 2.95526,116.828 2.62192,117.162 2.5,121.5C 1.54885,120.081 1.21552,118.415 1.5,116.5C 1.33537,113.482 1.50204,110.482 2,107.5C 2.33333,109.167 2.66667,110.833 3,112.5C 3.22567,104.139 3.72567,95.8052 4.5,87.5C 7.32295,83.8638 9.65629,79.8638 11.5,75.5C 10.2205,73.0586 10.8872,71.3919 13.5,70.5 Z"/></g>
<g><path style="opacity:1" fill="#ddb880" d="M 121.5,89.5 C 123.294,97.4585 128.294,102.292 136.5,104C 132.951,104.774 129.618,106.107 126.5,108C 124.599,110.97 123.099,114.136 122,117.5C 121.296,113.375 119.463,109.875 116.5,107C 112.98,106.327 109.647,105.16 106.5,103.5C 115.429,102.901 120.429,98.2346 121.5,89.5 Z"/></g>
<g><path style="opacity:1" fill="#c29662" d="M 619.5,161.5 C 628.963,156.039 635.963,148.372 640.5,138.5C 650.047,122.078 653.047,104.412 649.5,85.5C 649.369,84.7611 649.536,84.0944 650,83.5C 650.862,85.087 651.529,86.7536 652,88.5C 655.6,111.768 650.266,132.768 636,151.5C 631.785,156.9 626.618,160.9 620.5,163.5C 618.279,163.561 617.946,162.895 619.5,161.5 Z"/></g>
<g><path style="opacity:1" fill="#ece7d4" d="M 226.5,71.5 C 228.441,71.8693 230.275,72.536 232,73.5C 231.709,77.7738 231.543,82.1071 231.5,86.5C 233.685,86.1119 235.518,85.1119 237,83.5C 239.112,84.608 240.946,86.108 242.5,88C 239.042,89.4155 235.375,89.9155 231.5,89.5C 231.5,93.8333 231.5,98.1667 231.5,102.5C 232.873,102.657 234.207,102.49 235.5,102C 239.413,97.2309 242.747,97.7309 245.5,103.5C 240.88,104.493 236.214,104.827 231.5,104.5C 231.666,110.509 231.499,116.509 231,122.5C 229.649,124.019 228.149,125.352 226.5,126.5C 225.702,126.043 225.369,125.376 225.5,124.5C 225.5,117.833 225.5,111.167 225.5,104.5C 222.615,104.194 219.948,104.527 217.5,105.5C 215.834,114.022 211.167,120.522 203.5,125C 206.21,126.747 209.21,127.747 212.5,128C 224.175,128.272 235.842,128.272 247.5,128C 244.689,129.644 242.356,131.81 240.5,134.5C 223.854,138.546 209.02,135.212 196,124.5C 192.153,127.198 188.987,130.532 186.5,134.5C 184.219,132.606 183.052,130.272 183,127.5C 185.889,125.482 189.055,124.149 192.5,123.5C 193.492,116.018 193.825,108.352 193.5,100.5C 190.941,100.198 188.607,100.532 186.5,101.5C 184.91,101.372 183.577,100.705 182.5,99.5C 187.298,99.1901 191.631,97.8567 195.5,95.5C 197.337,96.8379 199.003,98.3379 200.5,100C 200.37,101.059 199.87,101.892 199,102.5C 198.169,109.524 198.336,116.524 199.5,123.5C 200.167,123.833 200.833,124.167 201.5,124.5C 207.715,119.74 211.048,113.406 211.5,105.5C 208.287,105.81 205.287,105.477 202.5,104.5C 205.625,103.521 208.958,103.187 212.5,103.5C 212.5,98.8333 212.5,94.1667 212.5,89.5C 209.833,89.5 207.167,89.5 204.5,89.5C 203.957,89.44 203.624,89.1067 203.5,88.5C 206.086,87.52 208.753,87.1866 211.5,87.5C 211.173,82.456 211.506,77.456 212.5,72.5C 214.541,73.2357 216.541,74.0691 218.5,75C 219.738,75.69 219.738,76.19 218.5,76.5C 217.518,79.9619 217.185,83.6286 217.5,87.5C 220.167,87.5 222.833,87.5 225.5,87.5C 225.179,81.9738 225.512,76.6405 226.5,71.5 Z"/></g>
<g><path style="opacity:1" fill="#879380" d="M 217.5,105.5 C 219.948,104.527 222.615,104.194 225.5,104.5C 225.5,111.167 225.5,117.833 225.5,124.5C 224.51,118.355 224.177,112.022 224.5,105.5C 222.167,105.5 219.833,105.5 217.5,105.5 Z"/></g>
<g><path style="opacity:1" fill="#566b5a" d="M 217.5,89.5 C 220.167,89.5 222.833,89.5 225.5,89.5C 225.5,93.8333 225.5,98.1667 225.5,102.5C 222.833,102.5 220.167,102.5 217.5,102.5C 217.5,98.1667 217.5,93.8333 217.5,89.5 Z"/></g>
<g><path style="opacity:1" fill="#eae7d6" d="M 378.5,118.5 C 381.146,114.557 383.813,110.557 386.5,106.5C 388.193,108.027 390.027,109.36 392,110.5C 392.617,111.449 392.451,112.282 391.5,113C 387.145,114.846 382.812,116.679 378.5,118.5 Z"/></g>
<g><path style="opacity:1" fill="#6d816d" d="M 602.5,105.5 C 604.255,106.072 605.922,106.906 607.5,108C 617.301,116.928 618.968,127.094 612.5,138.5C 611.663,138.389 610.663,138.056 609.5,137.5C 608.573,135.887 607.739,134.221 607,132.5C 606.809,126.917 606.309,121.417 605.5,116C 605.957,115.586 606.291,115.086 606.5,114.5C 604.31,112.144 602.31,109.644 600.5,107C 601.044,106.283 601.711,105.783 602.5,105.5 Z"/></g>
<g><path style="opacity:1" fill="#b8bba7" d="M 186.5,101.5 C 188.607,100.532 190.941,100.198 193.5,100.5C 193.825,108.352 193.492,116.018 192.5,123.5C 192.5,116.167 192.5,108.833 192.5,101.5C 190.5,101.5 188.5,101.5 186.5,101.5 Z"/></g>
<g><path style="opacity:1" fill="#9fa895" d="M 435.5,106.5 C 436.492,106.328 437.158,106.662 437.5,107.5C 436.833,115.833 436.167,124.167 435.5,132.5C 435.5,123.833 435.5,115.167 435.5,106.5 Z"/></g>
<g><path style="opacity:1" fill="#b29370" d="M 656.5,89.5 C 657.657,97.6563 657.823,105.99 657,114.5C 656.638,119.187 655.471,123.52 653.5,127.5C 654.51,124.146 654.51,120.813 653.5,117.5C 654.064,115.181 654.564,112.847 655,110.5C 655.333,111.5 655.667,112.5 656,113.5C 656.5,105.507 656.666,97.5069 656.5,89.5 Z"/></g>
<g><path style="opacity:1" fill="#eae2ce" d="M 358.5,108.5 C 360.484,108.484 361.484,109.484 361.5,111.5C 361.061,114.879 360.061,118.045 358.5,121C 355.178,123.399 353.178,122.565 352.5,118.5C 355.532,115.766 357.532,112.432 358.5,108.5 Z"/></g>
<g><path style="opacity:1" fill="#ebe6d5" d="M 435.5,132.5 C 436.167,124.167 436.833,115.833 437.5,107.5C 444.618,109.508 451.951,110.008 459.5,109C 462.989,104.68 466.323,105.013 469.5,110C 469,110.5 468.5,111 468,111.5C 467.667,119.167 467.333,126.833 467,134.5C 465.103,136.016 462.936,136.683 460.5,136.5C 460.5,134.833 460.5,133.167 460.5,131.5C 454.5,131.5 448.5,131.5 442.5,131.5C 441.91,135.316 439.577,136.983 435.5,136.5C 435.5,135.167 435.5,133.833 435.5,132.5 Z"/></g>
<g><path style="opacity:1" fill="#aeb5a4" d="M 442.5,111.5 C 442.5,113.833 442.5,116.167 442.5,118.5C 445.167,118.5 447.833,118.5 450.5,118.5C 447.713,119.477 444.713,119.81 441.5,119.5C 441.194,116.615 441.527,113.948 442.5,111.5 Z"/></g>
<g><path style="opacity:1" fill="#566f5d" d="M 442.5,111.5 C 448.5,111.5 454.5,111.5 460.5,111.5C 460.5,113.833 460.5,116.167 460.5,118.5C 456.965,117.988 453.632,117.988 450.5,118.5C 447.833,118.5 445.167,118.5 442.5,118.5C 442.5,116.167 442.5,113.833 442.5,111.5 Z"/></g>
<g><path style="opacity:1" fill="#f2f3f2" d="M 656.5,121.5 C 657.833,122.167 657.833,122.167 656.5,121.5 Z"/></g>
<g><path style="opacity:1" fill="#f5f3f2" d="M -0.5,122.5 C 1.98452,123.26 1.98452,124.26 -0.5,125.5C -0.5,124.5 -0.5,123.5 -0.5,122.5 Z"/></g>
<g><path style="opacity:1" fill="#566b5c" d="M 460.5,120.5 C 460.5,123.167 460.5,125.833 460.5,128.5C 454.5,128.5 448.5,128.5 442.5,128.5C 442.5,126.167 442.5,123.833 442.5,121.5C 448.31,120.51 454.31,120.177 460.5,120.5 Z"/></g>
<g><path style="opacity:1" fill="#6c806b" d="M 627.5,104.5 C 626.996,110.543 626.162,116.543 625,122.5C 624.424,125.124 623.09,125.791 621,124.5C 620.79,126.058 620.29,127.391 619.5,128.5C 620.15,118.967 616.817,111.134 609.5,105C 613.151,105.393 616.651,106.56 620,108.5C 622.749,107.543 625.249,106.21 627.5,104.5 Z"/></g>
<g><path style="opacity:1" fill="#919885" d="M 460.5,120.5 C 461.477,123.287 461.81,126.287 461.5,129.5C 454.833,129.5 448.167,129.5 441.5,129.5C 441.194,126.615 441.527,123.948 442.5,121.5C 442.5,123.833 442.5,126.167 442.5,128.5C 448.5,128.5 454.5,128.5 460.5,128.5C 460.5,125.833 460.5,123.167 460.5,120.5 Z"/></g>
<g><path style="opacity:1" fill="#ebe6d3" d="M 378.5,118.5 C 380.799,122.173 384.133,124.673 388.5,126C 393.495,127.564 398.495,129.064 403.5,130.5C 399.871,131.314 396.871,133.148 394.5,136C 390.798,135.824 387.465,134.49 384.5,132C 379.803,127.422 375.969,122.256 373,116.5C 369.459,125.706 362.959,131.872 353.5,135C 350.373,135.392 347.373,136.225 344.5,137.5C 344.167,137.167 343.833,136.833 343.5,136.5C 356.257,132.578 364.423,124.244 368,111.5C 366.461,102.77 369.295,101.27 376.5,107C 373.734,111.346 374.401,115.18 378.5,118.5 Z"/></g>
<g><path style="opacity:1" fill="#677b67" d="M 640.5,96.5 C 641.326,100.982 641.826,105.649 642,110.5C 642.333,109.833 642.667,109.167 643,108.5C 643.667,109.833 644.333,109.833 645,108.5C 645.923,110.034 646.423,111.701 646.5,113.5C 645.004,121.984 643.004,130.317 640.5,138.5C 635.963,148.372 628.963,156.039 619.5,161.5C 618.391,161.557 617.391,161.89 616.5,162.5C 615.127,162.657 613.793,162.49 612.5,162C 612.13,160.39 612.797,158.89 614.5,157.5C 614.291,156.914 613.957,156.414 613.5,156C 615,155.167 616.167,154 617,152.5C 617.333,152.833 617.667,153.167 618,153.5C 622.046,149.956 625.546,145.956 628.5,141.5C 637.557,127.897 641.557,112.897 640.5,96.5 Z"/></g>
<g><path style="opacity:1" fill="#f2f3f2" d="M 4.5,132.5 C 4.36055,134.337 3.69388,134.67 2.5,133.5C 2.95689,132.702 3.62356,132.369 4.5,132.5 Z"/></g>
<g><path style="opacity:1" fill="#b19069" d="M 651.5,133.5 C 650.03,139.782 647.03,145.115 642.5,149.5C 642.34,147.801 642.506,146.134 643,144.5C 645.853,141.817 647.686,138.484 648.5,134.5C 649.325,133.614 650.325,133.281 651.5,133.5 Z"/></g>
<g><path style="opacity:1" fill="#f2f3f2" d="M 5.5,140.5 C 6.83333,141.167 6.83333,141.167 5.5,140.5 Z"/></g>
<g><path style="opacity:1" fill="#ebe9e4" d="M 10.5,143.5 C 11.6737,144.514 12.3404,145.847 12.5,147.5C 11.1266,147.657 9.79323,147.49 8.5,147C 9.82277,146.184 10.4894,145.017 10.5,143.5 Z"/></g>
<g><path style="opacity:1" fill="#7e8f7c" d="M 17.5,95.5 C 15.1784,116.219 21.5117,133.553 36.5,147.5C 36.0618,147.435 35.7284,147.601 35.5,148C 39.1165,151.189 38.2832,153.356 33,154.5C 29.1022,152.941 26.1022,150.274 24,146.5C 21.0117,140.173 18.0117,133.84 15,127.5C 12.6662,120.339 11.4995,113.005 11.5,105.5C 13.4109,105.426 14.5776,104.426 15,102.5C 15.3333,104.167 15.6667,105.833 16,107.5C 16.6667,103.833 16.6667,100.167 16,96.5C 15.6667,97.1667 15.3333,97.8333 15,98.5C 12.3422,94.146 13.0088,90.4793 17,87.5C 16.5078,90.319 16.6744,92.9856 17.5,95.5 Z"/></g>
<g><path style="opacity:1" fill="#f2f3f2" d="M 13.5,150.5 C 12.9232,151.773 12.2565,151.773 11.5,150.5C 11.9698,149.537 12.6365,149.537 13.5,150.5 Z"/></g>
<g><path style="opacity:1" fill="#cca970" d="M 50.5,144.5 C 52.8019,146.656 55.4685,148.323 58.5,149.5C 59.6199,148.167 60.9532,147.667 62.5,148C 64.8796,154.05 69.0463,158.55 75,161.5C 76.0086,163.025 76.5086,164.692 76.5,166.5C 75.448,166.649 74.448,166.483 73.5,166C 70.5469,162.21 66.8803,159.377 62.5,157.5C 62.1667,158 61.8333,158.5 61.5,159C 63.6765,163.675 67.0099,167.175 71.5,169.5C 70.5,169.833 69.8333,170.5 69.5,171.5C 61.4924,168.147 57.4924,162.147 57.5,153.5C 51.1997,154.319 45.533,152.985 40.5,149.5C 40.3284,148.508 40.6618,147.842 41.5,147.5C 45.8854,149.906 50.5521,150.74 55.5,150C 52.4531,149.484 50.1198,147.984 48.5,145.5C 49.4916,145.672 50.1583,145.338 50.5,144.5 Z"/></g>
<g><path style="opacity:1" fill="#f2f3f2" d="M 16.5,154.5 C 16.1034,155.525 15.4368,155.692 14.5,155C 15.0944,154.536 15.7611,154.369 16.5,154.5 Z"/></g>
<g><path style="opacity:1" fill="#7a5d3a" d="M 11.5,79.5 C 9.74895,85.0046 8.74895,90.6713 8.5,96.5C 6.05137,122.908 15.0514,144.242 35.5,160.5C 34.7177,162.451 33.3844,163.951 31.5,165C 35.0272,168.761 39.3605,170.261 44.5,169.5C 44.5,170.5 44.5,171.5 44.5,172.5C 44.5,173.833 44.5,175.167 44.5,176.5C 44.1667,176.5 43.8333,176.5 43.5,176.5C 43.5,175.167 43.5,173.833 43.5,172.5C 42.1667,172.5 40.8333,172.5 39.5,172.5C 36.6047,171.201 33.938,169.535 31.5,167.5C 31.0269,166.094 30.0269,165.427 28.5,165.5C 28.1667,165.5 27.8333,165.5 27.5,165.5C 27.1583,164.662 26.4916,164.328 25.5,164.5C 22.9758,160.821 19.9758,157.488 16.5,154.5C 16.2624,152.596 15.2624,151.262 13.5,150.5C 13.4431,149.391 13.1098,148.391 12.5,147.5C 12.3404,145.847 11.6737,144.514 10.5,143.5C 8.23146,139.962 6.23146,136.295 4.5,132.5C 3.41723,128.915 2.75056,125.249 2.5,121.5C 2.62192,117.162 2.95526,116.828 3.5,120.5C 4.97782,120.762 6.31116,120.429 7.5,119.5C 6.28628,115.549 5.28628,111.549 4.5,107.5C 6.94496,103.272 6.94496,99.1058 4.5,95C 6.17126,89.4663 8.50459,84.2996 11.5,79.5 Z"/></g>
<g><path style="opacity:1" fill="#f2f3f2" d="M 17.5,158.5 C 18.8333,159.167 18.8333,159.167 17.5,158.5 Z"/></g>
<g><path style="opacity:1" fill="#566a5c" d="M 89.5,149.5 C 92.0286,151.265 94.3619,153.265 96.5,155.5C 98.1151,154.846 99.7818,154.346 101.5,154C 101.167,153.667 100.833,153.333 100.5,153C 103.544,152.641 103.878,151.974 101.5,151C 102,150.833 102.5,150.667 103,150.5C 104.171,151.34 105.338,152.173 106.5,153C 105.167,153.333 103.833,153.667 102.5,154C 103.167,154.333 103.833,154.667 104.5,155C 103.044,155.423 102.544,156.256 103,157.5C 104.493,155.652 106.326,154.819 108.5,155C 106.099,155.805 106.266,156.638 109,157.5C 109.414,157.043 109.914,156.709 110.5,156.5C 113.338,160.155 116.172,163.155 119,165.5C 120,163.833 121,162.167 122,160.5C 122.85,161.424 123.85,161.424 125,160.5C 127.799,161.237 127.966,162.07 125.5,163C 126.167,163.333 126.833,163.667 127.5,164C 126.549,164.718 126.383,165.551 127,166.5C 127.667,165.167 128.333,165.167 129,166.5C 129.53,163.673 130.53,160.673 132,157.5C 132.419,158.672 133.085,159.672 134,160.5C 135.594,159.284 137.094,157.951 138.5,156.5C 141.559,159.162 144.059,158.829 146,155.5C 146.333,156.167 146.667,156.833 147,157.5C 148.785,156.76 150.618,156.093 152.5,155.5C 153.724,156.766 155.057,157.933 156.5,159C 154.122,159.974 154.456,160.641 157.5,161C 155.431,161.324 155.098,162.158 156.5,163.5C 155.167,166.167 153.833,166.167 152.5,163.5C 153.167,163.167 153.833,162.833 154.5,162.5C 153.715,159.858 152.048,158.691 149.5,159C 150.167,159.667 150.833,160.333 151.5,161C 149.797,161.745 148.13,162.579 146.5,163.5C 143.149,163.012 142.816,161.845 145.5,160C 144.552,159.517 143.552,159.351 142.5,159.5C 142.502,161.831 141.669,163.831 140,165.5C 139.667,164.833 139.333,164.167 139,163.5C 138.552,165.224 137.718,165.891 136.5,165.5C 137.641,166.425 137.641,167.259 136.5,168C 138.301,168.317 138.634,168.984 137.5,170C 138.938,170.219 140.271,170.719 141.5,171.5C 140.067,171.675 138.4,172.342 136.5,173.5C 134.803,172.636 133.637,171.303 133,169.5C 131.823,171.176 130.323,172.509 128.5,173.5C 125.338,170.32 122.505,170.32 120,173.5C 117.333,172.167 115.333,172.833 114,175.5C 113.586,175.043 113.086,174.709 112.5,174.5C 111.387,176.031 109.887,177.031 108,177.5C 105.883,176.623 103.716,176.456 101.5,177C 103.991,176.374 103.991,175.541 101.5,174.5C 102.025,173.808 102.692,173.308 103.5,173C 101.714,171.707 100.047,171.207 98.5,171.5C 100.197,170.636 101.363,169.303 102,167.5C 103.709,170.712 105.209,170.878 106.5,168C 105.5,167.667 104.5,167.333 103.5,167C 105.5,165.333 107.5,163.667 109.5,162C 107.532,160.456 105.365,159.289 103,158.5C 100.904,159.715 101.071,160.549 103.5,161C 102.252,162.959 100.585,164.459 98.5,165.5C 96.8888,164.68 96.2222,163.346 96.5,161.5C 94.4348,160.555 92.6014,159.888 91,159.5C 88.8709,156.307 88.3709,152.973 89.5,149.5 Z"/></g>
<g><path style="opacity:1" fill="#f2f3f2" d="M 25.5,164.5 C 25.1034,165.525 24.4368,165.692 23.5,165C 24.0944,164.536 24.7611,164.369 25.5,164.5 Z"/></g>
<g><path style="opacity:1" fill="#f2f3f2" d="M 27.5,165.5 C 27.631,166.239 27.4643,166.906 27,167.5C 26.3083,166.563 26.475,165.897 27.5,165.5 Z"/></g>
<g><path style="opacity:1" fill="#785a3a" d="M 624.5,168.5 C 622.574,170.293 620.241,171.293 617.5,171.5C 616.167,171.5 614.833,171.5 613.5,171.5C 613.768,169.901 613.434,168.568 612.5,167.5C 612.611,166.883 612.944,166.383 613.5,166C 617.82,164.106 621.82,164.439 625.5,167C 624.944,167.383 624.611,167.883 624.5,168.5 Z"/></g>
<g><path style="opacity:1" fill="#ac9e92" d="M 28.5,165.5 C 30.0269,165.427 31.0269,166.094 31.5,167.5C 29.9731,167.573 28.9731,166.906 28.5,165.5 Z"/></g>
<g><path style="opacity:1" fill="#f2f3f2" d="M 29.5,168.5 C 30.8333,169.167 30.8333,169.167 29.5,168.5 Z"/></g>
<g><path style="opacity:1" fill="#ae8a59" d="M 44.5,172.5 C 44.5,171.5 44.5,170.5 44.5,169.5C 44.4501,167.41 45.4501,166.077 47.5,165.5C 48.7661,168.759 49.2661,172.093 49,175.5C 47.3853,174.614 45.8853,173.614 44.5,172.5 Z"/></g>
<g><path style="opacity:1" fill="#f2f3f2" d="M 39.5,172.5 C 38.8333,173.167 38.8333,173.167 39.5,172.5 Z"/></g>
<g><path style="opacity:1" fill="#f2f3f2" d="M 617.5,172.5 C 618.833,173.167 618.833,173.167 617.5,172.5 Z"/></g>
<g><path style="opacity:1" fill="#f7f3f2" d="M 43.5,176.5 C 43.44,177.043 43.1067,177.376 42.5,177.5C 41.3861,176.277 41.2195,174.944 42,173.5C 42.2321,174.737 42.7321,175.737 43.5,176.5 Z"/></g>
<g><path style="opacity:1" fill="#f5f3f2" d="M 613.5,174.5 C 613.5,174.167 613.5,173.833 613.5,173.5C 614.5,173.5 615.5,173.5 616.5,173.5C 615.985,178.086 614.985,178.419 613.5,174.5 Z"/></g>
<g><path style="opacity:1" fill="#908966" d="M 75.5,173.5 C 76.4614,175.265 76.7947,177.265 76.5,179.5C 78.5273,179.662 80.5273,179.495 82.5,179C 82.0426,178.586 81.7093,178.086 81.5,177.5C 85.5904,176.32 89.5904,176.654 93.5,178.5C 256.165,179.5 418.832,179.833 581.5,179.5C 581.5,179.833 581.5,180.167 581.5,180.5C 412.93,180.167 244.43,180.501 76,181.5C 75.5026,178.854 75.3359,176.187 75.5,173.5 Z"/></g>
<g><path style="opacity:1" fill="#ecc381" d="M 71.5,169.5 C 73.1667,170.5 74.5,171.833 75.5,173.5C 75.3359,176.187 75.5026,178.854 76,181.5C 244.43,180.501 412.93,180.167 581.5,180.5C 582.338,180.842 582.672,181.508 582.5,182.5C 517.833,182.5 453.167,182.5 388.5,182.5C 283.5,182.5 178.5,182.5 73.5,182.5C 74.0914,178.036 72.758,174.369 69.5,171.5C 69.8333,170.5 70.5,169.833 71.5,169.5 Z"/></g>
<g><path style="opacity:1" fill="#4a655c" d="M 388.5,183.5 C 320.488,184.178 252.322,184.845 184,185.5C 161.939,184.799 140.106,184.466 118.5,184.5C 195.827,183.493 285.827,183.16 388.5,183.5 Z"/></g>
<g><path style="opacity:1" fill="#f2f3f2" d="M 606.5,184.5 C 607.833,185.167 607.833,185.167 606.5,184.5 Z"/></g>
<g><path style="opacity:1" fill="#b69065" d="M 603.5,184.5 C 603.5,185.167 603.167,185.5 602.5,185.5C 601.662,185.842 601.328,186.508 601.5,187.5C 601.5,189.167 601.5,190.833 601.5,192.5C 600.833,193.167 600.167,193.833 599.5,194.5C 599.176,193.188 598.509,192.355 597.5,192C 598.367,188.895 598.701,185.728 598.5,182.5C 600.322,182.831 601.989,183.498 603.5,184.5 Z"/></g>
<g><path style="opacity:1" fill="#f9f3f2" d="M 53.5,186.5 C 54.8333,187.167 54.8333,187.167 53.5,186.5 Z"/></g>
<g><path style="opacity:1" fill="#f6f3f1" d="M 602.5,185.5 C 602.918,186.222 603.584,186.722 604.5,187C 603.773,188.399 603.273,189.899 603,191.5C 602.79,189.942 602.29,188.609 601.5,187.5C 601.328,186.508 601.662,185.842 602.5,185.5 Z"/></g>
<g><path style="opacity:1" fill="#556959" d="M 628.5,141.5 C 625.546,145.956 622.046,149.956 618,153.5C 617.667,153.167 617.333,152.833 617,152.5C 616.167,154 615,155.167 613.5,156C 613.957,156.414 614.291,156.914 614.5,157.5C 612.797,158.89 612.13,160.39 612.5,162C 613.793,162.49 615.127,162.657 616.5,162.5C 613.22,163.712 609.887,164.712 606.5,165.5C 606.702,167.989 606.202,170.323 605,172.5C 602.191,175.572 598.858,177.905 595,179.5C 594.255,184.002 593.088,188.335 591.5,192.5C 556.833,192.5 522.167,192.5 487.5,192.5C 483.833,192.5 480.167,192.5 476.5,192.5C 340.833,192.5 205.167,192.5 69.5,192.5C 68.209,192.737 67.209,192.404 66.5,191.5C 75.9321,192.122 85.0988,191.456 94,189.5C 94.3333,189.833 94.6667,190.167 95,190.5C 95.978,188.525 97.3113,186.858 99,185.5C 99.9454,185.905 100.612,186.572 101,187.5C 103.456,185.679 106.289,185.012 109.5,185.5C 109.281,186.675 109.614,187.675 110.5,188.5C 113.167,188.5 115.833,188.5 118.5,188.5C 118.124,187.315 118.124,185.982 118.5,184.5C 140.106,184.466 161.939,184.799 184,185.5C 252.322,184.845 320.488,184.178 388.5,183.5C 388.5,183.167 388.5,182.833 388.5,182.5C 453.167,182.5 517.833,182.5 582.5,182.5C 584.22,180.342 585.053,177.675 585,174.5C 587.234,172.3 589.734,170.467 592.5,169C 596.708,165.251 599.041,160.584 599.5,155C 611.006,154.231 620.673,149.731 628.5,141.5 Z"/></g>
<g><path style="opacity:1" fill="#f2f3f2" d="M 54.5,190.5 C 55.525,190.897 55.6917,191.563 55,192.5C 54.5357,191.906 54.369,191.239 54.5,190.5 Z"/></g>
<g><path style="opacity:1" fill="#af8d61" d="M 58.5,195.5 C 57.0687,194.22 56.4021,192.553 56.5,190.5C 57.8946,192.054 58.5613,191.721 58.5,189.5C 57.8479,178.844 58.5145,178.844 60.5,189.5C 59.7957,191.535 59.129,193.535 58.5,195.5 Z"/></g>
<g><path style="opacity:1" fill="#cea269" d="M 606.5,165.5 C 607.167,165.5 607.833,165.5 608.5,165.5C 608.85,169.054 608.184,172.388 606.5,175.5C 603.754,177.623 600.921,179.623 598,181.5C 597.125,184.883 596.125,188.216 595,191.5C 593.959,193.311 592.793,193.645 591.5,192.5C 593.088,188.335 594.255,184.002 595,179.5C 598.858,177.905 602.191,175.572 605,172.5C 606.202,170.323 606.702,167.989 606.5,165.5 Z"/></g>
<g><path style="opacity:1" fill="#f2f3f2" d="M 601.5,192.5 C 602.833,193.167 602.833,193.167 601.5,192.5 Z"/></g>
<g><path style="opacity:1" fill="#ad824e" d="M 69.5,193.5 C 114.838,193.167 160.172,193.5 205.5,194.5C 165.172,195.5 124.839,195.833 84.5,195.5C 79.1563,195.666 73.8229,195.499 68.5,195C 67.2881,193.893 67.6214,193.393 69.5,193.5 Z"/></g>
<g><path style="opacity:1" fill="#997445" d="M 69.5,193.5 C 69.5,193.167 69.5,192.833 69.5,192.5C 205.167,192.5 340.833,192.5 476.5,192.5C 407.335,193.333 338.001,193.833 268.5,194C 285.477,195.075 302.477,195.575 319.5,195.5C 377.227,195.632 434.56,195.298 491.5,194.5C 496.656,195.068 501.656,195.735 506.5,196.5C 365.666,196.833 224.999,196.5 84.5,195.5C 124.839,195.833 165.172,195.5 205.5,194.5C 160.172,193.5 114.838,193.167 69.5,193.5 Z"/></g>
<g><path style="opacity:1" fill="#a27b48" d="M 476.5,192.5 C 480.167,192.5 483.833,192.5 487.5,192.5C 505.329,193.332 523.329,193.832 541.5,194C 541.833,194.333 542.167,194.667 542.5,195C 533.99,195.171 525.657,195.671 517.5,196.5C 513.833,196.5 510.167,196.5 506.5,196.5C 501.656,195.735 496.656,195.068 491.5,194.5C 434.56,195.298 377.227,195.632 319.5,195.5C 302.477,195.575 285.477,195.075 268.5,194C 338.001,193.833 407.335,193.333 476.5,192.5 Z"/></g>
<g><path style="opacity:1" fill="#946f43" d="M 608.5,165.5 C 610.199,165.527 611.533,166.194 612.5,167.5C 613.434,168.568 613.768,169.901 613.5,171.5C 614.833,171.5 616.167,171.5 617.5,171.5C 617.5,171.833 617.5,172.167 617.5,172.5C 615.901,172.232 614.568,172.566 613.5,173.5C 613.5,173.833 613.5,174.167 613.5,174.5C 612.537,180.13 609.204,183.463 603.5,184.5C 601.989,183.498 600.322,182.831 598.5,182.5C 598.701,185.728 598.367,188.895 597.5,192C 598.509,192.355 599.176,193.188 599.5,194.5C 599.5,195.167 599.5,195.833 599.5,196.5C 598.5,197.167 597.5,197.833 596.5,198.5C 596.116,195.95 594.616,194.617 592,194.5C 567.252,196.451 542.419,197.118 517.5,196.5C 525.657,195.671 533.99,195.171 542.5,195C 542.167,194.667 541.833,194.333 541.5,194C 523.329,193.832 505.329,193.332 487.5,192.5C 522.167,192.5 556.833,192.5 591.5,192.5C 592.793,193.645 593.959,193.311 595,191.5C 596.125,188.216 597.125,184.883 598,181.5C 600.921,179.623 603.754,177.623 606.5,175.5C 608.184,172.388 608.85,169.054 608.5,165.5 Z"/></g>
<g><path style="opacity:1" fill="#f2f3f2" d="M 599.5,196.5 C 600.833,197.167 600.833,197.167 599.5,196.5 Z"/></g>
<g><path style="opacity:1" fill="#7c5930" d="M 35.5,160.5 C 38.2622,161.38 40.9289,162.546 43.5,164C 45.8098,164.497 48.1432,164.663 50.5,164.5C 50.523,166.927 51.023,169.26 52,171.5C 54.7541,174.924 58.0874,177.591 62,179.5C 63.1268,182.377 63.7935,185.377 64,188.5C 64.3768,189.942 65.2101,190.942 66.5,191.5C 67.209,192.404 68.209,192.737 69.5,192.5C 69.5,192.833 69.5,193.167 69.5,193.5C 67.6214,193.393 67.2881,193.893 68.5,195C 73.8229,195.499 79.1563,195.666 84.5,195.5C 224.999,196.5 365.666,196.833 506.5,196.5C 510.167,196.5 513.833,196.5 517.5,196.5C 542.419,197.118 567.252,196.451 592,194.5C 594.616,194.617 596.116,195.95 596.5,198.5C 595.609,199.11 594.609,199.443 593.5,199.5C 416.833,199.5 240.167,199.5 63.5,199.5C 61.2512,198.92 59.5846,197.587 58.5,195.5C 59.129,193.535 59.7957,191.535 60.5,189.5C 58.5145,178.844 57.8479,178.844 58.5,189.5C 58.5613,191.721 57.8946,192.054 56.5,190.5C 55.8519,188.914 55.3519,187.247 55,185.5C 50.0548,184.046 46.5548,181.046 44.5,176.5C 44.5,175.167 44.5,173.833 44.5,172.5C 45.8853,173.614 47.3853,174.614 49,175.5C 49.2661,172.093 48.7661,168.759 47.5,165.5C 45.4501,166.077 44.4501,167.41 44.5,169.5C 39.3605,170.261 35.0272,168.761 31.5,165C 33.3844,163.951 34.7177,162.451 35.5,160.5 Z"/></g>
<g><path style="opacity:1" fill="#a89583" d="M 63.5,199.5 C 240.167,199.5 416.833,199.5 593.5,199.5C 590.305,200.236 586.971,200.903 583.5,201.5C 410.039,200.835 236.706,200.168 63.5,199.5 Z"/></g>
</svg>
