<?xml version="1.0" encoding="UTF-8"?>
<!DOCTYPE svg PUBLIC "-//W3C//DTD SVG 1.1//EN" "http://www.w3.org/Graphics/SVG/1.1/DTD/svg11.dtd">
<svg xmlns="http://www.w3.org/2000/svg" version="1.1" width="665px" height="225px" style="shape-rendering:geometricPrecision; text-rendering:geometricPrecision; image-rendering:optimizeQuality; fill-rule:evenodd; clip-rule:evenodd" xmlns:xlink="http://www.w3.org/1999/xlink">
<g><path style="opacity:1" fill="#f2f3f2" d="M 79.5,1.5 C 243.666,0.333841 407.999,0.167174 572.5,1C 408.167,1.5 243.834,1.66667 79.5,1.5 Z"/></g>
<g><path style="opacity:1" fill="#f2f3f2" d="M 596.5,1.5 C 598.628,0.370858 600.961,0.204191 603.5,1C 601.19,1.49665 598.857,1.66331 596.5,1.5 Z"/></g>
<g><path style="opacity:1" fill="#6f502b" d="M 76.5,3.5 C 241.5,3.33333 406.5,3.5 571.5,4C 567.833,4.33333 564.167,4.66667 560.5,5C 564.028,5.08898 567.362,5.75565 570.5,7C 562.197,6.71239 554.03,6.54572 546,6.5C 541.392,8.43505 536.559,8.93505 531.5,8C 534.167,7.66667 536.833,7.33333 539.5,7C 533.211,6.28075 527.378,5.78075 522,5.5C 519.236,6.02459 518.402,7.35792 519.5,9.5C 484.5,9.5 449.5,9.5 414.5,9.5C 424.992,8.66962 435.659,8.16962 446.5,8C 448.595,7.44437 448.762,6.94437 447,6.5C 353.754,7.08323 260.587,7.08323 167.5,6.5C 141.833,6.66667 116.167,6.83333 90.5,7C 87.905,7.22565 85.405,7.72565 83,8.5C 82.6667,7.83333 82.3333,7.16667 82,6.5C 81.0494,6.88361 80.2161,7.21694 79.5,7.5C 78.8333,7.5 78.1667,7.5 77.5,7.5C 76.3915,6.71003 75.0581,6.21003 73.5,6C 74.056,5.61742 74.3893,5.11742 74.5,4.5C 74.8417,3.66175 75.5084,3.32842 76.5,3.5 Z"/></g>
<g><path style="opacity:1" fill="#ac8c64" d="M 74.5,4.5 C 74.3893,5.11742 74.056,5.61742 73.5,6C 75.0581,6.21003 76.3915,6.71003 77.5,7.5C 72.5123,10.7903 69.5123,15.457 68.5,21.5C 67.8182,20.7573 67.1515,20.0906 66.5,19.5C 66.7339,15.2314 67.9006,11.2314 70,7.5C 71.129,5.85883 72.629,4.85883 74.5,4.5 Z"/></g>
<g><path style="opacity:1" fill="#9a7e5e" d="M 76.5,3.5 C 252.666,2.33381 429,2.16714 605.5,3C 608.983,3.98475 611.316,6.15141 612.5,9.5C 611.514,13.2669 612.014,16.9336 614,20.5C 614.671,19.7476 615.504,19.4142 616.5,19.5C 617.209,20.404 618.209,20.7373 619.5,20.5C 621.749,21.0798 623.415,22.4131 624.5,24.5C 623.54,25.2832 622.873,26.4498 622.5,28C 623.159,30.4621 623.493,32.9621 623.5,35.5C 624.5,35.5 625.5,35.5 626.5,35.5C 624.544,36.478 622.544,37.478 620.5,38.5C 620.628,36.3453 620.128,34.3453 619,32.5C 615.95,28.9297 612.45,26.263 608.5,24.5C 611.246,20.0944 610.746,15.761 607,11.5C 606.517,12.448 606.351,13.448 606.5,14.5C 605.833,13.8333 605.167,13.1667 604.5,12.5C 604.5,12.1667 604.5,11.8333 604.5,11.5C 604.389,10.8826 604.056,10.3826 603.5,10C 575.502,9.50002 547.502,9.33336 519.5,9.5C 518.402,7.35792 519.236,6.02459 522,5.5C 527.378,5.78075 533.211,6.28075 539.5,7C 536.833,7.33333 534.167,7.66667 531.5,8C 536.559,8.93505 541.392,8.43505 546,6.5C 554.03,6.54572 562.197,6.71239 570.5,7C 567.362,5.75565 564.028,5.08898 560.5,5C 564.167,4.66667 567.833,4.33333 571.5,4C 406.5,3.5 241.5,3.33333 76.5,3.5 Z"/></g>
<g><path style="opacity:1" fill="#806139" d="M 414.5,9.5 C 345.968,9.75954 277.468,9.4262 209,8.5C 165.237,9.46616 121.403,10.1328 77.5,10.5C 78.5511,9.77765 79.2178,8.77765 79.5,7.5C 80.2161,7.21694 81.0494,6.88361 82,6.5C 82.3333,7.16667 82.6667,7.83333 83,8.5C 85.405,7.72565 87.905,7.22565 90.5,7C 116.167,6.83333 141.833,6.66667 167.5,6.5C 260.587,7.08323 353.754,7.08323 447,6.5C 448.762,6.94437 448.595,7.44437 446.5,8C 435.659,8.16962 424.992,8.66962 414.5,9.5 Z"/></g>
<g><path style="opacity:1" fill="#614728" d="M 414.5,9.5 C 449.5,9.5 484.5,9.5 519.5,9.5C 547.502,9.33336 575.502,9.50002 603.5,10C 604.056,10.3826 604.389,10.8826 604.5,11.5C 428.5,11.5 252.5,11.5 76.5,11.5C 76.5,10.8333 76.8333,10.5 77.5,10.5C 121.403,10.1328 165.237,9.46616 209,8.5C 277.468,9.4262 345.968,9.75954 414.5,9.5 Z"/></g>
<g><path style="opacity:1" fill="#4c5744" d="M 76.5,11.5 C 252.5,11.5 428.5,11.5 604.5,11.5C 604.5,11.8333 604.5,12.1667 604.5,12.5C 429.166,12.3333 253.833,12.5 78.5,13C 76.7553,17.0034 75.2553,21.1701 74,25.5C 72.9887,26.3366 71.8221,26.67 70.5,26.5C 72.343,21.4868 74.343,16.4868 76.5,11.5 Z"/></g>
<g><path style="opacity:1" fill="#59705e" d="M 604.5,12.5 C 605.167,13.1667 605.833,13.8333 606.5,14.5C 607.257,17.7911 607.924,21.1244 608.5,24.5C 612.45,26.263 615.95,28.9297 619,32.5C 620.128,34.3453 620.628,36.3453 620.5,38.5C 630.283,41.7387 638.949,47.072 646.5,54.5C 652.567,62.6452 657.567,71.3118 661.5,80.5C 663.179,90.751 663.846,101.084 663.5,111.5C 662.85,113.435 662.517,115.435 662.5,117.5C 661.883,117.611 661.383,117.944 661,118.5C 660.727,116.899 660.227,115.399 659.5,114C 660.591,111.936 660.758,109.769 660,107.5C 657.944,106.417 656.611,104.75 656,102.5C 655.667,104.833 655.333,107.167 655,109.5C 654.827,103.984 654.327,98.6509 653.5,93.5C 650.852,75.6884 641.852,62.1884 626.5,53C 621.566,51.8399 616.566,51.3399 611.5,51.5C 612.45,42.7403 608.783,36.7403 600.5,33.5C 599.375,29.3057 598.042,25.3057 596.5,21.5C 513.638,19.5543 430.638,19.5543 347.5,21.5C 261.833,21.5 176.167,21.5 90.5,21.5C 88.2075,21.2436 86.0408,21.5769 84,22.5C 83.2023,25.8931 82.2023,29.2265 81,32.5C 73.045,35.9423 68.8783,41.9423 68.5,50.5C 64.038,50.423 59.7047,51.0897 55.5,52.5C 51.661,49.9586 47.3276,48.6253 42.5,48.5C 45.4949,46.5074 48.4949,44.5074 51.5,42.5C 54.8151,41.6712 58.1484,40.8379 61.5,40C 62.6771,35.142 65.0104,30.9753 68.5,27.5C 68.8417,26.6618 69.5084,26.3284 70.5,26.5C 71.8221,26.67 72.9887,26.3366 74,25.5C 75.2553,21.1701 76.7553,17.0034 78.5,13C 253.833,12.5 429.166,12.3333 604.5,12.5 Z"/></g>
<g><path style="opacity:1" fill="#cdae8b" d="M 612.5,9.5 C 614.01,12.6827 615.343,16.016 616.5,19.5C 615.504,19.4142 614.671,19.7476 614,20.5C 612.014,16.9336 611.514,13.2669 612.5,9.5 Z"/></g>
<g><path style="opacity:1" fill="#f9f3f2" d="M 62.5,17.5 C 63.8333,18.1667 63.8333,18.1667 62.5,17.5 Z"/></g>
<g><path style="opacity:1" fill="#e4dcda" d="M 619.5,20.5 C 618.209,20.7373 617.209,20.404 616.5,19.5C 617.496,19.5858 618.329,19.2524 619,18.5C 619.464,19.0944 619.631,19.7611 619.5,20.5 Z"/></g>
<g><path style="opacity:1" fill="#69755a" d="M 596.5,21.5 C 596.167,21.5 595.833,21.5 595.5,21.5C 512.833,21.5 430.167,21.5 347.5,21.5C 430.638,19.5543 513.638,19.5543 596.5,21.5 Z"/></g>
<g><path style="opacity:1" fill="#8e6a3f" d="M 77.5,7.5 C 78.1667,7.5 78.8333,7.5 79.5,7.5C 79.2178,8.77765 78.5511,9.77765 77.5,10.5C 76.8333,10.5 76.5,10.8333 76.5,11.5C 74.343,16.4868 72.343,21.4868 70.5,26.5C 69.5084,26.3284 68.8417,26.6618 68.5,27.5C 64.0475,29.297 61.3809,32.6303 60.5,37.5C 59.675,38.3857 58.675,38.719 57.5,38.5C 54.5,38.8333 53.1667,37.5 53.5,34.5C 51.3888,35.3799 49.3888,35.3799 47.5,34.5C 48.9303,33.4625 50.597,32.7959 52.5,32.5C 53.5,32.5 54.5,32.5 55.5,32.5C 55.3505,33.552 55.5172,34.552 56,35.5C 57.9019,33.1302 58.5686,30.4636 58,27.5C 57.0853,28.3279 56.4186,29.3279 56,30.5C 55.5172,29.552 55.3505,28.552 55.5,27.5C 55.5,26.8333 55.5,26.1667 55.5,25.5C 58.2052,21.8067 61.8719,19.8067 66.5,19.5C 67.1515,20.0906 67.8182,20.7573 68.5,21.5C 69.5123,15.457 72.5123,10.7903 77.5,7.5 Z"/></g>
<g><path style="opacity:1" fill="#e7b776" d="M 90.5,21.5 C 176.167,21.5 261.833,21.5 347.5,21.5C 430.167,21.5 512.833,21.5 595.5,21.5C 426.503,23.4987 257.17,24.1653 87.5,23.5C 88.5,22.8333 89.5,22.1667 90.5,21.5 Z"/></g>
<g><path style="opacity:1" fill="#be9560" d="M 608.5,24.5 C 607.924,21.1244 607.257,17.7911 606.5,14.5C 606.351,13.448 606.517,12.448 607,11.5C 610.746,15.761 611.246,20.0944 608.5,24.5 Z"/></g>
<g><path style="opacity:1" fill="#f2f3f2" d="M 55.5,25.5 C 54.8333,24.1667 54.8333,24.1667 55.5,25.5 Z"/></g>
<g><path style="opacity:1" fill="#f9f3f2" d="M 627.5,24.5 C 628.833,25.1667 628.833,25.1667 627.5,24.5 Z"/></g>
<g><path style="opacity:1" fill="#576f5d" d="M 86.5,24.5 C 88.1667,24.5 89.8333,24.5 91.5,24.5C 90.8262,26.0245 89.8262,27.3578 88.5,28.5C 94.1348,29.9485 99.4682,29.2818 104.5,26.5C 104.137,25.8165 103.804,25.1499 103.5,24.5C 252.167,24.5 400.833,24.5 549.5,24.5C 550.952,25.3019 552.618,25.8019 554.5,26C 553.747,27.487 552.914,27.6537 552,26.5C 551.383,27.4491 551.549,28.2825 552.5,29C 553.766,29.3095 554.933,29.8095 556,30.5C 556.333,29.8333 556.667,29.1667 557,28.5C 558.109,30.8147 559.943,32.3147 562.5,33C 560.299,33.7768 560.299,34.9435 562.5,36.5C 563.696,36.1543 563.696,35.6543 562.5,35C 565.512,34.2196 568.345,33.0529 571,31.5C 573.979,32.5144 576.646,31.8477 579,29.5C 579.333,30.1667 579.667,30.8333 580,31.5C 580.718,30.5494 581.551,30.3828 582.5,31C 584.292,33.7083 585.959,36.375 587.5,39C 586.086,43.6965 586.586,44.1965 589,40.5C 590.815,44.7958 593.148,48.7958 596,52.5C 596.718,51.5494 597.551,51.3828 598.5,52C 597.745,54.1331 596.412,55.7998 594.5,57C 596.833,58 598.5,59.6667 599.5,62C 602.765,61.0424 605.265,62.209 607,65.5C 608.764,63.7408 610.931,63.5742 613.5,65C 613.063,67.4494 613.063,69.7827 613.5,72C 614.328,72.9147 615.328,73.5814 616.5,74C 615.715,76.0417 616.048,78.0417 617.5,80C 615.772,81.7255 613.772,83.0589 611.5,84C 613.879,86.1483 616.045,85.9817 618,83.5C 617.333,85.8333 617.333,88.1667 618,90.5C 616.903,88.9474 615.57,87.614 614,86.5C 614.382,88.7711 615.549,90.7711 617.5,92.5C 619.016,91.1962 619.682,91.6962 619.5,94C 618.885,97.282 616.885,99.282 613.5,100C 614.416,100.278 615.082,100.778 615.5,101.5C 612.833,102.5 612.833,103.5 615.5,104.5C 616.858,107.874 618.191,111.207 619.5,114.5C 621.39,114.297 622.89,114.963 624,116.5C 624.429,119.488 625.595,122.155 627.5,124.5C 628.183,124.137 628.85,123.804 629.5,123.5C 630.156,134.525 625.822,142.858 616.5,148.5C 613.691,149.901 611.357,149.234 609.5,146.5C 607.017,148.117 605.517,150.45 605,153.5C 599.651,157.021 595.484,161.688 592.5,167.5C 592.624,168.107 592.957,168.44 593.5,168.5C 593.918,169.222 594.584,169.722 595.5,170C 592.926,170.202 590.759,171.035 589,172.5C 588.25,171.874 587.416,171.374 586.5,171C 589.675,170.88 591.175,169.38 591,166.5C 590.019,169.655 588.685,169.988 587,167.5C 585.667,168.167 584.667,169.167 584,170.5C 583.74,168.382 582.74,166.716 581,165.5C 579.249,166.174 577.583,166.507 576,166.5C 572.886,163.704 569.719,161.038 566.5,158.5C 567.355,157.707 568.189,158.04 569,159.5C 571.096,158.285 570.929,157.451 568.5,157C 569,156.5 569.5,156 570,155.5C 570.956,156.579 571.789,157.745 572.5,159C 575.148,159.099 577.648,159.265 580,159.5C 581.726,158.352 581.559,157.185 579.5,156C 580,155.5 580.5,155 581,154.5C 582.117,155.949 582.784,157.616 583,159.5C 583.089,156.151 584.256,155.651 586.5,158C 585.833,158.333 585.167,158.667 584.5,159C 586.592,159.953 586.925,161.286 585.5,163C 587.369,165.314 589.369,165.647 591.5,164C 591.167,163.667 590.833,163.333 590.5,163C 591.428,162.612 592.095,161.945 592.5,161C 591.711,160.454 590.711,159.787 589.5,159C 590.167,158.333 590.833,157.667 591.5,157C 590.62,155.644 590.286,154.144 590.5,152.5C 588.473,152.662 586.473,152.495 584.5,152C 586.657,150.915 586.824,149.749 585,148.5C 583.173,149.105 581.84,150.772 581,153.5C 579.513,152.747 579.346,151.914 580.5,151C 576.962,149.028 575.962,150.028 577.5,154C 575.776,154.448 575.109,155.282 575.5,156.5C 574.667,155.5 573.833,154.5 573,153.5C 571.274,154.576 569.441,154.743 567.5,154C 568.167,153.667 568.833,153.333 569.5,153C 566.054,151.037 566.054,149.704 569.5,149C 568.24,147.887 567.073,147.72 566,148.5C 565.667,147.833 565.333,147.167 565,146.5C 564.333,147.833 563.667,147.833 563,146.5C 562,148.5 561,150.5 560,152.5C 561.137,148.779 559.637,146.779 555.5,146.5C 555.762,145.022 555.429,143.689 554.5,142.5C 554.251,143.582 554.085,144.915 554,146.5C 553.026,144.122 552.359,144.456 552,147.5C 550.981,146.313 549.814,145.313 548.5,144.5C 548.891,145.718 548.224,146.552 546.5,147C 547.308,147.308 547.975,147.808 548.5,148.5C 547.167,149.5 547.167,150.5 548.5,151.5C 547.975,152.192 547.308,152.692 546.5,153C 548.108,153.658 549.275,153.158 550,151.5C 550.5,152.667 551.333,153.5 552.5,154C 551.044,154.423 550.544,155.256 551,156.5C 552.016,155.366 552.683,155.699 553,157.5C 553.718,156.549 554.551,156.383 555.5,157C 554,157.833 552.833,159 552,160.5C 551.374,156.864 550.207,156.864 548.5,160.5C 547.28,161.711 546.113,161.711 545,160.5C 544.5,161.667 543.667,162.5 542.5,163C 544.569,163.324 544.902,164.158 543.5,165.5C 543.977,166.478 544.643,167.311 545.5,168C 544.833,168.333 544.167,168.667 543.5,169C 544.517,170.049 544.684,171.216 544,172.5C 543.5,171.333 542.667,170.5 541.5,170C 542.28,168.927 542.113,167.76 541,166.5C 539.333,168.5 537.667,170.5 536,172.5C 535.667,171.833 535.333,171.167 535,170.5C 532.443,171.646 531.11,170.646 531,167.5C 530.667,168.5 530.333,169.5 530,170.5C 529.612,169.572 528.945,168.905 528,168.5C 525.494,170.083 523.827,169.416 523,166.5C 522.667,167.167 522.333,167.833 522,168.5C 521.41,166.046 520.576,164.379 519.5,163.5C 521.199,163.66 522.866,163.494 524.5,163C 523.638,160.266 522.805,160.099 522,162.5C 520.417,162.507 518.751,162.174 517,161.5C 516.689,162.742 517.189,163.742 518.5,164.5C 516.675,165.571 515.508,164.904 515,162.5C 514.316,163.784 514.483,164.951 515.5,166C 514.256,166.456 513.423,165.956 513,164.5C 512.46,166.135 512.96,167.468 514.5,168.5C 513.833,168.833 513.167,169.167 512.5,169.5C 514.296,170.141 515.796,171.141 517,172.5C 517.414,172.043 517.914,171.709 518.5,171.5C 519.806,172.912 520.64,174.579 521,176.5C 523,175.167 525,175.167 527,176.5C 527.667,175.833 528.333,175.167 529,174.5C 531.463,177.931 534.296,178.265 537.5,175.5C 538.197,178.344 539.364,178.011 541,174.5C 542.533,174.944 544.033,175.277 545.5,175.5C 546.696,175.154 546.696,174.654 545.5,174C 546.5,173.667 547.5,173.333 548.5,173C 548.596,171.627 548.43,170.127 548,168.5C 550.122,169.22 550.622,170.387 549.5,172C 551.666,173.993 553.999,175.827 556.5,177.5C 556.905,175.881 557.405,173.881 558,171.5C 558.495,173.473 558.662,175.473 558.5,177.5C 559.552,177.649 560.552,177.483 561.5,177C 560.664,175.757 560.997,174.59 562.5,173.5C 568.31,177.188 568.643,176.688 563.5,172C 564,171.833 564.5,171.667 565,171.5C 566.15,172.424 567.15,172.424 568,171.5C 569.675,173.532 571.342,175.532 573,177.5C 574.261,177.241 575.261,176.574 576,175.5C 577.133,177.211 578.633,177.711 580.5,177C 579.346,176.086 579.513,175.253 581,174.5C 581.308,175.308 581.808,175.975 582.5,176.5C 584.981,174.195 587.314,174.195 589.5,176.5C 590.696,176.154 590.696,175.654 589.5,175C 590.959,175.355 592.293,175.189 593.5,174.5C 593.5,175.833 593.5,177.167 593.5,178.5C 429.666,178.167 265.999,178.5 102.5,179.5C 98.4607,177.108 94.1274,175.775 89.5,175.5C 89.5,176.833 89.5,178.167 89.5,179.5C 88.5,179.5 87.5,179.5 86.5,179.5C 86.741,176.206 85.9076,173.206 84,170.5C 80.4918,168.413 77.1584,166.08 74,163.5C 72.0972,161.559 71.2639,159.226 71.5,156.5C 76.1806,158.667 80.1806,161.833 83.5,166C 84.448,166.483 85.448,166.649 86.5,166.5C 86.6567,165.127 86.49,163.793 86,162.5C 82.8492,159.593 79.5159,156.926 76,154.5C 75.8019,152.618 75.3019,150.952 74.5,149.5C 72.6776,146.962 70.6776,146.962 68.5,149.5C 64.6205,148.286 61.6205,145.953 59.5,142.5C 60.4959,142.586 61.3292,142.252 62,141.5C 63.8813,144.351 64.7146,144.018 64.5,140.5C 62.3748,135.399 60.3748,129.565 58.5,123C 59.8722,119.459 59.7055,115.959 58,112.5C 57.3292,113.252 56.4959,113.586 55.5,113.5C 58.6887,109.149 62.6887,105.649 67.5,103C 66.944,102.617 66.6107,102.117 66.5,101.5C 68.5125,98.8589 68.5125,95.8589 66.5,92.5C 66.7093,91.914 67.0426,91.414 67.5,91C 66.2135,88.9777 65.2135,86.8111 64.5,84.5C 65.376,83.7492 66.376,83.2492 67.5,83C 66.944,82.6174 66.6107,82.1174 66.5,81.5C 61.5661,81.0317 61.2328,79.5317 65.5,77C 64.8333,76.6667 64.1667,76.3333 63.5,76C 64.3859,74.7827 65.3859,73.4493 66.5,72C 65.2203,69.8683 65.2203,67.7016 66.5,65.5C 65.8333,64.5 65.1667,63.5 64.5,62.5C 66.9248,61.3507 66.9248,60.684 64.5,60.5C 67.2797,59.767 70.1131,59.4337 73,59.5C 74.9773,56.6884 77.144,54.0217 79.5,51.5C 77.3448,51.162 75.0115,51.162 72.5,51.5C 71.9369,46.1256 73.9369,41.9589 78.5,39C 81.5589,38.3554 84.5589,37.522 87.5,36.5C 85.9223,35.7022 84.2556,35.2022 82.5,35C 85.1101,32.0051 86.4435,28.5051 86.5,24.5 Z"/></g>
<g><path style="opacity:1" fill="#a1916b" d="M 91.5,24.5 C 95.5,24.5 99.5,24.5 103.5,24.5C 103.804,25.1499 104.137,25.8165 104.5,26.5C 99.4682,29.2818 94.1348,29.9485 88.5,28.5C 89.8262,27.3578 90.8262,26.0245 91.5,24.5 Z"/></g>
<g><path style="opacity:1" fill="#47452f" d="M 68.5,27.5 C 65.0104,30.9753 62.6771,35.142 61.5,40C 58.1484,40.8379 54.8151,41.6712 51.5,42.5C 53.1898,40.6583 55.1898,39.325 57.5,38.5C 58.675,38.719 59.675,38.3857 60.5,37.5C 61.3809,32.6303 64.0475,29.297 68.5,27.5 Z"/></g>
<g><path style="opacity:1" fill="#f6f3f2" d="M 52.5,31.5 C 49.2027,31.6713 48.8694,31.0046 51.5,29.5C 52.2975,29.9569 52.6309,30.6236 52.5,31.5 Z"/></g>
<g><path style="opacity:1" fill="#f3f2f0" d="M 629.5,31.5 C 630.238,29.2398 631.238,29.0731 632.5,31C 631.552,31.4828 630.552,31.6495 629.5,31.5 Z"/></g>
<g><path style="opacity:1" fill="#ccb082" d="M 55.5,27.5 C 55.3505,28.552 55.5172,29.552 56,30.5C 56.4186,29.3279 57.0853,28.3279 58,27.5C 58.5686,30.4636 57.9019,33.1302 56,35.5C 55.5172,34.552 55.3505,33.552 55.5,32.5C 54.5,32.5 53.5,32.5 52.5,32.5C 52.5,32.1667 52.5,31.8333 52.5,31.5C 53.9779,30.5525 54.9779,29.2191 55.5,27.5 Z"/></g>
<g><path style="opacity:1" fill="#bf9d74" d="M 624.5,24.5 C 625.864,26.22 626.864,28.22 627.5,30.5C 627.957,31.2975 628.624,31.6309 629.5,31.5C 629.5,31.8333 629.5,32.1667 629.5,32.5C 628.5,32.5 627.5,32.5 626.5,32.5C 626.5,33.5 626.5,34.5 626.5,35.5C 625.5,35.5 624.5,35.5 623.5,35.5C 623.493,32.9621 623.159,30.4621 622.5,28C 622.873,26.4498 623.54,25.2832 624.5,24.5 Z"/></g>
<g><path style="opacity:1" fill="#f2f3f2" d="M 636.5,32.5 C 637.833,33.1667 637.833,33.1667 636.5,32.5 Z"/></g>
<g><path style="opacity:1" fill="#f2f3f2" d="M 639.5,34.5 C 640.833,35.1667 640.833,35.1667 639.5,34.5 Z"/></g>
<g><path style="opacity:1" fill="#cda972" d="M 595.5,21.5 C 595.833,21.5 596.167,21.5 596.5,21.5C 598.042,25.3057 599.375,29.3057 600.5,33.5C 608.783,36.7403 612.45,42.7403 611.5,51.5C 616.566,51.3399 621.566,51.8399 626.5,53C 641.852,62.1884 650.852,75.6884 653.5,93.5C 655.459,112.687 650.459,129.687 638.5,144.5C 631.393,150.745 623.06,153.911 613.5,154C 612.81,157.947 611.644,161.78 610,165.5C 606.333,168.5 602.667,171.5 599,174.5C 598.814,177.036 598.314,179.369 597.5,181.5C 597.631,180.761 597.464,180.094 597,179.5C 596.329,180.252 595.496,180.586 594.5,180.5C 594.5,180.167 594.5,179.833 594.5,179.5C 594.674,177.139 595.007,174.806 595.5,172.5C 598.117,169.853 601.117,167.686 604.5,166C 606.726,164.38 608.06,162.214 608.5,159.5C 608.267,158.068 607.6,157.568 606.5,158C 602.268,161.743 597.935,165.243 593.5,168.5C 592.957,168.44 592.624,168.107 592.5,167.5C 595.484,161.688 599.651,157.021 605,153.5C 605.517,150.45 607.017,148.117 609.5,146.5C 611.357,149.234 613.691,149.901 616.5,148.5C 616.5,148.833 616.5,149.167 616.5,149.5C 622.21,150.191 627.544,148.691 632.5,145C 648.9,129.117 654.4,109.95 649,87.5C 646.546,79.9259 643.046,72.9259 638.5,66.5C 632.382,57.6986 624.049,54.032 613.5,55.5C 616.05,56.6036 618.383,57.937 620.5,59.5C 619.508,59.3284 618.842,59.6618 618.5,60.5C 615.18,59.4713 611.846,59.3046 608.5,60C 605.727,55.2679 602.394,50.9345 598.5,47C 601.073,48.9536 604.073,50.4536 607.5,51.5C 608.128,42.2935 603.794,37.7935 594.5,38C 593.5,37.1667 592.5,36.3333 591.5,35.5C 593.423,34.6922 595.423,34.1922 597.5,34C 595.998,30.9953 594.998,27.8286 594.5,24.5C 579.5,24.5 564.5,24.5 549.5,24.5C 400.833,24.5 252.167,24.5 103.5,24.5C 99.5,24.5 95.5,24.5 91.5,24.5C 89.8333,24.5 88.1667,24.5 86.5,24.5C 86.5,23.8333 86.8333,23.5 87.5,23.5C 257.17,24.1653 426.503,23.4987 595.5,21.5 Z"/></g>
<g><path style="opacity:1" fill="#f2f3f2" d="M 641.5,37.5 C 641.897,36.475 642.563,36.3083 643.5,37C 642.906,37.4643 642.239,37.631 641.5,37.5 Z"/></g>
<g><path style="opacity:1" fill="#7b5b36" d="M 47.5,34.5 C 49.3888,35.3799 51.3888,35.3799 53.5,34.5C 53.1667,37.5 54.5,38.8333 57.5,38.5C 55.1898,39.325 53.1898,40.6583 51.5,42.5C 48.4949,44.5074 45.4949,46.5074 42.5,48.5C 34.797,53.2228 29.4636,59.8895 26.5,68.5C 25.5,68.8333 24.8333,69.5 24.5,70.5C 24.0405,68.2923 24.0405,66.1256 24.5,64C 27.6917,62.1416 30.025,59.475 31.5,56C 31.1667,55.6667 30.8333,55.3333 30.5,55C 33.0196,53.2368 35.3529,51.2368 37.5,49C 36.536,47.2745 35.8693,45.4412 35.5,43.5C 38.4182,39.0426 42.4182,36.0426 47.5,34.5 Z"/></g>
<g><path style="opacity:1" fill="#c59f72" d="M 82.5,39.5 C 83.3764,39.3691 84.0431,39.7025 84.5,40.5C 80.4146,45.9819 79.7479,45.6486 82.5,39.5 Z"/></g>
<g><path style="opacity:1" fill="#f2f3f2" d="M 32.5,42.5 C 33.8333,43.1667 33.8333,43.1667 32.5,42.5 Z"/></g>
<g><path style="opacity:1" fill="#745633" d="M 629.5,32.5 C 632.715,32.9049 635.715,33.9049 638.5,35.5C 638.414,36.4959 638.748,37.3292 639.5,38C 637.789,39.1332 637.289,40.6332 638,42.5C 641.02,45.0017 644.186,48.0017 647.5,51.5C 647.709,52.086 648.043,52.586 648.5,53C 647.584,53.2784 646.918,53.7784 646.5,54.5C 638.949,47.072 630.283,41.7387 620.5,38.5C 622.544,37.478 624.544,36.478 626.5,35.5C 626.5,34.5 626.5,33.5 626.5,32.5C 627.5,32.5 628.5,32.5 629.5,32.5 Z"/></g>
<g><path style="opacity:1" fill="#f2f3f2" d="M 650.5,44.5 C 651.833,45.1667 651.833,45.1667 650.5,44.5 Z"/></g>
<g><path style="opacity:1" fill="#f2f3f2" d="M 653.5,48.5 C 654.833,49.1667 654.833,49.1667 653.5,48.5 Z"/></g>
<g><path style="opacity:1" fill="#607563" d="M 549.5,24.5 C 564.5,24.5 579.5,24.5 594.5,24.5C 594.998,27.8286 595.998,30.9953 597.5,34C 595.423,34.1922 593.423,34.6922 591.5,35.5C 592.5,36.3333 593.5,37.1667 594.5,38C 603.794,37.7935 608.128,42.2935 607.5,51.5C 604.073,50.4536 601.073,48.9536 598.5,47C 602.394,50.9345 605.727,55.2679 608.5,60C 611.846,59.3046 615.18,59.4713 618.5,60.5C 619.694,61.2719 620.694,62.2719 621.5,63.5C 618.416,65.0141 618.083,66.8475 620.5,69C 620.167,69.3333 619.833,69.6667 619.5,70C 620.688,76.6987 622.022,83.3653 623.5,90C 623.043,90.414 622.709,90.914 622.5,91.5C 623.243,92.1818 623.909,92.8485 624.5,93.5C 622.12,96.8805 619.12,99.5472 615.5,101.5C 615.082,100.778 614.416,100.278 613.5,100C 616.885,99.282 618.885,97.282 619.5,94C 619.682,91.6962 619.016,91.1962 617.5,92.5C 615.549,90.7711 614.382,88.7711 614,86.5C 615.57,87.614 616.903,88.9474 618,90.5C 617.333,88.1667 617.333,85.8333 618,83.5C 616.045,85.9817 613.879,86.1483 611.5,84C 613.772,83.0589 615.772,81.7255 617.5,80C 616.048,78.0417 615.715,76.0417 616.5,74C 615.328,73.5814 614.328,72.9147 613.5,72C 613.063,69.7827 613.063,67.4494 613.5,65C 610.931,63.5742 608.764,63.7408 607,65.5C 605.265,62.209 602.765,61.0424 599.5,62C 598.5,59.6667 596.833,58 594.5,57C 596.412,55.7998 597.745,54.1331 598.5,52C 597.551,51.3828 596.718,51.5494 596,52.5C 593.148,48.7958 590.815,44.7958 589,40.5C 586.586,44.1965 586.086,43.6965 587.5,39C 585.959,36.375 584.292,33.7083 582.5,31C 581.551,30.3828 580.718,30.5494 580,31.5C 579.667,30.8333 579.333,30.1667 579,29.5C 576.646,31.8477 573.979,32.5144 571,31.5C 568.345,33.0529 565.512,34.2196 562.5,35C 563.696,35.6543 563.696,36.1543 562.5,36.5C 560.299,34.9435 560.299,33.7768 562.5,33C 559.943,32.3147 558.109,30.8147 557,28.5C 556.667,29.1667 556.333,29.8333 556,30.5C 554.933,29.8095 553.766,29.3095 552.5,29C 551.549,28.2825 551.383,27.4491 552,26.5C 552.914,27.6537 553.747,27.487 554.5,26C 552.618,25.8019 550.952,25.3019 549.5,24.5 Z"/></g>
<g><path style="opacity:1" fill="#f9f3f2" d="M 657.5,52.5 C 658.833,53.1667 658.833,53.1667 657.5,52.5 Z"/></g>
<g><path style="opacity:1" fill="#82643f" d="M 638.5,35.5 C 638.833,35.5 639.167,35.5 639.5,35.5C 639.833,36.5 640.5,37.1667 641.5,37.5C 644.474,40.1379 647.474,42.8046 650.5,45.5C 650.738,47.4044 651.738,48.7377 653.5,49.5C 656.503,54.1748 659.503,58.8415 662.5,63.5C 662.402,65.5529 663.069,67.2196 664.5,68.5C 664.5,73.1667 664.5,77.8333 664.5,82.5C 663.842,81.6016 663.176,80.6016 662.5,79.5C 661.893,79.6236 661.56,79.9569 661.5,80.5C 657.567,71.3118 652.567,62.6452 646.5,54.5C 646.918,53.7784 647.584,53.2784 648.5,53C 648.043,52.586 647.709,52.086 647.5,51.5C 644.186,48.0017 641.02,45.0017 638,42.5C 637.289,40.6332 637.789,39.1332 639.5,38C 638.748,37.3292 638.414,36.4959 638.5,35.5 Z"/></g>
<g><path style="opacity:1" fill="#454835" d="M 42.5,48.5 C 36.6752,54.8409 31.3419,61.5075 26.5,68.5C 29.4636,59.8895 34.797,53.2228 42.5,48.5 Z"/></g>
<g><path style="opacity:1" fill="#f8f3f2" d="M 664.5,61.5 C 664.5,62.1667 664.5,62.8333 664.5,63.5C 663.833,63.5 663.167,63.5 662.5,63.5C 662.833,62.5 663.5,61.8333 664.5,61.5 Z"/></g>
<g><path style="opacity:1" fill="#916f48" d="M 35.5,43.5 C 35.8693,45.4412 36.536,47.2745 37.5,49C 35.3529,51.2368 33.0196,53.2368 30.5,55C 30.8333,55.3333 31.1667,55.6667 31.5,56C 30.025,59.475 27.6917,62.1416 24.5,64C 24.0405,66.1256 24.0405,68.2923 24.5,70.5C 24.1075,72.2838 23.4408,73.9505 22.5,75.5C 21.5041,75.5858 20.6708,75.2524 20,74.5C 18.2258,75.965 16.3925,77.2983 14.5,78.5C 18.2027,64.7457 25.2027,53.079 35.5,43.5 Z"/></g>
<g><path style="opacity:1" fill="#657967" d="M 42.5,48.5 C 47.3276,48.6253 51.661,49.9586 55.5,52.5C 33.7368,66.3785 24.5702,86.3785 28,112.5C 30.4279,128.55 38.2613,141.05 51.5,150C 56.1249,152.704 61.1249,154.038 66.5,154C 67.3298,156.802 68.1632,159.635 69,162.5C 72.7467,166.918 77.0801,170.584 82,173.5C 82.9728,176.579 83.8061,179.579 84.5,182.5C 255.167,182.5 425.833,182.5 596.5,182.5C 596.5,183.167 596.167,183.5 595.5,183.5C 425.166,183.333 254.833,183.5 84.5,184C 87.8333,184.333 91.1667,184.667 94.5,185C 92.6992,185.317 92.3659,185.984 93.5,187C 91.951,186.656 90.2843,186.156 88.5,185.5C 84.6424,187.097 80.6424,188.097 76.5,188.5C 75.7487,185.754 74.7487,183.087 73.5,180.5C 73.5858,179.504 73.2524,178.671 72.5,178C 66.3442,175.178 62.3442,170.511 60.5,164C 54.9599,164.188 49.9599,162.688 45.5,159.5C 44.3065,158.728 43.3065,157.728 42.5,156.5C 36.7624,150.34 31.929,144.007 28,137.5C 24.8584,129.595 22.025,121.595 19.5,113.5C 19.5,112.833 19.5,112.167 19.5,111.5C 19.3337,104.825 19.5004,98.1583 20,91.5C 21.2817,83.4998 23.4484,75.8331 26.5,68.5C 31.3419,61.5075 36.6752,54.8409 42.5,48.5 Z"/></g>
<g><path style="opacity:1" fill="#566a5c" d="M 66.5,81.5 C 67.172,80.7326 68.0053,80.0659 69,79.5C 69.4226,80.9561 70.2559,81.4561 71.5,81C 71.0426,80.586 70.7093,80.086 70.5,79.5C 71.4891,78.5318 72.1557,77.3651 72.5,76C 71.8864,74.4634 71.8864,73.13 72.5,72C 69.8333,71.3333 69.8333,70.6667 72.5,70C 69.8208,68.2112 69.9875,67.0445 73,66.5C 75.1879,66.354 76.5212,67.354 77,69.5C 78.487,68.7471 78.6537,67.9138 77.5,67C 78.8333,66.3333 80.1667,66.3333 81.5,67C 80.5,68 79.5,69 78.5,70C 83.0462,70.8096 83.3795,72.1429 79.5,74C 81.4335,74.7826 82.9335,74.2826 84,72.5C 85.113,73.7604 85.2797,74.927 84.5,76C 85.6721,76.4186 86.6721,77.0853 87.5,78C 86.1667,78.6667 86.1667,79.3333 87.5,80C 89.807,80.3374 91.6403,79.504 93,77.5C 93.4828,78.448 93.6495,79.448 93.5,80.5C 96.4168,81.8113 98.9168,81.1447 101,78.5C 101.5,79.5 102,80.5 102.5,81.5C 102.072,83.3856 101.739,85.2189 101.5,87C 103.064,88.6049 103.564,90.4382 103,92.5C 102.717,89.2577 101.883,88.9244 100.5,91.5C 100.167,90.8333 99.8333,90.1667 99.5,89.5C 98.646,90.5217 97.646,91.3551 96.5,92C 97.5358,93.6169 98.7025,93.7836 100,92.5C 100.692,93.0253 101.192,93.6919 101.5,94.5C 100.431,94.6399 99.2639,94.6399 98,94.5C 97.4372,95.7248 97.7705,96.7248 99,97.5C 103.685,96.1567 104.351,97.1567 101,100.5C 97.5712,99.3475 95.2379,97.0142 94,93.5C 92.1555,94.7107 91.3222,96.044 91.5,97.5C 88.6203,95.4869 86.6203,93.3203 85.5,91C 86.3279,90.0853 87.3279,89.4186 88.5,89C 88.0426,88.586 87.7093,88.086 87.5,87.5C 88.8551,85.0711 90.5217,83.7377 92.5,83.5C 91.4826,80.972 90.3159,80.972 89,83.5C 87.6015,82.9491 86.2682,82.6158 85,82.5C 83.5413,85.1422 83.208,87.8089 84,90.5C 82.7604,87.588 81.0937,84.9213 79,82.5C 78.6667,83.1667 78.3333,83.8333 78,84.5C 74.8897,83.3266 74.723,83.8266 77.5,86C 76.9747,86.6924 76.3081,87.1924 75.5,87.5C 74.2164,86.3703 73.383,85.037 73,83.5C 71.3542,85.1408 70.3542,84.8075 70,82.5C 69.6667,82.8333 69.3333,83.1667 69,83.5C 68.5831,82.244 67.7498,81.5774 66.5,81.5 Z"/></g>
<g><path style="opacity:1" fill="#788875" d="M 621.5,63.5 C 627.911,69.0084 630.411,76.0084 629,84.5C 628.337,88.0353 626.837,91.0353 624.5,93.5C 623.909,92.8485 623.243,92.1818 622.5,91.5C 622.709,90.914 623.043,90.414 623.5,90C 622.022,83.3653 620.688,76.6987 619.5,70C 619.833,69.6667 620.167,69.3333 620.5,69C 618.083,66.8475 618.416,65.0141 621.5,63.5 Z"/></g>
<g><path style="opacity:1" fill="#6b7e6a" d="M 638.5,66.5 C 637.404,68.1032 636.07,69.6032 634.5,71C 636.333,72.1667 637.833,73.6667 639,75.5C 639.617,80.5234 640.784,85.3567 642.5,90C 641.96,93.5642 641.627,97.3975 641.5,101.5C 638.71,100.021 635.877,98.6878 633,97.5C 629.455,98.8726 625.955,100.039 622.5,101C 632.71,91.9631 635.21,81.1298 630,68.5C 627.621,64.6198 624.454,61.6198 620.5,59.5C 618.383,57.937 616.05,56.6036 613.5,55.5C 624.049,54.032 632.382,57.6986 638.5,66.5 Z"/></g>
<g><path style="opacity:1" fill="#647867" d="M 64.5,60.5 C 66.9248,60.684 66.9248,61.3507 64.5,62.5C 65.1667,63.5 65.8333,64.5 66.5,65.5C 65.2203,67.7016 65.2203,69.8683 66.5,72C 65.3859,73.4493 64.3859,74.7827 63.5,76C 64.1667,76.3333 64.8333,76.6667 65.5,77C 61.2328,79.5317 61.5661,81.0317 66.5,81.5C 66.6107,82.1174 66.944,82.6174 67.5,83C 66.376,83.2492 65.376,83.7492 64.5,84.5C 65.2135,86.8111 66.2135,88.9777 67.5,91C 67.0426,91.414 66.7093,91.914 66.5,92.5C 68.5125,95.8589 68.5125,98.8589 66.5,101.5C 63.5265,99.8532 60.8599,97.8532 58.5,95.5C 59.8148,94.333 60.4814,92.833 60.5,91C 59.4157,85.6364 58.4157,80.3031 57.5,75C 59.8358,72.9517 59.8358,71.1183 57.5,69.5C 56.2011,70.09 55.3678,71.09 55,72.5C 54.5357,71.9056 54.369,71.2389 54.5,70.5C 56.8333,66.1667 60.1667,62.8333 64.5,60.5 Z"/></g>
<g><path style="opacity:1" fill="#f5f3f2" d="M 11.5,77.5 C 11.8966,76.475 12.5632,76.3083 13.5,77C 12.9056,77.4643 12.2389,77.631 11.5,77.5 Z"/></g>
<g><path style="opacity:1" fill="#eae6d2" d="M 202.5,73.5 C 206.668,74.8356 210.502,76.8356 214,79.5C 215.286,84.7096 213.453,86.7096 208.5,85.5C 206.88,81.2409 204.88,77.2409 202.5,73.5 Z"/></g>
<g><path style="opacity:1" fill="#7d8d78" d="M 58.5,95.5 C 50.9508,88.0776 49.6174,79.7443 54.5,70.5C 54.369,71.2389 54.5357,71.9056 55,72.5C 55.3678,71.09 56.2011,70.09 57.5,69.5C 59.8358,71.1183 59.8358,72.9517 57.5,75C 58.4157,80.3031 59.4157,85.6364 60.5,91C 60.4814,92.833 59.8148,94.333 58.5,95.5 Z"/></g>
<g><path style="opacity:1" fill="#ebe6d4" d="M 466.5,75.5 C 465.549,76.9187 465.216,78.5853 465.5,80.5C 470.032,80.8182 474.366,80.4849 478.5,79.5C 478.5,76.5 478.5,73.5 478.5,70.5C 481.471,70.4354 484.138,71.2687 486.5,73C 484.771,74.7889 484.104,76.9556 484.5,79.5C 486.527,79.6621 488.527,79.4955 490.5,79C 491.725,77.437 493.225,76.2703 495,75.5C 497.449,76.9443 499.615,78.7776 501.5,81C 495.509,81.4995 489.509,81.6662 483.5,81.5C 483.86,86.1679 481.86,88.8346 477.5,89.5C 477.5,87.1667 477.5,84.8333 477.5,82.5C 473.833,82.5 470.167,82.5 466.5,82.5C 467.298,86.7029 465.631,89.3695 461.5,90.5C 460.614,89.675 460.281,88.675 460.5,87.5C 460.5,85.8333 460.5,84.1667 460.5,82.5C 455.167,82.5 449.833,82.5 444.5,82.5C 443.957,82.44 443.624,82.1067 443.5,81.5C 448.792,80.5052 454.125,80.1718 459.5,80.5C 459.74,77.4212 459.407,74.4212 458.5,71.5C 461.635,70.8627 464.635,71.5294 467.5,73.5C 467.137,74.1835 466.804,74.8501 466.5,75.5 Z"/></g>
<g><path style="opacity:1" fill="#929a87" d="M 466.5,75.5 C 466.5,76.8333 466.5,78.1667 466.5,79.5C 470.5,79.5 474.5,79.5 478.5,79.5C 474.366,80.4849 470.032,80.8182 465.5,80.5C 465.216,78.5853 465.549,76.9187 466.5,75.5 Z"/></g>
<g><path style="opacity:1" fill="#ad9d86" d="M 14.5,78.5 C 14.7062,81.4951 14.0395,84.1617 12.5,86.5C 12.2938,83.5049 12.9605,80.8383 14.5,78.5 Z"/></g>
<g><path style="opacity:1" fill="#959d8b" d="M 444.5,82.5 C 449.833,82.5 455.167,82.5 460.5,82.5C 460.5,84.1667 460.5,85.8333 460.5,87.5C 459.566,86.4324 459.232,85.099 459.5,83.5C 454.305,83.8205 449.305,83.4872 444.5,82.5 Z"/></g>
<g><path style="opacity:1" fill="#f9f3f2" d="M 8.5,86.5 C 9.59832,87.6009 9.76498,88.9343 9,90.5C 8.50999,89.2068 8.34332,87.8734 8.5,86.5 Z"/></g>
<g><path style="opacity:1" fill="#4f4d38" d="M 26.5,68.5 C 23.4484,75.8331 21.2817,83.4998 20,91.5C 19.5004,98.1583 19.3337,104.825 19.5,111.5C 18.5088,104.687 18.1755,97.6866 18.5,90.5C 19.0782,85.2654 20.4115,80.2654 22.5,75.5C 23.4408,73.9505 24.1075,72.2838 24.5,70.5C 24.8333,69.5 25.5,68.8333 26.5,68.5 Z"/></g>
<g><path style="opacity:1" fill="#dfb87e" d="M 132.5,89.5 C 134.026,93.2145 136.026,96.7145 138.5,100C 141.334,101.6 144.334,102.766 147.5,103.5C 139.209,104.625 134.376,109.291 133,117.5C 131.073,108.767 125.573,104.1 116.5,103.5C 120.809,102.847 124.809,101.347 128.5,99C 130.515,96.1347 131.848,92.9681 132.5,89.5 Z"/></g>
<g><path style="opacity:1" fill="#a9957e" d="M 12.5,86.5 C 11.4873,96.8952 11.4873,107.562 12.5,118.5C 12.5,119.167 12.5,119.833 12.5,120.5C 10.9779,115.252 10.3112,109.752 10.5,104C 10.3408,97.9256 11.0075,92.0923 12.5,86.5 Z"/></g>
<g><path style="opacity:1" fill="#967d51" d="M 664.5,82.5 C 664.5,92.1667 664.5,101.833 664.5,111.5C 664.167,111.5 663.833,111.5 663.5,111.5C 663.846,101.084 663.179,90.751 661.5,80.5C 661.56,79.9569 661.893,79.6236 662.5,79.5C 663.176,80.6016 663.842,81.6016 664.5,82.5 Z"/></g>
<g><path style="opacity:1" fill="#dfb77d" d="M 558.5,89.5 C 560.352,92.5507 561.686,95.884 562.5,99.5C 566.007,101.079 569.674,102.412 573.5,103.5C 565.278,104.688 560.445,109.355 559,117.5C 557.736,109.736 553.236,105.069 545.5,103.5C 553.332,102.003 557.666,97.3368 558.5,89.5 Z"/></g>
<g><path style="opacity:1" fill="#dab074" d="M 620.5,59.5 C 624.454,61.6198 627.621,64.6198 630,68.5C 635.21,81.1298 632.71,91.9631 622.5,101C 625.955,100.039 629.455,98.8726 633,97.5C 635.877,98.6878 638.71,100.021 641.5,101.5C 641.443,102.609 641.11,103.609 640.5,104.5C 635.848,107.944 631.181,108.111 626.5,105C 625.167,104.333 623.833,104.333 622.5,105C 630.924,111.831 634.257,120.664 632.5,131.5C 630.342,140.324 625.009,146.324 616.5,149.5C 616.5,149.167 616.5,148.833 616.5,148.5C 625.822,142.858 630.156,134.525 629.5,123.5C 628.486,114.472 623.82,108.138 615.5,104.5C 612.833,103.5 612.833,102.5 615.5,101.5C 619.12,99.5472 622.12,96.8805 624.5,93.5C 626.837,91.0353 628.337,88.0353 629,84.5C 630.411,76.0084 627.911,69.0084 621.5,63.5C 620.694,62.2719 619.694,61.2719 618.5,60.5C 618.842,59.6618 619.508,59.3284 620.5,59.5 Z"/></g>
<g><path style="opacity:1" fill="#846136" d="M 22.5,75.5 C 20.4115,80.2654 19.0782,85.2654 18.5,90.5C 17.0247,96.284 16.0247,102.284 15.5,108.5C 15.833,111.01 16.833,113.177 18.5,115C 16.2028,116.58 15.8695,118.58 17.5,121C 16.1141,122.828 15.1141,122.495 14.5,120C 14.7355,119.127 15.0688,118.293 15.5,117.5C 14.7565,114.557 14.2565,111.557 14,108.5C 13.8213,112.025 13.3213,115.359 12.5,118.5C 11.4873,107.562 11.4873,96.8952 12.5,86.5C 14.0395,84.1617 14.7062,81.4951 14.5,78.5C 16.3925,77.2983 18.2258,75.965 20,74.5C 20.6708,75.2524 21.5041,75.5858 22.5,75.5 Z"/></g>
<g><path style="opacity:1" fill="#989274" d="M 131.5,103.5 C 133.119,103.404 134.785,103.404 136.5,103.5C 134.833,104.666 133.166,104.666 131.5,103.5 Z"/></g>
<g><path style="opacity:1" fill="#ede6cf" d="M 486.5,106.5 C 482.16,101.827 477.827,97.1608 473.5,92.5C 464.572,102.302 453.905,109.636 441.5,114.5C 441.167,114.167 440.833,113.833 440.5,113.5C 452.64,107.193 461.974,98.0263 468.5,86C 470.757,86.4371 473.09,86.9371 475.5,87.5C 475.343,88.8734 475.51,90.2068 476,91.5C 485.15,98.3265 495.316,102.827 506.5,105C 502.25,106.127 498.583,108.294 495.5,111.5C 492.284,110.063 489.284,108.396 486.5,106.5 Z"/></g>
<g><path style="opacity:1" fill="#ede6d2" d="M 300.5,71.5 C 304.518,73.101 307.684,75.7676 310,79.5C 314.925,100.395 326.425,116.395 344.5,127.5C 340.031,128.317 336.198,130.317 333,133.5C 327.251,129.346 322.918,124.013 320,117.5C 317.324,110.8 314.658,104.133 312,97.5C 306.307,115.024 295.14,127.691 278.5,135.5C 278.167,135.167 277.833,134.833 277.5,134.5C 295.012,121.451 305.179,104.118 308,82.5C 304.916,78.3777 300.749,76.5443 295.5,77C 298.079,75.9243 299.746,74.091 300.5,71.5 Z"/></g>
<g><path style="opacity:1" fill="#e9e3ce" d="M 386.5,69.5 C 389.461,70.3234 392.461,70.99 395.5,71.5C 394.047,74.9863 393.381,78.653 393.5,82.5C 397.846,82.6657 402.179,82.499 406.5,82C 408.019,80.6487 409.352,79.1487 410.5,77.5C 413.313,79.3 415.313,81.6334 416.5,84.5C 408.833,84.5 401.167,84.5 393.5,84.5C 393.5,87.5 393.5,90.5 393.5,93.5C 397.514,93.6655 401.514,93.4988 405.5,93C 406.025,92.3076 406.692,91.8076 407.5,91.5C 409.924,92.4229 411.924,93.9229 413.5,96C 413,96.5 412.5,97 412,97.5C 411.667,102.833 411.333,108.167 411,113.5C 409.103,115.016 406.936,115.683 404.5,115.5C 404.5,114.5 404.5,113.5 404.5,112.5C 396.167,112.5 387.833,112.5 379.5,112.5C 379.07,116.791 376.903,118.458 373,117.5C 373.768,109.171 373.601,100.838 372.5,92.5C 374.917,91.8482 377.25,92.3482 379.5,94C 382.146,94.4974 384.813,94.6641 387.5,94.5C 387.773,86.1122 387.44,77.7788 386.5,69.5 Z"/></g>
<g><path style="opacity:1" fill="#58705e" d="M 379.5,96.5 C 387.833,96.5 396.167,96.5 404.5,96.5C 404.5,101.167 404.5,105.833 404.5,110.5C 396.167,110.5 387.833,110.5 379.5,110.5C 379.5,105.833 379.5,101.167 379.5,96.5 Z"/></g>
<g><path style="opacity:1" fill="#f0e9d5" d="M 486.5,106.5 C 487.476,107.815 488.476,109.148 489.5,110.5C 484.88,111.493 480.214,111.827 475.5,111.5C 475.799,118.891 475.465,126.224 474.5,133.5C 472.772,135.226 470.772,136.559 468.5,137.5C 467.461,133.625 465.128,130.792 461.5,129C 464.146,128.503 466.813,128.336 469.5,128.5C 469.5,123.167 469.5,117.833 469.5,112.5C 464.901,112.2 460.401,112.533 456,113.5C 455.308,112.975 454.808,112.308 454.5,111.5C 459.456,110.506 464.456,110.173 469.5,110.5C 469.74,107.421 469.407,104.421 468.5,101.5C 471.403,100.096 474.07,100.429 476.5,102.5C 475.626,104.747 475.292,107.08 475.5,109.5C 477.857,109.663 480.19,109.497 482.5,109C 483.471,107.519 484.804,106.685 486.5,106.5 Z"/></g>
<g><path style="opacity:1" fill="#6c7e69" d="M 640.5,104.5 C 638.78,111.077 639.447,117.41 642.5,123.5C 641,125.167 639.5,126.833 638,128.5C 636.497,128.165 635.164,128.165 634,128.5C 633.768,129.737 633.268,130.737 632.5,131.5C 634.257,120.664 630.924,111.831 622.5,105C 623.833,104.333 625.167,104.333 626.5,105C 631.181,108.111 635.848,107.944 640.5,104.5 Z"/></g>
<g><path style="opacity:1" fill="#f8f3f2" d="M 8.5,116.5 C 9.23891,116.369 9.90558,116.536 10.5,117C 10.6192,118.281 10.1192,119.448 9,120.5C 8.50999,119.207 8.34332,117.873 8.5,116.5 Z"/></g>
<g><path style="opacity:1" fill="#5a715f" d="M 638.5,66.5 C 643.046,72.9259 646.546,79.9259 649,87.5C 654.4,109.95 648.9,129.117 632.5,145C 627.544,148.691 622.21,150.191 616.5,149.5C 625.009,146.324 630.342,140.324 632.5,131.5C 633.268,130.737 633.768,129.737 634,128.5C 635.164,128.165 636.497,128.165 638,128.5C 639.5,126.833 641,125.167 642.5,123.5C 639.447,117.41 638.78,111.077 640.5,104.5C 641.11,103.609 641.443,102.609 641.5,101.5C 641.627,97.3975 641.96,93.5642 642.5,90C 640.784,85.3567 639.617,80.5234 639,75.5C 637.833,73.6667 636.333,72.1667 634.5,71C 636.07,69.6032 637.404,68.1032 638.5,66.5 Z"/></g>
<g><path style="opacity:1" fill="#798874" d="M 615.5,104.5 C 623.82,108.138 628.486,114.472 629.5,123.5C 628.85,123.804 628.183,124.137 627.5,124.5C 625.595,122.155 624.429,119.488 624,116.5C 622.89,114.963 621.39,114.297 619.5,114.5C 618.191,111.207 616.858,107.874 615.5,104.5 Z"/></g>
<g><path style="opacity:1" fill="#ece7d1" d="M 480.5,117.5 C 486.28,117.183 491.114,119.516 495,124.5C 496.109,127.947 495.109,130.614 492,132.5C 488.918,129.341 486.584,125.675 485,121.5C 483.629,119.959 482.129,118.625 480.5,117.5 Z"/></g>
<g><path style="opacity:1" fill="#ede9d9" d="M 457.5,115.5 C 460.897,115.737 462.73,117.404 463,120.5C 457.722,126.816 451.222,130.983 443.5,133C 449.026,129.107 453.526,124.273 457,118.5C 457.483,117.552 457.649,116.552 457.5,115.5 Z"/></g>
<g><path style="opacity:1" fill="#ece7d3" d="M 240.5,121.5 C 241.49,115.69 241.823,109.69 241.5,103.5C 238.615,103.194 235.948,103.527 233.5,104.5C 231.444,113.241 226.444,119.907 218.5,124.5C 221.488,126.552 224.821,127.719 228.5,128C 240.183,128.435 251.85,128.435 263.5,128C 261.246,129.377 259.08,130.877 257,132.5C 256.517,133.448 256.351,134.448 256.5,135.5C 247.441,135.846 238.441,135.346 229.5,134C 226.007,133.058 222.674,131.725 219.5,130C 216.896,127.714 214.063,125.881 211,124.5C 209.289,124.439 207.956,125.106 207,126.5C 204.971,129.029 203.138,131.696 201.5,134.5C 199.712,132.424 198.046,130.257 196.5,128C 199.795,125.769 203.295,123.936 207,122.5C 207.5,115.174 207.666,107.841 207.5,100.5C 203.952,100.905 200.619,100.405 197.5,99C 202.159,99.2024 206.326,98.0357 210,95.5C 211.982,95.9903 213.649,96.9903 215,98.5C 213.441,106.258 213.108,114.258 214,122.5C 214.689,123.357 215.522,124.023 216.5,124.5C 222.486,119.195 225.819,112.529 226.5,104.5C 223.428,104.817 220.428,104.484 217.5,103.5C 220.768,102.513 224.102,102.18 227.5,102.5C 227.5,97.8333 227.5,93.1667 227.5,88.5C 215.697,87.3665 215.697,86.6998 227.5,86.5C 227.777,81.7668 227.443,77.1001 226.5,72.5C 229.404,71.6806 232.071,72.3472 234.5,74.5C 233.574,78.0938 233.241,81.7604 233.5,85.5C 235.948,86.4731 238.615,86.8064 241.5,86.5C 241.819,81.6367 241.486,76.97 240.5,72.5C 240.62,71.4138 241.287,70.7472 242.5,70.5C 244.984,70.9064 246.984,72.073 248.5,74C 247.267,77.8335 247.267,81.6668 248.5,85.5C 252.604,81.2986 255.937,81.9653 258.5,87.5C 254.893,88.4892 251.226,88.8226 247.5,88.5C 247.5,92.8333 247.5,97.1667 247.5,101.5C 250.81,101.539 253.476,100.206 255.5,97.5C 258.109,98.4431 260.109,100.11 261.5,102.5C 256.88,103.493 252.214,103.827 247.5,103.5C 247.666,109.842 247.5,116.175 247,122.5C 243.935,126.826 241.769,126.492 240.5,121.5 Z"/></g>
<g><path style="opacity:1" fill="#909c89" d="M 233.5,104.5 C 235.948,103.527 238.615,103.194 241.5,103.5C 241.823,109.69 241.49,115.69 240.5,121.5C 240.5,115.833 240.5,110.167 240.5,104.5C 238.167,104.5 235.833,104.5 233.5,104.5 Z"/></g>
<g><path style="opacity:1" fill="#59705e" d="M 233.5,88.5 C 236.167,88.5 238.833,88.5 241.5,88.5C 241.5,92.8333 241.5,97.1667 241.5,101.5C 238.833,101.5 236.167,101.5 233.5,101.5C 233.5,97.1667 233.5,92.8333 233.5,88.5 Z"/></g>
<g><path style="opacity:1" fill="#a5ab99" d="M 240.5,72.5 C 241.486,76.97 241.819,81.6367 241.5,86.5C 238.615,86.8064 235.948,86.4731 233.5,85.5C 235.833,85.5 238.167,85.5 240.5,85.5C 240.5,81.1667 240.5,76.8333 240.5,72.5 Z"/></g>
<g><path style="opacity:1" fill="#eae7d5" d="M 380.5,120.5 C 380.897,119.475 381.563,119.308 382.5,120C 385,121.833 387.167,124 389,126.5C 390.348,132.14 388.348,134.473 383,133.5C 382.667,129.833 382.333,126.167 382,122.5C 381.722,121.584 381.222,120.918 380.5,120.5 Z"/></g>
<g><path style="opacity:1" fill="#f9f3f2" d="M 11.5,128.5 C 12.5735,129.251 12.7401,130.251 12,131.5C 11.5172,130.552 11.3505,129.552 11.5,128.5 Z"/></g>
<g><path style="opacity:1" fill="#505f4c" d="M 19.5,113.5 C 22.025,121.595 24.8584,129.595 28,137.5C 31.929,144.007 36.7624,150.34 42.5,156.5C 39.6057,155.118 37.1057,153.118 35,150.5C 26.0009,139.828 20.8343,127.495 19.5,113.5 Z"/></g>
<g><path style="opacity:1" fill="#ede6d3" d="M 371.5,119.5 C 372.765,123.849 372.265,128.182 370,132.5C 367.912,136.524 365.246,137.191 362,134.5C 361.333,133.167 361.333,131.833 362,130.5C 366.467,127.873 369.633,124.206 371.5,119.5 Z"/></g>
<g><path style="opacity:1" fill="#eee8d6" d="M 394.5,119.5 C 400.759,121.235 403.592,125.235 403,131.5C 401.759,133.421 400.259,133.754 398.5,132.5C 397.904,127.883 396.571,123.55 394.5,119.5 Z"/></g>
<g><path style="opacity:1" fill="#ece6d5" d="M 408.5,120.5 C 412.842,120.236 416.675,121.902 420,125.5C 422.335,129.155 421.835,132.321 418.5,135C 417.004,135.507 415.837,135.007 415,133.5C 413.862,128.557 411.695,124.224 408.5,120.5 Z"/></g>
<g><path style="opacity:1" fill="#9d774b" d="M 664.5,122.5 C 664.5,127.167 664.5,131.833 664.5,136.5C 659.18,146.806 652.18,155.806 643.5,163.5C 643.092,162.357 642.425,161.357 641.5,160.5C 639.615,161.609 637.615,162.443 635.5,163C 635.868,164.473 635.368,165.973 634,167.5C 631.213,166.721 628.713,166.721 626.5,167.5C 624.938,167.267 623.605,166.6 622.5,165.5C 621.833,165.5 621.167,165.5 620.5,165.5C 626.647,164.556 632.314,162.223 637.5,158.5C 637.369,159.376 637.702,160.043 638.5,160.5C 645.882,154.615 652.049,147.615 657,139.5C 659.621,133.774 662.121,128.107 664.5,122.5 Z"/></g>
<g><path style="opacity:1" fill="#748773" d="M 59.5,142.5 C 53.3103,135.759 50.8103,127.759 52,118.5C 52.6972,116.416 53.8639,114.749 55.5,113.5C 56.4959,113.586 57.3292,113.252 58,112.5C 59.7055,115.959 59.8722,119.459 58.5,123C 60.3748,129.565 62.3748,135.399 64.5,140.5C 64.7146,144.018 63.8813,144.351 62,141.5C 61.3292,142.252 60.4959,142.586 59.5,142.5 Z"/></g>
<g><path style="opacity:1" fill="#f2f3f2" d="M 16.5,136.5 C 15.8333,137.167 15.8333,137.167 16.5,136.5 Z"/></g>
<g><path style="opacity:1" fill="#cc9f69" d="M 663.5,111.5 C 663.833,111.5 664.167,111.5 664.5,111.5C 664.5,115.167 664.5,118.833 664.5,122.5C 662.121,128.107 659.621,133.774 657,139.5C 652.049,147.615 645.882,154.615 638.5,160.5C 637.702,160.043 637.369,159.376 637.5,158.5C 639.167,157.5 640.5,156.167 641.5,154.5C 652.352,144.474 659.352,132.14 662.5,117.5C 662.517,115.435 662.85,113.435 663.5,111.5 Z"/></g>
<g><path style="opacity:1" fill="#7a5d3a" d="M 18.5,90.5 C 18.1755,97.6866 18.5088,104.687 19.5,111.5C 19.5,112.167 19.5,112.833 19.5,113.5C 20.8343,127.495 26.0009,139.828 35,150.5C 37.1057,153.118 39.6057,155.118 42.5,156.5C 43.3065,157.728 44.3065,158.728 45.5,159.5C 43.365,162.196 43.5317,164.53 46,166.5C 48.7742,165.477 51.6075,165.477 54.5,166.5C 54.5,168.167 54.5,169.833 54.5,171.5C 54.1667,171.5 53.8333,171.5 53.5,171.5C 52.5,171.5 51.5,171.5 50.5,171.5C 44.5783,169.539 39.245,166.539 34.5,162.5C 31.4905,159.126 28.4905,155.792 25.5,152.5C 23.8899,148.9 21.8899,145.566 19.5,142.5C 19.0075,140.181 18.0075,138.181 16.5,136.5C 14.558,131.337 13.2247,126.003 12.5,120.5C 12.5,119.833 12.5,119.167 12.5,118.5C 13.3213,115.359 13.8213,112.025 14,108.5C 14.2565,111.557 14.7565,114.557 15.5,117.5C 15.0688,118.293 14.7355,119.127 14.5,120C 15.1141,122.495 16.1141,122.828 17.5,121C 15.8695,118.58 16.2028,116.58 18.5,115C 16.833,113.177 15.833,111.01 15.5,108.5C 16.0247,102.284 17.0247,96.284 18.5,90.5 Z"/></g>
<g><path style="opacity:1" fill="#f2f3f2" d="M 19.5,142.5 C 19.631,143.239 19.4643,143.906 19,144.5C 18.3083,143.563 18.475,142.897 19.5,142.5 Z"/></g>
<g><path style="opacity:1" fill="#657864" d="M 653.5,93.5 C 654.327,98.6509 654.827,103.984 655,109.5C 655.333,107.167 655.667,104.833 656,102.5C 656.611,104.75 657.944,106.417 660,107.5C 660.758,109.769 660.591,111.936 659.5,114C 660.227,115.399 660.727,116.899 661,118.5C 661.383,117.944 661.883,117.611 662.5,117.5C 659.352,132.14 652.352,144.474 641.5,154.5C 637.545,155.137 634.878,153.637 633.5,150C 636.079,148.924 637.746,147.091 638.5,144.5C 650.459,129.687 655.459,112.687 653.5,93.5 Z"/></g>
<g><path style="opacity:1" fill="#f2f3f2" d="M 20.5,149.5 C 20.8966,148.475 21.5632,148.308 22.5,149C 21.9056,149.464 21.2389,149.631 20.5,149.5 Z"/></g>
<g><path style="opacity:1" fill="#d8b178" d="M 90.5,21.5 C 89.5,22.1667 88.5,22.8333 87.5,23.5C 86.8333,23.5 86.5,23.8333 86.5,24.5C 86.4435,28.5051 85.1101,32.0051 82.5,35C 84.2556,35.2022 85.9223,35.7022 87.5,36.5C 84.5589,37.522 81.5589,38.3554 78.5,39C 73.9369,41.9589 71.9369,46.1256 72.5,51.5C 75.0115,51.162 77.3448,51.162 79.5,51.5C 77.144,54.0217 74.9773,56.6884 73,59.5C 70.1131,59.4337 67.2797,59.767 64.5,60.5C 60.1667,62.8333 56.8333,66.1667 54.5,70.5C 49.6174,79.7443 50.9508,88.0776 58.5,95.5C 60.8599,97.8532 63.5265,99.8532 66.5,101.5C 66.6107,102.117 66.944,102.617 67.5,103C 62.6887,105.649 58.6887,109.149 55.5,113.5C 53.8639,114.749 52.6972,116.416 52,118.5C 50.8103,127.759 53.3103,135.759 59.5,142.5C 61.6205,145.953 64.6205,148.286 68.5,149.5C 70.6776,146.962 72.6776,146.962 74.5,149.5C 74.8504,152.453 73.8504,154.787 71.5,156.5C 71.2639,159.226 72.0972,161.559 74,163.5C 77.1584,166.08 80.4918,168.413 84,170.5C 85.9076,173.206 86.741,176.206 86.5,179.5C 86.5,179.833 86.5,180.167 86.5,180.5C 85.5,180.833 84.8333,181.5 84.5,182.5C 83.8061,179.579 82.9728,176.579 82,173.5C 77.0801,170.584 72.7467,166.918 69,162.5C 68.1632,159.635 67.3298,156.802 66.5,154C 61.1249,154.038 56.1249,152.704 51.5,150C 38.2613,141.05 30.4279,128.55 28,112.5C 24.5702,86.3785 33.7368,66.3785 55.5,52.5C 59.7047,51.0897 64.038,50.423 68.5,50.5C 68.8783,41.9423 73.045,35.9423 81,32.5C 82.2023,29.2265 83.2023,25.8931 84,22.5C 86.0408,21.5769 88.2075,21.2436 90.5,21.5 Z"/></g>
<g><path style="opacity:1" fill="#dcaf72" d="M 57.5,101.5 C 57.5,102.5 57.5,103.5 57.5,104.5C 53.7217,106.484 49.7217,107.317 45.5,107C 40.0337,102.141 41.0337,98.9743 48.5,97.5C 51.924,98.0486 54.924,99.3819 57.5,101.5 Z"/></g>
<g><path style="opacity:1" fill="#708471" d="M 57.5,101.5 C 54.924,99.3819 51.924,98.0486 48.5,97.5C 41.0337,98.9743 40.0337,102.141 45.5,107C 49.7217,107.317 53.7217,106.484 57.5,104.5C 57.9382,104.435 58.2716,104.601 58.5,105C 45.2575,119.154 45.5908,133.154 59.5,147C 61.7173,148.275 64.0506,149.275 66.5,150C 60.1655,150.666 54.4988,148.999 49.5,145C 31.431,127.101 26.2643,105.935 34,81.5C 39.9594,65.6899 51.126,56.3566 67.5,53.5C 67.5,54.5 67.5,55.5 67.5,56.5C 53.0662,61.8084 47.2328,72.1417 50,87.5C 51.5809,93.0864 54.7475,97.5864 59.5,101C 58.9056,101.464 58.2389,101.631 57.5,101.5 Z"/></g>
<g><path style="opacity:1" fill="#f2f3f2" d="M 25.5,152.5 C 25.1034,153.525 24.4368,153.692 23.5,153C 24.0944,152.536 24.7611,152.369 25.5,152.5 Z"/></g>
<g><path style="opacity:1" fill="#b89967" d="M 74.5,149.5 C 75.3019,150.952 75.8019,152.618 76,154.5C 79.5159,156.926 82.8492,159.593 86,162.5C 86.49,163.793 86.6567,165.127 86.5,166.5C 85.448,166.649 84.448,166.483 83.5,166C 80.1806,161.833 76.1806,158.667 71.5,156.5C 73.8504,154.787 74.8504,152.453 74.5,149.5 Z"/></g>
<g><path style="opacity:1" fill="#f9f3f2" d="M 654.5,154.5 C 655.833,155.167 655.833,155.167 654.5,154.5 Z"/></g>
<g><path style="opacity:1" fill="#f2f3f2" d="M 26.5,157.5 C 26.8966,156.475 27.5632,156.308 28.5,157C 27.9056,157.464 27.2389,157.631 26.5,157.5 Z"/></g>
<g><path style="opacity:1" fill="#566b5c" d="M 593.5,168.5 C 597.935,165.243 602.268,161.743 606.5,158C 607.6,157.568 608.267,158.068 608.5,159.5C 608.06,162.214 606.726,164.38 604.5,166C 601.117,167.686 598.117,169.853 595.5,172.5C 594.833,173.167 594.167,173.833 593.5,174.5C 592.293,175.189 590.959,175.355 589.5,175C 590.696,175.654 590.696,176.154 589.5,176.5C 587.314,174.195 584.981,174.195 582.5,176.5C 581.808,175.975 581.308,175.308 581,174.5C 579.513,175.253 579.346,176.086 580.5,177C 578.633,177.711 577.133,177.211 576,175.5C 575.261,176.574 574.261,177.241 573,177.5C 571.342,175.532 569.675,173.532 568,171.5C 567.15,172.424 566.15,172.424 565,171.5C 564.5,171.667 564,171.833 563.5,172C 568.643,176.688 568.31,177.188 562.5,173.5C 560.997,174.59 560.664,175.757 561.5,177C 560.552,177.483 559.552,177.649 558.5,177.5C 558.662,175.473 558.495,173.473 558,171.5C 557.405,173.881 556.905,175.881 556.5,177.5C 553.999,175.827 551.666,173.993 549.5,172C 550.622,170.387 550.122,169.22 548,168.5C 548.43,170.127 548.596,171.627 548.5,173C 547.5,173.333 546.5,173.667 545.5,174C 546.696,174.654 546.696,175.154 545.5,175.5C 544.033,175.277 542.533,174.944 541,174.5C 539.364,178.011 538.197,178.344 537.5,175.5C 534.296,178.265 531.463,177.931 529,174.5C 528.333,175.167 527.667,175.833 527,176.5C 525,175.167 523,175.167 521,176.5C 520.64,174.579 519.806,172.912 518.5,171.5C 517.914,171.709 517.414,172.043 517,172.5C 515.796,171.141 514.296,170.141 512.5,169.5C 513.167,169.167 513.833,168.833 514.5,168.5C 512.96,167.468 512.46,166.135 513,164.5C 513.423,165.956 514.256,166.456 515.5,166C 514.483,164.951 514.316,163.784 515,162.5C 515.508,164.904 516.675,165.571 518.5,164.5C 517.189,163.742 516.689,162.742 517,161.5C 518.751,162.174 520.417,162.507 522,162.5C 522.805,160.099 523.638,160.266 524.5,163C 522.866,163.494 521.199,163.66 519.5,163.5C 520.576,164.379 521.41,166.046 522,168.5C 522.333,167.833 522.667,167.167 523,166.5C 523.827,169.416 525.494,170.083 528,168.5C 528.945,168.905 529.612,169.572 530,170.5C 530.333,169.5 530.667,168.5 531,167.5C 531.11,170.646 532.443,171.646 535,170.5C 535.333,171.167 535.667,171.833 536,172.5C 537.667,170.5 539.333,168.5 541,166.5C 542.113,167.76 542.28,168.927 541.5,170C 542.667,170.5 543.5,171.333 544,172.5C 544.684,171.216 544.517,170.049 543.5,169C 544.167,168.667 544.833,168.333 545.5,168C 544.643,167.311 543.977,166.478 543.5,165.5C 544.902,164.158 544.569,163.324 542.5,163C 543.667,162.5 544.5,161.667 545,160.5C 546.113,161.711 547.28,161.711 548.5,160.5C 550.207,156.864 551.374,156.864 552,160.5C 552.833,159 554,157.833 555.5,157C 554.551,156.383 553.718,156.549 553,157.5C 552.683,155.699 552.016,155.366 551,156.5C 550.544,155.256 551.044,154.423 552.5,154C 551.333,153.5 550.5,152.667 550,151.5C 549.275,153.158 548.108,153.658 546.5,153C 547.308,152.692 547.975,152.192 548.5,151.5C 547.167,150.5 547.167,149.5 548.5,148.5C 547.975,147.808 547.308,147.308 546.5,147C 548.224,146.552 548.891,145.718 548.5,144.5C 549.814,145.313 550.981,146.313 552,147.5C 552.359,144.456 553.026,144.122 554,146.5C 554.085,144.915 554.251,143.582 554.5,142.5C 555.429,143.689 555.762,145.022 555.5,146.5C 559.637,146.779 561.137,148.779 560,152.5C 561,150.5 562,148.5 563,146.5C 563.667,147.833 564.333,147.833 565,146.5C 565.333,147.167 565.667,147.833 566,148.5C 567.073,147.72 568.24,147.887 569.5,149C 566.054,149.704 566.054,151.037 569.5,153C 568.833,153.333 568.167,153.667 567.5,154C 569.441,154.743 571.274,154.576 573,153.5C 573.833,154.5 574.667,155.5 575.5,156.5C 575.109,155.282 575.776,154.448 577.5,154C 575.962,150.028 576.962,149.028 580.5,151C 579.346,151.914 579.513,152.747 581,153.5C 581.84,150.772 583.173,149.105 585,148.5C 586.824,149.749 586.657,150.915 584.5,152C 586.473,152.495 588.473,152.662 590.5,152.5C 590.286,154.144 590.62,155.644 591.5,157C 590.833,157.667 590.167,158.333 589.5,159C 590.711,159.787 591.711,160.454 592.5,161C 592.095,161.945 591.428,162.612 590.5,163C 590.833,163.333 591.167,163.667 591.5,164C 589.369,165.647 587.369,165.314 585.5,163C 586.925,161.286 586.592,159.953 584.5,159C 585.167,158.667 585.833,158.333 586.5,158C 584.256,155.651 583.089,156.151 583,159.5C 582.784,157.616 582.117,155.949 581,154.5C 580.5,155 580,155.5 579.5,156C 581.559,157.185 581.726,158.352 580,159.5C 577.648,159.265 575.148,159.099 572.5,159C 571.789,157.745 570.956,156.579 570,155.5C 569.5,156 569,156.5 568.5,157C 570.929,157.451 571.096,158.285 569,159.5C 568.189,158.04 567.355,157.707 566.5,158.5C 569.719,161.038 572.886,163.704 576,166.5C 577.583,166.507 579.249,166.174 581,165.5C 582.74,166.716 583.74,168.382 584,170.5C 584.667,169.167 585.667,168.167 587,167.5C 588.685,169.988 590.019,169.655 591,166.5C 591.175,169.38 589.675,170.88 586.5,171C 587.416,171.374 588.25,171.874 589,172.5C 590.759,171.035 592.926,170.202 595.5,170C 594.584,169.722 593.918,169.222 593.5,168.5 Z"/></g>
<g><path style="opacity:1" fill="#f2f3f2" d="M 34.5,162.5 C 34.1034,163.525 33.4368,163.692 32.5,163C 33.0944,162.536 33.7611,162.369 34.5,162.5 Z"/></g>
<g><path style="opacity:1" fill="#f2f3f2" d="M 645.5,163.5 C 646.833,164.167 646.833,164.167 645.5,163.5 Z"/></g>
<g><path style="opacity:1" fill="#f9f3f2" d="M 642.5,166.5 C 643.833,167.167 643.833,167.167 642.5,166.5 Z"/></g>
<g><path style="opacity:1" fill="#7b5c3a" d="M 643.5,163.5 C 640.983,167.595 637.316,169.928 632.5,170.5C 630.447,170.402 628.78,171.069 627.5,172.5C 627.167,172.5 626.833,172.5 626.5,172.5C 626.5,170.833 626.5,169.167 626.5,167.5C 628.713,166.721 631.213,166.721 634,167.5C 635.368,165.973 635.868,164.473 635.5,163C 637.615,162.443 639.615,161.609 641.5,160.5C 642.425,161.357 643.092,162.357 643.5,163.5 Z"/></g>
<g><path style="opacity:1" fill="#ab895f" d="M 57.5,180.5 C 55.2295,178.388 53.8961,175.721 53.5,172.5C 53.5,172.167 53.5,171.833 53.5,171.5C 53.8333,171.5 54.1667,171.5 54.5,171.5C 55.3019,170.048 55.8019,168.382 56,166.5C 56.8373,164.993 58.0039,164.493 59.5,165C 58.6425,168.76 58.6425,172.594 59.5,176.5C 58.448,176.351 57.448,176.517 56.5,177C 57.3366,178.011 57.67,179.178 57.5,180.5 Z"/></g>
<g><path style="opacity:1" fill="#f0efed" d="M 50.5,171.5 C 51.5,171.5 52.5,171.5 53.5,171.5C 53.5,171.833 53.5,172.167 53.5,172.5C 52.4104,174.763 51.0771,174.93 49.5,173C 50.056,172.617 50.3893,172.117 50.5,171.5 Z"/></g>
<g><path style="opacity:1" fill="#ece8e5" d="M 632.5,170.5 C 631.402,171.397 631.402,172.23 632.5,173C 631.234,173.309 630.067,173.809 629,174.5C 628.722,173.584 628.222,172.918 627.5,172.5C 628.78,171.069 630.447,170.402 632.5,170.5 Z"/></g>
<g><path style="opacity:1" fill="#d8af72" d="M 620.5,165.5 C 621.167,165.5 621.833,165.5 622.5,165.5C 622.424,169.229 621.257,172.562 619,175.5C 618.536,174.906 618.369,174.239 618.5,173.5C 619.475,170.933 620.142,168.267 620.5,165.5 Z"/></g>
<g><path style="opacity:1" fill="#445e53" d="M 595.5,172.5 C 595.007,174.806 594.674,177.139 594.5,179.5C 430.5,179.5 266.5,179.5 102.5,179.5C 265.999,178.5 429.666,178.167 593.5,178.5C 593.5,177.167 593.5,175.833 593.5,174.5C 594.167,173.833 594.833,173.167 595.5,172.5 Z"/></g>
<g><path style="opacity:1" fill="#968b65" d="M 102.5,179.5 C 266.5,179.5 430.5,179.5 594.5,179.5C 594.5,179.833 594.5,180.167 594.5,180.5C 425.167,180.5 255.833,180.5 86.5,180.5C 86.5,180.167 86.5,179.833 86.5,179.5C 87.5,179.5 88.5,179.5 89.5,179.5C 89.5,178.167 89.5,176.833 89.5,175.5C 94.1274,175.775 98.4607,177.108 102.5,179.5 Z"/></g>
<g><path style="opacity:1" fill="#a4876a" d="M 626.5,172.5 C 626.833,172.5 627.167,172.5 627.5,172.5C 627.54,175.425 626.707,178.091 625,180.5C 622.318,182.585 619.484,184.252 616.5,185.5C 616.167,185.5 615.833,185.5 615.5,185.5C 615.167,185.5 614.833,185.5 614.5,185.5C 614.586,184.504 614.252,183.671 613.5,183C 615.107,183.019 616.774,183.185 618.5,183.5C 618.5,182.5 618.5,181.5 618.5,180.5C 619.873,180.657 621.207,180.49 622.5,180C 624.499,177.745 625.832,175.245 626.5,172.5 Z"/></g>
<g><path style="opacity:1" fill="#e8be7b" d="M 597.5,181.5 C 597.5,182.167 597.167,182.5 596.5,182.5C 425.833,182.5 255.167,182.5 84.5,182.5C 84.8333,181.5 85.5,180.833 86.5,180.5C 255.833,180.5 425.167,180.5 594.5,180.5C 595.496,180.586 596.329,180.252 597,179.5C 597.464,180.094 597.631,180.761 597.5,181.5 Z"/></g>
<g><path style="opacity:1" fill="#53695a" d="M 595.5,183.5 C 589.099,184.184 582.599,184.85 576,185.5C 562.416,184.754 549.083,184.421 536,184.5C 532.861,186.425 529.528,186.425 526,184.5C 520.483,185.281 514.983,185.447 509.5,185C 511.883,185.065 512.55,185.898 511.5,187.5C 512.167,188.167 512.833,188.833 513.5,189.5C 525.66,190.167 537.66,190.833 549.5,191.5C 392.166,191.667 234.833,191.5 77.5,191C 76.7476,190.329 76.4142,189.496 76.5,188.5C 80.6424,188.097 84.6424,187.097 88.5,185.5C 90.2843,186.156 91.951,186.656 93.5,187C 92.3659,185.984 92.6992,185.317 94.5,185C 91.1667,184.667 87.8333,184.333 84.5,184C 254.833,183.5 425.166,183.333 595.5,183.5 Z"/></g>
<g><path style="opacity:1" fill="#576e5c" d="M 638.5,144.5 C 637.746,147.091 636.079,148.924 633.5,150C 634.878,153.637 637.545,155.137 641.5,154.5C 640.5,156.167 639.167,157.5 637.5,158.5C 632.314,162.223 626.647,164.556 620.5,165.5C 620.142,168.267 619.475,170.933 618.5,173.5C 616.021,175.539 613.354,177.206 610.5,178.5C 609.883,178.611 609.383,178.944 609,179.5C 608.1,183.171 607.266,186.837 606.5,190.5C 605.833,190.833 605.167,191.167 604.5,191.5C 586.167,191.5 567.833,191.5 549.5,191.5C 537.66,190.833 525.66,190.167 513.5,189.5C 512.833,188.833 512.167,188.167 511.5,187.5C 512.55,185.898 511.883,185.065 509.5,185C 514.983,185.447 520.483,185.281 526,184.5C 529.528,186.425 532.861,186.425 536,184.5C 549.083,184.421 562.416,184.754 576,185.5C 582.599,184.85 589.099,184.184 595.5,183.5C 596.167,183.5 596.5,183.167 596.5,182.5C 597.167,182.5 597.5,182.167 597.5,181.5C 598.314,179.369 598.814,177.036 599,174.5C 602.667,171.5 606.333,168.5 610,165.5C 611.644,161.78 612.81,157.947 613.5,154C 623.06,153.911 631.393,150.745 638.5,144.5 Z"/></g>
<g><path style="opacity:1" fill="#f2efed" d="M 64.5,184.5 C 65.8333,184.5 66.5,185.167 66.5,186.5C 62.7554,187.812 62.0888,187.146 64.5,184.5 Z"/></g>
<g><path style="opacity:1" fill="#ddad76" d="M 610.5,178.5 C 611.208,183.417 610.041,188.084 607,192.5C 606.536,191.906 606.369,191.239 606.5,190.5C 607.266,186.837 608.1,183.171 609,179.5C 609.383,178.944 609.883,178.611 610.5,178.5 Z"/></g>
<g><path style="opacity:1" fill="#f2f3f2" d="M 616.5,185.5 C 617.525,185.897 617.692,186.563 617,187.5C 616.536,186.906 616.369,186.239 616.5,185.5 Z"/></g>
<g><path style="opacity:1" fill="#e9e0d8" d="M 614.5,185.5 C 614.833,185.5 615.167,185.5 615.5,185.5C 615.357,187.262 615.691,188.929 616.5,190.5C 615.452,191.548 614.452,192.548 613.5,193.5C 614.092,190.873 614.425,188.206 614.5,185.5 Z"/></g>
<g><path style="opacity:1" fill="#434a3b" d="M 73.5,180.5 C 74.7487,183.087 75.7487,185.754 76.5,188.5C 76.4142,189.496 76.7476,190.329 77.5,191C 234.833,191.5 392.166,191.667 549.5,191.5C 567.833,191.5 586.167,191.5 604.5,191.5C 604.5,192.167 604.167,192.5 603.5,192.5C 429.167,192.5 254.833,192.5 80.5,192.5C 78.8561,192.714 77.3561,192.38 76,191.5C 74.5936,187.969 73.7603,184.302 73.5,180.5 Z"/></g>
<g><path style="opacity:1" fill="#906d3e" d="M 80.5,193.5 C 80.5,193.167 80.5,192.833 80.5,192.5C 254.833,192.5 429.167,192.5 603.5,192.5C 592.474,193.197 581.308,193.864 570,194.5C 481.529,193.504 393.029,193.171 304.5,193.5C 229.833,193.5 155.167,193.5 80.5,193.5 Z"/></g>
<g><path style="opacity:1" fill="#f2f3f2" d="M 67.5,194.5 C 66.8333,195.167 66.8333,195.167 67.5,194.5 Z"/></g>
<g><path style="opacity:1" fill="#a07745" d="M 622.5,165.5 C 623.605,166.6 624.938,167.267 626.5,167.5C 626.5,169.167 626.5,170.833 626.5,172.5C 625.832,175.245 624.499,177.745 622.5,180C 621.207,180.49 619.873,180.657 618.5,180.5C 618.5,181.5 618.5,182.5 618.5,183.5C 616.774,183.185 615.107,183.019 613.5,183C 614.252,183.671 614.586,184.504 614.5,185.5C 614.425,188.206 614.092,190.873 613.5,193.5C 613.262,195.404 612.262,196.738 610.5,197.5C 609.766,196.292 609.433,194.959 609.5,193.5C 606.432,193.547 603.432,194.047 600.5,195C 558.929,195.17 517.429,195.67 476,196.5C 344.404,196.644 212.904,196.311 81.5,195.5C 155.167,195.667 228.834,195.5 302.5,195C 303.416,194.722 304.082,194.222 304.5,193.5C 393.029,193.171 481.529,193.504 570,194.5C 581.308,193.864 592.474,193.197 603.5,192.5C 604.167,192.5 604.5,192.167 604.5,191.5C 605.167,191.167 605.833,190.833 606.5,190.5C 606.369,191.239 606.536,191.906 607,192.5C 610.041,188.084 611.208,183.417 610.5,178.5C 613.354,177.206 616.021,175.539 618.5,173.5C 618.369,174.239 618.536,174.906 619,175.5C 621.257,172.562 622.424,169.229 622.5,165.5 Z"/></g>
<g><path style="opacity:1" fill="#85643d" d="M 45.5,159.5 C 49.9599,162.688 54.9599,164.188 60.5,164C 62.3442,170.511 66.3442,175.178 72.5,178C 73.2524,178.671 73.5858,179.504 73.5,180.5C 73.7603,184.302 74.5936,187.969 76,191.5C 77.3561,192.38 78.8561,192.714 80.5,192.5C 80.5,192.833 80.5,193.167 80.5,193.5C 78.2071,194.301 78.5404,194.968 81.5,195.5C 212.904,196.311 344.404,196.644 476,196.5C 517.429,195.67 558.929,195.17 600.5,195C 603.432,194.047 606.432,193.547 609.5,193.5C 609.433,194.959 609.766,196.292 610.5,197.5C 609.942,198.79 608.942,199.623 607.5,200C 429.5,200.667 251.5,200.667 73.5,200C 70.9774,198.64 68.9774,196.807 67.5,194.5C 66.9084,191.873 66.5751,189.206 66.5,186.5C 66.5,185.167 65.8333,184.5 64.5,184.5C 61.4542,184.275 59.1209,182.942 57.5,180.5C 57.67,179.178 57.3366,178.011 56.5,177C 57.448,176.517 58.448,176.351 59.5,176.5C 58.6425,172.594 58.6425,168.76 59.5,165C 58.0039,164.493 56.8373,164.993 56,166.5C 55.8019,168.382 55.3019,170.048 54.5,171.5C 54.5,169.833 54.5,168.167 54.5,166.5C 51.6075,165.477 48.7742,165.477 46,166.5C 43.5317,164.53 43.365,162.196 45.5,159.5 Z"/></g>
<g><path style="opacity:1" fill="#b18650" d="M 80.5,193.5 C 155.167,193.5 229.833,193.5 304.5,193.5C 304.082,194.222 303.416,194.722 302.5,195C 228.834,195.5 155.167,195.667 81.5,195.5C 78.5404,194.968 78.2071,194.301 80.5,193.5 Z"/></g>
</svg>
