<?xml version="1.0" encoding="UTF-8"?>
<!DOCTYPE svg PUBLIC "-//W3C//DTD SVG 1.1//EN" "http://www.w3.org/Graphics/SVG/1.1/DTD/svg11.dtd">
<svg xmlns="http://www.w3.org/2000/svg" version="1.1" width="2172px" height="724px" style="shape-rendering:geometricPrecision; text-rendering:geometricPrecision; image-rendering:optimizeQuality; fill-rule:evenodd; clip-rule:evenodd" xmlns:xlink="http://www.w3.org/1999/xlink">
<g><path style="opacity:1" fill="#030303" d="M 470.5,299.5 C 468.19,298.836 465.69,298.503 463,298.5C 459.195,298.304 455.695,298.97 452.5,300.5C 442.398,303.151 432.065,304.651 421.5,305C 415.568,306.65 409.568,307.983 403.5,309C 402.09,309.368 401.09,310.201 400.5,311.5C 401.972,314.149 402.972,316.982 403.5,320C 425.876,327.524 447.209,337.191 467.5,349C 492.404,356.893 517.738,363.226 543.5,368C 556.255,371.916 567.921,377.916 578.5,386C 584.628,394.27 584.961,402.77 579.5,411.5C 573.179,413.926 566.846,413.759 560.5,411C 554.167,410.333 547.833,410.333 541.5,411C 535.126,413.569 528.626,415.736 522,417.5C 518.204,417.123 514.704,415.957 511.5,414C 508.167,413.667 504.833,413.333 501.5,413C 486.027,403.532 471.694,392.532 458.5,380C 442.969,369.474 428.302,357.808 414.5,345C 410.446,341.473 405.78,339.306 400.5,338.5C 399.411,356.832 399.244,375.166 400,393.5C 399.158,399.018 397.325,404.184 394.5,409C 394.833,409.5 395.167,410 395.5,410.5C 405.278,407.191 414.611,403.024 423.5,398C 429.809,395.705 435.809,396.372 441.5,400C 446.991,404.246 452.658,408.246 458.5,412C 465.821,418.616 469.321,426.783 469,436.5C 467.333,438.833 465.667,441.167 464,443.5C 464.197,479.169 464.53,514.836 465,550.5C 463.253,553.21 462.253,556.21 462,559.5C 459.995,562.87 457.995,566.204 456,569.5C 452.077,579.417 444.91,585.917 434.5,589C 429.883,590.297 426.05,589.13 423,585.5C 419.274,580.772 415.941,575.772 413,570.5C 412.06,565.952 410.06,561.952 407,558.5C 405.964,555.247 405.297,551.914 405,548.5C 403.178,546.955 401.011,546.288 398.5,546.5C 382.745,548.098 367.079,550.265 351.5,553C 350.658,558.71 348.325,563.71 344.5,568C 340.961,569.617 337.294,570.283 333.5,570C 330.898,569.023 328.398,567.856 326,566.5C 318.305,554.083 313.805,540.583 312.5,526C 313.913,518.421 315.746,510.921 318,503.5C 318.359,489.328 318.859,475.161 319.5,461C 318.212,449.151 316.878,437.317 315.5,425.5C 323.612,424.466 331.112,426.133 338,430.5C 347.089,426.077 356.256,421.744 365.5,417.5C 365.833,416.833 366.167,416.167 366.5,415.5C 364.705,410.655 363.705,405.655 363.5,400.5C 364.707,387.47 364.373,374.47 362.5,361.5C 349.145,374.688 336.312,388.355 324,402.5C 320.606,406.898 317.606,411.565 315,416.5C 298.037,429.738 281.537,443.572 265.5,458C 256.584,463.243 247.917,468.909 239.5,475C 224.947,481.624 210.613,488.624 196.5,496C 188.266,497.439 185.433,494.272 188,486.5C 191.131,482.367 194.631,478.534 198.5,475C 202.167,474.667 205.833,474.333 209.5,474C 233.844,455.665 257.011,435.831 279,414.5C 289.707,402.795 300.041,390.795 310,378.5C 322.782,360.717 335.949,343.217 349.5,326C 344.127,326.327 338.794,327.327 333.5,329C 310.75,338.872 289.083,350.538 268.5,364C 260.358,367.114 253.025,365.947 246.5,360.5C 240.857,353.023 235.024,345.689 229,338.5C 225.183,331.003 226.683,324.836 233.5,320C 235.278,319.296 237.112,318.796 239,318.5C 247.006,321.652 255.173,322.152 263.5,320C 296.999,311.831 329.666,301.498 361.5,289C 362.333,288.167 363.167,287.333 364,286.5C 364.667,278.167 364.667,269.833 364,261.5C 363.64,259.392 362.973,257.392 362,255.5C 358.934,252.604 356.101,249.604 353.5,246.5C 348.602,245.784 343.936,246.784 339.5,249.5C 326.203,252.654 313.036,256.321 300,260.5C 294.18,258.996 292.18,255.329 294,249.5C 319.341,235.242 344.174,220.076 368.5,204C 374.667,197.833 380.833,191.667 387,185.5C 387.667,184.167 387.667,182.833 387,181.5C 382.428,178.299 381.594,174.466 384.5,170C 388.743,168.197 393.077,166.697 397.5,165.5C 400.581,166.027 403.581,166.86 406.5,168C 413.771,172.409 421.438,176.075 429.5,179C 442.012,188.56 446.845,201.06 444,216.5C 442.895,219.937 440.728,222.437 437.5,224C 428.504,224.714 419.504,225.381 410.5,226C 403.167,229 395.833,232 388.5,235C 385.924,235.782 383.924,237.282 382.5,239.5C 389.788,243.747 396.288,249.08 402,255.5C 401.5,262.508 401.667,269.508 402.5,276.5C 415.376,274.359 428.043,271.526 440.5,268C 442.754,264.413 445.754,261.413 449.5,259C 467.267,255.26 482.433,259.76 495,272.5C 500.998,279.48 501.998,287.147 498,295.5C 495.374,298.231 492.207,300.064 488.5,301C 482.445,301.198 476.445,300.698 470.5,299.5 Z"/></g>
<g><path style="opacity:1" fill="#afafb0" d="M 353.5,246.5 C 348.833,247.5 344.167,248.5 339.5,249.5C 343.936,246.784 348.602,245.784 353.5,246.5 Z"/></g>
<g><path style="opacity:1" fill="#10100f" d="M 740.5,279.5 C 740.5,353.833 740.5,428.167 740.5,502.5C 737.5,502.5 734.5,502.5 731.5,502.5C 731.5,428.167 731.5,353.833 731.5,279.5C 734.5,279.5 737.5,279.5 740.5,279.5 Z"/></g>
<g><path style="opacity:1" fill="#070707" d="M 1899.5,312.5 C 1898.51,322.319 1898.17,332.319 1898.5,342.5C 1901.71,342.81 1904.71,342.477 1907.5,341.5C 1910.91,341.543 1914.24,341.043 1917.5,340C 1919.46,337.252 1921.29,334.418 1923,331.5C 1924.12,329.876 1925.62,328.876 1927.5,328.5C 1934.12,331.476 1940.45,334.976 1946.5,339C 1949.21,340.864 1950.04,343.364 1949,346.5C 1946.29,348.871 1943.96,351.537 1942,354.5C 1941.67,374.506 1941.67,394.506 1942,414.5C 1939.71,419.413 1935.88,422.579 1930.5,424C 1927.28,425.525 1923.95,426.192 1920.5,426C 1919.75,425.329 1919.41,424.496 1919.5,423.5C 1919.5,419.833 1919.5,416.167 1919.5,412.5C 1916.29,412.19 1913.29,412.523 1910.5,413.5C 1906.56,413.207 1902.73,413.54 1899,414.5C 1898.62,439.528 1898.95,464.528 1900,489.5C 1898.15,492.711 1896.48,496.044 1895,499.5C 1891.78,502.895 1887.95,505.228 1883.5,506.5C 1881.23,506.069 1879.73,504.736 1879,502.5C 1877.92,497.415 1877.42,492.248 1877.5,487C 1877.84,477.139 1878.5,467.306 1879.5,457.5C 1880.5,443.677 1880.83,429.677 1880.5,415.5C 1877.61,415.194 1874.95,415.527 1872.5,416.5C 1869.17,416.5 1865.83,416.5 1862.5,416.5C 1862.4,426.779 1857.24,433.112 1847,435.5C 1845.29,435.561 1843.96,434.894 1843,433.5C 1842.03,429.903 1841.53,426.236 1841.5,422.5C 1844.82,397.234 1845.32,371.901 1843,346.5C 1841.85,343.232 1841.02,339.899 1840.5,336.5C 1847.89,338.187 1854.89,341.021 1861.5,345C 1867.5,345.3 1873.5,345.134 1879.5,344.5C 1880.68,330.169 1880.68,315.835 1879.5,301.5C 1878.22,298.148 1877.39,294.815 1877,291.5C 1886.74,290.918 1895.91,293.251 1904.5,298.5C 1905.64,300.421 1905.81,302.421 1905,304.5C 1902.1,306.546 1900.26,309.213 1899.5,312.5 Z"/></g>
<g><path style="opacity:1" fill="#070606" d="M 1080.5,322.5 C 1079.54,324.265 1079.21,326.265 1079.5,328.5C 1083.37,328.815 1087.04,328.482 1090.5,327.5C 1093.64,324.192 1096.64,320.692 1099.5,317C 1100.83,316.333 1102.17,316.333 1103.5,317C 1107.33,320.167 1111.17,323.333 1115,326.5C 1116.63,328.955 1116.8,331.455 1115.5,334C 1103.46,334.432 1091.46,335.265 1079.5,336.5C 1079.34,338.527 1079.5,340.527 1080,342.5C 1083.2,346.036 1086.7,349.203 1090.5,352C 1102.26,357.883 1114.26,363.216 1126.5,368C 1127.83,369.333 1127.83,370.667 1126.5,372C 1119.81,373.667 1114.14,377 1109.5,382C 1107.3,383.373 1104.97,383.706 1102.5,383C 1099.37,380.872 1096.54,378.372 1094,375.5C 1088.88,366.928 1084.05,358.261 1079.5,349.5C 1078.67,361.486 1078.17,373.486 1078,385.5C 1077.35,388.139 1076.18,390.473 1074.5,392.5C 1070.98,394.426 1067.31,396.093 1063.5,397.5C 1062.52,397.023 1061.69,396.357 1061,395.5C 1059.99,392.425 1059.49,389.258 1059.5,386C 1060.61,377.49 1060.61,368.99 1059.5,360.5C 1047.89,371.946 1034.56,380.779 1019.5,387C 1018.36,387.749 1017.36,387.583 1016.5,386.5C 1025.81,378.688 1034.65,370.354 1043,361.5C 1045.42,357.656 1048.09,353.99 1051,350.5C 1053.15,346.559 1054.98,342.559 1056.5,338.5C 1050.5,339.337 1044.5,339.837 1038.5,340C 1036.83,337.667 1035.17,335.333 1033.5,333C 1041.18,331.866 1048.85,331.033 1056.5,330.5C 1057.83,330.5 1059.17,330.5 1060.5,330.5C 1061.72,317.209 1061.72,304.042 1060.5,291C 1065.24,290.274 1069.91,290.607 1074.5,292C 1078.54,293.773 1082.38,295.94 1086,298.5C 1086.7,302.76 1085.03,305.76 1081,307.5C 1080.5,312.489 1080.33,317.489 1080.5,322.5 Z"/></g>
<g><path style="opacity:1" fill="#060606" d="M 1317.5,329.5 C 1316.51,333.97 1316.18,338.637 1316.5,343.5C 1323.35,343.824 1330.02,343.491 1336.5,342.5C 1344.86,342.474 1353.19,341.974 1361.5,341C 1365.41,335.588 1370.08,331.088 1375.5,327.5C 1382.65,331.141 1388.82,336.141 1394,342.5C 1394.82,344.701 1394.32,346.534 1392.5,348C 1368.78,348.982 1345.12,350.315 1321.5,352C 1332.2,361.354 1344.2,368.688 1357.5,374C 1377.99,381.429 1398.83,387.596 1420,392.5C 1420.68,393.784 1420.52,394.951 1419.5,396C 1408.16,399.501 1397.83,404.835 1388.5,412C 1383.65,411.753 1378.98,410.587 1374.5,408.5C 1365.22,403.189 1356.22,397.356 1347.5,391C 1340.06,382.618 1333.23,373.785 1327,364.5C 1323.98,361.317 1320.82,358.317 1317.5,355.5C 1316.97,369.248 1316.13,382.915 1315,396.5C 1310.32,400.942 1304.82,403.442 1298.5,404C 1298,403.5 1297.5,403 1297,402.5C 1296.5,398.848 1296.33,395.182 1296.5,391.5C 1297.82,384.323 1297.82,376.99 1296.5,369.5C 1295.89,369.624 1295.56,369.957 1295.5,370.5C 1284.41,379.421 1273.74,388.921 1263.5,399C 1258.59,401.942 1253.93,405.109 1249.5,408.5C 1239.67,413.578 1229.67,418.412 1219.5,423C 1211.72,426.094 1203.72,428.26 1195.5,429.5C 1195.28,428.325 1195.61,427.325 1196.5,426.5C 1231.48,409.536 1260.81,385.536 1284.5,354.5C 1264.38,354.081 1244.38,355.747 1224.5,359.5C 1222.62,359.124 1221.12,358.124 1220,356.5C 1219.05,354.545 1217.71,352.878 1216,351.5C 1215.52,350.552 1215.35,349.552 1215.5,348.5C 1242.5,347.381 1269.5,346.214 1296.5,345C 1297.66,337.555 1297.66,330.055 1296.5,322.5C 1282.53,324.312 1268.53,325.979 1254.5,327.5C 1252.5,327.167 1250.5,326.833 1248.5,326.5C 1248.71,325.914 1249.04,325.414 1249.5,325C 1276.12,317.941 1301.78,308.608 1326.5,297C 1328.5,295 1330.5,293 1332.5,291C 1334.83,290.333 1337.17,290.333 1339.5,291C 1346.24,295.07 1352.41,299.904 1358,305.5C 1360,308.574 1359.84,311.407 1357.5,314C 1342.84,315.83 1328.17,317.664 1313.5,319.5C 1313.66,321.824 1314.83,323.491 1317,324.5C 1317.49,326.134 1317.66,327.801 1317.5,329.5 Z"/></g>
<g><path style="opacity:1" fill="#0a0a0a" d="M 1005.5,321.5 C 1004.19,324.687 1004.19,328.02 1005.5,331.5C 1006.11,331.376 1006.44,331.043 1006.5,330.5C 1009.84,327.322 1013.34,324.322 1017,321.5C 1020.93,323.601 1024.43,326.268 1027.5,329.5C 1028.69,330.857 1029.69,332.357 1030.5,334C 1030.36,334.772 1030.02,335.439 1029.5,336C 1021.23,337.288 1012.9,338.122 1004.5,338.5C 1004.5,342.5 1004.5,346.5 1004.5,350.5C 1011.7,351.131 1018.36,353.297 1024.5,357C 1028.67,360.854 1029.5,365.354 1027,370.5C 1024.59,373.792 1021.42,374.959 1017.5,374C 1013.85,367.84 1009.85,362.007 1005.5,356.5C 1005.44,355.957 1005.11,355.624 1004.5,355.5C 1003.51,360.456 1003.17,365.456 1003.5,370.5C 1003.67,377.175 1003.5,383.842 1003,390.5C 1000.64,396.067 996.809,400.233 991.5,403C 989.866,403.494 988.199,403.66 986.5,403.5C 984.14,401.01 983.14,398.01 983.5,394.5C 984.419,386.151 985.419,377.818 986.5,369.5C 986.167,368.833 985.833,368.167 985.5,367.5C 971.691,382.645 955.024,393.312 935.5,399.5C 935.33,398.178 935.663,397.011 936.5,396C 957.243,382.29 973.243,364.457 984.5,342.5C 985.043,342.44 985.376,342.107 985.5,341.5C 982.691,340.2 980.024,340.2 977.5,341.5C 969.605,341.966 961.771,342.966 954,344.5C 950.372,342.585 948.205,339.585 947.5,335.5C 960.505,335.318 973.505,334.985 986.5,334.5C 986.666,324.161 986.5,313.828 986,303.5C 983.654,301.294 983.154,298.794 984.5,296C 993.921,295.433 1002.42,297.933 1010,303.5C 1010.76,306.987 1009.59,309.654 1006.5,311.5C 1005.51,314.768 1005.18,318.102 1005.5,321.5 Z"/></g>
<g><path style="opacity:1" fill="#070707" d="M 1552.5,312.5 C 1551.18,319.011 1551.18,325.678 1552.5,332.5C 1553.11,332.376 1553.44,332.043 1553.5,331.5C 1561.99,327.569 1568.99,321.735 1574.5,314C 1577.21,313.683 1579.54,314.516 1581.5,316.5C 1584.39,317.879 1586.89,319.879 1589,322.5C 1589.9,325.025 1589.4,327.192 1587.5,329C 1576.08,331.618 1564.75,334.618 1553.5,338C 1553,338.5 1552.5,339 1552,339.5C 1548.74,349.892 1552.41,354.559 1563,353.5C 1568.03,353.754 1572.87,352.921 1577.5,351C 1580,347.162 1581.83,342.996 1583,338.5C 1584.08,336.606 1585.41,336.273 1587,337.5C 1587.33,341.167 1587.67,344.833 1588,348.5C 1590.89,350.608 1593.56,352.941 1596,355.5C 1596.63,357.635 1596.3,359.635 1595,361.5C 1592.7,363.068 1590.2,364.235 1587.5,365C 1573.56,366.994 1559.56,367.661 1545.5,367C 1544.1,366.59 1542.77,366.09 1541.5,365.5C 1538.1,363.053 1535.93,359.72 1535,355.5C 1534.67,338.5 1534.33,321.5 1534,304.5C 1533.15,302.99 1532.32,301.49 1531.5,300C 1532.23,298.008 1533.73,297.174 1536,297.5C 1542.76,298.48 1549.26,300.314 1555.5,303C 1556.58,304.726 1556.74,306.559 1556,308.5C 1554.62,309.705 1553.46,311.038 1552.5,312.5 Z"/></g>
<g><path style="opacity:1" fill="#070707" d="M 1781.5,296.5 C 1793.38,296.516 1804.21,299.85 1814,306.5C 1816.15,315.714 1813.31,323.214 1805.5,329C 1800.93,331.375 1796.76,330.875 1793,327.5C 1791.2,320.903 1789.54,314.236 1788,307.5C 1785.27,304.016 1783.1,300.35 1781.5,296.5 Z"/></g>
<g><path style="opacity:1" fill="#a0a1a1" d="M 470.5,299.5 C 464.464,299.36 458.464,299.693 452.5,300.5C 455.695,298.97 459.195,298.304 463,298.5C 465.69,298.503 468.19,298.836 470.5,299.5 Z"/></g>
<g><path style="opacity:1" fill="#090909" d="M 1639.5,364.5 C 1634.52,368.298 1629.69,368.298 1625,364.5C 1624.2,359.519 1622.54,354.852 1620,350.5C 1616.66,345.992 1612.82,341.992 1608.5,338.5C 1609,337.119 1610,336.453 1611.5,336.5C 1617.34,337.143 1623.17,337.81 1629,338.5C 1634.12,332.862 1638.29,326.529 1641.5,319.5C 1626.97,319.003 1612.63,320.67 1598.5,324.5C 1595.93,322.436 1593.43,320.103 1591,317.5C 1590.53,316.423 1590.7,315.423 1591.5,314.5C 1608.22,314.594 1624.88,313.76 1641.5,312C 1644.76,308.065 1648.6,304.898 1653,302.5C 1659.67,306.673 1666.01,311.34 1672,316.5C 1672.9,319.025 1672.4,321.192 1670.5,323C 1664.04,323.561 1658.04,325.561 1652.5,329C 1646.99,332.588 1641.66,336.422 1636.5,340.5C 1644.52,347.696 1645.52,355.696 1639.5,364.5 Z"/></g>
<g><path style="opacity:1" fill="#7a797a" d="M 1899.5,312.5 C 1899.5,322.167 1899.5,331.833 1899.5,341.5C 1902.17,341.5 1904.83,341.5 1907.5,341.5C 1904.71,342.477 1901.71,342.81 1898.5,342.5C 1898.17,332.319 1898.51,322.319 1899.5,312.5 Z"/></g>
<g><path style="opacity:1" fill="#060606" d="M 1482.5,321.5 C 1492.19,322.09 1501.53,324.257 1510.5,328C 1516.14,331.117 1518.81,335.95 1518.5,342.5C 1517.5,352.98 1511.83,357.813 1501.5,357C 1500.33,355.833 1499.17,354.667 1498,353.5C 1495.35,341.871 1489.85,331.871 1481.5,323.5C 1481.86,322.817 1482.2,322.15 1482.5,321.5 Z"/></g>
<g><path style="opacity:1" fill="#878688" d="M 1005.5,321.5 C 1005.19,324.713 1005.52,327.713 1006.5,330.5C 1006.44,331.043 1006.11,331.376 1005.5,331.5C 1004.19,328.02 1004.19,324.687 1005.5,321.5 Z"/></g>
<g><path style="opacity:1" fill="#a9a8a9" d="M 1552.5,312.5 C 1552.18,319.022 1552.51,325.355 1553.5,331.5C 1553.44,332.043 1553.11,332.376 1552.5,332.5C 1551.18,325.678 1551.18,319.011 1552.5,312.5 Z"/></g>
<g><path style="opacity:1" fill="#7c7c7e" d="M 1080.5,322.5 C 1080.5,324.167 1080.5,325.833 1080.5,327.5C 1083.83,327.5 1087.17,327.5 1090.5,327.5C 1087.04,328.482 1083.37,328.815 1079.5,328.5C 1079.21,326.265 1079.54,324.265 1080.5,322.5 Z"/></g>
<g><path style="opacity:1" fill="#060606" d="M 1816.5,330.5 C 1824.7,333.863 1831.86,338.863 1838,345.5C 1838.76,347.809 1838.26,349.809 1836.5,351.5C 1833.71,353.227 1830.71,354.394 1827.5,355C 1821.33,363.167 1815.17,371.333 1809,379.5C 1808.5,382.482 1808.34,385.482 1808.5,388.5C 1816.91,388.573 1824.91,390.407 1832.5,394C 1840.89,400.734 1841.56,408.067 1834.5,416C 1829.59,418.587 1825.42,417.753 1822,413.5C 1819.53,407.221 1816.53,401.221 1813,395.5C 1811.89,393.963 1810.39,393.297 1808.5,393.5C 1805.56,419.721 1805.9,445.888 1809.5,472C 1807.96,480.951 1803.96,488.617 1797.5,495C 1793.17,497.47 1789.34,496.97 1786,493.5C 1784.25,488.739 1782.75,483.906 1781.5,479C 1790.21,454.879 1792.88,430.046 1789.5,404.5C 1773.9,417.102 1757.23,428.102 1739.5,437.5C 1738.5,437.167 1737.83,436.5 1737.5,435.5C 1766.72,410.953 1790.39,381.953 1808.5,348.5C 1805.22,347.343 1801.88,347.176 1798.5,348C 1785.93,349.789 1773.43,351.956 1761,354.5C 1757.58,352.376 1755.08,349.376 1753.5,345.5C 1771.56,344.217 1789.56,342.384 1807.5,340C 1810.7,336.964 1813.7,333.797 1816.5,330.5 Z"/></g>
<g><path style="opacity:1" fill="#737575" d="M 977.5,341.5 C 980.024,340.2 982.691,340.2 985.5,341.5C 985.376,342.107 985.043,342.44 984.5,342.5C 982.393,341.532 980.059,341.198 977.5,341.5 Z"/></g>
<g><path style="opacity:1" fill="#b6b6b6" d="M 1317.5,329.5 C 1317.5,333.833 1317.5,338.167 1317.5,342.5C 1323.83,342.5 1330.17,342.5 1336.5,342.5C 1330.02,343.491 1323.35,343.824 1316.5,343.5C 1316.18,338.637 1316.51,333.97 1317.5,329.5 Z"/></g>
<g><path style="opacity:1" fill="#f2f2f3" d="M 1870.5,375.5 C 1867.83,375.5 1865.17,375.5 1862.5,375.5C 1862.5,368.167 1862.5,360.833 1862.5,353.5C 1862.61,352.883 1862.94,352.383 1863.5,352C 1869.15,351.243 1874.82,350.743 1880.5,350.5C 1880.5,358.833 1880.5,367.167 1880.5,375.5C 1877.17,375.5 1873.83,375.5 1870.5,375.5 Z"/></g>
<g><path style="opacity:1" fill="#acaaac" d="M 1005.5,356.5 C 1004.83,361.167 1004.17,365.833 1003.5,370.5C 1003.17,365.456 1003.51,360.456 1004.5,355.5C 1005.11,355.624 1005.44,355.957 1005.5,356.5 Z"/></g>
<g><path style="opacity:1" fill="#b3b0b2" d="M 1899.5,349.5 C 1898.87,357.573 1899.53,365.24 1901.5,372.5C 1900.79,373.404 1899.79,373.737 1898.5,373.5C 1898.17,365.316 1898.51,357.316 1899.5,349.5 Z"/></g>
<g><path style="opacity:1" fill="#bdbdbe" d="M 1862.5,353.5 C 1862.5,360.833 1862.5,368.167 1862.5,375.5C 1865.17,375.5 1867.83,375.5 1870.5,375.5C 1867.71,376.477 1864.71,376.81 1861.5,376.5C 1861.17,368.648 1861.51,360.982 1862.5,353.5 Z"/></g>
<g><path style="opacity:1" fill="#060606" d="M 1638.5,388.5 C 1637.51,396.65 1637.17,404.983 1637.5,413.5C 1641.7,413.817 1645.7,413.483 1649.5,412.5C 1651.66,409.529 1653.82,406.529 1656,403.5C 1656.96,402.106 1658.29,401.439 1660,401.5C 1665.48,403.969 1670.15,407.635 1674,412.5C 1674.78,413.944 1674.61,415.277 1673.5,416.5C 1661.53,417.665 1649.53,418.665 1637.5,419.5C 1637.67,429.839 1637.5,440.172 1637,450.5C 1635.69,452.641 1634.19,454.641 1632.5,456.5C 1638.33,458.792 1644.33,460.459 1650.5,461.5C 1661.52,464.445 1672.85,466.111 1684.5,466.5C 1687.75,467.252 1691.08,467.752 1694.5,468C 1695.52,469.049 1695.68,470.216 1695,471.5C 1691.44,472.801 1687.94,474.301 1684.5,476C 1678.56,479.611 1672.89,483.611 1667.5,488C 1652.29,488.29 1638.29,484.29 1625.5,476C 1615.88,466.58 1608.38,455.746 1603,443.5C 1599.39,448.419 1596.73,453.752 1595,459.5C 1588.75,467.753 1581.25,474.586 1572.5,480C 1567.23,482.811 1561.89,485.311 1556.5,487.5C 1561.31,481.174 1566.81,475.174 1573,469.5C 1573.51,468.473 1574.01,467.473 1574.5,466.5C 1589.81,446.386 1595.15,423.886 1590.5,399C 1590.76,397.739 1591.43,396.739 1592.5,396C 1599.5,396.579 1606,398.745 1612,402.5C 1612.57,405.979 1611.23,408.645 1608,410.5C 1607.52,418.372 1606.69,426.205 1605.5,434C 1607.73,440.417 1611.73,445.584 1617.5,449.5C 1617.56,450.043 1617.89,450.376 1618.5,450.5C 1619.83,431.004 1619.83,411.671 1618.5,392.5C 1618.56,387.797 1618.23,383.13 1617.5,378.5C 1609.47,378.559 1601.81,380.226 1594.5,383.5C 1591.48,380.48 1588.82,377.146 1586.5,373.5C 1608.41,372.548 1630.08,370.548 1651.5,367.5C 1655.71,365.97 1659.71,363.97 1663.5,361.5C 1670.53,364.26 1676.36,368.594 1681,374.5C 1681.47,379.687 1678.97,381.854 1673.5,381C 1664.23,385.88 1655.4,391.38 1647,397.5C 1645.72,397.387 1644.89,396.72 1644.5,395.5C 1648.86,389.072 1651.86,382.072 1653.5,374.5C 1646.18,375.395 1638.85,376.229 1631.5,377C 1634.38,378.358 1637.21,379.858 1640,381.5C 1640.83,384.171 1640.33,386.504 1638.5,388.5 Z"/></g>
<g><path style="opacity:1" fill="#0a0a0a" d="M 1540.5,366.5 C 1544.62,368.386 1548.79,370.386 1553,372.5C 1553.54,376.169 1552.04,378.836 1548.5,380.5C 1547.25,382.323 1546.59,384.323 1546.5,386.5C 1552.56,386.662 1558.56,386.162 1564.5,385C 1568.01,382.325 1571.34,379.491 1574.5,376.5C 1579.24,378.629 1583.41,381.629 1587,385.5C 1587.71,387.367 1587.21,388.867 1585.5,390C 1577.14,390.554 1568.8,391.387 1560.5,392.5C 1562.29,393.877 1564.29,394.877 1566.5,395.5C 1567.98,398.538 1567.15,400.872 1564,402.5C 1563.39,407.496 1562.89,412.496 1562.5,417.5C 1564.86,417.663 1567.19,417.497 1569.5,417C 1572.03,413.472 1574.87,410.306 1578,407.5C 1583.5,410.333 1587.67,414.5 1590.5,420C 1590.24,421.261 1589.57,422.261 1588.5,423C 1579.52,423.874 1570.52,424.541 1561.5,425C 1560.03,428.321 1559.36,431.821 1559.5,435.5C 1568.11,435.96 1574.94,439.626 1580,446.5C 1581.91,456.036 1578.08,461.036 1568.5,461.5C 1567.21,460.71 1566.04,459.71 1565,458.5C 1563.82,454.12 1562.49,449.787 1561,445.5C 1560.31,443.445 1559.15,441.779 1557.5,440.5C 1552.59,452.098 1544.93,461.598 1534.5,469C 1523.66,477.549 1511.66,483.716 1498.5,487.5C 1498.28,486.325 1498.61,485.325 1499.5,484.5C 1518.05,474.291 1531.71,459.625 1540.5,440.5C 1542.65,438.383 1543.65,435.716 1543.5,432.5C 1543.36,430.738 1543.69,429.071 1544.5,427.5C 1537.65,426.062 1530.98,426.729 1524.5,429.5C 1523.42,429.315 1522.42,428.982 1521.5,428.5C 1519.96,426.072 1518.96,423.406 1518.5,420.5C 1527.78,420.681 1536.95,420.014 1546,418.5C 1546.67,410.5 1546.67,402.5 1546,394.5C 1545.28,393.941 1544.44,393.608 1543.5,393.5C 1535.88,399.989 1528.21,406.489 1520.5,413C 1518.28,414.814 1515.95,415.314 1513.5,414.5C 1522.39,404.051 1529.23,392.384 1534,379.5C 1534.5,375.179 1534.67,370.846 1534.5,366.5C 1536.35,365.427 1538.35,365.427 1540.5,366.5 Z"/></g>
<g><path style="opacity:1" fill="#f3f3f3" d="M 1901.5,372.5 C 1899.53,365.24 1898.87,357.573 1899.5,349.5C 1905.93,347.874 1912.59,347.207 1919.5,347.5C 1919.5,367.167 1919.5,386.833 1919.5,406.5C 1912.53,407.29 1905.53,407.623 1898.5,407.5C 1898.5,398.833 1898.5,390.167 1898.5,381.5C 1904.05,380.959 1909.55,380.292 1915,379.5C 1915.81,374.94 1913.97,371.774 1909.5,370C 1906.83,370.429 1904.16,371.263 1901.5,372.5 Z"/></g>
<g><path style="opacity:1" fill="#8e908f" d="M 1295.5,370.5 C 1295.56,369.957 1295.89,369.624 1296.5,369.5C 1297.82,376.99 1297.82,384.323 1296.5,391.5C 1296.82,384.313 1296.49,377.313 1295.5,370.5 Z"/></g>
<g><path style="opacity:1" fill="#8f8d8f" d="M 740.5,279.5 C 741.499,353.998 741.833,428.665 741.5,503.5C 737.958,503.813 734.625,503.479 731.5,502.5C 734.5,502.5 737.5,502.5 740.5,502.5C 740.5,428.167 740.5,353.833 740.5,279.5 Z"/></g>
<g><path style="opacity:1" fill="#f2f2f2" d="M 1056.5,330.5 C 1048.85,331.033 1041.18,331.866 1033.5,333C 1035.17,335.333 1036.83,337.667 1038.5,340C 1044.5,339.837 1050.5,339.337 1056.5,338.5C 1054.98,342.559 1053.15,346.559 1051,350.5C 1048.09,353.99 1045.42,357.656 1043,361.5C 1034.65,370.354 1025.81,378.688 1016.5,386.5C 1017.36,387.583 1018.36,387.749 1019.5,387C 1034.56,380.779 1047.89,371.946 1059.5,360.5C 1060.61,368.99 1060.61,377.49 1059.5,386C 1059.49,389.258 1059.99,392.425 1061,395.5C 1061.69,396.357 1062.52,397.023 1063.5,397.5C 1067.31,396.093 1070.98,394.426 1074.5,392.5C 1079.66,393.484 1079.66,394.317 1074.5,395C 1080.17,395.464 1080.51,396.131 1075.5,397C 1077.06,397.21 1078.39,397.71 1079.5,398.5C 1077.83,398.5 1076.17,398.5 1074.5,398.5C 1074.79,402.936 1074.29,407.27 1073,411.5C 1067.75,419.92 1061.91,427.92 1055.5,435.5C 1056,435.833 1056.5,436.167 1057,436.5C 1062.3,434.121 1067.8,432.454 1073.5,431.5C 1069.72,433.266 1065.72,434.766 1061.5,436C 1062.71,436.893 1062.71,437.726 1061.5,438.5C 1059.88,439.154 1058.22,439.654 1056.5,440C 1058.38,440.216 1060.05,440.883 1061.5,442C 1060.06,442.377 1059.06,443.21 1058.5,444.5C 1045.03,435.542 1038.53,423.208 1039,407.5C 1040.38,405.787 1042.04,404.453 1044,403.5C 1045.5,401.55 1045.66,399.55 1044.5,397.5C 1039.04,394.881 1033.37,392.714 1027.5,391C 1024.24,389.957 1020.91,389.457 1017.5,389.5C 1021.91,404.093 1021.24,418.426 1015.5,432.5C 1015.77,427.78 1014.94,427.446 1013,431.5C 1009.46,430.219 1005.96,428.886 1002.5,427.5C 1001.91,427.709 1001.41,428.043 1001,428.5C 1000.83,430 1000.67,431.5 1000.5,433C 1001.13,435.59 1001.63,438.09 1002,440.5C 1000.67,441.833 999.333,441.833 998,440.5C 998.476,438.68 998.309,437.013 997.5,435.5C 997.656,431.418 997.156,427.418 996,423.5C 993.661,418.157 991.328,412.823 989,407.5C 988.329,406.748 987.496,406.414 986.5,406.5C 986.082,405.778 985.416,405.278 984.5,405C 985.416,404.722 986.082,404.222 986.5,403.5C 988.199,403.66 989.866,403.494 991.5,403C 996.809,400.233 1000.64,396.067 1003,390.5C 1003.5,383.842 1003.67,377.175 1003.5,370.5C 1004.17,365.833 1004.83,361.167 1005.5,356.5C 1009.85,362.007 1013.85,367.84 1017.5,374C 1021.42,374.959 1024.59,373.792 1027,370.5C 1029.5,365.354 1028.67,360.854 1024.5,357C 1018.36,353.297 1011.7,351.131 1004.5,350.5C 1004.5,346.5 1004.5,342.5 1004.5,338.5C 1012.9,338.122 1021.23,337.288 1029.5,336C 1030.02,335.439 1030.36,334.772 1030.5,334C 1029.69,332.357 1028.69,330.857 1027.5,329.5C 1028.77,328.811 1028.77,327.977 1027.5,327C 1028.33,326.833 1029.17,326.667 1030,326.5C 1032.32,327.709 1034.82,328.542 1037.5,329C 1036.5,329.333 1035.5,329.667 1034.5,330C 1041.83,330.5 1049.16,330.666 1056.5,330.5 Z"/></g>
<g><path style="opacity:1" fill="#f0f0f1" d="M 1591.5,314.5 C 1590.7,315.423 1590.53,316.423 1591,317.5C 1593.43,320.103 1595.93,322.436 1598.5,324.5C 1612.63,320.67 1626.97,319.003 1641.5,319.5C 1638.29,326.529 1634.12,332.862 1629,338.5C 1623.17,337.81 1617.34,337.143 1611.5,336.5C 1610,336.453 1609,337.119 1608.5,338.5C 1612.82,341.992 1616.66,345.992 1620,350.5C 1622.54,354.852 1624.2,359.519 1625,364.5C 1629.69,368.298 1634.52,368.298 1639.5,364.5C 1641.17,364.831 1643.17,365.498 1645.5,366.5C 1647.77,365.456 1650.1,365.289 1652.5,366C 1651.94,366.383 1651.61,366.883 1651.5,367.5C 1630.08,370.548 1608.41,372.548 1586.5,373.5C 1588.82,377.146 1591.48,380.48 1594.5,383.5C 1601.81,380.226 1609.47,378.559 1617.5,378.5C 1618.23,383.13 1618.56,387.797 1618.5,392.5C 1618.83,411.674 1618.5,430.674 1617.5,449.5C 1611.73,445.584 1607.73,440.417 1605.5,434C 1606.69,426.205 1607.52,418.372 1608,410.5C 1611.23,408.645 1612.57,405.979 1612,402.5C 1606,398.745 1599.5,396.579 1592.5,396C 1591.43,396.739 1590.76,397.739 1590.5,399C 1595.15,423.886 1589.81,446.386 1574.5,466.5C 1572.69,464.803 1570.36,463.97 1567.5,464C 1569.5,463.667 1571.5,463.333 1573.5,463C 1571.62,462.802 1569.95,462.302 1568.5,461.5C 1578.08,461.036 1581.91,456.036 1580,446.5C 1574.94,439.626 1568.11,435.96 1559.5,435.5C 1559.36,431.821 1560.03,428.321 1561.5,425C 1570.52,424.541 1579.52,423.874 1588.5,423C 1589.57,422.261 1590.24,421.261 1590.5,420C 1587.67,414.5 1583.5,410.333 1578,407.5C 1574.87,410.306 1572.03,413.472 1569.5,417C 1567.19,417.497 1564.86,417.663 1562.5,417.5C 1562.89,412.496 1563.39,407.496 1564,402.5C 1567.15,400.872 1567.98,398.538 1566.5,395.5C 1564.29,394.877 1562.29,393.877 1560.5,392.5C 1568.8,391.387 1577.14,390.554 1585.5,390C 1587.21,388.867 1587.71,387.367 1587,385.5C 1583.41,381.629 1579.24,378.629 1574.5,376.5C 1571.34,379.491 1568.01,382.325 1564.5,385C 1558.56,386.162 1552.56,386.662 1546.5,386.5C 1546.59,384.323 1547.25,382.323 1548.5,380.5C 1552.04,378.836 1553.54,376.169 1553,372.5C 1548.79,370.386 1544.62,368.386 1540.5,366.5C 1541.17,366.5 1541.5,366.167 1541.5,365.5C 1542.77,366.09 1544.1,366.59 1545.5,367C 1559.56,367.661 1573.56,366.994 1587.5,365C 1590.2,364.235 1592.7,363.068 1595,361.5C 1596.3,359.635 1596.63,357.635 1596,355.5C 1593.56,352.941 1590.89,350.608 1588,348.5C 1587.67,344.833 1587.33,341.167 1587,337.5C 1585.41,336.273 1584.08,336.606 1583,338.5C 1581.83,342.996 1580,347.162 1577.5,351C 1572.87,352.921 1568.03,353.754 1563,353.5C 1552.41,354.559 1548.74,349.892 1552,339.5C 1552.5,339 1553,338.5 1553.5,338C 1564.75,334.618 1576.08,331.618 1587.5,329C 1589.4,327.192 1589.9,325.025 1589,322.5C 1586.89,319.879 1584.39,317.879 1581.5,316.5C 1583.38,316.607 1583.71,316.107 1582.5,315C 1584.5,314.667 1586.5,314.333 1588.5,314C 1587.55,313.282 1587.38,312.449 1588,311.5C 1590.74,312.282 1593.57,312.782 1596.5,313C 1593.98,313.091 1592.32,313.591 1591.5,314.5 Z"/></g>
<g><path style="opacity:1" fill="#f2f2f2" d="M 1374.5,408.5 C 1372.08,408.684 1372.08,409.351 1374.5,410.5C 1372.95,411.452 1371.29,411.785 1369.5,411.5C 1369.05,414.652 1370.05,417.152 1372.5,419C 1370.71,420.31 1368.87,420.81 1367,420.5C 1367.11,419.231 1366.94,418.231 1366.5,417.5C 1366.66,415.473 1366.5,413.473 1366,411.5C 1359.75,405.42 1352.59,400.753 1344.5,397.5C 1340.08,400.085 1336.41,403.585 1333.5,408C 1315.52,409.666 1297.52,410.666 1279.5,411C 1272.88,407.35 1265.88,404.85 1258.5,403.5C 1259.45,416.809 1260.12,430.143 1260.5,443.5C 1260.48,454.735 1259.48,465.735 1257.5,476.5C 1257.61,474.621 1257.11,474.288 1256,475.5C 1253.86,474.521 1252.03,473.188 1250.5,471.5C 1252.05,466.295 1253.05,460.961 1253.5,455.5C 1252.67,445.583 1252.67,435.75 1253.5,426C 1251.13,424.156 1248.79,422.322 1246.5,420.5C 1248.34,419.77 1250.17,419.103 1252,418.5C 1252.67,416.167 1252.67,413.833 1252,411.5C 1249.27,410.638 1249.1,409.805 1251.5,409C 1250.91,408.536 1250.24,408.369 1249.5,408.5C 1253.93,405.109 1258.59,401.942 1263.5,399C 1273.74,388.921 1284.41,379.421 1295.5,370.5C 1296.49,377.313 1296.82,384.313 1296.5,391.5C 1296.33,395.182 1296.5,398.848 1297,402.5C 1297.5,403 1298,403.5 1298.5,404C 1304.82,403.442 1310.32,400.942 1315,396.5C 1316.13,382.915 1316.97,369.248 1317.5,355.5C 1320.82,358.317 1323.98,361.317 1327,364.5C 1333.23,373.785 1340.06,382.618 1347.5,391C 1356.22,397.356 1365.22,403.189 1374.5,408.5 Z"/></g>
<g><path style="opacity:1" fill="#ededed" d="M 1534.5,366.5 C 1534.67,370.846 1534.5,375.179 1534,379.5C 1529.23,392.384 1522.39,404.051 1513.5,414.5C 1515.95,415.314 1518.28,414.814 1520.5,413C 1528.21,406.489 1535.88,399.989 1543.5,393.5C 1544.44,393.608 1545.28,393.941 1546,394.5C 1546.67,402.5 1546.67,410.5 1546,418.5C 1536.95,420.014 1527.78,420.681 1518.5,420.5C 1518.96,423.406 1519.96,426.072 1521.5,428.5C 1519.05,429.785 1516.55,429.785 1514,428.5C 1510.92,431.363 1508.26,431.029 1506,427.5C 1505.8,429.32 1504.97,430.653 1503.5,431.5C 1507.71,415.414 1512.21,399.414 1517,383.5C 1518.73,377.714 1521.23,372.38 1524.5,367.5C 1525.22,367.082 1525.72,366.416 1526,365.5C 1526.32,367.569 1527.16,367.902 1528.5,366.5C 1530.13,366.968 1531.3,367.968 1532,369.5C 1532.33,368.167 1532.67,366.833 1533,365.5C 1533.38,366.056 1533.88,366.389 1534.5,366.5 Z"/></g>
<g><path style="opacity:1" fill="#b6b5b6" d="M 1638.5,388.5 C 1638.5,396.5 1638.5,404.5 1638.5,412.5C 1642.17,412.5 1645.83,412.5 1649.5,412.5C 1645.7,413.483 1641.7,413.817 1637.5,413.5C 1637.17,404.983 1637.51,396.65 1638.5,388.5 Z"/></g>
<g><path style="opacity:1" fill="#070606" d="M 1366.5,417.5 C 1364.2,419.967 1361.7,422.3 1359,424.5C 1358,441.432 1358.83,458.266 1361.5,475C 1361.37,477.253 1360.87,479.419 1360,481.5C 1357.59,483.983 1355.43,486.65 1353.5,489.5C 1351.09,490.577 1348.75,491.744 1346.5,493C 1343.83,493.667 1341.17,493.667 1338.5,493C 1335.86,487.9 1334.86,482.4 1335.5,476.5C 1332.37,475.989 1329.2,475.656 1326,475.5C 1310.84,476.74 1295.68,477.74 1280.5,478.5C 1280.27,489.066 1274.94,495.399 1264.5,497.5C 1261.7,497.536 1259.87,496.203 1259,493.5C 1257.65,487.928 1257.15,482.262 1257.5,476.5C 1259.48,465.735 1260.48,454.735 1260.5,443.5C 1260.12,430.143 1259.45,416.809 1258.5,403.5C 1265.88,404.85 1272.88,407.35 1279.5,411C 1297.52,410.666 1315.52,409.666 1333.5,408C 1336.41,403.585 1340.08,400.085 1344.5,397.5C 1352.59,400.753 1359.75,405.42 1366,411.5C 1366.5,413.473 1366.66,415.473 1366.5,417.5 Z"/></g>
<g><path style="opacity:1" fill="#060606" d="M 1079.5,398.5 C 1086.64,402.173 1092.81,407.173 1098,413.5C 1100.36,417.474 1099.86,420.974 1096.5,424C 1088.37,425.44 1080.71,427.94 1073.5,431.5C 1067.8,432.454 1062.3,434.121 1057,436.5C 1056.5,436.167 1056,435.833 1055.5,435.5C 1061.91,427.92 1067.75,419.92 1073,411.5C 1074.29,407.27 1074.79,402.936 1074.5,398.5C 1076.17,398.5 1077.83,398.5 1079.5,398.5 Z"/></g>
<g><path style="opacity:1" fill="#c6c5c6" d="M 1863.5,383.5 C 1862.51,391.65 1862.17,399.983 1862.5,408.5C 1868.17,408.5 1873.83,408.5 1879.5,408.5C 1879.5,400.167 1879.5,391.833 1879.5,383.5C 1875.5,383.5 1871.5,383.5 1867.5,383.5C 1871.63,382.515 1875.97,382.182 1880.5,382.5C 1880.5,391.5 1880.5,400.5 1880.5,409.5C 1874.17,409.5 1867.83,409.5 1861.5,409.5C 1861.17,400.475 1861.5,391.475 1862.5,382.5C 1863.11,382.624 1863.44,382.957 1863.5,383.5 Z"/></g>
<g><path style="opacity:1" fill="#f4f4f4" d="M 1863.5,383.5 C 1864.83,383.5 1866.17,383.5 1867.5,383.5C 1871.5,383.5 1875.5,383.5 1879.5,383.5C 1879.5,391.833 1879.5,400.167 1879.5,408.5C 1873.83,408.5 1868.17,408.5 1862.5,408.5C 1862.17,399.983 1862.51,391.65 1863.5,383.5 Z"/></g>
<g><path style="opacity:1" fill="#0b0b0b" d="M 986.5,406.5 C 987.496,406.414 988.329,406.748 989,407.5C 991.328,412.823 993.661,418.157 996,423.5C 997.156,427.418 997.656,431.418 997.5,435.5C 995.918,440.084 992.918,443.417 988.5,445.5C 985.57,446.299 982.57,446.632 979.5,446.5C 974.514,442.706 972.347,437.706 973,431.5C 978.592,424.654 982.258,416.987 984,408.5C 984.708,407.619 985.542,406.953 986.5,406.5 Z"/></g>
<g><path style="opacity:1" fill="#070707" d="M 1524.5,367.5 C 1521.23,372.38 1518.73,377.714 1517,383.5C 1512.21,399.414 1507.71,415.414 1503.5,431.5C 1502.2,434.707 1501.2,438.04 1500.5,441.5C 1503.62,450.506 1501.28,457.673 1493.5,463C 1486.66,464.839 1482.16,462.339 1480,455.5C 1478.8,449.247 1478.13,442.914 1478,436.5C 1475.01,433.708 1473.18,430.375 1472.5,426.5C 1476.18,426.665 1479.85,426.499 1483.5,426C 1484.67,424.833 1485.83,423.667 1487,422.5C 1496.83,404.174 1507.16,386.174 1518,368.5C 1519.34,367.132 1520.67,365.799 1522,364.5C 1523.75,364.748 1524.58,365.748 1524.5,367.5 Z"/></g>
<g><path style="opacity:1" fill="#737474" d="M 1910.5,413.5 C 1913.29,412.523 1916.29,412.19 1919.5,412.5C 1919.5,416.167 1919.5,419.833 1919.5,423.5C 1918.52,420.375 1918.19,417.042 1918.5,413.5C 1915.83,413.5 1913.17,413.5 1910.5,413.5 Z"/></g>
<g><path style="opacity:1" fill="#7f7f7f" d="M 379.5,435.5 C 376.026,436.525 372.36,437.192 368.5,437.5C 371.845,435.783 375.511,435.116 379.5,435.5 Z"/></g>
<g><path style="opacity:1" fill="#555655" d="M 1543.5,432.5 C 1543.65,435.716 1542.65,438.383 1540.5,440.5C 1541.13,437.603 1542.13,434.936 1543.5,432.5 Z"/></g>
<g><path style="opacity:1" fill="#444444" d="M 1299.5,438.5 C 1292.54,440.331 1285.54,440.664 1278.5,439.5C 1285.5,439.227 1292.5,438.894 1299.5,438.5 Z"/></g>
<g><path style="opacity:1" fill="#717270" d="M 1872.5,416.5 C 1874.95,415.527 1877.61,415.194 1880.5,415.5C 1880.83,429.677 1880.5,443.677 1879.5,457.5C 1879.5,443.833 1879.5,430.167 1879.5,416.5C 1877.17,416.5 1874.83,416.5 1872.5,416.5 Z"/></g>
<g><path style="opacity:1" fill="#060606" d="M 1058.5,444.5 C 1070.86,454.838 1084.86,462.171 1100.5,466.5C 1102.51,467.924 1104.85,468.59 1107.5,468.5C 1110.85,470.258 1114.52,471.258 1118.5,471.5C 1120.51,472.924 1122.85,473.59 1125.5,473.5C 1131.01,475.235 1136.68,476.402 1142.5,477C 1145.17,479 1145.17,481 1142.5,483C 1134.91,485.196 1127.24,487.196 1119.5,489C 1114.64,492.593 1109.64,495.927 1104.5,499C 1102.17,499.667 1099.83,499.667 1097.5,499C 1076.62,488.122 1059.45,472.956 1046,453.5C 1042.74,445.874 1039.57,438.207 1036.5,430.5C 1034.69,435.716 1033.19,441.049 1032,446.5C 1029.85,451.46 1027.19,456.127 1024,460.5C 997.904,484.987 967.071,497.487 931.5,498C 932.167,497.333 932.833,496.667 933.5,496C 954.56,488.991 974.226,479.324 992.5,467C 1003.58,457.651 1011.24,446.151 1015.5,432.5C 1021.24,418.426 1021.91,404.093 1017.5,389.5C 1020.91,389.457 1024.24,389.957 1027.5,391C 1033.37,392.714 1039.04,394.881 1044.5,397.5C 1045.66,399.55 1045.5,401.55 1044,403.5C 1042.04,404.453 1040.38,405.787 1039,407.5C 1038.53,423.208 1045.03,435.542 1058.5,444.5 Z"/></g>
<g><path style="opacity:1" fill="#acacac" d="M 1618.5,392.5 C 1619.83,411.671 1619.83,431.004 1618.5,450.5C 1617.89,450.376 1617.56,450.043 1617.5,449.5C 1618.5,430.674 1618.83,411.674 1618.5,392.5 Z"/></g>
<g><path style="opacity:1" fill="#f1f1f1" d="M 1315.5,436.5 C 1309.95,436.527 1304.62,437.194 1299.5,438.5C 1292.5,438.894 1285.5,439.227 1278.5,439.5C 1278.21,433.107 1278.54,426.773 1279.5,420.5C 1281.08,419.702 1282.74,419.202 1284.5,419C 1301.5,417.994 1318.5,417.16 1335.5,416.5C 1335.95,433.852 1335.95,451.186 1335.5,468.5C 1317.23,470.508 1298.89,471.675 1280.5,472C 1279.52,463.919 1279.18,455.752 1279.5,447.5C 1295.15,446.557 1310.82,445.724 1326.5,445C 1329.17,442.667 1329.17,440.333 1326.5,438C 1324.61,436.596 1322.61,435.43 1320.5,434.5C 1318.7,434.902 1317.03,435.569 1315.5,436.5 Z"/></g>
<g><path style="opacity:1" fill="#686968" d="M 1315.5,436.5 C 1310.4,437.957 1305.07,438.624 1299.5,438.5C 1304.62,437.194 1309.95,436.527 1315.5,436.5 Z"/></g>
<g><path style="opacity:1" fill="#898788" d="M 988.5,445.5 C 988.389,446.117 988.056,446.617 987.5,447C 984.633,447.801 981.966,447.634 979.5,446.5C 982.57,446.632 985.57,446.299 988.5,445.5 Z"/></g>
<g><path style="opacity:1" fill="#9c9c9c" d="M 1650.5,461.5 C 1662.02,462.756 1673.35,464.423 1684.5,466.5C 1672.85,466.111 1661.52,464.445 1650.5,461.5 Z"/></g>
<g><path style="opacity:1" fill="#969696" d="M 1100.5,466.5 C 1103.15,466.41 1105.49,467.076 1107.5,468.5C 1104.85,468.59 1102.51,467.924 1100.5,466.5 Z"/></g>
<g><path style="opacity:1" fill="#959494" d="M 1118.5,471.5 C 1121.15,471.41 1123.49,472.076 1125.5,473.5C 1122.85,473.59 1120.51,472.924 1118.5,471.5 Z"/></g>
<g><path style="opacity:1" fill="#f5f5f5" d="M 368.5,437.5 C 372.36,437.192 376.026,436.525 379.5,435.5C 387.628,431.434 395.961,427.934 404.5,425C 410.148,423.568 414.982,424.735 419,428.5C 420.494,436.438 421.66,444.438 422.5,452.5C 420.334,475.805 419.834,499.139 421,522.5C 420.667,525.5 420.333,528.5 420,531.5C 419.64,533.421 418.806,535.088 417.5,536.5C 414.761,529.593 409.761,525.426 402.5,524C 397.167,523.333 391.833,523.333 386.5,524C 374.455,527.523 362.288,529.357 350,529.5C 346.051,518.637 345.551,507.637 348.5,496.5C 352.78,500.9 357.78,501.733 363.5,499C 367.739,497.098 371.739,494.765 375.5,492C 384.167,491 392.833,490 401.5,489C 404.249,487.877 406.749,486.377 409,484.5C 409.667,480.5 409.667,476.5 409,472.5C 403.984,467.357 397.817,464.523 390.5,464C 381.716,462.192 373.716,463.858 366.5,469C 360.778,470.515 355.111,471.849 349.5,473C 346.807,464.052 345.14,454.886 344.5,445.5C 352.26,442.296 360.26,439.629 368.5,437.5 Z"/></g>
</svg>
