<?xml version="1.0" encoding="UTF-8"?>
<!DOCTYPE svg PUBLIC "-//W3C//DTD SVG 1.1//EN" "http://www.w3.org/Graphics/SVG/1.1/DTD/svg11.dtd">
<svg xmlns="http://www.w3.org/2000/svg" version="1.1" width="665px" height="225px" style="shape-rendering:geometricPrecision; text-rendering:geometricPrecision; image-rendering:optimizeQuality; fill-rule:evenodd; clip-rule:evenodd" xmlns:xlink="http://www.w3.org/1999/xlink">
<g><path style="opacity:1" fill="#816238" d="M 71.5,-0.5 C 251.167,-0.5 430.833,-0.5 610.5,-0.5C 610.672,0.491622 610.338,1.15829 609.5,1.5C 609.565,1.06178 609.399,0.728446 609,0.5C 607.588,2.06463 606.421,3.73129 605.5,5.5C 604.833,5.16667 604.167,4.83333 603.5,4.5C 428.334,3.33381 253,3.16714 77.5,4C 76.944,4.38258 76.6107,4.88258 76.5,5.5C 74.6552,9.16716 73.4885,13.1672 73,17.5C 69.7096,18.6452 66.7096,20.3119 64,22.5C 63.1083,25.2837 61.9416,27.9504 60.5,30.5C 48.078,32.933 38.7447,39.5996 32.5,50.5C 31.1103,51.8993 30.1103,53.5659 29.5,55.5C 28.5416,55.9528 27.7083,56.6195 27,57.5C 19.2957,71.7254 16.7957,86.7254 19.5,102.5C 19.5,102.833 19.5,103.167 19.5,103.5C 19.8652,109.035 20.8652,114.368 22.5,119.5C 22.762,120.978 22.4287,122.311 21.5,123.5C 20.3044,123.154 20.3044,122.654 21.5,122C 20.062,121.781 18.7287,121.281 17.5,120.5C 16.5682,118.205 15.7348,115.871 15,113.5C 14.5172,114.448 14.3505,115.448 14.5,116.5C 12.5841,112.837 11.5841,108.837 11.5,104.5C 11.1241,95.7646 11.6241,87.0979 13,78.5C 13.0116,82.9854 14.1783,83.4854 16.5,80C 19.4177,64.7598 26.5843,51.9265 38,41.5C 38.0343,39.8204 38.201,38.3204 38.5,37C 37.8333,36.6667 37.1667,36.3333 36.5,36C 38.3734,34.2962 40.0401,32.4628 41.5,30.5C 44.0078,28.0764 47.0078,26.4097 50.5,25.5C 51.8333,25.5 53.1667,25.5 54.5,25.5C 54.281,26.675 54.6143,27.675 55.5,28.5C 56.7876,24.9663 58.4542,21.633 60.5,18.5C 59.7261,17.2888 58.8928,17.2888 58,18.5C 57.5357,17.9056 57.369,17.2389 57.5,16.5C 59.5792,14.127 62.2459,12.7936 65.5,12.5C 66.5832,12.5394 67.5832,12.8728 68.5,13.5C 70.026,11.2492 71.026,8.74916 71.5,6C 70.4909,5.64541 69.8243,4.81208 69.5,3.5C 69.7329,1.93819 70.3995,0.60486 71.5,-0.5 Z"/></g>
<g><path style="opacity:1" fill="#583d1e" d="M 603.5,4.5 C 428.097,4.16807 252.764,4.5014 77.5,5.5C 77.1667,5.5 76.8333,5.5 76.5,5.5C 76.6107,4.88258 76.944,4.38258 77.5,4C 253,3.16714 428.334,3.33381 603.5,4.5 Z"/></g>
<g><path style="opacity:1" fill="#c0a074" d="M 69.5,3.5 C 69.8243,4.81208 70.4909,5.64541 71.5,6C 71.026,8.74916 70.026,11.2492 68.5,13.5C 67.5832,12.8728 66.5832,12.5394 65.5,12.5C 66.4617,9.26088 67.7951,6.26088 69.5,3.5 Z"/></g>
<g><path style="opacity:1" fill="#596d5a" d="M 603.5,4.5 C 604.167,4.83333 604.833,5.16667 605.5,5.5C 605.5,6.16667 605.833,6.5 606.5,6.5C 607.273,10.1402 607.94,13.8068 608.5,17.5C 612.355,18.7875 615.689,21.1209 618.5,24.5C 619.946,26.6179 620.613,28.9512 620.5,31.5C 626.043,32.7587 631.376,34.9254 636.5,38C 641.428,41.9492 646.094,46.1159 650.5,50.5C 654.12,56.7414 657.453,63.0748 660.5,69.5C 663.175,79.623 664.175,89.9563 663.5,100.5C 661.905,111.45 658.405,121.784 653,131.5C 651.383,133.763 649.55,135.763 647.5,137.5C 649.771,133.056 652.271,128.723 655,124.5C 655.595,123.101 655.428,121.768 654.5,120.5C 655.325,119.614 656.325,119.281 657.5,119.5C 657.579,118.07 657.246,116.736 656.5,115.5C 659.475,108.763 661.141,102.263 661.5,96C 660.908,92.9683 659.574,90.3016 657.5,88C 659.26,82.3085 659.76,76.4752 659,70.5C 658.275,68.842 657.108,68.342 655.5,69C 653.808,70.3073 652.475,71.8073 651.5,73.5C 647.717,64.1265 642.05,55.9598 634.5,49C 627.584,44.1981 619.918,42.3648 611.5,43.5C 612.552,34.9256 609.052,29.2589 601,26.5C 599.592,22.9431 598.592,19.2765 598,15.5C 597.617,14.944 597.117,14.6107 596.5,14.5C 425.666,14.167 254.999,14.5003 84.5,15.5C 83.1629,19.1204 81.6629,22.7871 80,26.5C 75.459,27.8832 71.959,30.5499 69.5,34.5C 68.36,33.1986 67.0267,32.0319 65.5,31C 65.315,28.2382 65.6483,25.4049 66.5,22.5C 68.7664,20.7827 71.2664,19.4494 74,18.5C 75.0296,14.1103 76.1962,9.77692 77.5,5.5C 252.764,4.5014 428.097,4.16807 603.5,4.5 Z"/></g>
<g><path style="opacity:1" fill="#b28a54" d="M 608.5,17.5 C 607.94,13.8068 607.273,10.1402 606.5,6.5C 606.56,5.95691 606.893,5.62358 607.5,5.5C 609.471,7.80389 610.471,10.4706 610.5,13.5C 610.415,15.3328 609.748,16.6661 608.5,17.5 Z"/></g>
<g><path style="opacity:1" fill="#c09e74" d="M 610.5,-0.5 C 610.833,-0.5 611.167,-0.5 611.5,-0.5C 614.038,3.44799 615.371,7.78132 615.5,12.5C 616.791,12.2627 617.791,12.596 618.5,13.5C 616.5,13.8333 614.5,14.1667 612.5,14.5C 612.663,12.1432 612.497,9.80982 612,7.5C 610.681,5.71279 609.848,3.71279 609.5,1.5C 610.338,1.15829 610.672,0.491622 610.5,-0.5 Z"/></g>
<g><path style="opacity:1" fill="#e8bf80" d="M 596.5,14.5 C 596.5,15.8333 595.833,16.5 594.5,16.5C 424.833,16.5 255.167,16.5 85.5,16.5C 85.5,17.8333 85.5,19.1667 85.5,20.5C 85.5,20.8333 85.5,21.1667 85.5,21.5C 84.6236,21.6309 83.9569,21.2975 83.5,20.5C 84.3094,18.9291 84.6427,17.2624 84.5,15.5C 254.999,14.5003 425.666,14.167 596.5,14.5 Z"/></g>
<g><path style="opacity:1" fill="#916d41" d="M 609.5,1.5 C 609.848,3.71279 610.681,5.71279 612,7.5C 612.497,9.80982 612.663,12.1432 612.5,14.5C 614.5,14.1667 616.5,13.8333 618.5,13.5C 621.704,14.3833 624.371,16.0499 626.5,18.5C 626.5,19.1667 626.5,19.8333 626.5,20.5C 625.833,24.5 627.5,26.1667 631.5,25.5C 632.492,25.3284 633.158,25.6618 633.5,26.5C 635.373,28.1628 637.373,29.8294 639.5,31.5C 638.37,32.6223 637.703,33.9557 637.5,35.5C 636.691,34.5313 635.691,33.6979 634.5,33C 630.916,32.0629 627.416,30.8963 624,29.5C 622.923,30.4295 621.756,31.0962 620.5,31.5C 620.613,28.9512 619.946,26.6179 618.5,24.5C 615.689,21.1209 612.355,18.7875 608.5,17.5C 609.748,16.6661 610.415,15.3328 610.5,13.5C 610.471,10.4706 609.471,7.80389 607.5,5.5C 606.893,5.62358 606.56,5.95691 606.5,6.5C 605.833,6.5 605.5,6.16667 605.5,5.5C 606.421,3.73129 607.588,2.06463 609,0.5C 609.399,0.728446 609.565,1.06178 609.5,1.5 Z"/></g>
<g><path style="opacity:1" fill="#ae9e70" d="M 594.5,16.5 C 594.5,16.8333 594.5,17.1667 594.5,17.5C 431.833,17.5 269.167,17.5 106.5,17.5C 99.8333,17.5 93.1667,17.5 86.5,17.5C 86.7373,18.791 86.404,19.791 85.5,20.5C 85.5,19.1667 85.5,17.8333 85.5,16.5C 255.167,16.5 424.833,16.5 594.5,16.5 Z"/></g>
<g><path style="opacity:1" fill="#f2f3f2" d="M 626.5,17.5 C 627.833,18.1667 627.833,18.1667 626.5,17.5 Z"/></g>
<g><path style="opacity:1" fill="#586f5d" d="M 106.5,17.5 C 155.997,18.4989 205.664,18.8322 255.5,18.5C 255.297,20.0443 254.63,21.3777 253.5,22.5C 254.262,22.9106 255.262,23.0773 256.5,23C 255.521,24.7785 255.854,26.4452 257.5,28C 254.985,27.7838 252.651,27.1171 250.5,26C 250.833,26.3333 251.167,26.6667 251.5,27C 250.377,28.0437 249.044,28.7104 247.5,29C 250.99,31.0766 251.157,33.2433 248,35.5C 247.189,34.0403 246.355,33.707 245.5,34.5C 246.965,37.7916 248.632,40.9582 250.5,44C 248.5,43.3333 246.5,42.6667 244.5,42C 244.5,43.3333 244.5,44.6667 244.5,46C 242.22,46.2326 240.22,47.066 238.5,48.5C 237.921,45.8841 236.421,45.8841 234,48.5C 233.504,50.0349 233.67,51.5349 234.5,53C 234.241,54.2613 233.574,55.2613 232.5,56C 230.62,55.4902 228.787,55.6569 227,56.5C 223.999,52.2225 222.999,52.5558 224,57.5C 223.044,56.4214 222.211,55.2547 221.5,54C 222.5,53 223.5,52 224.5,51C 223.5,50.3333 222.5,50.3333 221.5,51C 220.343,52.6213 219.51,54.4547 219,56.5C 217.513,55.7471 217.346,54.9138 218.5,54C 216.649,52.3163 214.982,50.4829 213.5,48.5C 214.09,47.2011 215.09,46.3678 216.5,46C 214.347,42.6351 212.68,42.8017 211.5,46.5C 212.316,49.8412 212.149,53.1746 211,56.5C 210.492,54.0958 209.325,53.4291 207.5,54.5C 208.501,57.3289 208.501,60.3289 207.5,63.5C 205.302,63.1201 203.635,63.7868 202.5,65.5C 203.075,67.4113 204.075,69.078 205.5,70.5C 204.601,71.9943 204.935,73.4943 206.5,75C 205.175,74.8516 204.008,75.0183 203,75.5C 202.216,78.7603 202.383,81.9269 203.5,85C 200.237,84.6292 197.571,85.9625 195.5,89C 192.881,89.1515 190.547,89.9848 188.5,91.5C 187.035,90.3913 186.035,90.8913 185.5,93C 186.421,94.756 187.588,94.9227 189,93.5C 190.5,94 192,94.5 193.5,95C 192.294,96.0177 192.627,96.5177 194.5,96.5C 196.767,96.441 197.433,95.6077 196.5,94C 197,93.5 197.5,93 198,92.5C 199.388,93.5536 200.888,93.7203 202.5,93C 201.906,92.5357 201.239,92.369 200.5,92.5C 202.607,91.5318 204.941,91.1984 207.5,91.5C 207.831,98.8635 207.497,106.197 206.5,113.5C 203.131,115.173 199.798,116.84 196.5,118.5C 197.861,120.028 199.028,121.695 200,123.5C 200.718,124.451 201.551,124.617 202.5,124C 204.049,119.784 206.883,116.951 211,115.5C 215.462,117.937 219.962,120.437 224.5,123C 227.628,123.841 230.628,124.675 233.5,125.5C 230.402,125.413 230.068,125.913 232.5,127C 230.924,127.44 229.59,128.273 228.5,129.5C 227.186,128.687 226.019,127.687 225,126.5C 223.984,127.634 223.317,127.301 223,125.5C 222.333,128.167 221.667,128.167 221,125.5C 220.396,127.686 219.23,127.852 217.5,126C 218.672,125.581 219.672,124.915 220.5,124C 219.175,124.148 218.008,123.982 217,123.5C 216.175,125.701 216.675,127.534 218.5,129C 217.409,131.064 217.242,133.231 218,135.5C 218.308,134.692 218.808,134.025 219.5,133.5C 222.276,134.089 224.61,135.422 226.5,137.5C 229.527,135.14 232.194,132.473 234.5,129.5C 235.086,129.709 235.586,130.043 236,130.5C 237.353,129.296 239.019,128.629 241,128.5C 245.82,127.634 250.653,127.467 255.5,128C 254.167,128.667 254.167,129.333 255.5,130C 254.975,130.692 254.308,131.192 253.5,131.5C 253.167,130.833 252.833,130.167 252.5,129.5C 250.233,131.665 250.233,133.665 252.5,135.5C 254.387,132.71 256.887,130.71 260,129.5C 260.667,130.167 261.333,130.833 262,131.5C 263.618,131.111 264.785,129.778 265.5,127.5C 266.816,130.028 267.983,130.028 269,127.5C 269.333,128.167 269.667,128.833 270,129.5C 270.684,128.216 270.517,127.049 269.5,126C 272.932,125.466 276.265,123.966 279.5,121.5C 280.107,121.624 280.44,121.957 280.5,122.5C 278.683,123.219 278.016,124.219 278.5,125.5C 294.755,117.908 305.755,105.575 311.5,88.5C 314.715,99.3291 319.548,109.329 326,118.5C 327.896,120.53 330.063,122.197 332.5,123.5C 334.642,121.095 337.309,119.762 340.5,119.5C 342.582,119.472 344.416,120.139 346,121.5C 346.333,121.167 346.667,120.833 347,120.5C 348.333,122.5 349.667,124.5 351,126.5C 352.628,125.181 352.461,123.848 350.5,122.5C 352.711,120.368 352.045,118.868 348.5,118C 349.782,115.719 350.448,113.219 350.5,110.5C 349.07,110.421 347.736,110.754 346.5,111.5C 345.808,110.975 345.308,110.308 345,109.5C 342.79,110.749 340.624,110.582 338.5,109C 336.207,105.665 335.373,102.165 336,98.5C 335,97.1667 334,97.1667 333,98.5C 332,97.5 331,96.5 330,95.5C 328.053,98.8201 325.553,99.1534 322.5,96.5C 321.024,93.7153 319.691,90.882 318.5,88C 319.667,86.8333 320.833,85.6667 322,84.5C 323.073,85.2797 324.24,85.113 325.5,84C 326.88,82.0748 328.38,80.2415 330,78.5C 331.085,79.2931 332.252,79.9598 333.5,80.5C 334.648,78.8513 335.981,77.3513 337.5,76C 338.784,75.3162 339.951,75.4829 341,76.5C 342.23,75.7248 342.563,74.7248 342,73.5C 341.282,74.4506 340.449,74.6172 339.5,74C 341,73.1667 342.167,72 343,70.5C 344.402,72.9734 345.902,72.9734 347.5,70.5C 349.398,71.7345 351.065,71.4011 352.5,69.5C 351.229,67.1713 349.229,66.0047 346.5,66C 350.361,64.6573 350.361,63.1573 346.5,61.5C 349.855,58.874 353.522,56.7073 357.5,55C 356.424,53.2739 356.257,51.4406 357,49.5C 358.768,53.325 360.768,53.325 363,49.5C 365.349,51.7443 364.849,52.9109 361.5,53C 362.536,54.6169 363.703,54.7836 365,53.5C 365.615,55.1161 366.615,56.4495 368,57.5C 368.333,56.8333 368.667,56.1667 369,55.5C 369.207,58.4226 370.707,60.2559 373.5,61C 373.272,61.3988 372.938,61.5654 372.5,61.5C 370.547,67.0738 369.88,73.0738 370.5,79.5C 367.102,79.1796 363.768,79.513 360.5,80.5C 361.32,82.1112 362.654,82.7778 364.5,82.5C 366.5,82.5 368.5,82.5 370.5,82.5C 370.5,86.8333 370.5,91.1667 370.5,95.5C 366.178,96.9945 362.178,98.9945 358.5,101.5C 359.423,103.924 360.923,105.924 363,107.5C 365.037,105.294 367.203,103.294 369.5,101.5C 370.488,106.64 370.821,111.974 370.5,117.5C 368.369,118.314 366.036,118.814 363.5,119C 366.242,120.886 367.909,123.386 368.5,126.5C 371.617,126.358 374.117,125.024 376,122.5C 376.333,113.5 376.667,104.5 377,95.5C 380.038,93.997 381.871,91.997 382.5,89.5C 381.14,90.1799 379.807,90.8466 378.5,91.5C 377.521,88.3752 377.187,85.0419 377.5,81.5C 384.404,82.9531 391.404,83.6198 398.5,83.5C 398.806,86.3854 398.473,89.0521 397.5,91.5C 395.867,87.542 394.2,87.542 392.5,91.5C 390.955,92.4519 389.288,92.7852 387.5,92.5C 386.791,91.596 385.791,91.2627 384.5,91.5C 384.5,101.833 384.5,112.167 384.5,122.5C 385.769,127.492 387.935,127.826 391,123.5C 391.483,122.552 391.649,121.552 391.5,120.5C 398.833,120.5 406.167,120.5 413.5,120.5C 413.201,122.604 413.534,124.604 414.5,126.5C 416.029,125.237 417.695,124.237 419.5,123.5C 421.541,123.854 423.374,123.854 425,123.5C 425.451,125.929 426.285,126.096 427.5,124C 426.391,122.187 427.058,121.354 429.5,121.5C 429.5,122.833 429.5,124.167 429.5,125.5C 430.552,125.351 431.552,125.517 432.5,126C 434.123,128.08 435.623,130.246 437,132.5C 438.074,131.382 439.24,130.382 440.5,129.5C 437.81,127.807 435.81,125.473 434.5,122.5C 435.098,121.205 435.598,119.872 436,118.5C 437,119.833 438,121.167 439,122.5C 439.333,122.167 439.667,121.833 440,121.5C 440.492,122.549 440.326,123.549 439.5,124.5C 440.025,125.192 440.692,125.692 441.5,126C 441.167,126.333 440.833,126.667 440.5,127C 443.366,128.252 446.366,128.252 449.5,127C 448.5,126.667 447.5,126.333 446.5,126C 448.14,123.224 447.473,121.224 444.5,120C 446,119.167 447.167,118 448,116.5C 448.957,118.709 450.124,118.543 451.5,116C 450.167,115.333 448.833,114.667 447.5,114C 447.833,113.667 448.167,113.333 448.5,113C 446.963,111.89 446.297,110.39 446.5,108.5C 449.171,106.066 452.004,103.733 455,101.5C 455.784,109.037 455.617,116.537 454.5,124C 456.129,128.377 458.295,128.544 461,124.5C 461.5,116.507 461.666,108.507 461.5,100.5C 462.491,106.979 462.824,113.646 462.5,120.5C 465.48,120.38 468.313,119.713 471,118.5C 474.229,122.067 477.729,125.233 481.5,128C 479.808,131.553 477.308,134.387 474,136.5C 473.626,137.416 473.126,138.25 472.5,139C 475.422,138.087 477.922,136.254 480,133.5C 480.667,134.833 481.333,134.833 482,133.5C 482.49,132.207 482.657,130.873 482.5,129.5C 484.124,129.36 485.29,130.027 486,131.5C 486.645,130.354 487.478,129.354 488.5,128.5C 486.174,127.855 484.507,126.522 483.5,124.5C 490.241,124.829 496.908,124.329 503.5,123C 506.217,120.35 506.051,117.85 503,115.5C 502.821,112.447 502.321,109.447 501.5,106.5C 500.474,110.185 499.14,113.685 497.5,117C 491.806,119.113 486.306,118.946 481,116.5C 480.333,112.5 480.333,108.5 481,104.5C 486.762,101.036 492.262,97.2029 497.5,93C 495.454,90.0973 492.787,88.264 489.5,87.5C 487.931,92.2717 485.098,96.2717 481,99.5C 480.233,95.4425 480.4,91.4425 481.5,87.5C 480.114,85.2584 478.114,83.9251 475.5,83.5C 475.5,81.1667 475.5,78.8333 475.5,76.5C 472.833,76.5 470.167,76.5 467.5,76.5C 467.768,78.099 467.434,79.4324 466.5,80.5C 466.5,78.8333 466.5,77.1667 466.5,75.5C 469.833,75.5 473.167,75.5 476.5,75.5C 476.5,77.1667 476.5,78.8333 476.5,80.5C 476.369,81.3764 476.702,82.0431 477.5,82.5C 481.121,81.6082 483.121,79.2749 483.5,75.5C 489.5,74.8333 495.5,74.1667 501.5,73.5C 498.568,67.7464 495.234,67.2464 491.5,72C 483.07,73.8802 481.403,71.5469 486.5,65C 483.721,63.2776 480.721,62.1109 477.5,61.5C 479.378,60.1125 481.045,59.1125 482.5,58.5C 480.107,55.6457 477.107,55.3124 473.5,57.5C 472.833,57.1667 472.167,56.8333 471.5,56.5C 467.252,61.9276 463.419,61.5943 460,55.5C 459.282,56.4506 458.449,56.6172 457.5,56C 458.451,55.2825 458.617,54.4491 458,53.5C 455.263,55.4517 453.096,57.9517 451.5,61C 453.992,62.2492 453.825,63.4158 451,64.5C 449.663,62.9963 447.996,61.9963 446,61.5C 446.617,63.0948 446.284,64.4281 445,65.5C 442.867,64.7449 441.2,63.4116 440,61.5C 439.667,61.8333 439.333,62.1667 439,62.5C 437.004,60.1728 434.504,58.6728 431.5,58C 432.935,55.7328 432.602,53.7328 430.5,52C 431.167,51.6667 431.833,51.3333 432.5,51C 432.167,50 431.833,49 431.5,48C 432,47.8333 432.5,47.6667 433,47.5C 434.15,48.4239 435.15,48.4239 436,47.5C 438,48.8333 440,50.1667 442,51.5C 442.308,50.6919 442.808,50.0253 443.5,49.5C 443.711,51.0437 443.711,52.7103 443.5,54.5C 446.055,59.4412 448.055,58.9412 449.5,53C 448.5,52.6667 447.5,52.3333 446.5,52C 448.061,51.6824 449.228,50.8491 450,49.5C 450.424,51.6145 451.591,52.4479 453.5,52C 452.833,51.3333 452.167,50.6667 451.5,50C 452.641,47.2168 454.475,45.0501 457,43.5C 455.855,45.251 455.355,47.0843 455.5,49C 456.667,49.5 457.5,50.3333 458,51.5C 459,50.5 460,49.5 461,48.5C 462.067,49.1905 463.234,49.6905 464.5,50C 464.665,51.8366 465.332,53.8366 466.5,56C 465.112,56.8893 465.278,57.3893 467,57.5C 467.623,56.1671 468.956,54.8338 471,53.5C 473.403,56.3655 474.236,56.1988 473.5,53C 475.912,50.9646 475.245,49.9646 471.5,50C 472.362,47.2656 473.195,47.0989 474,49.5C 475.706,48.6921 476.539,47.3588 476.5,45.5C 477.978,45.762 479.311,45.4287 480.5,44.5C 477.696,43.2665 475.529,41.2665 474,38.5C 472.679,41.4088 470.512,42.5755 467.5,42C 470.257,38.2947 469.757,37.7947 466,40.5C 463.632,39.2827 461.132,38.4494 458.5,38C 459.167,37.6667 459.833,37.3333 460.5,37C 457.67,36.131 455.003,34.9643 452.5,33.5C 452.977,32.5224 453.643,31.6891 454.5,31C 452.045,30.6062 450.045,29.4396 448.5,27.5C 449.718,27.891 450.552,27.2244 451,25.5C 451.615,27.1161 452.615,28.4495 454,29.5C 454.801,27.4674 455.301,25.3008 455.5,23C 454.833,22.3333 454.167,21.6667 453.5,21C 455.833,19.957 458.166,19.1237 460.5,18.5C 504.833,18.5 549.167,18.5 593.5,18.5C 594.045,22.1716 594.378,21.8383 594.5,17.5C 595.365,20.4184 596.365,23.4184 597.5,26.5C 595.922,27.2978 594.256,27.7978 592.5,28C 594.713,29.6162 597.047,30.7828 599.5,31.5C 597.5,31.5 595.5,31.5 593.5,31.5C 592.484,34.0513 590.817,36.218 588.5,38C 589.763,39.7051 590.097,41.3718 589.5,43C 590.328,43.9147 591.328,44.5814 592.5,45C 591.424,46.7261 591.257,48.5594 592,50.5C 595.943,54.5574 599.777,58.724 603.5,63C 608.679,63.7712 612.679,66.7712 615.5,72C 613.901,73.0658 612.901,74.5658 612.5,76.5C 613.833,78.5 613.833,80.5 612.5,82.5C 613.529,82.2964 614.529,82.7964 615.5,84C 614.624,85.586 613.624,87.086 612.5,88.5C 613.826,89.6422 614.826,90.9755 615.5,92.5C 614.475,92.8966 614.308,93.5632 615,94.5C 616.615,95.3862 618.115,96.3862 619.5,97.5C 618.588,98.7382 618.421,100.072 619,101.5C 621.588,104.589 623.421,108.089 624.5,112C 623.949,113.398 623.616,114.732 623.5,116C 624.499,119.679 626.166,122.179 628.5,123.5C 626.541,129.752 622.874,134.752 617.5,138.5C 616.469,139.355 615.303,140.022 614,140.5C 612.333,139.5 610.667,138.5 609,137.5C 608.228,137.645 607.561,137.978 607,138.5C 606.667,139.833 606.333,141.167 606,142.5C 600.455,146.378 595.955,151.211 592.5,157C 594.598,156.968 596.598,156.301 598.5,155C 601.369,151.796 604.535,148.963 608,146.5C 608.552,149.419 607.885,152.086 606,154.5C 603.012,156.399 600.179,158.399 597.5,160.5C 596.069,161.78 595.402,163.447 595.5,165.5C 594.596,166.209 594.263,167.209 594.5,168.5C 530.664,168.168 466.998,168.501 403.5,169.5C 297.833,169.5 192.167,169.5 86.5,169.5C 86.7886,166.351 86.2886,163.351 85,160.5C 82.2518,158.542 79.4185,156.709 76.5,155C 73.5088,152.859 72.3421,150.025 73,146.5C 77.7753,149.808 82.2753,153.474 86.5,157.5C 87.568,155.813 87.4014,154.146 86,152.5C 82.6876,149.344 79.0209,146.677 75,144.5C 76.1313,142.023 75.6313,139.857 73.5,138C 71.6332,137.289 70.1332,137.789 69,139.5C 66.2595,138.101 63.7595,136.434 61.5,134.5C 64.3926,127.982 64.0592,121.648 60.5,115.5C 60.9451,113.388 60.9451,111.388 60.5,109.5C 62.0557,106.468 63.389,103.301 64.5,100C 64.1667,99.5 63.8333,99 63.5,98.5C 61.8513,99.6477 60.3513,100.981 59,102.5C 58.6012,102.272 58.4346,101.938 58.5,101.5C 60.8876,98.462 63.8876,96.1287 67.5,94.5C 68.7733,93.7435 68.7733,93.0768 67.5,92.5C 68.4731,90.9317 68.6397,89.265 68,87.5C 66.6074,83.7143 64.9407,80.0477 63,76.5C 61.6212,69.4984 62.7879,62.9984 66.5,57C 65.1667,56.3333 65.1667,55.6667 66.5,55C 65.4293,54.1482 64.4293,53.3149 63.5,52.5C 66.3256,50.5384 69.3256,50.0384 72.5,51C 75.0386,48.6303 77.3719,46.1303 79.5,43.5C 80.3019,42.0484 80.8019,40.3817 81,38.5C 81.3076,39.3081 81.8076,39.9747 82.5,40.5C 83.8139,39.6872 84.9805,38.6872 86,37.5C 87.5173,38.9523 87.684,40.4523 86.5,42C 86.7591,43.2613 87.4258,44.2613 88.5,45C 87.8095,46.0674 87.3095,47.2341 87,48.5C 85.9505,47.4829 84.7839,47.3162 83.5,48C 84.731,49.1827 84.731,50.3493 83.5,51.5C 82.1667,51.8333 80.8333,52.1667 79.5,52.5C 81.2955,53.1414 82.7955,54.1414 84,55.5C 85.6667,53.1667 87.6667,51.1667 90,49.5C 90.414,49.9574 90.914,50.2907 91.5,50.5C 92.604,48.6115 93.9373,46.9448 95.5,45.5C 96.105,46.5874 95.7717,47.754 94.5,49C 95.7441,49.4561 96.5774,48.9561 97,47.5C 97.3333,48.1667 97.6667,48.8333 98,49.5C 98.6838,48.2161 98.5171,47.0495 97.5,46C 99.5025,41.7725 100.336,37.6058 100,33.5C 98.8989,35.3939 97.5655,36.0606 96,35.5C 92.8731,33.3774 92.3731,31.044 94.5,28.5C 94.2907,27.914 93.9574,27.414 93.5,27C 94.7659,26.6905 95.9326,26.1905 97,25.5C 98.2384,27.4347 98.7384,29.4347 98.5,31.5C 98.8333,31.8333 99.1667,32.1667 99.5,32.5C 100.281,31.2713 100.781,29.938 101,28.5C 101.359,31.5443 102.026,31.8776 103,29.5C 103.333,30.8333 103.667,32.1667 104,33.5C 105.697,31.301 107.197,28.9676 108.5,26.5C 108.154,25.3044 107.654,25.3044 107,26.5C 106.517,25.552 106.351,24.552 106.5,23.5C 103.308,23.5955 100.308,22.9288 97.5,21.5C 98.6002,20.4415 99.9336,19.6082 101.5,19C 96.816,17.8978 92.4826,18.5645 88.5,21C 90.8098,21.4966 93.1432,21.6633 95.5,21.5C 92.1554,22.3188 88.822,22.6521 85.5,22.5C 85.5,22.1667 85.5,21.8333 85.5,21.5C 85.5,21.1667 85.5,20.8333 85.5,20.5C 86.404,19.791 86.7373,18.791 86.5,17.5C 93.1667,17.5 99.8333,17.5 106.5,17.5 Z"/></g>
<g><path style="opacity:1" fill="#476556" d="M 106.5,17.5 C 269.167,17.5 431.833,17.5 594.5,17.5C 594.378,21.8383 594.045,22.1716 593.5,18.5C 549.167,18.5 504.833,18.5 460.5,18.5C 392.167,18.5 323.833,18.5 255.5,18.5C 205.664,18.8322 155.997,18.4989 106.5,17.5 Z"/></g>
<g><path style="opacity:1" fill="#59705e" d="M 255.5,18.5 C 323.833,18.5 392.167,18.5 460.5,18.5C 458.166,19.1237 455.833,19.957 453.5,21C 454.167,21.6667 454.833,22.3333 455.5,23C 455.301,25.3008 454.801,27.4674 454,29.5C 452.615,28.4495 451.615,27.1161 451,25.5C 450.552,27.2244 449.718,27.891 448.5,27.5C 450.045,29.4396 452.045,30.6062 454.5,31C 453.643,31.6891 452.977,32.5224 452.5,33.5C 455.003,34.9643 457.67,36.131 460.5,37C 459.833,37.3333 459.167,37.6667 458.5,38C 461.132,38.4494 463.632,39.2827 466,40.5C 469.757,37.7947 470.257,38.2947 467.5,42C 470.512,42.5755 472.679,41.4088 474,38.5C 475.529,41.2665 477.696,43.2665 480.5,44.5C 479.311,45.4287 477.978,45.762 476.5,45.5C 476.539,47.3588 475.706,48.6921 474,49.5C 473.195,47.0989 472.362,47.2656 471.5,50C 475.245,49.9646 475.912,50.9646 473.5,53C 474.236,56.1988 473.403,56.3655 471,53.5C 468.956,54.8338 467.623,56.1671 467,57.5C 465.278,57.3893 465.112,56.8893 466.5,56C 465.332,53.8366 464.665,51.8366 464.5,50C 463.234,49.6905 462.067,49.1905 461,48.5C 460,49.5 459,50.5 458,51.5C 457.5,50.3333 456.667,49.5 455.5,49C 455.355,47.0843 455.855,45.251 457,43.5C 454.475,45.0501 452.641,47.2168 451.5,50C 452.167,50.6667 452.833,51.3333 453.5,52C 451.591,52.4479 450.424,51.6145 450,49.5C 449.228,50.8491 448.061,51.6824 446.5,52C 447.5,52.3333 448.5,52.6667 449.5,53C 448.055,58.9412 446.055,59.4412 443.5,54.5C 443.711,52.7103 443.711,51.0437 443.5,49.5C 442.808,50.0253 442.308,50.6919 442,51.5C 440,50.1667 438,48.8333 436,47.5C 435.15,48.4239 434.15,48.4239 433,47.5C 432.5,47.6667 432,47.8333 431.5,48C 431.833,49 432.167,50 432.5,51C 431.833,51.3333 431.167,51.6667 430.5,52C 432.602,53.7328 432.935,55.7328 431.5,58C 434.504,58.6728 437.004,60.1728 439,62.5C 439.333,62.1667 439.667,61.8333 440,61.5C 441.2,63.4116 442.867,64.7449 445,65.5C 446.284,64.4281 446.617,63.0948 446,61.5C 447.996,61.9963 449.663,62.9963 451,64.5C 453.825,63.4158 453.992,62.2492 451.5,61C 453.096,57.9517 455.263,55.4517 458,53.5C 458.617,54.4491 458.451,55.2825 457.5,56C 458.449,56.6172 459.282,56.4506 460,55.5C 463.419,61.5943 467.252,61.9276 471.5,56.5C 472.167,56.8333 472.833,57.1667 473.5,57.5C 477.107,55.3124 480.107,55.6457 482.5,58.5C 481.045,59.1125 479.378,60.1125 477.5,61.5C 477.5,65.1667 477.5,68.8333 477.5,72.5C 473.833,72.5 470.167,72.5 466.5,72.5C 466.292,70.0799 466.626,67.7466 467.5,65.5C 464.957,64.1965 462.29,63.1965 459.5,62.5C 459.311,65.9851 459.311,69.6518 459.5,73.5C 453.824,73.3339 448.157,73.5006 442.5,74C 448.317,75.4526 454.317,75.9526 460.5,75.5C 460.5,77.8333 460.5,80.1667 460.5,82.5C 462.858,82.7475 464.858,82.0808 466.5,80.5C 467.434,79.4324 467.768,78.099 467.5,76.5C 470.167,76.5 472.833,76.5 475.5,76.5C 475.5,78.8333 475.5,81.1667 475.5,83.5C 474.624,83.3691 473.957,83.7025 473.5,84.5C 474.626,90.7818 474.793,97.1151 474,103.5C 471.094,106.037 467.927,108.204 464.5,110C 467.687,110.108 470.687,109.275 473.5,107.5C 474.328,111.796 474.828,116.129 475,120.5C 477.447,122.808 480.281,124.141 483.5,124.5C 484.507,126.522 486.174,127.855 488.5,128.5C 487.478,129.354 486.645,130.354 486,131.5C 485.29,130.027 484.124,129.36 482.5,129.5C 482.657,130.873 482.49,132.207 482,133.5C 481.333,134.833 480.667,134.833 480,133.5C 477.922,136.254 475.422,138.087 472.5,139C 473.126,138.25 473.626,137.416 474,136.5C 477.308,134.387 479.808,131.553 481.5,128C 477.729,125.233 474.229,122.067 471,118.5C 468.313,119.713 465.48,120.38 462.5,120.5C 462.824,113.646 462.491,106.979 461.5,100.5C 461.611,99.8826 461.944,99.3826 462.5,99C 460.789,97.8668 460.289,96.3668 461,94.5C 463.285,92.0934 465.451,89.5934 467.5,87C 466.073,85.2029 464.24,84.0362 462,83.5C 456.281,94.0919 448.781,103.259 439.5,111C 441.989,110.763 444.322,109.929 446.5,108.5C 446.297,110.39 446.963,111.89 448.5,113C 448.167,113.333 447.833,113.667 447.5,114C 448.833,114.667 450.167,115.333 451.5,116C 450.124,118.543 448.957,118.709 448,116.5C 447.167,118 446,119.167 444.5,120C 447.473,121.224 448.14,123.224 446.5,126C 447.5,126.333 448.5,126.667 449.5,127C 446.366,128.252 443.366,128.252 440.5,127C 440.833,126.667 441.167,126.333 441.5,126C 440.692,125.692 440.025,125.192 439.5,124.5C 440.326,123.549 440.492,122.549 440,121.5C 439.667,121.833 439.333,122.167 439,122.5C 438,121.167 437,119.833 436,118.5C 435.598,119.872 435.098,121.205 434.5,122.5C 435.81,125.473 437.81,127.807 440.5,129.5C 439.24,130.382 438.074,131.382 437,132.5C 435.623,130.246 434.123,128.08 432.5,126C 431.552,125.517 430.552,125.351 429.5,125.5C 429.5,124.167 429.5,122.833 429.5,121.5C 427.058,121.354 426.391,122.187 427.5,124C 426.285,126.096 425.451,125.929 425,123.5C 423.374,123.854 421.541,123.854 419.5,123.5C 419.334,114.161 419.5,104.827 420,95.5C 420.692,94.9747 421.192,94.3081 421.5,93.5C 419.424,91.7123 417.257,90.0456 415,88.5C 413.035,90.6683 410.535,92.0016 407.5,92.5C 409.396,93.4656 411.396,93.7989 413.5,93.5C 413.665,97.1817 413.499,100.848 413,104.5C 411.301,103.594 409.467,103.261 407.5,103.5C 407.5,104.5 407.5,105.5 407.5,106.5C 409.5,106.5 411.5,106.5 413.5,106.5C 413.5,110.167 413.5,113.833 413.5,117.5C 410.833,117.5 408.167,117.5 405.5,117.5C 405.333,106.162 405.5,94.8284 406,83.5C 412.112,82.8519 418.279,82.1853 424.5,81.5C 422.613,79.9596 420.78,78.2929 419,76.5C 415.349,80.2053 410.849,81.5386 405.5,80.5C 405.318,78.4086 405.652,76.4086 406.5,74.5C 405.833,73.8333 405.167,73.1667 404.5,72.5C 408.833,71.1667 413.167,69.8333 417.5,68.5C 415.851,66.3501 414.018,64.3501 412,62.5C 404.163,67.4984 395.663,70.9984 386.5,73C 390.859,73.5343 395.192,73.3676 399.5,72.5C 399.5,75.5 399.5,78.5 399.5,81.5C 394.489,81.6659 389.489,81.4993 384.5,81C 384.833,80.6667 385.167,80.3333 385.5,80C 383.983,78.3149 382.316,76.8149 380.5,75.5C 379.719,76.7366 378.719,77.7366 377.5,78.5C 375.984,73.961 376.317,69.6277 378.5,65.5C 376.781,63.6478 374.781,62.3145 372.5,61.5C 372.938,61.5654 373.272,61.3988 373.5,61C 370.707,60.2559 369.207,58.4226 369,55.5C 368.667,56.1667 368.333,56.8333 368,57.5C 366.615,56.4495 365.615,55.1161 365,53.5C 363.703,54.7836 362.536,54.6169 361.5,53C 364.849,52.9109 365.349,51.7443 363,49.5C 360.768,53.325 358.768,53.325 357,49.5C 356.257,51.4406 356.424,53.2739 357.5,55C 353.522,56.7073 349.855,58.874 346.5,61.5C 350.361,63.1573 350.361,64.6573 346.5,66C 349.229,66.0047 351.229,67.1713 352.5,69.5C 351.065,71.4011 349.398,71.7345 347.5,70.5C 345.902,72.9734 344.402,72.9734 343,70.5C 342.167,72 341,73.1667 339.5,74C 340.449,74.6172 341.282,74.4506 342,73.5C 342.563,74.7248 342.23,75.7248 341,76.5C 339.951,75.4829 338.784,75.3162 337.5,76C 335.981,77.3513 334.648,78.8513 333.5,80.5C 332.252,79.9598 331.085,79.2931 330,78.5C 328.38,80.2415 326.88,82.0748 325.5,84C 324.24,85.113 323.073,85.2797 322,84.5C 320.833,85.6667 319.667,86.8333 318.5,88C 319.691,90.882 321.024,93.7153 322.5,96.5C 325.553,99.1534 328.053,98.8201 330,95.5C 331,96.5 332,97.5 333,98.5C 334,97.1667 335,97.1667 336,98.5C 335.373,102.165 336.207,105.665 338.5,109C 340.624,110.582 342.79,110.749 345,109.5C 345.308,110.308 345.808,110.975 346.5,111.5C 347.736,110.754 349.07,110.421 350.5,110.5C 350.448,113.219 349.782,115.719 348.5,118C 352.045,118.868 352.711,120.368 350.5,122.5C 352.461,123.848 352.628,125.181 351,126.5C 349.667,124.5 348.333,122.5 347,120.5C 346.667,120.833 346.333,121.167 346,121.5C 344.416,120.139 342.582,119.472 340.5,119.5C 341.609,118.71 342.942,118.21 344.5,118C 330.831,110.663 320.997,99.83 315,85.5C 313,80.1667 311,74.8333 309,69.5C 306.933,66.93 304.433,64.93 301.5,63.5C 299.641,65.1924 297.641,66.6924 295.5,68C 301.368,67.9296 305.535,70.4296 308,75.5C 304.002,94.1584 294.836,109.825 280.5,122.5C 280.44,121.957 280.107,121.624 279.5,121.5C 276.265,123.966 272.932,125.466 269.5,126C 270.517,127.049 270.684,128.216 270,129.5C 269.667,128.833 269.333,128.167 269,127.5C 267.983,130.028 266.816,130.028 265.5,127.5C 264.785,129.778 263.618,131.111 262,131.5C 261.333,130.833 260.667,130.167 260,129.5C 256.887,130.71 254.387,132.71 252.5,135.5C 250.233,133.665 250.233,131.665 252.5,129.5C 252.833,130.167 253.167,130.833 253.5,131.5C 254.308,131.192 254.975,130.692 255.5,130C 254.167,129.333 254.167,128.667 255.5,128C 250.653,127.467 245.82,127.634 241,128.5C 239.019,128.629 237.353,129.296 236,130.5C 235.586,130.043 235.086,129.709 234.5,129.5C 232.194,132.473 229.527,135.14 226.5,137.5C 224.61,135.422 222.276,134.089 219.5,133.5C 218.808,134.025 218.308,134.692 218,135.5C 217.242,133.231 217.409,131.064 218.5,129C 216.675,127.534 216.175,125.701 217,123.5C 218.008,123.982 219.175,124.148 220.5,124C 219.672,124.915 218.672,125.581 217.5,126C 219.23,127.852 220.396,127.686 221,125.5C 221.667,128.167 222.333,128.167 223,125.5C 223.317,127.301 223.984,127.634 225,126.5C 226.019,127.687 227.186,128.687 228.5,129.5C 229.59,128.273 230.924,127.44 232.5,127C 230.068,125.913 230.402,125.413 233.5,125.5C 240.839,126.584 248.172,126.584 255.5,125.5C 257.305,122.252 259.972,119.918 263.5,118.5C 250.882,118.485 238.216,118.318 225.5,118C 222.99,117.624 220.657,116.79 218.5,115.5C 222.125,112.377 225.625,109.044 229,105.5C 231.035,102.439 232.201,99.1055 232.5,95.5C 235.167,95.5 237.833,95.5 240.5,95.5C 240.5,102.5 240.5,109.5 240.5,116.5C 242.903,116.607 244.736,115.607 246,113.5C 246.5,107.175 246.666,100.842 246.5,94.5C 251.544,94.8275 256.544,94.4941 261.5,93.5C 259.5,91.8333 257.5,90.1667 255.5,88.5C 254.019,89.4803 252.685,90.647 251.5,92C 249.866,92.4935 248.199,92.6602 246.5,92.5C 246.5,88.1667 246.5,83.8333 246.5,79.5C 250.226,79.8226 253.893,79.4892 257.5,78.5C 254.739,72.5069 251.573,72.1736 248,77.5C 247.233,73.4425 247.4,69.4425 248.5,65.5C 246.142,63.7134 243.475,62.7134 240.5,62.5C 240.5,67.5 240.5,72.5 240.5,77.5C 238.167,77.5 235.833,77.5 233.5,77.5C 233.5,74.1667 233.5,70.8333 233.5,67.5C 234.773,66.9232 234.773,66.2565 233.5,65.5C 231.5,64.8333 229.5,64.1667 227.5,63.5C 226.702,63.9569 226.369,64.6236 226.5,65.5C 226.5,69.5 226.5,73.5 226.5,77.5C 223.833,77.5 221.167,77.5 218.5,77.5C 218.5,78.5 218.5,79.5 218.5,80.5C 221.167,80.5 223.833,80.5 226.5,80.5C 226.5,84.8333 226.5,89.1667 226.5,93.5C 214.5,94.1667 214.5,94.8333 226.5,95.5C 226.103,103.633 222.603,109.966 216,114.5C 215.228,114.355 214.561,114.022 214,113.5C 213.833,110 213.667,106.5 213.5,103C 213.429,98.2509 213.929,93.7509 215,89.5C 213.323,88.4841 211.657,87.4841 210,86.5C 208.831,87.0085 207.998,87.8419 207.5,89C 204.167,89.3333 200.833,89.6667 197.5,90C 198.373,91.045 199.373,91.8783 200.5,92.5C 201.239,92.369 201.906,92.5357 202.5,93C 200.888,93.7203 199.388,93.5536 198,92.5C 197.5,93 197,93.5 196.5,94C 197.433,95.6077 196.767,96.441 194.5,96.5C 192.627,96.5177 192.294,96.0177 193.5,95C 192,94.5 190.5,94 189,93.5C 187.588,94.9227 186.421,94.756 185.5,93C 186.035,90.8913 187.035,90.3913 188.5,91.5C 190.547,89.9848 192.881,89.1515 195.5,89C 197.571,85.9625 200.237,84.6292 203.5,85C 202.383,81.9269 202.216,78.7603 203,75.5C 204.008,75.0183 205.175,74.8516 206.5,75C 204.935,73.4943 204.601,71.9943 205.5,70.5C 207.06,72.9535 208.06,75.6202 208.5,78.5C 214.983,77.0664 215.983,73.8998 211.5,69C 208.516,67.7286 205.516,66.562 202.5,65.5C 203.635,63.7868 205.302,63.1201 207.5,63.5C 208.501,60.3289 208.501,57.3289 207.5,54.5C 209.325,53.4291 210.492,54.0958 211,56.5C 212.149,53.1746 212.316,49.8412 211.5,46.5C 212.68,42.8017 214.347,42.6351 216.5,46C 215.09,46.3678 214.09,47.2011 213.5,48.5C 214.982,50.4829 216.649,52.3163 218.5,54C 217.346,54.9138 217.513,55.7471 219,56.5C 219.51,54.4547 220.343,52.6213 221.5,51C 222.5,50.3333 223.5,50.3333 224.5,51C 223.5,52 222.5,53 221.5,54C 222.211,55.2547 223.044,56.4214 224,57.5C 222.999,52.5558 223.999,52.2225 227,56.5C 228.787,55.6569 230.62,55.4902 232.5,56C 233.574,55.2613 234.241,54.2613 234.5,53C 233.67,51.5349 233.504,50.0349 234,48.5C 236.421,45.8841 237.921,45.8841 238.5,48.5C 240.22,47.066 242.22,46.2326 244.5,46C 244.5,44.6667 244.5,43.3333 244.5,42C 246.5,42.6667 248.5,43.3333 250.5,44C 248.632,40.9582 246.965,37.7916 245.5,34.5C 246.355,33.707 247.189,34.0403 248,35.5C 251.157,33.2433 250.99,31.0766 247.5,29C 249.044,28.7104 250.377,28.0437 251.5,27C 251.167,26.6667 250.833,26.3333 250.5,26C 252.651,27.1171 254.985,27.7838 257.5,28C 255.854,26.4452 255.521,24.7785 256.5,23C 255.262,23.0773 254.262,22.9106 253.5,22.5C 254.63,21.3777 255.297,20.0443 255.5,18.5 Z"/></g>
<g><path style="opacity:1" fill="#4c4934" d="M 76.5,5.5 C 76.8333,5.5 77.1667,5.5 77.5,5.5C 76.1962,9.77692 75.0296,14.1103 74,18.5C 71.2664,19.4494 68.7664,20.7827 66.5,22.5C 64.7878,26.2527 62.7878,29.9194 60.5,33.5C 56.2076,33.0349 52.2076,33.8682 48.5,36C 42.8437,40.4823 37.5103,45.3156 32.5,50.5C 38.7447,39.5996 48.078,32.933 60.5,30.5C 61.9416,27.9504 63.1083,25.2837 64,22.5C 66.7096,20.3119 69.7096,18.6452 73,17.5C 73.4885,13.1672 74.6552,9.16716 76.5,5.5 Z"/></g>
<g><path style="opacity:1" fill="#a2986e" d="M 97.5,21.5 C 96.8333,21.5 96.1667,21.5 95.5,21.5C 93.1432,21.6633 90.8098,21.4966 88.5,21C 92.4826,18.5645 96.816,17.8978 101.5,19C 99.9336,19.6082 98.6002,20.4415 97.5,21.5 Z"/></g>
<g><path style="opacity:1" fill="#f2f3f2" d="M 627.5,19.5 C 628.833,20.1667 628.833,20.1667 627.5,19.5 Z"/></g>
<g><path style="opacity:1" fill="#be9f76" d="M 57.5,16.5 C 57.369,17.2389 57.5357,17.9056 58,18.5C 58.8928,17.2888 59.7261,17.2888 60.5,18.5C 58.4542,21.633 56.7876,24.9663 55.5,28.5C 54.6143,27.675 54.281,26.675 54.5,25.5C 53.1667,25.5 51.8333,25.5 50.5,25.5C 51.5676,24.5655 52.901,24.2322 54.5,24.5C 54.4152,21.3511 55.4152,18.6845 57.5,16.5 Z"/></g>
<g><path style="opacity:1" fill="#e9e2dd" d="M 626.5,20.5 C 626.833,20.5 627.167,20.5 627.5,20.5C 628.429,21.3149 629.429,22.1482 630.5,23C 629.833,23.3333 629.167,23.6667 628.5,24C 629.737,24.2321 630.737,24.7321 631.5,25.5C 627.5,26.1667 625.833,24.5 626.5,20.5 Z"/></g>
<g><path style="opacity:1" fill="#5b6f61" d="M 95.5,21.5 C 96.1667,21.5 96.8333,21.5 97.5,21.5C 100.308,22.9288 103.308,23.5955 106.5,23.5C 106.351,24.552 106.517,25.552 107,26.5C 107.654,25.3044 108.154,25.3044 108.5,26.5C 107.197,28.9676 105.697,31.301 104,33.5C 103.667,32.1667 103.333,30.8333 103,29.5C 102.026,31.8776 101.359,31.5443 101,28.5C 100.781,29.938 100.281,31.2713 99.5,32.5C 99.1667,32.1667 98.8333,31.8333 98.5,31.5C 98.7384,29.4347 98.2384,27.4347 97,25.5C 95.9326,26.1905 94.7659,26.6905 93.5,27C 93.9574,27.414 94.2907,27.914 94.5,28.5C 92.3731,31.044 92.8731,33.3774 96,35.5C 97.5655,36.0606 98.8989,35.3939 100,33.5C 100.336,37.6058 99.5025,41.7725 97.5,46C 98.5171,47.0495 98.6838,48.2161 98,49.5C 97.6667,48.8333 97.3333,48.1667 97,47.5C 96.5774,48.9561 95.7441,49.4561 94.5,49C 95.7717,47.754 96.105,46.5874 95.5,45.5C 93.9373,46.9448 92.604,48.6115 91.5,50.5C 90.914,50.2907 90.414,49.9574 90,49.5C 87.6667,51.1667 85.6667,53.1667 84,55.5C 82.7955,54.1414 81.2955,53.1414 79.5,52.5C 80.8333,52.1667 82.1667,51.8333 83.5,51.5C 84.731,50.3493 84.731,49.1827 83.5,48C 84.7839,47.3162 85.9505,47.4829 87,48.5C 87.3095,47.2341 87.8095,46.0674 88.5,45C 87.4258,44.2613 86.7591,43.2613 86.5,42C 87.684,40.4523 87.5173,38.9523 86,37.5C 84.9805,38.6872 83.8139,39.6872 82.5,40.5C 81.8076,39.9747 81.3076,39.3081 81,38.5C 80.8019,40.3817 80.3019,42.0484 79.5,43.5C 79.631,42.7611 79.4643,42.0944 79,41.5C 77.2111,43.229 75.0444,43.8957 72.5,43.5C 71.9369,38.1256 73.9369,33.9589 78.5,31C 80.1667,30.3333 81.8333,30.3333 83.5,31C 81.3843,32.1707 80.7176,33.6707 81.5,35.5C 84.2003,33.7656 86.2003,31.4323 87.5,28.5C 86.1667,27.8333 84.8333,27.1667 83.5,26.5C 84.1799,25.1401 84.8466,23.8068 85.5,22.5C 88.822,22.6521 92.1554,22.3188 95.5,21.5 Z"/></g>
<g><path style="opacity:1" fill="#f2f3f2" d="M 632.5,23.5 C 633.833,24.1667 633.833,24.1667 632.5,23.5 Z"/></g>
<g><path style="opacity:1" fill="#f2f3f2" d="M 44.5,25.5 C 45.8333,26.1667 45.8333,26.1667 44.5,25.5 Z"/></g>
<g><path style="opacity:1" fill="#f2f3f2" d="M 37.5,32.5 C 36.7611,32.631 36.0944,32.4643 35.5,32C 36.4368,31.3083 37.1034,31.475 37.5,32.5 Z"/></g>
<g><path style="opacity:1" fill="#617664" d="M 599.5,31.5 C 604.629,32.1303 607.629,34.9636 608.5,40C 608.507,41.8122 607.84,43.3122 606.5,44.5C 604.183,42.684 602.016,40.684 600,38.5C 599.685,39.9078 600.018,41.2411 601,42.5C 603.872,45.0366 606.372,47.8699 608.5,51C 610.488,51.1805 612.488,51.0138 614.5,50.5C 621.167,52.5 625.5,56.8333 627.5,63.5C 627.565,63.9382 627.399,64.2716 627,64.5C 626.248,61.6219 624.582,59.6219 622,58.5C 621.167,58.6667 620.333,58.8333 619.5,59C 620.299,60.7487 619.632,62.082 617.5,63C 618.712,67.8725 620.045,73.0392 621.5,78.5C 620.098,79.8425 620.431,80.6758 622.5,81C 621.248,82.8278 621.248,84.6612 622.5,86.5C 620.766,89.2003 618.432,91.2003 615.5,92.5C 614.826,90.9755 613.826,89.6422 612.5,88.5C 613.624,87.086 614.624,85.586 615.5,84C 614.529,82.7964 613.529,82.2964 612.5,82.5C 613.833,80.5 613.833,78.5 612.5,76.5C 612.901,74.5658 613.901,73.0658 615.5,72C 612.679,66.7712 608.679,63.7712 603.5,63C 599.777,58.724 595.943,54.5574 592,50.5C 591.257,48.5594 591.424,46.7261 592.5,45C 591.328,44.5814 590.328,43.9147 589.5,43C 590.097,41.3718 589.763,39.7051 588.5,38C 590.817,36.218 592.484,34.0513 593.5,31.5C 595.5,31.5 597.5,31.5 599.5,31.5 Z"/></g>
<g><path style="opacity:1" fill="#7e613f" d="M 633.5,26.5 C 638.121,27.809 642.121,30.1423 645.5,33.5C 645.833,34.5 646.5,35.1667 647.5,35.5C 649.633,37.0905 651.299,39.0905 652.5,41.5C 651.842,42.3984 651.176,43.3984 650.5,44.5C 647.078,43.0785 644.745,40.7451 643.5,37.5C 641.142,37.7475 639.142,37.0808 637.5,35.5C 637.703,33.9557 638.37,32.6223 639.5,31.5C 637.373,29.8294 635.373,28.1628 633.5,26.5 Z"/></g>
<g><path style="opacity:1" fill="#f2f0ef" d="M 645.5,33.5 C 646.873,33.3433 648.207,33.51 649.5,34C 648.584,34.2784 647.918,34.7784 647.5,35.5C 646.5,35.1667 645.833,34.5 645.5,33.5 Z"/></g>
<g><path style="opacity:1" fill="#f9f3f2" d="M 29.5,37.5 C 30.8333,38.1667 30.8333,38.1667 29.5,37.5 Z"/></g>
<g><path style="opacity:1" fill="#506453" d="M 66.5,22.5 C 65.6483,25.4049 65.315,28.2382 65.5,31C 67.0267,32.0319 68.36,33.1986 69.5,34.5C 68.9084,37.1272 68.5751,39.7938 68.5,42.5C 64.1186,42.3718 59.7853,42.7051 55.5,43.5C 56.7804,42.0687 58.4471,41.4021 60.5,41.5C 60.6168,39.5165 59.9501,37.8498 58.5,36.5C 59.868,35.4063 61.0347,35.7397 62,37.5C 62.484,35.8067 61.984,34.4733 60.5,33.5C 62.7878,29.9194 64.7878,26.2527 66.5,22.5 Z"/></g>
<g><path style="opacity:1" fill="#6d5330" d="M 637.5,35.5 C 639.142,37.0808 641.142,37.7475 643.5,37.5C 644.745,40.7451 647.078,43.0785 650.5,44.5C 651.176,43.3984 651.842,42.3984 652.5,41.5C 652.414,42.4959 652.748,43.3292 653.5,44C 652.518,46.3146 651.518,48.4813 650.5,50.5C 646.094,46.1159 641.428,41.9492 636.5,38C 631.376,34.9254 626.043,32.7587 620.5,31.5C 621.756,31.0962 622.923,30.4295 624,29.5C 627.416,30.8963 630.916,32.0629 634.5,33C 635.691,33.6979 636.691,34.5313 637.5,35.5 Z"/></g>
<g><path style="opacity:1" fill="#c8a773" d="M 84.5,15.5 C 84.6427,17.2624 84.3094,18.9291 83.5,20.5C 83.9569,21.2975 84.6236,21.6309 85.5,21.5C 85.5,21.8333 85.5,22.1667 85.5,22.5C 84.8466,23.8068 84.1799,25.1401 83.5,26.5C 84.8333,27.1667 86.1667,27.8333 87.5,28.5C 86.2003,31.4323 84.2003,33.7656 81.5,35.5C 80.7176,33.6707 81.3843,32.1707 83.5,31C 81.8333,30.3333 80.1667,30.3333 78.5,31C 73.9369,33.9589 71.9369,38.1256 72.5,43.5C 75.0444,43.8957 77.2111,43.229 79,41.5C 79.4643,42.0944 79.631,42.7611 79.5,43.5C 77.3719,46.1303 75.0386,48.6303 72.5,51C 69.3256,50.0384 66.3256,50.5384 63.5,52.5C 62.8333,52.8333 62.1667,53.1667 61.5,53.5C 60.5084,53.6716 59.8417,53.3382 59.5,52.5C 61.0894,50.6944 63.0894,49.3611 65.5,48.5C 66.3857,47.675 66.719,46.675 66.5,45.5C 48.8732,48.6194 37.7065,58.9527 33,76.5C 29.6449,88.2375 29.9782,99.9042 34,111.5C 35.4182,116.01 37.5849,120.01 40.5,123.5C 46.0946,134.628 55.0946,140.128 67.5,140C 63.6965,138.933 60.3632,137.1 57.5,134.5C 57.8417,133.662 58.5084,133.328 59.5,133.5C 60.1667,133.833 60.8333,134.167 61.5,134.5C 63.7595,136.434 66.2595,138.101 69,139.5C 70.1332,137.789 71.6332,137.289 73.5,138C 75.6313,139.857 76.1313,142.023 75,144.5C 79.0209,146.677 82.6876,149.344 86,152.5C 87.4014,154.146 87.568,155.813 86.5,157.5C 82.2753,153.474 77.7753,149.808 73,146.5C 72.3421,150.025 73.5088,152.859 76.5,155C 79.4185,156.709 82.2518,158.542 85,160.5C 86.2886,163.351 86.7886,166.351 86.5,169.5C 85.9569,169.56 85.6236,169.893 85.5,170.5C 255.832,171.5 426.165,171.833 596.5,171.5C 426.001,172.5 255.334,172.833 84.5,172.5C 83.8975,169.132 83.0642,165.799 82,162.5C 77.416,159.92 73.416,156.587 70,152.5C 68.7475,149.986 68.2475,147.32 68.5,144.5C 65.1667,144.167 61.8333,143.833 58.5,143.5C 45.4815,138.31 36.6482,128.977 32,115.5C 30.1657,109.789 28.6657,104.122 27.5,98.5C 26.0278,74.4412 35.3611,56.1079 55.5,43.5C 59.7853,42.7051 64.1186,42.3718 68.5,42.5C 68.5751,39.7938 68.9084,37.1272 69.5,34.5C 71.959,30.5499 75.459,27.8832 80,26.5C 81.6629,22.7871 83.1629,19.1204 84.5,15.5 Z"/></g>
<g><path style="opacity:1" fill="#d0a972" d="M 596.5,14.5 C 597.117,14.6107 597.617,14.944 598,15.5C 598.592,19.2765 599.592,22.9431 601,26.5C 609.052,29.2589 612.552,34.9256 611.5,43.5C 619.918,42.3648 627.584,44.1981 634.5,49C 642.05,55.9598 647.717,64.1265 651.5,73.5C 657.616,95.5868 653.616,115.587 639.5,133.5C 631.926,140.474 622.926,144.141 612.5,144.5C 612.065,153.274 607.732,159.274 599.5,162.5C 599.5,161.167 598.833,160.5 597.5,160.5C 600.179,158.399 603.012,156.399 606,154.5C 607.885,152.086 608.552,149.419 608,146.5C 604.535,148.963 601.369,151.796 598.5,155C 596.598,156.301 594.598,156.968 592.5,157C 595.955,151.211 600.455,146.378 606,142.5C 606.333,141.167 606.667,139.833 607,138.5C 607.561,137.978 608.228,137.645 609,137.5C 610.667,138.5 612.333,139.5 614,140.5C 615.303,140.022 616.469,139.355 617.5,138.5C 617.5,139.167 617.833,139.5 618.5,139.5C 618.917,140.124 619.584,140.457 620.5,140.5C 637.148,134.264 646.981,122.264 650,104.5C 653.446,85.1837 648.613,68.3503 635.5,54C 630.635,49.9822 625.135,47.4822 619,46.5C 617.014,46.5687 615.514,47.2353 614.5,48.5C 613.494,48.9377 613.494,49.6043 614.5,50.5C 612.488,51.0138 610.488,51.1805 608.5,51C 606.372,47.8699 603.872,45.0366 601,42.5C 600.018,41.2411 599.685,39.9078 600,38.5C 602.016,40.684 604.183,42.684 606.5,44.5C 607.84,43.3122 608.507,41.8122 608.5,40C 607.629,34.9636 604.629,32.1303 599.5,31.5C 597.047,30.7828 594.713,29.6162 592.5,28C 594.256,27.7978 595.922,27.2978 597.5,26.5C 596.365,23.4184 595.365,20.4184 594.5,17.5C 594.5,17.1667 594.5,16.8333 594.5,16.5C 595.833,16.5 596.5,15.8333 596.5,14.5 Z"/></g>
<g><path style="opacity:1" fill="#5f7564" d="M 60.5,33.5 C 61.984,34.4733 62.484,35.8067 62,37.5C 61.0347,35.7397 59.868,35.4063 58.5,36.5C 59.9501,37.8498 60.6168,39.5165 60.5,41.5C 58.4471,41.4021 56.7804,42.0687 55.5,43.5C 35.3611,56.1079 26.0278,74.4412 27.5,98.5C 27.6495,99.552 27.4828,100.552 27,101.5C 26.6667,99.5 26.3333,97.5 26,95.5C 25.0855,99.1851 24.4189,98.8518 24,94.5C 23.3333,93.1667 22.6667,93.1667 22,94.5C 21.5983,95.8721 21.0983,97.2054 20.5,98.5C 21.4066,101.421 21.7399,104.421 21.5,107.5C 20.8333,106.167 20.1667,104.833 19.5,103.5C 19.5,103.167 19.5,102.833 19.5,102.5C 19.4639,98.5499 20.1306,94.7165 21.5,91C 20.8278,86.6788 20.6612,82.1788 21,77.5C 23.1724,69.8007 26.0058,62.4674 29.5,55.5C 30.1103,53.5659 31.1103,51.8993 32.5,50.5C 37.5103,45.3156 42.8437,40.4823 48.5,36C 52.2076,33.8682 56.2076,33.0349 60.5,33.5 Z"/></g>
<g><path style="opacity:1" fill="#f7f3f2" d="M 664.5,53.5 C 664.5,53.8333 664.5,54.1667 664.5,54.5C 661.833,54.1667 661.833,53.8333 664.5,53.5 Z"/></g>
<g><path style="opacity:1" fill="#9d7c56" d="M 41.5,30.5 C 40.0401,32.4628 38.3734,34.2962 36.5,36C 37.1667,36.3333 37.8333,36.6667 38.5,37C 38.201,38.3204 38.0343,39.8204 38,41.5C 26.5843,51.9265 19.4177,64.7598 16.5,80C 14.1783,83.4854 13.0116,82.9854 13,78.5C 11.6241,87.0979 11.1241,95.7646 11.5,104.5C 8.63631,85.2625 12.4696,67.2625 23,50.5C 27.6017,44.2866 32.4351,38.2866 37.5,32.5C 38.6049,31.3995 39.9382,30.7329 41.5,30.5 Z"/></g>
<g><path style="opacity:1" fill="#788b77" d="M 59.5,55.5 C 60.1894,56.7736 61.0228,56.7736 62,55.5C 62.8333,56.3333 63.6667,57.1667 64.5,58C 63.0555,61.2434 61.3888,64.4101 59.5,67.5C 60.0839,74.4048 62.4172,80.9048 66.5,87C 65.6667,87.8333 64.8333,88.6667 64,89.5C 62.2228,87.2101 60.0562,85.5434 57.5,84.5C 53.7681,80.8518 52.1014,76.3518 52.5,71C 52.3637,64.6599 54.697,59.4933 59.5,55.5 Z"/></g>
<g><path style="opacity:1" fill="#86653e" d="M 652.5,41.5 C 657.492,46.8118 661.492,52.8118 664.5,59.5C 664.5,64.1667 664.5,68.8333 664.5,73.5C 663.998,70.9154 662.831,68.582 661,66.5C 660.517,67.448 660.351,68.448 660.5,69.5C 657.453,63.0748 654.12,56.7414 650.5,50.5C 651.518,48.4813 652.518,46.3146 653.5,44C 652.748,43.3292 652.414,42.4959 652.5,41.5 Z"/></g>
<g><path style="opacity:1" fill="#677d6a" d="M 63.5,52.5 C 64.4293,53.3149 65.4293,54.1482 66.5,55C 65.1667,55.6667 65.1667,56.3333 66.5,57C 62.7879,62.9984 61.6212,69.4984 63,76.5C 64.9407,80.0477 66.6074,83.7143 68,87.5C 68.6397,89.265 68.4731,90.9317 67.5,92.5C 63.296,90.9668 59.9626,88.3002 57.5,84.5C 60.0562,85.5434 62.2228,87.2101 64,89.5C 64.8333,88.6667 65.6667,87.8333 66.5,87C 62.4172,80.9048 60.0839,74.4048 59.5,67.5C 61.3888,64.4101 63.0555,61.2434 64.5,58C 63.6667,57.1667 62.8333,56.3333 62,55.5C 61.0228,56.7736 60.1894,56.7736 59.5,55.5C 60.5,55.1667 61.1667,54.5 61.5,53.5C 62.1667,53.1667 62.8333,52.8333 63.5,52.5 Z"/></g>
<g><path style="opacity:1" fill="#738773" d="M 627.5,63.5 C 631.06,72.2643 629.393,79.931 622.5,86.5C 621.248,84.6612 621.248,82.8278 622.5,81C 620.431,80.6758 620.098,79.8425 621.5,78.5C 620.045,73.0392 618.712,67.8725 617.5,63C 619.632,62.082 620.299,60.7487 619.5,59C 620.333,58.8333 621.167,58.6667 622,58.5C 624.582,59.6219 626.248,61.6219 627,64.5C 627.399,64.2716 627.565,63.9382 627.5,63.5 Z"/></g>
<g><path style="opacity:1" fill="#f2f3f2" d="M 12.5,67.5 C 13.8333,68.1667 13.8333,68.1667 12.5,67.5 Z"/></g>
<g><path style="opacity:1" fill="#eae6d2" d="M 477.5,61.5 C 480.721,62.1109 483.721,63.2776 486.5,65C 481.403,71.5469 483.07,73.8802 491.5,72C 495.234,67.2464 498.568,67.7464 501.5,73.5C 495.5,74.1667 489.5,74.8333 483.5,75.5C 483.121,79.2749 481.121,81.6082 477.5,82.5C 476.702,82.0431 476.369,81.3764 476.5,80.5C 477.461,78.7354 477.795,76.7354 477.5,74.5C 473.629,74.185 469.962,74.5184 466.5,75.5C 466.5,77.1667 466.5,78.8333 466.5,80.5C 464.858,82.0808 462.858,82.7475 460.5,82.5C 460.5,80.1667 460.5,77.8333 460.5,75.5C 454.317,75.9526 448.317,75.4526 442.5,74C 448.157,73.5006 453.824,73.3339 459.5,73.5C 459.311,69.6518 459.311,65.9851 459.5,62.5C 462.29,63.1965 464.957,64.1965 467.5,65.5C 466.626,67.7466 466.292,70.0799 466.5,72.5C 470.167,72.5 473.833,72.5 477.5,72.5C 477.5,68.8333 477.5,65.1667 477.5,61.5 Z"/></g>
<g><path style="opacity:1" fill="#e8e4d0" d="M 202.5,65.5 C 205.516,66.562 208.516,67.7286 211.5,69C 215.983,73.8998 214.983,77.0664 208.5,78.5C 208.06,75.6202 207.06,72.9535 205.5,70.5C 204.075,69.078 203.075,67.4113 202.5,65.5 Z"/></g>
<g><path style="opacity:1" fill="#6e816c" d="M 640.5,90.5 C 638.145,89.9056 635.978,88.9056 634,87.5C 630.167,89.436 626.334,90.936 622.5,92C 632.542,83.0232 635.209,72.1899 630.5,59.5C 631.031,57.4559 632.198,55.7893 634,54.5C 636.903,57.7323 639.403,61.2323 641.5,65C 639.919,69.7253 640.585,74.3919 643.5,79C 642.376,79.2492 641.376,79.7492 640.5,80.5C 641.292,83.1257 641.959,85.7924 642.5,88.5C 642.253,89.7133 641.586,90.38 640.5,90.5 Z"/></g>
<g><path style="opacity:1" fill="#9da490" d="M 466.5,75.5 C 469.962,74.5184 473.629,74.185 477.5,74.5C 477.795,76.7354 477.461,78.7354 476.5,80.5C 476.5,78.8333 476.5,77.1667 476.5,75.5C 473.167,75.5 469.833,75.5 466.5,75.5 Z"/></g>
<g><path style="opacity:1" fill="#a18051" d="M 664.5,73.5 C 664.5,82.5 664.5,91.5 664.5,100.5C 664.167,100.5 663.833,100.5 663.5,100.5C 664.175,89.9563 663.175,79.623 660.5,69.5C 660.351,68.448 660.517,67.448 661,66.5C 662.831,68.582 663.998,70.9154 664.5,73.5 Z"/></g>
<g><path style="opacity:1" fill="#f1e8d3" d="M 233.5,67.5 C 232.679,70.6414 232.179,73.9748 232,77.5C 229.443,78.6457 228.11,77.6457 228,74.5C 227.819,71.3054 227.319,68.3054 226.5,65.5C 226.369,64.6236 226.702,63.9569 227.5,63.5C 229.5,64.1667 231.5,64.8333 233.5,65.5C 234.773,66.2565 234.773,66.9232 233.5,67.5 Z"/></g>
<g><path style="opacity:1" fill="#ebe6d2" d="M 233.5,125.5 C 230.628,124.675 227.628,123.841 224.5,123C 219.962,120.437 215.462,117.937 211,115.5C 206.883,116.951 204.049,119.784 202.5,124C 201.551,124.617 200.718,124.451 200,123.5C 199.028,121.695 197.861,120.028 196.5,118.5C 199.798,116.84 203.131,115.173 206.5,113.5C 207.497,106.197 207.831,98.8635 207.5,91.5C 204.941,91.1984 202.607,91.5318 200.5,92.5C 199.373,91.8783 198.373,91.045 197.5,90C 200.833,89.6667 204.167,89.3333 207.5,89C 207.998,87.8419 208.831,87.0085 210,86.5C 211.657,87.4841 213.323,88.4841 215,89.5C 213.929,93.7509 213.429,98.2509 213.5,103C 213.667,106.5 213.833,110 214,113.5C 214.561,114.022 215.228,114.355 216,114.5C 222.603,109.966 226.103,103.633 226.5,95.5C 214.5,94.8333 214.5,94.1667 226.5,93.5C 226.5,89.1667 226.5,84.8333 226.5,80.5C 223.833,80.5 221.167,80.5 218.5,80.5C 218.5,79.5 218.5,78.5 218.5,77.5C 221.167,77.5 223.833,77.5 226.5,77.5C 226.5,73.5 226.5,69.5 226.5,65.5C 227.319,68.3054 227.819,71.3054 228,74.5C 228.11,77.6457 229.443,78.6457 232,77.5C 232.179,73.9748 232.679,70.6414 233.5,67.5C 233.5,70.8333 233.5,74.1667 233.5,77.5C 235.833,77.5 238.167,77.5 240.5,77.5C 240.5,72.5 240.5,67.5 240.5,62.5C 243.475,62.7134 246.142,63.7134 248.5,65.5C 247.4,69.4425 247.233,73.4425 248,77.5C 251.573,72.1736 254.739,72.5069 257.5,78.5C 253.893,79.4892 250.226,79.8226 246.5,79.5C 246.5,83.8333 246.5,88.1667 246.5,92.5C 248.199,92.6602 249.866,92.4935 251.5,92C 252.685,90.647 254.019,89.4803 255.5,88.5C 257.5,90.1667 259.5,91.8333 261.5,93.5C 256.544,94.4941 251.544,94.8275 246.5,94.5C 246.666,100.842 246.5,107.175 246,113.5C 244.736,115.607 242.903,116.607 240.5,116.5C 240.5,109.5 240.5,102.5 240.5,95.5C 237.833,95.5 235.167,95.5 232.5,95.5C 232.201,99.1055 231.035,102.439 229,105.5C 225.625,109.044 222.125,112.377 218.5,115.5C 220.657,116.79 222.99,117.624 225.5,118C 238.216,118.318 250.882,118.485 263.5,118.5C 259.972,119.918 257.305,122.252 255.5,125.5C 248.172,126.584 240.839,126.584 233.5,125.5 Z"/></g>
<g><path style="opacity:1" fill="#deb77f" d="M 59.5,52.5 C 59.8417,53.3382 60.5084,53.6716 61.5,53.5C 61.1667,54.5 60.5,55.1667 59.5,55.5C 54.697,59.4933 52.3637,64.6599 52.5,71C 52.1014,76.3518 53.7681,80.8518 57.5,84.5C 59.9626,88.3002 63.296,90.9668 67.5,92.5C 68.7733,93.0768 68.7733,93.7435 67.5,94.5C 63.8876,96.1287 60.8876,98.462 58.5,101.5C 54.0943,104.649 52.0943,108.982 52.5,114.5C 52.8717,121.573 55.2051,127.906 59.5,133.5C 58.5084,133.328 57.8417,133.662 57.5,134.5C 50.2785,126.98 47.7785,117.98 50,107.5C 50.8466,105.807 51.6799,104.14 52.5,102.5C 54.6411,99.5282 57.3078,97.0282 60.5,95C 56.1967,95.3851 52.03,96.5518 48,98.5C 44.9805,97.4952 42.4805,95.6619 40.5,93C 42.5726,90.0472 45.4059,88.5472 49,88.5C 52.2932,89.2533 55.4599,90.0866 58.5,91C 48.909,81.5383 47.0756,70.7049 53,58.5C 54.4055,55.5914 56.5722,53.5914 59.5,52.5 Z"/></g>
<g><path style="opacity:1" fill="#506a59" d="M 240.5,80.5 C 240.5,84.5 240.5,88.5 240.5,92.5C 238.167,92.5 235.833,92.5 233.5,92.5C 233.5,88.5 233.5,84.5 233.5,80.5C 235.833,80.5 238.167,80.5 240.5,80.5 Z"/></g>
<g><path style="opacity:1" fill="#9da590" d="M 364.5,82.5 C 366.607,81.5318 368.941,81.1984 371.5,81.5C 371.819,86.3633 371.486,91.03 370.5,95.5C 370.5,91.1667 370.5,86.8333 370.5,82.5C 368.5,82.5 366.5,82.5 364.5,82.5 Z"/></g>
<g><path style="opacity:1" fill="#97a28d" d="M 240.5,80.5 C 238.167,80.5 235.833,80.5 233.5,80.5C 233.5,84.5 233.5,88.5 233.5,92.5C 235.833,92.5 238.167,92.5 240.5,92.5C 238.052,93.4731 235.385,93.8064 232.5,93.5C 232.5,88.8333 232.5,84.1667 232.5,79.5C 235.385,79.1936 238.052,79.5269 240.5,80.5 Z"/></g>
<g><path style="opacity:1" fill="#d9b074" d="M 614.5,48.5 C 621.491,49.8355 626.825,53.5022 630.5,59.5C 635.209,72.1899 632.542,83.0232 622.5,92C 626.334,90.936 630.167,89.436 634,87.5C 635.978,88.9056 638.145,89.9056 640.5,90.5C 641.88,94.1651 640.547,96.4985 636.5,97.5C 635.183,97.821 633.849,98.1543 632.5,98.5C 629.381,96.5042 626.047,95.3375 622.5,95C 627.113,99.0722 630.613,103.905 633,109.5C 633.497,112.146 633.664,114.813 633.5,117.5C 632.456,127.542 627.456,134.875 618.5,139.5C 617.833,139.5 617.5,139.167 617.5,138.5C 622.874,134.752 626.541,129.752 628.5,123.5C 631.889,112.669 628.889,104.002 619.5,97.5C 618.115,96.3862 616.615,95.3862 615,94.5C 614.308,93.5632 614.475,92.8966 615.5,92.5C 618.432,91.2003 620.766,89.2003 622.5,86.5C 629.393,79.931 631.06,72.2643 627.5,63.5C 625.5,56.8333 621.167,52.5 614.5,50.5C 613.494,49.6043 613.494,48.9377 614.5,48.5 Z"/></g>
<g><path style="opacity:1" fill="#515d4b" d="M 29.5,55.5 C 26.0058,62.4674 23.1724,69.8007 21,77.5C 20.6612,82.1788 20.8278,86.6788 21.5,91C 20.1306,94.7165 19.4639,98.5499 19.5,102.5C 16.7957,86.7254 19.2957,71.7254 27,57.5C 27.7083,56.6195 28.5416,55.9528 29.5,55.5 Z"/></g>
<g><path style="opacity:1" fill="#deb77c" d="M 132.5,80.5 C 134.026,84.2145 136.026,87.7145 138.5,91C 141.405,92.2862 144.405,93.2862 147.5,94C 139.527,95.2203 134.694,99.7203 133,107.5C 130.77,99.1205 125.27,94.6205 116.5,94C 120.637,93.0656 124.637,91.7322 128.5,90C 130.139,86.9023 131.473,83.7356 132.5,80.5 Z"/></g>
<g><path style="opacity:1" fill="#ad9d77" d="M 131.5,91.5 C 134.183,91.2266 135.683,92.2266 136,94.5C 132.85,96.1612 131.35,95.1612 131.5,91.5 Z"/></g>
<g><path style="opacity:1" fill="#5c715f" d="M 618.5,139.5 C 627.456,134.875 632.456,127.542 633.5,117.5C 634.268,116.737 634.768,115.737 635,114.5C 636.587,115.727 637.921,115.394 639,113.5C 639.167,111.667 639.333,109.833 639.5,108C 639.4,105.698 638.733,103.698 637.5,102C 638.743,100.184 638.41,98.684 636.5,97.5C 640.547,96.4985 641.88,94.1651 640.5,90.5C 641.586,90.38 642.253,89.7133 642.5,88.5C 641.959,85.7924 641.292,83.1257 640.5,80.5C 641.376,79.7492 642.376,79.2492 643.5,79C 640.585,74.3919 639.919,69.7253 641.5,65C 639.403,61.2323 636.903,57.7323 634,54.5C 632.198,55.7893 631.031,57.4559 630.5,59.5C 626.825,53.5022 621.491,49.8355 614.5,48.5C 615.514,47.2353 617.014,46.5687 619,46.5C 625.135,47.4822 630.635,49.9822 635.5,54C 648.613,68.3503 653.446,85.1837 650,104.5C 646.981,122.264 637.148,134.264 620.5,140.5C 619.584,140.457 618.917,140.124 618.5,139.5 Z"/></g>
<g><path style="opacity:1" fill="#dfb87f" d="M 558.5,80.5 C 560.438,83.4449 562.105,86.6116 563.5,90C 566.674,91.7248 570.007,93.0581 573.5,94C 565.746,95.4227 560.912,99.9227 559,107.5C 557.193,100.36 552.693,95.8599 545.5,94C 553.407,92.9266 557.74,88.4266 558.5,80.5 Z"/></g>
<g><path style="opacity:1" fill="#6a7864" d="M 557.5,92.5 C 558.675,92.281 559.675,92.6143 560.5,93.5C 558.948,94.7979 557.948,94.4646 557.5,92.5 Z"/></g>
<g><path style="opacity:1" fill="#778976" d="M 59.5,52.5 C 56.5722,53.5914 54.4055,55.5914 53,58.5C 47.0756,70.7049 48.909,81.5383 58.5,91C 55.4599,90.0866 52.2932,89.2533 49,88.5C 45.4059,88.5472 42.5726,90.0472 40.5,93C 42.4805,95.6619 44.9805,97.4952 48,98.5C 52.03,96.5518 56.1967,95.3851 60.5,95C 57.3078,97.0282 54.6411,99.5282 52.5,102.5C 52.5654,102.062 52.3988,101.728 52,101.5C 50.6152,102.551 49.6152,103.884 49,105.5C 48.3168,111.396 46.9835,117.062 45,122.5C 43.6439,123.38 42.1439,123.714 40.5,123.5C 37.5849,120.01 35.4182,116.01 34,111.5C 29.9782,99.9042 29.6449,88.2375 33,76.5C 37.7065,58.9527 48.8732,48.6194 66.5,45.5C 66.719,46.675 66.3857,47.675 65.5,48.5C 63.0894,49.3611 61.0894,50.6944 59.5,52.5 Z"/></g>
<g><path style="opacity:1" fill="#69806c" d="M 61.5,134.5 C 60.8333,134.167 60.1667,133.833 59.5,133.5C 55.2051,127.906 52.8717,121.573 52.5,114.5C 52.0943,108.982 54.0943,104.649 58.5,101.5C 58.4346,101.938 58.6012,102.272 59,102.5C 60.3513,100.981 61.8513,99.6477 63.5,98.5C 63.8333,99 64.1667,99.5 64.5,100C 63.389,103.301 62.0557,106.468 60.5,109.5C 60.9451,111.388 60.9451,113.388 60.5,115.5C 64.0592,121.648 64.3926,127.982 61.5,134.5 Z"/></g>
<g><path style="opacity:1" fill="#9fab98" d="M 369.5,101.5 C 369.56,100.957 369.893,100.624 370.5,100.5C 371.816,106.32 371.816,111.987 370.5,117.5C 370.821,111.974 370.488,106.64 369.5,101.5 Z"/></g>
<g><path style="opacity:1" fill="#778774" d="M 619.5,97.5 C 628.889,104.002 631.889,112.669 628.5,123.5C 626.166,122.179 624.499,119.679 623.5,116C 623.616,114.732 623.949,113.398 624.5,112C 623.421,108.089 621.588,104.589 619,101.5C 618.421,100.072 618.588,98.7382 619.5,97.5 Z"/></g>
<g><path style="opacity:1" fill="#f7f3f2" d="M 8.5,105.5 C 10.9701,106.36 11.1368,107.694 9,109.5C 8.50999,108.207 8.34332,106.873 8.5,105.5 Z"/></g>
<g><path style="opacity:1" fill="#eee8d5" d="M 340.5,119.5 C 337.309,119.762 334.642,121.095 332.5,123.5C 330.063,122.197 327.896,120.53 326,118.5C 319.548,109.329 314.715,99.3291 311.5,88.5C 305.755,105.575 294.755,117.908 278.5,125.5C 278.016,124.219 278.683,123.219 280.5,122.5C 294.836,109.825 304.002,94.1584 308,75.5C 305.535,70.4296 301.368,67.9296 295.5,68C 297.641,66.6924 299.641,65.1924 301.5,63.5C 304.433,64.93 306.933,66.93 309,69.5C 311,74.8333 313,80.1667 315,85.5C 320.997,99.83 330.831,110.663 344.5,118C 342.942,118.21 341.609,118.71 340.5,119.5 Z"/></g>
<g><path style="opacity:1" fill="#758874" d="M 636.5,97.5 C 638.41,98.684 638.743,100.184 637.5,102C 638.733,103.698 639.4,105.698 639.5,108C 639.333,109.833 639.167,111.667 639,113.5C 637.921,115.394 636.587,115.727 635,114.5C 634.768,115.737 634.268,116.737 633.5,117.5C 633.664,114.813 633.497,112.146 633,109.5C 630.613,103.905 627.113,99.0722 622.5,95C 626.047,95.3375 629.381,96.5042 632.5,98.5C 633.849,98.1543 635.183,97.821 636.5,97.5 Z"/></g>
<g><path style="opacity:1" fill="#ece6d2" d="M 461.5,100.5 C 461.666,108.507 461.5,116.507 461,124.5C 458.295,128.544 456.129,128.377 454.5,124C 455.617,116.537 455.784,109.037 455,101.5C 452.004,103.733 449.171,106.066 446.5,108.5C 444.322,109.929 441.989,110.763 439.5,111C 448.781,103.259 456.281,94.0919 462,83.5C 464.24,84.0362 466.073,85.2029 467.5,87C 465.451,89.5934 463.285,92.0934 461,94.5C 460.289,96.3668 460.789,97.8668 462.5,99C 461.944,99.3826 461.611,99.8826 461.5,100.5 Z"/></g>
<g><path style="opacity:1" fill="#f5f3f2" d="M 11.5,117.5 C 13.9732,117.947 14.1399,118.947 12,120.5C 11.5172,119.552 11.3505,118.552 11.5,117.5 Z"/></g>
<g><path style="opacity:1" fill="#ede6d1" d="M 475.5,83.5 C 478.114,83.9251 480.114,85.2584 481.5,87.5C 480.4,91.4425 480.233,95.4425 481,99.5C 485.098,96.2717 487.931,92.2717 489.5,87.5C 492.787,88.264 495.454,90.0973 497.5,93C 492.262,97.2029 486.762,101.036 481,104.5C 480.333,108.5 480.333,112.5 481,116.5C 486.306,118.946 491.806,119.113 497.5,117C 499.14,113.685 500.474,110.185 501.5,106.5C 502.321,109.447 502.821,112.447 503,115.5C 506.051,117.85 506.217,120.35 503.5,123C 496.908,124.329 490.241,124.829 483.5,124.5C 480.281,124.141 477.447,122.808 475,120.5C 474.828,116.129 474.328,111.796 473.5,107.5C 470.687,109.275 467.687,110.108 464.5,110C 467.927,108.204 471.094,106.037 474,103.5C 474.793,97.1151 474.626,90.7818 473.5,84.5C 473.957,83.7025 474.624,83.3691 475.5,83.5 Z"/></g>
<g><path style="opacity:1" fill="#ece6d3" d="M 372.5,61.5 C 374.781,62.3145 376.781,63.6478 378.5,65.5C 376.317,69.6277 375.984,73.961 377.5,78.5C 378.719,77.7366 379.719,76.7366 380.5,75.5C 382.316,76.8149 383.983,78.3149 385.5,80C 385.167,80.3333 384.833,80.6667 384.5,81C 389.489,81.4993 394.489,81.6659 399.5,81.5C 399.5,78.5 399.5,75.5 399.5,72.5C 395.192,73.3676 390.859,73.5343 386.5,73C 395.663,70.9984 404.163,67.4984 412,62.5C 414.018,64.3501 415.851,66.3501 417.5,68.5C 413.167,69.8333 408.833,71.1667 404.5,72.5C 405.167,73.1667 405.833,73.8333 406.5,74.5C 405.652,76.4086 405.318,78.4086 405.5,80.5C 410.849,81.5386 415.349,80.2053 419,76.5C 420.78,78.2929 422.613,79.9596 424.5,81.5C 418.279,82.1853 412.112,82.8519 406,83.5C 405.5,94.8284 405.333,106.162 405.5,117.5C 408.167,117.5 410.833,117.5 413.5,117.5C 413.5,113.833 413.5,110.167 413.5,106.5C 411.5,106.5 409.5,106.5 407.5,106.5C 407.5,105.5 407.5,104.5 407.5,103.5C 409.467,103.261 411.301,103.594 413,104.5C 413.499,100.848 413.665,97.1817 413.5,93.5C 411.396,93.7989 409.396,93.4656 407.5,92.5C 410.535,92.0016 413.035,90.6683 415,88.5C 417.257,90.0456 419.424,91.7123 421.5,93.5C 421.192,94.3081 420.692,94.9747 420,95.5C 419.5,104.827 419.334,114.161 419.5,123.5C 417.695,124.237 416.029,125.237 414.5,126.5C 413.534,124.604 413.201,122.604 413.5,120.5C 406.167,120.5 398.833,120.5 391.5,120.5C 391.649,121.552 391.483,122.552 391,123.5C 387.935,127.826 385.769,127.492 384.5,122.5C 384.842,112.292 385.842,102.292 387.5,92.5C 389.288,92.7852 390.955,92.4519 392.5,91.5C 394.2,87.542 395.867,87.542 397.5,91.5C 397.5,92.1667 397.5,92.8333 397.5,93.5C 395.254,94.4552 392.921,95.1218 390.5,95.5C 390.183,98.5719 390.516,101.572 391.5,104.5C 393.952,101.716 395.952,102.049 397.5,105.5C 396.675,106.386 395.675,106.719 394.5,106.5C 393.167,106.5 391.833,106.5 390.5,106.5C 390.5,110.5 390.5,114.5 390.5,118.5C 393.5,118.5 396.5,118.5 399.5,118.5C 399.828,106.655 399.495,94.988 398.5,83.5C 391.404,83.6198 384.404,82.9531 377.5,81.5C 376.192,85.0187 376.192,88.6853 377.5,92.5C 378.107,92.3764 378.44,92.0431 378.5,91.5C 379.807,90.8466 381.14,90.1799 382.5,89.5C 381.871,91.997 380.038,93.997 377,95.5C 376.667,104.5 376.333,113.5 376,122.5C 374.117,125.024 371.617,126.358 368.5,126.5C 367.909,123.386 366.242,120.886 363.5,119C 366.036,118.814 368.369,118.314 370.5,117.5C 371.816,111.987 371.816,106.32 370.5,100.5C 369.893,100.624 369.56,100.957 369.5,101.5C 367.203,103.294 365.037,105.294 363,107.5C 360.923,105.924 359.423,103.924 358.5,101.5C 362.178,98.9945 366.178,96.9945 370.5,95.5C 371.486,91.03 371.819,86.3633 371.5,81.5C 368.941,81.1984 366.607,81.5318 364.5,82.5C 362.654,82.7778 361.32,82.1112 360.5,80.5C 363.768,79.513 367.102,79.1796 370.5,79.5C 369.88,73.0738 370.547,67.0738 372.5,61.5 Z"/></g>
<g><path style="opacity:1" fill="#526c5a" d="M 397.5,93.5 C 398.492,101.316 398.826,109.316 398.5,117.5C 396.167,117.5 393.833,117.5 391.5,117.5C 391.5,114.167 391.5,110.833 391.5,107.5C 392.791,107.737 393.791,107.404 394.5,106.5C 395.675,106.719 396.675,106.386 397.5,105.5C 395.952,102.049 393.952,101.716 391.5,104.5C 390.516,101.572 390.183,98.5719 390.5,95.5C 392.921,95.1218 395.254,94.4552 397.5,93.5 Z"/></g>
<g><path style="opacity:1" fill="#879583" d="M 387.5,92.5 C 385.842,102.292 384.842,112.292 384.5,122.5C 384.5,112.167 384.5,101.833 384.5,91.5C 385.791,91.2627 386.791,91.596 387.5,92.5 Z"/></g>
<g><path style="opacity:1" fill="#88927f" d="M 398.5,83.5 C 399.495,94.988 399.828,106.655 399.5,118.5C 396.5,118.5 393.5,118.5 390.5,118.5C 390.5,114.5 390.5,110.5 390.5,106.5C 391.833,106.5 393.167,106.5 394.5,106.5C 393.791,107.404 392.791,107.737 391.5,107.5C 391.5,110.833 391.5,114.167 391.5,117.5C 393.833,117.5 396.167,117.5 398.5,117.5C 398.826,109.316 398.492,101.316 397.5,93.5C 397.5,92.8333 397.5,92.1667 397.5,91.5C 398.473,89.0521 398.806,86.3854 398.5,83.5 Z"/></g>
<g><path style="opacity:1" fill="#8f9c8b" d="M 377.5,81.5 C 377.187,85.0419 377.521,88.3752 378.5,91.5C 378.44,92.0431 378.107,92.3764 377.5,92.5C 376.192,88.6853 376.192,85.0187 377.5,81.5 Z"/></g>
<g><path style="opacity:1" fill="#6f806c" d="M 52.5,102.5 C 51.6799,104.14 50.8466,105.807 50,107.5C 47.7785,117.98 50.2785,126.98 57.5,134.5C 60.3632,137.1 63.6965,138.933 67.5,140C 55.0946,140.128 46.0946,134.628 40.5,123.5C 42.1439,123.714 43.6439,123.38 45,122.5C 46.9835,117.062 48.3168,111.396 49,105.5C 49.6152,103.884 50.6152,102.551 52,101.5C 52.3988,101.728 52.5654,102.062 52.5,102.5 Z"/></g>
<g><path style="opacity:1" fill="#f2f3f2" d="M 16.5,125.5 C 16.2172,126.289 15.7172,126.956 15,127.5C 14.4719,126.184 14.9719,125.517 16.5,125.5 Z"/></g>
<g><path style="opacity:1" fill="#687c6a" d="M 27.5,98.5 C 28.6657,104.122 30.1657,109.789 32,115.5C 36.6482,128.977 45.4815,138.31 58.5,143.5C 59.4612,145.438 58.7946,146.938 56.5,148C 57.2931,149.085 57.9598,150.252 58.5,151.5C 55.911,152.205 53.2443,152.205 50.5,151.5C 49.391,151.443 48.391,151.11 47.5,150.5C 44.9804,148.737 42.6471,146.737 40.5,144.5C 40.5792,143.07 40.2458,141.736 39.5,140.5C 31.1168,130.729 25.1168,119.729 21.5,107.5C 21.7399,104.421 21.4066,101.421 20.5,98.5C 21.0983,97.2054 21.5983,95.8721 22,94.5C 22.6667,93.1667 23.3333,93.1667 24,94.5C 24.4189,98.8518 25.0855,99.1851 26,95.5C 26.3333,97.5 26.6667,99.5 27,101.5C 27.4828,100.552 27.6495,99.552 27.5,98.5 Z"/></g>
<g><path style="opacity:1" fill="#546553" d="M 19.5,103.5 C 20.1667,104.833 20.8333,106.167 21.5,107.5C 25.1168,119.729 31.1168,130.729 39.5,140.5C 40.2458,141.736 40.5792,143.07 40.5,144.5C 38.233,143.404 36.3996,141.737 35,139.5C 30.1474,133.172 25.9807,126.505 22.5,119.5C 20.8652,114.368 19.8652,109.035 19.5,103.5 Z"/></g>
<g><path style="opacity:1" fill="#f2f3f2" d="M 19.5,131.5 C 19.2172,132.289 18.7172,132.956 18,133.5C 17.4719,132.184 17.9719,131.517 19.5,131.5 Z"/></g>
<g><path style="opacity:1" fill="#9a7447" d="M 664.5,111.5 C 664.5,116.5 664.5,121.5 664.5,126.5C 663.833,127.167 663.167,127.833 662.5,128.5C 658.415,129.967 656.248,132.967 656,137.5C 655.667,137.167 655.333,136.833 655,136.5C 652.169,138.838 651.003,141.838 651.5,145.5C 650.402,146.397 650.402,147.23 651.5,148C 648.974,149.389 646.641,150.889 644.5,152.5C 642.58,151.179 642.413,149.846 644,148.5C 644.333,148.833 644.667,149.167 645,149.5C 645.309,148.234 645.809,147.067 646.5,146C 646.272,145.601 645.938,145.435 645.5,145.5C 654.452,135.593 660.785,124.259 664.5,111.5 Z"/></g>
<g><path style="opacity:1" fill="#667b68" d="M 647.5,137.5 C 646.243,140.427 644.243,142.761 641.5,144.5C 633.801,142.883 633.468,139.383 640.5,134C 640.272,133.601 639.938,133.435 639.5,133.5C 653.616,115.587 657.616,95.5868 651.5,73.5C 652.475,71.8073 653.808,70.3073 655.5,69C 657.108,68.342 658.275,68.842 659,70.5C 659.76,76.4752 659.26,82.3085 657.5,88C 659.574,90.3016 660.908,92.9683 661.5,96C 661.141,102.263 659.475,108.763 656.5,115.5C 657.246,116.736 657.579,118.07 657.5,119.5C 656.325,119.281 655.325,119.614 654.5,120.5C 655.428,121.768 655.595,123.101 655,124.5C 652.271,128.723 649.771,133.056 647.5,137.5 Z"/></g>
<g><path style="opacity:1" fill="#c69962" d="M 663.5,100.5 C 663.833,100.5 664.167,100.5 664.5,100.5C 664.5,104.167 664.5,107.833 664.5,111.5C 660.785,124.259 654.452,135.593 645.5,145.5C 642.336,148.584 638.67,150.918 634.5,152.5C 633.893,152.376 633.56,152.043 633.5,151.5C 636.758,149.912 639.425,147.579 641.5,144.5C 644.243,142.761 646.243,140.427 647.5,137.5C 649.55,135.763 651.383,133.763 653,131.5C 658.405,121.784 661.905,111.45 663.5,100.5 Z"/></g>
<g><path style="opacity:1" fill="#7a5e3e" d="M 22.5,119.5 C 25.9807,126.505 30.1474,133.172 35,139.5C 36.3996,141.737 38.233,143.404 40.5,144.5C 42.6471,146.737 44.9804,148.737 47.5,150.5C 46.8359,151.648 46.6692,152.981 47,154.5C 45.9887,153.663 44.8221,153.33 43.5,153.5C 43.6567,152.127 43.49,150.793 43,149.5C 41.6012,150.227 40.1012,150.727 38.5,151C 40.4388,152.432 41.7721,154.265 42.5,156.5C 40.5887,155.925 38.922,154.925 37.5,153.5C 30.3954,147.063 24.3954,139.73 19.5,131.5C 19.0075,129.181 18.0075,127.181 16.5,125.5C 15.5392,122.574 14.8726,119.574 14.5,116.5C 14.3505,115.448 14.5172,114.448 15,113.5C 15.7348,115.871 16.5682,118.205 17.5,120.5C 18.7287,121.281 20.062,121.781 21.5,122C 20.3044,122.654 20.3044,123.154 21.5,123.5C 22.4287,122.311 22.762,120.978 22.5,119.5 Z"/></g>
<g><path style="opacity:1" fill="#566a5c" d="M 396.5,166.5 C 396.631,165.761 396.464,165.094 396,164.5C 394.434,163.939 393.101,164.606 392,166.5C 390.686,165.687 389.519,164.687 388.5,163.5C 384.103,165.699 383.103,166.033 385.5,164.5C 385.714,162.856 385.38,161.356 384.5,160C 386.836,158.73 386.836,157.23 384.5,155.5C 383.167,155.5 381.833,155.5 380.5,155.5C 380.167,154.167 379.833,152.833 379.5,151.5C 378.585,152.328 377.919,153.328 377.5,154.5C 377.428,156.796 377.594,159.13 378,161.5C 376.647,160.315 375.48,158.981 374.5,157.5C 373.328,157.919 372.328,158.585 371.5,159.5C 372.326,160.451 372.492,161.451 372,162.5C 370.498,159.982 368.998,157.482 367.5,155C 368.451,154.282 368.617,153.449 368,152.5C 367.044,153.579 366.211,154.745 365.5,156C 366.956,156.423 367.456,157.256 367,158.5C 366,158.167 365,157.833 364,157.5C 364.148,158.825 363.982,159.992 363.5,161C 361.103,160.679 358.769,161.179 356.5,162.5C 354.727,161.686 354.227,160.352 355,158.5C 358.857,161.139 359.357,160.472 356.5,156.5C 357.727,155.41 358.56,154.076 359,152.5C 359.333,153.5 359.667,154.5 360,155.5C 361.624,155.43 363.457,154.93 365.5,154C 363.505,152.672 361.839,151.005 360.5,149C 361.022,148.05 361.689,147.216 362.5,146.5C 361.167,145.5 361.167,144.5 362.5,143.5C 360.665,142.572 360.332,141.406 361.5,140C 359.807,138.653 358.14,138.153 356.5,138.5C 358.332,137.752 359.999,136.752 361.5,135.5C 363.22,136.934 365.22,137.767 367.5,138C 364.833,138.667 364.833,139.333 367.5,140C 364.376,141.541 364.043,143.375 366.5,145.5C 368.987,145.782 371.653,145.782 374.5,145.5C 372.776,141.19 373.776,140.524 377.5,143.5C 377.154,144.696 376.654,144.696 376,143.5C 375.383,144.449 375.549,145.282 376.5,146C 374.314,146.604 374.148,147.77 376,149.5C 377.333,149.5 378.667,149.5 380,149.5C 380.5,149 381,148.5 381.5,148C 380.483,146.951 380.316,145.784 381,144.5C 384.297,146.491 387.797,147.991 391.5,149C 389.993,149.837 389.493,151.004 390,152.5C 391.726,151.424 393.559,151.257 395.5,152C 392.968,152.612 392.135,154.112 393,156.5C 393.333,155.833 393.667,155.167 394,154.5C 395.419,155.46 396.919,156.293 398.5,157C 396.405,157.556 396.238,158.056 398,158.5C 399.584,158.012 400.751,157.012 401.5,155.5C 401.529,156.834 402.363,158.167 404,159.5C 405.337,157.996 407.004,156.996 409,156.5C 409.456,157.744 408.956,158.577 407.5,159C 410.794,160.804 411.294,163.304 409,166.5C 407.274,164.772 405.941,162.772 405,160.5C 404.626,161.416 404.126,162.25 403.5,163C 404.956,163.423 405.456,164.256 405,165.5C 403.667,164.833 402.333,164.167 401,163.5C 400.383,164.449 400.549,165.282 401.5,166C 400.256,166.456 399.423,165.956 399,164.5C 398.583,165.756 397.75,166.423 396.5,166.5 Z"/></g>
<g><path style="opacity:1" fill="#b5906a" d="M 662.5,128.5 C 660.007,134.98 656.341,140.646 651.5,145.5C 651.003,141.838 652.169,138.838 655,136.5C 655.333,136.833 655.667,137.167 656,137.5C 656.248,132.967 658.415,129.967 662.5,128.5 Z"/></g>
<g><path style="opacity:1" fill="#f2f3f2" d="M 23.5,142.5 C 23.8966,141.475 24.5632,141.308 25.5,142C 24.9056,142.464 24.2389,142.631 23.5,142.5 Z"/></g>
<g><path style="opacity:1" fill="#f2f3f2" d="M 32.5,151.5 C 33.8333,152.167 33.8333,152.167 32.5,151.5 Z"/></g>
<g><path style="opacity:1" fill="#f2f3f2" d="M 37.5,153.5 C 37.1034,154.525 36.4368,154.692 35.5,154C 36.0944,153.536 36.7611,153.369 37.5,153.5 Z"/></g>
<g><path style="opacity:1" fill="#f2f3f2" d="M 645.5,153.5 C 646.833,154.167 646.833,154.167 645.5,153.5 Z"/></g>
<g><path style="opacity:1" fill="#7e5e3a" d="M 645.5,145.5 C 645.938,145.435 646.272,145.601 646.5,146C 645.809,147.067 645.309,148.234 645,149.5C 644.667,149.167 644.333,148.833 644,148.5C 642.413,149.846 642.58,151.179 644.5,152.5C 640.969,156.757 636.636,159.757 631.5,161.5C 630.167,161.5 628.833,161.5 627.5,161.5C 626.323,159.321 625.323,156.987 624.5,154.5C 627.574,153.698 630.574,152.698 633.5,151.5C 633.56,152.043 633.893,152.376 634.5,152.5C 638.67,150.918 642.336,148.584 645.5,145.5 Z"/></g>
<g><path style="opacity:1" fill="#ecc084" d="M 620.5,155.5 C 621.586,155.62 622.253,156.287 622.5,157.5C 622.147,159.731 621.314,161.731 620,163.5C 619.536,162.906 619.369,162.239 619.5,161.5C 619.833,159.5 620.167,157.5 620.5,155.5 Z"/></g>
<g><path style="opacity:1" fill="#556a5c" d="M 315.5,165.5 C 312.482,165.665 309.482,165.498 306.5,165C 307.816,163.022 307.316,161.522 305,160.5C 303.667,161.167 302.667,162.167 302,163.5C 301.577,162.044 300.744,161.544 299.5,162C 297.981,163.351 296.648,164.851 295.5,166.5C 293.257,167.474 290.924,167.808 288.5,167.5C 288.189,166.522 287.522,165.855 286.5,165.5C 283.869,166.344 281.369,166.677 279,166.5C 277.833,165.333 276.667,164.167 275.5,163C 276.449,162.383 277.282,162.549 278,163.5C 278.667,160.833 279.333,160.833 280,163.5C 280.199,161.598 281.033,160.098 282.5,159C 282.167,158.667 281.833,158.333 281.5,158C 282.744,157.544 283.577,158.044 284,159.5C 284.318,157.939 285.151,156.772 286.5,156C 285.692,155.692 285.025,155.192 284.5,154.5C 285.522,153.646 286.355,152.646 287,151.5C 287.626,153.991 288.459,153.991 289.5,151.5C 290.732,152.145 292.065,152.311 293.5,152C 294.458,153.147 294.125,154.147 292.5,155C 295.608,156.353 298.608,157.853 301.5,159.5C 303.117,159.331 304.784,158.997 306.5,158.5C 306.154,157.304 305.654,157.304 305,158.5C 304.333,157.5 304.333,156.5 305,155.5C 305.654,156.696 306.154,156.696 306.5,155.5C 305.833,154.833 305.167,154.167 304.5,153.5C 306.113,153.968 307.613,153.301 309,151.5C 309.658,153.108 309.158,154.275 307.5,155C 309.194,156.728 310.361,156.228 311,153.5C 313.838,154.343 315.671,156.177 316.5,159C 319.77,159.53 322.103,159.197 323.5,158C 322.366,159.016 322.699,159.683 324.5,160C 323.167,161 323.167,162 324.5,163C 323.285,165.096 322.451,164.929 322,162.5C 321.374,164.991 320.541,164.991 319.5,162.5C 318.304,162.846 318.304,163.346 319.5,164C 318.003,165.228 316.669,165.728 315.5,165.5 Z"/></g>
<g><path style="opacity:1" fill="#a8865a" d="M 56.5,167.5 C 55.2616,165.786 54.595,163.786 54.5,161.5C 52.901,161.768 51.5676,161.434 50.5,160.5C 52.1667,160.5 53.8333,160.5 55.5,160.5C 55.7394,158.533 55.4061,156.699 54.5,155C 56.5787,154.192 58.5787,154.359 60.5,155.5C 59.7565,158.443 59.2565,161.443 59,164.5C 57.583,165.078 56.7496,166.078 56.5,167.5 Z"/></g>
<g><path style="opacity:1" fill="#80603a" d="M 47.5,150.5 C 48.391,151.11 49.391,151.443 50.5,151.5C 50.9175,152.222 51.5842,152.722 52.5,153C 55.4816,153.498 58.4816,153.665 61.5,153.5C 61.1757,159.171 63.509,163.171 68.5,165.5C 69.6222,166.947 71.1222,167.947 73,168.5C 73.4955,170.473 73.6621,172.473 73.5,174.5C 72.5,174.5 71.5,174.5 70.5,174.5C 70.5,173.167 70.5,171.833 70.5,170.5C 69.5,170.5 68.5,170.5 67.5,170.5C 67.6495,171.552 67.4828,172.552 67,173.5C 65.6439,172.62 64.1439,172.286 62.5,172.5C 59.2678,172.228 57.2678,170.562 56.5,167.5C 56.7496,166.078 57.583,165.078 59,164.5C 59.2565,161.443 59.7565,158.443 60.5,155.5C 58.5787,154.359 56.5787,154.192 54.5,155C 55.4061,156.699 55.7394,158.533 55.5,160.5C 53.8333,160.5 52.1667,160.5 50.5,160.5C 47.279,160.104 44.6123,158.771 42.5,156.5C 41.7721,154.265 40.4388,152.432 38.5,151C 40.1012,150.727 41.6012,150.227 43,149.5C 43.49,150.793 43.6567,152.127 43.5,153.5C 44.8221,153.33 45.9887,153.663 47,154.5C 46.6692,152.981 46.8359,151.648 47.5,150.5 Z"/></g>
<g><path style="opacity:1" fill="#f2f3f2" d="M 631.5,161.5 C 632.552,161.351 633.552,161.517 634.5,162C 633.251,162.74 632.251,162.573 631.5,161.5 Z"/></g>
<g><path style="opacity:1" fill="#f2f3f2" d="M 52.5,162.5 C 53.8333,163.167 53.8333,163.167 52.5,162.5 Z"/></g>
<g><path style="opacity:1" fill="#506856" d="M 396.5,166.5 C 397.318,167.409 398.984,167.909 401.5,168C 328.164,168.833 254.831,168.667 181.5,167.5C 183.132,167.762 184.299,166.762 185,164.5C 185.691,166.891 186.691,166.891 188,164.5C 189.309,166.891 190.309,166.891 191,164.5C 191.374,165.416 191.874,166.25 192.5,167C 202.517,167.832 212.517,167.666 222.5,166.5C 223.5,163.833 224.5,163.833 225.5,166.5C 226.826,165.01 228.326,163.676 230,162.5C 231,163.833 232,163.833 233,162.5C 236.511,166.487 240.011,167.154 243.5,164.5C 243.833,165.167 244.167,165.833 244.5,166.5C 246.241,162.79 248.241,162.624 250.5,166C 250.167,166.333 249.833,166.667 249.5,167C 262.496,167.5 275.496,167.667 288.5,167.5C 290.924,167.808 293.257,167.474 295.5,166.5C 296.648,164.851 297.981,163.351 299.5,162C 300.744,161.544 301.577,162.044 302,163.5C 302.667,162.167 303.667,161.167 305,160.5C 307.316,161.522 307.816,163.022 306.5,165C 309.482,165.498 312.482,165.665 315.5,165.5C 319.951,166.827 324.784,167.494 330,167.5C 334.833,167.333 339.667,167.167 344.5,167C 343.833,166.667 343.167,166.333 342.5,166C 344.5,165.667 346.5,165.333 348.5,165C 342.953,162.443 343.287,160.943 349.5,160.5C 351.156,162.022 352.323,161.689 353,159.5C 353.305,161.557 353.305,163.557 353,165.5C 354.145,164.364 355.312,163.364 356.5,162.5C 358.769,161.179 361.103,160.679 363.5,161C 363.982,159.992 364.148,158.825 364,157.5C 365,157.833 366,158.167 367,158.5C 367.456,157.256 366.956,156.423 365.5,156C 366.211,154.745 367.044,153.579 368,152.5C 368.617,153.449 368.451,154.282 367.5,155C 368.998,157.482 370.498,159.982 372,162.5C 372.492,161.451 372.326,160.451 371.5,159.5C 372.328,158.585 373.328,157.919 374.5,157.5C 375.48,158.981 376.647,160.315 378,161.5C 377.594,159.13 377.428,156.796 377.5,154.5C 377.919,153.328 378.585,152.328 379.5,151.5C 379.833,152.833 380.167,154.167 380.5,155.5C 381.833,155.5 383.167,155.5 384.5,155.5C 386.836,157.23 386.836,158.73 384.5,160C 385.38,161.356 385.714,162.856 385.5,164.5C 383.103,166.033 384.103,165.699 388.5,163.5C 389.519,164.687 390.686,165.687 392,166.5C 393.101,164.606 394.434,163.939 396,164.5C 396.464,165.094 396.631,165.761 396.5,166.5 Z"/></g>
<g><path style="opacity:1" fill="#617564" d="M 58.5,143.5 C 61.8333,143.833 65.1667,144.167 68.5,144.5C 68.2475,147.32 68.7475,149.986 70,152.5C 73.416,156.587 77.416,159.92 82,162.5C 83.0642,165.799 83.8975,169.132 84.5,172.5C 90.2784,173.072 96.1117,174.072 102,175.5C 103.548,174.316 105.048,174.483 106.5,176C 101.904,176.57 97.2377,177.737 92.5,179.5C 90.8333,179.333 89.1667,179.167 87.5,179C 87.8333,178.667 88.1667,178.333 88.5,178C 85.725,176.346 83.0583,176.679 80.5,179C 81.4158,179.278 82.0825,179.778 82.5,180.5C 80.5328,180.739 78.6995,180.406 77,179.5C 75.2203,174.997 74.387,170.33 74.5,165.5C 72.5,165.5 70.5,165.5 68.5,165.5C 63.509,163.171 61.1757,159.171 61.5,153.5C 58.4816,153.665 55.4816,153.498 52.5,153C 51.5842,152.722 50.9175,152.222 50.5,151.5C 53.2443,152.205 55.911,152.205 58.5,151.5C 57.9598,150.252 57.2931,149.085 56.5,148C 58.7946,146.938 59.4612,145.438 58.5,143.5 Z"/></g>
<g><path style="opacity:1" fill="#667058" d="M 595.5,165.5 C 595.5,166.833 595.5,168.167 595.5,169.5C 531.5,169.5 467.5,169.5 403.5,169.5C 466.998,168.501 530.664,168.168 594.5,168.5C 594.263,167.209 594.596,166.209 595.5,165.5 Z"/></g>
<g><path style="opacity:1" fill="#eebe7f" d="M 597.5,160.5 C 598.833,160.5 599.5,161.167 599.5,162.5C 599.025,165.762 598.025,168.762 596.5,171.5C 426.165,171.833 255.832,171.5 85.5,170.5C 85.6236,169.893 85.9569,169.56 86.5,169.5C 192.167,169.5 297.833,169.5 403.5,169.5C 467.5,169.5 531.5,169.5 595.5,169.5C 595.5,168.167 595.5,166.833 595.5,165.5C 595.402,163.447 596.069,161.78 597.5,160.5 Z"/></g>
<g><path style="opacity:1" fill="#556d5c" d="M 639.5,133.5 C 639.938,133.435 640.272,133.601 640.5,134C 633.468,139.383 633.801,142.883 641.5,144.5C 639.425,147.579 636.758,149.912 633.5,151.5C 630.574,152.698 627.574,153.698 624.5,154.5C 622.901,154.232 621.568,154.566 620.5,155.5C 620.167,157.5 619.833,159.5 619.5,161.5C 616.52,164.325 613.187,166.658 609.5,168.5C 608.073,172.38 606.74,176.38 605.5,180.5C 605.167,180.5 604.833,180.5 604.5,180.5C 430.5,180.5 256.5,180.5 82.5,180.5C 82.0825,179.778 81.4158,179.278 80.5,179C 83.0583,176.679 85.725,176.346 88.5,178C 88.1667,178.333 87.8333,178.667 87.5,179C 89.1667,179.167 90.8333,179.333 92.5,179.5C 97.2377,177.737 101.904,176.57 106.5,176C 105.048,174.483 103.548,174.316 102,175.5C 96.1117,174.072 90.2784,173.072 84.5,172.5C 255.334,172.833 426.001,172.5 596.5,171.5C 598.025,168.762 599.025,165.762 599.5,162.5C 607.732,159.274 612.065,153.274 612.5,144.5C 622.926,144.141 631.926,140.474 639.5,133.5 Z"/></g>
<g><path style="opacity:1" fill="#d5a971" d="M 609.5,168.5 C 610.497,168.47 611.164,168.97 611.5,170C 610.589,173.145 609.755,176.312 609,179.5C 608.076,181.495 606.91,181.828 605.5,180.5C 606.74,176.38 608.073,172.38 609.5,168.5 Z"/></g>
<g><path style="opacity:1" fill="#474e38" d="M 68.5,165.5 C 70.5,165.5 72.5,165.5 74.5,165.5C 74.387,170.33 75.2203,174.997 77,179.5C 78.6995,180.406 80.5328,180.739 82.5,180.5C 256.5,180.5 430.5,180.5 604.5,180.5C 580.006,181.498 555.339,181.831 530.5,181.5C 530.167,181.5 529.833,181.5 529.5,181.5C 378.166,181.667 226.833,181.5 75.5,181C 74.6028,178.913 73.9361,176.746 73.5,174.5C 73.6621,172.473 73.4955,170.473 73,168.5C 71.1222,167.947 69.6222,166.947 68.5,165.5 Z"/></g>
<g><path style="opacity:1" fill="#967548" d="M 73.5,174.5 C 73.9361,176.746 74.6028,178.913 75.5,181C 226.833,181.5 378.166,181.667 529.5,181.5C 379.333,182.167 228.999,182.833 78.5,183.5C 233.832,184.5 389.165,184.833 544.5,184.5C 562.167,184.5 579.833,184.5 597.5,184.5C 561.337,185.498 525.004,185.832 488.5,185.5C 351.5,185.5 214.5,185.5 77.5,185.5C 77.5,184.5 77.5,183.5 77.5,182.5C 75.1756,182.662 73.5089,183.828 72.5,186C 73.056,186.383 73.3893,186.883 73.5,187.5C 71.629,187.141 70.129,186.141 69,184.5C 67.692,181.27 66.692,177.936 66,174.5C 64.6976,173.915 63.531,173.249 62.5,172.5C 64.1439,172.286 65.6439,172.62 67,173.5C 67.4828,172.552 67.6495,171.552 67.5,170.5C 68.5,170.5 69.5,170.5 70.5,170.5C 70.5,171.833 70.5,173.167 70.5,174.5C 71.5,174.5 72.5,174.5 73.5,174.5 Z"/></g>
<g><path style="opacity:1" fill="#a37d4f" d="M 620.5,155.5 C 621.568,154.566 622.901,154.232 624.5,154.5C 625.323,156.987 626.323,159.321 627.5,161.5C 627.118,168.553 623.452,172.886 616.5,174.5C 615.858,178.023 614.692,181.356 613,184.5C 611.871,186.141 610.371,187.141 608.5,187.5C 608.119,186.069 607.119,185.236 605.5,185C 602.854,184.503 600.187,184.336 597.5,184.5C 579.833,184.5 562.167,184.5 544.5,184.5C 539.78,183.79 535.113,182.79 530.5,181.5C 555.339,181.831 580.006,181.498 604.5,180.5C 604.833,180.5 605.167,180.5 605.5,180.5C 606.91,181.828 608.076,181.495 609,179.5C 609.755,176.312 610.589,173.145 611.5,170C 611.164,168.97 610.497,168.47 609.5,168.5C 613.187,166.658 616.52,164.325 619.5,161.5C 619.369,162.239 619.536,162.906 620,163.5C 621.314,161.731 622.147,159.731 622.5,157.5C 622.253,156.287 621.586,155.62 620.5,155.5 Z"/></g>
<g><path style="opacity:1" fill="#b08856" d="M 529.5,181.5 C 529.833,181.5 530.167,181.5 530.5,181.5C 535.113,182.79 539.78,183.79 544.5,184.5C 389.165,184.833 233.832,184.5 78.5,183.5C 228.999,182.833 379.333,182.167 529.5,181.5 Z"/></g>
<g><path style="opacity:1" fill="#987856" d="M 488.5,185.5 C 488.918,186.222 489.584,186.722 490.5,187C 477.167,187.333 463.833,187.667 450.5,188C 502.499,188.5 554.499,188.667 606.5,188.5C 606.5,188.833 606.5,189.167 606.5,189.5C 429.833,189.5 253.167,189.5 76.5,189.5C 75.5,188.833 74.5,188.167 73.5,187.5C 73.3893,186.883 73.056,186.383 72.5,186C 73.5089,183.828 75.1756,182.662 77.5,182.5C 77.5,183.5 77.5,184.5 77.5,185.5C 214.5,185.5 351.5,185.5 488.5,185.5 Z"/></g>
<g><path style="opacity:1" fill="#75532d" d="M 597.5,184.5 C 600.187,184.336 602.854,184.503 605.5,185C 607.119,185.236 608.119,186.069 608.5,187.5C 608.158,188.338 607.492,188.672 606.5,188.5C 554.499,188.667 502.499,188.5 450.5,188C 463.833,187.667 477.167,187.333 490.5,187C 489.584,186.722 488.918,186.222 488.5,185.5C 525.004,185.832 561.337,185.498 597.5,184.5 Z"/></g>
<g><path style="opacity:1" fill="#f2f3f2" d="M 76.5,189.5 C 76.1034,190.525 75.4368,190.692 74.5,190C 75.0944,189.536 75.7611,189.369 76.5,189.5 Z"/></g>
<g><path style="opacity:1" fill="#f2f3f2" d="M 606.5,189.5 C 607.833,190.167 607.833,190.167 606.5,189.5 Z"/></g>
</svg>
